<?xml version="1.0" encoding="UTF-8" standalone="no"?>
<!DOCTYPE svg PUBLIC "-//W3C//DTD SVG 1.1//EN"
 "http://www.w3.org/Graphics/SVG/1.1/DTD/svg11.dtd">
<!-- Generated by graphviz version 14.0.4 (20251115.1723)
 -->
<!-- Title: src/main/java/com/goldenleaf/shop/repository/AdminRepository.java Pages: 1 -->
<svg width="635pt" height="105pt"
 viewBox="0.00 0.00 635.00 105.00" xmlns="http://www.w3.org/2000/svg" xmlns:xlink="http://www.w3.org/1999/xlink">
<g id="graph0" class="graph" transform="scale(1 1) rotate(0) translate(4 101)">
<title>src/main/java/com/goldenleaf/shop/repository/AdminRepository.java</title>
<!-- Node1 -->
<g id="Node000001" class="node">
<title>Node1</title>
<g id="a_Node000001"><a xlink:title=" ">
<polygon fill="#999999" stroke="#666666" points="388,-97 204.75,-97 204.75,-66.5 388,-66.5 388,-97"/>
<text xml:space="preserve" text-anchor="start" x="212.75" y="-83.5" font-family="Helvetica,sans-Serif" font-size="10.00">src/main/java/com/goldenleaf</text>
<text xml:space="preserve" text-anchor="middle" x="296.38" y="-72.25" font-family="Helvetica,sans-Serif" font-size="10.00">/shop/repository/AdminRepository.java</text>
</a>
</g>
</g>
<!-- Node2 -->
<g id="Node000002" class="node">
<title>Node2</title>
<g id="a_Node000002"><a xlink:title=" ">
<polygon fill="#e0e0e0" stroke="#999999" points="88.75,-24.88 0,-24.88 0,-5.63 88.75,-5.63 88.75,-24.88"/>
<text xml:space="preserve" text-anchor="middle" x="44.38" y="-11.38" font-family="Helvetica,sans-Serif" font-size="10.00">java.util.Optional</text>
</a>
</g>
</g>
<!-- Node1&#45;&gt;Node2 -->
<g id="edge1_Node000001_Node000002" class="edge">
<title>Node1&#45;&gt;Node2</title>
<g id="a_edge1_Node000001_Node000002"><a xlink:title=" ">
<path fill="none" stroke="#63b8ff" d="M237.1,-66.04C197.5,-56.14 144.27,-42.72 97.38,-30.5 94.63,-29.78 91.81,-29.04 88.97,-28.29"/>
<polygon fill="#63b8ff" stroke="#63b8ff" points="90.03,-24.95 79.46,-25.76 88.23,-31.72 90.03,-24.95"/>
</a>
</g>
</g>
<!-- Node3 -->
<g id="Node000003" class="node">
<title>Node3</title>
<g id="a_Node000003"><a xlink:title=" ">
<polygon fill="#e0e0e0" stroke="#999999" points="296,-30.5 106.75,-30.5 106.75,0 296,0 296,-30.5"/>
<text xml:space="preserve" text-anchor="start" x="114.75" y="-17" font-family="Helvetica,sans-Serif" font-size="10.00">org.springframework.data.jpa.repository.</text>
<text xml:space="preserve" text-anchor="middle" x="201.38" y="-5.75" font-family="Helvetica,sans-Serif" font-size="10.00">JpaRepository</text>
</a>
</g>
</g>
<!-- Node1&#45;&gt;Node3 -->
<g id="edge2_Node000001_Node000003" class="edge">
<title>Node1&#45;&gt;Node3</title>
<g id="a_edge2_Node000001_Node000003"><a xlink:title=" ">
<path fill="none" stroke="#63b8ff" d="M274.82,-66.11C262.19,-57.54 246.02,-46.56 232.08,-37.09"/>
<polygon fill="#63b8ff" stroke="#63b8ff" points="234.34,-34.4 224.1,-31.68 230.41,-40.19 234.34,-34.4"/>
</a>
</g>
</g>
<!-- Node4 -->
<g id="Node000004" class="node">
<title>Node4</title>
<g id="a_Node000004"><a xlink:title=" ">
<polygon fill="#e0e0e0" stroke="#999999" points="470.5,-30.5 314.25,-30.5 314.25,0 470.5,0 470.5,-30.5"/>
<text xml:space="preserve" text-anchor="start" x="322.25" y="-17" font-family="Helvetica,sans-Serif" font-size="10.00">org.springframework.stereotype.</text>
<text xml:space="preserve" text-anchor="middle" x="392.38" y="-5.75" font-family="Helvetica,sans-Serif" font-size="10.00">Repository</text>
</a>
</g>
</g>
<!-- Node1&#45;&gt;Node4 -->
<g id="edge3_Node000001_Node000004" class="edge">
<title>Node1&#45;&gt;Node4</title>
<g id="a_edge3_Node000001_Node000004"><a xlink:title=" ">
<path fill="none" stroke="#63b8ff" d="M318.16,-66.11C330.92,-57.54 347.26,-46.56 361.35,-37.09"/>
<polygon fill="#63b8ff" stroke="#63b8ff" points="363.07,-40.15 369.42,-31.67 359.17,-34.34 363.07,-40.15"/>
</a>
</g>
</g>
<!-- Node5 -->
<g id="Node000005" class="node">
<title>Node5</title>
<g id="a_Node000005"><a xlink:title=" ">
<polygon fill="#e0e0e0" stroke="#999999" points="626.5,-30.5 488.25,-30.5 488.25,0 626.5,0 626.5,-30.5"/>
<text xml:space="preserve" text-anchor="start" x="496.25" y="-17" font-family="Helvetica,sans-Serif" font-size="10.00">com.goldenleaf.shop.model.</text>
<text xml:space="preserve" text-anchor="middle" x="557.38" y="-5.75" font-family="Helvetica,sans-Serif" font-size="10.00">Admin</text>
</a>
</g>
</g>
<!-- Node1&#45;&gt;Node5 -->
<g id="edge4_Node000001_Node000005" class="edge">
<title>Node1&#45;&gt;Node5</title>
<g id="a_edge4_Node000001_Node000005"><a xlink:title=" ">
<path fill="none" stroke="#63b8ff" d="M355.93,-66.03C394.93,-56.39 446.08,-43.75 487.08,-33.62"/>
<polygon fill="#63b8ff" stroke="#63b8ff" points="487.74,-37.06 496.61,-31.27 486.06,-30.27 487.74,-37.06"/>
</a>
</g>
</g>
</g>
</svg>
