<?xml version="1.0" encoding="UTF-8" standalone="no"?>
<!DOCTYPE svg PUBLIC "-//W3C//DTD SVG 1.1//EN"
 "http://www.w3.org/Graphics/SVG/1.1/DTD/svg11.dtd">
<!-- Generated by graphviz version 14.0.4 (20251115.1723)
 -->
<!-- Title: src/main/java/com/goldenleaf/shop/model/Admin.java Pages: 1 -->
<svg width="552pt" height="94pt"
 viewBox="0.00 0.00 552.00 94.00" xmlns="http://www.w3.org/2000/svg" xmlns:xlink="http://www.w3.org/1999/xlink">
<g id="graph0" class="graph" transform="scale(1 1) rotate(0) translate(4 89.75)">
<title>src/main/java/com/goldenleaf/shop/model/Admin.java</title>
<!-- Node1 -->
<g id="Node000001" class="node">
<title>Node1</title>
<g id="a_Node000001"><a xlink:title=" ">
<polygon fill="#999999" stroke="#666666" points="334.25,-85.75 190.75,-85.75 190.75,-55.25 334.25,-55.25 334.25,-85.75"/>
<text xml:space="preserve" text-anchor="start" x="198.75" y="-72.25" font-family="Helvetica,sans-Serif" font-size="10.00">src/main/java/com/goldenleaf</text>
<text xml:space="preserve" text-anchor="middle" x="262.5" y="-61" font-family="Helvetica,sans-Serif" font-size="10.00">/shop/model/Admin.java</text>
</a>
</g>
</g>
<!-- Node2 -->
<g id="Node000002" class="node">
<title>Node2</title>
<g id="a_Node000002"><a xlink:title=" ">
<polygon fill="#e0e0e0" stroke="#999999" points="103,-19.25 0,-19.25 0,0 103,0 103,-19.25"/>
<text xml:space="preserve" text-anchor="middle" x="51.5" y="-5.75" font-family="Helvetica,sans-Serif" font-size="10.00">java.time.LocalDate</text>
</a>
</g>
</g>
<!-- Node1&#45;&gt;Node2 -->
<g id="edge1_Node000001_Node000002" class="edge">
<title>Node1&#45;&gt;Node2</title>
<g id="a_edge1_Node000001_Node000002"><a xlink:title=" ">
<path fill="none" stroke="#63b8ff" d="M209.8,-54.8C174.38,-44.91 128.26,-32.04 94.94,-22.75"/>
<polygon fill="#63b8ff" stroke="#63b8ff" points="96.2,-19.46 85.63,-20.15 94.32,-26.21 96.2,-19.46"/>
</a>
</g>
</g>
<!-- Node3 -->
<g id="Node000003" class="node">
<title>Node3</title>
<g id="a_Node000003"><a xlink:title=" ">
<polygon fill="#e0e0e0" stroke="#999999" points="256.12,-19.25 120.88,-19.25 120.88,0 256.12,0 256.12,-19.25"/>
<text xml:space="preserve" text-anchor="middle" x="188.5" y="-5.75" font-family="Helvetica,sans-Serif" font-size="10.00">jakarta.persistence.Column</text>
</a>
</g>
</g>
<!-- Node1&#45;&gt;Node3 -->
<g id="edge2_Node000001_Node000003" class="edge">
<title>Node1&#45;&gt;Node3</title>
<g id="a_edge2_Node000001_Node000003"><a xlink:title=" ">
<path fill="none" stroke="#63b8ff" d="M244.21,-54.95C233.48,-46.41 219.91,-35.62 208.85,-26.81"/>
<polygon fill="#63b8ff" stroke="#63b8ff" points="211.1,-24.13 201.09,-20.64 206.74,-29.61 211.1,-24.13"/>
</a>
</g>
</g>
<!-- Node4 -->
<g id="Node000004" class="node">
<title>Node4</title>
<g id="a_Node000004"><a xlink:title=" ">
<polygon fill="#e0e0e0" stroke="#999999" points="401,-19.25 274,-19.25 274,0 401,0 401,-19.25"/>
<text xml:space="preserve" text-anchor="middle" x="337.5" y="-5.75" font-family="Helvetica,sans-Serif" font-size="10.00">jakarta.persistence.Entity</text>
</a>
</g>
</g>
<!-- Node1&#45;&gt;Node4 -->
<g id="edge3_Node000001_Node000004" class="edge">
<title>Node1&#45;&gt;Node4</title>
<g id="a_edge3_Node000001_Node000004"><a xlink:title=" ">
<path fill="none" stroke="#63b8ff" d="M281.04,-54.95C292.02,-46.33 305.94,-35.4 317.22,-26.55"/>
<polygon fill="#63b8ff" stroke="#63b8ff" points="319.04,-29.56 324.75,-20.64 314.72,-24.06 319.04,-29.56"/>
</a>
</g>
</g>
<!-- Node5 -->
<g id="Node000005" class="node">
<title>Node5</title>
<g id="a_Node000005"><a xlink:title=" ">
<polygon fill="#e0e0e0" stroke="#999999" points="543.88,-19.25 419.12,-19.25 419.12,0 543.88,0 543.88,-19.25"/>
<text xml:space="preserve" text-anchor="middle" x="481.5" y="-5.75" font-family="Helvetica,sans-Serif" font-size="10.00">jakarta.persistence.Table</text>
</a>
</g>
</g>
<!-- Node1&#45;&gt;Node5 -->
<g id="edge4_Node000001_Node000005" class="edge">
<title>Node1&#45;&gt;Node5</title>
<g id="a_edge4_Node000001_Node000005"><a xlink:title=" ">
<path fill="none" stroke="#63b8ff" d="M317.2,-54.8C354.12,-44.87 402.25,-31.93 436.86,-22.63"/>
<polygon fill="#63b8ff" stroke="#63b8ff" points="437.38,-26.11 446.13,-20.13 435.56,-19.35 437.38,-26.11"/>
</a>
</g>
</g>
</g>
</svg>
