<?xml version="1.0" encoding="UTF-8" standalone="no"?>
<!DOCTYPE svg PUBLIC "-//W3C//DTD SVG 1.1//EN"
 "http://www.w3.org/Graphics/SVG/1.1/DTD/svg11.dtd">
<!-- Generated by graphviz version 14.0.4 (20251115.1723)
 -->
<!-- Title: frontend/node_modules/@parcel/watcher/src/watchman/BSER.cc Pages: 1 -->
<svg width="349pt" height="160pt"
 viewBox="0.00 0.00 349.00 160.00" xmlns="http://www.w3.org/2000/svg" xmlns:xlink="http://www.w3.org/1999/xlink">
<g id="graph0" class="graph" transform="scale(1 1) rotate(0) translate(4 156.25)">
<title>frontend/node_modules/@parcel/watcher/src/watchman/BSER.cc</title>
<!-- Node1 -->
<g id="Node000001" class="node">
<title>Node1</title>
<g id="a_Node000001"><a xlink:title=" ">
<polygon fill="#999999" stroke="#666666" points="170.62,-152.25 53.38,-152.25 53.38,-110.5 170.62,-110.5 170.62,-152.25"/>
<text xml:space="preserve" text-anchor="start" x="61.38" y="-138.75" font-family="Helvetica,sans-Serif" font-size="10.00">frontend/node_modules</text>
<text xml:space="preserve" text-anchor="start" x="61.38" y="-127.5" font-family="Helvetica,sans-Serif" font-size="10.00">/@parcel/watcher/src</text>
<text xml:space="preserve" text-anchor="middle" x="112" y="-116.25" font-family="Helvetica,sans-Serif" font-size="10.00">/watchman/BSER.cc</text>
</a>
</g>
</g>
<!-- Node2 -->
<g id="Node000002" class="node">
<title>Node2</title>
<g id="a_Node000002"><a xlink:title=" ">
<polygon fill="#e0e0e0" stroke="#999999" points="99.12,-74.5 50.88,-74.5 50.88,-55.25 99.12,-55.25 99.12,-74.5"/>
<text xml:space="preserve" text-anchor="middle" x="75" y="-61" font-family="Helvetica,sans-Serif" font-size="10.00">stdint.h</text>
</a>
</g>
</g>
<!-- Node1&#45;&gt;Node2 -->
<g id="edge1_Node000001_Node000002" class="edge">
<title>Node1&#45;&gt;Node2</title>
<g id="a_edge1_Node000001_Node000002"><a xlink:title=" ">
<path fill="none" stroke="#63b8ff" d="M100.5,-110.32C95.83,-102.18 90.47,-92.83 85.87,-84.82"/>
<polygon fill="#63b8ff" stroke="#63b8ff" points="88.97,-83.19 80.96,-76.26 82.9,-86.67 88.97,-83.19"/>
</a>
</g>
</g>
<!-- Node3 -->
<g id="Node000003" class="node">
<title>Node3</title>
<g id="a_Node000003"><a xlink:href="_b_s_e_r_8hh.html" target="_top" xlink:title=" ">
<polygon fill="white" stroke="#666666" points="180.62,-74.5 117.38,-74.5 117.38,-55.25 180.62,-55.25 180.62,-74.5"/>
<text xml:space="preserve" text-anchor="middle" x="149" y="-61" font-family="Helvetica,sans-Serif" font-size="10.00">./BSER.hh</text>
</a>
</g>
</g>
<!-- Node1&#45;&gt;Node3 -->
<g id="edge2_Node000001_Node000003" class="edge">
<title>Node1&#45;&gt;Node3</title>
<g id="a_edge2_Node000001_Node000003"><a xlink:title=" ">
<path fill="none" stroke="#63b8ff" d="M123.5,-110.32C128.17,-102.18 133.53,-92.83 138.13,-84.82"/>
<polygon fill="#63b8ff" stroke="#63b8ff" points="141.1,-86.67 143.04,-76.26 135.03,-83.19 141.1,-86.67"/>
</a>
</g>
</g>
<!-- Node4 -->
<g id="Node000004" class="node">
<title>Node4</title>
<g id="a_Node000004"><a xlink:title=" ">
<polygon fill="#e0e0e0" stroke="#999999" points="40,-19.25 0,-19.25 0,0 40,0 40,-19.25"/>
<text xml:space="preserve" text-anchor="middle" x="20" y="-5.75" font-family="Helvetica,sans-Serif" font-size="10.00">string</text>
</a>
</g>
</g>
<!-- Node3&#45;&gt;Node4 -->
<g id="edge3_Node000003_Node000004" class="edge">
<title>Node3&#45;&gt;Node4</title>
<g id="a_edge3_Node000003_Node000004"><a xlink:title=" ">
<path fill="none" stroke="#63b8ff" d="M127.12,-54.84C106.14,-46.18 74.28,-33.03 50.76,-23.32"/>
<polygon fill="#63b8ff" stroke="#63b8ff" points="52.27,-20.16 41.69,-19.58 49.59,-26.63 52.27,-20.16"/>
</a>
</g>
</g>
<!-- Node5 -->
<g id="Node000005" class="node">
<title>Node5</title>
<g id="a_Node000005"><a xlink:title=" ">
<polygon fill="#e0e0e0" stroke="#999999" points="109.62,-19.25 58.38,-19.25 58.38,0 109.62,0 109.62,-19.25"/>
<text xml:space="preserve" text-anchor="middle" x="84" y="-5.75" font-family="Helvetica,sans-Serif" font-size="10.00">sstream</text>
</a>
</g>
</g>
<!-- Node3&#45;&gt;Node5 -->
<g id="edge4_Node000003_Node000005" class="edge">
<title>Node3&#45;&gt;Node5</title>
<g id="a_edge4_Node000003_Node000005"><a xlink:title=" ">
<path fill="none" stroke="#63b8ff" d="M137.97,-54.84C128.58,-47.15 114.85,-35.9 103.59,-26.68"/>
<polygon fill="#63b8ff" stroke="#63b8ff" points="105.99,-24.11 96.03,-20.48 101.55,-29.53 105.99,-24.11"/>
</a>
</g>
</g>
<!-- Node6 -->
<g id="Node000006" class="node">
<title>Node6</title>
<g id="a_Node000006"><a xlink:title=" ">
<polygon fill="#e0e0e0" stroke="#999999" points="170.5,-19.25 127.5,-19.25 127.5,0 170.5,0 170.5,-19.25"/>
<text xml:space="preserve" text-anchor="middle" x="149" y="-5.75" font-family="Helvetica,sans-Serif" font-size="10.00">vector</text>
</a>
</g>
</g>
<!-- Node3&#45;&gt;Node6 -->
<g id="edge5_Node000003_Node000006" class="edge">
<title>Node3&#45;&gt;Node6</title>
<g id="a_edge5_Node000003_Node000006"><a xlink:title=" ">
<path fill="none" stroke="#63b8ff" d="M149,-55.08C149,-48.57 149,-39.42 149,-31.12"/>
<polygon fill="#63b8ff" stroke="#63b8ff" points="152.5,-31.12 149,-21.12 145.5,-31.12 152.5,-31.12"/>
</a>
</g>
</g>
<!-- Node7 -->
<g id="Node000007" class="node">
<title>Node7</title>
<g id="a_Node000007"><a xlink:title=" ">
<polygon fill="#e0e0e0" stroke="#999999" points="271.38,-19.25 188.62,-19.25 188.62,0 271.38,0 271.38,-19.25"/>
<text xml:space="preserve" text-anchor="middle" x="230" y="-5.75" font-family="Helvetica,sans-Serif" font-size="10.00">unordered_map</text>
</a>
</g>
</g>
<!-- Node3&#45;&gt;Node7 -->
<g id="edge6_Node000003_Node000007" class="edge">
<title>Node3&#45;&gt;Node7</title>
<g id="a_edge6_Node000003_Node000007"><a xlink:title=" ">
<path fill="none" stroke="#63b8ff" d="M162.74,-54.84C174.73,-46.96 192.37,-35.36 206.58,-26.02"/>
<polygon fill="#63b8ff" stroke="#63b8ff" points="208.49,-28.95 214.93,-20.53 204.65,-23.1 208.49,-28.95"/>
</a>
</g>
</g>
<!-- Node8 -->
<g id="Node000008" class="node">
<title>Node8</title>
<g id="a_Node000008"><a xlink:title=" ">
<polygon fill="#e0e0e0" stroke="#999999" points="340.62,-19.25 289.38,-19.25 289.38,0 340.62,0 340.62,-19.25"/>
<text xml:space="preserve" text-anchor="middle" x="315" y="-5.75" font-family="Helvetica,sans-Serif" font-size="10.00">memory</text>
</a>
</g>
</g>
<!-- Node3&#45;&gt;Node8 -->
<g id="edge7_Node000003_Node000008" class="edge">
<title>Node3&#45;&gt;Node8</title>
<g id="a_edge7_Node000003_Node000008"><a xlink:title=" ">
<path fill="none" stroke="#63b8ff" d="M177.16,-54.84C205.01,-45.91 247.76,-32.2 278.26,-22.41"/>
<polygon fill="#63b8ff" stroke="#63b8ff" points="279,-25.85 287.45,-19.46 276.86,-19.18 279,-25.85"/>
</a>
</g>
</g>
</g>
</svg>
