<?xml version="1.0" encoding="UTF-8" standalone="no"?>
<!DOCTYPE svg PUBLIC "-//W3C//DTD SVG 1.1//EN"
 "http://www.w3.org/Graphics/SVG/1.1/DTD/svg11.dtd">
<!-- Generated by graphviz version 14.0.4 (20251115.1723)
 -->
<!-- Title: frontend/node_modules/@parcel/watcher/src/Backend.cc Pages: 1 -->
<!--zoomable 492 -->

<svg id="main" version="1.1" xmlns="http://www.w3.org/2000/svg" xmlns:xlink="http://www.w3.org/1999/xlink" xml:space="preserve" onload="init(evt)">

<style type="text/css"><![CDATA[
.node, .edge {opacity: 0.7;}
.node.selected, .edge.selected {opacity: 1;}
.edge:hover path { stroke: red; }
.edge:hover polygon { stroke: red; fill: red; }
]]></style>

<defs>
  <circle id="rim" cx="0" cy="0" r="7"/>
  <circle id="rim2" cx="0" cy="0" r="3.5"/>
  <g id="zoomPlus">
    <use xlink:href="#rim" fill="#404040"><set attributeName="fill" to="#808080" begin="zoomplus.mouseover" end="zoomplus.mouseout"/></use>
    <path d="M-4,0h8M0,-4v8" fill="none" stroke="white" stroke-width="1.5" pointer-events="none"/>
  </g>
  <g id="zoomMin">
    <use xlink:href="#rim" fill="#404040"><set attributeName="fill" to="#808080" begin="zoomminus.mouseover" end="zoomminus.mouseout"/></use>
    <path d="M-4,0h8" fill="none" stroke="white" stroke-width="1.5" pointer-events="none"/>
  </g>
  <g id="arrowUp" transform="translate(30 24)">
    <use xlink:href="#rim"/>
    <path pointer-events="none" fill="none" stroke="white" stroke-width="1.5" d="M0,-3.0v7 M-2.5,-0.5L0,-3.0L2.5,-0.5"/>
  </g>
  <g id="arrowRight" transform="rotate(90) translate(36 -43)">
    <use xlink:href="#rim"/>
    <path pointer-events="none" fill="none" stroke="white" stroke-width="1.5" d="M0,-3.0v7 M-2.5,-0.5L0,-3.0L2.5,-0.5"/>
  </g>
  <g id="arrowDown" transform="rotate(180) translate(-30 -48)">
    <use xlink:href="#rim"/>
    <path pointer-events="none" fill="none" stroke="white" stroke-width="1.5" d="M0,-3.0v7 M-2.5,-0.5L0,-3.0L2.5,-0.5"/>
  </g>
  <g id="arrowLeft" transform="rotate(270) translate(-36 17)">
    <use xlink:href="#rim"/>
    <path pointer-events="none" fill="none" stroke="white" stroke-width="1.5" d="M0,-3.0v7 M-2.5,-0.5L0,-3.0L2.5,-0.5"/>
  </g>
  <g id="resetDef">
    <use xlink:href="#rim2" fill="#404040"><set attributeName="fill" to="#808080" begin="reset.mouseover" end="reset.mouseout"/></use>
  </g>
</defs>
<script type="application/ecmascript">
var viewWidth = 715;
var viewHeight = 492;
var sectionId = 'dynsection-0';
</script>
<script type="application/ecmascript" xlink:href="svg.min.js"/>
<svg id="graph" class="graph">
<g id="viewport">
<title>frontend/node_modules/@parcel/watcher/src/Backend.cc</title>
<!-- Node1 -->
<g id="Node000001" class="node">
<title>Node1</title>
<g id="a_Node000001"><a xlink:title=" ">
<polygon fill="#999999" stroke="#666666" points="591.65,-483.75 474.4,-483.75 474.4,-442 591.65,-442 591.65,-483.75"/>
<text xml:space="preserve" text-anchor="start" x="482.4" y="-470.25" font-family="Helvetica,sans-Serif" font-size="10.00">frontend/node_modules</text>
<text xml:space="preserve" text-anchor="start" x="482.4" y="-459" font-family="Helvetica,sans-Serif" font-size="10.00">/@parcel/watcher/src</text>
<text xml:space="preserve" text-anchor="middle" x="533.02" y="-447.75" font-family="Helvetica,sans-Serif" font-size="10.00">/Backend.cc</text>
</a>
</g>
</g>
<!-- Node2 -->
<g id="Node000002" class="node">
<title>Node2</title>
<g id="a_Node000002"><a xlink:href="_brute_force_backend_8hh.html" target="_top" xlink:title=" ">
<polygon fill="white" stroke="#666666" points="505.02,-406 357.02,-406 357.02,-386.75 505.02,-386.75 505.02,-406"/>
<text xml:space="preserve" text-anchor="middle" x="431.02" y="-392.5" font-family="Helvetica,sans-Serif" font-size="10.00">shared/BruteForceBackend.hh</text>
</a>
</g>
</g>
<!-- Node1&#45;&gt;Node2 -->
<g id="edge1_Node000001_Node000002" class="edge">
<title>Node1&#45;&gt;Node2</title>
<g id="a_edge1_Node000001_Node000002"><a xlink:title=" ">
<path fill="none" stroke="#63b8ff" d="M501.03,-441.64C486.13,-432.22 468.71,-421.21 454.97,-412.52"/>
<polygon fill="#63b8ff" stroke="#63b8ff" points="456.89,-409.59 446.56,-407.2 453.15,-415.51 456.89,-409.59"/>
</a>
</g>
</g>
<!-- Node3 -->
<g id="Node000003" class="node">
<title>Node3</title>
<g id="a_Node000003"><a xlink:href="_backend_8hh.html" target="_top" xlink:title=" ">
<polygon fill="white" stroke="#666666" points="469.4,-350.75 392.65,-350.75 392.65,-331.5 469.4,-331.5 469.4,-350.75"/>
<text xml:space="preserve" text-anchor="middle" x="431.02" y="-337.25" font-family="Helvetica,sans-Serif" font-size="10.00">../Backend.hh</text>
</a>
</g>
</g>
<!-- Node1&#45;&gt;Node3 -->
<g id="edge50_Node000001_Node000003" class="edge">
<title>Node1&#45;&gt;Node3</title>
<g id="a_edge50_Node000001_Node000003"><a xlink:title=" ">
<path fill="none" stroke="#63b8ff" d="M532.3,-441.76C530.77,-425.41 526.35,-402.55 514.02,-386.75 503.06,-372.71 486.41,-362.54 470.9,-355.49"/>
<polygon fill="#63b8ff" stroke="#63b8ff" points="472.39,-352.32 461.81,-351.68 469.68,-358.77 472.39,-352.32"/>
</a>
</g>
</g>
<!-- Node30 -->
<g id="Node000030" class="node">
<title>Node30</title>
<g id="a_Node000030"><a xlink:title=" ">
<polygon fill="#e0e0e0" stroke="#999999" points="676.4,-185 593.65,-185 593.65,-165.75 676.4,-165.75 676.4,-185"/>
<text xml:space="preserve" text-anchor="middle" x="635.02" y="-171.5" font-family="Helvetica,sans-Serif" font-size="10.00">unordered_map</text>
</a>
</g>
</g>
<!-- Node1&#45;&gt;Node30 -->
<g id="edge51_Node000001_Node000030" class="edge">
<title>Node1&#45;&gt;Node30</title>
<g id="a_edge51_Node000001_Node000030"><a xlink:title=" ">
<path fill="none" stroke="#63b8ff" d="M564.25,-441.65C592.6,-420.56 630.02,-384.67 630.02,-342.12 630.02,-342.12 630.02,-342.12 630.02,-284.88 630.02,-254.12 632.05,-218.52 633.52,-196.73"/>
<polygon fill="#63b8ff" stroke="#63b8ff" points="637.01,-197.1 634.22,-186.88 630.02,-196.61 637.01,-197.1"/>
</a>
</g>
</g>
<!-- Node2&#45;&gt;Node3 -->
<g id="edge2_Node000002_Node000003" class="edge">
<title>Node2&#45;&gt;Node3</title>
<g id="a_edge2_Node000002_Node000003"><a xlink:title=" ">
<path fill="none" stroke="#63b8ff" d="M431.02,-386.58C431.02,-380.07 431.02,-370.92 431.02,-362.62"/>
<polygon fill="#63b8ff" stroke="#63b8ff" points="434.52,-362.62 431.02,-352.62 427.52,-362.62 434.52,-362.62"/>
</a>
</g>
</g>
<!-- Node22 -->
<g id="Node000022" class="node">
<title>Node22</title>
<g id="a_Node000022"><a xlink:href="_watcher_8hh.html" target="_top" xlink:title=" ">
<polygon fill="white" stroke="#666666" points="273.4,-295.5 208.65,-295.5 208.65,-276.25 273.4,-276.25 273.4,-295.5"/>
<text xml:space="preserve" text-anchor="middle" x="241.02" y="-282" font-family="Helvetica,sans-Serif" font-size="10.00">Watcher.hh</text>
</a>
</g>
</g>
<!-- Node2&#45;&gt;Node22 -->
<g id="edge49_Node000002_Node000022" class="edge">
<title>Node2&#45;&gt;Node22</title>
<g id="a_edge49_Node000002_Node000022"><a xlink:title=" ">
<path fill="none" stroke="#63b8ff" d="M415.15,-386.31C382.32,-367.56 306.69,-324.37 266.77,-301.58"/>
<polygon fill="#63b8ff" stroke="#63b8ff" points="268.72,-298.66 258.3,-296.74 265.25,-304.74 268.72,-298.66"/>
</a>
</g>
</g>
<!-- Node32 -->
<g id="Node000032" class="node">
<title>Node32</title>
<g id="a_Node000032"><a xlink:href="_dir_tree_8hh.html" target="_top" xlink:title=" ">
<polygon fill="white" stroke="#666666" points="596.9,-240.25 535.15,-240.25 535.15,-221 596.9,-221 596.9,-240.25"/>
<text xml:space="preserve" text-anchor="middle" x="566.02" y="-226.75" font-family="Helvetica,sans-Serif" font-size="10.00">DirTree.hh</text>
</a>
</g>
</g>
<!-- Node2&#45;&gt;Node32 -->
<g id="edge48_Node000002_Node000032" class="edge">
<title>Node2&#45;&gt;Node32</title>
<g id="a_edge48_Node000002_Node000032"><a xlink:title=" ">
<path fill="none" stroke="#63b8ff" d="M441.61,-386.29C451.49,-377.6 466.4,-363.9 478.02,-350.75 507.69,-317.18 537.73,-274.13 553.9,-250.05"/>
<polygon fill="#63b8ff" stroke="#63b8ff" points="556.66,-252.23 559.28,-241.96 550.83,-248.35 556.66,-252.23"/>
</a>
</g>
</g>
<!-- Node4 -->
<g id="Node000004" class="node">
<title>Node4</title>
<g id="a_Node000004"><a xlink:href="_event_8hh.html" target="_top" xlink:title=" ">
<polygon fill="white" stroke="#666666" points="500.52,-185 445.52,-185 445.52,-165.75 500.52,-165.75 500.52,-185"/>
<text xml:space="preserve" text-anchor="middle" x="473.02" y="-171.5" font-family="Helvetica,sans-Serif" font-size="10.00">Event.hh</text>
</a>
</g>
</g>
<!-- Node3&#45;&gt;Node4 -->
<g id="edge3_Node000003_Node000004" class="edge">
<title>Node3&#45;&gt;Node4</title>
<g id="a_edge3_Node000003_Node000004"><a xlink:title=" ">
<path fill="none" stroke="#63b8ff" d="M434,-331.29C436.98,-322.33 441.59,-308.03 445.02,-295.5 454.49,-260.94 463.64,-220.2 468.78,-196.43"/>
<polygon fill="#63b8ff" stroke="#63b8ff" points="472.15,-197.39 470.82,-186.88 465.31,-195.92 472.15,-197.39"/>
</a>
</g>
</g>
<!-- Node3&#45;&gt;Node22 -->
<g id="edge24_Node000003_Node000022" class="edge">
<title>Node3&#45;&gt;Node22</title>
<g id="a_edge24_Node000003_Node000022"><a xlink:title=" ">
<path fill="none" stroke="#63b8ff" d="M398.79,-331.09C367.26,-322.26 319.04,-308.74 284.21,-298.98"/>
<polygon fill="#63b8ff" stroke="#63b8ff" points="285.44,-295.69 274.87,-296.36 283.55,-302.43 285.44,-295.69"/>
</a>
</g>
</g>
<!-- Node29 -->
<g id="Node000029" class="node">
<title>Node29</title>
<g id="a_Node000029"><a xlink:title=" ">
<polygon fill="#e0e0e0" stroke="#999999" points="409.52,-185 366.52,-185 366.52,-165.75 409.52,-165.75 409.52,-185"/>
<text xml:space="preserve" text-anchor="middle" x="388.02" y="-171.5" font-family="Helvetica,sans-Serif" font-size="10.00">thread</text>
</a>
</g>
</g>
<!-- Node3&#45;&gt;Node29 -->
<g id="edge47_Node000003_Node000029" class="edge">
<title>Node3&#45;&gt;Node29</title>
<g id="a_edge47_Node000003_Node000029"><a xlink:title=" ">
<path fill="none" stroke="#63b8ff" d="M430.62,-331.21C429.48,-311.07 425.43,-260.68 412.02,-221 409,-212.05 404.29,-202.76 399.84,-194.98"/>
<polygon fill="#63b8ff" stroke="#63b8ff" points="402.88,-193.24 394.71,-186.49 396.89,-196.86 402.88,-193.24"/>
</a>
</g>
</g>
<!-- Node31 -->
<g id="Node000031" class="node">
<title>Node31</title>
<g id="a_Node000031"><a xlink:href="_signal_8hh.html" target="_top" xlink:title=" ">
<polygon fill="white" stroke="#666666" points="261.27,-185 204.77,-185 204.77,-165.75 261.27,-165.75 261.27,-185"/>
<text xml:space="preserve" text-anchor="middle" x="233.02" y="-171.5" font-family="Helvetica,sans-Serif" font-size="10.00">Signal.hh</text>
</a>
</g>
</g>
<!-- Node3&#45;&gt;Node31 -->
<g id="edge46_Node000003_Node000031" class="edge">
<title>Node3&#45;&gt;Node31</title>
<g id="a_edge46_Node000003_Node000031"><a xlink:title=" ">
<path fill="none" stroke="#63b8ff" d="M420.09,-331.09C387.97,-304.52 293.53,-226.41 252.46,-192.45"/>
<polygon fill="#63b8ff" stroke="#63b8ff" points="254.78,-189.82 244.84,-186.15 250.32,-195.22 254.78,-189.82"/>
</a>
</g>
</g>
<!-- Node5 -->
<g id="Node000005" class="node">
<title>Node5</title>
<g id="a_Node000005"><a xlink:title=" ">
<polygon fill="#e0e0e0" stroke="#999999" points="707.02,-74.5 667.02,-74.5 667.02,-55.25 707.02,-55.25 707.02,-74.5"/>
<text xml:space="preserve" text-anchor="middle" x="687.02" y="-61" font-family="Helvetica,sans-Serif" font-size="10.00">string</text>
</a>
</g>
</g>
<!-- Node4&#45;&gt;Node5 -->
<g id="edge4_Node000004_Node000005" class="edge">
<title>Node4&#45;&gt;Node5</title>
<g id="a_edge4_Node000004_Node000005"><a xlink:title=" ">
<path fill="none" stroke="#63b8ff" d="M500.82,-168.45C529.2,-161.68 573.94,-148.99 609.02,-129.75 632.15,-117.07 655.08,-97.18 670.03,-82.96"/>
<polygon fill="#63b8ff" stroke="#63b8ff" points="672.44,-85.51 677.16,-76.02 667.55,-80.49 672.44,-85.51"/>
</a>
</g>
</g>
<!-- Node6 -->
<g id="Node000006" class="node">
<title>Node6</title>
<g id="a_Node000006"><a xlink:title=" ">
<polygon fill="#e0e0e0" stroke="#999999" points="216.65,-74.5 153.4,-74.5 153.4,-55.25 216.65,-55.25 216.65,-74.5"/>
<text xml:space="preserve" text-anchor="middle" x="185.02" y="-61" font-family="Helvetica,sans-Serif" font-size="10.00">node_api.h</text>
</a>
</g>
</g>
<!-- Node4&#45;&gt;Node6 -->
<g id="edge5_Node000004_Node000006" class="edge">
<title>Node4&#45;&gt;Node6</title>
<g id="a_edge5_Node000004_Node000006"><a xlink:title=" ">
<path fill="none" stroke="#63b8ff" d="M445.16,-169.72C409.83,-163.28 347.45,-150.09 297.02,-129.75 264.4,-116.6 229.64,-95.53 207.64,-81.22"/>
<polygon fill="#63b8ff" stroke="#63b8ff" points="209.75,-78.41 199.48,-75.82 205.89,-84.25 209.75,-78.41"/>
</a>
</g>
</g>
<!-- Node7 -->
<g id="Node000007" class="node">
<title>Node7</title>
<g id="a_Node000007"><a xlink:href="include_8h.html" target="_top" xlink:title=" ">
<polygon fill="white" stroke="#666666" points="600.15,-129.75 515.9,-129.75 515.9,-110.5 600.15,-110.5 600.15,-129.75"/>
<text xml:space="preserve" text-anchor="middle" x="558.02" y="-116.25" font-family="Helvetica,sans-Serif" font-size="10.00">wasm/include.h</text>
</a>
</g>
</g>
<!-- Node4&#45;&gt;Node7 -->
<g id="edge6_Node000004_Node000007" class="edge">
<title>Node4&#45;&gt;Node7</title>
<g id="a_edge6_Node000004_Node000007"><a xlink:title=" ">
<path fill="none" stroke="#63b8ff" d="M487.44,-165.34C500.14,-157.39 518.9,-145.64 533.88,-136.25"/>
<polygon fill="#63b8ff" stroke="#63b8ff" points="535.63,-139.28 542.25,-131.01 531.92,-133.35 535.63,-139.28"/>
</a>
</g>
</g>
<!-- Node8 -->
<g id="Node000008" class="node">
<title>Node8</title>
<g id="a_Node000008"><a xlink:href="napi_8h.html" target="_top" xlink:title=" ">
<polygon fill="white" stroke="#666666" points="498.15,-129.75 455.9,-129.75 455.9,-110.5 498.15,-110.5 498.15,-129.75"/>
<text xml:space="preserve" text-anchor="middle" x="477.02" y="-116.25" font-family="Helvetica,sans-Serif" font-size="10.00">napi.h</text>
</a>
</g>
</g>
<!-- Node4&#45;&gt;Node8 -->
<g id="edge7_Node000004_Node000008" class="edge">
<title>Node4&#45;&gt;Node8</title>
<g id="a_edge7_Node000004_Node000008"><a xlink:title=" ">
<path fill="none" stroke="#63b8ff" d="M473.68,-165.58C474.18,-158.99 474.88,-149.71 475.5,-141.32"/>
<polygon fill="#63b8ff" stroke="#63b8ff" points="478.98,-141.85 476.23,-131.62 471.99,-141.33 478.98,-141.85"/>
</a>
</g>
</g>
<!-- Node12 -->
<g id="Node000012" class="node">
<title>Node12</title>
<g id="a_Node000012"><a xlink:title=" ">
<polygon fill="#e0e0e0" stroke="#999999" points="277.52,-74.5 234.52,-74.5 234.52,-55.25 277.52,-55.25 277.52,-74.5"/>
<text xml:space="preserve" text-anchor="middle" x="256.02" y="-61" font-family="Helvetica,sans-Serif" font-size="10.00">mutex</text>
</a>
</g>
</g>
<!-- Node4&#45;&gt;Node12 -->
<g id="edge21_Node000004_Node000012" class="edge">
<title>Node4&#45;&gt;Node12</title>
<g id="a_edge21_Node000004_Node000012"><a xlink:title=" ">
<path fill="none" stroke="#63b8ff" d="M445.22,-169.63C414.74,-163.59 365.09,-151.28 327.02,-129.75 305.24,-117.43 284.46,-97.43 271.07,-83.1"/>
<polygon fill="#63b8ff" stroke="#63b8ff" points="273.73,-80.81 264.43,-75.75 268.54,-85.51 273.73,-80.81"/>
</a>
</g>
</g>
<!-- Node20 -->
<g id="Node000020" class="node">
<title>Node20</title>
<g id="a_Node000020"><a xlink:title=" ">
<polygon fill="#e0e0e0" stroke="#999999" points="370.4,-129.75 335.65,-129.75 335.65,-110.5 370.4,-110.5 370.4,-129.75"/>
<text xml:space="preserve" text-anchor="middle" x="353.02" y="-116.25" font-family="Helvetica,sans-Serif" font-size="10.00">map</text>
</a>
</g>
</g>
<!-- Node4&#45;&gt;Node20 -->
<g id="edge22_Node000004_Node000020" class="edge">
<title>Node4&#45;&gt;Node20</title>
<g id="a_edge22_Node000004_Node000020"><a xlink:title=" ">
<path fill="none" stroke="#63b8ff" d="M452.67,-165.34C432.99,-156.61 403.01,-143.31 381.08,-133.57"/>
<polygon fill="#63b8ff" stroke="#63b8ff" points="382.68,-130.46 372.12,-129.6 379.84,-136.86 382.68,-130.46"/>
</a>
</g>
</g>
<!-- Node21 -->
<g id="Node000021" class="node">
<title>Node21</title>
<g id="a_Node000021"><a xlink:title=" ">
<polygon fill="#e0e0e0" stroke="#999999" points="437.9,-129.75 388.15,-129.75 388.15,-110.5 437.9,-110.5 437.9,-129.75"/>
<text xml:space="preserve" text-anchor="middle" x="413.02" y="-116.25" font-family="Helvetica,sans-Serif" font-size="10.00">optional</text>
</a>
</g>
</g>
<!-- Node4&#45;&gt;Node21 -->
<g id="edge23_Node000004_Node000021" class="edge">
<title>Node4&#45;&gt;Node21</title>
<g id="a_edge23_Node000004_Node000021"><a xlink:title=" ">
<path fill="none" stroke="#63b8ff" d="M462.84,-165.34C454.26,-157.72 441.75,-146.62 431.42,-137.45"/>
<polygon fill="#63b8ff" stroke="#63b8ff" points="433.98,-135.05 424.18,-131.03 429.34,-140.29 433.98,-135.05"/>
</a>
</g>
</g>
<!-- Node8&#45;&gt;Node5 -->
<g id="edge13_Node000008_Node000005" class="edge">
<title>Node8&#45;&gt;Node5</title>
<g id="a_edge13_Node000008_Node000005"><a xlink:title=" ">
<path fill="none" stroke="#63b8ff" d="M498.62,-112.79C501.44,-112 504.3,-111.22 507.02,-110.5 570.36,-93.85 589.46,-92.45 655.73,-74.99"/>
<polygon fill="#63b8ff" stroke="#63b8ff" points="656.56,-78.39 665.32,-72.44 654.75,-71.63 656.56,-78.39"/>
</a>
</g>
</g>
<!-- Node8&#45;&gt;Node6 -->
<g id="edge8_Node000008_Node000006" class="edge">
<title>Node8&#45;&gt;Node6</title>
<g id="a_edge8_Node000008_Node000006"><a xlink:title=" ">
<path fill="none" stroke="#63b8ff" d="M455.47,-112.6C452.64,-111.84 449.77,-111.12 447.02,-110.5 353.01,-89.44 325.23,-92.76 228.09,-74.99"/>
<polygon fill="#63b8ff" stroke="#63b8ff" points="228.83,-71.56 218.36,-73.17 227.55,-78.45 228.83,-71.56"/>
</a>
</g>
</g>
<!-- Node9 -->
<g id="Node000009" class="node">
<title>Node9</title>
<g id="a_Node000009"><a xlink:title=" ">
<polygon fill="#e0e0e0" stroke="#999999" points="354.02,-74.5 296.02,-74.5 296.02,-55.25 354.02,-55.25 354.02,-74.5"/>
<text xml:space="preserve" text-anchor="middle" x="325.02" y="-61" font-family="Helvetica,sans-Serif" font-size="10.00">functional</text>
</a>
</g>
</g>
<!-- Node8&#45;&gt;Node9 -->
<g id="edge9_Node000008_Node000009" class="edge">
<title>Node8&#45;&gt;Node9</title>
<g id="a_edge9_Node000008_Node000009"><a xlink:title=" ">
<path fill="none" stroke="#63b8ff" d="M455.57,-111.61C431.19,-103.07 390.97,-88.98 361.61,-78.69"/>
<polygon fill="#63b8ff" stroke="#63b8ff" points="362.97,-75.46 352.38,-75.46 360.66,-82.07 362.97,-75.46"/>
</a>
</g>
</g>
<!-- Node10 -->
<g id="Node000010" class="node">
<title>Node10</title>
<g id="a_Node000010"><a xlink:title=" ">
<polygon fill="#e0e0e0" stroke="#999999" points="518.15,-74.5 445.9,-74.5 445.9,-55.25 518.15,-55.25 518.15,-74.5"/>
<text xml:space="preserve" text-anchor="middle" x="482.02" y="-61" font-family="Helvetica,sans-Serif" font-size="10.00">initializer_list</text>
</a>
</g>
</g>
<!-- Node8&#45;&gt;Node10 -->
<g id="edge10_Node000008_Node000010" class="edge">
<title>Node8&#45;&gt;Node10</title>
<g id="a_edge10_Node000008_Node000010"><a xlink:title=" ">
<path fill="none" stroke="#63b8ff" d="M477.85,-110.33C478.47,-103.74 479.34,-94.46 480.13,-86.07"/>
<polygon fill="#63b8ff" stroke="#63b8ff" points="483.59,-86.65 481.04,-76.37 476.62,-86 483.59,-86.65"/>
</a>
</g>
</g>
<!-- Node11 -->
<g id="Node000011" class="node">
<title>Node11</title>
<g id="a_Node000011"><a xlink:title=" ">
<polygon fill="#e0e0e0" stroke="#999999" points="648.65,-74.5 597.4,-74.5 597.4,-55.25 648.65,-55.25 648.65,-74.5"/>
<text xml:space="preserve" text-anchor="middle" x="623.02" y="-61" font-family="Helvetica,sans-Serif" font-size="10.00">memory</text>
</a>
</g>
</g>
<!-- Node8&#45;&gt;Node11 -->
<g id="edge11_Node000008_Node000011" class="edge">
<title>Node8&#45;&gt;Node11</title>
<g id="a_edge11_Node000008_Node000011"><a xlink:title=" ">
<path fill="none" stroke="#63b8ff" d="M498.57,-111.27C522.02,-102.71 559.91,-88.89 587.72,-78.75"/>
<polygon fill="#63b8ff" stroke="#63b8ff" points="588.59,-82.16 596.79,-75.44 586.2,-75.58 588.59,-82.16"/>
</a>
</g>
</g>
<!-- Node8&#45;&gt;Node12 -->
<g id="edge12_Node000008_Node000012" class="edge">
<title>Node8&#45;&gt;Node12</title>
<g id="a_edge12_Node000008_Node000012"><a xlink:title=" ">
<path fill="none" stroke="#63b8ff" d="M455.43,-112.75C452.61,-111.97 449.75,-111.2 447.02,-110.5 379.72,-93.27 359.58,-92.33 288.82,-74.84"/>
<polygon fill="#63b8ff" stroke="#63b8ff" points="290.02,-71.53 279.47,-72.5 288.32,-78.32 290.02,-71.53"/>
</a>
</g>
</g>
<!-- Node13 -->
<g id="Node000013" class="node">
<title>Node13</title>
<g id="a_Node000013"><a xlink:title=" ">
<polygon fill="#e0e0e0" stroke="#999999" points="579.52,-74.5 536.52,-74.5 536.52,-55.25 579.52,-55.25 579.52,-74.5"/>
<text xml:space="preserve" text-anchor="middle" x="558.02" y="-61" font-family="Helvetica,sans-Serif" font-size="10.00">vector</text>
</a>
</g>
</g>
<!-- Node8&#45;&gt;Node13 -->
<g id="edge14_Node000008_Node000013" class="edge">
<title>Node8&#45;&gt;Node13</title>
<g id="a_edge14_Node000008_Node000013"><a xlink:title=" ">
<path fill="none" stroke="#63b8ff" d="M490.76,-110.09C502.75,-102.21 520.39,-90.61 534.6,-81.27"/>
<polygon fill="#63b8ff" stroke="#63b8ff" points="536.52,-84.2 542.95,-75.78 532.67,-78.35 536.52,-84.2"/>
</a>
</g>
</g>
<!-- Node14 -->
<g id="Node000014" class="node">
<title>Node14</title>
<g id="a_Node000014"><a xlink:href="napi-inl_8h.html" target="_top" xlink:title=" ">
<polygon fill="white" stroke="#666666" points="427.52,-74.5 372.52,-74.5 372.52,-55.25 427.52,-55.25 427.52,-74.5"/>
<text xml:space="preserve" text-anchor="middle" x="400.02" y="-61" font-family="Helvetica,sans-Serif" font-size="10.00">napi&#45;inl.h</text>
</a>
</g>
</g>
<!-- Node8&#45;&gt;Node14 -->
<g id="edge15_Node000008_Node000014" class="edge">
<title>Node8&#45;&gt;Node14</title>
<g id="a_edge15_Node000008_Node000014"><a xlink:title=" ">
<path fill="none" stroke="#63b8ff" d="M463.96,-110.09C452.57,-102.21 435.79,-90.61 422.28,-81.27"/>
<polygon fill="#63b8ff" stroke="#63b8ff" points="424.61,-78.62 414.39,-75.81 420.63,-84.38 424.61,-78.62"/>
</a>
</g>
</g>
<!-- Node15 -->
<g id="Node000015" class="node">
<title>Node15</title>
<g id="a_Node000015"><a xlink:title=" ">
<polygon fill="#e0e0e0" stroke="#999999" points="286.9,-19.25 231.15,-19.25 231.15,0 286.9,0 286.9,-19.25"/>
<text xml:space="preserve" text-anchor="middle" x="259.02" y="-5.75" font-family="Helvetica,sans-Serif" font-size="10.00">algorithm</text>
</a>
</g>
</g>
<!-- Node14&#45;&gt;Node15 -->
<g id="edge16_Node000014_Node000015" class="edge">
<title>Node14&#45;&gt;Node15</title>
<g id="a_edge16_Node000014_Node000015"><a xlink:title=" ">
<path fill="none" stroke="#63b8ff" d="M376.1,-54.84C353.52,-46.31 319.39,-33.42 293.79,-23.76"/>
<polygon fill="#63b8ff" stroke="#63b8ff" points="295.07,-20.5 284.47,-20.24 292.59,-27.04 295.07,-20.5"/>
</a>
</g>
</g>
<!-- Node16 -->
<g id="Node000016" class="node">
<title>Node16</title>
<g id="a_Node000016"><a xlink:title=" ">
<polygon fill="#e0e0e0" stroke="#999999" points="350.65,-19.25 305.4,-19.25 305.4,0 350.65,0 350.65,-19.25"/>
<text xml:space="preserve" text-anchor="middle" x="328.02" y="-5.75" font-family="Helvetica,sans-Serif" font-size="10.00">cstring</text>
</a>
</g>
</g>
<!-- Node14&#45;&gt;Node16 -->
<g id="edge17_Node000014_Node000016" class="edge">
<title>Node14&#45;&gt;Node16</title>
<g id="a_edge17_Node000014_Node000016"><a xlink:title=" ">
<path fill="none" stroke="#63b8ff" d="M387.81,-54.84C377.19,-46.99 361.59,-35.45 348.98,-26.12"/>
<polygon fill="#63b8ff" stroke="#63b8ff" points="351.39,-23.56 341.27,-20.42 347.23,-29.19 351.39,-23.56"/>
</a>
</g>
</g>
<!-- Node17 -->
<g id="Node000017" class="node">
<title>Node17</title>
<g id="a_Node000017"><a xlink:title=" ">
<polygon fill="#e0e0e0" stroke="#999999" points="430.9,-19.25 369.15,-19.25 369.15,0 430.9,0 430.9,-19.25"/>
<text xml:space="preserve" text-anchor="middle" x="400.02" y="-5.75" font-family="Helvetica,sans-Serif" font-size="10.00">type_traits</text>
</a>
</g>
</g>
<!-- Node14&#45;&gt;Node17 -->
<g id="edge18_Node000014_Node000017" class="edge">
<title>Node14&#45;&gt;Node17</title>
<g id="a_edge18_Node000014_Node000017"><a xlink:title=" ">
<path fill="none" stroke="#63b8ff" d="M400.02,-55.08C400.02,-48.57 400.02,-39.42 400.02,-31.12"/>
<polygon fill="#63b8ff" stroke="#63b8ff" points="403.52,-31.12 400.02,-21.12 396.52,-31.12 403.52,-31.12"/>
</a>
</g>
</g>
<!-- Node18 -->
<g id="Node000018" class="node">
<title>Node18</title>
<g id="a_Node000018"><a xlink:title=" ">
<polygon fill="#e0e0e0" stroke="#999999" points="488.65,-19.25 449.4,-19.25 449.4,0 488.65,0 488.65,-19.25"/>
<text xml:space="preserve" text-anchor="middle" x="469.02" y="-5.75" font-family="Helvetica,sans-Serif" font-size="10.00">utility</text>
</a>
</g>
</g>
<!-- Node14&#45;&gt;Node18 -->
<g id="edge19_Node000014_Node000018" class="edge">
<title>Node14&#45;&gt;Node18</title>
<g id="a_edge19_Node000014_Node000018"><a xlink:title=" ">
<path fill="none" stroke="#63b8ff" d="M411.73,-54.84C421.8,-47.07 436.56,-35.67 448.58,-26.4"/>
<polygon fill="#63b8ff" stroke="#63b8ff" points="450.51,-29.33 456.29,-20.45 446.24,-23.79 450.51,-29.33"/>
</a>
</g>
</g>
<!-- Node19 -->
<g id="Node000019" class="node">
<title>Node19</title>
<g id="a_Node000019"><a xlink:href="napi-inl_8deprecated_8h.html" target="_top" xlink:title=" ">
<polygon fill="white" stroke="#666666" points="613.02,-19.25 507.02,-19.25 507.02,0 613.02,0 613.02,-19.25"/>
<text xml:space="preserve" text-anchor="middle" x="560.02" y="-5.75" font-family="Helvetica,sans-Serif" font-size="10.00">napi&#45;inl.deprecated.h</text>
</a>
</g>
</g>
<!-- Node14&#45;&gt;Node19 -->
<g id="edge20_Node000014_Node000019" class="edge">
<title>Node14&#45;&gt;Node19</title>
<g id="a_edge20_Node000014_Node000019"><a xlink:title=" ">
<path fill="none" stroke="#63b8ff" d="M427.16,-54.84C453.25,-46.16 492.92,-32.96 522.12,-23.24"/>
<polygon fill="#63b8ff" stroke="#63b8ff" points="522.93,-26.66 531.31,-20.18 520.72,-20.02 522.93,-26.66"/>
</a>
</g>
</g>
<!-- Node22&#45;&gt;Node4 -->
<g id="edge32_Node000022_Node000004" class="edge">
<title>Node22&#45;&gt;Node4</title>
<g id="a_edge32_Node000022_Node000004"><a xlink:title=" ">
<path fill="none" stroke="#63b8ff" d="M273.62,-281.74C309.61,-277.11 368.26,-266 412.02,-240.25 431.78,-228.62 449.26,-208.79 460.39,-194.31"/>
<polygon fill="#63b8ff" stroke="#63b8ff" points="463.02,-196.64 466.13,-186.51 457.38,-192.49 463.02,-196.64"/>
</a>
</g>
</g>
<!-- Node22&#45;&gt;Node6 -->
<g id="edge28_Node000022_Node000006" class="edge">
<title>Node22&#45;&gt;Node6</title>
<g id="a_edge28_Node000022_Node000006"><a xlink:title=" ">
<path fill="none" stroke="#63b8ff" d="M208.26,-284.25C150.5,-281.08 33.8,-264.68 4.02,-185 -19.86,-121.11 80.89,-87.96 141.7,-74.06"/>
<polygon fill="#63b8ff" stroke="#63b8ff" points="142.41,-77.49 151.44,-71.93 140.92,-70.65 142.41,-77.49"/>
</a>
</g>
</g>
<!-- Node23 -->
<g id="Node000023" class="node">
<title>Node23</title>
<g id="a_Node000023"><a xlink:title=" ">
<polygon fill="#e0e0e0" stroke="#999999" points="166.02,-129.75 72.02,-129.75 72.02,-110.5 166.02,-110.5 166.02,-129.75"/>
<text xml:space="preserve" text-anchor="middle" x="119.02" y="-116.25" font-family="Helvetica,sans-Serif" font-size="10.00">condition_variable</text>
</a>
</g>
</g>
<!-- Node22&#45;&gt;Node23 -->
<g id="edge25_Node000022_Node000023" class="edge">
<title>Node22&#45;&gt;Node23</title>
<g id="a_edge25_Node000022_Node000023"><a xlink:title=" ">
<path fill="none" stroke="#63b8ff" d="M235.3,-275.97C222.26,-255.84 189.07,-205.47 158.02,-165.75 150.75,-156.44 142.16,-146.51 134.89,-138.38"/>
<polygon fill="#63b8ff" stroke="#63b8ff" points="137.72,-136.29 128.41,-131.23 132.53,-140.99 137.72,-136.29"/>
</a>
</g>
</g>
<!-- Node24 -->
<g id="Node000024" class="node">
<title>Node24</title>
<g id="a_Node000024"><a xlink:title=" ">
<polygon fill="#e0e0e0" stroke="#999999" points="148.77,-185 71.27,-185 71.27,-165.75 148.77,-165.75 148.77,-185"/>
<text xml:space="preserve" text-anchor="middle" x="110.02" y="-171.5" font-family="Helvetica,sans-Serif" font-size="10.00">unordered_set</text>
</a>
</g>
</g>
<!-- Node22&#45;&gt;Node24 -->
<g id="edge26_Node000022_Node000024" class="edge">
<title>Node22&#45;&gt;Node24</title>
<g id="a_edge26_Node000022_Node000024"><a xlink:title=" ">
<path fill="none" stroke="#63b8ff" d="M220.86,-275.84C204.32,-267.87 180.82,-255.21 163.02,-240.25 147.02,-226.8 132.14,-208.09 122.25,-194.4"/>
<polygon fill="#63b8ff" stroke="#63b8ff" points="125.19,-192.49 116.58,-186.31 119.45,-196.51 125.19,-192.49"/>
</a>
</g>
</g>
<!-- Node25 -->
<g id="Node000025" class="node">
<title>Node25</title>
<g id="a_Node000025"><a xlink:title=" ">
<polygon fill="#e0e0e0" stroke="#999999" points="272.77,-240.25 243.27,-240.25 243.27,-221 272.77,-221 272.77,-240.25"/>
<text xml:space="preserve" text-anchor="middle" x="258.02" y="-226.75" font-family="Helvetica,sans-Serif" font-size="10.00">set</text>
</a>
</g>
</g>
<!-- Node22&#45;&gt;Node25 -->
<g id="edge27_Node000022_Node000025" class="edge">
<title>Node22&#45;&gt;Node25</title>
<g id="a_edge27_Node000022_Node000025"><a xlink:title=" ">
<path fill="none" stroke="#63b8ff" d="M243.83,-276.08C245.96,-269.42 248.97,-259.99 251.67,-251.53"/>
<polygon fill="#63b8ff" stroke="#63b8ff" points="254.99,-252.64 254.69,-242.05 248.32,-250.51 254.99,-252.64"/>
</a>
</g>
</g>
<!-- Node26 -->
<g id="Node000026" class="node">
<title>Node26</title>
<g id="a_Node000026"><a xlink:href="_glob_8hh.html" target="_top" xlink:title=" ">
<polygon fill="white" stroke="#666666" points="110.9,-240.25 61.15,-240.25 61.15,-221 110.9,-221 110.9,-240.25"/>
<text xml:space="preserve" text-anchor="middle" x="86.02" y="-226.75" font-family="Helvetica,sans-Serif" font-size="10.00">Glob.hh</text>
</a>
</g>
</g>
<!-- Node22&#45;&gt;Node26 -->
<g id="edge29_Node000022_Node000026" class="edge">
<title>Node22&#45;&gt;Node26</title>
<g id="a_edge29_Node000022_Node000026"><a xlink:title=" ">
<path fill="none" stroke="#63b8ff" d="M214.73,-275.84C189.18,-267.07 150.21,-253.68 121.84,-243.93"/>
<polygon fill="#63b8ff" stroke="#63b8ff" points="123.18,-240.69 112.59,-240.75 120.91,-247.31 123.18,-240.69"/>
</a>
</g>
</g>
<!-- Node28 -->
<g id="Node000028" class="node">
<title>Node28</title>
<g id="a_Node000028"><a xlink:href="_debounce_8hh.html" target="_top" xlink:title=" ">
<polygon fill="white" stroke="#666666" points="402.9,-240.25 329.15,-240.25 329.15,-221 402.9,-221 402.9,-240.25"/>
<text xml:space="preserve" text-anchor="middle" x="366.02" y="-226.75" font-family="Helvetica,sans-Serif" font-size="10.00">Debounce.hh</text>
</a>
</g>
</g>
<!-- Node22&#45;&gt;Node28 -->
<g id="edge33_Node000022_Node000028" class="edge">
<title>Node22&#45;&gt;Node28</title>
<g id="a_edge33_Node000022_Node000028"><a xlink:title=" ">
<path fill="none" stroke="#63b8ff" d="M262.23,-275.84C281.98,-267.43 311.7,-254.77 334.28,-245.15"/>
<polygon fill="#63b8ff" stroke="#63b8ff" points="335.49,-248.43 343.32,-241.3 332.75,-241.99 335.49,-248.43"/>
</a>
</g>
</g>
<!-- Node22&#45;&gt;Node31 -->
<g id="edge45_Node000022_Node000031" class="edge">
<title>Node22&#45;&gt;Node31</title>
<g id="a_edge45_Node000022_Node000031"><a xlink:title=" ">
<path fill="none" stroke="#63b8ff" d="M239.26,-276.03C237.56,-267.06 235.1,-252.75 234.02,-240.25 232.78,-225.82 232.55,-209.48 232.62,-196.94"/>
<polygon fill="#63b8ff" stroke="#63b8ff" points="236.11,-197.05 232.75,-187.01 229.11,-196.96 236.11,-197.05"/>
</a>
</g>
</g>
<!-- Node22&#45;&gt;Node32 -->
<g id="edge40_Node000022_Node000032" class="edge">
<title>Node22&#45;&gt;Node32</title>
<g id="a_edge40_Node000022_Node000032"><a xlink:title=" ">
<path fill="none" stroke="#63b8ff" d="M273.67,-279.53C332.89,-269.82 457.96,-249.33 523.66,-238.57"/>
<polygon fill="#63b8ff" stroke="#63b8ff" points="524.03,-242.05 533.34,-236.98 522.9,-235.14 524.03,-242.05"/>
</a>
</g>
</g>
<!-- Node26&#45;&gt;Node24 -->
<g id="edge30_Node000026_Node000024" class="edge">
<title>Node26&#45;&gt;Node24</title>
<g id="a_edge30_Node000026_Node000024"><a xlink:title=" ">
<path fill="none" stroke="#63b8ff" d="M89.99,-220.83C93.06,-214.01 97.43,-204.31 101.31,-195.7"/>
<polygon fill="#63b8ff" stroke="#63b8ff" points="104.43,-197.29 105.35,-186.74 98.05,-194.42 104.43,-197.29"/>
</a>
</g>
</g>
<!-- Node27 -->
<g id="Node000027" class="node">
<title>Node27</title>
<g id="a_Node000027"><a xlink:title=" ">
<polygon fill="#e0e0e0" stroke="#999999" points="53.02,-185 13.02,-185 13.02,-165.75 53.02,-165.75 53.02,-185"/>
<text xml:space="preserve" text-anchor="middle" x="33.02" y="-171.5" font-family="Helvetica,sans-Serif" font-size="10.00">regex</text>
</a>
</g>
</g>
<!-- Node26&#45;&gt;Node27 -->
<g id="edge31_Node000026_Node000027" class="edge">
<title>Node26&#45;&gt;Node27</title>
<g id="a_edge31_Node000026_Node000027"><a xlink:title=" ">
<path fill="none" stroke="#63b8ff" d="M77.27,-220.83C69.87,-213.4 59.06,-202.54 49.98,-193.41"/>
<polygon fill="#63b8ff" stroke="#63b8ff" points="52.57,-191.05 43.03,-186.43 47.61,-195.99 52.57,-191.05"/>
</a>
</g>
</g>
<!-- Node28&#45;&gt;Node9 -->
<g id="edge36_Node000028_Node000009" class="edge">
<title>Node28&#45;&gt;Node9</title>
<g id="a_edge36_Node000028_Node000009"><a xlink:title=" ">
<path fill="none" stroke="#63b8ff" d="M361.27,-220.58C352.54,-203.44 334.19,-164.76 327.02,-129.75 324.05,-115.24 323.64,-98.49 323.92,-85.79"/>
<polygon fill="#63b8ff" stroke="#63b8ff" points="327.4,-86.31 324.3,-76.17 320.41,-86.03 327.4,-86.31"/>
</a>
</g>
</g>
<!-- Node28&#45;&gt;Node29 -->
<g id="edge34_Node000028_Node000029" class="edge">
<title>Node28&#45;&gt;Node29</title>
<g id="a_edge34_Node000028_Node000029"><a xlink:title=" ">
<path fill="none" stroke="#63b8ff" d="M369.66,-220.83C372.44,-214.09 376.39,-204.52 379.92,-195.99"/>
<polygon fill="#63b8ff" stroke="#63b8ff" points="383.15,-197.34 383.73,-186.76 376.68,-194.66 383.15,-197.34"/>
</a>
</g>
</g>
<!-- Node28&#45;&gt;Node30 -->
<g id="edge35_Node000028_Node000030" class="edge">
<title>Node28&#45;&gt;Node30</title>
<g id="a_edge35_Node000028_Node000030"><a xlink:title=" ">
<path fill="none" stroke="#63b8ff" d="M403.14,-222.28C449.6,-213.08 529.47,-197.27 582.27,-186.82"/>
<polygon fill="#63b8ff" stroke="#63b8ff" points="582.82,-190.28 591.95,-184.9 581.46,-183.41 582.82,-190.28"/>
</a>
</g>
</g>
<!-- Node28&#45;&gt;Node31 -->
<g id="edge37_Node000028_Node000031" class="edge">
<title>Node28&#45;&gt;Node31</title>
<g id="a_edge37_Node000028_Node000031"><a xlink:title=" ">
<path fill="none" stroke="#63b8ff" d="M343.46,-220.59C322.25,-212.1 290.25,-199.29 266.15,-189.64"/>
<polygon fill="#63b8ff" stroke="#63b8ff" points="267.68,-186.48 257.1,-186.02 265.08,-192.98 267.68,-186.48"/>
</a>
</g>
</g>
<!-- Node31&#45;&gt;Node12 -->
<g id="edge38_Node000031_Node000012" class="edge">
<title>Node31&#45;&gt;Node12</title>
<g id="a_edge38_Node000031_Node000012"><a xlink:title=" ">
<path fill="none" stroke="#63b8ff" d="M234.9,-165.5C238.56,-148.25 246.7,-109.83 251.74,-86.06"/>
<polygon fill="#63b8ff" stroke="#63b8ff" points="255.15,-86.87 253.8,-76.36 248.3,-85.41 255.15,-86.87"/>
</a>
</g>
</g>
<!-- Node31&#45;&gt;Node23 -->
<g id="edge39_Node000031_Node000023" class="edge">
<title>Node31&#45;&gt;Node23</title>
<g id="a_edge39_Node000031_Node000023"><a xlink:title=" ">
<path fill="none" stroke="#63b8ff" d="M213.68,-165.34C195.91,-157.04 169.31,-144.61 148.82,-135.04"/>
<polygon fill="#63b8ff" stroke="#63b8ff" points="150.37,-131.9 139.83,-130.84 147.41,-138.25 150.37,-131.9"/>
</a>
</g>
</g>
<!-- Node32&#45;&gt;Node4 -->
<g id="edge44_Node000032_Node000004" class="edge">
<title>Node32&#45;&gt;Node4</title>
<g id="a_edge44_Node000032_Node000004"><a xlink:title=" ">
<path fill="none" stroke="#63b8ff" d="M550.25,-220.59C536.08,-212.48 515.04,-200.43 498.49,-190.96"/>
<polygon fill="#63b8ff" stroke="#63b8ff" points="500.61,-188.14 490.19,-186.2 497.13,-194.21 500.61,-188.14"/>
</a>
</g>
</g>
<!-- Node32&#45;&gt;Node5 -->
<g id="edge41_Node000032_Node000005" class="edge">
<title>Node32&#45;&gt;Node5</title>
<g id="a_edge41_Node000032_Node000005"><a xlink:title=" ">
<path fill="none" stroke="#63b8ff" d="M597.23,-227.39C625.33,-223.54 665.18,-213.13 685.02,-185 705.72,-155.66 699.27,-111.33 692.97,-85.84"/>
<polygon fill="#63b8ff" stroke="#63b8ff" points="696.41,-85.17 690.41,-76.44 689.66,-87.01 696.41,-85.17"/>
</a>
</g>
</g>
<!-- Node32&#45;&gt;Node11 -->
<g id="edge43_Node000032_Node000011" class="edge">
<title>Node32&#45;&gt;Node11</title>
<g id="a_edge43_Node000032_Node000011"><a xlink:title=" ">
<path fill="none" stroke="#63b8ff" d="M567.8,-220.64C570.51,-207.99 576.28,-184.39 585.02,-165.75 593.19,-148.34 601.5,-147.45 609.02,-129.75 614.95,-115.8 618.5,-99.03 620.55,-86.17"/>
<polygon fill="#63b8ff" stroke="#63b8ff" points="624,-86.76 621.91,-76.37 617.06,-85.79 624,-86.76"/>
</a>
</g>
</g>
<!-- Node32&#45;&gt;Node30 -->
<g id="edge42_Node000032_Node000030" class="edge">
<title>Node32&#45;&gt;Node30</title>
<g id="a_edge42_Node000032_Node000030"><a xlink:title=" ">
<path fill="none" stroke="#63b8ff" d="M577.73,-220.59C587.8,-212.82 602.56,-201.42 614.58,-192.15"/>
<polygon fill="#63b8ff" stroke="#63b8ff" points="616.51,-195.08 622.29,-186.2 612.24,-189.54 616.51,-195.08"/>
</a>
</g>
</g>
</g>
</svg>

<g id="navigator" transform="translate(0 0)" fill="#404254">
  <rect fill="#f2f5e9" fill-opacity="0.5" stroke="#606060" stroke-width=".5" x="0" y="0" width="60" height="60"/>
  <use id="zoomplus" xlink:href="#zoomPlus" x="17" y="9" onmousedown="handleZoom(evt,'in')"/>
  <use id="zoomminus" xlink:href="#zoomMin" x="42" y="9" onmousedown="handleZoom(evt,'out')"/>
  <use id="reset" xlink:href="#resetDef" x="30" y="36" onmousedown="handleReset()"/>
   <use id="arrowup" xlink:href="#arrowUp" x="0" y="0" onmousedown="handlePan(0,-1)"/>
  <use id="arrowright" xlink:href="#arrowRight" x="0" y="0" onmousedown="handlePan(1,0)"/>
  <use id="arrowdown" xlink:href="#arrowDown" x="0" y="0" onmousedown="handlePan(0,1)"/>
  <use id="arrowleft" xlink:href="#arrowLeft" x="0" y="0" onmousedown="handlePan(-1,0)"/>
</g>
<svg viewBox="0 0 15 15" width="100%" height="30px" preserveAspectRatio="xMaxYMin meet">
 <g id="arrow_out" transform="scale(0.3 0.3)">
  <a xlink:href="_backend_8cc__incl_org.svg" target="_base">
   <rect id="button" ry="5" rx="5" y="6" x="6" height="38" width="38"
        fill="#f2f5e9" fill-opacity="0.5" stroke="#606060" stroke-width="1.0"/>
   <path id="arrow"
     d="M 11.500037,31.436501 C 11.940474,20.09759 22.043105,11.32322 32.158766,21.979434 L 37.068811,17.246167 C 37.068811,17.246167 37.088388,32 37.088388,32 L 22.160133,31.978069 C 22.160133,31.978069 26.997745,27.140456 26.997745,27.140456 C 18.528582,18.264221 13.291696,25.230495 11.500037,31.436501 z"
     style="fill:#404040;"/>
  </a>
 </g>
</svg>

<style type='text/css'>
<![CDATA[
[data-mouse-over-selected='false'] { opacity: 0.7; }
[data-mouse-over-selected='true']  { opacity: 1.0; }
]]>
</style>
<script type="application/ecmascript"><![CDATA[
document.addEventListener('DOMContentLoaded', (event) => {
  highlightEdges();
  highlightAdjacentNodes();
});
]]></script>
</svg>
