<?xml version="1.0" encoding="UTF-8" standalone="no"?>
<!DOCTYPE svg PUBLIC "-//W3C//DTD SVG 1.1//EN"
 "http://www.w3.org/Graphics/SVG/1.1/DTD/svg11.dtd">
<!-- Generated by graphviz version 14.0.4 (20251115.1723)
 -->
<!-- Title: frontend/node_modules/@parcel/watcher/src/Backend.hh Pages: 1 -->
<!--zoomable 381 -->

<svg id="main" version="1.1" xmlns="http://www.w3.org/2000/svg" xmlns:xlink="http://www.w3.org/1999/xlink" xml:space="preserve" onload="init(evt)">

<style type="text/css"><![CDATA[
.node, .edge {opacity: 0.7;}
.node.selected, .edge.selected {opacity: 1;}
.edge:hover path { stroke: red; }
.edge:hover polygon { stroke: red; fill: red; }
]]></style>

<defs>
  <circle id="rim" cx="0" cy="0" r="7"/>
  <circle id="rim2" cx="0" cy="0" r="3.5"/>
  <g id="zoomPlus">
    <use xlink:href="#rim" fill="#404040"><set attributeName="fill" to="#808080" begin="zoomplus.mouseover" end="zoomplus.mouseout"/></use>
    <path d="M-4,0h8M0,-4v8" fill="none" stroke="white" stroke-width="1.5" pointer-events="none"/>
  </g>
  <g id="zoomMin">
    <use xlink:href="#rim" fill="#404040"><set attributeName="fill" to="#808080" begin="zoomminus.mouseover" end="zoomminus.mouseout"/></use>
    <path d="M-4,0h8" fill="none" stroke="white" stroke-width="1.5" pointer-events="none"/>
  </g>
  <g id="arrowUp" transform="translate(30 24)">
    <use xlink:href="#rim"/>
    <path pointer-events="none" fill="none" stroke="white" stroke-width="1.5" d="M0,-3.0v7 M-2.5,-0.5L0,-3.0L2.5,-0.5"/>
  </g>
  <g id="arrowRight" transform="rotate(90) translate(36 -43)">
    <use xlink:href="#rim"/>
    <path pointer-events="none" fill="none" stroke="white" stroke-width="1.5" d="M0,-3.0v7 M-2.5,-0.5L0,-3.0L2.5,-0.5"/>
  </g>
  <g id="arrowDown" transform="rotate(180) translate(-30 -48)">
    <use xlink:href="#rim"/>
    <path pointer-events="none" fill="none" stroke="white" stroke-width="1.5" d="M0,-3.0v7 M-2.5,-0.5L0,-3.0L2.5,-0.5"/>
  </g>
  <g id="arrowLeft" transform="rotate(270) translate(-36 17)">
    <use xlink:href="#rim"/>
    <path pointer-events="none" fill="none" stroke="white" stroke-width="1.5" d="M0,-3.0v7 M-2.5,-0.5L0,-3.0L2.5,-0.5"/>
  </g>
  <g id="resetDef">
    <use xlink:href="#rim2" fill="#404040"><set attributeName="fill" to="#808080" begin="reset.mouseover" end="reset.mouseout"/></use>
  </g>
</defs>
<script type="application/ecmascript">
var viewWidth = 925;
var viewHeight = 381;
var sectionId = 'dynsection-0';
</script>
<script type="application/ecmascript" xlink:href="svg.min.js"/>
<svg id="graph" class="graph">
<g id="viewport">
<title>frontend/node_modules/@parcel/watcher/src/Backend.hh</title>
<!-- Node1 -->
<g id="Node000001" class="node">
<title>Node1</title>
<g id="a_Node000001"><a xlink:title=" ">
<polygon fill="#999999" stroke="#666666" points="440.38,-373.25 323.12,-373.25 323.12,-331.5 440.38,-331.5 440.38,-373.25"/>
<text xml:space="preserve" text-anchor="start" x="331.12" y="-359.75" font-family="Helvetica,sans-Serif" font-size="10.00">frontend/node_modules</text>
<text xml:space="preserve" text-anchor="start" x="331.12" y="-348.5" font-family="Helvetica,sans-Serif" font-size="10.00">/@parcel/watcher/src</text>
<text xml:space="preserve" text-anchor="middle" x="381.75" y="-337.25" font-family="Helvetica,sans-Serif" font-size="10.00">/Backend.hh</text>
</a>
</g>
</g>
<!-- Node2 -->
<g id="Node000002" class="node">
<title>Node2</title>
<g id="a_Node000002"><a xlink:href="_event_8hh.html" target="_top" xlink:title=" ">
<polygon fill="white" stroke="#666666" points="610.25,-185 555.25,-185 555.25,-165.75 610.25,-165.75 610.25,-185"/>
<text xml:space="preserve" text-anchor="middle" x="582.75" y="-171.5" font-family="Helvetica,sans-Serif" font-size="10.00">Event.hh</text>
</a>
</g>
</g>
<!-- Node1&#45;&gt;Node2 -->
<g id="edge1_Node000001_Node000002" class="edge">
<title>Node1&#45;&gt;Node2</title>
<g id="a_edge1_Node000001_Node000002"><a xlink:title=" ">
<path fill="none" stroke="#63b8ff" d="M419.83,-331.09C454.69,-311.22 506.25,-278.42 542.75,-240.25 555.47,-226.95 566.28,-208.99 573.45,-195.5"/>
<polygon fill="#63b8ff" stroke="#63b8ff" points="576.47,-197.27 577.89,-186.77 570.23,-194.1 576.47,-197.27"/>
</a>
</g>
</g>
<!-- Node20 -->
<g id="Node000020" class="node">
<title>Node20</title>
<g id="a_Node000020"><a xlink:href="_watcher_8hh.html" target="_top" xlink:title=" ">
<polygon fill="white" stroke="#666666" points="347.12,-295.5 282.38,-295.5 282.38,-276.25 347.12,-276.25 347.12,-295.5"/>
<text xml:space="preserve" text-anchor="middle" x="314.75" y="-282" font-family="Helvetica,sans-Serif" font-size="10.00">Watcher.hh</text>
</a>
</g>
</g>
<!-- Node1&#45;&gt;Node20 -->
<g id="edge22_Node000001_Node000020" class="edge">
<title>Node1&#45;&gt;Node20</title>
<g id="a_edge22_Node000001_Node000020"><a xlink:title=" ">
<path fill="none" stroke="#63b8ff" d="M360.92,-331.32C351.79,-322.54 341.2,-312.34 332.46,-303.93"/>
<polygon fill="#63b8ff" stroke="#63b8ff" points="334.89,-301.41 325.26,-297 330.04,-306.45 334.89,-301.41"/>
</a>
</g>
</g>
<!-- Node27 -->
<g id="Node000027" class="node">
<title>Node27</title>
<g id="a_Node000027"><a xlink:title=" ">
<polygon fill="#e0e0e0" stroke="#999999" points="347.25,-185 304.25,-185 304.25,-165.75 347.25,-165.75 347.25,-185"/>
<text xml:space="preserve" text-anchor="middle" x="325.75" y="-171.5" font-family="Helvetica,sans-Serif" font-size="10.00">thread</text>
</a>
</g>
</g>
<!-- Node1&#45;&gt;Node27 -->
<g id="edge45_Node000001_Node000027" class="edge">
<title>Node1&#45;&gt;Node27</title>
<g id="a_edge45_Node000001_Node000027"><a xlink:title=" ">
<path fill="none" stroke="#63b8ff" d="M390.91,-331.42C401.78,-304.56 416.14,-256.1 396.75,-221 388.36,-205.82 372.41,-195.11 357.75,-187.99"/>
<polygon fill="#63b8ff" stroke="#63b8ff" points="359.38,-184.88 348.82,-184.04 356.55,-191.29 359.38,-184.88"/>
</a>
</g>
</g>
<!-- Node29 -->
<g id="Node000029" class="node">
<title>Node29</title>
<g id="a_Node000029"><a xlink:href="_signal_8hh.html" target="_top" xlink:title=" ">
<polygon fill="white" stroke="#666666" points="210,-185 153.5,-185 153.5,-165.75 210,-165.75 210,-185"/>
<text xml:space="preserve" text-anchor="middle" x="181.75" y="-171.5" font-family="Helvetica,sans-Serif" font-size="10.00">Signal.hh</text>
</a>
</g>
</g>
<!-- Node1&#45;&gt;Node29 -->
<g id="edge44_Node000001_Node000029" class="edge">
<title>Node1&#45;&gt;Node29</title>
<g id="a_edge44_Node000001_Node000029"><a xlink:title=" ">
<path fill="none" stroke="#63b8ff" d="M326.78,-331.09C286.29,-313.3 233.18,-283.46 202.75,-240.25 193.58,-227.23 188.22,-209.95 185.21,-196.65"/>
<polygon fill="#63b8ff" stroke="#63b8ff" points="188.65,-196 183.3,-186.86 181.79,-197.35 188.65,-196"/>
</a>
</g>
</g>
<!-- Node3 -->
<g id="Node000003" class="node">
<title>Node3</title>
<g id="a_Node000003"><a xlink:title=" ">
<polygon fill="#e0e0e0" stroke="#999999" points="503.75,-74.5 463.75,-74.5 463.75,-55.25 503.75,-55.25 503.75,-74.5"/>
<text xml:space="preserve" text-anchor="middle" x="483.75" y="-61" font-family="Helvetica,sans-Serif" font-size="10.00">string</text>
</a>
</g>
</g>
<!-- Node2&#45;&gt;Node3 -->
<g id="edge2_Node000002_Node000003" class="edge">
<title>Node2&#45;&gt;Node3</title>
<g id="a_edge2_Node000002_Node000003"><a xlink:title=" ">
<path fill="none" stroke="#63b8ff" d="M571.48,-165.36C560.96,-156.71 545.1,-143.05 532.75,-129.75 519.39,-115.36 505.94,-97.54 496.52,-84.37"/>
<polygon fill="#63b8ff" stroke="#63b8ff" points="499.4,-82.38 490.78,-76.21 493.67,-86.4 499.4,-82.38"/>
</a>
</g>
</g>
<!-- Node4 -->
<g id="Node000004" class="node">
<title>Node4</title>
<g id="a_Node000004"><a xlink:title=" ">
<polygon fill="#e0e0e0" stroke="#999999" points="903.38,-74.5 840.12,-74.5 840.12,-55.25 903.38,-55.25 903.38,-74.5"/>
<text xml:space="preserve" text-anchor="middle" x="871.75" y="-61" font-family="Helvetica,sans-Serif" font-size="10.00">node_api.h</text>
</a>
</g>
</g>
<!-- Node2&#45;&gt;Node4 -->
<g id="edge3_Node000002_Node000004" class="edge">
<title>Node2&#45;&gt;Node4</title>
<g id="a_edge3_Node000002_Node000004"><a xlink:title=" ">
<path fill="none" stroke="#63b8ff" d="M610.57,-174.73C656.4,-174.13 749.27,-167.82 815.75,-129.75 834.7,-118.9 850.46,-99.23 860.38,-84.58"/>
<polygon fill="#63b8ff" stroke="#63b8ff" points="863.26,-86.57 865.72,-76.26 857.37,-82.79 863.26,-86.57"/>
</a>
</g>
</g>
<!-- Node5 -->
<g id="Node000005" class="node">
<title>Node5</title>
<g id="a_Node000005"><a xlink:href="include_8h.html" target="_top" xlink:title=" ">
<polygon fill="white" stroke="#666666" points="625.88,-129.75 541.62,-129.75 541.62,-110.5 625.88,-110.5 625.88,-129.75"/>
<text xml:space="preserve" text-anchor="middle" x="583.75" y="-116.25" font-family="Helvetica,sans-Serif" font-size="10.00">wasm/include.h</text>
</a>
</g>
</g>
<!-- Node2&#45;&gt;Node5 -->
<g id="edge4_Node000002_Node000005" class="edge">
<title>Node2&#45;&gt;Node5</title>
<g id="a_edge4_Node000002_Node000005"><a xlink:title=" ">
<path fill="none" stroke="#63b8ff" d="M582.92,-165.58C583.04,-159.07 583.21,-149.92 583.37,-141.62"/>
<polygon fill="#63b8ff" stroke="#63b8ff" points="586.86,-141.69 583.55,-131.62 579.87,-141.55 586.86,-141.69"/>
</a>
</g>
</g>
<!-- Node6 -->
<g id="Node000006" class="node">
<title>Node6</title>
<g id="a_Node000006"><a xlink:href="napi_8h.html" target="_top" xlink:title=" ">
<polygon fill="white" stroke="#666666" points="806.88,-129.75 764.62,-129.75 764.62,-110.5 806.88,-110.5 806.88,-129.75"/>
<text xml:space="preserve" text-anchor="middle" x="785.75" y="-116.25" font-family="Helvetica,sans-Serif" font-size="10.00">napi.h</text>
</a>
</g>
</g>
<!-- Node2&#45;&gt;Node6 -->
<g id="edge5_Node000002_Node000006" class="edge">
<title>Node2&#45;&gt;Node6</title>
<g id="a_edge5_Node000002_Node000006"><a xlink:title=" ">
<path fill="none" stroke="#63b8ff" d="M610.68,-167.42C642.86,-159.36 697.58,-145.48 753.35,-130.35"/>
<polygon fill="#63b8ff" stroke="#63b8ff" points="753.95,-133.82 762.68,-127.81 752.11,-127.06 753.95,-133.82"/>
</a>
</g>
</g>
<!-- Node10 -->
<g id="Node000010" class="node">
<title>Node10</title>
<g id="a_Node000010"><a xlink:title=" ">
<polygon fill="#e0e0e0" stroke="#999999" points="369.25,-74.5 326.25,-74.5 326.25,-55.25 369.25,-55.25 369.25,-74.5"/>
<text xml:space="preserve" text-anchor="middle" x="347.75" y="-61" font-family="Helvetica,sans-Serif" font-size="10.00">mutex</text>
</a>
</g>
</g>
<!-- Node2&#45;&gt;Node10 -->
<g id="edge19_Node000002_Node000010" class="edge">
<title>Node2&#45;&gt;Node10</title>
<g id="a_edge19_Node000002_Node000010"><a xlink:title=" ">
<path fill="none" stroke="#63b8ff" d="M563.12,-165.31C521.99,-146.32 426.57,-102.27 377.73,-79.72"/>
<polygon fill="#63b8ff" stroke="#63b8ff" points="379.41,-76.64 368.87,-75.62 376.48,-82.99 379.41,-76.64"/>
</a>
</g>
</g>
<!-- Node18 -->
<g id="Node000018" class="node">
<title>Node18</title>
<g id="a_Node000018"><a xlink:title=" ">
<polygon fill="#e0e0e0" stroke="#999999" points="679.12,-129.75 644.38,-129.75 644.38,-110.5 679.12,-110.5 679.12,-129.75"/>
<text xml:space="preserve" text-anchor="middle" x="661.75" y="-116.25" font-family="Helvetica,sans-Serif" font-size="10.00">map</text>
</a>
</g>
</g>
<!-- Node2&#45;&gt;Node18 -->
<g id="edge20_Node000002_Node000018" class="edge">
<title>Node2&#45;&gt;Node18</title>
<g id="a_edge20_Node000002_Node000018"><a xlink:title=" ">
<path fill="none" stroke="#63b8ff" d="M596.15,-165.34C607.84,-157.46 625.05,-145.86 638.91,-136.52"/>
<polygon fill="#63b8ff" stroke="#63b8ff" points="640.69,-139.54 647.03,-131.05 636.78,-133.74 640.69,-139.54"/>
</a>
</g>
</g>
<!-- Node19 -->
<g id="Node000019" class="node">
<title>Node19</title>
<g id="a_Node000019"><a xlink:title=" ">
<polygon fill="#e0e0e0" stroke="#999999" points="746.62,-129.75 696.88,-129.75 696.88,-110.5 746.62,-110.5 746.62,-129.75"/>
<text xml:space="preserve" text-anchor="middle" x="721.75" y="-116.25" font-family="Helvetica,sans-Serif" font-size="10.00">optional</text>
</a>
</g>
</g>
<!-- Node2&#45;&gt;Node19 -->
<g id="edge21_Node000002_Node000019" class="edge">
<title>Node2&#45;&gt;Node19</title>
<g id="a_edge21_Node000002_Node000019"><a xlink:title=" ">
<path fill="none" stroke="#63b8ff" d="M606.33,-165.34C628.59,-156.81 662.24,-143.92 687.47,-134.26"/>
<polygon fill="#63b8ff" stroke="#63b8ff" points="688.56,-137.59 696.64,-130.74 686.05,-131.05 688.56,-137.59"/>
</a>
</g>
</g>
<!-- Node6&#45;&gt;Node3 -->
<g id="edge11_Node000006_Node000003" class="edge">
<title>Node6&#45;&gt;Node3</title>
<g id="a_edge11_Node000006_Node000003"><a xlink:title=" ">
<path fill="none" stroke="#63b8ff" d="M764.2,-112.57C761.37,-111.82 758.5,-111.1 755.75,-110.5 652.54,-87.86 624.5,-94.51 520.75,-74.5 518.88,-74.14 516.96,-73.75 515.03,-73.34"/>
<polygon fill="#63b8ff" stroke="#63b8ff" points="516.04,-69.98 505.52,-71.23 514.53,-76.82 516.04,-69.98"/>
</a>
</g>
</g>
<!-- Node6&#45;&gt;Node4 -->
<g id="edge6_Node000006_Node000004" class="edge">
<title>Node6&#45;&gt;Node4</title>
<g id="a_edge6_Node000006_Node000004"><a xlink:title=" ">
<path fill="none" stroke="#63b8ff" d="M800.34,-110.09C813.19,-102.14 832.16,-90.39 847.32,-81"/>
<polygon fill="#63b8ff" stroke="#63b8ff" points="849.14,-83.99 855.8,-75.75 845.46,-78.04 849.14,-83.99"/>
</a>
</g>
</g>
<!-- Node7 -->
<g id="Node000007" class="node">
<title>Node7</title>
<g id="a_Node000007"><a xlink:title=" ">
<polygon fill="#e0e0e0" stroke="#999999" points="445.75,-74.5 387.75,-74.5 387.75,-55.25 445.75,-55.25 445.75,-74.5"/>
<text xml:space="preserve" text-anchor="middle" x="416.75" y="-61" font-family="Helvetica,sans-Serif" font-size="10.00">functional</text>
</a>
</g>
</g>
<!-- Node6&#45;&gt;Node7 -->
<g id="edge7_Node000006_Node000007" class="edge">
<title>Node6&#45;&gt;Node7</title>
<g id="a_edge7_Node000006_Node000007"><a xlink:title=" ">
<path fill="none" stroke="#63b8ff" d="M764.22,-112.49C761.39,-111.75 758.51,-111.06 755.75,-110.5 627.17,-84.5 589.49,-96.75 457.11,-74.73"/>
<polygon fill="#63b8ff" stroke="#63b8ff" points="458.09,-71.35 447.64,-73.12 456.91,-78.25 458.09,-71.35"/>
</a>
</g>
</g>
<!-- Node8 -->
<g id="Node000008" class="node">
<title>Node8</title>
<g id="a_Node000008"><a xlink:title=" ">
<polygon fill="#e0e0e0" stroke="#999999" points="821.88,-74.5 749.62,-74.5 749.62,-55.25 821.88,-55.25 821.88,-74.5"/>
<text xml:space="preserve" text-anchor="middle" x="785.75" y="-61" font-family="Helvetica,sans-Serif" font-size="10.00">initializer_list</text>
</a>
</g>
</g>
<!-- Node6&#45;&gt;Node8 -->
<g id="edge8_Node000006_Node000008" class="edge">
<title>Node6&#45;&gt;Node8</title>
<g id="a_edge8_Node000006_Node000008"><a xlink:title=" ">
<path fill="none" stroke="#63b8ff" d="M785.75,-110.33C785.75,-103.82 785.75,-94.67 785.75,-86.37"/>
<polygon fill="#63b8ff" stroke="#63b8ff" points="789.25,-86.37 785.75,-76.37 782.25,-86.37 789.25,-86.37"/>
</a>
</g>
</g>
<!-- Node9 -->
<g id="Node000009" class="node">
<title>Node9</title>
<g id="a_Node000009"><a xlink:title=" ">
<polygon fill="#e0e0e0" stroke="#999999" points="581.38,-74.5 530.12,-74.5 530.12,-55.25 581.38,-55.25 581.38,-74.5"/>
<text xml:space="preserve" text-anchor="middle" x="555.75" y="-61" font-family="Helvetica,sans-Serif" font-size="10.00">memory</text>
</a>
</g>
</g>
<!-- Node6&#45;&gt;Node9 -->
<g id="edge9_Node000006_Node000009" class="edge">
<title>Node6&#45;&gt;Node9</title>
<g id="a_edge9_Node000006_Node000009"><a xlink:title=" ">
<path fill="none" stroke="#63b8ff" d="M764.16,-112.75C761.34,-111.97 758.48,-111.2 755.75,-110.5 699.27,-96.1 633.17,-81.85 592.9,-73.46"/>
<polygon fill="#63b8ff" stroke="#63b8ff" points="593.74,-70.06 583.24,-71.46 592.32,-76.92 593.74,-70.06"/>
</a>
</g>
</g>
<!-- Node6&#45;&gt;Node10 -->
<g id="edge10_Node000006_Node000010" class="edge">
<title>Node6&#45;&gt;Node10</title>
<g id="a_edge10_Node000006_Node000010"><a xlink:title=" ">
<path fill="none" stroke="#63b8ff" d="M764.23,-112.42C761.4,-111.69 758.52,-111.03 755.75,-110.5 593.94,-79.79 546.29,-104.08 380.73,-74.51"/>
<polygon fill="#63b8ff" stroke="#63b8ff" points="381.61,-71.11 371.14,-72.76 380.35,-78 381.61,-71.11"/>
</a>
</g>
</g>
<!-- Node11 -->
<g id="Node000011" class="node">
<title>Node11</title>
<g id="a_Node000011"><a xlink:title=" ">
<polygon fill="#e0e0e0" stroke="#999999" points="658.25,-74.5 615.25,-74.5 615.25,-55.25 658.25,-55.25 658.25,-74.5"/>
<text xml:space="preserve" text-anchor="middle" x="636.75" y="-61" font-family="Helvetica,sans-Serif" font-size="10.00">vector</text>
</a>
</g>
</g>
<!-- Node6&#45;&gt;Node11 -->
<g id="edge12_Node000006_Node000011" class="edge">
<title>Node6&#45;&gt;Node11</title>
<g id="a_edge12_Node000006_Node000011"><a xlink:title=" ">
<path fill="none" stroke="#63b8ff" d="M764.4,-111.5C739.54,-102.61 698.19,-87.83 669.32,-77.51"/>
<polygon fill="#63b8ff" stroke="#63b8ff" points="670.56,-74.24 659.97,-74.17 668.21,-80.83 670.56,-74.24"/>
</a>
</g>
</g>
<!-- Node12 -->
<g id="Node000012" class="node">
<title>Node12</title>
<g id="a_Node000012"><a xlink:href="napi-inl_8h.html" target="_top" xlink:title=" ">
<polygon fill="white" stroke="#666666" points="731.25,-74.5 676.25,-74.5 676.25,-55.25 731.25,-55.25 731.25,-74.5"/>
<text xml:space="preserve" text-anchor="middle" x="703.75" y="-61" font-family="Helvetica,sans-Serif" font-size="10.00">napi&#45;inl.h</text>
</a>
</g>
</g>
<!-- Node6&#45;&gt;Node12 -->
<g id="edge13_Node000006_Node000012" class="edge">
<title>Node6&#45;&gt;Node12</title>
<g id="a_edge13_Node000006_Node000012"><a xlink:title=" ">
<path fill="none" stroke="#63b8ff" d="M771.84,-110.09C759.59,-102.14 741.5,-90.39 727.04,-81"/>
<polygon fill="#63b8ff" stroke="#63b8ff" points="729.29,-78.29 719,-75.78 725.48,-84.16 729.29,-78.29"/>
</a>
</g>
</g>
<!-- Node13 -->
<g id="Node000013" class="node">
<title>Node13</title>
<g id="a_Node000013"><a xlink:title=" ">
<polygon fill="#e0e0e0" stroke="#999999" points="590.62,-19.25 534.88,-19.25 534.88,0 590.62,0 590.62,-19.25"/>
<text xml:space="preserve" text-anchor="middle" x="562.75" y="-5.75" font-family="Helvetica,sans-Serif" font-size="10.00">algorithm</text>
</a>
</g>
</g>
<!-- Node12&#45;&gt;Node13 -->
<g id="edge14_Node000012_Node000013" class="edge">
<title>Node12&#45;&gt;Node13</title>
<g id="a_edge14_Node000012_Node000013"><a xlink:title=" ">
<path fill="none" stroke="#63b8ff" d="M679.83,-54.84C657.25,-46.31 623.11,-33.42 597.52,-23.76"/>
<polygon fill="#63b8ff" stroke="#63b8ff" points="598.79,-20.5 588.2,-20.24 596.32,-27.04 598.79,-20.5"/>
</a>
</g>
</g>
<!-- Node14 -->
<g id="Node000014" class="node">
<title>Node14</title>
<g id="a_Node000014"><a xlink:title=" ">
<polygon fill="#e0e0e0" stroke="#999999" points="654.38,-19.25 609.12,-19.25 609.12,0 654.38,0 654.38,-19.25"/>
<text xml:space="preserve" text-anchor="middle" x="631.75" y="-5.75" font-family="Helvetica,sans-Serif" font-size="10.00">cstring</text>
</a>
</g>
</g>
<!-- Node12&#45;&gt;Node14 -->
<g id="edge15_Node000012_Node000014" class="edge">
<title>Node12&#45;&gt;Node14</title>
<g id="a_edge15_Node000012_Node000014"><a xlink:title=" ">
<path fill="none" stroke="#63b8ff" d="M691.54,-54.84C680.92,-46.99 665.31,-35.45 652.71,-26.12"/>
<polygon fill="#63b8ff" stroke="#63b8ff" points="655.12,-23.56 645,-20.42 650.96,-29.19 655.12,-23.56"/>
</a>
</g>
</g>
<!-- Node15 -->
<g id="Node000015" class="node">
<title>Node15</title>
<g id="a_Node000015"><a xlink:title=" ">
<polygon fill="#e0e0e0" stroke="#999999" points="734.62,-19.25 672.88,-19.25 672.88,0 734.62,0 734.62,-19.25"/>
<text xml:space="preserve" text-anchor="middle" x="703.75" y="-5.75" font-family="Helvetica,sans-Serif" font-size="10.00">type_traits</text>
</a>
</g>
</g>
<!-- Node12&#45;&gt;Node15 -->
<g id="edge16_Node000012_Node000015" class="edge">
<title>Node12&#45;&gt;Node15</title>
<g id="a_edge16_Node000012_Node000015"><a xlink:title=" ">
<path fill="none" stroke="#63b8ff" d="M703.75,-55.08C703.75,-48.57 703.75,-39.42 703.75,-31.12"/>
<polygon fill="#63b8ff" stroke="#63b8ff" points="707.25,-31.12 703.75,-21.12 700.25,-31.12 707.25,-31.12"/>
</a>
</g>
</g>
<!-- Node16 -->
<g id="Node000016" class="node">
<title>Node16</title>
<g id="a_Node000016"><a xlink:title=" ">
<polygon fill="#e0e0e0" stroke="#999999" points="792.38,-19.25 753.12,-19.25 753.12,0 792.38,0 792.38,-19.25"/>
<text xml:space="preserve" text-anchor="middle" x="772.75" y="-5.75" font-family="Helvetica,sans-Serif" font-size="10.00">utility</text>
</a>
</g>
</g>
<!-- Node12&#45;&gt;Node16 -->
<g id="edge17_Node000012_Node000016" class="edge">
<title>Node12&#45;&gt;Node16</title>
<g id="a_edge17_Node000012_Node000016"><a xlink:title=" ">
<path fill="none" stroke="#63b8ff" d="M715.45,-54.84C725.53,-47.07 740.29,-35.67 752.31,-26.4"/>
<polygon fill="#63b8ff" stroke="#63b8ff" points="754.24,-29.33 760.02,-20.45 749.96,-23.79 754.24,-29.33"/>
</a>
</g>
</g>
<!-- Node17 -->
<g id="Node000017" class="node">
<title>Node17</title>
<g id="a_Node000017"><a xlink:href="napi-inl_8deprecated_8h.html" target="_top" xlink:title=" ">
<polygon fill="white" stroke="#666666" points="916.75,-19.25 810.75,-19.25 810.75,0 916.75,0 916.75,-19.25"/>
<text xml:space="preserve" text-anchor="middle" x="863.75" y="-5.75" font-family="Helvetica,sans-Serif" font-size="10.00">napi&#45;inl.deprecated.h</text>
</a>
</g>
</g>
<!-- Node12&#45;&gt;Node17 -->
<g id="edge18_Node000012_Node000017" class="edge">
<title>Node12&#45;&gt;Node17</title>
<g id="a_edge18_Node000012_Node000017"><a xlink:title=" ">
<path fill="none" stroke="#63b8ff" d="M730.89,-54.84C756.98,-46.16 796.65,-32.96 825.85,-23.24"/>
<polygon fill="#63b8ff" stroke="#63b8ff" points="826.66,-26.66 835.04,-20.18 824.45,-20.02 826.66,-26.66"/>
</a>
</g>
</g>
<!-- Node20&#45;&gt;Node2 -->
<g id="edge30_Node000020_Node000002" class="edge">
<title>Node20&#45;&gt;Node2</title>
<g id="a_edge30_Node000020_Node000002"><a xlink:title=" ">
<path fill="none" stroke="#63b8ff" d="M347.59,-282.99C389,-279.44 461.34,-269.27 515.75,-240.25 537.15,-228.83 556.61,-208.68 568.97,-194.05"/>
<polygon fill="#63b8ff" stroke="#63b8ff" points="571.47,-196.53 575.07,-186.56 566.04,-192.11 571.47,-196.53"/>
</a>
</g>
</g>
<!-- Node20&#45;&gt;Node4 -->
<g id="edge26_Node000020_Node000004" class="edge">
<title>Node20&#45;&gt;Node4</title>
<g id="a_edge26_Node000020_Node000004"><a xlink:title=" ">
<path fill="none" stroke="#63b8ff" d="M347.61,-280.15C392.27,-273.33 474.4,-259.43 542.75,-240.25 679.15,-201.96 737.4,-225.58 841.75,-129.75 854.59,-117.96 862.43,-99.54 866.85,-85.5"/>
<polygon fill="#63b8ff" stroke="#63b8ff" points="870.18,-86.6 869.5,-76.03 863.44,-84.72 870.18,-86.6"/>
</a>
</g>
</g>
<!-- Node21 -->
<g id="Node000021" class="node">
<title>Node21</title>
<g id="a_Node000021"><a xlink:title=" ">
<polygon fill="#e0e0e0" stroke="#999999" points="247.75,-129.75 153.75,-129.75 153.75,-110.5 247.75,-110.5 247.75,-129.75"/>
<text xml:space="preserve" text-anchor="middle" x="200.75" y="-116.25" font-family="Helvetica,sans-Serif" font-size="10.00">condition_variable</text>
</a>
</g>
</g>
<!-- Node20&#45;&gt;Node21 -->
<g id="edge23_Node000020_Node000021" class="edge">
<title>Node20&#45;&gt;Node21</title>
<g id="a_edge23_Node000020_Node000021"><a xlink:title=" ">
<path fill="none" stroke="#63b8ff" d="M299.3,-275.9C286.55,-267.87 268.69,-255.1 256.75,-240.25 243.66,-223.97 220.71,-170.19 208.65,-140.78"/>
<polygon fill="#63b8ff" stroke="#63b8ff" points="211.92,-139.52 204.92,-131.57 205.43,-142.15 211.92,-139.52"/>
</a>
</g>
</g>
<!-- Node22 -->
<g id="Node000022" class="node">
<title>Node22</title>
<g id="a_Node000022"><a xlink:title=" ">
<polygon fill="#e0e0e0" stroke="#999999" points="77.5,-185 0,-185 0,-165.75 77.5,-165.75 77.5,-185"/>
<text xml:space="preserve" text-anchor="middle" x="38.75" y="-171.5" font-family="Helvetica,sans-Serif" font-size="10.00">unordered_set</text>
</a>
</g>
</g>
<!-- Node20&#45;&gt;Node22 -->
<g id="edge24_Node000020_Node000022" class="edge">
<title>Node20&#45;&gt;Node22</title>
<g id="a_edge24_Node000020_Node000022"><a xlink:title=" ">
<path fill="none" stroke="#63b8ff" d="M282.1,-282.22C224.45,-276.98 107.59,-263.73 74.75,-240.25 59.86,-229.61 50.35,-210.78 44.86,-196.31"/>
<polygon fill="#63b8ff" stroke="#63b8ff" points="48.19,-195.23 41.66,-186.89 41.56,-197.49 48.19,-195.23"/>
</a>
</g>
</g>
<!-- Node23 -->
<g id="Node000023" class="node">
<title>Node23</title>
<g id="a_Node000023"><a xlink:title=" ">
<polygon fill="#e0e0e0" stroke="#999999" points="295.5,-240.25 266,-240.25 266,-221 295.5,-221 295.5,-240.25"/>
<text xml:space="preserve" text-anchor="middle" x="280.75" y="-226.75" font-family="Helvetica,sans-Serif" font-size="10.00">set</text>
</a>
</g>
</g>
<!-- Node20&#45;&gt;Node23 -->
<g id="edge25_Node000020_Node000023" class="edge">
<title>Node20&#45;&gt;Node23</title>
<g id="a_edge25_Node000020_Node000023"><a xlink:title=" ">
<path fill="none" stroke="#63b8ff" d="M309.14,-276.08C304.63,-269.03 298.16,-258.9 292.54,-250.08"/>
<polygon fill="#63b8ff" stroke="#63b8ff" points="295.63,-248.43 287.3,-241.88 289.73,-252.2 295.63,-248.43"/>
</a>
</g>
</g>
<!-- Node24 -->
<g id="Node000024" class="node">
<title>Node24</title>
<g id="a_Node000024"><a xlink:href="_glob_8hh.html" target="_top" xlink:title=" ">
<polygon fill="white" stroke="#666666" points="133.62,-240.25 83.88,-240.25 83.88,-221 133.62,-221 133.62,-240.25"/>
<text xml:space="preserve" text-anchor="middle" x="108.75" y="-226.75" font-family="Helvetica,sans-Serif" font-size="10.00">Glob.hh</text>
</a>
</g>
</g>
<!-- Node20&#45;&gt;Node24 -->
<g id="edge27_Node000020_Node000024" class="edge">
<title>Node20&#45;&gt;Node24</title>
<g id="a_edge27_Node000020_Node000024"><a xlink:title=" ">
<path fill="none" stroke="#63b8ff" d="M282.11,-276.44C244.73,-266.78 183.67,-250.99 144.89,-240.97"/>
<polygon fill="#63b8ff" stroke="#63b8ff" points="146.12,-237.67 135.56,-238.56 144.37,-244.45 146.12,-237.67"/>
</a>
</g>
</g>
<!-- Node26 -->
<g id="Node000026" class="node">
<title>Node26</title>
<g id="a_Node000026"><a xlink:href="_debounce_8hh.html" target="_top" xlink:title=" ">
<polygon fill="white" stroke="#666666" points="387.62,-240.25 313.88,-240.25 313.88,-221 387.62,-221 387.62,-240.25"/>
<text xml:space="preserve" text-anchor="middle" x="350.75" y="-226.75" font-family="Helvetica,sans-Serif" font-size="10.00">Debounce.hh</text>
</a>
</g>
</g>
<!-- Node20&#45;&gt;Node26 -->
<g id="edge31_Node000020_Node000026" class="edge">
<title>Node20&#45;&gt;Node26</title>
<g id="a_edge31_Node000020_Node000026"><a xlink:title=" ">
<path fill="none" stroke="#63b8ff" d="M320.69,-276.08C325.46,-269.03 332.31,-258.9 338.27,-250.08"/>
<polygon fill="#63b8ff" stroke="#63b8ff" points="341.13,-252.11 343.83,-241.86 335.33,-248.19 341.13,-252.11"/>
</a>
</g>
</g>
<!-- Node20&#45;&gt;Node29 -->
<g id="edge43_Node000020_Node000029" class="edge">
<title>Node20&#45;&gt;Node29</title>
<g id="a_edge43_Node000020_Node000029"><a xlink:title=" ">
<path fill="none" stroke="#63b8ff" d="M287.42,-275.88C268.08,-268.53 242.36,-256.66 223.75,-240.25 209.45,-227.65 197.98,-209.08 190.66,-195.21"/>
<polygon fill="#63b8ff" stroke="#63b8ff" points="193.98,-194.03 186.38,-186.65 187.72,-197.16 193.98,-194.03"/>
</a>
</g>
</g>
<!-- Node30 -->
<g id="Node000030" class="node">
<title>Node30</title>
<g id="a_Node000030"><a xlink:href="_dir_tree_8hh.html" target="_top" xlink:title=" ">
<polygon fill="white" stroke="#666666" points="506.62,-240.25 444.88,-240.25 444.88,-221 506.62,-221 506.62,-240.25"/>
<text xml:space="preserve" text-anchor="middle" x="475.75" y="-226.75" font-family="Helvetica,sans-Serif" font-size="10.00">DirTree.hh</text>
</a>
</g>
</g>
<!-- Node20&#45;&gt;Node30 -->
<g id="edge38_Node000020_Node000030" class="edge">
<title>Node20&#45;&gt;Node30</title>
<g id="a_edge38_Node000020_Node000030"><a xlink:title=" ">
<path fill="none" stroke="#63b8ff" d="M342.06,-275.84C368.31,-267.16 408.23,-253.96 437.61,-244.24"/>
<polygon fill="#63b8ff" stroke="#63b8ff" points="438.47,-247.64 446.87,-241.18 436.27,-240.99 438.47,-247.64"/>
</a>
</g>
</g>
<!-- Node24&#45;&gt;Node22 -->
<g id="edge28_Node000024_Node000022" class="edge">
<title>Node24&#45;&gt;Node22</title>
<g id="a_edge28_Node000024_Node000022"><a xlink:title=" ">
<path fill="none" stroke="#63b8ff" d="M96.88,-220.59C86.66,-212.82 71.68,-201.42 59.49,-192.15"/>
<polygon fill="#63b8ff" stroke="#63b8ff" points="61.73,-189.46 51.65,-186.19 57.49,-195.03 61.73,-189.46"/>
</a>
</g>
</g>
<!-- Node25 -->
<g id="Node000025" class="node">
<title>Node25</title>
<g id="a_Node000025"><a xlink:title=" ">
<polygon fill="#e0e0e0" stroke="#999999" points="135.75,-185 95.75,-185 95.75,-165.75 135.75,-165.75 135.75,-185"/>
<text xml:space="preserve" text-anchor="middle" x="115.75" y="-171.5" font-family="Helvetica,sans-Serif" font-size="10.00">regex</text>
</a>
</g>
</g>
<!-- Node24&#45;&gt;Node25 -->
<g id="edge29_Node000024_Node000025" class="edge">
<title>Node24&#45;&gt;Node25</title>
<g id="a_edge29_Node000024_Node000025"><a xlink:title=" ">
<path fill="none" stroke="#63b8ff" d="M109.91,-220.83C110.77,-214.24 111.99,-204.96 113.09,-196.57"/>
<polygon fill="#63b8ff" stroke="#63b8ff" points="116.54,-197.23 114.37,-186.86 109.6,-196.32 116.54,-197.23"/>
</a>
</g>
</g>
<!-- Node26&#45;&gt;Node7 -->
<g id="edge34_Node000026_Node000007" class="edge">
<title>Node26&#45;&gt;Node7</title>
<g id="a_edge34_Node000026_Node000007"><a xlink:title=" ">
<path fill="none" stroke="#63b8ff" d="M332.4,-220.51C312.23,-209.14 284.02,-188.41 294.75,-165.75 313.74,-125.65 357.6,-96.29 387.21,-80.15"/>
<polygon fill="#63b8ff" stroke="#63b8ff" points="388.84,-83.25 396.07,-75.5 385.59,-77.05 388.84,-83.25"/>
</a>
</g>
</g>
<!-- Node26&#45;&gt;Node27 -->
<g id="edge32_Node000026_Node000027" class="edge">
<title>Node26&#45;&gt;Node27</title>
<g id="a_edge32_Node000026_Node000027"><a xlink:title=" ">
<path fill="none" stroke="#63b8ff" d="M346.62,-220.83C343.42,-214.01 338.86,-204.31 334.82,-195.7"/>
<polygon fill="#63b8ff" stroke="#63b8ff" points="338.03,-194.29 330.61,-186.73 331.69,-197.27 338.03,-194.29"/>
</a>
</g>
</g>
<!-- Node28 -->
<g id="Node000028" class="node">
<title>Node28</title>
<g id="a_Node000028"><a xlink:title=" ">
<polygon fill="#e0e0e0" stroke="#999999" points="448.12,-185 365.38,-185 365.38,-165.75 448.12,-165.75 448.12,-185"/>
<text xml:space="preserve" text-anchor="middle" x="406.75" y="-171.5" font-family="Helvetica,sans-Serif" font-size="10.00">unordered_map</text>
</a>
</g>
</g>
<!-- Node26&#45;&gt;Node28 -->
<g id="edge33_Node000026_Node000028" class="edge">
<title>Node26&#45;&gt;Node28</title>
<g id="a_edge33_Node000026_Node000028"><a xlink:title=" ">
<path fill="none" stroke="#63b8ff" d="M360.25,-220.59C368.18,-213.05 379.7,-202.1 389.29,-192.98"/>
<polygon fill="#63b8ff" stroke="#63b8ff" points="391.46,-195.74 396.29,-186.32 386.64,-190.67 391.46,-195.74"/>
</a>
</g>
</g>
<!-- Node26&#45;&gt;Node29 -->
<g id="edge35_Node000026_Node000029" class="edge">
<title>Node26&#45;&gt;Node29</title>
<g id="a_edge35_Node000026_Node000029"><a xlink:title=" ">
<path fill="none" stroke="#63b8ff" d="M322.08,-220.59C294.32,-211.84 252,-198.51 221.1,-188.77"/>
<polygon fill="#63b8ff" stroke="#63b8ff" points="222.31,-185.49 211.72,-185.82 220.21,-192.16 222.31,-185.49"/>
</a>
</g>
</g>
<!-- Node29&#45;&gt;Node10 -->
<g id="edge36_Node000029_Node000010" class="edge">
<title>Node29&#45;&gt;Node10</title>
<g id="a_edge36_Node000029_Node000010"><a xlink:title=" ">
<path fill="none" stroke="#63b8ff" d="M169.82,-165.37C154.19,-152.48 130.38,-128.38 144.75,-110.5 165.73,-84.41 262.94,-72.7 314.85,-68.23"/>
<polygon fill="#63b8ff" stroke="#63b8ff" points="314.91,-71.73 324.6,-67.43 314.34,-64.76 314.91,-71.73"/>
</a>
</g>
</g>
<!-- Node29&#45;&gt;Node21 -->
<g id="edge37_Node000029_Node000021" class="edge">
<title>Node29&#45;&gt;Node21</title>
<g id="a_edge37_Node000029_Node000021"><a xlink:title=" ">
<path fill="none" stroke="#63b8ff" d="M184.89,-165.58C187.29,-158.84 190.71,-149.27 193.75,-140.74"/>
<polygon fill="#63b8ff" stroke="#63b8ff" points="196.97,-142.13 197.04,-131.53 190.38,-139.78 196.97,-142.13"/>
</a>
</g>
</g>
<!-- Node30&#45;&gt;Node2 -->
<g id="edge42_Node000030_Node000002" class="edge">
<title>Node30&#45;&gt;Node2</title>
<g id="a_edge42_Node000030_Node000002"><a xlink:title=" ">
<path fill="none" stroke="#63b8ff" d="M493.9,-220.59C510.43,-212.37 535.09,-200.09 554.25,-190.56"/>
<polygon fill="#63b8ff" stroke="#63b8ff" points="555.76,-193.72 563.15,-186.13 552.64,-187.45 555.76,-193.72"/>
</a>
</g>
</g>
<!-- Node30&#45;&gt;Node3 -->
<g id="edge39_Node000030_Node000003" class="edge">
<title>Node30&#45;&gt;Node3</title>
<g id="a_edge39_Node000030_Node000003"><a xlink:title=" ">
<path fill="none" stroke="#63b8ff" d="M476.18,-220.82C477.42,-195.5 481.01,-122 482.76,-86.09"/>
<polygon fill="#63b8ff" stroke="#63b8ff" points="486.25,-86.39 483.24,-76.23 479.26,-86.05 486.25,-86.39"/>
</a>
</g>
</g>
<!-- Node30&#45;&gt;Node9 -->
<g id="edge41_Node000030_Node000009" class="edge">
<title>Node30&#45;&gt;Node9</title>
<g id="a_edge41_Node000030_Node000009"><a xlink:title=" ">
<path fill="none" stroke="#63b8ff" d="M479.95,-220.61C489.27,-200.68 512.45,-151.36 532.75,-110.5 536.97,-102.01 541.75,-92.68 545.86,-84.76"/>
<polygon fill="#63b8ff" stroke="#63b8ff" points="548.87,-86.55 550.39,-76.07 542.66,-83.32 548.87,-86.55"/>
</a>
</g>
</g>
<!-- Node30&#45;&gt;Node28 -->
<g id="edge40_Node000030_Node000028" class="edge">
<title>Node30&#45;&gt;Node28</title>
<g id="a_edge40_Node000030_Node000028"><a xlink:title=" ">
<path fill="none" stroke="#63b8ff" d="M464.05,-220.59C453.97,-212.82 439.21,-201.42 427.19,-192.15"/>
<polygon fill="#63b8ff" stroke="#63b8ff" points="429.54,-189.54 419.48,-186.2 425.26,-195.08 429.54,-189.54"/>
</a>
</g>
</g>
</g>
</svg>

<g id="navigator" transform="translate(0 0)" fill="#404254">
  <rect fill="#f2f5e9" fill-opacity="0.5" stroke="#606060" stroke-width=".5" x="0" y="0" width="60" height="60"/>
  <use id="zoomplus" xlink:href="#zoomPlus" x="17" y="9" onmousedown="handleZoom(evt,'in')"/>
  <use id="zoomminus" xlink:href="#zoomMin" x="42" y="9" onmousedown="handleZoom(evt,'out')"/>
  <use id="reset" xlink:href="#resetDef" x="30" y="36" onmousedown="handleReset()"/>
   <use id="arrowup" xlink:href="#arrowUp" x="0" y="0" onmousedown="handlePan(0,-1)"/>
  <use id="arrowright" xlink:href="#arrowRight" x="0" y="0" onmousedown="handlePan(1,0)"/>
  <use id="arrowdown" xlink:href="#arrowDown" x="0" y="0" onmousedown="handlePan(0,1)"/>
  <use id="arrowleft" xlink:href="#arrowLeft" x="0" y="0" onmousedown="handlePan(-1,0)"/>
</g>
<svg viewBox="0 0 15 15" width="100%" height="30px" preserveAspectRatio="xMaxYMin meet">
 <g id="arrow_out" transform="scale(0.3 0.3)">
  <a xlink:href="_backend_8hh__incl_org.svg" target="_base">
   <rect id="button" ry="5" rx="5" y="6" x="6" height="38" width="38"
        fill="#f2f5e9" fill-opacity="0.5" stroke="#606060" stroke-width="1.0"/>
   <path id="arrow"
     d="M 11.500037,31.436501 C 11.940474,20.09759 22.043105,11.32322 32.158766,21.979434 L 37.068811,17.246167 C 37.068811,17.246167 37.088388,32 37.088388,32 L 22.160133,31.978069 C 22.160133,31.978069 26.997745,27.140456 26.997745,27.140456 C 18.528582,18.264221 13.291696,25.230495 11.500037,31.436501 z"
     style="fill:#404040;"/>
  </a>
 </g>
</svg>

<style type='text/css'>
<![CDATA[
[data-mouse-over-selected='false'] { opacity: 0.7; }
[data-mouse-over-selected='true']  { opacity: 1.0; }
]]>
</style>
<script type="application/ecmascript"><![CDATA[
document.addEventListener('DOMContentLoaded', (event) => {
  highlightEdges();
  highlightAdjacentNodes();
});
]]></script>
</svg>
