<?xml version="1.0" encoding="UTF-8" standalone="no"?>
<!DOCTYPE svg PUBLIC "-//W3C//DTD SVG 1.1//EN"
 "http://www.w3.org/Graphics/SVG/1.1/DTD/svg11.dtd">
<!-- Generated by graphviz version 14.0.4 (20251115.1723)
 -->
<!-- Title: frontend/node_modules/@parcel/watcher/src/shared/BruteForceBackend.hh Pages: 1 -->
<svg width="1215pt" height="205pt"
 viewBox="0.00 0.00 1215.00 205.00" xmlns="http://www.w3.org/2000/svg" xmlns:xlink="http://www.w3.org/1999/xlink">
<g id="graph0" class="graph" transform="scale(1 1) rotate(0) translate(4 201.25)">
<title>frontend/node_modules/@parcel/watcher/src/shared/BruteForceBackend.hh</title>
<!-- Node1 -->
<g id="Node000001" class="node">
<title>Node1</title>
<g id="a_Node000001"><a xlink:title=" ">
<polygon fill="#999999" stroke="#666666" points="734.12,-197.25 583.12,-197.25 583.12,-155.5 734.12,-155.5 734.12,-197.25"/>
<text xml:space="preserve" text-anchor="start" x="591.12" y="-183.75" font-family="Helvetica,sans-Serif" font-size="10.00">frontend/node_modules</text>
<text xml:space="preserve" text-anchor="start" x="591.12" y="-172.5" font-family="Helvetica,sans-Serif" font-size="10.00">/@parcel/watcher/src</text>
<text xml:space="preserve" text-anchor="middle" x="658.62" y="-161.25" font-family="Helvetica,sans-Serif" font-size="10.00">/shared/BruteForceBackend.hh</text>
</a>
</g>
</g>
<!-- Node2 -->
<g id="Node000002" class="node">
<title>Node2</title>
<g id="a_Node000002"><a xlink:href="_backend_8cc.html" target="_top" xlink:title=" ">
<polygon fill="white" stroke="#666666" points="117.25,-119.5 0,-119.5 0,-77.75 117.25,-77.75 117.25,-119.5"/>
<text xml:space="preserve" text-anchor="start" x="8" y="-106" font-family="Helvetica,sans-Serif" font-size="10.00">frontend/node_modules</text>
<text xml:space="preserve" text-anchor="start" x="8" y="-94.75" font-family="Helvetica,sans-Serif" font-size="10.00">/@parcel/watcher/src</text>
<text xml:space="preserve" text-anchor="middle" x="58.62" y="-83.5" font-family="Helvetica,sans-Serif" font-size="10.00">/Backend.cc</text>
</a>
</g>
</g>
<!-- Node1&#45;&gt;Node2 -->
<g id="edge1_Node000001_Node000002" class="edge">
<title>Node1&#45;&gt;Node2</title>
<g id="a_edge1_Node000001_Node000002"><a xlink:title=" ">
<path fill="none" stroke="#63b8ff" d="M571.39,-171.03C465.42,-164.65 281.57,-150.02 126.62,-119.5 123.61,-118.91 120.53,-118.24 117.44,-117.52"/>
<polygon fill="#63b8ff" stroke="#63b8ff" points="570.96,-174.51 581.15,-171.61 571.37,-167.52 570.96,-174.51"/>
</a>
</g>
</g>
<!-- Node3 -->
<g id="Node000003" class="node">
<title>Node3</title>
<g id="a_Node000003"><a xlink:href="_kqueue_backend_8hh.html" target="_top" xlink:title=" ">
<polygon fill="white" stroke="#666666" points="273.75,-119.5 135.5,-119.5 135.5,-77.75 273.75,-77.75 273.75,-119.5"/>
<text xml:space="preserve" text-anchor="start" x="143.5" y="-106" font-family="Helvetica,sans-Serif" font-size="10.00">frontend/node_modules</text>
<text xml:space="preserve" text-anchor="start" x="143.5" y="-94.75" font-family="Helvetica,sans-Serif" font-size="10.00">/@parcel/watcher/src</text>
<text xml:space="preserve" text-anchor="middle" x="204.62" y="-83.5" font-family="Helvetica,sans-Serif" font-size="10.00">/kqueue/KqueueBackend.hh</text>
</a>
</g>
</g>
<!-- Node1&#45;&gt;Node3 -->
<g id="edge2_Node000001_Node000003" class="edge">
<title>Node1&#45;&gt;Node3</title>
<g id="a_edge2_Node000001_Node000003"><a xlink:title=" ">
<path fill="none" stroke="#63b8ff" d="M571.97,-165.05C495.48,-155.33 381.14,-139.32 282.62,-119.5 279.75,-118.92 276.82,-118.3 273.86,-117.66"/>
<polygon fill="#63b8ff" stroke="#63b8ff" points="571.11,-168.47 581.47,-166.25 571.99,-161.52 571.11,-168.47"/>
</a>
</g>
</g>
<!-- Node5 -->
<g id="Node000005" class="node">
<title>Node5</title>
<g id="a_Node000005"><a xlink:href="_inotify_backend_8hh.html" target="_top" xlink:title=" ">
<polygon fill="white" stroke="#666666" points="413.12,-119.5 292.12,-119.5 292.12,-77.75 413.12,-77.75 413.12,-119.5"/>
<text xml:space="preserve" text-anchor="start" x="300.12" y="-106" font-family="Helvetica,sans-Serif" font-size="10.00">frontend/node_modules</text>
<text xml:space="preserve" text-anchor="start" x="300.12" y="-94.75" font-family="Helvetica,sans-Serif" font-size="10.00">/@parcel/watcher/src</text>
<text xml:space="preserve" text-anchor="middle" x="352.62" y="-83.5" font-family="Helvetica,sans-Serif" font-size="10.00">/linux/InotifyBackend.hh</text>
</a>
</g>
</g>
<!-- Node1&#45;&gt;Node5 -->
<g id="edge4_Node000001_Node000005" class="edge">
<title>Node1&#45;&gt;Node5</title>
<g id="a_edge4_Node000001_Node000005"><a xlink:title=" ">
<path fill="none" stroke="#63b8ff" d="M571.69,-155.95C526.76,-145.64 471.11,-132.45 421.62,-119.5 418.97,-118.81 416.27,-118.08 413.53,-117.34"/>
<polygon fill="#63b8ff" stroke="#63b8ff" points="570.87,-159.35 581.4,-158.17 572.43,-152.53 570.87,-159.35"/>
</a>
</g>
</g>
<!-- Node7 -->
<g id="Node000007" class="node">
<title>Node7</title>
<g id="a_Node000007"><a xlink:href="_brute_force_backend_8cc.html" target="_top" xlink:title=" ">
<polygon fill="white" stroke="#666666" points="582.12,-119.5 431.12,-119.5 431.12,-77.75 582.12,-77.75 582.12,-119.5"/>
<text xml:space="preserve" text-anchor="start" x="439.12" y="-106" font-family="Helvetica,sans-Serif" font-size="10.00">frontend/node_modules</text>
<text xml:space="preserve" text-anchor="start" x="439.12" y="-94.75" font-family="Helvetica,sans-Serif" font-size="10.00">/@parcel/watcher/src</text>
<text xml:space="preserve" text-anchor="middle" x="506.62" y="-83.5" font-family="Helvetica,sans-Serif" font-size="10.00">/shared/BruteForceBackend.cc</text>
</a>
</g>
</g>
<!-- Node1&#45;&gt;Node7 -->
<g id="edge6_Node000001_Node000007" class="edge">
<title>Node1&#45;&gt;Node7</title>
<g id="a_edge6_Node000001_Node000007"><a xlink:title=" ">
<path fill="none" stroke="#63b8ff" d="M607.61,-149.95C588.04,-140.2 565.97,-129.2 547.47,-119.98"/>
<polygon fill="#63b8ff" stroke="#63b8ff" points="606.03,-153.07 616.54,-154.4 609.15,-146.81 606.03,-153.07"/>
</a>
</g>
</g>
<!-- Node8 -->
<g id="Node000008" class="node">
<title>Node8</title>
<g id="a_Node000008"><a xlink:href="fts_8cc.html" target="_top" xlink:title=" ">
<polygon fill="white" stroke="#666666" points="717.25,-119.5 600,-119.5 600,-77.75 717.25,-77.75 717.25,-119.5"/>
<text xml:space="preserve" text-anchor="start" x="608" y="-106" font-family="Helvetica,sans-Serif" font-size="10.00">frontend/node_modules</text>
<text xml:space="preserve" text-anchor="start" x="608" y="-94.75" font-family="Helvetica,sans-Serif" font-size="10.00">/@parcel/watcher/src</text>
<text xml:space="preserve" text-anchor="middle" x="658.62" y="-83.5" font-family="Helvetica,sans-Serif" font-size="10.00">/unix/fts.cc</text>
</a>
</g>
</g>
<!-- Node1&#45;&gt;Node8 -->
<g id="edge7_Node000001_Node000008" class="edge">
<title>Node1&#45;&gt;Node8</title>
<g id="a_edge7_Node000001_Node000008"><a xlink:title=" ">
<path fill="none" stroke="#63b8ff" d="M658.62,-143.75C658.62,-135.71 658.62,-127.29 658.62,-119.98"/>
<polygon fill="#63b8ff" stroke="#63b8ff" points="655.13,-143.56 658.63,-153.56 662.13,-143.56 655.13,-143.56"/>
</a>
</g>
</g>
<!-- Node9 -->
<g id="Node000009" class="node">
<title>Node9</title>
<g id="a_Node000009"><a xlink:href="legacy_8cc.html" target="_top" xlink:title=" ">
<polygon fill="white" stroke="#666666" points="852.25,-119.5 735,-119.5 735,-77.75 852.25,-77.75 852.25,-119.5"/>
<text xml:space="preserve" text-anchor="start" x="743" y="-106" font-family="Helvetica,sans-Serif" font-size="10.00">frontend/node_modules</text>
<text xml:space="preserve" text-anchor="start" x="743" y="-94.75" font-family="Helvetica,sans-Serif" font-size="10.00">/@parcel/watcher/src</text>
<text xml:space="preserve" text-anchor="middle" x="793.62" y="-83.5" font-family="Helvetica,sans-Serif" font-size="10.00">/unix/legacy.cc</text>
</a>
</g>
</g>
<!-- Node1&#45;&gt;Node9 -->
<g id="edge8_Node000001_Node000009" class="edge">
<title>Node1&#45;&gt;Node9</title>
<g id="a_edge8_Node000001_Node000009"><a xlink:title=" ">
<path fill="none" stroke="#63b8ff" d="M704.65,-149.55C721.86,-139.89 741.14,-129.07 757.35,-119.98"/>
<polygon fill="#63b8ff" stroke="#63b8ff" points="703.13,-146.39 696.12,-154.33 706.56,-152.49 703.13,-146.39"/>
</a>
</g>
</g>
<!-- Node10 -->
<g id="Node000010" class="node">
<title>Node10</title>
<g id="a_Node000010"><a xlink:href="_wasm_backend_8hh.html" target="_top" xlink:title=" ">
<polygon fill="white" stroke="#666666" points="998.5,-119.5 870.75,-119.5 870.75,-77.75 998.5,-77.75 998.5,-119.5"/>
<text xml:space="preserve" text-anchor="start" x="878.75" y="-106" font-family="Helvetica,sans-Serif" font-size="10.00">frontend/node_modules</text>
<text xml:space="preserve" text-anchor="start" x="878.75" y="-94.75" font-family="Helvetica,sans-Serif" font-size="10.00">/@parcel/watcher/src</text>
<text xml:space="preserve" text-anchor="middle" x="934.62" y="-83.5" font-family="Helvetica,sans-Serif" font-size="10.00">/wasm/WasmBackend.hh</text>
</a>
</g>
</g>
<!-- Node1&#45;&gt;Node10 -->
<g id="edge9_Node000001_Node000010" class="edge">
<title>Node1&#45;&gt;Node10</title>
<g id="a_edge9_Node000001_Node000010"><a xlink:title=" ">
<path fill="none" stroke="#63b8ff" d="M743.62,-152.05C784.45,-140.84 832.59,-127.63 870.32,-117.27"/>
<polygon fill="#63b8ff" stroke="#63b8ff" points="742.76,-148.65 734.05,-154.67 744.62,-155.4 742.76,-148.65"/>
</a>
</g>
</g>
<!-- Node12 -->
<g id="Node000012" class="node">
<title>Node12</title>
<g id="a_Node000012"><a xlink:href="_windows_backend_8cc.html" target="_top" xlink:title=" ">
<polygon fill="white" stroke="#666666" points="1187.88,-41.75 1035.38,-41.75 1035.38,0 1187.88,0 1187.88,-41.75"/>
<text xml:space="preserve" text-anchor="start" x="1043.38" y="-28.25" font-family="Helvetica,sans-Serif" font-size="10.00">frontend/node_modules</text>
<text xml:space="preserve" text-anchor="start" x="1043.38" y="-17" font-family="Helvetica,sans-Serif" font-size="10.00">/@parcel/watcher/src</text>
<text xml:space="preserve" text-anchor="middle" x="1111.62" y="-5.75" font-family="Helvetica,sans-Serif" font-size="10.00">/windows/WindowsBackend.cc</text>
</a>
</g>
</g>
<!-- Node1&#45;&gt;Node12 -->
<g id="edge11_Node000001_Node000012" class="edge">
<title>Node1&#45;&gt;Node12</title>
<g id="a_edge11_Node000001_Node000012"><a xlink:title=" ">
<path fill="none" stroke="#63b8ff" d="M745.75,-168.04C834.01,-159.45 963.6,-143.3 1007.62,-119.5 1029.7,-107.57 1027.57,-95.17 1045.62,-77.75 1058.48,-65.35 1073.65,-52.4 1086.2,-42.1"/>
<polygon fill="#63b8ff" stroke="#63b8ff" points="745.53,-164.55 735.9,-168.98 746.19,-171.52 745.53,-164.55"/>
</a>
</g>
</g>
<!-- Node13 -->
<g id="Node000013" class="node">
<title>Node13</title>
<g id="a_Node000013"><a xlink:href="_windows_backend_8hh.html" target="_top" xlink:title=" ">
<polygon fill="white" stroke="#666666" points="1206.88,-119.5 1054.38,-119.5 1054.38,-77.75 1206.88,-77.75 1206.88,-119.5"/>
<text xml:space="preserve" text-anchor="start" x="1062.38" y="-106" font-family="Helvetica,sans-Serif" font-size="10.00">frontend/node_modules</text>
<text xml:space="preserve" text-anchor="start" x="1062.38" y="-94.75" font-family="Helvetica,sans-Serif" font-size="10.00">/@parcel/watcher/src</text>
<text xml:space="preserve" text-anchor="middle" x="1130.62" y="-83.5" font-family="Helvetica,sans-Serif" font-size="10.00">/windows/WindowsBackend.hh</text>
</a>
</g>
</g>
<!-- Node1&#45;&gt;Node13 -->
<g id="edge12_Node000001_Node000013" class="edge">
<title>Node1&#45;&gt;Node13</title>
<g id="a_edge12_Node000001_Node000013"><a xlink:title=" ">
<path fill="none" stroke="#63b8ff" d="M745.43,-164.49C823.05,-154.33 939.77,-137.99 1040.62,-119.5 1045.03,-118.69 1049.55,-117.82 1054.11,-116.92"/>
<polygon fill="#63b8ff" stroke="#63b8ff" points="745.23,-160.99 735.77,-165.75 746.14,-167.93 745.23,-160.99"/>
</a>
</g>
</g>
<!-- Node4 -->
<g id="Node000004" class="node">
<title>Node4</title>
<g id="a_Node000004"><a xlink:href="_kqueue_backend_8cc.html" target="_top" xlink:title=" ">
<polygon fill="white" stroke="#666666" points="273.75,-41.75 135.5,-41.75 135.5,0 273.75,0 273.75,-41.75"/>
<text xml:space="preserve" text-anchor="start" x="143.5" y="-28.25" font-family="Helvetica,sans-Serif" font-size="10.00">frontend/node_modules</text>
<text xml:space="preserve" text-anchor="start" x="143.5" y="-17" font-family="Helvetica,sans-Serif" font-size="10.00">/@parcel/watcher/src</text>
<text xml:space="preserve" text-anchor="middle" x="204.62" y="-5.75" font-family="Helvetica,sans-Serif" font-size="10.00">/kqueue/KqueueBackend.cc</text>
</a>
</g>
</g>
<!-- Node3&#45;&gt;Node4 -->
<g id="edge3_Node000003_Node000004" class="edge">
<title>Node3&#45;&gt;Node4</title>
<g id="a_edge3_Node000003_Node000004"><a xlink:title=" ">
<path fill="none" stroke="#63b8ff" d="M204.62,-66C204.62,-57.96 204.62,-49.54 204.62,-42.23"/>
<polygon fill="#63b8ff" stroke="#63b8ff" points="201.13,-65.81 204.63,-75.81 208.13,-65.81 201.13,-65.81"/>
</a>
</g>
</g>
<!-- Node6 -->
<g id="Node000006" class="node">
<title>Node6</title>
<g id="a_Node000006"><a xlink:href="_inotify_backend_8cc.html" target="_top" xlink:title=" ">
<polygon fill="white" stroke="#666666" points="413.12,-41.75 292.12,-41.75 292.12,0 413.12,0 413.12,-41.75"/>
<text xml:space="preserve" text-anchor="start" x="300.12" y="-28.25" font-family="Helvetica,sans-Serif" font-size="10.00">frontend/node_modules</text>
<text xml:space="preserve" text-anchor="start" x="300.12" y="-17" font-family="Helvetica,sans-Serif" font-size="10.00">/@parcel/watcher/src</text>
<text xml:space="preserve" text-anchor="middle" x="352.62" y="-5.75" font-family="Helvetica,sans-Serif" font-size="10.00">/linux/InotifyBackend.cc</text>
</a>
</g>
</g>
<!-- Node5&#45;&gt;Node6 -->
<g id="edge5_Node000005_Node000006" class="edge">
<title>Node5&#45;&gt;Node6</title>
<g id="a_edge5_Node000005_Node000006"><a xlink:title=" ">
<path fill="none" stroke="#63b8ff" d="M352.62,-66C352.62,-57.96 352.62,-49.54 352.62,-42.23"/>
<polygon fill="#63b8ff" stroke="#63b8ff" points="349.13,-65.81 352.63,-75.81 356.13,-65.81 349.13,-65.81"/>
</a>
</g>
</g>
<!-- Node11 -->
<g id="Node000011" class="node">
<title>Node11</title>
<g id="a_Node000011"><a xlink:href="_wasm_backend_8cc.html" target="_top" xlink:title=" ">
<polygon fill="white" stroke="#666666" points="998.5,-41.75 870.75,-41.75 870.75,0 998.5,0 998.5,-41.75"/>
<text xml:space="preserve" text-anchor="start" x="878.75" y="-28.25" font-family="Helvetica,sans-Serif" font-size="10.00">frontend/node_modules</text>
<text xml:space="preserve" text-anchor="start" x="878.75" y="-17" font-family="Helvetica,sans-Serif" font-size="10.00">/@parcel/watcher/src</text>
<text xml:space="preserve" text-anchor="middle" x="934.62" y="-5.75" font-family="Helvetica,sans-Serif" font-size="10.00">/wasm/WasmBackend.cc</text>
</a>
</g>
</g>
<!-- Node10&#45;&gt;Node11 -->
<g id="edge10_Node000010_Node000011" class="edge">
<title>Node10&#45;&gt;Node11</title>
<g id="a_edge10_Node000010_Node000011"><a xlink:title=" ">
<path fill="none" stroke="#63b8ff" d="M934.62,-66C934.62,-57.96 934.62,-49.54 934.62,-42.23"/>
<polygon fill="#63b8ff" stroke="#63b8ff" points="931.13,-65.81 934.63,-75.81 938.13,-65.81 931.13,-65.81"/>
</a>
</g>
</g>
<!-- Node13&#45;&gt;Node12 -->
<g id="edge13_Node000013_Node000012" class="edge">
<title>Node13&#45;&gt;Node12</title>
<g id="a_edge13_Node000013_Node000012"><a xlink:title=" ">
<path fill="none" stroke="#63b8ff" d="M1122.76,-66.28C1120.73,-58.16 1118.59,-49.62 1116.73,-42.23"/>
<polygon fill="#63b8ff" stroke="#63b8ff" points="1119.34,-67.01 1125.17,-75.86 1126.13,-65.31 1119.34,-67.01"/>
</a>
</g>
</g>
</g>
</svg>
