<?xml version="1.0" encoding="UTF-8" standalone="no"?>
<!DOCTYPE svg PUBLIC "-//W3C//DTD SVG 1.1//EN"
 "http://www.w3.org/Graphics/SVG/1.1/DTD/svg11.dtd">
<!-- Generated by graphviz version 14.0.4 (20251115.1723)
 -->
<!-- Title: frontend/node_modules/@parcel/watcher/src/shared/BruteForceBackend.cc Pages: 1 -->
<!--zoomable 492 -->

<svg id="main" version="1.1" xmlns="http://www.w3.org/2000/svg" xmlns:xlink="http://www.w3.org/1999/xlink" xml:space="preserve" onload="init(evt)">

<style type="text/css"><![CDATA[
.node, .edge {opacity: 0.7;}
.node.selected, .edge.selected {opacity: 1;}
.edge:hover path { stroke: red; }
.edge:hover polygon { stroke: red; fill: red; }
]]></style>

<defs>
  <circle id="rim" cx="0" cy="0" r="7"/>
  <circle id="rim2" cx="0" cy="0" r="3.5"/>
  <g id="zoomPlus">
    <use xlink:href="#rim" fill="#404040"><set attributeName="fill" to="#808080" begin="zoomplus.mouseover" end="zoomplus.mouseout"/></use>
    <path d="M-4,0h8M0,-4v8" fill="none" stroke="white" stroke-width="1.5" pointer-events="none"/>
  </g>
  <g id="zoomMin">
    <use xlink:href="#rim" fill="#404040"><set attributeName="fill" to="#808080" begin="zoomminus.mouseover" end="zoomminus.mouseout"/></use>
    <path d="M-4,0h8" fill="none" stroke="white" stroke-width="1.5" pointer-events="none"/>
  </g>
  <g id="arrowUp" transform="translate(30 24)">
    <use xlink:href="#rim"/>
    <path pointer-events="none" fill="none" stroke="white" stroke-width="1.5" d="M0,-3.0v7 M-2.5,-0.5L0,-3.0L2.5,-0.5"/>
  </g>
  <g id="arrowRight" transform="rotate(90) translate(36 -43)">
    <use xlink:href="#rim"/>
    <path pointer-events="none" fill="none" stroke="white" stroke-width="1.5" d="M0,-3.0v7 M-2.5,-0.5L0,-3.0L2.5,-0.5"/>
  </g>
  <g id="arrowDown" transform="rotate(180) translate(-30 -48)">
    <use xlink:href="#rim"/>
    <path pointer-events="none" fill="none" stroke="white" stroke-width="1.5" d="M0,-3.0v7 M-2.5,-0.5L0,-3.0L2.5,-0.5"/>
  </g>
  <g id="arrowLeft" transform="rotate(270) translate(-36 17)">
    <use xlink:href="#rim"/>
    <path pointer-events="none" fill="none" stroke="white" stroke-width="1.5" d="M0,-3.0v7 M-2.5,-0.5L0,-3.0L2.5,-0.5"/>
  </g>
  <g id="resetDef">
    <use xlink:href="#rim2" fill="#404040"><set attributeName="fill" to="#808080" begin="reset.mouseover" end="reset.mouseout"/></use>
  </g>
</defs>
<script type="application/ecmascript">
var viewWidth = 832;
var viewHeight = 492;
var sectionId = 'dynsection-0';
</script>
<script type="application/ecmascript" xlink:href="svg.min.js"/>
<svg id="graph" class="graph">
<g id="viewport">
<title>frontend/node_modules/@parcel/watcher/src/shared/BruteForceBackend.cc</title>
<!-- Node1 -->
<g id="Node000001" class="node">
<title>Node1</title>
<g id="a_Node000001"><a xlink:title=" ">
<polygon fill="#999999" stroke="#666666" points="250.5,-483.75 99.5,-483.75 99.5,-442 250.5,-442 250.5,-483.75"/>
<text xml:space="preserve" text-anchor="start" x="107.5" y="-470.25" font-family="Helvetica,sans-Serif" font-size="10.00">frontend/node_modules</text>
<text xml:space="preserve" text-anchor="start" x="107.5" y="-459" font-family="Helvetica,sans-Serif" font-size="10.00">/@parcel/watcher/src</text>
<text xml:space="preserve" text-anchor="middle" x="175" y="-447.75" font-family="Helvetica,sans-Serif" font-size="10.00">/shared/BruteForceBackend.cc</text>
</a>
</g>
</g>
<!-- Node2 -->
<g id="Node000002" class="node">
<title>Node2</title>
<g id="a_Node000002"><a xlink:title=" ">
<polygon fill="#e0e0e0" stroke="#999999" points="40,-74.5 0,-74.5 0,-55.25 40,-55.25 40,-74.5"/>
<text xml:space="preserve" text-anchor="middle" x="20" y="-61" font-family="Helvetica,sans-Serif" font-size="10.00">string</text>
</a>
</g>
</g>
<!-- Node1&#45;&gt;Node2 -->
<g id="edge1_Node000001_Node000002" class="edge">
<title>Node1&#45;&gt;Node2</title>
<g id="a_edge1_Node000001_Node000002"><a xlink:title=" ">
<path fill="none" stroke="#63b8ff" d="M99.19,-441.64C52.3,-424.02 1,-393.1 1,-342.12 1,-342.12 1,-342.12 1,-174.38 1,-143.04 8.78,-107.37 14.39,-85.75"/>
<polygon fill="#63b8ff" stroke="#63b8ff" points="17.72,-86.81 16.96,-76.25 10.97,-84.98 17.72,-86.81"/>
</a>
</g>
</g>
<!-- Node3 -->
<g id="Node000003" class="node">
<title>Node3</title>
<g id="a_Node000003"><a xlink:href="_dir_tree_8hh.html" target="_top" xlink:title=" ">
<polygon fill="white" stroke="#666666" points="270.38,-240.25 199.62,-240.25 199.62,-221 270.38,-221 270.38,-240.25"/>
<text xml:space="preserve" text-anchor="middle" x="235" y="-226.75" font-family="Helvetica,sans-Serif" font-size="10.00">../DirTree.hh</text>
</a>
</g>
</g>
<!-- Node1&#45;&gt;Node3 -->
<g id="edge2_Node000001_Node000003" class="edge">
<title>Node1&#45;&gt;Node3</title>
<g id="a_edge2_Node000001_Node000003"><a xlink:title=" ">
<path fill="none" stroke="#63b8ff" d="M180.22,-441.84C191.59,-398.23 218.46,-295.09 229.81,-251.56"/>
<polygon fill="#63b8ff" stroke="#63b8ff" points="233.16,-252.55 232.3,-241.99 226.39,-250.79 233.16,-252.55"/>
</a>
</g>
</g>
<!-- Node6 -->
<g id="Node000006" class="node">
<title>Node6</title>
<g id="a_Node000006"><a xlink:href="_event_8hh.html" target="_top" xlink:title=" ">
<polygon fill="white" stroke="#666666" points="307.5,-185 252.5,-185 252.5,-165.75 307.5,-165.75 307.5,-185"/>
<text xml:space="preserve" text-anchor="middle" x="280" y="-171.5" font-family="Helvetica,sans-Serif" font-size="10.00">Event.hh</text>
</a>
</g>
</g>
<!-- Node1&#45;&gt;Node6 -->
<g id="edge27_Node000001_Node000006" class="edge">
<title>Node1&#45;&gt;Node6</title>
<g id="a_edge27_Node000001_Node000006"><a xlink:title=" ">
<path fill="none" stroke="#63b8ff" d="M170.16,-441.7C160.79,-397.49 144.86,-290.48 191,-221 202.54,-203.63 222.96,-192.72 241.34,-186.04"/>
<polygon fill="#63b8ff" stroke="#63b8ff" points="242.29,-189.41 250.69,-182.97 240.1,-182.76 242.29,-189.41"/>
</a>
</g>
</g>
<!-- Node22 -->
<g id="Node000022" class="node">
<title>Node22</title>
<g id="a_Node000022"><a xlink:href="_brute_force_backend_8hh.html" target="_top" xlink:title=" ">
<polygon fill="white" stroke="#666666" points="385.88,-406 264.12,-406 264.12,-386.75 385.88,-386.75 385.88,-406"/>
<text xml:space="preserve" text-anchor="middle" x="325" y="-392.5" font-family="Helvetica,sans-Serif" font-size="10.00">./BruteForceBackend.hh</text>
</a>
</g>
</g>
<!-- Node1&#45;&gt;Node22 -->
<g id="edge28_Node000001_Node000022" class="edge">
<title>Node1&#45;&gt;Node22</title>
<g id="a_edge28_Node000001_Node000022"><a xlink:title=" ">
<path fill="none" stroke="#63b8ff" d="M222.05,-441.64C245.35,-431.62 272.86,-419.79 293.58,-410.89"/>
<polygon fill="#63b8ff" stroke="#63b8ff" points="294.83,-414.16 302.63,-406.99 292.06,-407.73 294.83,-414.16"/>
</a>
</g>
</g>
<!-- Node3&#45;&gt;Node2 -->
<g id="edge3_Node000003_Node000002" class="edge">
<title>Node3&#45;&gt;Node2</title>
<g id="a_edge3_Node000003_Node000002"><a xlink:title=" ">
<path fill="none" stroke="#63b8ff" d="M219.8,-220.59C205.25,-211.83 182.81,-197.99 164,-185 130.52,-161.87 122.38,-155.66 91,-129.75 72.33,-114.33 51.86,-95.72 37.72,-82.58"/>
<polygon fill="#63b8ff" stroke="#63b8ff" points="40.22,-80.13 30.52,-75.85 35.44,-85.24 40.22,-80.13"/>
</a>
</g>
</g>
<!-- Node4 -->
<g id="Node000004" class="node">
<title>Node4</title>
<g id="a_Node000004"><a xlink:title=" ">
<polygon fill="#e0e0e0" stroke="#999999" points="504.38,-185 421.62,-185 421.62,-165.75 504.38,-165.75 504.38,-185"/>
<text xml:space="preserve" text-anchor="middle" x="463" y="-171.5" font-family="Helvetica,sans-Serif" font-size="10.00">unordered_map</text>
</a>
</g>
</g>
<!-- Node3&#45;&gt;Node4 -->
<g id="edge4_Node000003_Node000004" class="edge">
<title>Node3&#45;&gt;Node4</title>
<g id="a_edge4_Node000003_Node000004"><a xlink:title=" ">
<path fill="none" stroke="#63b8ff" d="M270.62,-221.3C308.91,-212.36 370.05,-198.08 413.11,-188.03"/>
<polygon fill="#63b8ff" stroke="#63b8ff" points="413.78,-191.47 422.72,-185.78 412.19,-184.65 413.78,-191.47"/>
</a>
</g>
</g>
<!-- Node5 -->
<g id="Node000005" class="node">
<title>Node5</title>
<g id="a_Node000005"><a xlink:title=" ">
<polygon fill="#e0e0e0" stroke="#999999" points="109.62,-74.5 58.38,-74.5 58.38,-55.25 109.62,-55.25 109.62,-74.5"/>
<text xml:space="preserve" text-anchor="middle" x="84" y="-61" font-family="Helvetica,sans-Serif" font-size="10.00">memory</text>
</a>
</g>
</g>
<!-- Node3&#45;&gt;Node5 -->
<g id="edge5_Node000003_Node000005" class="edge">
<title>Node3&#45;&gt;Node5</title>
<g id="a_edge5_Node000003_Node000005"><a xlink:title=" ">
<path fill="none" stroke="#63b8ff" d="M225.12,-220.65C206.56,-203.61 165.49,-165.11 134,-129.75 120.71,-114.83 106.8,-96.84 97.03,-83.75"/>
<polygon fill="#63b8ff" stroke="#63b8ff" points="100.11,-82.02 91.35,-76.05 94.48,-86.18 100.11,-82.02"/>
</a>
</g>
</g>
<!-- Node3&#45;&gt;Node6 -->
<g id="edge6_Node000003_Node000006" class="edge">
<title>Node3&#45;&gt;Node6</title>
<g id="a_edge6_Node000003_Node000006"><a xlink:title=" ">
<path fill="none" stroke="#63b8ff" d="M242.43,-220.83C248.58,-213.55 257.51,-202.98 265.13,-193.98"/>
<polygon fill="#63b8ff" stroke="#63b8ff" points="267.65,-196.41 271.43,-186.52 262.3,-191.89 267.65,-196.41"/>
</a>
</g>
</g>
<!-- Node6&#45;&gt;Node2 -->
<g id="edge7_Node000006_Node000002" class="edge">
<title>Node6&#45;&gt;Node2</title>
<g id="a_edge7_Node000006_Node000002"><a xlink:title=" ">
<path fill="none" stroke="#63b8ff" d="M252.2,-167.77C222.35,-160.25 173.85,-146.77 134,-129.75 101.4,-115.83 66.13,-95.1 43.59,-81.07"/>
<polygon fill="#63b8ff" stroke="#63b8ff" points="45.5,-78.14 35.18,-75.76 41.77,-84.06 45.5,-78.14"/>
</a>
</g>
</g>
<!-- Node7 -->
<g id="Node000007" class="node">
<title>Node7</title>
<g id="a_Node000007"><a xlink:title=" ">
<polygon fill="#e0e0e0" stroke="#999999" points="415.62,-74.5 352.38,-74.5 352.38,-55.25 415.62,-55.25 415.62,-74.5"/>
<text xml:space="preserve" text-anchor="middle" x="384" y="-61" font-family="Helvetica,sans-Serif" font-size="10.00">node_api.h</text>
</a>
</g>
</g>
<!-- Node6&#45;&gt;Node7 -->
<g id="edge8_Node000006_Node000007" class="edge">
<title>Node6&#45;&gt;Node7</title>
<g id="a_edge8_Node000006_Node000007"><a xlink:title=" ">
<path fill="none" stroke="#63b8ff" d="M286.96,-165.36C296.91,-152.67 315.97,-129.02 334,-110.5 343.62,-100.62 355.04,-90.33 364.55,-82.12"/>
<polygon fill="#63b8ff" stroke="#63b8ff" points="366.77,-84.82 372.11,-75.68 362.23,-79.49 366.77,-84.82"/>
</a>
</g>
</g>
<!-- Node8 -->
<g id="Node000008" class="node">
<title>Node8</title>
<g id="a_Node000008"><a xlink:href="include_8h.html" target="_top" xlink:title=" ">
<polygon fill="white" stroke="#666666" points="287.12,-129.75 202.88,-129.75 202.88,-110.5 287.12,-110.5 287.12,-129.75"/>
<text xml:space="preserve" text-anchor="middle" x="245" y="-116.25" font-family="Helvetica,sans-Serif" font-size="10.00">wasm/include.h</text>
</a>
</g>
</g>
<!-- Node6&#45;&gt;Node8 -->
<g id="edge9_Node000006_Node000008" class="edge">
<title>Node6&#45;&gt;Node8</title>
<g id="a_edge9_Node000006_Node000008"><a xlink:title=" ">
<path fill="none" stroke="#63b8ff" d="M274.22,-165.58C269.59,-158.53 262.93,-148.4 257.13,-139.58"/>
<polygon fill="#63b8ff" stroke="#63b8ff" points="260.15,-137.81 251.74,-131.37 254.3,-141.65 260.15,-137.81"/>
</a>
</g>
</g>
<!-- Node9 -->
<g id="Node000009" class="node">
<title>Node9</title>
<g id="a_Node000009"><a xlink:href="napi_8h.html" target="_top" xlink:title=" ">
<polygon fill="white" stroke="#666666" points="185.12,-129.75 142.88,-129.75 142.88,-110.5 185.12,-110.5 185.12,-129.75"/>
<text xml:space="preserve" text-anchor="middle" x="164" y="-116.25" font-family="Helvetica,sans-Serif" font-size="10.00">napi.h</text>
</a>
</g>
</g>
<!-- Node6&#45;&gt;Node9 -->
<g id="edge10_Node000006_Node000009" class="edge">
<title>Node6&#45;&gt;Node9</title>
<g id="a_edge10_Node000006_Node000009"><a xlink:title=" ">
<path fill="none" stroke="#63b8ff" d="M260.32,-165.34C242.16,-157 214.92,-144.5 194.03,-134.91"/>
<polygon fill="#63b8ff" stroke="#63b8ff" points="195.7,-131.83 185.15,-130.83 192.78,-138.19 195.7,-131.83"/>
</a>
</g>
</g>
<!-- Node12 -->
<g id="Node000012" class="node">
<title>Node12</title>
<g id="a_Node000012"><a xlink:title=" ">
<polygon fill="#e0e0e0" stroke="#999999" points="553.5,-74.5 510.5,-74.5 510.5,-55.25 553.5,-55.25 553.5,-74.5"/>
<text xml:space="preserve" text-anchor="middle" x="532" y="-61" font-family="Helvetica,sans-Serif" font-size="10.00">mutex</text>
</a>
</g>
</g>
<!-- Node6&#45;&gt;Node12 -->
<g id="edge24_Node000006_Node000012" class="edge">
<title>Node6&#45;&gt;Node12</title>
<g id="a_edge24_Node000006_Node000012"><a xlink:title=" ">
<path fill="none" stroke="#63b8ff" d="M307.83,-171.03C343.32,-165.93 405.86,-154.12 454,-129.75 477.79,-117.7 500.9,-97.37 515.7,-82.88"/>
<polygon fill="#63b8ff" stroke="#63b8ff" points="518.15,-85.38 522.71,-75.81 513.19,-80.45 518.15,-85.38"/>
</a>
</g>
</g>
<!-- Node20 -->
<g id="Node000020" class="node">
<title>Node20</title>
<g id="a_Node000020"><a xlink:title=" ">
<polygon fill="#e0e0e0" stroke="#999999" points="377.38,-129.75 342.62,-129.75 342.62,-110.5 377.38,-110.5 377.38,-129.75"/>
<text xml:space="preserve" text-anchor="middle" x="360" y="-116.25" font-family="Helvetica,sans-Serif" font-size="10.00">map</text>
</a>
</g>
</g>
<!-- Node6&#45;&gt;Node20 -->
<g id="edge25_Node000006_Node000020" class="edge">
<title>Node6&#45;&gt;Node20</title>
<g id="a_edge25_Node000006_Node000020"><a xlink:title=" ">
<path fill="none" stroke="#63b8ff" d="M293.57,-165.34C305.41,-157.46 322.84,-145.86 336.87,-136.52"/>
<polygon fill="#63b8ff" stroke="#63b8ff" points="338.72,-139.5 345.1,-131.04 334.84,-133.67 338.72,-139.5"/>
</a>
</g>
</g>
<!-- Node21 -->
<g id="Node000021" class="node">
<title>Node21</title>
<g id="a_Node000021"><a xlink:title=" ">
<polygon fill="#e0e0e0" stroke="#999999" points="444.88,-129.75 395.12,-129.75 395.12,-110.5 444.88,-110.5 444.88,-129.75"/>
<text xml:space="preserve" text-anchor="middle" x="420" y="-116.25" font-family="Helvetica,sans-Serif" font-size="10.00">optional</text>
</a>
</g>
</g>
<!-- Node6&#45;&gt;Node21 -->
<g id="edge26_Node000006_Node000021" class="edge">
<title>Node6&#45;&gt;Node21</title>
<g id="a_edge26_Node000006_Node000021"><a xlink:title=" ">
<path fill="none" stroke="#63b8ff" d="M303.75,-165.34C326.17,-156.81 360.06,-143.92 385.47,-134.26"/>
<polygon fill="#63b8ff" stroke="#63b8ff" points="386.62,-137.57 394.72,-130.74 384.13,-131.02 386.62,-137.57"/>
</a>
</g>
</g>
<!-- Node9&#45;&gt;Node2 -->
<g id="edge16_Node000009_Node000002" class="edge">
<title>Node9&#45;&gt;Node2</title>
<g id="a_edge16_Node000009_Node000002"><a xlink:title=" ">
<path fill="none" stroke="#63b8ff" d="M142.44,-111.15C118.17,-102.18 78.52,-87.52 50.95,-77.32"/>
<polygon fill="#63b8ff" stroke="#63b8ff" points="52.32,-74.1 41.73,-73.91 49.89,-80.66 52.32,-74.1"/>
</a>
</g>
</g>
<!-- Node9&#45;&gt;Node5 -->
<g id="edge14_Node000009_Node000005" class="edge">
<title>Node9&#45;&gt;Node5</title>
<g id="a_edge14_Node000009_Node000005"><a xlink:title=" ">
<path fill="none" stroke="#63b8ff" d="M150.43,-110.09C138.59,-102.21 121.16,-90.61 107.13,-81.27"/>
<polygon fill="#63b8ff" stroke="#63b8ff" points="109.16,-78.42 98.9,-75.79 105.28,-84.25 109.16,-78.42"/>
</a>
</g>
</g>
<!-- Node9&#45;&gt;Node7 -->
<g id="edge11_Node000009_Node000007" class="edge">
<title>Node9&#45;&gt;Node7</title>
<g id="a_edge11_Node000009_Node000007"><a xlink:title=" ">
<path fill="none" stroke="#63b8ff" d="M185.6,-112.78C188.42,-111.99 191.27,-111.21 194,-110.5 244.28,-97.38 302.51,-83.96 341.11,-75.31"/>
<polygon fill="#63b8ff" stroke="#63b8ff" points="341.47,-78.82 350.47,-73.23 339.95,-71.99 341.47,-78.82"/>
</a>
</g>
</g>
<!-- Node10 -->
<g id="Node000010" class="node">
<title>Node10</title>
<g id="a_Node000010"><a xlink:title=" ">
<polygon fill="#e0e0e0" stroke="#999999" points="492,-74.5 434,-74.5 434,-55.25 492,-55.25 492,-74.5"/>
<text xml:space="preserve" text-anchor="middle" x="463" y="-61" font-family="Helvetica,sans-Serif" font-size="10.00">functional</text>
</a>
</g>
</g>
<!-- Node9&#45;&gt;Node10 -->
<g id="edge12_Node000009_Node000010" class="edge">
<title>Node9&#45;&gt;Node10</title>
<g id="a_edge12_Node000009_Node000010"><a xlink:title=" ">
<path fill="none" stroke="#63b8ff" d="M185.55,-112.58C188.38,-111.82 191.25,-111.11 194,-110.5 291.99,-88.87 320.98,-93.64 422.52,-74.85"/>
<polygon fill="#63b8ff" stroke="#63b8ff" points="422.92,-78.33 432.1,-73.04 421.62,-71.46 422.92,-78.33"/>
</a>
</g>
</g>
<!-- Node11 -->
<g id="Node000011" class="node">
<title>Node11</title>
<g id="a_Node000011"><a xlink:title=" ">
<polygon fill="#e0e0e0" stroke="#999999" points="200.12,-74.5 127.88,-74.5 127.88,-55.25 200.12,-55.25 200.12,-74.5"/>
<text xml:space="preserve" text-anchor="middle" x="164" y="-61" font-family="Helvetica,sans-Serif" font-size="10.00">initializer_list</text>
</a>
</g>
</g>
<!-- Node9&#45;&gt;Node11 -->
<g id="edge13_Node000009_Node000011" class="edge">
<title>Node9&#45;&gt;Node11</title>
<g id="a_edge13_Node000009_Node000011"><a xlink:title=" ">
<path fill="none" stroke="#63b8ff" d="M164,-110.33C164,-103.82 164,-94.67 164,-86.37"/>
<polygon fill="#63b8ff" stroke="#63b8ff" points="167.5,-86.37 164,-76.37 160.5,-86.37 167.5,-86.37"/>
</a>
</g>
</g>
<!-- Node9&#45;&gt;Node12 -->
<g id="edge15_Node000009_Node000012" class="edge">
<title>Node9&#45;&gt;Node12</title>
<g id="a_edge15_Node000009_Node000012"><a xlink:title=" ">
<path fill="none" stroke="#63b8ff" d="M185.53,-112.48C188.36,-111.74 191.24,-111.06 194,-110.5 325.13,-84.14 364.15,-100.1 498.92,-74.59"/>
<polygon fill="#63b8ff" stroke="#63b8ff" points="499.45,-78.05 508.6,-72.71 498.12,-71.18 499.45,-78.05"/>
</a>
</g>
</g>
<!-- Node13 -->
<g id="Node000013" class="node">
<title>Node13</title>
<g id="a_Node000013"><a xlink:title=" ">
<polygon fill="#e0e0e0" stroke="#999999" points="261.5,-74.5 218.5,-74.5 218.5,-55.25 261.5,-55.25 261.5,-74.5"/>
<text xml:space="preserve" text-anchor="middle" x="240" y="-61" font-family="Helvetica,sans-Serif" font-size="10.00">vector</text>
</a>
</g>
</g>
<!-- Node9&#45;&gt;Node13 -->
<g id="edge17_Node000009_Node000013" class="edge">
<title>Node9&#45;&gt;Node13</title>
<g id="a_edge17_Node000009_Node000013"><a xlink:title=" ">
<path fill="none" stroke="#63b8ff" d="M176.89,-110.09C188.03,-102.29 204.37,-90.84 217.64,-81.54"/>
<polygon fill="#63b8ff" stroke="#63b8ff" points="219.62,-84.43 225.8,-75.82 215.61,-78.69 219.62,-84.43"/>
</a>
</g>
</g>
<!-- Node14 -->
<g id="Node000014" class="node">
<title>Node14</title>
<g id="a_Node000014"><a xlink:href="napi-inl_8h.html" target="_top" xlink:title=" ">
<polygon fill="white" stroke="#666666" points="334.5,-74.5 279.5,-74.5 279.5,-55.25 334.5,-55.25 334.5,-74.5"/>
<text xml:space="preserve" text-anchor="middle" x="307" y="-61" font-family="Helvetica,sans-Serif" font-size="10.00">napi&#45;inl.h</text>
</a>
</g>
</g>
<!-- Node9&#45;&gt;Node14 -->
<g id="edge18_Node000009_Node000014" class="edge">
<title>Node9&#45;&gt;Node14</title>
<g id="a_edge18_Node000009_Node000014"><a xlink:title=" ">
<path fill="none" stroke="#63b8ff" d="M185.41,-111.15C208.28,-102.64 244.9,-89 271.98,-78.92"/>
<polygon fill="#63b8ff" stroke="#63b8ff" points="273,-82.27 281.15,-75.5 270.55,-75.71 273,-82.27"/>
</a>
</g>
</g>
<!-- Node15 -->
<g id="Node000015" class="node">
<title>Node15</title>
<g id="a_Node000015"><a xlink:title=" ">
<polygon fill="#e0e0e0" stroke="#999999" points="193.88,-19.25 138.12,-19.25 138.12,0 193.88,0 193.88,-19.25"/>
<text xml:space="preserve" text-anchor="middle" x="166" y="-5.75" font-family="Helvetica,sans-Serif" font-size="10.00">algorithm</text>
</a>
</g>
</g>
<!-- Node14&#45;&gt;Node15 -->
<g id="edge19_Node000014_Node000015" class="edge">
<title>Node14&#45;&gt;Node15</title>
<g id="a_edge19_Node000014_Node000015"><a xlink:title=" ">
<path fill="none" stroke="#63b8ff" d="M283.08,-54.84C260.5,-46.31 226.36,-33.42 200.77,-23.76"/>
<polygon fill="#63b8ff" stroke="#63b8ff" points="202.04,-20.5 191.45,-20.24 199.57,-27.04 202.04,-20.5"/>
</a>
</g>
</g>
<!-- Node16 -->
<g id="Node000016" class="node">
<title>Node16</title>
<g id="a_Node000016"><a xlink:title=" ">
<polygon fill="#e0e0e0" stroke="#999999" points="257.62,-19.25 212.38,-19.25 212.38,0 257.62,0 257.62,-19.25"/>
<text xml:space="preserve" text-anchor="middle" x="235" y="-5.75" font-family="Helvetica,sans-Serif" font-size="10.00">cstring</text>
</a>
</g>
</g>
<!-- Node14&#45;&gt;Node16 -->
<g id="edge20_Node000014_Node000016" class="edge">
<title>Node14&#45;&gt;Node16</title>
<g id="a_edge20_Node000014_Node000016"><a xlink:title=" ">
<path fill="none" stroke="#63b8ff" d="M294.79,-54.84C284.17,-46.99 268.56,-35.45 255.96,-26.12"/>
<polygon fill="#63b8ff" stroke="#63b8ff" points="258.37,-23.56 248.25,-20.42 254.21,-29.19 258.37,-23.56"/>
</a>
</g>
</g>
<!-- Node17 -->
<g id="Node000017" class="node">
<title>Node17</title>
<g id="a_Node000017"><a xlink:title=" ">
<polygon fill="#e0e0e0" stroke="#999999" points="337.88,-19.25 276.12,-19.25 276.12,0 337.88,0 337.88,-19.25"/>
<text xml:space="preserve" text-anchor="middle" x="307" y="-5.75" font-family="Helvetica,sans-Serif" font-size="10.00">type_traits</text>
</a>
</g>
</g>
<!-- Node14&#45;&gt;Node17 -->
<g id="edge21_Node000014_Node000017" class="edge">
<title>Node14&#45;&gt;Node17</title>
<g id="a_edge21_Node000014_Node000017"><a xlink:title=" ">
<path fill="none" stroke="#63b8ff" d="M307,-55.08C307,-48.57 307,-39.42 307,-31.12"/>
<polygon fill="#63b8ff" stroke="#63b8ff" points="310.5,-31.12 307,-21.12 303.5,-31.12 310.5,-31.12"/>
</a>
</g>
</g>
<!-- Node18 -->
<g id="Node000018" class="node">
<title>Node18</title>
<g id="a_Node000018"><a xlink:title=" ">
<polygon fill="#e0e0e0" stroke="#999999" points="395.62,-19.25 356.38,-19.25 356.38,0 395.62,0 395.62,-19.25"/>
<text xml:space="preserve" text-anchor="middle" x="376" y="-5.75" font-family="Helvetica,sans-Serif" font-size="10.00">utility</text>
</a>
</g>
</g>
<!-- Node14&#45;&gt;Node18 -->
<g id="edge22_Node000014_Node000018" class="edge">
<title>Node14&#45;&gt;Node18</title>
<g id="a_edge22_Node000014_Node000018"><a xlink:title=" ">
<path fill="none" stroke="#63b8ff" d="M318.7,-54.84C328.78,-47.07 343.54,-35.67 355.56,-26.4"/>
<polygon fill="#63b8ff" stroke="#63b8ff" points="357.49,-29.33 363.27,-20.45 353.21,-23.79 357.49,-29.33"/>
</a>
</g>
</g>
<!-- Node19 -->
<g id="Node000019" class="node">
<title>Node19</title>
<g id="a_Node000019"><a xlink:href="napi-inl_8deprecated_8h.html" target="_top" xlink:title=" ">
<polygon fill="white" stroke="#666666" points="520,-19.25 414,-19.25 414,0 520,0 520,-19.25"/>
<text xml:space="preserve" text-anchor="middle" x="467" y="-5.75" font-family="Helvetica,sans-Serif" font-size="10.00">napi&#45;inl.deprecated.h</text>
</a>
</g>
</g>
<!-- Node14&#45;&gt;Node19 -->
<g id="edge23_Node000014_Node000019" class="edge">
<title>Node14&#45;&gt;Node19</title>
<g id="a_edge23_Node000014_Node000019"><a xlink:title=" ">
<path fill="none" stroke="#63b8ff" d="M334.14,-54.84C360.23,-46.16 399.9,-32.96 429.1,-23.24"/>
<polygon fill="#63b8ff" stroke="#63b8ff" points="429.91,-26.66 438.29,-20.18 427.7,-20.02 429.91,-26.66"/>
</a>
</g>
</g>
<!-- Node22&#45;&gt;Node3 -->
<g id="edge51_Node000022_Node000003" class="edge">
<title>Node22&#45;&gt;Node3</title>
<g id="a_edge51_Node000022_Node000003"><a xlink:title=" ">
<path fill="none" stroke="#63b8ff" d="M320.16,-386.57C306.06,-360.92 264.78,-285.8 245.34,-250.44"/>
<polygon fill="#63b8ff" stroke="#63b8ff" points="248.48,-248.88 240.59,-241.8 242.34,-252.25 248.48,-248.88"/>
</a>
</g>
</g>
<!-- Node23 -->
<g id="Node000023" class="node">
<title>Node23</title>
<g id="a_Node000023"><a xlink:href="_backend_8hh.html" target="_top" xlink:title=" ">
<polygon fill="white" stroke="#666666" points="523.38,-350.75 446.62,-350.75 446.62,-331.5 523.38,-331.5 523.38,-350.75"/>
<text xml:space="preserve" text-anchor="middle" x="485" y="-337.25" font-family="Helvetica,sans-Serif" font-size="10.00">../Backend.hh</text>
</a>
</g>
</g>
<!-- Node22&#45;&gt;Node23 -->
<g id="edge29_Node000022_Node000023" class="edge">
<title>Node22&#45;&gt;Node23</title>
<g id="a_edge29_Node000022_Node000023"><a xlink:title=" ">
<path fill="none" stroke="#63b8ff" d="M352.14,-386.34C378.23,-377.66 417.9,-364.46 447.1,-354.74"/>
<polygon fill="#63b8ff" stroke="#63b8ff" points="447.91,-358.16 456.29,-351.68 445.7,-351.52 447.91,-358.16"/>
</a>
</g>
</g>
<!-- Node24 -->
<g id="Node000024" class="node">
<title>Node24</title>
<g id="a_Node000024"><a xlink:href="_watcher_8hh.html" target="_top" xlink:title=" ">
<polygon fill="white" stroke="#666666" points="517.38,-295.5 452.62,-295.5 452.62,-276.25 517.38,-276.25 517.38,-295.5"/>
<text xml:space="preserve" text-anchor="middle" x="485" y="-282" font-family="Helvetica,sans-Serif" font-size="10.00">Watcher.hh</text>
</a>
</g>
</g>
<!-- Node22&#45;&gt;Node24 -->
<g id="edge52_Node000022_Node000024" class="edge">
<title>Node22&#45;&gt;Node24</title>
<g id="a_edge52_Node000022_Node000024"><a xlink:title=" ">
<path fill="none" stroke="#63b8ff" d="M338.37,-386.31C365.73,-367.76 428.39,-325.26 462.27,-302.29"/>
<polygon fill="#63b8ff" stroke="#63b8ff" points="464.22,-305.2 470.53,-296.69 460.29,-299.4 464.22,-305.2"/>
</a>
</g>
</g>
<!-- Node23&#45;&gt;Node6 -->
<g id="edge30_Node000023_Node000006" class="edge">
<title>Node23&#45;&gt;Node6</title>
<g id="a_edge30_Node000023_Node000006"><a xlink:title=" ">
<path fill="none" stroke="#63b8ff" d="M466.6,-331.21C435.68,-315.65 372.35,-281.27 328,-240.25 313.54,-226.87 300.35,-208.68 291.47,-195.13"/>
<polygon fill="#63b8ff" stroke="#63b8ff" points="294.45,-193.29 286.14,-186.72 288.54,-197.04 294.45,-193.29"/>
</a>
</g>
</g>
<!-- Node23&#45;&gt;Node24 -->
<g id="edge31_Node000023_Node000024" class="edge">
<title>Node23&#45;&gt;Node24</title>
<g id="a_edge31_Node000023_Node000024"><a xlink:title=" ">
<path fill="none" stroke="#63b8ff" d="M485,-331.33C485,-324.82 485,-315.67 485,-307.37"/>
<polygon fill="#63b8ff" stroke="#63b8ff" points="488.5,-307.37 485,-297.37 481.5,-307.37 488.5,-307.37"/>
</a>
</g>
</g>
<!-- Node31 -->
<g id="Node000031" class="node">
<title>Node31</title>
<g id="a_Node000031"><a xlink:title=" ">
<polygon fill="#e0e0e0" stroke="#999999" points="823.5,-185 780.5,-185 780.5,-165.75 823.5,-165.75 823.5,-185"/>
<text xml:space="preserve" text-anchor="middle" x="802" y="-171.5" font-family="Helvetica,sans-Serif" font-size="10.00">thread</text>
</a>
</g>
</g>
<!-- Node23&#45;&gt;Node31 -->
<g id="edge50_Node000023_Node000031" class="edge">
<title>Node23&#45;&gt;Node31</title>
<g id="a_edge50_Node000023_Node000031"><a xlink:title=" ">
<path fill="none" stroke="#63b8ff" d="M523.51,-339.09C568.03,-336.35 642.21,-326.97 697,-295.5 740.07,-270.76 774.53,-221.84 791.16,-195.03"/>
<polygon fill="#63b8ff" stroke="#63b8ff" points="794.06,-196.99 796.21,-186.62 788.06,-193.39 794.06,-196.99"/>
</a>
</g>
</g>
<!-- Node32 -->
<g id="Node000032" class="node">
<title>Node32</title>
<g id="a_Node000032"><a xlink:href="_signal_8hh.html" target="_top" xlink:title=" ">
<polygon fill="white" stroke="#666666" points="758.25,-185 701.75,-185 701.75,-165.75 758.25,-165.75 758.25,-185"/>
<text xml:space="preserve" text-anchor="middle" x="730" y="-171.5" font-family="Helvetica,sans-Serif" font-size="10.00">Signal.hh</text>
</a>
</g>
</g>
<!-- Node23&#45;&gt;Node32 -->
<g id="edge49_Node000023_Node000032" class="edge">
<title>Node23&#45;&gt;Node32</title>
<g id="a_edge49_Node000023_Node000032"><a xlink:title=" ">
<path fill="none" stroke="#63b8ff" d="M523.82,-337.2C580.35,-330.61 683.62,-309.25 730,-240.25 738.62,-227.43 737.86,-209.64 735.37,-196.09"/>
<polygon fill="#63b8ff" stroke="#63b8ff" points="738.83,-195.53 733.16,-186.58 732.01,-197.11 738.83,-195.53"/>
</a>
</g>
</g>
<!-- Node24&#45;&gt;Node3 -->
<g id="edge47_Node000024_Node000003" class="edge">
<title>Node24&#45;&gt;Node3</title>
<g id="a_edge47_Node000024_Node000003"><a xlink:title=" ">
<path fill="none" stroke="#63b8ff" d="M452.32,-277.91C408.73,-268.63 331.3,-252.14 281.6,-241.55"/>
<polygon fill="#63b8ff" stroke="#63b8ff" points="282.51,-238.17 272,-239.51 281.05,-245.01 282.51,-238.17"/>
</a>
</g>
</g>
<!-- Node24&#45;&gt;Node6 -->
<g id="edge39_Node000024_Node000006" class="edge">
<title>Node24&#45;&gt;Node6</title>
<g id="a_edge39_Node000024_Node000006"><a xlink:title=" ">
<path fill="none" stroke="#63b8ff" d="M452.14,-276.38C426.16,-268.92 389.49,-256.68 360,-240.25 336.38,-227.09 312.58,-207.01 297.15,-192.89"/>
<polygon fill="#63b8ff" stroke="#63b8ff" points="299.9,-190.67 290.21,-186.39 295.12,-195.78 299.9,-190.67"/>
</a>
</g>
</g>
<!-- Node24&#45;&gt;Node7 -->
<g id="edge35_Node000024_Node000007" class="edge">
<title>Node24&#45;&gt;Node7</title>
<g id="a_edge35_Node000024_Node000007"><a xlink:title=" ">
<path fill="none" stroke="#63b8ff" d="M463.08,-275.77C432.23,-261.58 377.28,-230.97 355,-185 326.44,-126.07 437.73,-152.98 454,-129.75 467.98,-109.8 442.36,-91.55 418.28,-79.72"/>
<polygon fill="#63b8ff" stroke="#63b8ff" points="419.75,-76.54 409.2,-75.54 416.82,-82.9 419.75,-76.54"/>
</a>
</g>
</g>
<!-- Node25 -->
<g id="Node000025" class="node">
<title>Node25</title>
<g id="a_Node000025"><a xlink:title=" ">
<polygon fill="#e0e0e0" stroke="#999999" points="777,-129.75 683,-129.75 683,-110.5 777,-110.5 777,-129.75"/>
<text xml:space="preserve" text-anchor="middle" x="730" y="-116.25" font-family="Helvetica,sans-Serif" font-size="10.00">condition_variable</text>
</a>
</g>
</g>
<!-- Node24&#45;&gt;Node25 -->
<g id="edge32_Node000024_Node000025" class="edge">
<title>Node24&#45;&gt;Node25</title>
<g id="a_edge32_Node000024_Node000025"><a xlink:title=" ">
<path fill="none" stroke="#63b8ff" d="M496.16,-275.85C512.02,-263.15 542.13,-239.49 569,-221 615.74,-188.84 672.59,-154.67 704.71,-135.8"/>
<polygon fill="#63b8ff" stroke="#63b8ff" points="706.43,-138.85 713.29,-130.78 702.89,-132.81 706.43,-138.85"/>
</a>
</g>
</g>
<!-- Node26 -->
<g id="Node000026" class="node">
<title>Node26</title>
<g id="a_Node000026"><a xlink:title=" ">
<polygon fill="#e0e0e0" stroke="#999999" points="599.75,-185 522.25,-185 522.25,-165.75 599.75,-165.75 599.75,-185"/>
<text xml:space="preserve" text-anchor="middle" x="561" y="-171.5" font-family="Helvetica,sans-Serif" font-size="10.00">unordered_set</text>
</a>
</g>
</g>
<!-- Node24&#45;&gt;Node26 -->
<g id="edge33_Node000024_Node000026" class="edge">
<title>Node24&#45;&gt;Node26</title>
<g id="a_edge33_Node000024_Node000026"><a xlink:title=" ">
<path fill="none" stroke="#63b8ff" d="M491.22,-276C503.63,-258.27 531.71,-218.19 548.21,-194.63"/>
<polygon fill="#63b8ff" stroke="#63b8ff" points="550.96,-196.81 553.83,-186.62 545.22,-192.8 550.96,-196.81"/>
</a>
</g>
</g>
<!-- Node27 -->
<g id="Node000027" class="node">
<title>Node27</title>
<g id="a_Node000027"><a xlink:title=" ">
<polygon fill="#e0e0e0" stroke="#999999" points="607.75,-240.25 578.25,-240.25 578.25,-221 607.75,-221 607.75,-240.25"/>
<text xml:space="preserve" text-anchor="middle" x="593" y="-226.75" font-family="Helvetica,sans-Serif" font-size="10.00">set</text>
</a>
</g>
</g>
<!-- Node24&#45;&gt;Node27 -->
<g id="edge34_Node000024_Node000027" class="edge">
<title>Node24&#45;&gt;Node27</title>
<g id="a_edge34_Node000024_Node000027"><a xlink:title=" ">
<path fill="none" stroke="#63b8ff" d="M503.32,-275.84C521.09,-267.08 548.2,-253.71 567.96,-243.97"/>
<polygon fill="#63b8ff" stroke="#63b8ff" points="569.29,-247.22 576.72,-239.65 566.2,-240.94 569.29,-247.22"/>
</a>
</g>
</g>
<!-- Node28 -->
<g id="Node000028" class="node">
<title>Node28</title>
<g id="a_Node000028"><a xlink:href="_glob_8hh.html" target="_top" xlink:title=" ">
<polygon fill="white" stroke="#666666" points="483.88,-240.25 434.12,-240.25 434.12,-221 483.88,-221 483.88,-240.25"/>
<text xml:space="preserve" text-anchor="middle" x="459" y="-226.75" font-family="Helvetica,sans-Serif" font-size="10.00">Glob.hh</text>
</a>
</g>
</g>
<!-- Node24&#45;&gt;Node28 -->
<g id="edge36_Node000024_Node000028" class="edge">
<title>Node24&#45;&gt;Node28</title>
<g id="a_edge36_Node000024_Node000028"><a xlink:title=" ">
<path fill="none" stroke="#63b8ff" d="M480.71,-276.08C477.38,-269.26 472.64,-259.56 468.44,-250.95"/>
<polygon fill="#63b8ff" stroke="#63b8ff" points="471.58,-249.42 464.05,-241.97 465.29,-252.49 471.58,-249.42"/>
</a>
</g>
</g>
<!-- Node30 -->
<g id="Node000030" class="node">
<title>Node30</title>
<g id="a_Node000030"><a xlink:href="_debounce_8hh.html" target="_top" xlink:title=" ">
<polygon fill="white" stroke="#666666" points="699.88,-240.25 626.12,-240.25 626.12,-221 699.88,-221 699.88,-240.25"/>
<text xml:space="preserve" text-anchor="middle" x="663" y="-226.75" font-family="Helvetica,sans-Serif" font-size="10.00">Debounce.hh</text>
</a>
</g>
</g>
<!-- Node24&#45;&gt;Node30 -->
<g id="edge40_Node000024_Node000030" class="edge">
<title>Node24&#45;&gt;Node30</title>
<g id="a_edge40_Node000024_Node000030"><a xlink:title=" ">
<path fill="none" stroke="#63b8ff" d="M515.2,-275.84C544.48,-267.08 589.12,-253.73 621.69,-243.98"/>
<polygon fill="#63b8ff" stroke="#63b8ff" points="622.63,-247.36 631.21,-241.14 620.62,-240.65 622.63,-247.36"/>
</a>
</g>
</g>
<!-- Node24&#45;&gt;Node32 -->
<g id="edge48_Node000024_Node000032" class="edge">
<title>Node24&#45;&gt;Node32</title>
<g id="a_edge48_Node000024_Node000032"><a xlink:title=" ">
<path fill="none" stroke="#63b8ff" d="M517.67,-282.37C572.8,-277.51 681.02,-265.03 709,-240.25 721.44,-229.23 726.53,-210.73 728.61,-196.46"/>
<polygon fill="#63b8ff" stroke="#63b8ff" points="732.06,-197.12 729.61,-186.82 725.1,-196.4 732.06,-197.12"/>
</a>
</g>
</g>
<!-- Node28&#45;&gt;Node26 -->
<g id="edge37_Node000028_Node000026" class="edge">
<title>Node28&#45;&gt;Node26</title>
<g id="a_edge37_Node000028_Node000026"><a xlink:title=" ">
<path fill="none" stroke="#63b8ff" d="M476.3,-220.59C491.98,-212.41 515.35,-200.21 533.58,-190.69"/>
<polygon fill="#63b8ff" stroke="#63b8ff" points="535.03,-193.88 542.27,-186.15 531.79,-187.68 535.03,-193.88"/>
</a>
</g>
</g>
<!-- Node29 -->
<g id="Node000029" class="node">
<title>Node29</title>
<g id="a_Node000029"><a xlink:title=" ">
<polygon fill="#e0e0e0" stroke="#999999" points="404,-185 364,-185 364,-165.75 404,-165.75 404,-185"/>
<text xml:space="preserve" text-anchor="middle" x="384" y="-171.5" font-family="Helvetica,sans-Serif" font-size="10.00">regex</text>
</a>
</g>
</g>
<!-- Node28&#45;&gt;Node29 -->
<g id="edge38_Node000028_Node000029" class="edge">
<title>Node28&#45;&gt;Node29</title>
<g id="a_edge38_Node000028_Node000029"><a xlink:title=" ">
<path fill="none" stroke="#63b8ff" d="M446.28,-220.59C435.29,-212.79 419.16,-201.34 406.07,-192.04"/>
<polygon fill="#63b8ff" stroke="#63b8ff" points="408.2,-189.26 398.02,-186.33 404.15,-194.97 408.2,-189.26"/>
</a>
</g>
</g>
<!-- Node30&#45;&gt;Node4 -->
<g id="edge42_Node000030_Node000004" class="edge">
<title>Node30&#45;&gt;Node4</title>
<g id="a_edge42_Node000030_Node000004"><a xlink:title=" ">
<path fill="none" stroke="#63b8ff" d="M629.07,-220.59C595.74,-211.72 544.69,-198.12 507.99,-188.35"/>
<polygon fill="#63b8ff" stroke="#63b8ff" points="509.12,-185.03 498.56,-185.84 507.32,-191.8 509.12,-185.03"/>
</a>
</g>
</g>
<!-- Node30&#45;&gt;Node10 -->
<g id="edge43_Node000030_Node000010" class="edge">
<title>Node30&#45;&gt;Node10</title>
<g id="a_edge43_Node000030_Node000010"><a xlink:title=" ">
<path fill="none" stroke="#63b8ff" d="M656.68,-220.71C647.22,-207.73 628.4,-183.27 609,-165.75 570.46,-130.95 519.15,-98.56 488.74,-80.57"/>
<polygon fill="#63b8ff" stroke="#63b8ff" points="490.62,-77.61 480.22,-75.59 487.09,-83.65 490.62,-77.61"/>
</a>
</g>
</g>
<!-- Node30&#45;&gt;Node31 -->
<g id="edge41_Node000030_Node000031" class="edge">
<title>Node30&#45;&gt;Node31</title>
<g id="a_edge41_Node000030_Node000031"><a xlink:title=" ">
<path fill="none" stroke="#63b8ff" d="M686.58,-220.59C709.38,-211.86 744.13,-198.54 769.54,-188.81"/>
<polygon fill="#63b8ff" stroke="#63b8ff" points="770.64,-192.14 778.73,-185.29 768.14,-185.6 770.64,-192.14"/>
</a>
</g>
</g>
<!-- Node30&#45;&gt;Node32 -->
<g id="edge44_Node000030_Node000032" class="edge">
<title>Node30&#45;&gt;Node32</title>
<g id="a_edge44_Node000030_Node000032"><a xlink:title=" ">
<path fill="none" stroke="#63b8ff" d="M674.37,-220.59C684.05,-212.9 698.2,-201.65 709.81,-192.43"/>
<polygon fill="#63b8ff" stroke="#63b8ff" points="711.97,-195.18 717.62,-186.22 707.61,-189.7 711.97,-195.18"/>
</a>
</g>
</g>
<!-- Node32&#45;&gt;Node12 -->
<g id="edge45_Node000032_Node000012" class="edge">
<title>Node32&#45;&gt;Node12</title>
<g id="a_edge45_Node000032_Node000012"><a xlink:title=" ">
<path fill="none" stroke="#63b8ff" d="M747.88,-165.38C769.96,-153.11 802.69,-130.38 786,-110.5 758.14,-77.32 627.25,-68.8 565.02,-66.62"/>
<polygon fill="#63b8ff" stroke="#63b8ff" points="565.51,-63.14 555.4,-66.32 565.29,-70.13 565.51,-63.14"/>
</a>
</g>
</g>
<!-- Node32&#45;&gt;Node25 -->
<g id="edge46_Node000032_Node000025" class="edge">
<title>Node32&#45;&gt;Node25</title>
<g id="a_edge46_Node000032_Node000025"><a xlink:title=" ">
<path fill="none" stroke="#63b8ff" d="M730,-165.58C730,-159.07 730,-149.92 730,-141.62"/>
<polygon fill="#63b8ff" stroke="#63b8ff" points="733.5,-141.62 730,-131.62 726.5,-141.62 733.5,-141.62"/>
</a>
</g>
</g>
</g>
</svg>

<g id="navigator" transform="translate(0 0)" fill="#404254">
  <rect fill="#f2f5e9" fill-opacity="0.5" stroke="#606060" stroke-width=".5" x="0" y="0" width="60" height="60"/>
  <use id="zoomplus" xlink:href="#zoomPlus" x="17" y="9" onmousedown="handleZoom(evt,'in')"/>
  <use id="zoomminus" xlink:href="#zoomMin" x="42" y="9" onmousedown="handleZoom(evt,'out')"/>
  <use id="reset" xlink:href="#resetDef" x="30" y="36" onmousedown="handleReset()"/>
   <use id="arrowup" xlink:href="#arrowUp" x="0" y="0" onmousedown="handlePan(0,-1)"/>
  <use id="arrowright" xlink:href="#arrowRight" x="0" y="0" onmousedown="handlePan(1,0)"/>
  <use id="arrowdown" xlink:href="#arrowDown" x="0" y="0" onmousedown="handlePan(0,1)"/>
  <use id="arrowleft" xlink:href="#arrowLeft" x="0" y="0" onmousedown="handlePan(-1,0)"/>
</g>
<svg viewBox="0 0 15 15" width="100%" height="30px" preserveAspectRatio="xMaxYMin meet">
 <g id="arrow_out" transform="scale(0.3 0.3)">
  <a xlink:href="_brute_force_backend_8cc__incl_org.svg" target="_base">
   <rect id="button" ry="5" rx="5" y="6" x="6" height="38" width="38"
        fill="#f2f5e9" fill-opacity="0.5" stroke="#606060" stroke-width="1.0"/>
   <path id="arrow"
     d="M 11.500037,31.436501 C 11.940474,20.09759 22.043105,11.32322 32.158766,21.979434 L 37.068811,17.246167 C 37.068811,17.246167 37.088388,32 37.088388,32 L 22.160133,31.978069 C 22.160133,31.978069 26.997745,27.140456 26.997745,27.140456 C 18.528582,18.264221 13.291696,25.230495 11.500037,31.436501 z"
     style="fill:#404040;"/>
  </a>
 </g>
</svg>

<style type='text/css'>
<![CDATA[
[data-mouse-over-selected='false'] { opacity: 0.7; }
[data-mouse-over-selected='true']  { opacity: 1.0; }
]]>
</style>
<script type="application/ecmascript"><![CDATA[
document.addEventListener('DOMContentLoaded', (event) => {
  highlightEdges();
  highlightAdjacentNodes();
});
]]></script>
</svg>
