<?xml version="1.0" encoding="UTF-8" standalone="no"?>
<!DOCTYPE svg PUBLIC "-//W3C//DTD SVG 1.1//EN"
 "http://www.w3.org/Graphics/SVG/1.1/DTD/svg11.dtd">
<!-- Generated by graphviz version 14.0.4 (20251115.1723)
 -->
<!-- Title: frontend/node_modules/@parcel/watcher/src/shared/BruteForceBackend.hh Pages: 1 -->
<svg width="803pt" height="437pt"
 viewBox="0.00 0.00 803.00 437.00" xmlns="http://www.w3.org/2000/svg" xmlns:xlink="http://www.w3.org/1999/xlink">
<g id="graph0" class="graph" transform="scale(1 1) rotate(0) translate(4 432.5)">
<title>frontend/node_modules/@parcel/watcher/src/shared/BruteForceBackend.hh</title>
<!-- Node1 -->
<g id="Node000001" class="node">
<title>Node1</title>
<g id="a_Node000001"><a xlink:title=" ">
<polygon fill="#999999" stroke="#666666" points="515.12,-428.5 364.12,-428.5 364.12,-386.75 515.12,-386.75 515.12,-428.5"/>
<text xml:space="preserve" text-anchor="start" x="372.12" y="-415" font-family="Helvetica,sans-Serif" font-size="10.00">frontend/node_modules</text>
<text xml:space="preserve" text-anchor="start" x="372.12" y="-403.75" font-family="Helvetica,sans-Serif" font-size="10.00">/@parcel/watcher/src</text>
<text xml:space="preserve" text-anchor="middle" x="439.62" y="-392.5" font-family="Helvetica,sans-Serif" font-size="10.00">/shared/BruteForceBackend.hh</text>
</a>
</g>
</g>
<!-- Node2 -->
<g id="Node000002" class="node">
<title>Node2</title>
<g id="a_Node000002"><a xlink:href="_backend_8hh.html" target="_top" xlink:title=" ">
<polygon fill="white" stroke="#666666" points="544,-350.75 467.25,-350.75 467.25,-331.5 544,-331.5 544,-350.75"/>
<text xml:space="preserve" text-anchor="middle" x="505.62" y="-337.25" font-family="Helvetica,sans-Serif" font-size="10.00">../Backend.hh</text>
</a>
</g>
</g>
<!-- Node1&#45;&gt;Node2 -->
<g id="edge1_Node000001_Node000002" class="edge">
<title>Node1&#45;&gt;Node2</title>
<g id="a_edge1_Node000001_Node000002"><a xlink:title=" ">
<path fill="none" stroke="#63b8ff" d="M460.15,-386.57C469.13,-377.79 479.57,-367.59 488.17,-359.18"/>
<polygon fill="#63b8ff" stroke="#63b8ff" points="490.56,-361.75 495.26,-352.25 485.66,-356.74 490.56,-361.75"/>
</a>
</g>
</g>
<!-- Node21 -->
<g id="Node000021" class="node">
<title>Node21</title>
<g id="a_Node000021"><a xlink:href="_watcher_8hh.html" target="_top" xlink:title=" ">
<polygon fill="white" stroke="#666666" points="505,-295.5 440.25,-295.5 440.25,-276.25 505,-276.25 505,-295.5"/>
<text xml:space="preserve" text-anchor="middle" x="472.62" y="-282" font-family="Helvetica,sans-Serif" font-size="10.00">Watcher.hh</text>
</a>
</g>
</g>
<!-- Node1&#45;&gt;Node21 -->
<g id="edge48_Node000001_Node000021" class="edge">
<title>Node1&#45;&gt;Node21</title>
<g id="a_edge48_Node000001_Node000021"><a xlink:title=" ">
<path fill="none" stroke="#63b8ff" d="M444.4,-386.45C448.07,-371.28 453.39,-350.01 458.62,-331.5 460.95,-323.3 463.72,-314.32 466.18,-306.57"/>
<polygon fill="#63b8ff" stroke="#63b8ff" points="469.48,-307.75 469.22,-297.16 462.82,-305.6 469.48,-307.75"/>
</a>
</g>
</g>
<!-- Node31 -->
<g id="Node000031" class="node">
<title>Node31</title>
<g id="a_Node000031"><a xlink:href="_dir_tree_8hh.html" target="_top" xlink:title=" ">
<polygon fill="white" stroke="#666666" points="262.5,-240.25 200.75,-240.25 200.75,-221 262.5,-221 262.5,-240.25"/>
<text xml:space="preserve" text-anchor="middle" x="231.62" y="-226.75" font-family="Helvetica,sans-Serif" font-size="10.00">DirTree.hh</text>
</a>
</g>
</g>
<!-- Node1&#45;&gt;Node31 -->
<g id="edge47_Node000001_Node000031" class="edge">
<title>Node1&#45;&gt;Node31</title>
<g id="a_edge47_Node000001_Node000031"><a xlink:title=" ">
<path fill="none" stroke="#63b8ff" d="M402.2,-386.36C367.23,-366.26 314.82,-333.11 276.62,-295.5 262.9,-281.98 250.55,-263.8 242.28,-250.29"/>
<polygon fill="#63b8ff" stroke="#63b8ff" points="245.44,-248.77 237.34,-241.94 239.42,-252.33 245.44,-248.77"/>
</a>
</g>
</g>
<!-- Node3 -->
<g id="Node000003" class="node">
<title>Node3</title>
<g id="a_Node000003"><a xlink:href="_event_8hh.html" target="_top" xlink:title=" ">
<polygon fill="white" stroke="#666666" points="291.12,-185 236.12,-185 236.12,-165.75 291.12,-165.75 291.12,-185"/>
<text xml:space="preserve" text-anchor="middle" x="263.62" y="-171.5" font-family="Helvetica,sans-Serif" font-size="10.00">Event.hh</text>
</a>
</g>
</g>
<!-- Node2&#45;&gt;Node3 -->
<g id="edge2_Node000002_Node000003" class="edge">
<title>Node2&#45;&gt;Node3</title>
<g id="a_edge2_Node000002_Node000003"><a xlink:title=" ">
<path fill="none" stroke="#63b8ff" d="M486.16,-331.11C452.63,-315.14 382.5,-279.83 329.62,-240.25 310.96,-226.27 292.08,-207.42 279.32,-193.82"/>
<polygon fill="#63b8ff" stroke="#63b8ff" points="281.92,-191.48 272.57,-186.49 276.77,-196.22 281.92,-191.48"/>
</a>
</g>
</g>
<!-- Node2&#45;&gt;Node21 -->
<g id="edge23_Node000002_Node000021" class="edge">
<title>Node2&#45;&gt;Node21</title>
<g id="a_edge23_Node000002_Node000021"><a xlink:title=" ">
<path fill="none" stroke="#63b8ff" d="M500.18,-331.33C495.85,-324.36 489.66,-314.37 484.24,-305.62"/>
<polygon fill="#63b8ff" stroke="#63b8ff" points="487.23,-303.8 478.99,-297.15 481.28,-307.49 487.23,-303.8"/>
</a>
</g>
</g>
<!-- Node28 -->
<g id="Node000028" class="node">
<title>Node28</title>
<g id="a_Node000028"><a xlink:title=" ">
<polygon fill="#e0e0e0" stroke="#999999" points="720.12,-185 677.12,-185 677.12,-165.75 720.12,-165.75 720.12,-185"/>
<text xml:space="preserve" text-anchor="middle" x="698.62" y="-171.5" font-family="Helvetica,sans-Serif" font-size="10.00">thread</text>
</a>
</g>
</g>
<!-- Node2&#45;&gt;Node28 -->
<g id="edge46_Node000002_Node000028" class="edge">
<title>Node2&#45;&gt;Node28</title>
<g id="a_edge46_Node000002_Node000028"><a xlink:title=" ">
<path fill="none" stroke="#63b8ff" d="M530.34,-331.04C566,-316.78 631.95,-285.98 671.62,-240.25 682.62,-227.58 689.64,-209.78 693.76,-196.18"/>
<polygon fill="#63b8ff" stroke="#63b8ff" points="697.12,-197.18 696.36,-186.61 690.36,-195.34 697.12,-197.18"/>
</a>
</g>
</g>
<!-- Node30 -->
<g id="Node000030" class="node">
<title>Node30</title>
<g id="a_Node000030"><a xlink:href="_signal_8hh.html" target="_top" xlink:title=" ">
<polygon fill="white" stroke="#666666" points="794.88,-185 738.38,-185 738.38,-165.75 794.88,-165.75 794.88,-185"/>
<text xml:space="preserve" text-anchor="middle" x="766.62" y="-171.5" font-family="Helvetica,sans-Serif" font-size="10.00">Signal.hh</text>
</a>
</g>
</g>
<!-- Node2&#45;&gt;Node30 -->
<g id="edge45_Node000002_Node000030" class="edge">
<title>Node2&#45;&gt;Node30</title>
<g id="a_edge45_Node000002_Node000030"><a xlink:title=" ">
<path fill="none" stroke="#63b8ff" d="M540,-331.01C565.83,-323.42 601.59,-311.32 630.62,-295.5 666.05,-276.21 672.29,-266.83 702.62,-240.25 719.7,-225.29 737.91,-206.85 750.52,-193.63"/>
<polygon fill="#63b8ff" stroke="#63b8ff" points="752.91,-196.2 757.24,-186.52 747.82,-191.39 752.91,-196.2"/>
</a>
</g>
</g>
<!-- Node4 -->
<g id="Node000004" class="node">
<title>Node4</title>
<g id="a_Node000004"><a xlink:title=" ">
<polygon fill="#e0e0e0" stroke="#999999" points="109.62,-74.5 69.62,-74.5 69.62,-55.25 109.62,-55.25 109.62,-74.5"/>
<text xml:space="preserve" text-anchor="middle" x="89.62" y="-61" font-family="Helvetica,sans-Serif" font-size="10.00">string</text>
</a>
</g>
</g>
<!-- Node3&#45;&gt;Node4 -->
<g id="edge3_Node000003_Node000004" class="edge">
<title>Node3&#45;&gt;Node4</title>
<g id="a_edge3_Node000003_Node000004"><a xlink:title=" ">
<path fill="none" stroke="#63b8ff" d="M235.65,-169.02C209.03,-162.89 168.83,-150.86 139.62,-129.75 122.89,-117.65 108.92,-98.46 100.04,-84.27"/>
<polygon fill="#63b8ff" stroke="#63b8ff" points="103.18,-82.69 95.06,-75.89 97.16,-86.27 103.18,-82.69"/>
</a>
</g>
</g>
<!-- Node5 -->
<g id="Node000005" class="node">
<title>Node5</title>
<g id="a_Node000005"><a xlink:title=" ">
<polygon fill="#e0e0e0" stroke="#999999" points="416.25,-74.5 353,-74.5 353,-55.25 416.25,-55.25 416.25,-74.5"/>
<text xml:space="preserve" text-anchor="middle" x="384.62" y="-61" font-family="Helvetica,sans-Serif" font-size="10.00">node_api.h</text>
</a>
</g>
</g>
<!-- Node3&#45;&gt;Node5 -->
<g id="edge4_Node000003_Node000005" class="edge">
<title>Node3&#45;&gt;Node5</title>
<g id="a_edge4_Node000003_Node000005"><a xlink:title=" ">
<path fill="none" stroke="#63b8ff" d="M254.72,-165.41C242.86,-152.36 224.79,-127.81 237.62,-110.5 244.01,-101.88 300.42,-86.47 341.46,-76.21"/>
<polygon fill="#63b8ff" stroke="#63b8ff" points="342.24,-79.62 351.11,-73.83 340.56,-72.83 342.24,-79.62"/>
</a>
</g>
</g>
<!-- Node6 -->
<g id="Node000006" class="node">
<title>Node6</title>
<g id="a_Node000006"><a xlink:href="include_8h.html" target="_top" xlink:title=" ">
<polygon fill="white" stroke="#666666" points="450.75,-129.75 366.5,-129.75 366.5,-110.5 450.75,-110.5 450.75,-129.75"/>
<text xml:space="preserve" text-anchor="middle" x="408.62" y="-116.25" font-family="Helvetica,sans-Serif" font-size="10.00">wasm/include.h</text>
</a>
</g>
</g>
<!-- Node3&#45;&gt;Node6 -->
<g id="edge5_Node000003_Node000006" class="edge">
<title>Node3&#45;&gt;Node6</title>
<g id="a_edge5_Node000003_Node000006"><a xlink:title=" ">
<path fill="none" stroke="#63b8ff" d="M288.22,-165.34C311.55,-156.77 346.86,-143.81 373.22,-134.13"/>
<polygon fill="#63b8ff" stroke="#63b8ff" points="374.31,-137.46 382.49,-130.72 371.89,-130.89 374.31,-137.46"/>
</a>
</g>
</g>
<!-- Node7 -->
<g id="Node000007" class="node">
<title>Node7</title>
<g id="a_Node000007"><a xlink:href="napi_8h.html" target="_top" xlink:title=" ">
<polygon fill="white" stroke="#666666" points="190.75,-129.75 148.5,-129.75 148.5,-110.5 190.75,-110.5 190.75,-129.75"/>
<text xml:space="preserve" text-anchor="middle" x="169.62" y="-116.25" font-family="Helvetica,sans-Serif" font-size="10.00">napi.h</text>
</a>
</g>
</g>
<!-- Node3&#45;&gt;Node7 -->
<g id="edge6_Node000003_Node000007" class="edge">
<title>Node3&#45;&gt;Node7</title>
<g id="a_edge6_Node000003_Node000007"><a xlink:title=" ">
<path fill="none" stroke="#63b8ff" d="M247.68,-165.34C233.36,-157.23 212.09,-145.18 195.37,-135.71"/>
<polygon fill="#63b8ff" stroke="#63b8ff" points="197.39,-132.83 186.97,-130.95 193.94,-138.92 197.39,-132.83"/>
</a>
</g>
</g>
<!-- Node11 -->
<g id="Node000011" class="node">
<title>Node11</title>
<g id="a_Node000011"><a xlink:title=" ">
<polygon fill="#e0e0e0" stroke="#999999" points="554.12,-74.5 511.12,-74.5 511.12,-55.25 554.12,-55.25 554.12,-74.5"/>
<text xml:space="preserve" text-anchor="middle" x="532.62" y="-61" font-family="Helvetica,sans-Serif" font-size="10.00">mutex</text>
</a>
</g>
</g>
<!-- Node3&#45;&gt;Node11 -->
<g id="edge20_Node000003_Node000011" class="edge">
<title>Node3&#45;&gt;Node11</title>
<g id="a_edge20_Node000003_Node000011"><a xlink:title=" ">
<path fill="none" stroke="#63b8ff" d="M291.52,-167.65C294.26,-167 297,-166.36 299.62,-165.75 370.62,-149.26 394.64,-162.77 459.62,-129.75 482.5,-118.13 504.01,-97.71 517.67,-83.09"/>
<polygon fill="#63b8ff" stroke="#63b8ff" points="519.98,-85.75 524.09,-75.98 514.79,-81.06 519.98,-85.75"/>
</a>
</g>
</g>
<!-- Node19 -->
<g id="Node000019" class="node">
<title>Node19</title>
<g id="a_Node000019"><a xlink:title=" ">
<polygon fill="#e0e0e0" stroke="#999999" points="281,-129.75 246.25,-129.75 246.25,-110.5 281,-110.5 281,-129.75"/>
<text xml:space="preserve" text-anchor="middle" x="263.62" y="-116.25" font-family="Helvetica,sans-Serif" font-size="10.00">map</text>
</a>
</g>
</g>
<!-- Node3&#45;&gt;Node19 -->
<g id="edge21_Node000003_Node000019" class="edge">
<title>Node3&#45;&gt;Node19</title>
<g id="a_edge21_Node000003_Node000019"><a xlink:title=" ">
<path fill="none" stroke="#63b8ff" d="M263.62,-165.58C263.62,-159.07 263.62,-149.92 263.62,-141.62"/>
<polygon fill="#63b8ff" stroke="#63b8ff" points="267.13,-141.62 263.63,-131.62 260.13,-141.62 267.13,-141.62"/>
</a>
</g>
</g>
<!-- Node20 -->
<g id="Node000020" class="node">
<title>Node20</title>
<g id="a_Node000020"><a xlink:title=" ">
<polygon fill="#e0e0e0" stroke="#999999" points="348.5,-129.75 298.75,-129.75 298.75,-110.5 348.5,-110.5 348.5,-129.75"/>
<text xml:space="preserve" text-anchor="middle" x="323.62" y="-116.25" font-family="Helvetica,sans-Serif" font-size="10.00">optional</text>
</a>
</g>
</g>
<!-- Node3&#45;&gt;Node20 -->
<g id="edge22_Node000003_Node000020" class="edge">
<title>Node3&#45;&gt;Node20</title>
<g id="a_edge22_Node000003_Node000020"><a xlink:title=" ">
<path fill="none" stroke="#63b8ff" d="M273.8,-165.34C282.39,-157.72 294.89,-146.62 305.23,-137.45"/>
<polygon fill="#63b8ff" stroke="#63b8ff" points="307.31,-140.29 312.47,-131.03 302.66,-135.05 307.31,-140.29"/>
</a>
</g>
</g>
<!-- Node7&#45;&gt;Node4 -->
<g id="edge12_Node000007_Node000004" class="edge">
<title>Node7&#45;&gt;Node4</title>
<g id="a_edge12_Node000007_Node000004"><a xlink:title=" ">
<path fill="none" stroke="#63b8ff" d="M156.05,-110.09C144.22,-102.21 126.79,-90.61 112.75,-81.27"/>
<polygon fill="#63b8ff" stroke="#63b8ff" points="114.79,-78.42 104.52,-75.79 110.91,-84.25 114.79,-78.42"/>
</a>
</g>
</g>
<!-- Node7&#45;&gt;Node5 -->
<g id="edge7_Node000007_Node000005" class="edge">
<title>Node7&#45;&gt;Node5</title>
<g id="a_edge7_Node000007_Node000005"><a xlink:title=" ">
<path fill="none" stroke="#63b8ff" d="M191.03,-113.82C225.98,-105.17 295.99,-87.83 341.55,-76.54"/>
<polygon fill="#63b8ff" stroke="#63b8ff" points="342.23,-79.98 351.1,-74.18 340.55,-73.19 342.23,-79.98"/>
</a>
</g>
</g>
<!-- Node8 -->
<g id="Node000008" class="node">
<title>Node8</title>
<g id="a_Node000008"><a xlink:title=" ">
<polygon fill="#e0e0e0" stroke="#999999" points="492.62,-74.5 434.62,-74.5 434.62,-55.25 492.62,-55.25 492.62,-74.5"/>
<text xml:space="preserve" text-anchor="middle" x="463.62" y="-61" font-family="Helvetica,sans-Serif" font-size="10.00">functional</text>
</a>
</g>
</g>
<!-- Node7&#45;&gt;Node8 -->
<g id="edge8_Node000007_Node000008" class="edge">
<title>Node7&#45;&gt;Node8</title>
<g id="a_edge8_Node000007_Node000008"><a xlink:title=" ">
<path fill="none" stroke="#63b8ff" d="M190.93,-115.78C233.2,-109.08 330.89,-93.19 423,-74.95"/>
<polygon fill="#63b8ff" stroke="#63b8ff" points="423.59,-78.4 432.71,-73.01 422.22,-71.53 423.59,-78.4"/>
</a>
</g>
</g>
<!-- Node9 -->
<g id="Node000009" class="node">
<title>Node9</title>
<g id="a_Node000009"><a xlink:title=" ">
<polygon fill="#e0e0e0" stroke="#999999" points="334.75,-74.5 262.5,-74.5 262.5,-55.25 334.75,-55.25 334.75,-74.5"/>
<text xml:space="preserve" text-anchor="middle" x="298.62" y="-61" font-family="Helvetica,sans-Serif" font-size="10.00">initializer_list</text>
</a>
</g>
</g>
<!-- Node7&#45;&gt;Node9 -->
<g id="edge9_Node000007_Node000009" class="edge">
<title>Node7&#45;&gt;Node9</title>
<g id="a_edge9_Node000007_Node000009"><a xlink:title=" ">
<path fill="none" stroke="#63b8ff" d="M191.22,-110.21C211.65,-101.78 242.6,-89 266.03,-79.33"/>
<polygon fill="#63b8ff" stroke="#63b8ff" points="267.22,-82.62 275.13,-75.57 264.55,-76.15 267.22,-82.62"/>
</a>
</g>
</g>
<!-- Node10 -->
<g id="Node000010" class="node">
<title>Node10</title>
<g id="a_Node000010"><a xlink:title=" ">
<polygon fill="#e0e0e0" stroke="#999999" points="51.25,-74.5 0,-74.5 0,-55.25 51.25,-55.25 51.25,-74.5"/>
<text xml:space="preserve" text-anchor="middle" x="25.62" y="-61" font-family="Helvetica,sans-Serif" font-size="10.00">memory</text>
</a>
</g>
</g>
<!-- Node7&#45;&gt;Node10 -->
<g id="edge10_Node000007_Node000010" class="edge">
<title>Node7&#45;&gt;Node10</title>
<g id="a_edge10_Node000007_Node000010"><a xlink:title=" ">
<path fill="none" stroke="#63b8ff" d="M148.07,-111.15C125.03,-102.64 88.16,-89 60.89,-78.92"/>
<polygon fill="#63b8ff" stroke="#63b8ff" points="62.24,-75.68 51.65,-75.5 59.81,-82.25 62.24,-75.68"/>
</a>
</g>
</g>
<!-- Node7&#45;&gt;Node11 -->
<g id="edge11_Node000007_Node000011" class="edge">
<title>Node7&#45;&gt;Node11</title>
<g id="a_edge11_Node000007_Node000011"><a xlink:title=" ">
<path fill="none" stroke="#63b8ff" d="M191.04,-116.42C254.67,-108.36 441.32,-84.56 499.55,-74.47"/>
<polygon fill="#63b8ff" stroke="#63b8ff" points="500.03,-77.94 509.21,-72.66 498.74,-71.06 500.03,-77.94"/>
</a>
</g>
</g>
<!-- Node12 -->
<g id="Node000012" class="node">
<title>Node12</title>
<g id="a_Node000012"><a xlink:title=" ">
<polygon fill="#e0e0e0" stroke="#999999" points="171.12,-74.5 128.12,-74.5 128.12,-55.25 171.12,-55.25 171.12,-74.5"/>
<text xml:space="preserve" text-anchor="middle" x="149.62" y="-61" font-family="Helvetica,sans-Serif" font-size="10.00">vector</text>
</a>
</g>
</g>
<!-- Node7&#45;&gt;Node12 -->
<g id="edge13_Node000007_Node000012" class="edge">
<title>Node7&#45;&gt;Node12</title>
<g id="a_edge13_Node000007_Node000012"><a xlink:title=" ">
<path fill="none" stroke="#63b8ff" d="M166.32,-110.33C163.79,-103.59 160.2,-94.02 156.99,-85.49"/>
<polygon fill="#63b8ff" stroke="#63b8ff" points="160.32,-84.41 153.53,-76.28 153.77,-86.87 160.32,-84.41"/>
</a>
</g>
</g>
<!-- Node13 -->
<g id="Node000013" class="node">
<title>Node13</title>
<g id="a_Node000013"><a xlink:href="napi-inl_8h.html" target="_top" xlink:title=" ">
<polygon fill="white" stroke="#666666" points="244.12,-74.5 189.12,-74.5 189.12,-55.25 244.12,-55.25 244.12,-74.5"/>
<text xml:space="preserve" text-anchor="middle" x="216.62" y="-61" font-family="Helvetica,sans-Serif" font-size="10.00">napi&#45;inl.h</text>
</a>
</g>
</g>
<!-- Node7&#45;&gt;Node13 -->
<g id="edge14_Node000007_Node000013" class="edge">
<title>Node7&#45;&gt;Node13</title>
<g id="a_edge14_Node000007_Node000013"><a xlink:title=" ">
<path fill="none" stroke="#63b8ff" d="M177.39,-110.33C183.81,-103.05 193.14,-92.48 201.09,-83.48"/>
<polygon fill="#63b8ff" stroke="#63b8ff" points="203.7,-85.81 207.69,-75.99 198.45,-81.18 203.7,-85.81"/>
</a>
</g>
</g>
<!-- Node14 -->
<g id="Node000014" class="node">
<title>Node14</title>
<g id="a_Node000014"><a xlink:title=" ">
<polygon fill="#e0e0e0" stroke="#999999" points="103.5,-19.25 47.75,-19.25 47.75,0 103.5,0 103.5,-19.25"/>
<text xml:space="preserve" text-anchor="middle" x="75.62" y="-5.75" font-family="Helvetica,sans-Serif" font-size="10.00">algorithm</text>
</a>
</g>
</g>
<!-- Node13&#45;&gt;Node14 -->
<g id="edge15_Node000013_Node000014" class="edge">
<title>Node13&#45;&gt;Node14</title>
<g id="a_edge15_Node000013_Node000014"><a xlink:title=" ">
<path fill="none" stroke="#63b8ff" d="M192.71,-54.84C170.12,-46.31 135.99,-33.42 110.4,-23.76"/>
<polygon fill="#63b8ff" stroke="#63b8ff" points="111.67,-20.5 101.08,-20.24 109.2,-27.04 111.67,-20.5"/>
</a>
</g>
</g>
<!-- Node15 -->
<g id="Node000015" class="node">
<title>Node15</title>
<g id="a_Node000015"><a xlink:title=" ">
<polygon fill="#e0e0e0" stroke="#999999" points="167.25,-19.25 122,-19.25 122,0 167.25,0 167.25,-19.25"/>
<text xml:space="preserve" text-anchor="middle" x="144.62" y="-5.75" font-family="Helvetica,sans-Serif" font-size="10.00">cstring</text>
</a>
</g>
</g>
<!-- Node13&#45;&gt;Node15 -->
<g id="edge16_Node000013_Node000015" class="edge">
<title>Node13&#45;&gt;Node15</title>
<g id="a_edge16_Node000013_Node000015"><a xlink:title=" ">
<path fill="none" stroke="#63b8ff" d="M204.41,-54.84C193.8,-46.99 178.19,-35.45 165.58,-26.12"/>
<polygon fill="#63b8ff" stroke="#63b8ff" points="168,-23.56 157.88,-20.42 163.83,-29.19 168,-23.56"/>
</a>
</g>
</g>
<!-- Node16 -->
<g id="Node000016" class="node">
<title>Node16</title>
<g id="a_Node000016"><a xlink:title=" ">
<polygon fill="#e0e0e0" stroke="#999999" points="247.5,-19.25 185.75,-19.25 185.75,0 247.5,0 247.5,-19.25"/>
<text xml:space="preserve" text-anchor="middle" x="216.62" y="-5.75" font-family="Helvetica,sans-Serif" font-size="10.00">type_traits</text>
</a>
</g>
</g>
<!-- Node13&#45;&gt;Node16 -->
<g id="edge17_Node000013_Node000016" class="edge">
<title>Node13&#45;&gt;Node16</title>
<g id="a_edge17_Node000013_Node000016"><a xlink:title=" ">
<path fill="none" stroke="#63b8ff" d="M216.62,-55.08C216.62,-48.57 216.62,-39.42 216.62,-31.12"/>
<polygon fill="#63b8ff" stroke="#63b8ff" points="220.13,-31.12 216.63,-21.12 213.13,-31.12 220.13,-31.12"/>
</a>
</g>
</g>
<!-- Node17 -->
<g id="Node000017" class="node">
<title>Node17</title>
<g id="a_Node000017"><a xlink:title=" ">
<polygon fill="#e0e0e0" stroke="#999999" points="305.25,-19.25 266,-19.25 266,0 305.25,0 305.25,-19.25"/>
<text xml:space="preserve" text-anchor="middle" x="285.62" y="-5.75" font-family="Helvetica,sans-Serif" font-size="10.00">utility</text>
</a>
</g>
</g>
<!-- Node13&#45;&gt;Node17 -->
<g id="edge18_Node000013_Node000017" class="edge">
<title>Node13&#45;&gt;Node17</title>
<g id="a_edge18_Node000013_Node000017"><a xlink:title=" ">
<path fill="none" stroke="#63b8ff" d="M228.33,-54.84C238.4,-47.07 253.17,-35.67 265.19,-26.4"/>
<polygon fill="#63b8ff" stroke="#63b8ff" points="267.12,-29.33 272.89,-20.45 262.84,-23.79 267.12,-29.33"/>
</a>
</g>
</g>
<!-- Node18 -->
<g id="Node000018" class="node">
<title>Node18</title>
<g id="a_Node000018"><a xlink:href="napi-inl_8deprecated_8h.html" target="_top" xlink:title=" ">
<polygon fill="white" stroke="#666666" points="429.62,-19.25 323.62,-19.25 323.62,0 429.62,0 429.62,-19.25"/>
<text xml:space="preserve" text-anchor="middle" x="376.62" y="-5.75" font-family="Helvetica,sans-Serif" font-size="10.00">napi&#45;inl.deprecated.h</text>
</a>
</g>
</g>
<!-- Node13&#45;&gt;Node18 -->
<g id="edge19_Node000013_Node000018" class="edge">
<title>Node13&#45;&gt;Node18</title>
<g id="a_edge19_Node000013_Node000018"><a xlink:title=" ">
<path fill="none" stroke="#63b8ff" d="M243.77,-54.84C269.86,-46.16 309.52,-32.96 338.72,-23.24"/>
<polygon fill="#63b8ff" stroke="#63b8ff" points="339.53,-26.66 347.91,-20.18 337.32,-20.02 339.53,-26.66"/>
</a>
</g>
</g>
<!-- Node21&#45;&gt;Node3 -->
<g id="edge31_Node000021_Node000003" class="edge">
<title>Node21&#45;&gt;Node3</title>
<g id="a_edge31_Node000021_Node000003"><a xlink:title=" ">
<path fill="none" stroke="#63b8ff" d="M447.88,-275.89C425.86,-267.57 392.98,-254.4 365.62,-240.25 337.05,-225.47 305.94,-205.36 285.69,-191.68"/>
<polygon fill="#63b8ff" stroke="#63b8ff" points="287.91,-188.95 277.67,-186.21 283.96,-194.73 287.91,-188.95"/>
</a>
</g>
</g>
<!-- Node21&#45;&gt;Node5 -->
<g id="edge27_Node000021_Node000005" class="edge">
<title>Node21&#45;&gt;Node5</title>
<g id="a_edge27_Node000021_Node000005"><a xlink:title=" ">
<path fill="none" stroke="#63b8ff" d="M474.61,-276.04C480.18,-248.9 493.5,-165.22 459.62,-110.5 451.03,-96.61 436.37,-86.5 422.27,-79.46"/>
<polygon fill="#63b8ff" stroke="#63b8ff" points="424.14,-76.46 413.59,-75.49 421.23,-82.83 424.14,-76.46"/>
</a>
</g>
</g>
<!-- Node22 -->
<g id="Node000022" class="node">
<title>Node22</title>
<g id="a_Node000022"><a xlink:title=" ">
<polygon fill="#e0e0e0" stroke="#999999" points="770.62,-129.75 676.62,-129.75 676.62,-110.5 770.62,-110.5 770.62,-129.75"/>
<text xml:space="preserve" text-anchor="middle" x="723.62" y="-116.25" font-family="Helvetica,sans-Serif" font-size="10.00">condition_variable</text>
</a>
</g>
</g>
<!-- Node21&#45;&gt;Node22 -->
<g id="edge24_Node000021_Node000022" class="edge">
<title>Node21&#45;&gt;Node22</title>
<g id="a_edge24_Node000021_Node000022"><a xlink:title=" ">
<path fill="none" stroke="#63b8ff" d="M475.79,-275.82C484.77,-250.65 510.92,-180.73 529.62,-165.75 567.84,-135.14 623.18,-124.74 664.98,-121.56"/>
<polygon fill="#63b8ff" stroke="#63b8ff" points="665.11,-125.06 674.87,-120.94 664.68,-118.07 665.11,-125.06"/>
</a>
</g>
</g>
<!-- Node23 -->
<g id="Node000023" class="node">
<title>Node23</title>
<g id="a_Node000023"><a xlink:title=" ">
<polygon fill="#e0e0e0" stroke="#999999" points="386.38,-185 308.88,-185 308.88,-165.75 386.38,-165.75 386.38,-185"/>
<text xml:space="preserve" text-anchor="middle" x="347.62" y="-171.5" font-family="Helvetica,sans-Serif" font-size="10.00">unordered_set</text>
</a>
</g>
</g>
<!-- Node21&#45;&gt;Node23 -->
<g id="edge25_Node000021_Node000023" class="edge">
<title>Node21&#45;&gt;Node23</title>
<g id="a_edge25_Node000021_Node000023"><a xlink:title=" ">
<path fill="none" stroke="#63b8ff" d="M446.29,-275.87C427.69,-268.51 403.07,-256.64 385.62,-240.25 372.25,-227.69 362.01,-209.38 355.55,-195.58"/>
<polygon fill="#63b8ff" stroke="#63b8ff" points="358.86,-194.41 351.63,-186.66 352.45,-197.22 358.86,-194.41"/>
</a>
</g>
</g>
<!-- Node24 -->
<g id="Node000024" class="node">
<title>Node24</title>
<g id="a_Node000024"><a xlink:title=" ">
<polygon fill="#e0e0e0" stroke="#999999" points="568.38,-240.25 538.88,-240.25 538.88,-221 568.38,-221 568.38,-240.25"/>
<text xml:space="preserve" text-anchor="middle" x="553.62" y="-226.75" font-family="Helvetica,sans-Serif" font-size="10.00">set</text>
</a>
</g>
</g>
<!-- Node21&#45;&gt;Node24 -->
<g id="edge26_Node000021_Node000024" class="edge">
<title>Node21&#45;&gt;Node24</title>
<g id="a_edge26_Node000021_Node000024"><a xlink:title=" ">
<path fill="none" stroke="#63b8ff" d="M486.37,-275.84C498.35,-267.96 516,-256.36 530.21,-247.02"/>
<polygon fill="#63b8ff" stroke="#63b8ff" points="532.12,-249.95 538.55,-241.53 528.27,-244.1 532.12,-249.95"/>
</a>
</g>
</g>
<!-- Node25 -->
<g id="Node000025" class="node">
<title>Node25</title>
<g id="a_Node000025"><a xlink:href="_glob_8hh.html" target="_top" xlink:title=" ">
<polygon fill="white" stroke="#666666" points="444.5,-240.25 394.75,-240.25 394.75,-221 444.5,-221 444.5,-240.25"/>
<text xml:space="preserve" text-anchor="middle" x="419.62" y="-226.75" font-family="Helvetica,sans-Serif" font-size="10.00">Glob.hh</text>
</a>
</g>
</g>
<!-- Node21&#45;&gt;Node25 -->
<g id="edge28_Node000021_Node000025" class="edge">
<title>Node21&#45;&gt;Node25</title>
<g id="a_edge28_Node000021_Node000025"><a xlink:title=" ">
<path fill="none" stroke="#63b8ff" d="M463.87,-276.08C456.48,-268.65 445.66,-257.79 436.58,-248.66"/>
<polygon fill="#63b8ff" stroke="#63b8ff" points="439.17,-246.3 429.63,-241.68 434.21,-251.24 439.17,-246.3"/>
</a>
</g>
</g>
<!-- Node27 -->
<g id="Node000027" class="node">
<title>Node27</title>
<g id="a_Node000027"><a xlink:href="_debounce_8hh.html" target="_top" xlink:title=" ">
<polygon fill="white" stroke="#666666" points="662.5,-240.25 588.75,-240.25 588.75,-221 662.5,-221 662.5,-240.25"/>
<text xml:space="preserve" text-anchor="middle" x="625.62" y="-226.75" font-family="Helvetica,sans-Serif" font-size="10.00">Debounce.hh</text>
</a>
</g>
</g>
<!-- Node21&#45;&gt;Node27 -->
<g id="edge32_Node000021_Node000027" class="edge">
<title>Node21&#45;&gt;Node27</title>
<g id="a_edge32_Node000021_Node000027"><a xlink:title=" ">
<path fill="none" stroke="#63b8ff" d="M498.58,-275.84C523.42,-267.2 561.12,-254.07 589.01,-244.37"/>
<polygon fill="#63b8ff" stroke="#63b8ff" points="589.82,-247.79 598.11,-241.2 587.52,-241.18 589.82,-247.79"/>
</a>
</g>
</g>
<!-- Node21&#45;&gt;Node30 -->
<g id="edge44_Node000021_Node000030" class="edge">
<title>Node21&#45;&gt;Node30</title>
<g id="a_edge44_Node000021_Node000030"><a xlink:title=" ">
<path fill="none" stroke="#63b8ff" d="M505.48,-281.3C545.9,-276.05 616.01,-264.18 671.62,-240.25 699.95,-228.07 728.83,-207.2 747.19,-192.64"/>
<polygon fill="#63b8ff" stroke="#63b8ff" points="749.27,-195.46 754.83,-186.44 744.86,-190.02 749.27,-195.46"/>
</a>
</g>
</g>
<!-- Node21&#45;&gt;Node31 -->
<g id="edge39_Node000021_Node000031" class="edge">
<title>Node21&#45;&gt;Node31</title>
<g id="a_edge39_Node000021_Node000031"><a xlink:title=" ">
<path fill="none" stroke="#63b8ff" d="M439.87,-277.64C396.83,-268.13 321.17,-251.41 273.87,-240.96"/>
<polygon fill="#63b8ff" stroke="#63b8ff" points="274.78,-237.57 264.26,-238.83 273.26,-244.41 274.78,-237.57"/>
</a>
</g>
</g>
<!-- Node25&#45;&gt;Node23 -->
<g id="edge29_Node000025_Node000023" class="edge">
<title>Node25&#45;&gt;Node23</title>
<g id="a_edge29_Node000025_Node000023"><a xlink:title=" ">
<path fill="none" stroke="#63b8ff" d="M407.41,-220.59C396.8,-212.74 381.19,-201.2 368.58,-191.87"/>
<polygon fill="#63b8ff" stroke="#63b8ff" points="371,-189.31 360.88,-186.17 366.83,-194.94 371,-189.31"/>
</a>
</g>
</g>
<!-- Node26 -->
<g id="Node000026" class="node">
<title>Node26</title>
<g id="a_Node000026"><a xlink:title=" ">
<polygon fill="#e0e0e0" stroke="#999999" points="444.62,-185 404.62,-185 404.62,-165.75 444.62,-165.75 444.62,-185"/>
<text xml:space="preserve" text-anchor="middle" x="424.62" y="-171.5" font-family="Helvetica,sans-Serif" font-size="10.00">regex</text>
</a>
</g>
</g>
<!-- Node25&#45;&gt;Node26 -->
<g id="edge30_Node000025_Node000026" class="edge">
<title>Node25&#45;&gt;Node26</title>
<g id="a_edge30_Node000025_Node000026"><a xlink:title=" ">
<path fill="none" stroke="#63b8ff" d="M420.45,-220.83C421.07,-214.24 421.94,-204.96 422.73,-196.57"/>
<polygon fill="#63b8ff" stroke="#63b8ff" points="426.19,-197.15 423.64,-186.87 419.22,-196.5 426.19,-197.15"/>
</a>
</g>
</g>
<!-- Node27&#45;&gt;Node8 -->
<g id="edge35_Node000027_Node000008" class="edge">
<title>Node27&#45;&gt;Node8</title>
<g id="a_edge35_Node000027_Node000008"><a xlink:title=" ">
<path fill="none" stroke="#63b8ff" d="M629.08,-220.68C633.49,-207.67 639.47,-183.16 629.62,-165.75 602.84,-118.38 543.61,-90.99 503.64,-77.25"/>
<polygon fill="#63b8ff" stroke="#63b8ff" points="504.95,-74 494.36,-74.21 502.77,-80.65 504.95,-74"/>
</a>
</g>
</g>
<!-- Node27&#45;&gt;Node28 -->
<g id="edge33_Node000027_Node000028" class="edge">
<title>Node27&#45;&gt;Node28</title>
<g id="a_edge33_Node000027_Node000028"><a xlink:title=" ">
<path fill="none" stroke="#63b8ff" d="M638.01,-220.59C648.77,-212.74 664.6,-201.2 677.38,-191.87"/>
<polygon fill="#63b8ff" stroke="#63b8ff" points="679.19,-194.89 685.2,-186.17 675.06,-189.23 679.19,-194.89"/>
</a>
</g>
</g>
<!-- Node29 -->
<g id="Node000029" class="node">
<title>Node29</title>
<g id="a_Node000029"><a xlink:title=" ">
<polygon fill="#e0e0e0" stroke="#999999" points="621,-185 538.25,-185 538.25,-165.75 621,-165.75 621,-185"/>
<text xml:space="preserve" text-anchor="middle" x="579.62" y="-171.5" font-family="Helvetica,sans-Serif" font-size="10.00">unordered_map</text>
</a>
</g>
</g>
<!-- Node27&#45;&gt;Node29 -->
<g id="edge34_Node000027_Node000029" class="edge">
<title>Node27&#45;&gt;Node29</title>
<g id="a_edge34_Node000027_Node000029"><a xlink:title=" ">
<path fill="none" stroke="#63b8ff" d="M618.03,-220.83C611.74,-213.55 602.61,-202.98 594.83,-193.98"/>
<polygon fill="#63b8ff" stroke="#63b8ff" points="597.56,-191.78 588.38,-186.5 592.26,-196.36 597.56,-191.78"/>
</a>
</g>
</g>
<!-- Node27&#45;&gt;Node30 -->
<g id="edge36_Node000027_Node000030" class="edge">
<title>Node27&#45;&gt;Node30</title>
<g id="a_edge36_Node000027_Node000030"><a xlink:title=" ">
<path fill="none" stroke="#63b8ff" d="M649.54,-220.59C672.13,-212.06 706.26,-199.17 731.85,-189.51"/>
<polygon fill="#63b8ff" stroke="#63b8ff" points="733.05,-192.79 741.17,-185.99 730.58,-186.25 733.05,-192.79"/>
</a>
</g>
</g>
<!-- Node30&#45;&gt;Node11 -->
<g id="edge37_Node000030_Node000011" class="edge">
<title>Node30&#45;&gt;Node11</title>
<g id="a_edge37_Node000030_Node000011"><a xlink:title=" ">
<path fill="none" stroke="#63b8ff" d="M772.57,-165.41C780.69,-151.92 792.83,-126.31 779.62,-110.5 752.71,-78.29 626.42,-69.29 565.57,-66.8"/>
<polygon fill="#63b8ff" stroke="#63b8ff" points="565.95,-63.31 555.83,-66.44 565.69,-70.31 565.95,-63.31"/>
</a>
</g>
</g>
<!-- Node30&#45;&gt;Node22 -->
<g id="edge38_Node000030_Node000022" class="edge">
<title>Node30&#45;&gt;Node22</title>
<g id="a_edge38_Node000030_Node000022"><a xlink:title=" ">
<path fill="none" stroke="#63b8ff" d="M759.52,-165.58C753.71,-158.38 745.29,-147.96 738.07,-139.01"/>
<polygon fill="#63b8ff" stroke="#63b8ff" points="740.84,-136.87 731.83,-131.29 735.39,-141.27 740.84,-136.87"/>
</a>
</g>
</g>
<!-- Node31&#45;&gt;Node3 -->
<g id="edge43_Node000031_Node000003" class="edge">
<title>Node31&#45;&gt;Node3</title>
<g id="a_edge43_Node000031_Node000003"><a xlink:title=" ">
<path fill="none" stroke="#63b8ff" d="M236.91,-220.83C241.1,-213.86 247.1,-203.87 252.36,-195.12"/>
<polygon fill="#63b8ff" stroke="#63b8ff" points="255.3,-197.03 257.45,-186.66 249.3,-193.43 255.3,-197.03"/>
</a>
</g>
</g>
<!-- Node31&#45;&gt;Node4 -->
<g id="edge40_Node000031_Node000004" class="edge">
<title>Node31&#45;&gt;Node4</title>
<g id="a_edge40_Node000031_Node000004"><a xlink:title=" ">
<path fill="none" stroke="#63b8ff" d="M217.77,-220.74C194.16,-204.99 145.83,-169.98 116.62,-129.75 106.88,-116.32 99.8,-98.84 95.34,-85.56"/>
<polygon fill="#63b8ff" stroke="#63b8ff" points="98.75,-84.73 92.44,-76.23 92.07,-86.82 98.75,-84.73"/>
</a>
</g>
</g>
<!-- Node31&#45;&gt;Node10 -->
<g id="edge42_Node000031_Node000010" class="edge">
<title>Node31&#45;&gt;Node10</title>
<g id="a_edge42_Node000031_Node000010"><a xlink:title=" ">
<path fill="none" stroke="#63b8ff" d="M210.36,-220.59C192.53,-212.53 166.82,-199.74 146.62,-185 104.16,-154.01 62.14,-108.39 40.56,-83.56"/>
<polygon fill="#63b8ff" stroke="#63b8ff" points="43.24,-81.31 34.07,-76 37.93,-85.87 43.24,-81.31"/>
</a>
</g>
</g>
<!-- Node31&#45;&gt;Node29 -->
<g id="edge41_Node000031_Node000029" class="edge">
<title>Node31&#45;&gt;Node29</title>
<g id="a_edge41_Node000031_Node000029"><a xlink:title=" ">
<path fill="none" stroke="#63b8ff" d="M262.81,-224.85C322.44,-215.73 453.18,-195.72 526.71,-184.47"/>
<polygon fill="#63b8ff" stroke="#63b8ff" points="527.15,-187.95 536.5,-182.97 526.09,-181.03 527.15,-187.95"/>
</a>
</g>
</g>
</g>
</svg>
