<?xml version="1.0" encoding="UTF-8" standalone="no"?>
<!DOCTYPE svg PUBLIC "-//W3C//DTD SVG 1.1//EN"
 "http://www.w3.org/Graphics/SVG/1.1/DTD/svg11.dtd">
<!-- Generated by graphviz version 14.0.4 (20251115.1723)
 -->
<!-- Title: src/main/java/com/goldenleaf/shop/model/Category.java Pages: 1 -->
<svg width="1246pt" height="105pt"
 viewBox="0.00 0.00 1246.00 105.00" xmlns="http://www.w3.org/2000/svg" xmlns:xlink="http://www.w3.org/1999/xlink">
<g id="graph0" class="graph" transform="scale(1 1) rotate(0) translate(4 101)">
<title>src/main/java/com/goldenleaf/shop/model/Category.java</title>
<!-- Node1 -->
<g id="Node000001" class="node">
<title>Node1</title>
<g id="a_Node000001"><a xlink:title=" ">
<polygon fill="#999999" stroke="#666666" points="703.75,-97 560.25,-97 560.25,-66.5 703.75,-66.5 703.75,-97"/>
<text xml:space="preserve" text-anchor="start" x="568.25" y="-83.5" font-family="Helvetica,sans-Serif" font-size="10.00">src/main/java/com/goldenleaf</text>
<text xml:space="preserve" text-anchor="middle" x="632" y="-72.25" font-family="Helvetica,sans-Serif" font-size="10.00">/shop/model/Category.java</text>
</a>
</g>
</g>
<!-- Node2 -->
<g id="Node000002" class="node">
<title>Node2</title>
<g id="a_Node000002"><a xlink:title=" ">
<polygon fill="#e0e0e0" stroke="#999999" points="154,-30.5 0,-30.5 0,0 154,0 154,-30.5"/>
<text xml:space="preserve" text-anchor="start" x="8" y="-17" font-family="Helvetica,sans-Serif" font-size="10.00">com.goldenleaf.shop.exception.</text>
<text xml:space="preserve" text-anchor="middle" x="77" y="-5.75" font-family="Helvetica,sans-Serif" font-size="10.00">EmptyNameException</text>
</a>
</g>
</g>
<!-- Node1&#45;&gt;Node2 -->
<g id="edge1_Node000001_Node000002" class="edge">
<title>Node1&#45;&gt;Node2</title>
<g id="a_edge1_Node000001_Node000002"><a xlink:title=" ">
<path fill="none" stroke="#63b8ff" d="M559.93,-74.33C470.07,-66.02 311.48,-50.42 165.69,-30.82"/>
<polygon fill="#63b8ff" stroke="#63b8ff" points="166.2,-27.36 155.82,-29.48 165.26,-34.29 166.2,-27.36"/>
</a>
</g>
</g>
<!-- Node3 -->
<g id="Node000003" class="node">
<title>Node3</title>
<g id="a_Node000003"><a xlink:title=" ">
<polygon fill="#e0e0e0" stroke="#999999" points="307.62,-24.88 172.38,-24.88 172.38,-5.63 307.62,-5.63 307.62,-24.88"/>
<text xml:space="preserve" text-anchor="middle" x="240" y="-11.38" font-family="Helvetica,sans-Serif" font-size="10.00">jakarta.persistence.Column</text>
</a>
</g>
</g>
<!-- Node1&#45;&gt;Node3 -->
<g id="edge2_Node000001_Node000003" class="edge">
<title>Node1&#45;&gt;Node3</title>
<g id="a_edge2_Node000001_Node000003"><a xlink:title=" ">
<path fill="none" stroke="#63b8ff" d="M560.06,-69.89C495.95,-60.07 399.61,-44.98 316,-30.5 310.36,-29.52 304.49,-28.48 298.62,-27.41"/>
<polygon fill="#63b8ff" stroke="#63b8ff" points="299.35,-23.99 288.89,-25.62 298.09,-30.87 299.35,-23.99"/>
</a>
</g>
</g>
<!-- Node4 -->
<g id="Node000004" class="node">
<title>Node4</title>
<g id="a_Node000004"><a xlink:title=" ">
<polygon fill="#e0e0e0" stroke="#999999" points="452.5,-24.88 325.5,-24.88 325.5,-5.63 452.5,-5.63 452.5,-24.88"/>
<text xml:space="preserve" text-anchor="middle" x="389" y="-11.38" font-family="Helvetica,sans-Serif" font-size="10.00">jakarta.persistence.Entity</text>
</a>
</g>
</g>
<!-- Node1&#45;&gt;Node4 -->
<g id="edge3_Node000001_Node000004" class="edge">
<title>Node1&#45;&gt;Node4</title>
<g id="a_edge3_Node000001_Node000004"><a xlink:title=" ">
<path fill="none" stroke="#63b8ff" d="M576.56,-66.03C533.5,-54.6 474.54,-38.96 434.29,-28.27"/>
<polygon fill="#63b8ff" stroke="#63b8ff" points="435.24,-24.9 424.67,-25.72 433.44,-31.67 435.24,-24.9"/>
</a>
</g>
</g>
<!-- Node5 -->
<g id="Node000005" class="node">
<title>Node5</title>
<g id="a_Node000005"><a xlink:title=" ">
<polygon fill="#e0e0e0" stroke="#999999" points="617.25,-30.5 470.75,-30.5 470.75,0 617.25,0 617.25,-30.5"/>
<text xml:space="preserve" text-anchor="start" x="478.75" y="-17" font-family="Helvetica,sans-Serif" font-size="10.00">jakarta.persistence.Generated</text>
<text xml:space="preserve" text-anchor="middle" x="544" y="-5.75" font-family="Helvetica,sans-Serif" font-size="10.00">Value</text>
</a>
</g>
</g>
<!-- Node1&#45;&gt;Node5 -->
<g id="edge4_Node000001_Node000005" class="edge">
<title>Node1&#45;&gt;Node5</title>
<g id="a_edge4_Node000001_Node000005"><a xlink:title=" ">
<path fill="none" stroke="#63b8ff" d="M612.03,-66.11C600.44,-57.62 585.65,-46.77 572.81,-37.37"/>
<polygon fill="#63b8ff" stroke="#63b8ff" points="575.24,-34.81 565.11,-31.72 571.11,-40.46 575.24,-34.81"/>
</a>
</g>
</g>
<!-- Node6 -->
<g id="Node000006" class="node">
<title>Node6</title>
<g id="a_Node000006"><a xlink:title=" ">
<polygon fill="#e0e0e0" stroke="#999999" points="804.88,-24.88 635.12,-24.88 635.12,-5.63 804.88,-5.63 804.88,-24.88"/>
<text xml:space="preserve" text-anchor="middle" x="720" y="-11.38" font-family="Helvetica,sans-Serif" font-size="10.00">jakarta.persistence.GenerationType</text>
</a>
</g>
</g>
<!-- Node1&#45;&gt;Node6 -->
<g id="edge5_Node000001_Node000006" class="edge">
<title>Node1&#45;&gt;Node6</title>
<g id="a_edge5_Node000001_Node000006"><a xlink:title=" ">
<path fill="none" stroke="#63b8ff" d="M651.97,-66.11C665.89,-55.91 684.45,-42.3 698.67,-31.88"/>
<polygon fill="#63b8ff" stroke="#63b8ff" points="700.49,-34.89 706.49,-26.15 696.35,-29.24 700.49,-34.89"/>
</a>
</g>
</g>
<!-- Node7 -->
<g id="Node000007" class="node">
<title>Node7</title>
<g id="a_Node000007"><a xlink:title=" ">
<polygon fill="#e0e0e0" stroke="#999999" points="932.88,-24.88 823.12,-24.88 823.12,-5.63 932.88,-5.63 932.88,-24.88"/>
<text xml:space="preserve" text-anchor="middle" x="878" y="-11.38" font-family="Helvetica,sans-Serif" font-size="10.00">jakarta.persistence.Id</text>
</a>
</g>
</g>
<!-- Node1&#45;&gt;Node7 -->
<g id="edge6_Node000001_Node000007" class="edge">
<title>Node1&#45;&gt;Node7</title>
<g id="a_edge6_Node000001_Node000007"><a xlink:title=" ">
<path fill="none" stroke="#63b8ff" d="M688.13,-66.03C731.81,-54.58 791.66,-38.89 832.41,-28.2"/>
<polygon fill="#63b8ff" stroke="#63b8ff" points="833.12,-31.64 841.9,-25.71 831.34,-24.87 833.12,-31.64"/>
</a>
</g>
</g>
<!-- Node8 -->
<g id="Node000008" class="node">
<title>Node8</title>
<g id="a_Node000008"><a xlink:title=" ">
<polygon fill="#e0e0e0" stroke="#999999" points="1095.5,-30.5 950.5,-30.5 950.5,0 1095.5,0 1095.5,-30.5"/>
<text xml:space="preserve" text-anchor="start" x="958.5" y="-17" font-family="Helvetica,sans-Serif" font-size="10.00">jakarta.persistence.Sequence</text>
<text xml:space="preserve" text-anchor="middle" x="1023" y="-5.75" font-family="Helvetica,sans-Serif" font-size="10.00">Generator</text>
</a>
</g>
</g>
<!-- Node1&#45;&gt;Node8 -->
<g id="edge7_Node000001_Node000008" class="edge">
<title>Node1&#45;&gt;Node8</title>
<g id="a_edge7_Node000001_Node000008"><a xlink:title=" ">
<path fill="none" stroke="#63b8ff" d="M704.08,-69.35C764.3,-59.76 852.75,-45.52 938.84,-31.02"/>
<polygon fill="#63b8ff" stroke="#63b8ff" points="939.38,-34.48 948.66,-29.37 938.21,-27.58 939.38,-34.48"/>
</a>
</g>
</g>
<!-- Node9 -->
<g id="Node000009" class="node">
<title>Node9</title>
<g id="a_Node000009"><a xlink:title=" ">
<polygon fill="#e0e0e0" stroke="#999999" points="1238.38,-24.88 1113.62,-24.88 1113.62,-5.63 1238.38,-5.63 1238.38,-24.88"/>
<text xml:space="preserve" text-anchor="middle" x="1176" y="-11.38" font-family="Helvetica,sans-Serif" font-size="10.00">jakarta.persistence.Table</text>
</a>
</g>
</g>
<!-- Node1&#45;&gt;Node9 -->
<g id="edge8_Node000001_Node000009" class="edge">
<title>Node1&#45;&gt;Node9</title>
<g id="a_edge8_Node000001_Node000009"><a xlink:title=" ">
<path fill="none" stroke="#63b8ff" d="M703.99,-75.18C796.94,-67.52 963.58,-52.16 1105,-30.5 1110.9,-29.6 1117.06,-28.54 1123.17,-27.41"/>
<polygon fill="#63b8ff" stroke="#63b8ff" points="1123.41,-30.93 1132.58,-25.62 1122.1,-24.05 1123.41,-30.93"/>
</a>
</g>
</g>
</g>
</svg>
