<?xml version="1.0" encoding="UTF-8" standalone="no"?>
<!DOCTYPE svg PUBLIC "-//W3C//DTD SVG 1.1//EN"
 "http://www.w3.org/Graphics/SVG/1.1/DTD/svg11.dtd">
<!-- Generated by graphviz version 14.0.4 (20251115.1723)
 -->
<!-- Title: src/main/java/com/goldenleaf/shop/model/CreditCard.java Pages: 1 -->
<svg width="2340pt" height="105pt"
 viewBox="0.00 0.00 2340.00 105.00" xmlns="http://www.w3.org/2000/svg" xmlns:xlink="http://www.w3.org/1999/xlink">
<g id="graph0" class="graph" transform="scale(1 1) rotate(0) translate(4 101)">
<title>src/main/java/com/goldenleaf/shop/model/CreditCard.java</title>
<!-- Node1 -->
<g id="Node000001" class="node">
<title>Node1</title>
<g id="a_Node000001"><a xlink:title=" ">
<polygon fill="#999999" stroke="#666666" points="1272.38,-97 1128.88,-97 1128.88,-66.5 1272.38,-66.5 1272.38,-97"/>
<text xml:space="preserve" text-anchor="start" x="1136.88" y="-83.5" font-family="Helvetica,sans-Serif" font-size="10.00">src/main/java/com/goldenleaf</text>
<text xml:space="preserve" text-anchor="middle" x="1200.62" y="-72.25" font-family="Helvetica,sans-Serif" font-size="10.00">/shop/model/CreditCard.java</text>
</a>
</g>
</g>
<!-- Node2 -->
<g id="Node000002" class="node">
<title>Node2</title>
<g id="a_Node000002"><a xlink:title=" ">
<polygon fill="#e0e0e0" stroke="#999999" points="105.25,-24.88 0,-24.88 0,-5.63 105.25,-5.63 105.25,-24.88"/>
<text xml:space="preserve" text-anchor="middle" x="52.62" y="-11.38" font-family="Helvetica,sans-Serif" font-size="10.00">java.time.YearMonth</text>
</a>
</g>
</g>
<!-- Node1&#45;&gt;Node2 -->
<g id="edge1_Node000001_Node000002" class="edge">
<title>Node1&#45;&gt;Node2</title>
<g id="a_edge1_Node000001_Node000002"><a xlink:title=" ">
<path fill="none" stroke="#63b8ff" d="M1128.55,-79.11C918.85,-74.05 311.44,-57.45 114.62,-30.5 109.3,-29.77 103.75,-28.8 98.27,-27.71"/>
<polygon fill="#63b8ff" stroke="#63b8ff" points="99.17,-24.33 88.66,-25.66 97.71,-31.17 99.17,-24.33"/>
</a>
</g>
</g>
<!-- Node3 -->
<g id="Node000003" class="node">
<title>Node3</title>
<g id="a_Node000003"><a xlink:title=" ">
<polygon fill="#e0e0e0" stroke="#999999" points="277.62,-30.5 123.62,-30.5 123.62,0 277.62,0 277.62,-30.5"/>
<text xml:space="preserve" text-anchor="start" x="131.62" y="-17" font-family="Helvetica,sans-Serif" font-size="10.00">com.goldenleaf.shop.exception.</text>
<text xml:space="preserve" text-anchor="middle" x="200.62" y="-5.75" font-family="Helvetica,sans-Serif" font-size="10.00">EmptyCardNumberException</text>
</a>
</g>
</g>
<!-- Node1&#45;&gt;Node3 -->
<g id="edge2_Node000001_Node000003" class="edge">
<title>Node1&#45;&gt;Node3</title>
<g id="a_edge2_Node000001_Node000003"><a xlink:title=" ">
<path fill="none" stroke="#63b8ff" d="M1128.42,-79.46C975.5,-76.15 607.56,-65.1 289.23,-30.7"/>
<polygon fill="#63b8ff" stroke="#63b8ff" points="289.75,-27.24 279.43,-29.63 288.99,-34.2 289.75,-27.24"/>
</a>
</g>
</g>
<!-- Node4 -->
<g id="Node000004" class="node">
<title>Node4</title>
<g id="a_Node000004"><a xlink:title=" ">
<polygon fill="#e0e0e0" stroke="#999999" points="449.62,-30.5 295.62,-30.5 295.62,0 449.62,0 449.62,-30.5"/>
<text xml:space="preserve" text-anchor="start" x="303.62" y="-17" font-family="Helvetica,sans-Serif" font-size="10.00">com.goldenleaf.shop.exception.</text>
<text xml:space="preserve" text-anchor="middle" x="372.62" y="-5.75" font-family="Helvetica,sans-Serif" font-size="10.00">EmptyCvvException</text>
</a>
</g>
</g>
<!-- Node1&#45;&gt;Node4 -->
<g id="edge3_Node000001_Node000004" class="edge">
<title>Node1&#45;&gt;Node4</title>
<g id="a_edge3_Node000001_Node000004"><a xlink:title=" ">
<path fill="none" stroke="#63b8ff" d="M1128.52,-78.18C997.62,-73.01 711.95,-59.41 461.09,-30.71"/>
<polygon fill="#63b8ff" stroke="#63b8ff" points="461.77,-27.27 451.43,-29.59 460.97,-34.22 461.77,-27.27"/>
</a>
</g>
</g>
<!-- Node5 -->
<g id="Node000005" class="node">
<title>Node5</title>
<g id="a_Node000005"><a xlink:title=" ">
<polygon fill="#e0e0e0" stroke="#999999" points="621.62,-30.5 467.62,-30.5 467.62,0 621.62,0 621.62,-30.5"/>
<text xml:space="preserve" text-anchor="start" x="475.62" y="-17" font-family="Helvetica,sans-Serif" font-size="10.00">com.goldenleaf.shop.exception.</text>
<text xml:space="preserve" text-anchor="middle" x="544.62" y="-5.75" font-family="Helvetica,sans-Serif" font-size="10.00">EmptyExpiryException</text>
</a>
</g>
</g>
<!-- Node1&#45;&gt;Node5 -->
<g id="edge4_Node000001_Node000005" class="edge">
<title>Node1&#45;&gt;Node5</title>
<g id="a_edge4_Node000001_Node000005"><a xlink:title=" ">
<path fill="none" stroke="#63b8ff" d="M1128.45,-76.16C1022.25,-69.01 817.42,-53.74 633.2,-30.76"/>
<polygon fill="#63b8ff" stroke="#63b8ff" points="633.8,-27.31 623.44,-29.54 632.93,-34.26 633.8,-27.31"/>
</a>
</g>
</g>
<!-- Node6 -->
<g id="Node000006" class="node">
<title>Node6</title>
<g id="a_Node000006"><a xlink:title=" ">
<polygon fill="#e0e0e0" stroke="#999999" points="793.62,-30.5 639.62,-30.5 639.62,0 793.62,0 793.62,-30.5"/>
<text xml:space="preserve" text-anchor="start" x="647.62" y="-17" font-family="Helvetica,sans-Serif" font-size="10.00">com.goldenleaf.shop.exception.</text>
<text xml:space="preserve" text-anchor="middle" x="716.62" y="-5.75" font-family="Helvetica,sans-Serif" font-size="10.00">EmptyNameException</text>
</a>
</g>
</g>
<!-- Node1&#45;&gt;Node6 -->
<g id="edge5_Node000001_Node000006" class="edge">
<title>Node1&#45;&gt;Node6</title>
<g id="a_edge5_Node000001_Node000006"><a xlink:title=" ">
<path fill="none" stroke="#63b8ff" d="M1128.61,-72.51C1051.22,-63.45 924.31,-48.06 805.1,-30.83"/>
<polygon fill="#63b8ff" stroke="#63b8ff" points="805.86,-27.4 795.46,-29.43 804.85,-34.33 805.86,-27.4"/>
</a>
</g>
</g>
<!-- Node7 -->
<g id="Node000007" class="node">
<title>Node7</title>
<g id="a_Node000007"><a xlink:title=" ">
<polygon fill="#e0e0e0" stroke="#999999" points="965.62,-30.5 811.62,-30.5 811.62,0 965.62,0 965.62,-30.5"/>
<text xml:space="preserve" text-anchor="start" x="819.62" y="-17" font-family="Helvetica,sans-Serif" font-size="10.00">com.goldenleaf.shop.exception.</text>
<text xml:space="preserve" text-anchor="middle" x="888.62" y="-5.75" font-family="Helvetica,sans-Serif" font-size="10.00">NullCustomerException</text>
</a>
</g>
</g>
<!-- Node1&#45;&gt;Node7 -->
<g id="edge6_Node000001_Node000007" class="edge">
<title>Node1&#45;&gt;Node7</title>
<g id="a_edge6_Node000001_Node000007"><a xlink:title=" ">
<path fill="none" stroke="#63b8ff" d="M1129.44,-66.03C1082.3,-56.29 1020.32,-43.48 971.05,-33.29"/>
<polygon fill="#63b8ff" stroke="#63b8ff" points="971.76,-29.86 961.26,-31.27 970.34,-36.72 971.76,-29.86"/>
</a>
</g>
</g>
<!-- Node8 -->
<g id="Node000008" class="node">
<title>Node8</title>
<g id="a_Node000008"><a xlink:title=" ">
<polygon fill="#e0e0e0" stroke="#999999" points="1119.25,-24.88 984,-24.88 984,-5.63 1119.25,-5.63 1119.25,-24.88"/>
<text xml:space="preserve" text-anchor="middle" x="1051.62" y="-11.38" font-family="Helvetica,sans-Serif" font-size="10.00">jakarta.persistence.Column</text>
</a>
</g>
</g>
<!-- Node1&#45;&gt;Node8 -->
<g id="edge7_Node000001_Node000008" class="edge">
<title>Node1&#45;&gt;Node8</title>
<g id="a_edge7_Node000001_Node000008"><a xlink:title=" ">
<path fill="none" stroke="#63b8ff" d="M1166.81,-66.11C1141.65,-55.22 1107.54,-40.46 1082.98,-29.83"/>
<polygon fill="#63b8ff" stroke="#63b8ff" points="1084.39,-26.62 1073.83,-25.86 1081.61,-33.05 1084.39,-26.62"/>
</a>
</g>
</g>
<!-- Node9 -->
<g id="Node000009" class="node">
<title>Node9</title>
<g id="a_Node000009"><a xlink:title=" ">
<polygon fill="#e0e0e0" stroke="#999999" points="1264.12,-24.88 1137.12,-24.88 1137.12,-5.63 1264.12,-5.63 1264.12,-24.88"/>
<text xml:space="preserve" text-anchor="middle" x="1200.62" y="-11.38" font-family="Helvetica,sans-Serif" font-size="10.00">jakarta.persistence.Entity</text>
</a>
</g>
</g>
<!-- Node1&#45;&gt;Node9 -->
<g id="edge8_Node000001_Node000009" class="edge">
<title>Node1&#45;&gt;Node9</title>
<g id="a_edge8_Node000001_Node000009"><a xlink:title=" ">
<path fill="none" stroke="#63b8ff" d="M1200.62,-66.11C1200.62,-57.33 1200.62,-46.02 1200.62,-36.4"/>
<polygon fill="#63b8ff" stroke="#63b8ff" points="1204.13,-36.59 1200.63,-26.59 1197.13,-36.59 1204.13,-36.59"/>
</a>
</g>
</g>
<!-- Node10 -->
<g id="Node000010" class="node">
<title>Node10</title>
<g id="a_Node000010"><a xlink:title=" ">
<polygon fill="#e0e0e0" stroke="#999999" points="1428.88,-30.5 1282.38,-30.5 1282.38,0 1428.88,0 1428.88,-30.5"/>
<text xml:space="preserve" text-anchor="start" x="1290.38" y="-17" font-family="Helvetica,sans-Serif" font-size="10.00">jakarta.persistence.Generated</text>
<text xml:space="preserve" text-anchor="middle" x="1355.62" y="-5.75" font-family="Helvetica,sans-Serif" font-size="10.00">Value</text>
</a>
</g>
</g>
<!-- Node1&#45;&gt;Node10 -->
<g id="edge9_Node000001_Node000010" class="edge">
<title>Node1&#45;&gt;Node10</title>
<g id="a_edge9_Node000001_Node000010"><a xlink:title=" ">
<path fill="none" stroke="#63b8ff" d="M1235.8,-66.11C1257.72,-56.99 1286.15,-45.16 1309.82,-35.31"/>
<polygon fill="#63b8ff" stroke="#63b8ff" points="1311.04,-38.59 1318.93,-31.52 1308.35,-32.13 1311.04,-38.59"/>
</a>
</g>
</g>
<!-- Node11 -->
<g id="Node000011" class="node">
<title>Node11</title>
<g id="a_Node000011"><a xlink:title=" ">
<polygon fill="#e0e0e0" stroke="#999999" points="1616.5,-24.88 1446.75,-24.88 1446.75,-5.63 1616.5,-5.63 1616.5,-24.88"/>
<text xml:space="preserve" text-anchor="middle" x="1531.62" y="-11.38" font-family="Helvetica,sans-Serif" font-size="10.00">jakarta.persistence.GenerationType</text>
</a>
</g>
</g>
<!-- Node1&#45;&gt;Node11 -->
<g id="edge10_Node000001_Node000011" class="edge">
<title>Node1&#45;&gt;Node11</title>
<g id="a_edge10_Node000001_Node000011"><a xlink:title=" ">
<path fill="none" stroke="#63b8ff" d="M1272.86,-66.67C1333.18,-54.92 1418.06,-38.38 1473.93,-27.49"/>
<polygon fill="#63b8ff" stroke="#63b8ff" points="1474.41,-30.96 1483.56,-25.62 1473.08,-24.09 1474.41,-30.96"/>
</a>
</g>
</g>
<!-- Node12 -->
<g id="Node000012" class="node">
<title>Node12</title>
<g id="a_Node000012"><a xlink:title=" ">
<polygon fill="#e0e0e0" stroke="#999999" points="1744.5,-24.88 1634.75,-24.88 1634.75,-5.63 1744.5,-5.63 1744.5,-24.88"/>
<text xml:space="preserve" text-anchor="middle" x="1689.62" y="-11.38" font-family="Helvetica,sans-Serif" font-size="10.00">jakarta.persistence.Id</text>
</a>
</g>
</g>
<!-- Node1&#45;&gt;Node12 -->
<g id="edge11_Node000001_Node000012" class="edge">
<title>Node1&#45;&gt;Node12</title>
<g id="a_edge11_Node000001_Node000012"><a xlink:title=" ">
<path fill="none" stroke="#63b8ff" d="M1272.76,-74.47C1357.56,-66.57 1502.39,-51.45 1625.62,-30.5 1630.56,-29.66 1635.68,-28.69 1640.78,-27.66"/>
<polygon fill="#63b8ff" stroke="#63b8ff" points="1641.3,-31.13 1650.37,-25.64 1639.86,-24.28 1641.3,-31.13"/>
</a>
</g>
</g>
<!-- Node13 -->
<g id="Node000013" class="node">
<title>Node13</title>
<g id="a_Node000013"><a xlink:title=" ">
<polygon fill="#e0e0e0" stroke="#999999" points="1882.38,-30.5 1762.88,-30.5 1762.88,0 1882.38,0 1882.38,-30.5"/>
<text xml:space="preserve" text-anchor="start" x="1770.88" y="-17" font-family="Helvetica,sans-Serif" font-size="10.00">jakarta.persistence.Join</text>
<text xml:space="preserve" text-anchor="middle" x="1822.62" y="-5.75" font-family="Helvetica,sans-Serif" font-size="10.00">Column</text>
</a>
</g>
</g>
<!-- Node1&#45;&gt;Node13 -->
<g id="edge12_Node000001_Node000013" class="edge">
<title>Node1&#45;&gt;Node13</title>
<g id="a_edge12_Node000001_Node000013"><a xlink:title=" ">
<path fill="none" stroke="#63b8ff" d="M1272.52,-76.82C1376.14,-70.58 1573.66,-56.53 1751.35,-30.72"/>
<polygon fill="#63b8ff" stroke="#63b8ff" points="1751.6,-34.22 1760.99,-29.31 1750.59,-27.3 1751.6,-34.22"/>
</a>
</g>
</g>
<!-- Node14 -->
<g id="Node000014" class="node">
<title>Node14</title>
<g id="a_Node000014"><a xlink:title=" ">
<polygon fill="#e0e0e0" stroke="#999999" points="2026.38,-30.5 1900.88,-30.5 1900.88,0 2026.38,0 2026.38,-30.5"/>
<text xml:space="preserve" text-anchor="start" x="1908.88" y="-17" font-family="Helvetica,sans-Serif" font-size="10.00">jakarta.persistence.Many</text>
<text xml:space="preserve" text-anchor="middle" x="1963.62" y="-5.75" font-family="Helvetica,sans-Serif" font-size="10.00">ToOne</text>
</a>
</g>
</g>
<!-- Node1&#45;&gt;Node14 -->
<g id="edge13_Node000001_Node000014" class="edge">
<title>Node1&#45;&gt;Node14</title>
<g id="a_edge13_Node000001_Node000014"><a xlink:title=" ">
<path fill="none" stroke="#63b8ff" d="M1272.8,-78.42C1396.81,-73.78 1658.47,-61.18 1889.17,-30.71"/>
<polygon fill="#63b8ff" stroke="#63b8ff" points="1889.53,-34.2 1898.98,-29.4 1888.61,-27.26 1889.53,-34.2"/>
</a>
</g>
</g>
<!-- Node15 -->
<g id="Node000015" class="node">
<title>Node15</title>
<g id="a_Node000015"><a xlink:title=" ">
<polygon fill="#e0e0e0" stroke="#999999" points="2189.12,-30.5 2044.12,-30.5 2044.12,0 2189.12,0 2189.12,-30.5"/>
<text xml:space="preserve" text-anchor="start" x="2052.12" y="-17" font-family="Helvetica,sans-Serif" font-size="10.00">jakarta.persistence.Sequence</text>
<text xml:space="preserve" text-anchor="middle" x="2116.62" y="-5.75" font-family="Helvetica,sans-Serif" font-size="10.00">Generator</text>
</a>
</g>
</g>
<!-- Node1&#45;&gt;Node15 -->
<g id="edge14_Node000001_Node000015" class="edge">
<title>Node1&#45;&gt;Node15</title>
<g id="a_edge14_Node000001_Node000015"><a xlink:title=" ">
<path fill="none" stroke="#63b8ff" d="M1272.63,-79.18C1415.7,-75.46 1746.03,-63.87 2032.79,-30.75"/>
<polygon fill="#63b8ff" stroke="#63b8ff" points="2032.79,-34.27 2042.32,-29.64 2031.98,-27.32 2032.79,-34.27"/>
</a>
</g>
</g>
<!-- Node16 -->
<g id="Node000016" class="node">
<title>Node16</title>
<g id="a_Node000016"><a xlink:title=" ">
<polygon fill="#e0e0e0" stroke="#999999" points="2332,-24.88 2207.25,-24.88 2207.25,-5.63 2332,-5.63 2332,-24.88"/>
<text xml:space="preserve" text-anchor="middle" x="2269.62" y="-11.38" font-family="Helvetica,sans-Serif" font-size="10.00">jakarta.persistence.Table</text>
</a>
</g>
</g>
<!-- Node1&#45;&gt;Node16 -->
<g id="edge15_Node000001_Node000016" class="edge">
<title>Node1&#45;&gt;Node16</title>
<g id="a_edge15_Node000001_Node000016"><a xlink:title=" ">
<path fill="none" stroke="#63b8ff" d="M1272.65,-80.76C1437.31,-80 1853.68,-73.56 2198.62,-30.5 2205.1,-29.69 2211.86,-28.63 2218.54,-27.44"/>
<polygon fill="#63b8ff" stroke="#63b8ff" points="2218.95,-30.92 2228.13,-25.63 2217.65,-24.04 2218.95,-30.92"/>
</a>
</g>
</g>
</g>
</svg>
