<?xml version="1.0" encoding="UTF-8" standalone="no"?>
<!DOCTYPE svg PUBLIC "-//W3C//DTD SVG 1.1//EN"
 "http://www.w3.org/Graphics/SVG/1.1/DTD/svg11.dtd">
<!-- Generated by graphviz version 14.0.4 (20251115.1723)
 -->
<!-- Title: src/main/java/com/goldenleaf/shop/service/CreditCardService.java Pages: 1 -->
<!--zoomable 105 -->

<svg id="main" version="1.1" xmlns="http://www.w3.org/2000/svg" xmlns:xlink="http://www.w3.org/1999/xlink" xml:space="preserve" onload="init(evt)">

<style type="text/css"><![CDATA[
.node, .edge {opacity: 0.7;}
.node.selected, .edge.selected {opacity: 1;}
.edge:hover path { stroke: red; }
.edge:hover polygon { stroke: red; fill: red; }
]]></style>

<defs>
  <circle id="rim" cx="0" cy="0" r="7"/>
  <circle id="rim2" cx="0" cy="0" r="3.5"/>
  <g id="zoomPlus">
    <use xlink:href="#rim" fill="#404040"><set attributeName="fill" to="#808080" begin="zoomplus.mouseover" end="zoomplus.mouseout"/></use>
    <path d="M-4,0h8M0,-4v8" fill="none" stroke="white" stroke-width="1.5" pointer-events="none"/>
  </g>
  <g id="zoomMin">
    <use xlink:href="#rim" fill="#404040"><set attributeName="fill" to="#808080" begin="zoomminus.mouseover" end="zoomminus.mouseout"/></use>
    <path d="M-4,0h8" fill="none" stroke="white" stroke-width="1.5" pointer-events="none"/>
  </g>
  <g id="arrowUp" transform="translate(30 24)">
    <use xlink:href="#rim"/>
    <path pointer-events="none" fill="none" stroke="white" stroke-width="1.5" d="M0,-3.0v7 M-2.5,-0.5L0,-3.0L2.5,-0.5"/>
  </g>
  <g id="arrowRight" transform="rotate(90) translate(36 -43)">
    <use xlink:href="#rim"/>
    <path pointer-events="none" fill="none" stroke="white" stroke-width="1.5" d="M0,-3.0v7 M-2.5,-0.5L0,-3.0L2.5,-0.5"/>
  </g>
  <g id="arrowDown" transform="rotate(180) translate(-30 -48)">
    <use xlink:href="#rim"/>
    <path pointer-events="none" fill="none" stroke="white" stroke-width="1.5" d="M0,-3.0v7 M-2.5,-0.5L0,-3.0L2.5,-0.5"/>
  </g>
  <g id="arrowLeft" transform="rotate(270) translate(-36 17)">
    <use xlink:href="#rim"/>
    <path pointer-events="none" fill="none" stroke="white" stroke-width="1.5" d="M0,-3.0v7 M-2.5,-0.5L0,-3.0L2.5,-0.5"/>
  </g>
  <g id="resetDef">
    <use xlink:href="#rim2" fill="#404040"><set attributeName="fill" to="#808080" begin="reset.mouseover" end="reset.mouseout"/></use>
  </g>
</defs>
<script type="application/ecmascript">
var viewWidth = 926;
var viewHeight = 105;
var sectionId = 'dynsection-0';
</script>
<script type="application/ecmascript" xlink:href="svg.min.js"/>
<svg id="graph" class="graph">
<g id="viewport">
<title>src/main/java/com/goldenleaf/shop/service/CreditCardService.java</title>
<!-- Node1 -->
<g id="Node000001" class="node">
<title>Node1</title>
<g id="a_Node000001"><a xlink:title=" ">
<polygon fill="#999999" stroke="#666666" points="501.62,-97 322.88,-97 322.88,-66.5 501.62,-66.5 501.62,-97"/>
<text xml:space="preserve" text-anchor="start" x="330.88" y="-83.5" font-family="Helvetica,sans-Serif" font-size="10.00">src/main/java/com/goldenleaf</text>
<text xml:space="preserve" text-anchor="middle" x="412.25" y="-72.25" font-family="Helvetica,sans-Serif" font-size="10.00">/shop/service/CreditCardService.java</text>
</a>
</g>
</g>
<!-- Node2 -->
<g id="Node000002" class="node">
<title>Node2</title>
<g id="a_Node000002"><a xlink:title=" ">
<polygon fill="#e0e0e0" stroke="#999999" points="68.5,-24.88 0,-24.88 0,-5.63 68.5,-5.63 68.5,-24.88"/>
<text xml:space="preserve" text-anchor="middle" x="34.25" y="-11.38" font-family="Helvetica,sans-Serif" font-size="10.00">java.util.List</text>
</a>
</g>
</g>
<!-- Node1&#45;&gt;Node2 -->
<g id="edge1_Node000001_Node000002" class="edge">
<title>Node1&#45;&gt;Node2</title>
<g id="a_edge1_Node000001_Node000002"><a xlink:title=" ">
<path fill="none" stroke="#63b8ff" d="M322.58,-71.52C254.66,-63.52 159.33,-50.1 77.25,-30.5 74.83,-29.92 72.34,-29.27 69.85,-28.57"/>
<polygon fill="#63b8ff" stroke="#63b8ff" points="71.09,-25.28 60.5,-25.71 69.04,-31.98 71.09,-25.28"/>
</a>
</g>
</g>
<!-- Node3 -->
<g id="Node000003" class="node">
<title>Node3</title>
<g id="a_Node000003"><a xlink:title=" ">
<polygon fill="#e0e0e0" stroke="#999999" points="242.38,-30.5 86.12,-30.5 86.12,0 242.38,0 242.38,-30.5"/>
<text xml:space="preserve" text-anchor="start" x="94.12" y="-17" font-family="Helvetica,sans-Serif" font-size="10.00">org.springframework.stereotype.</text>
<text xml:space="preserve" text-anchor="middle" x="164.25" y="-5.75" font-family="Helvetica,sans-Serif" font-size="10.00">Service</text>
</a>
</g>
</g>
<!-- Node1&#45;&gt;Node3 -->
<g id="edge2_Node000001_Node000003" class="edge">
<title>Node1&#45;&gt;Node3</title>
<g id="a_edge2_Node000001_Node000003"><a xlink:title=" ">
<path fill="none" stroke="#63b8ff" d="M355.66,-66.03C318.68,-56.42 270.21,-43.81 231.3,-33.69"/>
<polygon fill="#63b8ff" stroke="#63b8ff" points="232.62,-30.41 222.06,-31.28 230.85,-37.19 232.62,-30.41"/>
</a>
</g>
</g>
<!-- Node4 -->
<g id="Node000004" class="node">
<title>Node4</title>
<g id="a_Node000004"><a xlink:title=" ">
<polygon fill="#e0e0e0" stroke="#999999" points="398.38,-30.5 260.12,-30.5 260.12,0 398.38,0 398.38,-30.5"/>
<text xml:space="preserve" text-anchor="start" x="268.12" y="-17" font-family="Helvetica,sans-Serif" font-size="10.00">com.goldenleaf.shop.model.</text>
<text xml:space="preserve" text-anchor="middle" x="329.25" y="-5.75" font-family="Helvetica,sans-Serif" font-size="10.00">CreditCard</text>
</a>
</g>
</g>
<!-- Node1&#45;&gt;Node4 -->
<g id="edge3_Node000001_Node000004" class="edge">
<title>Node1&#45;&gt;Node4</title>
<g id="a_edge3_Node000001_Node000004"><a xlink:title=" ">
<path fill="none" stroke="#63b8ff" d="M393.42,-66.11C382.59,-57.7 368.8,-46.98 356.78,-37.64"/>
<polygon fill="#63b8ff" stroke="#63b8ff" points="359.25,-35.13 349.2,-31.76 354.95,-40.66 359.25,-35.13"/>
</a>
</g>
</g>
<!-- Node5 -->
<g id="Node000005" class="node">
<title>Node5</title>
<g id="a_Node000005"><a xlink:title=" ">
<polygon fill="#e0e0e0" stroke="#999999" points="575.88,-24.88 416.62,-24.88 416.62,-5.63 575.88,-5.63 575.88,-24.88"/>
<text xml:space="preserve" text-anchor="middle" x="496.25" y="-11.38" font-family="Helvetica,sans-Serif" font-size="10.00">com.goldenleaf.shop.model.User</text>
</a>
</g>
</g>
<!-- Node1&#45;&gt;Node5 -->
<g id="edge4_Node000001_Node000005" class="edge">
<title>Node1&#45;&gt;Node5</title>
<g id="a_edge4_Node000001_Node000005"><a xlink:title=" ">
<path fill="none" stroke="#63b8ff" d="M431.31,-66.11C444.55,-55.94 462.19,-42.41 475.74,-32"/>
<polygon fill="#63b8ff" stroke="#63b8ff" points="477.76,-34.86 483.56,-25.99 473.5,-29.31 477.76,-34.86"/>
</a>
</g>
</g>
<!-- Node6 -->
<g id="Node000006" class="node">
<title>Node6</title>
<g id="a_Node000006"><a xlink:title=" ">
<polygon fill="#e0e0e0" stroke="#999999" points="746.88,-30.5 593.62,-30.5 593.62,0 746.88,0 746.88,-30.5"/>
<text xml:space="preserve" text-anchor="start" x="601.62" y="-17" font-family="Helvetica,sans-Serif" font-size="10.00">com.goldenleaf.shop.repository.</text>
<text xml:space="preserve" text-anchor="middle" x="670.25" y="-5.75" font-family="Helvetica,sans-Serif" font-size="10.00">CreditCardRepository</text>
</a>
</g>
</g>
<!-- Node1&#45;&gt;Node6 -->
<g id="edge5_Node000001_Node000006" class="edge">
<title>Node1&#45;&gt;Node6</title>
<g id="a_edge5_Node000001_Node000006"><a xlink:title=" ">
<path fill="none" stroke="#63b8ff" d="M471.12,-66.03C509.59,-56.42 560.02,-43.81 600.5,-33.69"/>
<polygon fill="#63b8ff" stroke="#63b8ff" points="601.31,-37.09 610.17,-31.27 599.62,-30.3 601.31,-37.09"/>
</a>
</g>
</g>
<!-- Node7 -->
<g id="Node000007" class="node">
<title>Node7</title>
<g id="a_Node000007"><a xlink:title=" ">
<polygon fill="#e0e0e0" stroke="#999999" points="917.88,-30.5 764.62,-30.5 764.62,0 917.88,0 917.88,-30.5"/>
<text xml:space="preserve" text-anchor="start" x="772.62" y="-17" font-family="Helvetica,sans-Serif" font-size="10.00">com.goldenleaf.shop.repository.</text>
<text xml:space="preserve" text-anchor="middle" x="841.25" y="-5.75" font-family="Helvetica,sans-Serif" font-size="10.00">CustomerRepository</text>
</a>
</g>
</g>
<!-- Node1&#45;&gt;Node7 -->
<g id="edge6_Node000001_Node000007" class="edge">
<title>Node1&#45;&gt;Node7</title>
<g id="a_edge6_Node000001_Node000007"><a xlink:title=" ">
<path fill="none" stroke="#63b8ff" d="M501.78,-68.2C568.47,-58.73 662.08,-45.17 752.99,-30.99"/>
<polygon fill="#63b8ff" stroke="#63b8ff" points="753.52,-34.45 762.86,-29.45 752.43,-27.54 753.52,-34.45"/>
</a>
</g>
</g>
</g>
</svg>

<g id="navigator" transform="translate(0 0)" fill="#404254">
  <rect fill="#f2f5e9" fill-opacity="0.5" stroke="#606060" stroke-width=".5" x="0" y="0" width="60" height="60"/>
  <use id="zoomplus" xlink:href="#zoomPlus" x="17" y="9" onmousedown="handleZoom(evt,'in')"/>
  <use id="zoomminus" xlink:href="#zoomMin" x="42" y="9" onmousedown="handleZoom(evt,'out')"/>
  <use id="reset" xlink:href="#resetDef" x="30" y="36" onmousedown="handleReset()"/>
   <use id="arrowup" xlink:href="#arrowUp" x="0" y="0" onmousedown="handlePan(0,-1)"/>
  <use id="arrowright" xlink:href="#arrowRight" x="0" y="0" onmousedown="handlePan(1,0)"/>
  <use id="arrowdown" xlink:href="#arrowDown" x="0" y="0" onmousedown="handlePan(0,1)"/>
  <use id="arrowleft" xlink:href="#arrowLeft" x="0" y="0" onmousedown="handlePan(-1,0)"/>
</g>
<svg viewBox="0 0 15 15" width="100%" height="30px" preserveAspectRatio="xMaxYMin meet">
 <g id="arrow_out" transform="scale(0.3 0.3)">
  <a xlink:href="_credit_card_service_8java__incl_org.svg" target="_base">
   <rect id="button" ry="5" rx="5" y="6" x="6" height="38" width="38"
        fill="#f2f5e9" fill-opacity="0.5" stroke="#606060" stroke-width="1.0"/>
   <path id="arrow"
     d="M 11.500037,31.436501 C 11.940474,20.09759 22.043105,11.32322 32.158766,21.979434 L 37.068811,17.246167 C 37.068811,17.246167 37.088388,32 37.088388,32 L 22.160133,31.978069 C 22.160133,31.978069 26.997745,27.140456 26.997745,27.140456 C 18.528582,18.264221 13.291696,25.230495 11.500037,31.436501 z"
     style="fill:#404040;"/>
  </a>
 </g>
</svg>

<style type='text/css'>
<![CDATA[
[data-mouse-over-selected='false'] { opacity: 0.7; }
[data-mouse-over-selected='true']  { opacity: 1.0; }
]]>
</style>
<script type="application/ecmascript"><![CDATA[
document.addEventListener('DOMContentLoaded', (event) => {
  highlightEdges();
  highlightAdjacentNodes();
});
]]></script>
</svg>
