<?xml version="1.0" encoding="UTF-8" standalone="no"?>
<!DOCTYPE svg PUBLIC "-//W3C//DTD SVG 1.1//EN"
 "http://www.w3.org/Graphics/SVG/1.1/DTD/svg11.dtd">
<!-- Generated by graphviz version 14.0.4 (20251115.1723)
 -->
<!-- Title: src/main/java/com/goldenleaf/shop/service/CreditCardService.java Pages: 1 -->
<svg width="926pt" height="105pt"
 viewBox="0.00 0.00 926.00 105.00" xmlns="http://www.w3.org/2000/svg" xmlns:xlink="http://www.w3.org/1999/xlink">
<g id="graph0" class="graph" transform="scale(1 1) rotate(0) translate(4 101)">
<title>src/main/java/com/goldenleaf/shop/service/CreditCardService.java</title>
<!-- Node1 -->
<g id="Node000001" class="node">
<title>Node1</title>
<g id="a_Node000001"><a xlink:title=" ">
<polygon fill="#999999" stroke="#666666" points="501.62,-97 322.88,-97 322.88,-66.5 501.62,-66.5 501.62,-97"/>
<text xml:space="preserve" text-anchor="start" x="330.88" y="-83.5" font-family="Helvetica,sans-Serif" font-size="10.00">src/main/java/com/goldenleaf</text>
<text xml:space="preserve" text-anchor="middle" x="412.25" y="-72.25" font-family="Helvetica,sans-Serif" font-size="10.00">/shop/service/CreditCardService.java</text>
</a>
</g>
</g>
<!-- Node2 -->
<g id="Node000002" class="node">
<title>Node2</title>
<g id="a_Node000002"><a xlink:title=" ">
<polygon fill="#e0e0e0" stroke="#999999" points="68.5,-24.88 0,-24.88 0,-5.63 68.5,-5.63 68.5,-24.88"/>
<text xml:space="preserve" text-anchor="middle" x="34.25" y="-11.38" font-family="Helvetica,sans-Serif" font-size="10.00">java.util.List</text>
</a>
</g>
</g>
<!-- Node1&#45;&gt;Node2 -->
<g id="edge1_Node000001_Node000002" class="edge">
<title>Node1&#45;&gt;Node2</title>
<g id="a_edge1_Node000001_Node000002"><a xlink:title=" ">
<path fill="none" stroke="#63b8ff" d="M322.58,-71.52C254.66,-63.52 159.33,-50.1 77.25,-30.5 74.83,-29.92 72.34,-29.27 69.85,-28.57"/>
<polygon fill="#63b8ff" stroke="#63b8ff" points="71.09,-25.28 60.5,-25.71 69.04,-31.98 71.09,-25.28"/>
</a>
</g>
</g>
<!-- Node3 -->
<g id="Node000003" class="node">
<title>Node3</title>
<g id="a_Node000003"><a xlink:title=" ">
<polygon fill="#e0e0e0" stroke="#999999" points="242.38,-30.5 86.12,-30.5 86.12,0 242.38,0 242.38,-30.5"/>
<text xml:space="preserve" text-anchor="start" x="94.12" y="-17" font-family="Helvetica,sans-Serif" font-size="10.00">org.springframework.stereotype.</text>
<text xml:space="preserve" text-anchor="middle" x="164.25" y="-5.75" font-family="Helvetica,sans-Serif" font-size="10.00">Service</text>
</a>
</g>
</g>
<!-- Node1&#45;&gt;Node3 -->
<g id="edge2_Node000001_Node000003" class="edge">
<title>Node1&#45;&gt;Node3</title>
<g id="a_edge2_Node000001_Node000003"><a xlink:title=" ">
<path fill="none" stroke="#63b8ff" d="M355.66,-66.03C318.68,-56.42 270.21,-43.81 231.3,-33.69"/>
<polygon fill="#63b8ff" stroke="#63b8ff" points="232.62,-30.41 222.06,-31.28 230.85,-37.19 232.62,-30.41"/>
</a>
</g>
</g>
<!-- Node4 -->
<g id="Node000004" class="node">
<title>Node4</title>
<g id="a_Node000004"><a xlink:title=" ">
<polygon fill="#e0e0e0" stroke="#999999" points="398.38,-30.5 260.12,-30.5 260.12,0 398.38,0 398.38,-30.5"/>
<text xml:space="preserve" text-anchor="start" x="268.12" y="-17" font-family="Helvetica,sans-Serif" font-size="10.00">com.goldenleaf.shop.model.</text>
<text xml:space="preserve" text-anchor="middle" x="329.25" y="-5.75" font-family="Helvetica,sans-Serif" font-size="10.00">CreditCard</text>
</a>
</g>
</g>
<!-- Node1&#45;&gt;Node4 -->
<g id="edge3_Node000001_Node000004" class="edge">
<title>Node1&#45;&gt;Node4</title>
<g id="a_edge3_Node000001_Node000004"><a xlink:title=" ">
<path fill="none" stroke="#63b8ff" d="M393.42,-66.11C382.59,-57.7 368.8,-46.98 356.78,-37.64"/>
<polygon fill="#63b8ff" stroke="#63b8ff" points="359.25,-35.13 349.2,-31.76 354.95,-40.66 359.25,-35.13"/>
</a>
</g>
</g>
<!-- Node5 -->
<g id="Node000005" class="node">
<title>Node5</title>
<g id="a_Node000005"><a xlink:title=" ">
<polygon fill="#e0e0e0" stroke="#999999" points="575.88,-24.88 416.62,-24.88 416.62,-5.63 575.88,-5.63 575.88,-24.88"/>
<text xml:space="preserve" text-anchor="middle" x="496.25" y="-11.38" font-family="Helvetica,sans-Serif" font-size="10.00">com.goldenleaf.shop.model.User</text>
</a>
</g>
</g>
<!-- Node1&#45;&gt;Node5 -->
<g id="edge4_Node000001_Node000005" class="edge">
<title>Node1&#45;&gt;Node5</title>
<g id="a_edge4_Node000001_Node000005"><a xlink:title=" ">
<path fill="none" stroke="#63b8ff" d="M431.31,-66.11C444.55,-55.94 462.19,-42.41 475.74,-32"/>
<polygon fill="#63b8ff" stroke="#63b8ff" points="477.76,-34.86 483.56,-25.99 473.5,-29.31 477.76,-34.86"/>
</a>
</g>
</g>
<!-- Node6 -->
<g id="Node000006" class="node">
<title>Node6</title>
<g id="a_Node000006"><a xlink:title=" ">
<polygon fill="#e0e0e0" stroke="#999999" points="746.88,-30.5 593.62,-30.5 593.62,0 746.88,0 746.88,-30.5"/>
<text xml:space="preserve" text-anchor="start" x="601.62" y="-17" font-family="Helvetica,sans-Serif" font-size="10.00">com.goldenleaf.shop.repository.</text>
<text xml:space="preserve" text-anchor="middle" x="670.25" y="-5.75" font-family="Helvetica,sans-Serif" font-size="10.00">CreditCardRepository</text>
</a>
</g>
</g>
<!-- Node1&#45;&gt;Node6 -->
<g id="edge5_Node000001_Node000006" class="edge">
<title>Node1&#45;&gt;Node6</title>
<g id="a_edge5_Node000001_Node000006"><a xlink:title=" ">
<path fill="none" stroke="#63b8ff" d="M471.12,-66.03C509.59,-56.42 560.02,-43.81 600.5,-33.69"/>
<polygon fill="#63b8ff" stroke="#63b8ff" points="601.31,-37.09 610.17,-31.27 599.62,-30.3 601.31,-37.09"/>
</a>
</g>
</g>
<!-- Node7 -->
<g id="Node000007" class="node">
<title>Node7</title>
<g id="a_Node000007"><a xlink:title=" ">
<polygon fill="#e0e0e0" stroke="#999999" points="917.88,-30.5 764.62,-30.5 764.62,0 917.88,0 917.88,-30.5"/>
<text xml:space="preserve" text-anchor="start" x="772.62" y="-17" font-family="Helvetica,sans-Serif" font-size="10.00">com.goldenleaf.shop.repository.</text>
<text xml:space="preserve" text-anchor="middle" x="841.25" y="-5.75" font-family="Helvetica,sans-Serif" font-size="10.00">CustomerRepository</text>
</a>
</g>
</g>
<!-- Node1&#45;&gt;Node7 -->
<g id="edge6_Node000001_Node000007" class="edge">
<title>Node1&#45;&gt;Node7</title>
<g id="a_edge6_Node000001_Node000007"><a xlink:title=" ">
<path fill="none" stroke="#63b8ff" d="M501.78,-68.2C568.47,-58.73 662.08,-45.17 752.99,-30.99"/>
<polygon fill="#63b8ff" stroke="#63b8ff" points="753.52,-34.45 762.86,-29.45 752.43,-27.54 753.52,-34.45"/>
</a>
</g>
</g>
</g>
</svg>
