<?xml version="1.0" encoding="UTF-8" standalone="no"?>
<!DOCTYPE svg PUBLIC "-//W3C//DTD SVG 1.1//EN"
 "http://www.w3.org/Graphics/SVG/1.1/DTD/svg11.dtd">
<!-- Generated by graphviz version 14.0.4 (20251115.1723)
 -->
<!-- Title: src/main/java/com/goldenleaf/shop/model/Customer.java Pages: 1 -->
<svg width="3122pt" height="105pt"
 viewBox="0.00 0.00 3122.00 105.00" xmlns="http://www.w3.org/2000/svg" xmlns:xlink="http://www.w3.org/1999/xlink">
<g id="graph0" class="graph" transform="scale(1 1) rotate(0) translate(4 101)">
<title>src/main/java/com/goldenleaf/shop/model/Customer.java</title>
<!-- Node1 -->
<g id="Node000001" class="node">
<title>Node1</title>
<g id="a_Node000001"><a xlink:title=" ">
<polygon fill="#999999" stroke="#666666" points="1583.25,-97 1439.75,-97 1439.75,-66.5 1583.25,-66.5 1583.25,-97"/>
<text xml:space="preserve" text-anchor="start" x="1447.75" y="-83.5" font-family="Helvetica,sans-Serif" font-size="10.00">src/main/java/com/goldenleaf</text>
<text xml:space="preserve" text-anchor="middle" x="1511.5" y="-72.25" font-family="Helvetica,sans-Serif" font-size="10.00">/shop/model/Customer.java</text>
</a>
</g>
</g>
<!-- Node2 -->
<g id="Node000002" class="node">
<title>Node2</title>
<g id="a_Node000002"><a xlink:title=" ">
<polygon fill="#e0e0e0" stroke="#999999" points="103,-24.88 0,-24.88 0,-5.63 103,-5.63 103,-24.88"/>
<text xml:space="preserve" text-anchor="middle" x="51.5" y="-11.38" font-family="Helvetica,sans-Serif" font-size="10.00">java.time.LocalDate</text>
</a>
</g>
</g>
<!-- Node1&#45;&gt;Node2 -->
<g id="edge1_Node000001_Node000002" class="edge">
<title>Node1&#45;&gt;Node2</title>
<g id="a_edge1_Node000001_Node000002"><a xlink:title=" ">
<path fill="none" stroke="#63b8ff" d="M1439.57,-80.04C1191.42,-77.31 372.1,-65.77 111.5,-30.5 106.27,-29.79 100.83,-28.83 95.46,-27.73"/>
<polygon fill="#63b8ff" stroke="#63b8ff" points="96.6,-24.4 86.08,-25.67 95.1,-31.24 96.6,-24.4"/>
</a>
</g>
</g>
<!-- Node3 -->
<g id="Node000003" class="node">
<title>Node3</title>
<g id="a_Node000003"><a xlink:title=" ">
<polygon fill="#e0e0e0" stroke="#999999" points="212.38,-24.88 120.62,-24.88 120.62,-5.63 212.38,-5.63 212.38,-24.88"/>
<text xml:space="preserve" text-anchor="middle" x="166.5" y="-11.38" font-family="Helvetica,sans-Serif" font-size="10.00">java.util.ArrayList</text>
</a>
</g>
</g>
<!-- Node1&#45;&gt;Node3 -->
<g id="edge2_Node000001_Node000003" class="edge">
<title>Node1&#45;&gt;Node3</title>
<g id="a_edge2_Node000001_Node000003"><a xlink:title=" ">
<path fill="none" stroke="#63b8ff" d="M1439.54,-79.98C1204.26,-77.13 459.31,-65.52 221.5,-30.5 217.07,-29.85 212.48,-28.98 207.93,-27.99"/>
<polygon fill="#63b8ff" stroke="#63b8ff" points="208.82,-24.6 198.28,-25.69 207.2,-31.41 208.82,-24.6"/>
</a>
</g>
</g>
<!-- Node4 -->
<g id="Node000004" class="node">
<title>Node4</title>
<g id="a_Node000004"><a xlink:title=" ">
<polygon fill="#e0e0e0" stroke="#999999" points="298.75,-24.88 230.25,-24.88 230.25,-5.63 298.75,-5.63 298.75,-24.88"/>
<text xml:space="preserve" text-anchor="middle" x="264.5" y="-11.38" font-family="Helvetica,sans-Serif" font-size="10.00">java.util.List</text>
</a>
</g>
</g>
<!-- Node1&#45;&gt;Node4 -->
<g id="edge3_Node000001_Node000004" class="edge">
<title>Node1&#45;&gt;Node4</title>
<g id="a_edge3_Node000001_Node000004"><a xlink:title=" ">
<path fill="none" stroke="#63b8ff" d="M1439.56,-80.37C1214.63,-78.75 526.67,-70.58 307.5,-30.5 304.66,-29.98 301.74,-29.32 298.84,-28.56"/>
<polygon fill="#63b8ff" stroke="#63b8ff" points="299.88,-25.22 289.3,-25.73 297.89,-31.93 299.88,-25.22"/>
</a>
</g>
</g>
<!-- Node5 -->
<g id="Node000005" class="node">
<title>Node5</title>
<g id="a_Node000005"><a xlink:title=" ">
<polygon fill="#e0e0e0" stroke="#999999" points="470.5,-30.5 316.5,-30.5 316.5,0 470.5,0 470.5,-30.5"/>
<text xml:space="preserve" text-anchor="start" x="324.5" y="-17" font-family="Helvetica,sans-Serif" font-size="10.00">com.goldenleaf.shop.exception.</text>
<text xml:space="preserve" text-anchor="middle" x="393.5" y="-5.75" font-family="Helvetica,sans-Serif" font-size="10.00">EmptyAuthorException</text>
</a>
</g>
</g>
<!-- Node1&#45;&gt;Node5 -->
<g id="edge4_Node000001_Node000005" class="edge">
<title>Node1&#45;&gt;Node5</title>
<g id="a_edge4_Node000001_Node000005"><a xlink:title=" ">
<path fill="none" stroke="#63b8ff" d="M1439.34,-80.1C1272.55,-77.98 847.3,-69.03 482.13,-30.69"/>
<polygon fill="#63b8ff" stroke="#63b8ff" points="482.62,-27.22 472.3,-29.65 481.88,-34.19 482.62,-27.22"/>
</a>
</g>
</g>
<!-- Node6 -->
<g id="Node000006" class="node">
<title>Node6</title>
<g id="a_Node000006"><a xlink:title=" ">
<polygon fill="#e0e0e0" stroke="#999999" points="642.5,-30.5 488.5,-30.5 488.5,0 642.5,0 642.5,-30.5"/>
<text xml:space="preserve" text-anchor="start" x="496.5" y="-17" font-family="Helvetica,sans-Serif" font-size="10.00">com.goldenleaf.shop.exception.</text>
<text xml:space="preserve" text-anchor="middle" x="565.5" y="-5.75" font-family="Helvetica,sans-Serif" font-size="10.00">EmptyContentException</text>
</a>
</g>
</g>
<!-- Node1&#45;&gt;Node6 -->
<g id="edge5_Node000001_Node000006" class="edge">
<title>Node1&#45;&gt;Node6</title>
<g id="a_edge5_Node000001_Node000006"><a xlink:title=" ">
<path fill="none" stroke="#63b8ff" d="M1439.36,-79.11C1293.16,-75.23 951.28,-63.32 654.24,-30.72"/>
<polygon fill="#63b8ff" stroke="#63b8ff" points="654.63,-27.25 644.31,-29.62 653.86,-34.2 654.63,-27.25"/>
</a>
</g>
</g>
<!-- Node7 -->
<g id="Node000007" class="node">
<title>Node7</title>
<g id="a_Node000007"><a xlink:title=" ">
<polygon fill="#e0e0e0" stroke="#999999" points="814.5,-30.5 660.5,-30.5 660.5,0 814.5,0 814.5,-30.5"/>
<text xml:space="preserve" text-anchor="start" x="668.5" y="-17" font-family="Helvetica,sans-Serif" font-size="10.00">com.goldenleaf.shop.exception.</text>
<text xml:space="preserve" text-anchor="middle" x="737.5" y="-5.75" font-family="Helvetica,sans-Serif" font-size="10.00">EmptyProductException</text>
</a>
</g>
</g>
<!-- Node1&#45;&gt;Node7 -->
<g id="edge6_Node000001_Node000007" class="edge">
<title>Node1&#45;&gt;Node7</title>
<g id="a_edge6_Node000001_Node000007"><a xlink:title=" ">
<path fill="none" stroke="#63b8ff" d="M1439.48,-77.66C1316.05,-71.88 1055.93,-57.64 826.08,-30.73"/>
<polygon fill="#63b8ff" stroke="#63b8ff" points="826.65,-27.28 816.31,-29.58 825.83,-34.23 826.65,-27.28"/>
</a>
</g>
</g>
<!-- Node8 -->
<g id="Node000008" class="node">
<title>Node8</title>
<g id="a_Node000008"><a xlink:title=" ">
<polygon fill="#e0e0e0" stroke="#999999" points="986.5,-30.5 832.5,-30.5 832.5,0 986.5,0 986.5,-30.5"/>
<text xml:space="preserve" text-anchor="start" x="840.5" y="-17" font-family="Helvetica,sans-Serif" font-size="10.00">com.goldenleaf.shop.exception.</text>
<text xml:space="preserve" text-anchor="middle" x="909.5" y="-5.75" font-family="Helvetica,sans-Serif" font-size="10.00">EmptyShoppingCartException</text>
</a>
</g>
</g>
<!-- Node1&#45;&gt;Node8 -->
<g id="edge7_Node000001_Node000008" class="edge">
<title>Node1&#45;&gt;Node8</title>
<g id="a_edge7_Node000001_Node000008"><a xlink:title=" ">
<path fill="none" stroke="#63b8ff" d="M1439.54,-75.28C1341.9,-67.51 1161.78,-51.97 998.08,-30.78"/>
<polygon fill="#63b8ff" stroke="#63b8ff" points="998.69,-27.33 988.32,-29.51 997.78,-34.27 998.69,-27.33"/>
</a>
</g>
</g>
<!-- Node9 -->
<g id="Node000009" class="node">
<title>Node9</title>
<g id="a_Node000009"><a xlink:title=" ">
<polygon fill="#e0e0e0" stroke="#999999" points="1158.5,-30.5 1004.5,-30.5 1004.5,0 1158.5,0 1158.5,-30.5"/>
<text xml:space="preserve" text-anchor="start" x="1012.5" y="-17" font-family="Helvetica,sans-Serif" font-size="10.00">com.goldenleaf.shop.exception.</text>
<text xml:space="preserve" text-anchor="middle" x="1081.5" y="-5.75" font-family="Helvetica,sans-Serif" font-size="10.00">IncorrectBonusPointsValue</text>
</a>
</g>
</g>
<!-- Node1&#45;&gt;Node9 -->
<g id="edge8_Node000001_Node000009" class="edge">
<title>Node1&#45;&gt;Node9</title>
<g id="a_edge8_Node000001_Node000009"><a xlink:title=" ">
<path fill="none" stroke="#63b8ff" d="M1439.29,-70.61C1372.16,-61.09 1269.06,-46.24 1169.97,-30.87"/>
<polygon fill="#63b8ff" stroke="#63b8ff" points="1170.76,-27.45 1160.34,-29.37 1169.68,-34.37 1170.76,-27.45"/>
</a>
</g>
</g>
<!-- Node10 -->
<g id="Node000010" class="node">
<title>Node10</title>
<g id="a_Node000010"><a xlink:title=" ">
<polygon fill="#e0e0e0" stroke="#999999" points="1330.5,-30.5 1176.5,-30.5 1176.5,0 1330.5,0 1330.5,-30.5"/>
<text xml:space="preserve" text-anchor="start" x="1184.5" y="-17" font-family="Helvetica,sans-Serif" font-size="10.00">com.goldenleaf.shop.exception.</text>
<text xml:space="preserve" text-anchor="middle" x="1253.5" y="-5.75" font-family="Helvetica,sans-Serif" font-size="10.00">IncorrectEmailException</text>
</a>
</g>
</g>
<!-- Node1&#45;&gt;Node10 -->
<g id="edge9_Node000001_Node000010" class="edge">
<title>Node1&#45;&gt;Node10</title>
<g id="a_edge9_Node000001_Node000010"><a xlink:title=" ">
<path fill="none" stroke="#63b8ff" d="M1452.63,-66.03C1414.16,-56.42 1363.73,-43.81 1323.25,-33.69"/>
<polygon fill="#63b8ff" stroke="#63b8ff" points="1324.13,-30.3 1313.58,-31.27 1322.44,-37.09 1324.13,-30.3"/>
</a>
</g>
</g>
<!-- Node11 -->
<g id="Node000011" class="node">
<title>Node11</title>
<g id="a_Node000011"><a xlink:title=" ">
<polygon fill="#e0e0e0" stroke="#999999" points="1502.5,-30.5 1348.5,-30.5 1348.5,0 1502.5,0 1502.5,-30.5"/>
<text xml:space="preserve" text-anchor="start" x="1356.5" y="-17" font-family="Helvetica,sans-Serif" font-size="10.00">com.goldenleaf.shop.exception.</text>
<text xml:space="preserve" text-anchor="middle" x="1425.5" y="-5.75" font-family="Helvetica,sans-Serif" font-size="10.00">IncorrectMobileException</text>
</a>
</g>
</g>
<!-- Node1&#45;&gt;Node11 -->
<g id="edge10_Node000001_Node000011" class="edge">
<title>Node1&#45;&gt;Node11</title>
<g id="a_edge10_Node000001_Node000011"><a xlink:title=" ">
<path fill="none" stroke="#63b8ff" d="M1491.99,-66.11C1480.77,-57.7 1466.48,-46.98 1454.02,-37.64"/>
<polygon fill="#63b8ff" stroke="#63b8ff" points="1456.25,-34.94 1446.15,-31.74 1452.05,-40.54 1456.25,-34.94"/>
</a>
</g>
</g>
<!-- Node12 -->
<g id="Node000012" class="node">
<title>Node12</title>
<g id="a_Node000012"><a xlink:title=" ">
<polygon fill="#e0e0e0" stroke="#999999" points="1674.5,-30.5 1520.5,-30.5 1520.5,0 1674.5,0 1674.5,-30.5"/>
<text xml:space="preserve" text-anchor="start" x="1528.5" y="-17" font-family="Helvetica,sans-Serif" font-size="10.00">com.goldenleaf.shop.exception.</text>
<text xml:space="preserve" text-anchor="middle" x="1597.5" y="-5.75" font-family="Helvetica,sans-Serif" font-size="10.00">IncorrectRatingException</text>
</a>
</g>
</g>
<!-- Node1&#45;&gt;Node12 -->
<g id="edge11_Node000001_Node000012" class="edge">
<title>Node1&#45;&gt;Node12</title>
<g id="a_edge11_Node000001_Node000012"><a xlink:title=" ">
<path fill="none" stroke="#63b8ff" d="M1531.01,-66.11C1542.23,-57.7 1556.52,-46.98 1568.98,-37.64"/>
<polygon fill="#63b8ff" stroke="#63b8ff" points="1570.95,-40.54 1576.85,-31.74 1566.75,-34.94 1570.95,-40.54"/>
</a>
</g>
</g>
<!-- Node13 -->
<g id="Node000013" class="node">
<title>Node13</title>
<g id="a_Node000013"><a xlink:title=" ">
<polygon fill="#e0e0e0" stroke="#999999" points="1846.5,-30.5 1692.5,-30.5 1692.5,0 1846.5,0 1846.5,-30.5"/>
<text xml:space="preserve" text-anchor="start" x="1700.5" y="-17" font-family="Helvetica,sans-Serif" font-size="10.00">com.goldenleaf.shop.exception.</text>
<text xml:space="preserve" text-anchor="middle" x="1769.5" y="-5.75" font-family="Helvetica,sans-Serif" font-size="10.00">NullCustomerException</text>
</a>
</g>
</g>
<!-- Node1&#45;&gt;Node13 -->
<g id="edge12_Node000001_Node000013" class="edge">
<title>Node1&#45;&gt;Node13</title>
<g id="a_edge12_Node000001_Node000013"><a xlink:title=" ">
<path fill="none" stroke="#63b8ff" d="M1570.37,-66.03C1608.84,-56.42 1659.27,-43.81 1699.75,-33.69"/>
<polygon fill="#63b8ff" stroke="#63b8ff" points="1700.56,-37.09 1709.42,-31.27 1698.87,-30.3 1700.56,-37.09"/>
</a>
</g>
</g>
<!-- Node14 -->
<g id="Node000014" class="node">
<title>Node14</title>
<g id="a_Node000014"><a xlink:title=" ">
<polygon fill="#e0e0e0" stroke="#999999" points="2018.5,-30.5 1864.5,-30.5 1864.5,0 2018.5,0 2018.5,-30.5"/>
<text xml:space="preserve" text-anchor="start" x="1872.5" y="-17" font-family="Helvetica,sans-Serif" font-size="10.00">com.goldenleaf.shop.exception.</text>
<text xml:space="preserve" text-anchor="middle" x="1941.5" y="-5.75" font-family="Helvetica,sans-Serif" font-size="10.00">NullPaymentException</text>
</a>
</g>
</g>
<!-- Node1&#45;&gt;Node14 -->
<g id="edge13_Node000001_Node000014" class="edge">
<title>Node1&#45;&gt;Node14</title>
<g id="a_edge13_Node000001_Node000014"><a xlink:title=" ">
<path fill="none" stroke="#63b8ff" d="M1583.71,-70.61C1650.84,-61.09 1753.94,-46.24 1853.03,-30.87"/>
<polygon fill="#63b8ff" stroke="#63b8ff" points="1853.32,-34.37 1862.66,-29.37 1852.24,-27.45 1853.32,-34.37"/>
</a>
</g>
</g>
<!-- Node15 -->
<g id="Node000015" class="node">
<title>Node15</title>
<g id="a_Node000015"><a xlink:title=" ">
<polygon fill="#e0e0e0" stroke="#999999" points="2198.25,-24.88 2036.75,-24.88 2036.75,-5.63 2198.25,-5.63 2198.25,-24.88"/>
<text xml:space="preserve" text-anchor="middle" x="2117.5" y="-11.38" font-family="Helvetica,sans-Serif" font-size="10.00">jakarta.persistence.CascadeType</text>
</a>
</g>
</g>
<!-- Node1&#45;&gt;Node15 -->
<g id="edge14_Node000001_Node000015" class="edge">
<title>Node1&#45;&gt;Node15</title>
<g id="a_edge14_Node000001_Node000015"><a xlink:title=" ">
<path fill="none" stroke="#63b8ff" d="M1583.44,-75.11C1683.3,-66.98 1869.47,-50.69 2027.5,-30.5 2035.48,-29.48 2043.85,-28.3 2052.13,-27.07"/>
<polygon fill="#63b8ff" stroke="#63b8ff" points="2052.46,-30.56 2061.82,-25.59 2051.41,-23.64 2052.46,-30.56"/>
</a>
</g>
</g>
<!-- Node16 -->
<g id="Node000016" class="node">
<title>Node16</title>
<g id="a_Node000016"><a xlink:title=" ">
<polygon fill="#e0e0e0" stroke="#999999" points="2351.12,-24.88 2215.88,-24.88 2215.88,-5.63 2351.12,-5.63 2351.12,-24.88"/>
<text xml:space="preserve" text-anchor="middle" x="2283.5" y="-11.38" font-family="Helvetica,sans-Serif" font-size="10.00">jakarta.persistence.Column</text>
</a>
</g>
</g>
<!-- Node1&#45;&gt;Node16 -->
<g id="edge15_Node000001_Node000016" class="edge">
<title>Node1&#45;&gt;Node16</title>
<g id="a_edge15_Node000001_Node000016"><a xlink:title=" ">
<path fill="none" stroke="#63b8ff" d="M1583.66,-78.24C1710.35,-73.22 1980.88,-59.83 2207.5,-30.5 2214.32,-29.62 2221.45,-28.52 2228.5,-27.32"/>
<polygon fill="#63b8ff" stroke="#63b8ff" points="2229.1,-30.77 2238.34,-25.58 2227.88,-23.88 2229.1,-30.77"/>
</a>
</g>
</g>
<!-- Node17 -->
<g id="Node000017" class="node">
<title>Node17</title>
<g id="a_Node000017"><a xlink:title=" ">
<polygon fill="#e0e0e0" stroke="#999999" points="2496,-24.88 2369,-24.88 2369,-5.63 2496,-5.63 2496,-24.88"/>
<text xml:space="preserve" text-anchor="middle" x="2432.5" y="-11.38" font-family="Helvetica,sans-Serif" font-size="10.00">jakarta.persistence.Entity</text>
</a>
</g>
</g>
<!-- Node1&#45;&gt;Node17 -->
<g id="edge16_Node000001_Node000017" class="edge">
<title>Node1&#45;&gt;Node17</title>
<g id="a_edge16_Node000001_Node000017"><a xlink:title=" ">
<path fill="none" stroke="#63b8ff" d="M1583.65,-79.79C1730.47,-77.11 2074.35,-67.11 2360.5,-30.5 2366.98,-29.67 2373.75,-28.6 2380.43,-27.42"/>
<polygon fill="#63b8ff" stroke="#63b8ff" points="2380.86,-30.91 2390.05,-25.64 2379.58,-24.02 2380.86,-30.91"/>
</a>
</g>
</g>
<!-- Node18 -->
<g id="Node000018" class="node">
<title>Node18</title>
<g id="a_Node000018"><a xlink:title=" ">
<polygon fill="#e0e0e0" stroke="#999999" points="2633.25,-30.5 2513.75,-30.5 2513.75,0 2633.25,0 2633.25,-30.5"/>
<text xml:space="preserve" text-anchor="start" x="2521.75" y="-17" font-family="Helvetica,sans-Serif" font-size="10.00">jakarta.persistence.Join</text>
<text xml:space="preserve" text-anchor="middle" x="2573.5" y="-5.75" font-family="Helvetica,sans-Serif" font-size="10.00">Column</text>
</a>
</g>
</g>
<!-- Node1&#45;&gt;Node18 -->
<g id="edge17_Node000001_Node000018" class="edge">
<title>Node1&#45;&gt;Node18</title>
<g id="a_edge17_Node000001_Node000018"><a xlink:title=" ">
<path fill="none" stroke="#63b8ff" d="M1583.57,-80.95C1746.07,-80.57 2153.47,-74.98 2502.18,-30.8"/>
<polygon fill="#63b8ff" stroke="#63b8ff" points="2502.54,-34.28 2512.02,-29.54 2501.65,-27.34 2502.54,-34.28"/>
</a>
</g>
</g>
<!-- Node19 -->
<g id="Node000019" class="node">
<title>Node19</title>
<g id="a_Node000019"><a xlink:title=" ">
<polygon fill="#e0e0e0" stroke="#999999" points="2805.5,-24.88 2651.5,-24.88 2651.5,-5.63 2805.5,-5.63 2805.5,-24.88"/>
<text xml:space="preserve" text-anchor="middle" x="2728.5" y="-11.38" font-family="Helvetica,sans-Serif" font-size="10.00">jakarta.persistence.OneToMany</text>
</a>
</g>
</g>
<!-- Node1&#45;&gt;Node19 -->
<g id="edge18_Node000001_Node000019" class="edge">
<title>Node1&#45;&gt;Node19</title>
<g id="a_edge18_Node000001_Node000019"><a xlink:title=" ">
<path fill="none" stroke="#63b8ff" d="M1583.51,-80.54C1762.89,-79.36 2243.97,-72.22 2642.5,-30.5 2650.98,-29.61 2659.89,-28.43 2668.63,-27.11"/>
<polygon fill="#63b8ff" stroke="#63b8ff" points="2669.14,-30.58 2678.48,-25.57 2668.06,-23.66 2669.14,-30.58"/>
</a>
</g>
</g>
<!-- Node20 -->
<g id="Node000020" class="node">
<title>Node20</title>
<g id="a_Node000020"><a xlink:title=" ">
<polygon fill="#e0e0e0" stroke="#999999" points="2971.5,-24.88 2823.5,-24.88 2823.5,-5.63 2971.5,-5.63 2971.5,-24.88"/>
<text xml:space="preserve" text-anchor="middle" x="2897.5" y="-11.38" font-family="Helvetica,sans-Serif" font-size="10.00">jakarta.persistence.OneToOne</text>
</a>
</g>
</g>
<!-- Node1&#45;&gt;Node20 -->
<g id="edge19_Node000001_Node000020" class="edge">
<title>Node1&#45;&gt;Node20</title>
<g id="a_edge19_Node000001_Node000020"><a xlink:title=" ">
<path fill="none" stroke="#63b8ff" d="M1583.42,-81.29C1780.74,-82.05 2347.03,-79.43 2814.5,-30.5 2822.7,-29.64 2831.31,-28.47 2839.76,-27.17"/>
<polygon fill="#63b8ff" stroke="#63b8ff" points="2840.31,-30.62 2849.62,-25.56 2839.19,-23.71 2840.31,-30.62"/>
</a>
</g>
</g>
<!-- Node21 -->
<g id="Node000021" class="node">
<title>Node21</title>
<g id="a_Node000021"><a xlink:title=" ">
<polygon fill="#e0e0e0" stroke="#999999" points="3113.88,-24.88 2989.12,-24.88 2989.12,-5.63 3113.88,-5.63 3113.88,-24.88"/>
<text xml:space="preserve" text-anchor="middle" x="3051.5" y="-11.38" font-family="Helvetica,sans-Serif" font-size="10.00">jakarta.persistence.Table</text>
</a>
</g>
</g>
<!-- Node1&#45;&gt;Node21 -->
<g id="edge20_Node000001_Node000021" class="edge">
<title>Node1&#45;&gt;Node21</title>
<g id="a_edge20_Node000001_Node000021"><a xlink:title=" ">
<path fill="none" stroke="#63b8ff" d="M1583.36,-79.85C1839.21,-76.41 2705.17,-62.62 2980.5,-30.5 2987.22,-29.72 2994.25,-28.63 3001.17,-27.41"/>
<polygon fill="#63b8ff" stroke="#63b8ff" points="3001.58,-30.89 3010.76,-25.6 3000.29,-24.01 3001.58,-30.89"/>
</a>
</g>
</g>
</g>
</svg>
