<?xml version="1.0" encoding="UTF-8" standalone="no"?>
<!DOCTYPE svg PUBLIC "-//W3C//DTD SVG 1.1//EN"
 "http://www.w3.org/Graphics/SVG/1.1/DTD/svg11.dtd">
<!-- Generated by graphviz version 14.0.4 (20251115.1723)
 -->
<!-- Title: frontend/node_modules/@parcel/watcher/src/Debounce.cc Pages: 1 -->
<svg width="364pt" height="216pt"
 viewBox="0.00 0.00 364.00 216.00" xmlns="http://www.w3.org/2000/svg" xmlns:xlink="http://www.w3.org/1999/xlink">
<g id="graph0" class="graph" transform="scale(1 1) rotate(0) translate(4 211.5)">
<title>frontend/node_modules/@parcel/watcher/src/Debounce.cc</title>
<!-- Node1 -->
<g id="Node000001" class="node">
<title>Node1</title>
<g id="a_Node000001"><a xlink:title=" ">
<polygon fill="#999999" stroke="#666666" points="205.12,-207.5 87.88,-207.5 87.88,-165.75 205.12,-165.75 205.12,-207.5"/>
<text xml:space="preserve" text-anchor="start" x="95.88" y="-194" font-family="Helvetica,sans-Serif" font-size="10.00">frontend/node_modules</text>
<text xml:space="preserve" text-anchor="start" x="95.88" y="-182.75" font-family="Helvetica,sans-Serif" font-size="10.00">/@parcel/watcher/src</text>
<text xml:space="preserve" text-anchor="middle" x="146.5" y="-171.5" font-family="Helvetica,sans-Serif" font-size="10.00">/Debounce.cc</text>
</a>
</g>
</g>
<!-- Node2 -->
<g id="Node000002" class="node">
<title>Node2</title>
<g id="a_Node000002"><a xlink:href="_debounce_8hh.html" target="_top" xlink:title=" ">
<polygon fill="white" stroke="#666666" points="183.38,-129.75 109.62,-129.75 109.62,-110.5 183.38,-110.5 183.38,-129.75"/>
<text xml:space="preserve" text-anchor="middle" x="146.5" y="-116.25" font-family="Helvetica,sans-Serif" font-size="10.00">Debounce.hh</text>
</a>
</g>
</g>
<!-- Node1&#45;&gt;Node2 -->
<g id="edge1_Node000001_Node000002" class="edge">
<title>Node1&#45;&gt;Node2</title>
<g id="a_edge1_Node000001_Node000002"><a xlink:title=" ">
<path fill="none" stroke="#63b8ff" d="M146.5,-165.57C146.5,-157.9 146.5,-149.14 146.5,-141.45"/>
<polygon fill="#63b8ff" stroke="#63b8ff" points="150,-141.71 146.5,-131.71 143,-141.71 150,-141.71"/>
</a>
</g>
</g>
<!-- Node3 -->
<g id="Node000003" class="node">
<title>Node3</title>
<g id="a_Node000003"><a xlink:title=" ">
<polygon fill="#e0e0e0" stroke="#999999" points="43,-74.5 0,-74.5 0,-55.25 43,-55.25 43,-74.5"/>
<text xml:space="preserve" text-anchor="middle" x="21.5" y="-61" font-family="Helvetica,sans-Serif" font-size="10.00">thread</text>
</a>
</g>
</g>
<!-- Node2&#45;&gt;Node3 -->
<g id="edge2_Node000002_Node000003" class="edge">
<title>Node2&#45;&gt;Node3</title>
<g id="a_edge2_Node000002_Node000003"><a xlink:title=" ">
<path fill="none" stroke="#63b8ff" d="M125.3,-110.09C105.54,-101.68 75.83,-89.02 53.25,-79.4"/>
<polygon fill="#63b8ff" stroke="#63b8ff" points="54.77,-76.24 44.2,-75.55 52.03,-82.68 54.77,-76.24"/>
</a>
</g>
</g>
<!-- Node4 -->
<g id="Node000004" class="node">
<title>Node4</title>
<g id="a_Node000004"><a xlink:title=" ">
<polygon fill="#e0e0e0" stroke="#999999" points="143.88,-74.5 61.12,-74.5 61.12,-55.25 143.88,-55.25 143.88,-74.5"/>
<text xml:space="preserve" text-anchor="middle" x="102.5" y="-61" font-family="Helvetica,sans-Serif" font-size="10.00">unordered_map</text>
</a>
</g>
</g>
<!-- Node2&#45;&gt;Node4 -->
<g id="edge3_Node000002_Node000004" class="edge">
<title>Node2&#45;&gt;Node4</title>
<g id="a_edge3_Node000002_Node000004"><a xlink:title=" ">
<path fill="none" stroke="#63b8ff" d="M139.23,-110.33C133.22,-103.05 124.49,-92.48 117.04,-83.48"/>
<polygon fill="#63b8ff" stroke="#63b8ff" points="119.96,-81.51 110.89,-76.03 114.56,-85.96 119.96,-81.51"/>
</a>
</g>
</g>
<!-- Node5 -->
<g id="Node000005" class="node">
<title>Node5</title>
<g id="a_Node000005"><a xlink:title=" ">
<polygon fill="#e0e0e0" stroke="#999999" points="219.5,-74.5 161.5,-74.5 161.5,-55.25 219.5,-55.25 219.5,-74.5"/>
<text xml:space="preserve" text-anchor="middle" x="190.5" y="-61" font-family="Helvetica,sans-Serif" font-size="10.00">functional</text>
</a>
</g>
</g>
<!-- Node2&#45;&gt;Node5 -->
<g id="edge4_Node000002_Node000005" class="edge">
<title>Node2&#45;&gt;Node5</title>
<g id="a_edge4_Node000002_Node000005"><a xlink:title=" ">
<path fill="none" stroke="#63b8ff" d="M153.77,-110.33C159.78,-103.05 168.51,-92.48 175.96,-83.48"/>
<polygon fill="#63b8ff" stroke="#63b8ff" points="178.44,-85.96 182.11,-76.03 173.04,-81.51 178.44,-85.96"/>
</a>
</g>
</g>
<!-- Node6 -->
<g id="Node000006" class="node">
<title>Node6</title>
<g id="a_Node000006"><a xlink:href="_signal_8hh.html" target="_top" xlink:title=" ">
<polygon fill="white" stroke="#666666" points="293.75,-74.5 237.25,-74.5 237.25,-55.25 293.75,-55.25 293.75,-74.5"/>
<text xml:space="preserve" text-anchor="middle" x="265.5" y="-61" font-family="Helvetica,sans-Serif" font-size="10.00">Signal.hh</text>
</a>
</g>
</g>
<!-- Node2&#45;&gt;Node6 -->
<g id="edge5_Node000002_Node000006" class="edge">
<title>Node2&#45;&gt;Node6</title>
<g id="a_edge5_Node000002_Node000006"><a xlink:title=" ">
<path fill="none" stroke="#63b8ff" d="M166.69,-110.09C185.41,-101.72 213.52,-89.13 234.98,-79.53"/>
<polygon fill="#63b8ff" stroke="#63b8ff" points="236.13,-82.85 243.83,-75.57 233.28,-76.46 236.13,-82.85"/>
</a>
</g>
</g>
<!-- Node7 -->
<g id="Node000007" class="node">
<title>Node7</title>
<g id="a_Node000007"><a xlink:title=" ">
<polygon fill="#e0e0e0" stroke="#999999" points="243,-19.25 200,-19.25 200,0 243,0 243,-19.25"/>
<text xml:space="preserve" text-anchor="middle" x="221.5" y="-5.75" font-family="Helvetica,sans-Serif" font-size="10.00">mutex</text>
</a>
</g>
</g>
<!-- Node6&#45;&gt;Node7 -->
<g id="edge6_Node000006_Node000007" class="edge">
<title>Node6&#45;&gt;Node7</title>
<g id="a_edge6_Node000006_Node000007"><a xlink:title=" ">
<path fill="none" stroke="#63b8ff" d="M258.23,-55.08C252.22,-47.8 243.49,-37.23 236.04,-28.23"/>
<polygon fill="#63b8ff" stroke="#63b8ff" points="238.96,-26.26 229.89,-20.78 233.56,-30.71 238.96,-26.26"/>
</a>
</g>
</g>
<!-- Node8 -->
<g id="Node000008" class="node">
<title>Node8</title>
<g id="a_Node000008"><a xlink:title=" ">
<polygon fill="#e0e0e0" stroke="#999999" points="355.5,-19.25 261.5,-19.25 261.5,0 355.5,0 355.5,-19.25"/>
<text xml:space="preserve" text-anchor="middle" x="308.5" y="-5.75" font-family="Helvetica,sans-Serif" font-size="10.00">condition_variable</text>
</a>
</g>
</g>
<!-- Node6&#45;&gt;Node8 -->
<g id="edge7_Node000006_Node000008" class="edge">
<title>Node6&#45;&gt;Node8</title>
<g id="a_edge7_Node000006_Node000008"><a xlink:title=" ">
<path fill="none" stroke="#63b8ff" d="M272.6,-55.08C278.42,-47.88 286.83,-37.46 294.06,-28.51"/>
<polygon fill="#63b8ff" stroke="#63b8ff" points="296.73,-30.77 300.29,-20.79 291.29,-26.37 296.73,-30.77"/>
</a>
</g>
</g>
</g>
</svg>
