<?xml version="1.0" encoding="UTF-8" standalone="no"?>
<!DOCTYPE svg PUBLIC "-//W3C//DTD SVG 1.1//EN"
 "http://www.w3.org/Graphics/SVG/1.1/DTD/svg11.dtd">
<!-- Generated by graphviz version 14.0.4 (20251115.1723)
 -->
<!-- Title: frontend/node_modules/@parcel/watcher/src/Debounce.hh Pages: 1 -->
<svg width="364pt" height="160pt"
 viewBox="0.00 0.00 364.00 160.00" xmlns="http://www.w3.org/2000/svg" xmlns:xlink="http://www.w3.org/1999/xlink">
<g id="graph0" class="graph" transform="scale(1 1) rotate(0) translate(4 156.25)">
<title>frontend/node_modules/@parcel/watcher/src/Debounce.hh</title>
<!-- Node1 -->
<g id="Node000001" class="node">
<title>Node1</title>
<g id="a_Node000001"><a xlink:title=" ">
<polygon fill="#999999" stroke="#666666" points="205.12,-152.25 87.88,-152.25 87.88,-110.5 205.12,-110.5 205.12,-152.25"/>
<text xml:space="preserve" text-anchor="start" x="95.88" y="-138.75" font-family="Helvetica,sans-Serif" font-size="10.00">frontend/node_modules</text>
<text xml:space="preserve" text-anchor="start" x="95.88" y="-127.5" font-family="Helvetica,sans-Serif" font-size="10.00">/@parcel/watcher/src</text>
<text xml:space="preserve" text-anchor="middle" x="146.5" y="-116.25" font-family="Helvetica,sans-Serif" font-size="10.00">/Debounce.hh</text>
</a>
</g>
</g>
<!-- Node2 -->
<g id="Node000002" class="node">
<title>Node2</title>
<g id="a_Node000002"><a xlink:title=" ">
<polygon fill="#e0e0e0" stroke="#999999" points="43,-74.5 0,-74.5 0,-55.25 43,-55.25 43,-74.5"/>
<text xml:space="preserve" text-anchor="middle" x="21.5" y="-61" font-family="Helvetica,sans-Serif" font-size="10.00">thread</text>
</a>
</g>
</g>
<!-- Node1&#45;&gt;Node2 -->
<g id="edge1_Node000001_Node000002" class="edge">
<title>Node1&#45;&gt;Node2</title>
<g id="a_edge1_Node000001_Node000002"><a xlink:title=" ">
<path fill="none" stroke="#63b8ff" d="M107.29,-110.14C88.32,-100.35 66,-88.84 48.89,-80.01"/>
<polygon fill="#63b8ff" stroke="#63b8ff" points="50.82,-77.06 40.32,-75.59 47.61,-83.28 50.82,-77.06"/>
</a>
</g>
</g>
<!-- Node3 -->
<g id="Node000003" class="node">
<title>Node3</title>
<g id="a_Node000003"><a xlink:title=" ">
<polygon fill="#e0e0e0" stroke="#999999" points="143.88,-74.5 61.12,-74.5 61.12,-55.25 143.88,-55.25 143.88,-74.5"/>
<text xml:space="preserve" text-anchor="middle" x="102.5" y="-61" font-family="Helvetica,sans-Serif" font-size="10.00">unordered_map</text>
</a>
</g>
</g>
<!-- Node1&#45;&gt;Node3 -->
<g id="edge2_Node000001_Node000003" class="edge">
<title>Node1&#45;&gt;Node3</title>
<g id="a_edge2_Node000001_Node000003"><a xlink:title=" ">
<path fill="none" stroke="#63b8ff" d="M132.82,-110.32C127.14,-102 120.6,-92.41 115.05,-84.27"/>
<polygon fill="#63b8ff" stroke="#63b8ff" points="118.07,-82.48 109.54,-76.2 112.28,-86.43 118.07,-82.48"/>
</a>
</g>
</g>
<!-- Node4 -->
<g id="Node000004" class="node">
<title>Node4</title>
<g id="a_Node000004"><a xlink:title=" ">
<polygon fill="#e0e0e0" stroke="#999999" points="219.5,-74.5 161.5,-74.5 161.5,-55.25 219.5,-55.25 219.5,-74.5"/>
<text xml:space="preserve" text-anchor="middle" x="190.5" y="-61" font-family="Helvetica,sans-Serif" font-size="10.00">functional</text>
</a>
</g>
</g>
<!-- Node1&#45;&gt;Node4 -->
<g id="edge3_Node000001_Node000004" class="edge">
<title>Node1&#45;&gt;Node4</title>
<g id="a_edge3_Node000001_Node000004"><a xlink:title=" ">
<path fill="none" stroke="#63b8ff" d="M160.18,-110.32C165.86,-102 172.4,-92.41 177.95,-84.27"/>
<polygon fill="#63b8ff" stroke="#63b8ff" points="180.72,-86.43 183.46,-76.2 174.93,-82.48 180.72,-86.43"/>
</a>
</g>
</g>
<!-- Node5 -->
<g id="Node000005" class="node">
<title>Node5</title>
<g id="a_Node000005"><a xlink:href="_signal_8hh.html" target="_top" xlink:title=" ">
<polygon fill="white" stroke="#666666" points="293.75,-74.5 237.25,-74.5 237.25,-55.25 293.75,-55.25 293.75,-74.5"/>
<text xml:space="preserve" text-anchor="middle" x="265.5" y="-61" font-family="Helvetica,sans-Serif" font-size="10.00">Signal.hh</text>
</a>
</g>
</g>
<!-- Node1&#45;&gt;Node5 -->
<g id="edge4_Node000001_Node000005" class="edge">
<title>Node1&#45;&gt;Node5</title>
<g id="a_edge4_Node000001_Node000005"><a xlink:title=" ">
<path fill="none" stroke="#63b8ff" d="M183.83,-110.14C201.72,-100.45 222.73,-89.06 238.96,-80.26"/>
<polygon fill="#63b8ff" stroke="#63b8ff" points="240.41,-83.46 247.53,-75.62 237.07,-77.3 240.41,-83.46"/>
</a>
</g>
</g>
<!-- Node6 -->
<g id="Node000006" class="node">
<title>Node6</title>
<g id="a_Node000006"><a xlink:title=" ">
<polygon fill="#e0e0e0" stroke="#999999" points="243,-19.25 200,-19.25 200,0 243,0 243,-19.25"/>
<text xml:space="preserve" text-anchor="middle" x="221.5" y="-5.75" font-family="Helvetica,sans-Serif" font-size="10.00">mutex</text>
</a>
</g>
</g>
<!-- Node5&#45;&gt;Node6 -->
<g id="edge5_Node000005_Node000006" class="edge">
<title>Node5&#45;&gt;Node6</title>
<g id="a_edge5_Node000005_Node000006"><a xlink:title=" ">
<path fill="none" stroke="#63b8ff" d="M258.23,-55.08C252.22,-47.8 243.49,-37.23 236.04,-28.23"/>
<polygon fill="#63b8ff" stroke="#63b8ff" points="238.96,-26.26 229.89,-20.78 233.56,-30.71 238.96,-26.26"/>
</a>
</g>
</g>
<!-- Node7 -->
<g id="Node000007" class="node">
<title>Node7</title>
<g id="a_Node000007"><a xlink:title=" ">
<polygon fill="#e0e0e0" stroke="#999999" points="355.5,-19.25 261.5,-19.25 261.5,0 355.5,0 355.5,-19.25"/>
<text xml:space="preserve" text-anchor="middle" x="308.5" y="-5.75" font-family="Helvetica,sans-Serif" font-size="10.00">condition_variable</text>
</a>
</g>
</g>
<!-- Node5&#45;&gt;Node7 -->
<g id="edge6_Node000005_Node000007" class="edge">
<title>Node5&#45;&gt;Node7</title>
<g id="a_edge6_Node000005_Node000007"><a xlink:title=" ">
<path fill="none" stroke="#63b8ff" d="M272.6,-55.08C278.42,-47.88 286.83,-37.46 294.06,-28.51"/>
<polygon fill="#63b8ff" stroke="#63b8ff" points="296.73,-30.77 300.29,-20.79 291.29,-26.37 296.73,-30.77"/>
</a>
</g>
</g>
</g>
</svg>
