<?xml version="1.0" encoding="UTF-8" standalone="no"?>
<!DOCTYPE svg PUBLIC "-//W3C//DTD SVG 1.1//EN"
 "http://www.w3.org/Graphics/SVG/1.1/DTD/svg11.dtd">
<!-- Generated by graphviz version 14.0.4 (20251115.1723)
 -->
<!-- Title: frontend/node_modules/@parcel/watcher/src/DirTree.cc Pages: 1 -->
<svg width="727pt" height="326pt"
 viewBox="0.00 0.00 727.00 326.00" xmlns="http://www.w3.org/2000/svg" xmlns:xlink="http://www.w3.org/1999/xlink">
<g id="graph0" class="graph" transform="scale(1 1) rotate(0) translate(4 322)">
<title>frontend/node_modules/@parcel/watcher/src/DirTree.cc</title>
<!-- Node1 -->
<g id="Node000001" class="node">
<title>Node1</title>
<g id="a_Node000001"><a xlink:title=" ">
<polygon fill="#999999" stroke="#666666" points="188.25,-318 71,-318 71,-276.25 188.25,-276.25 188.25,-318"/>
<text xml:space="preserve" text-anchor="start" x="79" y="-304.5" font-family="Helvetica,sans-Serif" font-size="10.00">frontend/node_modules</text>
<text xml:space="preserve" text-anchor="start" x="79" y="-293.25" font-family="Helvetica,sans-Serif" font-size="10.00">/@parcel/watcher/src</text>
<text xml:space="preserve" text-anchor="middle" x="129.62" y="-282" font-family="Helvetica,sans-Serif" font-size="10.00">/DirTree.cc</text>
</a>
</g>
</g>
<!-- Node2 -->
<g id="Node000002" class="node">
<title>Node2</title>
<g id="a_Node000002"><a xlink:href="_dir_tree_8hh.html" target="_top" xlink:title=" ">
<polygon fill="white" stroke="#666666" points="121.5,-240.25 59.75,-240.25 59.75,-221 121.5,-221 121.5,-240.25"/>
<text xml:space="preserve" text-anchor="middle" x="90.62" y="-226.75" font-family="Helvetica,sans-Serif" font-size="10.00">DirTree.hh</text>
</a>
</g>
</g>
<!-- Node1&#45;&gt;Node2 -->
<g id="edge1_Node000001_Node000002" class="edge">
<title>Node1&#45;&gt;Node2</title>
<g id="a_edge1_Node000001_Node000002"><a xlink:title=" ">
<path fill="none" stroke="#63b8ff" d="M117.5,-276.07C112.52,-267.84 106.8,-258.37 101.91,-250.29"/>
<polygon fill="#63b8ff" stroke="#63b8ff" points="105.06,-248.74 96.89,-241.99 99.07,-252.36 105.06,-248.74"/>
</a>
</g>
</g>
<!-- Node22 -->
<g id="Node000022" class="node">
<title>Node22</title>
<g id="a_Node000022"><a xlink:title=" ">
<polygon fill="#e0e0e0" stroke="#999999" points="198,-240.25 139.25,-240.25 139.25,-221 198,-221 198,-240.25"/>
<text xml:space="preserve" text-anchor="middle" x="168.62" y="-226.75" font-family="Helvetica,sans-Serif" font-size="10.00">inttypes.h</text>
</a>
</g>
</g>
<!-- Node1&#45;&gt;Node22 -->
<g id="edge26_Node000001_Node000022" class="edge">
<title>Node1&#45;&gt;Node22</title>
<g id="a_edge26_Node000001_Node000022"><a xlink:title=" ">
<path fill="none" stroke="#63b8ff" d="M141.75,-276.07C146.73,-267.84 152.45,-258.37 157.34,-250.29"/>
<polygon fill="#63b8ff" stroke="#63b8ff" points="160.18,-252.36 162.36,-241.99 154.19,-248.74 160.18,-252.36"/>
</a>
</g>
</g>
<!-- Node3 -->
<g id="Node000003" class="node">
<title>Node3</title>
<g id="a_Node000003"><a xlink:title=" ">
<polygon fill="#e0e0e0" stroke="#999999" points="81.62,-74.5 41.62,-74.5 41.62,-55.25 81.62,-55.25 81.62,-74.5"/>
<text xml:space="preserve" text-anchor="middle" x="61.62" y="-61" font-family="Helvetica,sans-Serif" font-size="10.00">string</text>
</a>
</g>
</g>
<!-- Node2&#45;&gt;Node3 -->
<g id="edge2_Node000002_Node000003" class="edge">
<title>Node2&#45;&gt;Node3</title>
<g id="a_edge2_Node000002_Node000003"><a xlink:title=" ">
<path fill="none" stroke="#63b8ff" d="M59.34,-221.8C40.5,-215.3 18.02,-203.97 6.62,-185 -14.19,-150.38 20.23,-106.56 43.34,-82.9"/>
<polygon fill="#63b8ff" stroke="#63b8ff" points="45.75,-85.44 50.43,-75.94 40.84,-80.45 45.75,-85.44"/>
</a>
</g>
</g>
<!-- Node4 -->
<g id="Node000004" class="node">
<title>Node4</title>
<g id="a_Node000004"><a xlink:title=" ">
<polygon fill="#e0e0e0" stroke="#999999" points="98,-185 15.25,-185 15.25,-165.75 98,-165.75 98,-185"/>
<text xml:space="preserve" text-anchor="middle" x="56.62" y="-171.5" font-family="Helvetica,sans-Serif" font-size="10.00">unordered_map</text>
</a>
</g>
</g>
<!-- Node2&#45;&gt;Node4 -->
<g id="edge3_Node000002_Node000004" class="edge">
<title>Node2&#45;&gt;Node4</title>
<g id="a_edge3_Node000002_Node000004"><a xlink:title=" ">
<path fill="none" stroke="#63b8ff" d="M85.01,-220.83C80.51,-213.78 74.04,-203.65 68.41,-194.83"/>
<polygon fill="#63b8ff" stroke="#63b8ff" points="71.51,-193.18 63.17,-186.63 65.61,-196.95 71.51,-193.18"/>
</a>
</g>
</g>
<!-- Node5 -->
<g id="Node000005" class="node">
<title>Node5</title>
<g id="a_Node000005"><a xlink:title=" ">
<polygon fill="#e0e0e0" stroke="#999999" points="151.25,-74.5 100,-74.5 100,-55.25 151.25,-55.25 151.25,-74.5"/>
<text xml:space="preserve" text-anchor="middle" x="125.62" y="-61" font-family="Helvetica,sans-Serif" font-size="10.00">memory</text>
</a>
</g>
</g>
<!-- Node2&#45;&gt;Node5 -->
<g id="edge4_Node000002_Node000005" class="edge">
<title>Node2&#45;&gt;Node5</title>
<g id="a_edge4_Node000002_Node000005"><a xlink:title=" ">
<path fill="none" stroke="#63b8ff" d="M94.44,-220.55C98.05,-211.64 103.39,-197.6 106.62,-185 115.37,-150.94 120.81,-110.31 123.53,-86.39"/>
<polygon fill="#63b8ff" stroke="#63b8ff" points="127.01,-86.78 124.6,-76.46 120.05,-86.03 127.01,-86.78"/>
</a>
</g>
</g>
<!-- Node6 -->
<g id="Node000006" class="node">
<title>Node6</title>
<g id="a_Node000006"><a xlink:href="_event_8hh.html" target="_top" xlink:title=" ">
<polygon fill="white" stroke="#666666" points="339.12,-185 284.12,-185 284.12,-165.75 339.12,-165.75 339.12,-185"/>
<text xml:space="preserve" text-anchor="middle" x="311.62" y="-171.5" font-family="Helvetica,sans-Serif" font-size="10.00">Event.hh</text>
</a>
</g>
</g>
<!-- Node2&#45;&gt;Node6 -->
<g id="edge5_Node000002_Node000006" class="edge">
<title>Node2&#45;&gt;Node6</title>
<g id="a_edge5_Node000002_Node000006"><a xlink:title=" ">
<path fill="none" stroke="#63b8ff" d="M121.82,-222.11C161.38,-212.58 229.61,-196.14 272.59,-185.78"/>
<polygon fill="#63b8ff" stroke="#63b8ff" points="273.36,-189.2 282.26,-183.45 271.72,-182.39 273.36,-189.2"/>
</a>
</g>
</g>
<!-- Node6&#45;&gt;Node3 -->
<g id="edge6_Node000006_Node000003" class="edge">
<title>Node6&#45;&gt;Node3</title>
<g id="a_edge6_Node000006_Node000003"><a xlink:title=" ">
<path fill="none" stroke="#63b8ff" d="M289.65,-165.27C268.17,-156.33 234.58,-142.27 205.62,-129.75 166.22,-112.72 121.01,-92.56 91.92,-79.51"/>
<polygon fill="#63b8ff" stroke="#63b8ff" points="93.54,-76.41 82.99,-75.5 90.67,-82.79 93.54,-76.41"/>
</a>
</g>
</g>
<!-- Node7 -->
<g id="Node000007" class="node">
<title>Node7</title>
<g id="a_Node000007"><a xlink:title=" ">
<polygon fill="#e0e0e0" stroke="#999999" points="232.25,-74.5 169,-74.5 169,-55.25 232.25,-55.25 232.25,-74.5"/>
<text xml:space="preserve" text-anchor="middle" x="200.62" y="-61" font-family="Helvetica,sans-Serif" font-size="10.00">node_api.h</text>
</a>
</g>
</g>
<!-- Node6&#45;&gt;Node7 -->
<g id="edge7_Node000006_Node000007" class="edge">
<title>Node6&#45;&gt;Node7</title>
<g id="a_edge7_Node000006_Node000007"><a xlink:title=" ">
<path fill="none" stroke="#63b8ff" d="M283.66,-167.13C263.48,-160.53 237.01,-148.85 220.62,-129.75 210.08,-117.46 205.09,-99.63 202.73,-85.92"/>
<polygon fill="#63b8ff" stroke="#63b8ff" points="206.23,-85.72 201.42,-76.28 199.3,-86.66 206.23,-85.72"/>
</a>
</g>
</g>
<!-- Node8 -->
<g id="Node000008" class="node">
<title>Node8</title>
<g id="a_Node000008"><a xlink:href="include_8h.html" target="_top" xlink:title=" ">
<polygon fill="white" stroke="#666666" points="313.75,-129.75 229.5,-129.75 229.5,-110.5 313.75,-110.5 313.75,-129.75"/>
<text xml:space="preserve" text-anchor="middle" x="271.62" y="-116.25" font-family="Helvetica,sans-Serif" font-size="10.00">wasm/include.h</text>
</a>
</g>
</g>
<!-- Node6&#45;&gt;Node8 -->
<g id="edge8_Node000006_Node000008" class="edge">
<title>Node6&#45;&gt;Node8</title>
<g id="a_edge8_Node000006_Node000008"><a xlink:title=" ">
<path fill="none" stroke="#63b8ff" d="M305.02,-165.58C299.67,-158.46 291.94,-148.18 285.27,-139.3"/>
<polygon fill="#63b8ff" stroke="#63b8ff" points="288.09,-137.21 279.28,-131.32 282.49,-141.42 288.09,-137.21"/>
</a>
</g>
</g>
<!-- Node9 -->
<g id="Node000009" class="node">
<title>Node9</title>
<g id="a_Node000009"><a xlink:href="napi_8h.html" target="_top" xlink:title=" ">
<polygon fill="white" stroke="#666666" points="373.75,-129.75 331.5,-129.75 331.5,-110.5 373.75,-110.5 373.75,-129.75"/>
<text xml:space="preserve" text-anchor="middle" x="352.62" y="-116.25" font-family="Helvetica,sans-Serif" font-size="10.00">napi.h</text>
</a>
</g>
</g>
<!-- Node6&#45;&gt;Node9 -->
<g id="edge9_Node000006_Node000009" class="edge">
<title>Node6&#45;&gt;Node9</title>
<g id="a_edge9_Node000006_Node000009"><a xlink:title=" ">
<path fill="none" stroke="#63b8ff" d="M318.39,-165.58C323.94,-158.38 331.97,-147.96 338.85,-139.01"/>
<polygon fill="#63b8ff" stroke="#63b8ff" points="341.46,-141.37 344.78,-131.31 335.91,-137.1 341.46,-141.37"/>
</a>
</g>
</g>
<!-- Node12 -->
<g id="Node000012" class="node">
<title>Node12</title>
<g id="a_Node000012"><a xlink:title=" ">
<polygon fill="#e0e0e0" stroke="#999999" points="594.12,-74.5 551.12,-74.5 551.12,-55.25 594.12,-55.25 594.12,-74.5"/>
<text xml:space="preserve" text-anchor="middle" x="572.62" y="-61" font-family="Helvetica,sans-Serif" font-size="10.00">mutex</text>
</a>
</g>
</g>
<!-- Node6&#45;&gt;Node12 -->
<g id="edge23_Node000006_Node000012" class="edge">
<title>Node6&#45;&gt;Node12</title>
<g id="a_edge23_Node000006_Node000012"><a xlink:title=" ">
<path fill="none" stroke="#63b8ff" d="M325.81,-165.48C350.72,-149.95 401.5,-118.76 420.62,-110.5 423.43,-109.29 495.89,-88.17 539.74,-75.42"/>
<polygon fill="#63b8ff" stroke="#63b8ff" points="540.65,-78.8 549.28,-72.65 538.7,-72.08 540.65,-78.8"/>
</a>
</g>
</g>
<!-- Node20 -->
<g id="Node000020" class="node">
<title>Node20</title>
<g id="a_Node000020"><a xlink:title=" ">
<polygon fill="#e0e0e0" stroke="#999999" points="464,-129.75 429.25,-129.75 429.25,-110.5 464,-110.5 464,-129.75"/>
<text xml:space="preserve" text-anchor="middle" x="446.62" y="-116.25" font-family="Helvetica,sans-Serif" font-size="10.00">map</text>
</a>
</g>
</g>
<!-- Node6&#45;&gt;Node20 -->
<g id="edge24_Node000006_Node000020" class="edge">
<title>Node6&#45;&gt;Node20</title>
<g id="a_edge24_Node000006_Node000020"><a xlink:title=" ">
<path fill="none" stroke="#63b8ff" d="M334.52,-165.34C357.62,-156.23 393.32,-142.15 418.21,-132.33"/>
<polygon fill="#63b8ff" stroke="#63b8ff" points="419.37,-135.64 427.39,-128.71 416.8,-129.13 419.37,-135.64"/>
</a>
</g>
</g>
<!-- Node21 -->
<g id="Node000021" class="node">
<title>Node21</title>
<g id="a_Node000021"><a xlink:title=" ">
<polygon fill="#e0e0e0" stroke="#999999" points="531.5,-129.75 481.75,-129.75 481.75,-110.5 531.5,-110.5 531.5,-129.75"/>
<text xml:space="preserve" text-anchor="middle" x="506.62" y="-116.25" font-family="Helvetica,sans-Serif" font-size="10.00">optional</text>
</a>
</g>
</g>
<!-- Node6&#45;&gt;Node21 -->
<g id="edge25_Node000006_Node000021" class="edge">
<title>Node6&#45;&gt;Node21</title>
<g id="a_edge25_Node000006_Node000021"><a xlink:title=" ">
<path fill="none" stroke="#63b8ff" d="M339.56,-166.75C374.02,-157.34 432.65,-141.33 470.49,-130.99"/>
<polygon fill="#63b8ff" stroke="#63b8ff" points="471.34,-134.39 480.06,-128.38 469.49,-127.64 471.34,-134.39"/>
</a>
</g>
</g>
<!-- Node9&#45;&gt;Node3 -->
<g id="edge15_Node000009_Node000003" class="edge">
<title>Node9&#45;&gt;Node3</title>
<g id="a_edge15_Node000009_Node000003"><a xlink:title=" ">
<path fill="none" stroke="#63b8ff" d="M331.08,-112.58C328.25,-111.82 325.38,-111.11 322.62,-110.5 224.21,-88.81 194.44,-96.82 92.87,-74.72"/>
<polygon fill="#63b8ff" stroke="#63b8ff" points="93.81,-71.34 83.29,-72.59 92.29,-78.18 93.81,-71.34"/>
</a>
</g>
</g>
<!-- Node9&#45;&gt;Node5 -->
<g id="edge13_Node000009_Node000005" class="edge">
<title>Node9&#45;&gt;Node5</title>
<g id="a_edge13_Node000009_Node000005"><a xlink:title=" ">
<path fill="none" stroke="#63b8ff" d="M331.04,-112.74C328.21,-111.96 325.36,-111.19 322.62,-110.5 254.09,-93.1 233.7,-91.72 162.48,-75.11"/>
<polygon fill="#63b8ff" stroke="#63b8ff" points="163.6,-71.78 153.07,-72.9 162,-78.6 163.6,-71.78"/>
</a>
</g>
</g>
<!-- Node9&#45;&gt;Node7 -->
<g id="edge10_Node000009_Node000007" class="edge">
<title>Node9&#45;&gt;Node7</title>
<g id="a_edge10_Node000009_Node000007"><a xlink:title=" ">
<path fill="none" stroke="#63b8ff" d="M331.17,-111.61C306.79,-103.07 266.58,-88.98 237.21,-78.69"/>
<polygon fill="#63b8ff" stroke="#63b8ff" points="238.57,-75.46 227.98,-75.46 236.26,-82.07 238.57,-75.46"/>
</a>
</g>
</g>
<!-- Node10 -->
<g id="Node000010" class="node">
<title>Node10</title>
<g id="a_Node000010"><a xlink:title=" ">
<polygon fill="#e0e0e0" stroke="#999999" points="308.62,-74.5 250.62,-74.5 250.62,-55.25 308.62,-55.25 308.62,-74.5"/>
<text xml:space="preserve" text-anchor="middle" x="279.62" y="-61" font-family="Helvetica,sans-Serif" font-size="10.00">functional</text>
</a>
</g>
</g>
<!-- Node9&#45;&gt;Node10 -->
<g id="edge11_Node000009_Node000010" class="edge">
<title>Node9&#45;&gt;Node10</title>
<g id="a_edge11_Node000009_Node000010"><a xlink:title=" ">
<path fill="none" stroke="#63b8ff" d="M340.24,-110.09C329.48,-102.24 313.65,-90.7 300.87,-81.37"/>
<polygon fill="#63b8ff" stroke="#63b8ff" points="303.19,-78.73 293.05,-75.67 299.06,-84.39 303.19,-78.73"/>
</a>
</g>
</g>
<!-- Node11 -->
<g id="Node000011" class="node">
<title>Node11</title>
<g id="a_Node000011"><a xlink:title=" ">
<polygon fill="#e0e0e0" stroke="#999999" points="398.75,-74.5 326.5,-74.5 326.5,-55.25 398.75,-55.25 398.75,-74.5"/>
<text xml:space="preserve" text-anchor="middle" x="362.62" y="-61" font-family="Helvetica,sans-Serif" font-size="10.00">initializer_list</text>
</a>
</g>
</g>
<!-- Node9&#45;&gt;Node11 -->
<g id="edge12_Node000009_Node000011" class="edge">
<title>Node9&#45;&gt;Node11</title>
<g id="a_edge12_Node000009_Node000011"><a xlink:title=" ">
<path fill="none" stroke="#63b8ff" d="M354.28,-110.33C355.51,-103.74 357.26,-94.46 358.83,-86.07"/>
<polygon fill="#63b8ff" stroke="#63b8ff" points="362.25,-86.82 360.66,-76.35 355.37,-85.53 362.25,-86.82"/>
</a>
</g>
</g>
<!-- Node9&#45;&gt;Node12 -->
<g id="edge14_Node000009_Node000012" class="edge">
<title>Node9&#45;&gt;Node12</title>
<g id="a_edge14_Node000009_Node000012"><a xlink:title=" ">
<path fill="none" stroke="#63b8ff" d="M374.08,-113.79C378.56,-112.69 383.24,-111.55 387.62,-110.5 453.05,-94.84 472.32,-92.48 539.9,-75.12"/>
<polygon fill="#63b8ff" stroke="#63b8ff" points="540.44,-78.59 549.24,-72.7 538.68,-71.82 540.44,-78.59"/>
</a>
</g>
</g>
<!-- Node13 -->
<g id="Node000013" class="node">
<title>Node13</title>
<g id="a_Node000013"><a xlink:title=" ">
<polygon fill="#e0e0e0" stroke="#999999" points="460.12,-74.5 417.12,-74.5 417.12,-55.25 460.12,-55.25 460.12,-74.5"/>
<text xml:space="preserve" text-anchor="middle" x="438.62" y="-61" font-family="Helvetica,sans-Serif" font-size="10.00">vector</text>
</a>
</g>
</g>
<!-- Node9&#45;&gt;Node13 -->
<g id="edge16_Node000009_Node000013" class="edge">
<title>Node9&#45;&gt;Node13</title>
<g id="a_edge16_Node000009_Node000013"><a xlink:title=" ">
<path fill="none" stroke="#63b8ff" d="M367.21,-110.09C380.06,-102.14 399.04,-90.39 414.2,-81"/>
<polygon fill="#63b8ff" stroke="#63b8ff" points="416.02,-83.99 422.68,-75.75 412.33,-78.04 416.02,-83.99"/>
</a>
</g>
</g>
<!-- Node14 -->
<g id="Node000014" class="node">
<title>Node14</title>
<g id="a_Node000014"><a xlink:href="napi-inl_8h.html" target="_top" xlink:title=" ">
<polygon fill="white" stroke="#666666" points="533.12,-74.5 478.12,-74.5 478.12,-55.25 533.12,-55.25 533.12,-74.5"/>
<text xml:space="preserve" text-anchor="middle" x="505.62" y="-61" font-family="Helvetica,sans-Serif" font-size="10.00">napi&#45;inl.h</text>
</a>
</g>
</g>
<!-- Node9&#45;&gt;Node14 -->
<g id="edge17_Node000009_Node000014" class="edge">
<title>Node9&#45;&gt;Node14</title>
<g id="a_edge17_Node000009_Node000014"><a xlink:title=" ">
<path fill="none" stroke="#63b8ff" d="M374.22,-111.61C398.76,-103.07 439.24,-88.98 468.79,-78.69"/>
<polygon fill="#63b8ff" stroke="#63b8ff" points="469.81,-82.05 478.1,-75.45 467.5,-75.44 469.81,-82.05"/>
</a>
</g>
</g>
<!-- Node15 -->
<g id="Node000015" class="node">
<title>Node15</title>
<g id="a_Node000015"><a xlink:title=" ">
<polygon fill="#e0e0e0" stroke="#999999" points="392.5,-19.25 336.75,-19.25 336.75,0 392.5,0 392.5,-19.25"/>
<text xml:space="preserve" text-anchor="middle" x="364.62" y="-5.75" font-family="Helvetica,sans-Serif" font-size="10.00">algorithm</text>
</a>
</g>
</g>
<!-- Node14&#45;&gt;Node15 -->
<g id="edge18_Node000014_Node000015" class="edge">
<title>Node14&#45;&gt;Node15</title>
<g id="a_edge18_Node000014_Node000015"><a xlink:title=" ">
<path fill="none" stroke="#63b8ff" d="M481.71,-54.84C459.12,-46.31 424.99,-33.42 399.4,-23.76"/>
<polygon fill="#63b8ff" stroke="#63b8ff" points="400.67,-20.5 390.08,-20.24 398.19,-27.04 400.67,-20.5"/>
</a>
</g>
</g>
<!-- Node16 -->
<g id="Node000016" class="node">
<title>Node16</title>
<g id="a_Node000016"><a xlink:title=" ">
<polygon fill="#e0e0e0" stroke="#999999" points="456.25,-19.25 411,-19.25 411,0 456.25,0 456.25,-19.25"/>
<text xml:space="preserve" text-anchor="middle" x="433.62" y="-5.75" font-family="Helvetica,sans-Serif" font-size="10.00">cstring</text>
</a>
</g>
</g>
<!-- Node14&#45;&gt;Node16 -->
<g id="edge19_Node000014_Node000016" class="edge">
<title>Node14&#45;&gt;Node16</title>
<g id="a_edge19_Node000014_Node000016"><a xlink:title=" ">
<path fill="none" stroke="#63b8ff" d="M493.41,-54.84C482.8,-46.99 467.19,-35.45 454.58,-26.12"/>
<polygon fill="#63b8ff" stroke="#63b8ff" points="457,-23.56 446.87,-20.42 452.83,-29.19 457,-23.56"/>
</a>
</g>
</g>
<!-- Node17 -->
<g id="Node000017" class="node">
<title>Node17</title>
<g id="a_Node000017"><a xlink:title=" ">
<polygon fill="#e0e0e0" stroke="#999999" points="536.5,-19.25 474.75,-19.25 474.75,0 536.5,0 536.5,-19.25"/>
<text xml:space="preserve" text-anchor="middle" x="505.62" y="-5.75" font-family="Helvetica,sans-Serif" font-size="10.00">type_traits</text>
</a>
</g>
</g>
<!-- Node14&#45;&gt;Node17 -->
<g id="edge20_Node000014_Node000017" class="edge">
<title>Node14&#45;&gt;Node17</title>
<g id="a_edge20_Node000014_Node000017"><a xlink:title=" ">
<path fill="none" stroke="#63b8ff" d="M505.62,-55.08C505.62,-48.57 505.62,-39.42 505.62,-31.12"/>
<polygon fill="#63b8ff" stroke="#63b8ff" points="509.12,-31.12 505.62,-21.12 502.12,-31.12 509.12,-31.12"/>
</a>
</g>
</g>
<!-- Node18 -->
<g id="Node000018" class="node">
<title>Node18</title>
<g id="a_Node000018"><a xlink:title=" ">
<polygon fill="#e0e0e0" stroke="#999999" points="594.25,-19.25 555,-19.25 555,0 594.25,0 594.25,-19.25"/>
<text xml:space="preserve" text-anchor="middle" x="574.62" y="-5.75" font-family="Helvetica,sans-Serif" font-size="10.00">utility</text>
</a>
</g>
</g>
<!-- Node14&#45;&gt;Node18 -->
<g id="edge21_Node000014_Node000018" class="edge">
<title>Node14&#45;&gt;Node18</title>
<g id="a_edge21_Node000014_Node000018"><a xlink:title=" ">
<path fill="none" stroke="#63b8ff" d="M517.33,-54.84C527.4,-47.07 542.17,-35.67 554.18,-26.4"/>
<polygon fill="#63b8ff" stroke="#63b8ff" points="556.12,-29.33 561.89,-20.45 551.84,-23.79 556.12,-29.33"/>
</a>
</g>
</g>
<!-- Node19 -->
<g id="Node000019" class="node">
<title>Node19</title>
<g id="a_Node000019"><a xlink:href="napi-inl_8deprecated_8h.html" target="_top" xlink:title=" ">
<polygon fill="white" stroke="#666666" points="718.62,-19.25 612.62,-19.25 612.62,0 718.62,0 718.62,-19.25"/>
<text xml:space="preserve" text-anchor="middle" x="665.62" y="-5.75" font-family="Helvetica,sans-Serif" font-size="10.00">napi&#45;inl.deprecated.h</text>
</a>
</g>
</g>
<!-- Node14&#45;&gt;Node19 -->
<g id="edge22_Node000014_Node000019" class="edge">
<title>Node14&#45;&gt;Node19</title>
<g id="a_edge22_Node000014_Node000019"><a xlink:title=" ">
<path fill="none" stroke="#63b8ff" d="M532.77,-54.84C558.85,-46.16 598.52,-32.96 627.72,-23.24"/>
<polygon fill="#63b8ff" stroke="#63b8ff" points="628.53,-26.66 636.91,-20.18 626.32,-20.02 628.53,-26.66"/>
</a>
</g>
</g>
</g>
</svg>
