<?xml version="1.0" encoding="UTF-8" standalone="no"?>
<!DOCTYPE svg PUBLIC "-//W3C//DTD SVG 1.1//EN"
 "http://www.w3.org/Graphics/SVG/1.1/DTD/svg11.dtd">
<!-- Generated by graphviz version 14.0.4 (20251115.1723)
 -->
<!-- Title: frontend/node_modules/@parcel/watcher/src/DirTree.hh Pages: 1 -->
<!--zoomable 439 -->

<svg id="main" version="1.1" xmlns="http://www.w3.org/2000/svg" xmlns:xlink="http://www.w3.org/1999/xlink" xml:space="preserve" onload="init(evt)">

<style type="text/css"><![CDATA[
.node, .edge {opacity: 0.7;}
.node.selected, .edge.selected {opacity: 1;}
.edge:hover path { stroke: red; }
.edge:hover polygon { stroke: red; fill: red; }
]]></style>

<defs>
  <circle id="rim" cx="0" cy="0" r="7"/>
  <circle id="rim2" cx="0" cy="0" r="3.5"/>
  <g id="zoomPlus">
    <use xlink:href="#rim" fill="#404040"><set attributeName="fill" to="#808080" begin="zoomplus.mouseover" end="zoomplus.mouseout"/></use>
    <path d="M-4,0h8M0,-4v8" fill="none" stroke="white" stroke-width="1.5" pointer-events="none"/>
  </g>
  <g id="zoomMin">
    <use xlink:href="#rim" fill="#404040"><set attributeName="fill" to="#808080" begin="zoomminus.mouseover" end="zoomminus.mouseout"/></use>
    <path d="M-4,0h8" fill="none" stroke="white" stroke-width="1.5" pointer-events="none"/>
  </g>
  <g id="arrowUp" transform="translate(30 24)">
    <use xlink:href="#rim"/>
    <path pointer-events="none" fill="none" stroke="white" stroke-width="1.5" d="M0,-3.0v7 M-2.5,-0.5L0,-3.0L2.5,-0.5"/>
  </g>
  <g id="arrowRight" transform="rotate(90) translate(36 -43)">
    <use xlink:href="#rim"/>
    <path pointer-events="none" fill="none" stroke="white" stroke-width="1.5" d="M0,-3.0v7 M-2.5,-0.5L0,-3.0L2.5,-0.5"/>
  </g>
  <g id="arrowDown" transform="rotate(180) translate(-30 -48)">
    <use xlink:href="#rim"/>
    <path pointer-events="none" fill="none" stroke="white" stroke-width="1.5" d="M0,-3.0v7 M-2.5,-0.5L0,-3.0L2.5,-0.5"/>
  </g>
  <g id="arrowLeft" transform="rotate(270) translate(-36 17)">
    <use xlink:href="#rim"/>
    <path pointer-events="none" fill="none" stroke="white" stroke-width="1.5" d="M0,-3.0v7 M-2.5,-0.5L0,-3.0L2.5,-0.5"/>
  </g>
  <g id="resetDef">
    <use xlink:href="#rim2" fill="#404040"><set attributeName="fill" to="#808080" begin="reset.mouseover" end="reset.mouseout"/></use>
  </g>
</defs>
<script type="application/ecmascript">
var viewWidth = 1689;
var viewHeight = 439;
var sectionId = 'dynsection-1';
</script>
<script type="application/ecmascript" xlink:href="svg.min.js"/>
<svg id="graph" class="graph">
<g id="viewport">
<title>frontend/node_modules/@parcel/watcher/src/DirTree.hh</title>
<!-- Node1 -->
<g id="Node000001" class="node">
<title>Node1</title>
<g id="a_Node000001"><a xlink:title=" ">
<polygon fill="#999999" stroke="#666666" points="613.75,-430.5 496.5,-430.5 496.5,-388.75 613.75,-388.75 613.75,-430.5"/>
<text xml:space="preserve" text-anchor="start" x="504.5" y="-417" font-family="Helvetica,sans-Serif" font-size="10.00">frontend/node_modules</text>
<text xml:space="preserve" text-anchor="start" x="504.5" y="-405.75" font-family="Helvetica,sans-Serif" font-size="10.00">/@parcel/watcher/src</text>
<text xml:space="preserve" text-anchor="middle" x="555.12" y="-394.5" font-family="Helvetica,sans-Serif" font-size="10.00">/DirTree.hh</text>
</a>
</g>
</g>
<!-- Node2 -->
<g id="Node000002" class="node">
<title>Node2</title>
<g id="a_Node000002"><a xlink:href="_dir_tree_8cc.html" target="_top" xlink:title=" ">
<polygon fill="white" stroke="#666666" points="308.75,-352.75 191.5,-352.75 191.5,-311 308.75,-311 308.75,-352.75"/>
<text xml:space="preserve" text-anchor="start" x="199.5" y="-339.25" font-family="Helvetica,sans-Serif" font-size="10.00">frontend/node_modules</text>
<text xml:space="preserve" text-anchor="start" x="199.5" y="-328" font-family="Helvetica,sans-Serif" font-size="10.00">/@parcel/watcher/src</text>
<text xml:space="preserve" text-anchor="middle" x="250.12" y="-316.75" font-family="Helvetica,sans-Serif" font-size="10.00">/DirTree.cc</text>
</a>
</g>
</g>
<!-- Node1&#45;&gt;Node2 -->
<g id="edge1_Node000001_Node000002" class="edge">
<title>Node1&#45;&gt;Node2</title>
<g id="a_edge1_Node000001_Node000002"><a xlink:title=" ">
<path fill="none" stroke="#63b8ff" d="M485.29,-392.37C439.17,-381.5 377.44,-366.68 323.12,-352.75 318.54,-351.58 313.81,-350.34 309.05,-349.08"/>
<polygon fill="#63b8ff" stroke="#63b8ff" points="484.36,-395.75 494.89,-394.63 485.96,-388.93 484.36,-395.75"/>
</a>
</g>
</g>
<!-- Node3 -->
<g id="Node000003" class="node">
<title>Node3</title>
<g id="a_Node000003"><a xlink:href="_watcher_8hh.html" target="_top" xlink:title=" ">
<polygon fill="white" stroke="#666666" points="1191.75,-352.75 1074.5,-352.75 1074.5,-311 1191.75,-311 1191.75,-352.75"/>
<text xml:space="preserve" text-anchor="start" x="1082.5" y="-339.25" font-family="Helvetica,sans-Serif" font-size="10.00">frontend/node_modules</text>
<text xml:space="preserve" text-anchor="start" x="1082.5" y="-328" font-family="Helvetica,sans-Serif" font-size="10.00">/@parcel/watcher/src</text>
<text xml:space="preserve" text-anchor="middle" x="1133.12" y="-316.75" font-family="Helvetica,sans-Serif" font-size="10.00">/Watcher.hh</text>
</a>
</g>
</g>
<!-- Node1&#45;&gt;Node3 -->
<g id="edge2_Node000001_Node000003" class="edge">
<title>Node1&#45;&gt;Node3</title>
<g id="a_edge2_Node000001_Node000003"><a xlink:title=" ">
<path fill="none" stroke="#63b8ff" d="M625.09,-399.46C740,-384.4 966.61,-354.7 1074,-340.62"/>
<polygon fill="#63b8ff" stroke="#63b8ff" points="624.96,-395.94 615.5,-400.71 625.87,-402.88 624.96,-395.94"/>
</a>
</g>
</g>
<!-- Node9 -->
<g id="Node000009" class="node">
<title>Node9</title>
<g id="a_Node000009"><a xlink:href="_brute_force_backend_8hh.html" target="_top" xlink:title=" ">
<polygon fill="white" stroke="#666666" points="820.62,-197.25 669.62,-197.25 669.62,-155.5 820.62,-155.5 820.62,-197.25"/>
<text xml:space="preserve" text-anchor="start" x="677.62" y="-183.75" font-family="Helvetica,sans-Serif" font-size="10.00">frontend/node_modules</text>
<text xml:space="preserve" text-anchor="start" x="677.62" y="-172.5" font-family="Helvetica,sans-Serif" font-size="10.00">/@parcel/watcher/src</text>
<text xml:space="preserve" text-anchor="middle" x="745.12" y="-161.25" font-family="Helvetica,sans-Serif" font-size="10.00">/shared/BruteForceBackend.hh</text>
</a>
</g>
</g>
<!-- Node1&#45;&gt;Node9 -->
<g id="edge32_Node000001_Node000009" class="edge">
<title>Node1&#45;&gt;Node9</title>
<g id="a_edge32_Node000001_Node000009"><a xlink:title=" ">
<path fill="none" stroke="#63b8ff" d="M585.49,-380.47C594.35,-371.83 603.87,-362.13 612.12,-352.75 659.1,-299.41 708.03,-231 731.27,-197.58"/>
<polygon fill="#63b8ff" stroke="#63b8ff" points="583.14,-377.88 578.35,-387.33 587.99,-382.92 583.14,-377.88"/>
</a>
</g>
</g>
<!-- Node10 -->
<g id="Node000010" class="node">
<title>Node10</title>
<g id="a_Node000010"><a xlink:href="_kqueue_backend_8hh.html" target="_top" xlink:title=" ">
<polygon fill="white" stroke="#666666" points="138.25,-119.5 0,-119.5 0,-77.75 138.25,-77.75 138.25,-119.5"/>
<text xml:space="preserve" text-anchor="start" x="8" y="-106" font-family="Helvetica,sans-Serif" font-size="10.00">frontend/node_modules</text>
<text xml:space="preserve" text-anchor="start" x="8" y="-94.75" font-family="Helvetica,sans-Serif" font-size="10.00">/@parcel/watcher/src</text>
<text xml:space="preserve" text-anchor="middle" x="69.12" y="-83.5" font-family="Helvetica,sans-Serif" font-size="10.00">/kqueue/KqueueBackend.hh</text>
</a>
</g>
</g>
<!-- Node1&#45;&gt;Node10 -->
<g id="edge29_Node000001_Node000010" class="edge">
<title>Node1&#45;&gt;Node10</title>
<g id="a_edge29_Node000001_Node000010"><a xlink:title=" ">
<path fill="none" stroke="#63b8ff" d="M485.23,-392.76C452.18,-383.66 412.88,-370.48 380.12,-352.75 316.61,-318.37 151.73,-173.42 91.54,-119.74"/>
<polygon fill="#63b8ff" stroke="#63b8ff" points="484.15,-396.09 494.71,-395.29 485.96,-389.33 484.15,-396.09"/>
</a>
</g>
</g>
<!-- Node12 -->
<g id="Node000012" class="node">
<title>Node12</title>
<g id="a_Node000012"><a xlink:href="_inotify_backend_8hh.html" target="_top" xlink:title=" ">
<polygon fill="white" stroke="#666666" points="277.62,-119.5 156.62,-119.5 156.62,-77.75 277.62,-77.75 277.62,-119.5"/>
<text xml:space="preserve" text-anchor="start" x="164.62" y="-106" font-family="Helvetica,sans-Serif" font-size="10.00">frontend/node_modules</text>
<text xml:space="preserve" text-anchor="start" x="164.62" y="-94.75" font-family="Helvetica,sans-Serif" font-size="10.00">/@parcel/watcher/src</text>
<text xml:space="preserve" text-anchor="middle" x="217.12" y="-83.5" font-family="Helvetica,sans-Serif" font-size="10.00">/linux/InotifyBackend.hh</text>
</a>
</g>
</g>
<!-- Node1&#45;&gt;Node12 -->
<g id="edge30_Node000001_Node000012" class="edge">
<title>Node1&#45;&gt;Node12</title>
<g id="a_edge30_Node000001_Node000012"><a xlink:title=" ">
<path fill="none" stroke="#63b8ff" d="M485.35,-396.17C457.95,-388.02 428.29,-374.64 408.12,-352.75 346.3,-285.64 411.88,-223.59 351.12,-155.5 340.59,-143.7 308.19,-130.04 277.88,-119.18"/>
<polygon fill="#63b8ff" stroke="#63b8ff" points="484.08,-399.45 494.65,-398.74 485.95,-392.7 484.08,-399.45"/>
</a>
</g>
</g>
<!-- Node14 -->
<g id="Node000014" class="node">
<title>Node14</title>
<g id="a_Node000014"><a xlink:href="_brute_force_backend_8cc.html" target="_top" xlink:title=" ">
<polygon fill="white" stroke="#666666" points="630.62,-119.5 479.62,-119.5 479.62,-77.75 630.62,-77.75 630.62,-119.5"/>
<text xml:space="preserve" text-anchor="start" x="487.62" y="-106" font-family="Helvetica,sans-Serif" font-size="10.00">frontend/node_modules</text>
<text xml:space="preserve" text-anchor="start" x="487.62" y="-94.75" font-family="Helvetica,sans-Serif" font-size="10.00">/@parcel/watcher/src</text>
<text xml:space="preserve" text-anchor="middle" x="555.12" y="-83.5" font-family="Helvetica,sans-Serif" font-size="10.00">/shared/BruteForceBackend.cc</text>
</a>
</g>
</g>
<!-- Node1&#45;&gt;Node14 -->
<g id="edge31_Node000001_Node000014" class="edge">
<title>Node1&#45;&gt;Node14</title>
<g id="a_edge31_Node000001_Node000014"><a xlink:title=" ">
<path fill="none" stroke="#63b8ff" d="M555.12,-377.12C555.12,-313.8 555.12,-172.66 555.12,-119.97"/>
<polygon fill="#63b8ff" stroke="#63b8ff" points="551.63,-376.84 555.13,-386.84 558.63,-376.84 551.63,-376.84"/>
</a>
</g>
</g>
<!-- Node15 -->
<g id="Node000015" class="node">
<title>Node15</title>
<g id="a_Node000015"><a xlink:href="fts_8cc.html" target="_top" xlink:title=" ">
<polygon fill="white" stroke="#666666" points="765.75,-119.5 648.5,-119.5 648.5,-77.75 765.75,-77.75 765.75,-119.5"/>
<text xml:space="preserve" text-anchor="start" x="656.5" y="-106" font-family="Helvetica,sans-Serif" font-size="10.00">frontend/node_modules</text>
<text xml:space="preserve" text-anchor="start" x="656.5" y="-94.75" font-family="Helvetica,sans-Serif" font-size="10.00">/@parcel/watcher/src</text>
<text xml:space="preserve" text-anchor="middle" x="707.12" y="-83.5" font-family="Helvetica,sans-Serif" font-size="10.00">/unix/fts.cc</text>
</a>
</g>
</g>
<!-- Node1&#45;&gt;Node15 -->
<g id="edge33_Node000001_Node000015" class="edge">
<title>Node1&#45;&gt;Node15</title>
<g id="a_edge33_Node000001_Node000015"><a xlink:title=" ">
<path fill="none" stroke="#63b8ff" d="M564.64,-377.38C580.39,-328.09 614.7,-230.21 660.12,-155.5 667.83,-142.83 678.31,-130.07 687.42,-119.95"/>
<polygon fill="#63b8ff" stroke="#63b8ff" points="561.33,-376.23 561.67,-386.82 568.01,-378.33 561.33,-376.23"/>
</a>
</g>
</g>
<!-- Node16 -->
<g id="Node000016" class="node">
<title>Node16</title>
<g id="a_Node000016"><a xlink:href="legacy_8cc.html" target="_top" xlink:title=" ">
<polygon fill="white" stroke="#666666" points="1109.75,-119.5 992.5,-119.5 992.5,-77.75 1109.75,-77.75 1109.75,-119.5"/>
<text xml:space="preserve" text-anchor="start" x="1000.5" y="-106" font-family="Helvetica,sans-Serif" font-size="10.00">frontend/node_modules</text>
<text xml:space="preserve" text-anchor="start" x="1000.5" y="-94.75" font-family="Helvetica,sans-Serif" font-size="10.00">/@parcel/watcher/src</text>
<text xml:space="preserve" text-anchor="middle" x="1051.12" y="-83.5" font-family="Helvetica,sans-Serif" font-size="10.00">/unix/legacy.cc</text>
</a>
</g>
</g>
<!-- Node1&#45;&gt;Node16 -->
<g id="edge34_Node000001_Node000016" class="edge">
<title>Node1&#45;&gt;Node16</title>
<g id="a_edge34_Node000001_Node000016"><a xlink:title=" ">
<path fill="none" stroke="#63b8ff" d="M597.44,-382.27C694.5,-321.79 931.52,-174.14 1018.46,-119.97"/>
<polygon fill="#63b8ff" stroke="#63b8ff" points="595.59,-379.29 588.95,-387.55 599.29,-385.23 595.59,-379.29"/>
</a>
</g>
</g>
<!-- Node17 -->
<g id="Node000017" class="node">
<title>Node17</title>
<g id="a_Node000017"><a xlink:href="_wasm_backend_8hh.html" target="_top" xlink:title=" ">
<polygon fill="white" stroke="#666666" points="423,-119.5 295.25,-119.5 295.25,-77.75 423,-77.75 423,-119.5"/>
<text xml:space="preserve" text-anchor="start" x="303.25" y="-106" font-family="Helvetica,sans-Serif" font-size="10.00">frontend/node_modules</text>
<text xml:space="preserve" text-anchor="start" x="303.25" y="-94.75" font-family="Helvetica,sans-Serif" font-size="10.00">/@parcel/watcher/src</text>
<text xml:space="preserve" text-anchor="middle" x="359.12" y="-83.5" font-family="Helvetica,sans-Serif" font-size="10.00">/wasm/WasmBackend.hh</text>
</a>
</g>
</g>
<!-- Node1&#45;&gt;Node17 -->
<g id="edge35_Node000001_Node000017" class="edge">
<title>Node1&#45;&gt;Node17</title>
<g id="a_edge35_Node000001_Node000017"><a xlink:title=" ">
<path fill="none" stroke="#63b8ff" d="M485.76,-388.05C467.68,-379.7 449.75,-368.25 437.12,-352.75 380.14,-282.8 421.39,-239.76 389.12,-155.5 384.44,-143.26 377.63,-130.33 371.68,-119.99"/>
<polygon fill="#63b8ff" stroke="#63b8ff" points="484.12,-391.16 494.69,-391.9 486.89,-384.73 484.12,-391.16"/>
</a>
</g>
</g>
<!-- Node19 -->
<g id="Node000019" class="node">
<title>Node19</title>
<g id="a_Node000019"><a xlink:href="_windows_backend_8cc.html" target="_top" xlink:title=" ">
<polygon fill="white" stroke="#666666" points="936.38,-41.75 783.88,-41.75 783.88,0 936.38,0 936.38,-41.75"/>
<text xml:space="preserve" text-anchor="start" x="791.88" y="-28.25" font-family="Helvetica,sans-Serif" font-size="10.00">frontend/node_modules</text>
<text xml:space="preserve" text-anchor="start" x="791.88" y="-17" font-family="Helvetica,sans-Serif" font-size="10.00">/@parcel/watcher/src</text>
<text xml:space="preserve" text-anchor="middle" x="860.12" y="-5.75" font-family="Helvetica,sans-Serif" font-size="10.00">/windows/WindowsBackend.cc</text>
</a>
</g>
</g>
<!-- Node1&#45;&gt;Node19 -->
<g id="edge37_Node000001_Node000019" class="edge">
<title>Node1&#45;&gt;Node19</title>
<g id="a_edge37_Node000001_Node000019"><a xlink:title=" ">
<path fill="none" stroke="#63b8ff" d="M521.41,-381.04C491.04,-352.88 451.12,-306.17 451.12,-255.12 451.12,-255.12 451.12,-255.12 451.12,-175.38 451.12,-131.17 438.1,-108.22 470.12,-77.75 513.92,-36.09 683.15,-25.32 783.73,-22.65"/>
<polygon fill="#63b8ff" stroke="#63b8ff" points="518.78,-383.38 528.56,-387.46 523.46,-378.18 518.78,-383.38"/>
</a>
</g>
</g>
<!-- Node22 -->
<g id="Node000022" class="node">
<title>Node22</title>
<g id="a_Node000022"><a xlink:href="_watchman_backend_8cc.html" target="_top" xlink:title=" ">
<polygon fill="white" stroke="#666666" points="1680.75,-119.5 1515.5,-119.5 1515.5,-77.75 1680.75,-77.75 1680.75,-119.5"/>
<text xml:space="preserve" text-anchor="start" x="1523.5" y="-106" font-family="Helvetica,sans-Serif" font-size="10.00">frontend/node_modules</text>
<text xml:space="preserve" text-anchor="start" x="1523.5" y="-94.75" font-family="Helvetica,sans-Serif" font-size="10.00">/@parcel/watcher/src</text>
<text xml:space="preserve" text-anchor="middle" x="1598.12" y="-83.5" font-family="Helvetica,sans-Serif" font-size="10.00">/watchman/WatchmanBackend.cc</text>
</a>
</g>
</g>
<!-- Node1&#45;&gt;Node22 -->
<g id="edge36_Node000001_Node000022" class="edge">
<title>Node1&#45;&gt;Node22</title>
<g id="a_edge36_Node000001_Node000022"><a xlink:title=" ">
<path fill="none" stroke="#63b8ff" d="M625.36,-408.31C744.94,-406.49 995.11,-397.15 1201.12,-352.75 1397.75,-310.37 1512,-362.87 1626.12,-197.25 1642.33,-173.73 1626.81,-140.88 1613.23,-119.93"/>
<polygon fill="#63b8ff" stroke="#63b8ff" points="625.67,-404.8 615.72,-408.44 625.77,-411.8 625.67,-404.8"/>
</a>
</g>
</g>
<!-- Node4 -->
<g id="Node000004" class="node">
<title>Node4</title>
<g id="a_Node000004"><a xlink:href="_backend_8hh.html" target="_top" xlink:title=" ">
<polygon fill="white" stroke="#666666" points="1238.75,-275 1121.5,-275 1121.5,-233.25 1238.75,-233.25 1238.75,-275"/>
<text xml:space="preserve" text-anchor="start" x="1129.5" y="-261.5" font-family="Helvetica,sans-Serif" font-size="10.00">frontend/node_modules</text>
<text xml:space="preserve" text-anchor="start" x="1129.5" y="-250.25" font-family="Helvetica,sans-Serif" font-size="10.00">/@parcel/watcher/src</text>
<text xml:space="preserve" text-anchor="middle" x="1180.12" y="-239" font-family="Helvetica,sans-Serif" font-size="10.00">/Backend.hh</text>
</a>
</g>
</g>
<!-- Node3&#45;&gt;Node4 -->
<g id="edge3_Node000003_Node000004" class="edge">
<title>Node3&#45;&gt;Node4</title>
<g id="a_edge3_Node000003_Node000004"><a xlink:title=" ">
<path fill="none" stroke="#63b8ff" d="M1151.71,-300.93C1157,-292.39 1162.64,-283.3 1167.5,-275.48"/>
<polygon fill="#63b8ff" stroke="#63b8ff" points="1148.82,-298.95 1146.52,-309.29 1154.76,-302.64 1148.82,-298.95"/>
</a>
</g>
</g>
<!-- Node6 -->
<g id="Node000006" class="node">
<title>Node6</title>
<g id="a_Node000006"><a xlink:href="binding_8cc.html" target="_top" xlink:title=" ">
<polygon fill="white" stroke="#666666" points="1616.75,-197.25 1499.5,-197.25 1499.5,-155.5 1616.75,-155.5 1616.75,-197.25"/>
<text xml:space="preserve" text-anchor="start" x="1507.5" y="-183.75" font-family="Helvetica,sans-Serif" font-size="10.00">frontend/node_modules</text>
<text xml:space="preserve" text-anchor="start" x="1507.5" y="-172.5" font-family="Helvetica,sans-Serif" font-size="10.00">/@parcel/watcher/src</text>
<text xml:space="preserve" text-anchor="middle" x="1558.12" y="-161.25" font-family="Helvetica,sans-Serif" font-size="10.00">/binding.cc</text>
</a>
</g>
</g>
<!-- Node3&#45;&gt;Node6 -->
<g id="edge26_Node000003_Node000006" class="edge">
<title>Node3&#45;&gt;Node6</title>
<g id="a_edge26_Node000003_Node000006"><a xlink:title=" ">
<path fill="none" stroke="#63b8ff" d="M1195.63,-305.8C1213.4,-297.3 1232.23,-286.89 1248.12,-275 1268.22,-259.97 1264.14,-245.35 1286.12,-233.25 1367.17,-188.65 1401.08,-218.44 1491.12,-197.25 1493.72,-196.64 1496.37,-195.99 1499.04,-195.3"/>
<polygon fill="#63b8ff" stroke="#63b8ff" points="1194.29,-302.56 1186.69,-309.95 1197.24,-308.91 1194.29,-302.56"/>
</a>
</g>
</g>
<!-- Node7 -->
<g id="Node000007" class="node">
<title>Node7</title>
<g id="a_Node000007"><a xlink:href="_f_s_events_backend_8cc.html" target="_top" xlink:title=" ">
<polygon fill="white" stroke="#666666" points="1409.38,-119.5 1262.88,-119.5 1262.88,-77.75 1409.38,-77.75 1409.38,-119.5"/>
<text xml:space="preserve" text-anchor="start" x="1270.88" y="-106" font-family="Helvetica,sans-Serif" font-size="10.00">frontend/node_modules</text>
<text xml:space="preserve" text-anchor="start" x="1270.88" y="-94.75" font-family="Helvetica,sans-Serif" font-size="10.00">/@parcel/watcher/src</text>
<text xml:space="preserve" text-anchor="middle" x="1336.12" y="-83.5" font-family="Helvetica,sans-Serif" font-size="10.00">/macos/FSEventsBackend.cc</text>
</a>
</g>
</g>
<!-- Node3&#45;&gt;Node7 -->
<g id="edge27_Node000003_Node000007" class="edge">
<title>Node3&#45;&gt;Node7</title>
<g id="a_edge27_Node000003_Node000007"><a xlink:title=" ">
<path fill="none" stroke="#63b8ff" d="M1115.72,-300.58C1096.45,-262.59 1072.18,-197.35 1105.12,-155.5 1147.26,-101.97 1187.91,-135.52 1254.12,-119.5 1256.97,-118.81 1259.88,-118.11 1262.81,-117.4"/>
<polygon fill="#63b8ff" stroke="#63b8ff" points="1112.5,-301.98 1120.26,-309.2 1118.69,-298.72 1112.5,-301.98"/>
</a>
</g>
</g>
<!-- Node3&#45;&gt;Node9 -->
<g id="edge28_Node000003_Node000009" class="edge">
<title>Node3&#45;&gt;Node9</title>
<g id="a_edge28_Node000003_Node000009"><a xlink:title=" ">
<path fill="none" stroke="#63b8ff" d="M1071.62,-306.54C995.53,-276.44 867.37,-225.74 796.36,-197.65"/>
<polygon fill="#63b8ff" stroke="#63b8ff" points="1070.01,-309.67 1080.59,-310.09 1072.58,-303.16 1070.01,-309.67"/>
</a>
</g>
</g>
<!-- Node23 -->
<g id="Node000023" class="node">
<title>Node23</title>
<g id="a_Node000023"><a xlink:href="_watcher_8cc.html" target="_top" xlink:title=" ">
<polygon fill="white" stroke="#666666" points="1412.75,-275 1295.5,-275 1295.5,-233.25 1412.75,-233.25 1412.75,-275"/>
<text xml:space="preserve" text-anchor="start" x="1303.5" y="-261.5" font-family="Helvetica,sans-Serif" font-size="10.00">frontend/node_modules</text>
<text xml:space="preserve" text-anchor="start" x="1303.5" y="-250.25" font-family="Helvetica,sans-Serif" font-size="10.00">/@parcel/watcher/src</text>
<text xml:space="preserve" text-anchor="middle" x="1354.12" y="-239" font-family="Helvetica,sans-Serif" font-size="10.00">/Watcher.cc</text>
</a>
</g>
</g>
<!-- Node3&#45;&gt;Node23 -->
<g id="edge25_Node000003_Node000023" class="edge">
<title>Node3&#45;&gt;Node23</title>
<g id="a_edge25_Node000003_Node000023"><a xlink:title=" ">
<path fill="none" stroke="#63b8ff" d="M1202.79,-307C1232.55,-296.8 1266.91,-285.02 1295.36,-275.27"/>
<polygon fill="#63b8ff" stroke="#63b8ff" points="1201.82,-303.63 1193.49,-310.18 1204.09,-310.25 1201.82,-303.63"/>
</a>
</g>
</g>
<!-- Node5 -->
<g id="Node000005" class="node">
<title>Node5</title>
<g id="a_Node000005"><a xlink:href="_backend_8cc.html" target="_top" xlink:title=" ">
<polygon fill="white" stroke="#666666" points="1244.75,-119.5 1127.5,-119.5 1127.5,-77.75 1244.75,-77.75 1244.75,-119.5"/>
<text xml:space="preserve" text-anchor="start" x="1135.5" y="-106" font-family="Helvetica,sans-Serif" font-size="10.00">frontend/node_modules</text>
<text xml:space="preserve" text-anchor="start" x="1135.5" y="-94.75" font-family="Helvetica,sans-Serif" font-size="10.00">/@parcel/watcher/src</text>
<text xml:space="preserve" text-anchor="middle" x="1186.12" y="-83.5" font-family="Helvetica,sans-Serif" font-size="10.00">/Backend.cc</text>
</a>
</g>
</g>
<!-- Node4&#45;&gt;Node5 -->
<g id="edge4_Node000004_Node000005" class="edge">
<title>Node4&#45;&gt;Node5</title>
<g id="a_edge4_Node000004_Node000005"><a xlink:title=" ">
<path fill="none" stroke="#63b8ff" d="M1130.35,-226.34C1120.2,-218.4 1110.87,-208.7 1105.12,-197.25 1096.8,-180.67 1096.5,-171.93 1105.12,-155.5 1112.99,-140.53 1126.88,-128.78 1140.97,-120"/>
<polygon fill="#63b8ff" stroke="#63b8ff" points="1128.03,-228.98 1138.19,-231.98 1132.12,-223.3 1128.03,-228.98"/>
</a>
</g>
</g>
<!-- Node4&#45;&gt;Node6 -->
<g id="edge5_Node000004_Node000006" class="edge">
<title>Node4&#45;&gt;Node6</title>
<g id="a_edge5_Node000004_Node000006"><a xlink:title=" ">
<path fill="none" stroke="#63b8ff" d="M1250.07,-233.91C1251.09,-233.68 1252.11,-233.46 1253.12,-233.25 1357.8,-211.16 1386.7,-220.52 1491.12,-197.25 1493.73,-196.67 1496.38,-196.04 1499.05,-195.38"/>
<polygon fill="#63b8ff" stroke="#63b8ff" points="1249.38,-230.47 1240.42,-236.14 1250.96,-237.29 1249.38,-230.47"/>
</a>
</g>
</g>
<!-- Node4&#45;&gt;Node7 -->
<g id="edge6_Node000004_Node000007" class="edge">
<title>Node4&#45;&gt;Node7</title>
<g id="a_edge6_Node000004_Node000007"><a xlink:title=" ">
<path fill="none" stroke="#63b8ff" d="M1229.6,-227.03C1243.24,-218.56 1257.48,-208.43 1269.12,-197.25 1293.3,-174.05 1313.85,-140.81 1325.59,-119.73"/>
<polygon fill="#63b8ff" stroke="#63b8ff" points="1227.9,-223.97 1221.12,-232.12 1231.5,-229.98 1227.9,-223.97"/>
</a>
</g>
</g>
<!-- Node8 -->
<g id="Node000008" class="node">
<title>Node8</title>
<g id="a_Node000008"><a xlink:href="_f_s_events_backend_8hh.html" target="_top" xlink:title=" ">
<polygon fill="white" stroke="#666666" points="1260.38,-197.25 1113.88,-197.25 1113.88,-155.5 1260.38,-155.5 1260.38,-197.25"/>
<text xml:space="preserve" text-anchor="start" x="1121.88" y="-183.75" font-family="Helvetica,sans-Serif" font-size="10.00">frontend/node_modules</text>
<text xml:space="preserve" text-anchor="start" x="1121.88" y="-172.5" font-family="Helvetica,sans-Serif" font-size="10.00">/@parcel/watcher/src</text>
<text xml:space="preserve" text-anchor="middle" x="1187.12" y="-161.25" font-family="Helvetica,sans-Serif" font-size="10.00">/macos/FSEventsBackend.hh</text>
</a>
</g>
</g>
<!-- Node4&#45;&gt;Node8 -->
<g id="edge7_Node000004_Node000008" class="edge">
<title>Node4&#45;&gt;Node8</title>
<g id="a_edge7_Node000004_Node000008"><a xlink:title=" ">
<path fill="none" stroke="#63b8ff" d="M1183.05,-221.5C1183.79,-213.46 1184.57,-205.04 1185.24,-197.73"/>
<polygon fill="#63b8ff" stroke="#63b8ff" points="1179.58,-221.04 1182.14,-231.32 1186.55,-221.68 1179.58,-221.04"/>
</a>
</g>
</g>
<!-- Node4&#45;&gt;Node9 -->
<g id="edge9_Node000004_Node000009" class="edge">
<title>Node4&#45;&gt;Node9</title>
<g id="a_edge9_Node000004_Node000009"><a xlink:title=" ">
<path fill="none" stroke="#63b8ff" d="M1109.68,-240.86C1030.46,-227.06 902.28,-204.74 820.93,-190.58"/>
<polygon fill="#63b8ff" stroke="#63b8ff" points="1109.06,-244.3 1119.52,-242.57 1110.26,-237.41 1109.06,-244.3"/>
</a>
</g>
</g>
<!-- Node21 -->
<g id="Node000021" class="node">
<title>Node21</title>
<g id="a_Node000021"><a xlink:href="_watchman_backend_8hh.html" target="_top" xlink:title=" ">
<polygon fill="white" stroke="#666666" points="1481.75,-197.25 1316.5,-197.25 1316.5,-155.5 1481.75,-155.5 1481.75,-197.25"/>
<text xml:space="preserve" text-anchor="start" x="1324.5" y="-183.75" font-family="Helvetica,sans-Serif" font-size="10.00">frontend/node_modules</text>
<text xml:space="preserve" text-anchor="start" x="1324.5" y="-172.5" font-family="Helvetica,sans-Serif" font-size="10.00">/@parcel/watcher/src</text>
<text xml:space="preserve" text-anchor="middle" x="1399.12" y="-161.25" font-family="Helvetica,sans-Serif" font-size="10.00">/watchman/WatchmanBackend.hh</text>
</a>
</g>
</g>
<!-- Node4&#45;&gt;Node21 -->
<g id="edge23_Node000004_Node000021" class="edge">
<title>Node4&#45;&gt;Node21</title>
<g id="a_edge23_Node000004_Node000021"><a xlink:title=" ">
<path fill="none" stroke="#63b8ff" d="M1249.36,-229.18C1278.59,-219.07 1312.27,-207.42 1340.28,-197.73"/>
<polygon fill="#63b8ff" stroke="#63b8ff" points="1248.55,-225.75 1240.24,-232.33 1250.84,-232.37 1248.55,-225.75"/>
</a>
</g>
</g>
<!-- Node8&#45;&gt;Node7 -->
<g id="edge8_Node000008_Node000007" class="edge">
<title>Node8&#45;&gt;Node7</title>
<g id="a_edge8_Node000008_Node000007"><a xlink:title=" ">
<path fill="none" stroke="#63b8ff" d="M1237.13,-149.95C1256.32,-140.2 1277.95,-129.2 1296.09,-119.98"/>
<polygon fill="#63b8ff" stroke="#63b8ff" points="1235.73,-146.74 1228.4,-154.39 1238.9,-152.98 1235.73,-146.74"/>
</a>
</g>
</g>
<!-- Node9&#45;&gt;Node5 -->
<g id="edge10_Node000009_Node000005" class="edge">
<title>Node9&#45;&gt;Node5</title>
<g id="a_edge10_Node000009_Node000005"><a xlink:title=" ">
<path fill="none" stroke="#63b8ff" d="M831.88,-165.91C908.09,-156.77 1021.69,-141.12 1119.12,-119.5 1121.73,-118.92 1124.38,-118.3 1127.06,-117.64"/>
<polygon fill="#63b8ff" stroke="#63b8ff" points="831.93,-162.38 822.41,-167.03 832.76,-169.33 831.93,-162.38"/>
</a>
</g>
</g>
<!-- Node9&#45;&gt;Node10 -->
<g id="edge11_Node000009_Node000010" class="edge">
<title>Node9&#45;&gt;Node10</title>
<g id="a_edge11_Node000009_Node000010"><a xlink:title=" ">
<path fill="none" stroke="#63b8ff" d="M658.23,-171.52C541.35,-165.37 327.35,-150.68 147.12,-119.5 144.37,-119.02 141.57,-118.5 138.75,-117.94"/>
<polygon fill="#63b8ff" stroke="#63b8ff" points="657.9,-175.01 668.06,-172.03 658.26,-168.02 657.9,-175.01"/>
</a>
</g>
</g>
<!-- Node9&#45;&gt;Node12 -->
<g id="edge13_Node000009_Node000012" class="edge">
<title>Node9&#45;&gt;Node12</title>
<g id="a_edge13_Node000009_Node000012"><a xlink:title=" ">
<path fill="none" stroke="#63b8ff" d="M658.1,-168.94C565.28,-161.1 414.31,-145.59 286.12,-119.5 283.44,-118.95 280.7,-118.35 277.95,-117.71"/>
<polygon fill="#63b8ff" stroke="#63b8ff" points="657.64,-172.41 667.89,-169.75 658.22,-165.43 657.64,-172.41"/>
</a>
</g>
</g>
<!-- Node9&#45;&gt;Node14 -->
<g id="edge15_Node000009_Node000014" class="edge">
<title>Node9&#45;&gt;Node14</title>
<g id="a_edge15_Node000009_Node000014"><a xlink:title=" ">
<path fill="none" stroke="#63b8ff" d="M683.72,-150.89C658.67,-140.91 630.05,-129.5 606.18,-119.98"/>
<polygon fill="#63b8ff" stroke="#63b8ff" points="682.22,-154.06 692.8,-154.51 684.81,-147.56 682.22,-154.06"/>
</a>
</g>
</g>
<!-- Node9&#45;&gt;Node15 -->
<g id="edge16_Node000009_Node000015" class="edge">
<title>Node9&#45;&gt;Node15</title>
<g id="a_edge16_Node000009_Node000015"><a xlink:title=" ">
<path fill="none" stroke="#63b8ff" d="M729.82,-144.87C725.62,-136.5 721.17,-127.63 717.34,-119.98"/>
<polygon fill="#63b8ff" stroke="#63b8ff" points="726.65,-146.35 734.26,-153.72 732.91,-143.21 726.65,-146.35"/>
</a>
</g>
</g>
<!-- Node9&#45;&gt;Node16 -->
<g id="edge17_Node000009_Node000016" class="edge">
<title>Node9&#45;&gt;Node16</title>
<g id="a_edge17_Node000009_Node000016"><a xlink:title=" ">
<path fill="none" stroke="#63b8ff" d="M832.01,-155.2C875.9,-144.85 929.92,-131.84 978.12,-119.5 982.71,-118.33 987.44,-117.09 992.2,-115.83"/>
<polygon fill="#63b8ff" stroke="#63b8ff" points="831.49,-151.73 822.56,-157.43 833.09,-158.54 831.49,-151.73"/>
</a>
</g>
</g>
<!-- Node9&#45;&gt;Node17 -->
<g id="edge18_Node000009_Node000017" class="edge">
<title>Node9&#45;&gt;Node17</title>
<g id="a_edge18_Node000009_Node000017"><a xlink:title=" ">
<path fill="none" stroke="#63b8ff" d="M658.13,-158.3C586.8,-144.3 487.47,-124.81 423.23,-112.21"/>
<polygon fill="#63b8ff" stroke="#63b8ff" points="657.35,-161.72 667.84,-160.21 658.7,-154.85 657.35,-161.72"/>
</a>
</g>
</g>
<!-- Node9&#45;&gt;Node19 -->
<g id="edge20_Node000009_Node000019" class="edge">
<title>Node9&#45;&gt;Node19</title>
<g id="a_edge20_Node000009_Node000019"><a xlink:title=" ">
<path fill="none" stroke="#63b8ff" d="M832.16,-161.72C879.36,-152.35 930.93,-138.21 945.12,-119.5 956.34,-104.72 953.93,-94.08 945.12,-77.75 936.91,-62.52 922.53,-50.76 907.9,-42.05"/>
<polygon fill="#63b8ff" stroke="#63b8ff" points="831.55,-158.28 822.39,-163.6 832.87,-165.15 831.55,-158.28"/>
</a>
</g>
</g>
<!-- Node20 -->
<g id="Node000020" class="node">
<title>Node20</title>
<g id="a_Node000020"><a xlink:href="_windows_backend_8hh.html" target="_top" xlink:title=" ">
<polygon fill="white" stroke="#666666" points="936.38,-119.5 783.88,-119.5 783.88,-77.75 936.38,-77.75 936.38,-119.5"/>
<text xml:space="preserve" text-anchor="start" x="791.88" y="-106" font-family="Helvetica,sans-Serif" font-size="10.00">frontend/node_modules</text>
<text xml:space="preserve" text-anchor="start" x="791.88" y="-94.75" font-family="Helvetica,sans-Serif" font-size="10.00">/@parcel/watcher/src</text>
<text xml:space="preserve" text-anchor="middle" x="860.12" y="-83.5" font-family="Helvetica,sans-Serif" font-size="10.00">/windows/WindowsBackend.hh</text>
</a>
</g>
</g>
<!-- Node9&#45;&gt;Node20 -->
<g id="edge21_Node000009_Node000020" class="edge">
<title>Node9&#45;&gt;Node20</title>
<g id="a_edge21_Node000009_Node000020"><a xlink:title=" ">
<path fill="none" stroke="#63b8ff" d="M785.16,-149.01C799.6,-139.49 815.68,-128.9 829.22,-119.98"/>
<polygon fill="#63b8ff" stroke="#63b8ff" points="783.63,-145.82 777.21,-154.24 787.48,-151.66 783.63,-145.82"/>
</a>
</g>
</g>
<!-- Node11 -->
<g id="Node000011" class="node">
<title>Node11</title>
<g id="a_Node000011"><a xlink:href="_kqueue_backend_8cc.html" target="_top" xlink:title=" ">
<polygon fill="white" stroke="#666666" points="138.25,-41.75 0,-41.75 0,0 138.25,0 138.25,-41.75"/>
<text xml:space="preserve" text-anchor="start" x="8" y="-28.25" font-family="Helvetica,sans-Serif" font-size="10.00">frontend/node_modules</text>
<text xml:space="preserve" text-anchor="start" x="8" y="-17" font-family="Helvetica,sans-Serif" font-size="10.00">/@parcel/watcher/src</text>
<text xml:space="preserve" text-anchor="middle" x="69.12" y="-5.75" font-family="Helvetica,sans-Serif" font-size="10.00">/kqueue/KqueueBackend.cc</text>
</a>
</g>
</g>
<!-- Node10&#45;&gt;Node11 -->
<g id="edge12_Node000010_Node000011" class="edge">
<title>Node10&#45;&gt;Node11</title>
<g id="a_edge12_Node000010_Node000011"><a xlink:title=" ">
<path fill="none" stroke="#63b8ff" d="M69.12,-66C69.12,-57.96 69.12,-49.54 69.12,-42.23"/>
<polygon fill="#63b8ff" stroke="#63b8ff" points="65.63,-65.81 69.13,-75.81 72.63,-65.81 65.63,-65.81"/>
</a>
</g>
</g>
<!-- Node13 -->
<g id="Node000013" class="node">
<title>Node13</title>
<g id="a_Node000013"><a xlink:href="_inotify_backend_8cc.html" target="_top" xlink:title=" ">
<polygon fill="white" stroke="#666666" points="277.62,-41.75 156.62,-41.75 156.62,0 277.62,0 277.62,-41.75"/>
<text xml:space="preserve" text-anchor="start" x="164.62" y="-28.25" font-family="Helvetica,sans-Serif" font-size="10.00">frontend/node_modules</text>
<text xml:space="preserve" text-anchor="start" x="164.62" y="-17" font-family="Helvetica,sans-Serif" font-size="10.00">/@parcel/watcher/src</text>
<text xml:space="preserve" text-anchor="middle" x="217.12" y="-5.75" font-family="Helvetica,sans-Serif" font-size="10.00">/linux/InotifyBackend.cc</text>
</a>
</g>
</g>
<!-- Node12&#45;&gt;Node13 -->
<g id="edge14_Node000012_Node000013" class="edge">
<title>Node12&#45;&gt;Node13</title>
<g id="a_edge14_Node000012_Node000013"><a xlink:title=" ">
<path fill="none" stroke="#63b8ff" d="M217.12,-66C217.12,-57.96 217.12,-49.54 217.12,-42.23"/>
<polygon fill="#63b8ff" stroke="#63b8ff" points="213.63,-65.81 217.13,-75.81 220.63,-65.81 213.63,-65.81"/>
</a>
</g>
</g>
<!-- Node18 -->
<g id="Node000018" class="node">
<title>Node18</title>
<g id="a_Node000018"><a xlink:href="_wasm_backend_8cc.html" target="_top" xlink:title=" ">
<polygon fill="white" stroke="#666666" points="423,-41.75 295.25,-41.75 295.25,0 423,0 423,-41.75"/>
<text xml:space="preserve" text-anchor="start" x="303.25" y="-28.25" font-family="Helvetica,sans-Serif" font-size="10.00">frontend/node_modules</text>
<text xml:space="preserve" text-anchor="start" x="303.25" y="-17" font-family="Helvetica,sans-Serif" font-size="10.00">/@parcel/watcher/src</text>
<text xml:space="preserve" text-anchor="middle" x="359.12" y="-5.75" font-family="Helvetica,sans-Serif" font-size="10.00">/wasm/WasmBackend.cc</text>
</a>
</g>
</g>
<!-- Node17&#45;&gt;Node18 -->
<g id="edge19_Node000017_Node000018" class="edge">
<title>Node17&#45;&gt;Node18</title>
<g id="a_edge19_Node000017_Node000018"><a xlink:title=" ">
<path fill="none" stroke="#63b8ff" d="M359.12,-66C359.12,-57.96 359.12,-49.54 359.12,-42.23"/>
<polygon fill="#63b8ff" stroke="#63b8ff" points="355.63,-65.81 359.13,-75.81 362.63,-65.81 355.63,-65.81"/>
</a>
</g>
</g>
<!-- Node20&#45;&gt;Node19 -->
<g id="edge22_Node000020_Node000019" class="edge">
<title>Node20&#45;&gt;Node19</title>
<g id="a_edge22_Node000020_Node000019"><a xlink:title=" ">
<path fill="none" stroke="#63b8ff" d="M860.12,-66C860.12,-57.96 860.12,-49.54 860.12,-42.23"/>
<polygon fill="#63b8ff" stroke="#63b8ff" points="856.63,-65.81 860.13,-75.81 863.63,-65.81 856.63,-65.81"/>
</a>
</g>
</g>
<!-- Node21&#45;&gt;Node22 -->
<g id="edge24_Node000021_Node000022" class="edge">
<title>Node21&#45;&gt;Node22</title>
<g id="a_edge24_Node000021_Node000022"><a xlink:title=" ">
<path fill="none" stroke="#63b8ff" d="M1463.09,-151.03C1489.4,-141.01 1519.54,-129.54 1544.65,-119.98"/>
<polygon fill="#63b8ff" stroke="#63b8ff" points="1461.97,-147.71 1453.87,-154.54 1464.46,-154.25 1461.97,-147.71"/>
</a>
</g>
</g>
</g>
</svg>

<g id="navigator" transform="translate(0 0)" fill="#404254">
  <rect fill="#f2f5e9" fill-opacity="0.5" stroke="#606060" stroke-width=".5" x="0" y="0" width="60" height="60"/>
  <use id="zoomplus" xlink:href="#zoomPlus" x="17" y="9" onmousedown="handleZoom(evt,'in')"/>
  <use id="zoomminus" xlink:href="#zoomMin" x="42" y="9" onmousedown="handleZoom(evt,'out')"/>
  <use id="reset" xlink:href="#resetDef" x="30" y="36" onmousedown="handleReset()"/>
   <use id="arrowup" xlink:href="#arrowUp" x="0" y="0" onmousedown="handlePan(0,-1)"/>
  <use id="arrowright" xlink:href="#arrowRight" x="0" y="0" onmousedown="handlePan(1,0)"/>
  <use id="arrowdown" xlink:href="#arrowDown" x="0" y="0" onmousedown="handlePan(0,1)"/>
  <use id="arrowleft" xlink:href="#arrowLeft" x="0" y="0" onmousedown="handlePan(-1,0)"/>
</g>
<svg viewBox="0 0 15 15" width="100%" height="30px" preserveAspectRatio="xMaxYMin meet">
 <g id="arrow_out" transform="scale(0.3 0.3)">
  <a xlink:href="_dir_tree_8hh__dep__incl_org.svg" target="_base">
   <rect id="button" ry="5" rx="5" y="6" x="6" height="38" width="38"
        fill="#f2f5e9" fill-opacity="0.5" stroke="#606060" stroke-width="1.0"/>
   <path id="arrow"
     d="M 11.500037,31.436501 C 11.940474,20.09759 22.043105,11.32322 32.158766,21.979434 L 37.068811,17.246167 C 37.068811,17.246167 37.088388,32 37.088388,32 L 22.160133,31.978069 C 22.160133,31.978069 26.997745,27.140456 26.997745,27.140456 C 18.528582,18.264221 13.291696,25.230495 11.500037,31.436501 z"
     style="fill:#404040;"/>
  </a>
 </g>
</svg>

<style type='text/css'>
<![CDATA[
[data-mouse-over-selected='false'] { opacity: 0.7; }
[data-mouse-over-selected='true']  { opacity: 1.0; }
]]>
</style>
<script type="application/ecmascript"><![CDATA[
document.addEventListener('DOMContentLoaded', (event) => {
  highlightEdges();
  highlightAdjacentNodes();
});
]]></script>
</svg>
