<?xml version="1.0" encoding="UTF-8" standalone="no"?>
<!DOCTYPE svg PUBLIC "-//W3C//DTD SVG 1.1//EN"
 "http://www.w3.org/Graphics/SVG/1.1/DTD/svg11.dtd">
<!-- Generated by graphviz version 14.0.4 (20251115.1723)
 -->
<!-- Title: frontend/node_modules/@parcel/watcher/src/DirTree.hh Pages: 1 -->
<svg width="726pt" height="271pt"
 viewBox="0.00 0.00 726.00 271.00" xmlns="http://www.w3.org/2000/svg" xmlns:xlink="http://www.w3.org/1999/xlink">
<g id="graph0" class="graph" transform="scale(1 1) rotate(0) translate(4 266.75)">
<title>frontend/node_modules/@parcel/watcher/src/DirTree.hh</title>
<!-- Node1 -->
<g id="Node000001" class="node">
<title>Node1</title>
<g id="a_Node000001"><a xlink:title=" ">
<polygon fill="#999999" stroke="#666666" points="148.45,-262.75 31.2,-262.75 31.2,-221 148.45,-221 148.45,-262.75"/>
<text xml:space="preserve" text-anchor="start" x="39.2" y="-249.25" font-family="Helvetica,sans-Serif" font-size="10.00">frontend/node_modules</text>
<text xml:space="preserve" text-anchor="start" x="39.2" y="-238" font-family="Helvetica,sans-Serif" font-size="10.00">/@parcel/watcher/src</text>
<text xml:space="preserve" text-anchor="middle" x="89.82" y="-226.75" font-family="Helvetica,sans-Serif" font-size="10.00">/DirTree.hh</text>
</a>
</g>
</g>
<!-- Node2 -->
<g id="Node000002" class="node">
<title>Node2</title>
<g id="a_Node000002"><a xlink:title=" ">
<polygon fill="#e0e0e0" stroke="#999999" points="80.82,-74.5 40.82,-74.5 40.82,-55.25 80.82,-55.25 80.82,-74.5"/>
<text xml:space="preserve" text-anchor="middle" x="60.82" y="-61" font-family="Helvetica,sans-Serif" font-size="10.00">string</text>
</a>
</g>
</g>
<!-- Node1&#45;&gt;Node2 -->
<g id="edge1_Node000001_Node000002" class="edge">
<title>Node1&#45;&gt;Node2</title>
<g id="a_edge1_Node000001_Node000002"><a xlink:title=" ">
<path fill="none" stroke="#63b8ff" d="M42.59,-220.58C28.14,-211.86 13.93,-200.13 5.82,-185 -13.26,-149.39 20.49,-105.95 43.03,-82.62"/>
<polygon fill="#63b8ff" stroke="#63b8ff" points="45.28,-85.31 49.91,-75.78 40.35,-80.35 45.28,-85.31"/>
</a>
</g>
</g>
<!-- Node3 -->
<g id="Node000003" class="node">
<title>Node3</title>
<g id="a_Node000003"><a xlink:title=" ">
<polygon fill="#e0e0e0" stroke="#999999" points="97.2,-185 14.45,-185 14.45,-165.75 97.2,-165.75 97.2,-185"/>
<text xml:space="preserve" text-anchor="middle" x="55.82" y="-171.5" font-family="Helvetica,sans-Serif" font-size="10.00">unordered_map</text>
</a>
</g>
</g>
<!-- Node1&#45;&gt;Node3 -->
<g id="edge2_Node000001_Node000003" class="edge">
<title>Node1&#45;&gt;Node3</title>
<g id="a_edge2_Node000001_Node000003"><a xlink:title=" ">
<path fill="none" stroke="#63b8ff" d="M79.25,-220.82C75.01,-212.78 70.14,-203.55 65.95,-195.59"/>
<polygon fill="#63b8ff" stroke="#63b8ff" points="69.07,-194 61.31,-186.78 62.88,-197.26 69.07,-194"/>
</a>
</g>
</g>
<!-- Node4 -->
<g id="Node000004" class="node">
<title>Node4</title>
<g id="a_Node000004"><a xlink:title=" ">
<polygon fill="#e0e0e0" stroke="#999999" points="150.45,-74.5 99.2,-74.5 99.2,-55.25 150.45,-55.25 150.45,-74.5"/>
<text xml:space="preserve" text-anchor="middle" x="124.82" y="-61" font-family="Helvetica,sans-Serif" font-size="10.00">memory</text>
</a>
</g>
</g>
<!-- Node1&#45;&gt;Node4 -->
<g id="edge3_Node000001_Node000004" class="edge">
<title>Node1&#45;&gt;Node4</title>
<g id="a_edge3_Node000001_Node000004"><a xlink:title=" ">
<path fill="none" stroke="#63b8ff" d="M96.27,-220.59C99.46,-210.05 103.17,-196.92 105.82,-185 113.45,-150.67 119.24,-110.13 122.33,-86.29"/>
<polygon fill="#63b8ff" stroke="#63b8ff" points="125.8,-86.77 123.57,-76.41 118.85,-85.9 125.8,-86.77"/>
</a>
</g>
</g>
<!-- Node5 -->
<g id="Node000005" class="node">
<title>Node5</title>
<g id="a_Node000005"><a xlink:href="_event_8hh.html" target="_top" xlink:title=" ">
<polygon fill="white" stroke="#666666" points="338.32,-185 283.32,-185 283.32,-165.75 338.32,-165.75 338.32,-185"/>
<text xml:space="preserve" text-anchor="middle" x="310.82" y="-171.5" font-family="Helvetica,sans-Serif" font-size="10.00">Event.hh</text>
</a>
</g>
</g>
<!-- Node1&#45;&gt;Node5 -->
<g id="edge4_Node000001_Node000005" class="edge">
<title>Node1&#45;&gt;Node5</title>
<g id="a_edge4_Node000001_Node000005"><a xlink:title=" ">
<path fill="none" stroke="#63b8ff" d="M148.76,-223.67C187.81,-212.28 237.96,-197.64 272.05,-187.69"/>
<polygon fill="#63b8ff" stroke="#63b8ff" points="272.89,-191.09 281.51,-184.93 270.93,-184.37 272.89,-191.09"/>
</a>
</g>
</g>
<!-- Node5&#45;&gt;Node2 -->
<g id="edge5_Node000005_Node000002" class="edge">
<title>Node5&#45;&gt;Node2</title>
<g id="a_edge5_Node000005_Node000002"><a xlink:title=" ">
<path fill="none" stroke="#63b8ff" d="M288.84,-165.27C267.37,-156.33 233.78,-142.27 204.82,-129.75 165.42,-112.72 120.21,-92.56 91.12,-79.51"/>
<polygon fill="#63b8ff" stroke="#63b8ff" points="92.74,-76.41 82.18,-75.5 89.87,-82.79 92.74,-76.41"/>
</a>
</g>
</g>
<!-- Node6 -->
<g id="Node000006" class="node">
<title>Node6</title>
<g id="a_Node000006"><a xlink:title=" ">
<polygon fill="#e0e0e0" stroke="#999999" points="231.45,-74.5 168.2,-74.5 168.2,-55.25 231.45,-55.25 231.45,-74.5"/>
<text xml:space="preserve" text-anchor="middle" x="199.82" y="-61" font-family="Helvetica,sans-Serif" font-size="10.00">node_api.h</text>
</a>
</g>
</g>
<!-- Node5&#45;&gt;Node6 -->
<g id="edge6_Node000005_Node000006" class="edge">
<title>Node5&#45;&gt;Node6</title>
<g id="a_edge6_Node000005_Node000006"><a xlink:title=" ">
<path fill="none" stroke="#63b8ff" d="M282.86,-167.13C262.68,-160.53 236.21,-148.85 219.82,-129.75 209.28,-117.46 204.29,-99.63 201.93,-85.92"/>
<polygon fill="#63b8ff" stroke="#63b8ff" points="205.43,-85.72 200.62,-76.28 198.49,-86.66 205.43,-85.72"/>
</a>
</g>
</g>
<!-- Node7 -->
<g id="Node000007" class="node">
<title>Node7</title>
<g id="a_Node000007"><a xlink:href="include_8h.html" target="_top" xlink:title=" ">
<polygon fill="white" stroke="#666666" points="312.95,-129.75 228.7,-129.75 228.7,-110.5 312.95,-110.5 312.95,-129.75"/>
<text xml:space="preserve" text-anchor="middle" x="270.82" y="-116.25" font-family="Helvetica,sans-Serif" font-size="10.00">wasm/include.h</text>
</a>
</g>
</g>
<!-- Node5&#45;&gt;Node7 -->
<g id="edge7_Node000005_Node000007" class="edge">
<title>Node5&#45;&gt;Node7</title>
<g id="a_edge7_Node000005_Node000007"><a xlink:title=" ">
<path fill="none" stroke="#63b8ff" d="M304.22,-165.58C298.86,-158.46 291.14,-148.18 284.47,-139.3"/>
<polygon fill="#63b8ff" stroke="#63b8ff" points="287.28,-137.21 278.48,-131.32 281.69,-141.42 287.28,-137.21"/>
</a>
</g>
</g>
<!-- Node8 -->
<g id="Node000008" class="node">
<title>Node8</title>
<g id="a_Node000008"><a xlink:href="napi_8h.html" target="_top" xlink:title=" ">
<polygon fill="white" stroke="#666666" points="372.95,-129.75 330.7,-129.75 330.7,-110.5 372.95,-110.5 372.95,-129.75"/>
<text xml:space="preserve" text-anchor="middle" x="351.82" y="-116.25" font-family="Helvetica,sans-Serif" font-size="10.00">napi.h</text>
</a>
</g>
</g>
<!-- Node5&#45;&gt;Node8 -->
<g id="edge8_Node000005_Node000008" class="edge">
<title>Node5&#45;&gt;Node8</title>
<g id="a_edge8_Node000005_Node000008"><a xlink:title=" ">
<path fill="none" stroke="#63b8ff" d="M317.59,-165.58C323.14,-158.38 331.16,-147.96 338.05,-139.01"/>
<polygon fill="#63b8ff" stroke="#63b8ff" points="340.65,-141.37 343.98,-131.31 335.11,-137.1 340.65,-141.37"/>
</a>
</g>
</g>
<!-- Node11 -->
<g id="Node000011" class="node">
<title>Node11</title>
<g id="a_Node000011"><a xlink:title=" ">
<polygon fill="#e0e0e0" stroke="#999999" points="593.32,-74.5 550.32,-74.5 550.32,-55.25 593.32,-55.25 593.32,-74.5"/>
<text xml:space="preserve" text-anchor="middle" x="571.82" y="-61" font-family="Helvetica,sans-Serif" font-size="10.00">mutex</text>
</a>
</g>
</g>
<!-- Node5&#45;&gt;Node11 -->
<g id="edge22_Node000005_Node000011" class="edge">
<title>Node5&#45;&gt;Node11</title>
<g id="a_edge22_Node000005_Node000011"><a xlink:title=" ">
<path fill="none" stroke="#63b8ff" d="M325.01,-165.48C349.92,-149.95 400.69,-118.76 419.82,-110.5 422.63,-109.29 495.09,-88.17 538.93,-75.42"/>
<polygon fill="#63b8ff" stroke="#63b8ff" points="539.85,-78.8 548.48,-72.65 537.9,-72.08 539.85,-78.8"/>
</a>
</g>
</g>
<!-- Node19 -->
<g id="Node000019" class="node">
<title>Node19</title>
<g id="a_Node000019"><a xlink:title=" ">
<polygon fill="#e0e0e0" stroke="#999999" points="463.2,-129.75 428.45,-129.75 428.45,-110.5 463.2,-110.5 463.2,-129.75"/>
<text xml:space="preserve" text-anchor="middle" x="445.82" y="-116.25" font-family="Helvetica,sans-Serif" font-size="10.00">map</text>
</a>
</g>
</g>
<!-- Node5&#45;&gt;Node19 -->
<g id="edge23_Node000005_Node000019" class="edge">
<title>Node5&#45;&gt;Node19</title>
<g id="a_edge23_Node000005_Node000019"><a xlink:title=" ">
<path fill="none" stroke="#63b8ff" d="M333.72,-165.34C356.82,-156.23 392.52,-142.15 417.4,-132.33"/>
<polygon fill="#63b8ff" stroke="#63b8ff" points="418.57,-135.64 426.58,-128.71 416,-129.13 418.57,-135.64"/>
</a>
</g>
</g>
<!-- Node20 -->
<g id="Node000020" class="node">
<title>Node20</title>
<g id="a_Node000020"><a xlink:title=" ">
<polygon fill="#e0e0e0" stroke="#999999" points="530.7,-129.75 480.95,-129.75 480.95,-110.5 530.7,-110.5 530.7,-129.75"/>
<text xml:space="preserve" text-anchor="middle" x="505.82" y="-116.25" font-family="Helvetica,sans-Serif" font-size="10.00">optional</text>
</a>
</g>
</g>
<!-- Node5&#45;&gt;Node20 -->
<g id="edge24_Node000005_Node000020" class="edge">
<title>Node5&#45;&gt;Node20</title>
<g id="a_edge24_Node000005_Node000020"><a xlink:title=" ">
<path fill="none" stroke="#63b8ff" d="M338.76,-166.75C373.21,-157.34 431.85,-141.33 469.69,-130.99"/>
<polygon fill="#63b8ff" stroke="#63b8ff" points="470.54,-134.39 479.26,-128.38 468.69,-127.64 470.54,-134.39"/>
</a>
</g>
</g>
<!-- Node8&#45;&gt;Node2 -->
<g id="edge14_Node000008_Node000002" class="edge">
<title>Node8&#45;&gt;Node2</title>
<g id="a_edge14_Node000008_Node000002"><a xlink:title=" ">
<path fill="none" stroke="#63b8ff" d="M330.27,-112.58C327.45,-111.82 324.57,-111.11 321.82,-110.5 223.41,-88.81 193.64,-96.82 92.07,-74.72"/>
<polygon fill="#63b8ff" stroke="#63b8ff" points="93.01,-71.34 82.49,-72.59 91.49,-78.18 93.01,-71.34"/>
</a>
</g>
</g>
<!-- Node8&#45;&gt;Node4 -->
<g id="edge12_Node000008_Node000004" class="edge">
<title>Node8&#45;&gt;Node4</title>
<g id="a_edge12_Node000008_Node000004"><a xlink:title=" ">
<path fill="none" stroke="#63b8ff" d="M330.24,-112.74C327.41,-111.96 324.55,-111.19 321.82,-110.5 253.28,-93.1 232.9,-91.72 161.68,-75.11"/>
<polygon fill="#63b8ff" stroke="#63b8ff" points="162.8,-71.78 152.26,-72.9 161.19,-78.6 162.8,-71.78"/>
</a>
</g>
</g>
<!-- Node8&#45;&gt;Node6 -->
<g id="edge9_Node000008_Node000006" class="edge">
<title>Node8&#45;&gt;Node6</title>
<g id="a_edge9_Node000008_Node000006"><a xlink:title=" ">
<path fill="none" stroke="#63b8ff" d="M330.37,-111.61C305.98,-103.07 265.77,-88.98 236.41,-78.69"/>
<polygon fill="#63b8ff" stroke="#63b8ff" points="237.77,-75.46 227.17,-75.46 235.46,-82.07 237.77,-75.46"/>
</a>
</g>
</g>
<!-- Node9 -->
<g id="Node000009" class="node">
<title>Node9</title>
<g id="a_Node000009"><a xlink:title=" ">
<polygon fill="#e0e0e0" stroke="#999999" points="307.82,-74.5 249.82,-74.5 249.82,-55.25 307.82,-55.25 307.82,-74.5"/>
<text xml:space="preserve" text-anchor="middle" x="278.82" y="-61" font-family="Helvetica,sans-Serif" font-size="10.00">functional</text>
</a>
</g>
</g>
<!-- Node8&#45;&gt;Node9 -->
<g id="edge10_Node000008_Node000009" class="edge">
<title>Node8&#45;&gt;Node9</title>
<g id="a_edge10_Node000008_Node000009"><a xlink:title=" ">
<path fill="none" stroke="#63b8ff" d="M339.44,-110.09C328.68,-102.24 312.85,-90.7 300.07,-81.37"/>
<polygon fill="#63b8ff" stroke="#63b8ff" points="302.39,-78.73 292.25,-75.67 298.26,-84.39 302.39,-78.73"/>
</a>
</g>
</g>
<!-- Node10 -->
<g id="Node000010" class="node">
<title>Node10</title>
<g id="a_Node000010"><a xlink:title=" ">
<polygon fill="#e0e0e0" stroke="#999999" points="397.95,-74.5 325.7,-74.5 325.7,-55.25 397.95,-55.25 397.95,-74.5"/>
<text xml:space="preserve" text-anchor="middle" x="361.82" y="-61" font-family="Helvetica,sans-Serif" font-size="10.00">initializer_list</text>
</a>
</g>
</g>
<!-- Node8&#45;&gt;Node10 -->
<g id="edge11_Node000008_Node000010" class="edge">
<title>Node8&#45;&gt;Node10</title>
<g id="a_edge11_Node000008_Node000010"><a xlink:title=" ">
<path fill="none" stroke="#63b8ff" d="M353.47,-110.33C354.71,-103.74 356.45,-94.46 358.03,-86.07"/>
<polygon fill="#63b8ff" stroke="#63b8ff" points="361.45,-86.82 359.86,-76.35 354.57,-85.53 361.45,-86.82"/>
</a>
</g>
</g>
<!-- Node8&#45;&gt;Node11 -->
<g id="edge13_Node000008_Node000011" class="edge">
<title>Node8&#45;&gt;Node11</title>
<g id="a_edge13_Node000008_Node000011"><a xlink:title=" ">
<path fill="none" stroke="#63b8ff" d="M373.28,-113.79C377.75,-112.69 382.44,-111.55 386.82,-110.5 452.24,-94.84 471.51,-92.48 539.1,-75.12"/>
<polygon fill="#63b8ff" stroke="#63b8ff" points="539.63,-78.59 548.44,-72.7 537.88,-71.82 539.63,-78.59"/>
</a>
</g>
</g>
<!-- Node12 -->
<g id="Node000012" class="node">
<title>Node12</title>
<g id="a_Node000012"><a xlink:title=" ">
<polygon fill="#e0e0e0" stroke="#999999" points="459.32,-74.5 416.32,-74.5 416.32,-55.25 459.32,-55.25 459.32,-74.5"/>
<text xml:space="preserve" text-anchor="middle" x="437.82" y="-61" font-family="Helvetica,sans-Serif" font-size="10.00">vector</text>
</a>
</g>
</g>
<!-- Node8&#45;&gt;Node12 -->
<g id="edge15_Node000008_Node000012" class="edge">
<title>Node8&#45;&gt;Node12</title>
<g id="a_edge15_Node000008_Node000012"><a xlink:title=" ">
<path fill="none" stroke="#63b8ff" d="M366.41,-110.09C379.26,-102.14 398.24,-90.39 413.4,-81"/>
<polygon fill="#63b8ff" stroke="#63b8ff" points="415.22,-83.99 421.87,-75.75 411.53,-78.04 415.22,-83.99"/>
</a>
</g>
</g>
<!-- Node13 -->
<g id="Node000013" class="node">
<title>Node13</title>
<g id="a_Node000013"><a xlink:href="napi-inl_8h.html" target="_top" xlink:title=" ">
<polygon fill="white" stroke="#666666" points="532.32,-74.5 477.32,-74.5 477.32,-55.25 532.32,-55.25 532.32,-74.5"/>
<text xml:space="preserve" text-anchor="middle" x="504.82" y="-61" font-family="Helvetica,sans-Serif" font-size="10.00">napi&#45;inl.h</text>
</a>
</g>
</g>
<!-- Node8&#45;&gt;Node13 -->
<g id="edge16_Node000008_Node000013" class="edge">
<title>Node8&#45;&gt;Node13</title>
<g id="a_edge16_Node000008_Node000013"><a xlink:title=" ">
<path fill="none" stroke="#63b8ff" d="M373.42,-111.61C397.96,-103.07 438.44,-88.98 467.99,-78.69"/>
<polygon fill="#63b8ff" stroke="#63b8ff" points="469,-82.05 477.3,-75.45 466.7,-75.44 469,-82.05"/>
</a>
</g>
</g>
<!-- Node14 -->
<g id="Node000014" class="node">
<title>Node14</title>
<g id="a_Node000014"><a xlink:title=" ">
<polygon fill="#e0e0e0" stroke="#999999" points="391.7,-19.25 335.95,-19.25 335.95,0 391.7,0 391.7,-19.25"/>
<text xml:space="preserve" text-anchor="middle" x="363.82" y="-5.75" font-family="Helvetica,sans-Serif" font-size="10.00">algorithm</text>
</a>
</g>
</g>
<!-- Node13&#45;&gt;Node14 -->
<g id="edge17_Node000013_Node000014" class="edge">
<title>Node13&#45;&gt;Node14</title>
<g id="a_edge17_Node000013_Node000014"><a xlink:title=" ">
<path fill="none" stroke="#63b8ff" d="M480.9,-54.84C458.32,-46.31 424.19,-33.42 398.59,-23.76"/>
<polygon fill="#63b8ff" stroke="#63b8ff" points="399.87,-20.5 389.27,-20.24 397.39,-27.04 399.87,-20.5"/>
</a>
</g>
</g>
<!-- Node15 -->
<g id="Node000015" class="node">
<title>Node15</title>
<g id="a_Node000015"><a xlink:title=" ">
<polygon fill="#e0e0e0" stroke="#999999" points="455.45,-19.25 410.2,-19.25 410.2,0 455.45,0 455.45,-19.25"/>
<text xml:space="preserve" text-anchor="middle" x="432.82" y="-5.75" font-family="Helvetica,sans-Serif" font-size="10.00">cstring</text>
</a>
</g>
</g>
<!-- Node13&#45;&gt;Node15 -->
<g id="edge18_Node000013_Node000015" class="edge">
<title>Node13&#45;&gt;Node15</title>
<g id="a_edge18_Node000013_Node000015"><a xlink:title=" ">
<path fill="none" stroke="#63b8ff" d="M492.61,-54.84C481.99,-46.99 466.39,-35.45 453.78,-26.12"/>
<polygon fill="#63b8ff" stroke="#63b8ff" points="456.19,-23.56 446.07,-20.42 452.03,-29.19 456.19,-23.56"/>
</a>
</g>
</g>
<!-- Node16 -->
<g id="Node000016" class="node">
<title>Node16</title>
<g id="a_Node000016"><a xlink:title=" ">
<polygon fill="#e0e0e0" stroke="#999999" points="535.7,-19.25 473.95,-19.25 473.95,0 535.7,0 535.7,-19.25"/>
<text xml:space="preserve" text-anchor="middle" x="504.82" y="-5.75" font-family="Helvetica,sans-Serif" font-size="10.00">type_traits</text>
</a>
</g>
</g>
<!-- Node13&#45;&gt;Node16 -->
<g id="edge19_Node000013_Node000016" class="edge">
<title>Node13&#45;&gt;Node16</title>
<g id="a_edge19_Node000013_Node000016"><a xlink:title=" ">
<path fill="none" stroke="#63b8ff" d="M504.82,-55.08C504.82,-48.57 504.82,-39.42 504.82,-31.12"/>
<polygon fill="#63b8ff" stroke="#63b8ff" points="508.32,-31.12 504.82,-21.12 501.32,-31.12 508.32,-31.12"/>
</a>
</g>
</g>
<!-- Node17 -->
<g id="Node000017" class="node">
<title>Node17</title>
<g id="a_Node000017"><a xlink:title=" ">
<polygon fill="#e0e0e0" stroke="#999999" points="593.45,-19.25 554.2,-19.25 554.2,0 593.45,0 593.45,-19.25"/>
<text xml:space="preserve" text-anchor="middle" x="573.82" y="-5.75" font-family="Helvetica,sans-Serif" font-size="10.00">utility</text>
</a>
</g>
</g>
<!-- Node13&#45;&gt;Node17 -->
<g id="edge20_Node000013_Node000017" class="edge">
<title>Node13&#45;&gt;Node17</title>
<g id="a_edge20_Node000013_Node000017"><a xlink:title=" ">
<path fill="none" stroke="#63b8ff" d="M516.53,-54.84C526.6,-47.07 541.36,-35.67 553.38,-26.4"/>
<polygon fill="#63b8ff" stroke="#63b8ff" points="555.31,-29.33 561.09,-20.45 551.04,-23.79 555.31,-29.33"/>
</a>
</g>
</g>
<!-- Node18 -->
<g id="Node000018" class="node">
<title>Node18</title>
<g id="a_Node000018"><a xlink:href="napi-inl_8deprecated_8h.html" target="_top" xlink:title=" ">
<polygon fill="white" stroke="#666666" points="717.82,-19.25 611.82,-19.25 611.82,0 717.82,0 717.82,-19.25"/>
<text xml:space="preserve" text-anchor="middle" x="664.82" y="-5.75" font-family="Helvetica,sans-Serif" font-size="10.00">napi&#45;inl.deprecated.h</text>
</a>
</g>
</g>
<!-- Node13&#45;&gt;Node18 -->
<g id="edge21_Node000013_Node000018" class="edge">
<title>Node13&#45;&gt;Node18</title>
<g id="a_edge21_Node000013_Node000018"><a xlink:title=" ">
<path fill="none" stroke="#63b8ff" d="M531.96,-54.84C558.05,-46.16 597.72,-32.96 626.92,-23.24"/>
<polygon fill="#63b8ff" stroke="#63b8ff" points="627.73,-26.66 636.11,-20.18 625.52,-20.02 627.73,-26.66"/>
</a>
</g>
</g>
</g>
</svg>
