<?xml version="1.0" encoding="UTF-8" standalone="no"?>
<!DOCTYPE svg PUBLIC "-//W3C//DTD SVG 1.1//EN"
 "http://www.w3.org/Graphics/SVG/1.1/DTD/svg11.dtd">
<!-- Generated by graphviz version 14.0.4 (20251115.1723)
 -->
<!-- Title: frontend/node_modules/@parcel/watcher/src/Event.hh Pages: 1 -->
<!--zoomable 216 -->

<svg id="main" version="1.1" xmlns="http://www.w3.org/2000/svg" xmlns:xlink="http://www.w3.org/1999/xlink" xml:space="preserve" onload="init(evt)">

<style type="text/css"><![CDATA[
.node, .edge {opacity: 0.7;}
.node.selected, .edge.selected {opacity: 1;}
.edge:hover path { stroke: red; }
.edge:hover polygon { stroke: red; fill: red; }
]]></style>

<defs>
  <circle id="rim" cx="0" cy="0" r="7"/>
  <circle id="rim2" cx="0" cy="0" r="3.5"/>
  <g id="zoomPlus">
    <use xlink:href="#rim" fill="#404040"><set attributeName="fill" to="#808080" begin="zoomplus.mouseover" end="zoomplus.mouseout"/></use>
    <path d="M-4,0h8M0,-4v8" fill="none" stroke="white" stroke-width="1.5" pointer-events="none"/>
  </g>
  <g id="zoomMin">
    <use xlink:href="#rim" fill="#404040"><set attributeName="fill" to="#808080" begin="zoomminus.mouseover" end="zoomminus.mouseout"/></use>
    <path d="M-4,0h8" fill="none" stroke="white" stroke-width="1.5" pointer-events="none"/>
  </g>
  <g id="arrowUp" transform="translate(30 24)">
    <use xlink:href="#rim"/>
    <path pointer-events="none" fill="none" stroke="white" stroke-width="1.5" d="M0,-3.0v7 M-2.5,-0.5L0,-3.0L2.5,-0.5"/>
  </g>
  <g id="arrowRight" transform="rotate(90) translate(36 -43)">
    <use xlink:href="#rim"/>
    <path pointer-events="none" fill="none" stroke="white" stroke-width="1.5" d="M0,-3.0v7 M-2.5,-0.5L0,-3.0L2.5,-0.5"/>
  </g>
  <g id="arrowDown" transform="rotate(180) translate(-30 -48)">
    <use xlink:href="#rim"/>
    <path pointer-events="none" fill="none" stroke="white" stroke-width="1.5" d="M0,-3.0v7 M-2.5,-0.5L0,-3.0L2.5,-0.5"/>
  </g>
  <g id="arrowLeft" transform="rotate(270) translate(-36 17)">
    <use xlink:href="#rim"/>
    <path pointer-events="none" fill="none" stroke="white" stroke-width="1.5" d="M0,-3.0v7 M-2.5,-0.5L0,-3.0L2.5,-0.5"/>
  </g>
  <g id="resetDef">
    <use xlink:href="#rim2" fill="#404040"><set attributeName="fill" to="#808080" begin="reset.mouseover" end="reset.mouseout"/></use>
  </g>
</defs>
<script type="application/ecmascript">
var viewWidth = 562;
var viewHeight = 216;
var sectionId = 'dynsection-0';
</script>
<script type="application/ecmascript" xlink:href="svg.min.js"/>
<svg id="graph" class="graph">
<g id="viewport">
<title>frontend/node_modules/@parcel/watcher/src/Event.hh</title>
<!-- Node1 -->
<g id="Node000001" class="node">
<title>Node1</title>
<g id="a_Node000001"><a xlink:title=" ">
<polygon fill="#999999" stroke="#666666" points="351.5,-207.5 234.25,-207.5 234.25,-165.75 351.5,-165.75 351.5,-207.5"/>
<text xml:space="preserve" text-anchor="start" x="242.25" y="-194" font-family="Helvetica,sans-Serif" font-size="10.00">frontend/node_modules</text>
<text xml:space="preserve" text-anchor="start" x="242.25" y="-182.75" font-family="Helvetica,sans-Serif" font-size="10.00">/@parcel/watcher/src</text>
<text xml:space="preserve" text-anchor="middle" x="292.88" y="-171.5" font-family="Helvetica,sans-Serif" font-size="10.00">/Event.hh</text>
</a>
</g>
</g>
<!-- Node2 -->
<g id="Node000002" class="node">
<title>Node2</title>
<g id="a_Node000002"><a xlink:title=" ">
<polygon fill="#e0e0e0" stroke="#999999" points="41.88,-74.5 1.88,-74.5 1.88,-55.25 41.88,-55.25 41.88,-74.5"/>
<text xml:space="preserve" text-anchor="middle" x="21.88" y="-61" font-family="Helvetica,sans-Serif" font-size="10.00">string</text>
</a>
</g>
</g>
<!-- Node1&#45;&gt;Node2 -->
<g id="edge1_Node000001_Node000002" class="edge">
<title>Node1&#45;&gt;Node2</title>
<g id="a_edge1_Node000001_Node000002"><a xlink:title=" ">
<path fill="none" stroke="#63b8ff" d="M246.02,-165.29C221.78,-154.73 191.71,-141.6 164.88,-129.75 125.84,-112.51 80.92,-92.4 52,-79.42"/>
<polygon fill="#63b8ff" stroke="#63b8ff" points="53.68,-76.34 43.13,-75.44 50.82,-82.73 53.68,-76.34"/>
</a>
</g>
</g>
<!-- Node3 -->
<g id="Node000003" class="node">
<title>Node3</title>
<g id="a_Node000003"><a xlink:title=" ">
<polygon fill="#e0e0e0" stroke="#999999" points="123.5,-74.5 60.25,-74.5 60.25,-55.25 123.5,-55.25 123.5,-74.5"/>
<text xml:space="preserve" text-anchor="middle" x="91.88" y="-61" font-family="Helvetica,sans-Serif" font-size="10.00">node_api.h</text>
</a>
</g>
</g>
<!-- Node1&#45;&gt;Node3 -->
<g id="edge2_Node000001_Node000003" class="edge">
<title>Node1&#45;&gt;Node3</title>
<g id="a_edge2_Node000001_Node000003"><a xlink:title=" ">
<path fill="none" stroke="#63b8ff" d="M258.78,-165.31C218.41,-141.26 152.17,-101.8 116.48,-80.54"/>
<polygon fill="#63b8ff" stroke="#63b8ff" points="118.55,-77.69 108.16,-75.58 114.96,-83.71 118.55,-77.69"/>
</a>
</g>
</g>
<!-- Node4 -->
<g id="Node000004" class="node">
<title>Node4</title>
<g id="a_Node000004"><a xlink:href="include_8h.html" target="_top" xlink:title=" ">
<polygon fill="white" stroke="#666666" points="405,-129.75 320.75,-129.75 320.75,-110.5 405,-110.5 405,-129.75"/>
<text xml:space="preserve" text-anchor="middle" x="362.88" y="-116.25" font-family="Helvetica,sans-Serif" font-size="10.00">wasm/include.h</text>
</a>
</g>
</g>
<!-- Node1&#45;&gt;Node4 -->
<g id="edge3_Node000001_Node000004" class="edge">
<title>Node1&#45;&gt;Node4</title>
<g id="a_edge3_Node000001_Node000004"><a xlink:title=" ">
<path fill="none" stroke="#63b8ff" d="M314.64,-165.57C324.27,-156.69 335.47,-146.37 344.65,-137.91"/>
<polygon fill="#63b8ff" stroke="#63b8ff" points="346.94,-140.57 351.92,-131.22 342.19,-135.42 346.94,-140.57"/>
</a>
</g>
</g>
<!-- Node5 -->
<g id="Node000005" class="node">
<title>Node5</title>
<g id="a_Node000005"><a xlink:href="napi_8h.html" target="_top" xlink:title=" ">
<polygon fill="white" stroke="#666666" points="265,-129.75 222.75,-129.75 222.75,-110.5 265,-110.5 265,-129.75"/>
<text xml:space="preserve" text-anchor="middle" x="243.88" y="-116.25" font-family="Helvetica,sans-Serif" font-size="10.00">napi.h</text>
</a>
</g>
</g>
<!-- Node1&#45;&gt;Node5 -->
<g id="edge4_Node000001_Node000005" class="edge">
<title>Node1&#45;&gt;Node5</title>
<g id="a_edge4_Node000001_Node000005"><a xlink:title=" ">
<path fill="none" stroke="#63b8ff" d="M277.64,-165.57C271.25,-157.16 263.87,-147.45 257.64,-139.25"/>
<polygon fill="#63b8ff" stroke="#63b8ff" points="260.52,-137.25 251.68,-131.4 254.94,-141.48 260.52,-137.25"/>
</a>
</g>
</g>
<!-- Node9 -->
<g id="Node000009" class="node">
<title>Node9</title>
<g id="a_Node000009"><a xlink:title=" ">
<polygon fill="#e0e0e0" stroke="#999999" points="554.38,-74.5 511.38,-74.5 511.38,-55.25 554.38,-55.25 554.38,-74.5"/>
<text xml:space="preserve" text-anchor="middle" x="532.88" y="-61" font-family="Helvetica,sans-Serif" font-size="10.00">mutex</text>
</a>
</g>
</g>
<!-- Node1&#45;&gt;Node9 -->
<g id="edge18_Node000001_Node000009" class="edge">
<title>Node1&#45;&gt;Node9</title>
<g id="a_edge18_Node000001_Node000009"><a xlink:title=" ">
<path fill="none" stroke="#63b8ff" d="M292.36,-165.44C293.07,-148.37 296.98,-124.51 311.88,-110.5 372.22,-53.75 415.18,-91.09 499.88,-74.82"/>
<polygon fill="#63b8ff" stroke="#63b8ff" points="500.47,-78.27 509.5,-72.74 498.99,-71.43 500.47,-78.27"/>
</a>
</g>
</g>
<!-- Node17 -->
<g id="Node000017" class="node">
<title>Node17</title>
<g id="a_Node000017"><a xlink:title=" ">
<polygon fill="#e0e0e0" stroke="#999999" points="458.25,-129.75 423.5,-129.75 423.5,-110.5 458.25,-110.5 458.25,-129.75"/>
<text xml:space="preserve" text-anchor="middle" x="440.88" y="-116.25" font-family="Helvetica,sans-Serif" font-size="10.00">map</text>
</a>
</g>
</g>
<!-- Node1&#45;&gt;Node17 -->
<g id="edge19_Node000001_Node000017" class="edge">
<title>Node1&#45;&gt;Node17</title>
<g id="a_edge19_Node000001_Node000017"><a xlink:title=" ">
<path fill="none" stroke="#63b8ff" d="M339.3,-165.39C363.44,-154.87 392.16,-142.36 412.89,-133.32"/>
<polygon fill="#63b8ff" stroke="#63b8ff" points="414.06,-136.63 421.83,-129.43 411.26,-130.21 414.06,-136.63"/>
</a>
</g>
</g>
<!-- Node18 -->
<g id="Node000018" class="node">
<title>Node18</title>
<g id="a_Node000018"><a xlink:title=" ">
<polygon fill="#e0e0e0" stroke="#999999" points="525.75,-129.75 476,-129.75 476,-110.5 525.75,-110.5 525.75,-129.75"/>
<text xml:space="preserve" text-anchor="middle" x="500.88" y="-116.25" font-family="Helvetica,sans-Serif" font-size="10.00">optional</text>
</a>
</g>
</g>
<!-- Node1&#45;&gt;Node18 -->
<g id="edge20_Node000001_Node000018" class="edge">
<title>Node1&#45;&gt;Node18</title>
<g id="a_edge20_Node000001_Node000018"><a xlink:title=" ">
<path fill="none" stroke="#63b8ff" d="M351.92,-167.31C388.29,-156.04 433.74,-141.94 464.81,-132.31"/>
<polygon fill="#63b8ff" stroke="#63b8ff" points="465.6,-135.73 474.12,-129.42 463.53,-129.04 465.6,-135.73"/>
</a>
</g>
</g>
<!-- Node5&#45;&gt;Node2 -->
<g id="edge10_Node000005_Node000002" class="edge">
<title>Node5&#45;&gt;Node2</title>
<g id="a_edge10_Node000005_Node000002"><a xlink:title=" ">
<path fill="none" stroke="#63b8ff" d="M222.35,-114.6C188.4,-107.37 120.13,-92.45 52.89,-74.9"/>
<polygon fill="#63b8ff" stroke="#63b8ff" points="54.14,-71.61 43.58,-72.45 52.35,-78.38 54.14,-71.61"/>
</a>
</g>
</g>
<!-- Node5&#45;&gt;Node3 -->
<g id="edge5_Node000005_Node000003" class="edge">
<title>Node5&#45;&gt;Node3</title>
<g id="a_edge5_Node000005_Node000003"><a xlink:title=" ">
<path fill="none" stroke="#63b8ff" d="M222.42,-111.61C198.04,-103.07 157.83,-88.98 128.47,-78.69"/>
<polygon fill="#63b8ff" stroke="#63b8ff" points="129.82,-75.46 119.23,-75.46 127.51,-82.07 129.82,-75.46"/>
</a>
</g>
</g>
<!-- Node6 -->
<g id="Node000006" class="node">
<title>Node6</title>
<g id="a_Node000006"><a xlink:title=" ">
<polygon fill="#e0e0e0" stroke="#999999" points="272.88,-74.5 214.88,-74.5 214.88,-55.25 272.88,-55.25 272.88,-74.5"/>
<text xml:space="preserve" text-anchor="middle" x="243.88" y="-61" font-family="Helvetica,sans-Serif" font-size="10.00">functional</text>
</a>
</g>
</g>
<!-- Node5&#45;&gt;Node6 -->
<g id="edge6_Node000005_Node000006" class="edge">
<title>Node5&#45;&gt;Node6</title>
<g id="a_edge6_Node000005_Node000006"><a xlink:title=" ">
<path fill="none" stroke="#63b8ff" d="M243.88,-110.33C243.88,-103.82 243.88,-94.67 243.88,-86.37"/>
<polygon fill="#63b8ff" stroke="#63b8ff" points="247.38,-86.37 243.88,-76.37 240.38,-86.37 247.38,-86.37"/>
</a>
</g>
</g>
<!-- Node7 -->
<g id="Node000007" class="node">
<title>Node7</title>
<g id="a_Node000007"><a xlink:title=" ">
<polygon fill="#e0e0e0" stroke="#999999" points="363,-74.5 290.75,-74.5 290.75,-55.25 363,-55.25 363,-74.5"/>
<text xml:space="preserve" text-anchor="middle" x="326.88" y="-61" font-family="Helvetica,sans-Serif" font-size="10.00">initializer_list</text>
</a>
</g>
</g>
<!-- Node5&#45;&gt;Node7 -->
<g id="edge7_Node000005_Node000007" class="edge">
<title>Node5&#45;&gt;Node7</title>
<g id="a_edge7_Node000005_Node000007"><a xlink:title=" ">
<path fill="none" stroke="#63b8ff" d="M257.95,-110.09C270.36,-102.14 288.67,-90.39 303.3,-81"/>
<polygon fill="#63b8ff" stroke="#63b8ff" points="304.93,-84.12 311.45,-75.77 301.15,-78.22 304.93,-84.12"/>
</a>
</g>
</g>
<!-- Node8 -->
<g id="Node000008" class="node">
<title>Node8</title>
<g id="a_Node000008"><a xlink:title=" ">
<polygon fill="#e0e0e0" stroke="#999999" points="432.5,-74.5 381.25,-74.5 381.25,-55.25 432.5,-55.25 432.5,-74.5"/>
<text xml:space="preserve" text-anchor="middle" x="406.88" y="-61" font-family="Helvetica,sans-Serif" font-size="10.00">memory</text>
</a>
</g>
</g>
<!-- Node5&#45;&gt;Node8 -->
<g id="edge8_Node000005_Node000008" class="edge">
<title>Node5&#45;&gt;Node8</title>
<g id="a_edge8_Node000005_Node000008"><a xlink:title=" ">
<path fill="none" stroke="#63b8ff" d="M265.18,-112.16C291.82,-103.46 337.82,-88.43 370.17,-77.87"/>
<polygon fill="#63b8ff" stroke="#63b8ff" points="371.13,-81.23 379.55,-74.8 368.96,-74.58 371.13,-81.23"/>
</a>
</g>
</g>
<!-- Node5&#45;&gt;Node9 -->
<g id="edge9_Node000005_Node000009" class="edge">
<title>Node5&#45;&gt;Node9</title>
<g id="a_edge9_Node000005_Node000009"><a xlink:title=" ">
<path fill="none" stroke="#63b8ff" d="M265.28,-113.55C269.76,-112.47 274.46,-111.4 278.88,-110.5 374.21,-91.13 402.49,-96.08 500.05,-74.91"/>
<polygon fill="#63b8ff" stroke="#63b8ff" points="500.51,-78.4 509.52,-72.82 499,-71.56 500.51,-78.4"/>
</a>
</g>
</g>
<!-- Node10 -->
<g id="Node000010" class="node">
<title>Node10</title>
<g id="a_Node000010"><a xlink:title=" ">
<polygon fill="#e0e0e0" stroke="#999999" points="493.38,-74.5 450.38,-74.5 450.38,-55.25 493.38,-55.25 493.38,-74.5"/>
<text xml:space="preserve" text-anchor="middle" x="471.88" y="-61" font-family="Helvetica,sans-Serif" font-size="10.00">vector</text>
</a>
</g>
</g>
<!-- Node5&#45;&gt;Node10 -->
<g id="edge11_Node000005_Node000010" class="edge">
<title>Node5&#45;&gt;Node10</title>
<g id="a_edge11_Node000005_Node000010"><a xlink:title=" ">
<path fill="none" stroke="#63b8ff" d="M265.33,-113.75C269.8,-112.66 274.49,-111.53 278.88,-110.5 347.73,-94.41 368.08,-92.87 439.1,-75.09"/>
<polygon fill="#63b8ff" stroke="#63b8ff" points="439.66,-78.56 448.5,-72.72 437.94,-71.78 439.66,-78.56"/>
</a>
</g>
</g>
<!-- Node11 -->
<g id="Node000011" class="node">
<title>Node11</title>
<g id="a_Node000011"><a xlink:href="napi-inl_8h.html" target="_top" xlink:title=" ">
<polygon fill="white" stroke="#666666" points="196.38,-74.5 141.38,-74.5 141.38,-55.25 196.38,-55.25 196.38,-74.5"/>
<text xml:space="preserve" text-anchor="middle" x="168.88" y="-61" font-family="Helvetica,sans-Serif" font-size="10.00">napi&#45;inl.h</text>
</a>
</g>
</g>
<!-- Node5&#45;&gt;Node11 -->
<g id="edge12_Node000005_Node000011" class="edge">
<title>Node5&#45;&gt;Node11</title>
<g id="a_edge12_Node000005_Node000011"><a xlink:title=" ">
<path fill="none" stroke="#63b8ff" d="M231.15,-110.09C220.16,-102.29 204.03,-90.84 190.94,-81.54"/>
<polygon fill="#63b8ff" stroke="#63b8ff" points="193.07,-78.76 182.89,-75.83 189.02,-84.47 193.07,-78.76"/>
</a>
</g>
</g>
<!-- Node12 -->
<g id="Node000012" class="node">
<title>Node12</title>
<g id="a_Node000012"><a xlink:title=" ">
<polygon fill="#e0e0e0" stroke="#999999" points="55.75,-19.25 0,-19.25 0,0 55.75,0 55.75,-19.25"/>
<text xml:space="preserve" text-anchor="middle" x="27.88" y="-5.75" font-family="Helvetica,sans-Serif" font-size="10.00">algorithm</text>
</a>
</g>
</g>
<!-- Node11&#45;&gt;Node12 -->
<g id="edge13_Node000011_Node000012" class="edge">
<title>Node11&#45;&gt;Node12</title>
<g id="a_edge13_Node000011_Node000012"><a xlink:title=" ">
<path fill="none" stroke="#63b8ff" d="M144.96,-54.84C122.37,-46.31 88.24,-33.42 62.65,-23.76"/>
<polygon fill="#63b8ff" stroke="#63b8ff" points="63.92,-20.5 53.33,-20.24 61.45,-27.04 63.92,-20.5"/>
</a>
</g>
</g>
<!-- Node13 -->
<g id="Node000013" class="node">
<title>Node13</title>
<g id="a_Node000013"><a xlink:title=" ">
<polygon fill="#e0e0e0" stroke="#999999" points="119.5,-19.25 74.25,-19.25 74.25,0 119.5,0 119.5,-19.25"/>
<text xml:space="preserve" text-anchor="middle" x="96.88" y="-5.75" font-family="Helvetica,sans-Serif" font-size="10.00">cstring</text>
</a>
</g>
</g>
<!-- Node11&#45;&gt;Node13 -->
<g id="edge14_Node000011_Node000013" class="edge">
<title>Node11&#45;&gt;Node13</title>
<g id="a_edge14_Node000011_Node000013"><a xlink:title=" ">
<path fill="none" stroke="#63b8ff" d="M156.66,-54.84C146.05,-46.99 130.44,-35.45 117.83,-26.12"/>
<polygon fill="#63b8ff" stroke="#63b8ff" points="120.25,-23.56 110.13,-20.42 116.08,-29.19 120.25,-23.56"/>
</a>
</g>
</g>
<!-- Node14 -->
<g id="Node000014" class="node">
<title>Node14</title>
<g id="a_Node000014"><a xlink:title=" ">
<polygon fill="#e0e0e0" stroke="#999999" points="199.75,-19.25 138,-19.25 138,0 199.75,0 199.75,-19.25"/>
<text xml:space="preserve" text-anchor="middle" x="168.88" y="-5.75" font-family="Helvetica,sans-Serif" font-size="10.00">type_traits</text>
</a>
</g>
</g>
<!-- Node11&#45;&gt;Node14 -->
<g id="edge15_Node000011_Node000014" class="edge">
<title>Node11&#45;&gt;Node14</title>
<g id="a_edge15_Node000011_Node000014"><a xlink:title=" ">
<path fill="none" stroke="#63b8ff" d="M168.88,-55.08C168.88,-48.57 168.88,-39.42 168.88,-31.12"/>
<polygon fill="#63b8ff" stroke="#63b8ff" points="172.38,-31.12 168.88,-21.12 165.38,-31.12 172.38,-31.12"/>
</a>
</g>
</g>
<!-- Node15 -->
<g id="Node000015" class="node">
<title>Node15</title>
<g id="a_Node000015"><a xlink:title=" ">
<polygon fill="#e0e0e0" stroke="#999999" points="257.5,-19.25 218.25,-19.25 218.25,0 257.5,0 257.5,-19.25"/>
<text xml:space="preserve" text-anchor="middle" x="237.88" y="-5.75" font-family="Helvetica,sans-Serif" font-size="10.00">utility</text>
</a>
</g>
</g>
<!-- Node11&#45;&gt;Node15 -->
<g id="edge16_Node000011_Node000015" class="edge">
<title>Node11&#45;&gt;Node15</title>
<g id="a_edge16_Node000011_Node000015"><a xlink:title=" ">
<path fill="none" stroke="#63b8ff" d="M180.58,-54.84C190.65,-47.07 205.42,-35.67 217.44,-26.4"/>
<polygon fill="#63b8ff" stroke="#63b8ff" points="219.37,-29.33 225.14,-20.45 215.09,-23.79 219.37,-29.33"/>
</a>
</g>
</g>
<!-- Node16 -->
<g id="Node000016" class="node">
<title>Node16</title>
<g id="a_Node000016"><a xlink:href="napi-inl_8deprecated_8h.html" target="_top" xlink:title=" ">
<polygon fill="white" stroke="#666666" points="381.88,-19.25 275.88,-19.25 275.88,0 381.88,0 381.88,-19.25"/>
<text xml:space="preserve" text-anchor="middle" x="328.88" y="-5.75" font-family="Helvetica,sans-Serif" font-size="10.00">napi&#45;inl.deprecated.h</text>
</a>
</g>
</g>
<!-- Node11&#45;&gt;Node16 -->
<g id="edge17_Node000011_Node000016" class="edge">
<title>Node11&#45;&gt;Node16</title>
<g id="a_edge17_Node000011_Node000016"><a xlink:title=" ">
<path fill="none" stroke="#63b8ff" d="M196.02,-54.84C222.11,-46.16 261.77,-32.96 290.97,-23.24"/>
<polygon fill="#63b8ff" stroke="#63b8ff" points="291.78,-26.66 300.16,-20.18 289.57,-20.02 291.78,-26.66"/>
</a>
</g>
</g>
</g>
</svg>

<g id="navigator" transform="translate(0 0)" fill="#404254">
  <rect fill="#f2f5e9" fill-opacity="0.5" stroke="#606060" stroke-width=".5" x="0" y="0" width="60" height="60"/>
  <use id="zoomplus" xlink:href="#zoomPlus" x="17" y="9" onmousedown="handleZoom(evt,'in')"/>
  <use id="zoomminus" xlink:href="#zoomMin" x="42" y="9" onmousedown="handleZoom(evt,'out')"/>
  <use id="reset" xlink:href="#resetDef" x="30" y="36" onmousedown="handleReset()"/>
   <use id="arrowup" xlink:href="#arrowUp" x="0" y="0" onmousedown="handlePan(0,-1)"/>
  <use id="arrowright" xlink:href="#arrowRight" x="0" y="0" onmousedown="handlePan(1,0)"/>
  <use id="arrowdown" xlink:href="#arrowDown" x="0" y="0" onmousedown="handlePan(0,1)"/>
  <use id="arrowleft" xlink:href="#arrowLeft" x="0" y="0" onmousedown="handlePan(-1,0)"/>
</g>
<svg viewBox="0 0 15 15" width="100%" height="30px" preserveAspectRatio="xMaxYMin meet">
 <g id="arrow_out" transform="scale(0.3 0.3)">
  <a xlink:href="_event_8hh__incl_org.svg" target="_base">
   <rect id="button" ry="5" rx="5" y="6" x="6" height="38" width="38"
        fill="#f2f5e9" fill-opacity="0.5" stroke="#606060" stroke-width="1.0"/>
   <path id="arrow"
     d="M 11.500037,31.436501 C 11.940474,20.09759 22.043105,11.32322 32.158766,21.979434 L 37.068811,17.246167 C 37.068811,17.246167 37.088388,32 37.088388,32 L 22.160133,31.978069 C 22.160133,31.978069 26.997745,27.140456 26.997745,27.140456 C 18.528582,18.264221 13.291696,25.230495 11.500037,31.436501 z"
     style="fill:#404040;"/>
  </a>
 </g>
</svg>

<style type='text/css'>
<![CDATA[
[data-mouse-over-selected='false'] { opacity: 0.7; }
[data-mouse-over-selected='true']  { opacity: 1.0; }
]]>
</style>
<script type="application/ecmascript"><![CDATA[
document.addEventListener('DOMContentLoaded', (event) => {
  highlightEdges();
  highlightAdjacentNodes();
});
]]></script>
</svg>
