<?xml version="1.0" encoding="UTF-8" standalone="no"?>
<!DOCTYPE svg PUBLIC "-//W3C//DTD SVG 1.1//EN"
 "http://www.w3.org/Graphics/SVG/1.1/DTD/svg11.dtd">
<!-- Generated by graphviz version 14.0.4 (20251115.1723)
 -->
<!-- Title: frontend/node_modules/@parcel/watcher/src/Event.hh Pages: 1 -->
<svg width="1830pt" height="516pt"
 viewBox="0.00 0.00 1830.00 516.00" xmlns="http://www.w3.org/2000/svg" xmlns:xlink="http://www.w3.org/1999/xlink">
<g id="graph0" class="graph" transform="scale(1 1) rotate(0) translate(4 512.25)">
<title>frontend/node_modules/@parcel/watcher/src/Event.hh</title>
<!-- Node1 -->
<g id="Node000001" class="node">
<title>Node1</title>
<g id="a_Node000001"><a xlink:title=" ">
<polygon fill="#999999" stroke="#666666" points="557.62,-508.25 440.38,-508.25 440.38,-466.5 557.62,-466.5 557.62,-508.25"/>
<text xml:space="preserve" text-anchor="start" x="448.38" y="-494.75" font-family="Helvetica,sans-Serif" font-size="10.00">frontend/node_modules</text>
<text xml:space="preserve" text-anchor="start" x="448.38" y="-483.5" font-family="Helvetica,sans-Serif" font-size="10.00">/@parcel/watcher/src</text>
<text xml:space="preserve" text-anchor="middle" x="499" y="-472.25" font-family="Helvetica,sans-Serif" font-size="10.00">/Event.hh</text>
</a>
</g>
</g>
<!-- Node2 -->
<g id="Node000002" class="node">
<title>Node2</title>
<g id="a_Node000002"><a xlink:href="_backend_8hh.html" target="_top" xlink:title=" ">
<polygon fill="white" stroke="#666666" points="434.62,-275 317.38,-275 317.38,-233.25 434.62,-233.25 434.62,-275"/>
<text xml:space="preserve" text-anchor="start" x="325.38" y="-261.5" font-family="Helvetica,sans-Serif" font-size="10.00">frontend/node_modules</text>
<text xml:space="preserve" text-anchor="start" x="325.38" y="-250.25" font-family="Helvetica,sans-Serif" font-size="10.00">/@parcel/watcher/src</text>
<text xml:space="preserve" text-anchor="middle" x="376" y="-239" font-family="Helvetica,sans-Serif" font-size="10.00">/Backend.hh</text>
</a>
</g>
</g>
<!-- Node1&#45;&gt;Node2 -->
<g id="edge1_Node000001_Node000002" class="edge">
<title>Node1&#45;&gt;Node2</title>
<g id="a_edge1_Node000001_Node000002"><a xlink:title=" ">
<path fill="none" stroke="#63b8ff" d="M482.94,-456.19C457.47,-408.29 408.44,-316.12 386.76,-275.36"/>
<polygon fill="#63b8ff" stroke="#63b8ff" points="479.8,-457.74 487.59,-464.92 485.98,-454.45 479.8,-457.74"/>
</a>
</g>
</g>
<!-- Node4 -->
<g id="Node000004" class="node">
<title>Node4</title>
<g id="a_Node000004"><a xlink:href="binding_8cc.html" target="_top" xlink:title=" ">
<polygon fill="white" stroke="#666666" points="183.62,-197.25 66.38,-197.25 66.38,-155.5 183.62,-155.5 183.62,-197.25"/>
<text xml:space="preserve" text-anchor="start" x="74.38" y="-183.75" font-family="Helvetica,sans-Serif" font-size="10.00">frontend/node_modules</text>
<text xml:space="preserve" text-anchor="start" x="74.38" y="-172.5" font-family="Helvetica,sans-Serif" font-size="10.00">/@parcel/watcher/src</text>
<text xml:space="preserve" text-anchor="middle" x="125" y="-161.25" font-family="Helvetica,sans-Serif" font-size="10.00">/binding.cc</text>
</a>
</g>
</g>
<!-- Node1&#45;&gt;Node4 -->
<g id="edge41_Node000001_Node000004" class="edge">
<title>Node1&#45;&gt;Node4</title>
<g id="a_edge41_Node000001_Node000004"><a xlink:title=" ">
<path fill="none" stroke="#63b8ff" d="M459.22,-459.8C403.05,-421.57 298.31,-347.64 217,-275 189.04,-250.02 159.86,-217.85 142.05,-197.41"/>
<polygon fill="#63b8ff" stroke="#63b8ff" points="456.97,-462.5 467.21,-465.21 460.9,-456.71 456.97,-462.5"/>
</a>
</g>
</g>
<!-- Node5 -->
<g id="Node000005" class="node">
<title>Node5</title>
<g id="a_Node000005"><a xlink:href="_f_s_events_backend_8cc.html" target="_top" xlink:title=" ">
<polygon fill="white" stroke="#666666" points="229.25,-119.5 82.75,-119.5 82.75,-77.75 229.25,-77.75 229.25,-119.5"/>
<text xml:space="preserve" text-anchor="start" x="90.75" y="-106" font-family="Helvetica,sans-Serif" font-size="10.00">frontend/node_modules</text>
<text xml:space="preserve" text-anchor="start" x="90.75" y="-94.75" font-family="Helvetica,sans-Serif" font-size="10.00">/@parcel/watcher/src</text>
<text xml:space="preserve" text-anchor="middle" x="156" y="-83.5" font-family="Helvetica,sans-Serif" font-size="10.00">/macos/FSEventsBackend.cc</text>
</a>
</g>
</g>
<!-- Node1&#45;&gt;Node5 -->
<g id="edge42_Node000001_Node000005" class="edge">
<title>Node1&#45;&gt;Node5</title>
<g id="a_edge42_Node000001_Node000005"><a xlink:title=" ">
<path fill="none" stroke="#63b8ff" d="M429.08,-479.61C291.75,-464.38 0,-421.59 0,-332.88 0,-332.88 0,-332.88 0,-253.12 0,-205.16 12.59,-189.92 46,-155.5 60.62,-140.44 80.17,-128.72 98.73,-119.99"/>
<polygon fill="#63b8ff" stroke="#63b8ff" points="428.47,-483.06 438.79,-480.67 429.22,-476.1 428.47,-483.06"/>
</a>
</g>
</g>
<!-- Node12 -->
<g id="Node000012" class="node">
<title>Node12</title>
<g id="a_Node000012"><a xlink:href="_brute_force_backend_8cc.html" target="_top" xlink:title=" ">
<polygon fill="white" stroke="#666666" points="1821.5,-119.5 1670.5,-119.5 1670.5,-77.75 1821.5,-77.75 1821.5,-119.5"/>
<text xml:space="preserve" text-anchor="start" x="1678.5" y="-106" font-family="Helvetica,sans-Serif" font-size="10.00">frontend/node_modules</text>
<text xml:space="preserve" text-anchor="start" x="1678.5" y="-94.75" font-family="Helvetica,sans-Serif" font-size="10.00">/@parcel/watcher/src</text>
<text xml:space="preserve" text-anchor="middle" x="1746" y="-83.5" font-family="Helvetica,sans-Serif" font-size="10.00">/shared/BruteForceBackend.cc</text>
</a>
</g>
</g>
<!-- Node1&#45;&gt;Node12 -->
<g id="edge43_Node000001_Node000012" class="edge">
<title>Node1&#45;&gt;Node12</title>
<g id="a_edge43_Node000001_Node000012"><a xlink:title=" ">
<path fill="none" stroke="#63b8ff" d="M569.55,-484.88C827.84,-478.5 1707,-448.3 1707,-332.88 1707,-332.88 1707,-332.88 1707,-253.12 1707,-203.91 1726.07,-148.47 1737.54,-119.57"/>
<polygon fill="#63b8ff" stroke="#63b8ff" points="569.51,-481.38 559.6,-485.12 569.68,-488.38 569.51,-481.38"/>
</a>
</g>
</g>
<!-- Node20 -->
<g id="Node000020" class="node">
<title>Node20</title>
<g id="a_Node000020"><a xlink:href="_watchman_backend_8cc.html" target="_top" xlink:title=" ">
<polygon fill="white" stroke="#666666" points="558.62,-119.5 393.38,-119.5 393.38,-77.75 558.62,-77.75 558.62,-119.5"/>
<text xml:space="preserve" text-anchor="start" x="401.38" y="-106" font-family="Helvetica,sans-Serif" font-size="10.00">frontend/node_modules</text>
<text xml:space="preserve" text-anchor="start" x="401.38" y="-94.75" font-family="Helvetica,sans-Serif" font-size="10.00">/@parcel/watcher/src</text>
<text xml:space="preserve" text-anchor="middle" x="476" y="-83.5" font-family="Helvetica,sans-Serif" font-size="10.00">/watchman/WatchmanBackend.cc</text>
</a>
</g>
</g>
<!-- Node1&#45;&gt;Node20 -->
<g id="edge44_Node000001_Node000020" class="edge">
<title>Node1&#45;&gt;Node20</title>
<g id="a_edge44_Node000001_Node000020"><a xlink:title=" ">
<path fill="none" stroke="#63b8ff" d="M531.22,-458.34C560.11,-429.92 598,-383.1 598,-332.88 598,-332.88 598,-332.88 598,-253.12 598,-208.92 605.15,-191.14 579,-155.5 567.69,-140.08 550.8,-128.45 533.95,-119.91"/>
<polygon fill="#63b8ff" stroke="#63b8ff" points="528.89,-455.72 524.06,-465.16 533.71,-460.79 528.89,-455.72"/>
</a>
</g>
</g>
<!-- Node21 -->
<g id="Node000021" class="node">
<title>Node21</title>
<g id="a_Node000021"><a xlink:href="_dir_tree_8hh.html" target="_top" xlink:title=" ">
<polygon fill="white" stroke="#666666" points="1154.62,-430.5 1037.38,-430.5 1037.38,-388.75 1154.62,-388.75 1154.62,-430.5"/>
<text xml:space="preserve" text-anchor="start" x="1045.38" y="-417" font-family="Helvetica,sans-Serif" font-size="10.00">frontend/node_modules</text>
<text xml:space="preserve" text-anchor="start" x="1045.38" y="-405.75" font-family="Helvetica,sans-Serif" font-size="10.00">/@parcel/watcher/src</text>
<text xml:space="preserve" text-anchor="middle" x="1096" y="-394.5" font-family="Helvetica,sans-Serif" font-size="10.00">/DirTree.hh</text>
</a>
</g>
</g>
<!-- Node1&#45;&gt;Node21 -->
<g id="edge23_Node000001_Node000021" class="edge">
<title>Node1&#45;&gt;Node21</title>
<g id="a_edge23_Node000001_Node000021"><a xlink:title=" ">
<path fill="none" stroke="#63b8ff" d="M568.98,-477.5C687.7,-462.43 926.41,-432.14 1037.12,-418.1"/>
<polygon fill="#63b8ff" stroke="#63b8ff" points="568.86,-473.98 559.38,-478.71 569.74,-480.93 568.86,-473.98"/>
</a>
</g>
</g>
<!-- Node23 -->
<g id="Node000023" class="node">
<title>Node23</title>
<g id="a_Node000023"><a xlink:href="_watcher_8hh.html" target="_top" xlink:title=" ">
<polygon fill="white" stroke="#666666" points="557.62,-352.75 440.38,-352.75 440.38,-311 557.62,-311 557.62,-352.75"/>
<text xml:space="preserve" text-anchor="start" x="448.38" y="-339.25" font-family="Helvetica,sans-Serif" font-size="10.00">frontend/node_modules</text>
<text xml:space="preserve" text-anchor="start" x="448.38" y="-328" font-family="Helvetica,sans-Serif" font-size="10.00">/@parcel/watcher/src</text>
<text xml:space="preserve" text-anchor="middle" x="499" y="-316.75" font-family="Helvetica,sans-Serif" font-size="10.00">/Watcher.hh</text>
</a>
</g>
</g>
<!-- Node1&#45;&gt;Node23 -->
<g id="edge40_Node000001_Node000023" class="edge">
<title>Node1&#45;&gt;Node23</title>
<g id="a_edge40_Node000001_Node000023"><a xlink:title=" ">
<path fill="none" stroke="#63b8ff" d="M499,-455.01C499,-424.46 499,-378.92 499,-352.95"/>
<polygon fill="#63b8ff" stroke="#63b8ff" points="495.5,-454.79 499,-464.79 502.5,-454.79 495.5,-454.79"/>
</a>
</g>
</g>
<!-- Node3 -->
<g id="Node000003" class="node">
<title>Node3</title>
<g id="a_Node000003"><a xlink:href="_backend_8cc.html" target="_top" xlink:title=" ">
<polygon fill="white" stroke="#666666" points="732.62,-119.5 615.38,-119.5 615.38,-77.75 732.62,-77.75 732.62,-119.5"/>
<text xml:space="preserve" text-anchor="start" x="623.38" y="-106" font-family="Helvetica,sans-Serif" font-size="10.00">frontend/node_modules</text>
<text xml:space="preserve" text-anchor="start" x="623.38" y="-94.75" font-family="Helvetica,sans-Serif" font-size="10.00">/@parcel/watcher/src</text>
<text xml:space="preserve" text-anchor="middle" x="674" y="-83.5" font-family="Helvetica,sans-Serif" font-size="10.00">/Backend.cc</text>
</a>
</g>
</g>
<!-- Node2&#45;&gt;Node3 -->
<g id="edge2_Node000002_Node000003" class="edge">
<title>Node2&#45;&gt;Node3</title>
<g id="a_edge2_Node000002_Node000003"><a xlink:title=" ">
<path fill="none" stroke="#63b8ff" d="M445.61,-232.69C505.68,-217.59 527.97,-227.07 579,-197.25 612.89,-177.44 642.78,-142.27 659.6,-119.99"/>
<polygon fill="#63b8ff" stroke="#63b8ff" points="445.02,-229.23 436.26,-235.19 446.82,-235.99 445.02,-229.23"/>
</a>
</g>
</g>
<!-- Node2&#45;&gt;Node4 -->
<g id="edge3_Node000002_Node000004" class="edge">
<title>Node2&#45;&gt;Node4</title>
<g id="a_edge3_Node000002_Node000004"><a xlink:title=" ">
<path fill="none" stroke="#63b8ff" d="M306.54,-232.16C268.01,-220.53 220.61,-206.23 183.91,-195.15"/>
<polygon fill="#63b8ff" stroke="#63b8ff" points="305.12,-235.39 315.7,-234.93 307.14,-228.69 305.12,-235.39"/>
</a>
</g>
</g>
<!-- Node2&#45;&gt;Node5 -->
<g id="edge4_Node000002_Node000005" class="edge">
<title>Node2&#45;&gt;Node5</title>
<g id="a_edge4_Node000002_Node000005"><a xlink:title=" ">
<path fill="none" stroke="#63b8ff" d="M377.92,-221.44C377.46,-200.23 373.24,-173.07 357,-155.5 324.68,-120.52 272.52,-106.73 229.44,-101.6"/>
<polygon fill="#63b8ff" stroke="#63b8ff" points="374.43,-221.28 377.85,-231.31 381.43,-221.33 374.43,-221.28"/>
</a>
</g>
</g>
<!-- Node6 -->
<g id="Node000006" class="node">
<title>Node6</title>
<g id="a_Node000006"><a xlink:href="_f_s_events_backend_8hh.html" target="_top" xlink:title=" ">
<polygon fill="white" stroke="#666666" points="348.25,-197.25 201.75,-197.25 201.75,-155.5 348.25,-155.5 348.25,-197.25"/>
<text xml:space="preserve" text-anchor="start" x="209.75" y="-183.75" font-family="Helvetica,sans-Serif" font-size="10.00">frontend/node_modules</text>
<text xml:space="preserve" text-anchor="start" x="209.75" y="-172.5" font-family="Helvetica,sans-Serif" font-size="10.00">/@parcel/watcher/src</text>
<text xml:space="preserve" text-anchor="middle" x="275" y="-161.25" font-family="Helvetica,sans-Serif" font-size="10.00">/macos/FSEventsBackend.hh</text>
</a>
</g>
</g>
<!-- Node2&#45;&gt;Node6 -->
<g id="edge5_Node000002_Node000006" class="edge">
<title>Node2&#45;&gt;Node6</title>
<g id="a_edge5_Node000002_Node000006"><a xlink:title=" ">
<path fill="none" stroke="#63b8ff" d="M339.75,-225.94C327.35,-216.64 313.7,-206.4 302.14,-197.73"/>
<polygon fill="#63b8ff" stroke="#63b8ff" points="337.62,-228.72 347.72,-231.92 341.82,-223.12 337.62,-228.72"/>
</a>
</g>
</g>
<!-- Node7 -->
<g id="Node000007" class="node">
<title>Node7</title>
<g id="a_Node000007"><a xlink:href="_brute_force_backend_8hh.html" target="_top" xlink:title=" ">
<polygon fill="white" stroke="#666666" points="1086.5,-197.25 935.5,-197.25 935.5,-155.5 1086.5,-155.5 1086.5,-197.25"/>
<text xml:space="preserve" text-anchor="start" x="943.5" y="-183.75" font-family="Helvetica,sans-Serif" font-size="10.00">frontend/node_modules</text>
<text xml:space="preserve" text-anchor="start" x="943.5" y="-172.5" font-family="Helvetica,sans-Serif" font-size="10.00">/@parcel/watcher/src</text>
<text xml:space="preserve" text-anchor="middle" x="1011" y="-161.25" font-family="Helvetica,sans-Serif" font-size="10.00">/shared/BruteForceBackend.hh</text>
</a>
</g>
</g>
<!-- Node2&#45;&gt;Node7 -->
<g id="edge7_Node000002_Node000007" class="edge">
<title>Node2&#45;&gt;Node7</title>
<g id="a_edge7_Node000002_Node000007"><a xlink:title=" ">
<path fill="none" stroke="#63b8ff" d="M446.28,-232.77C625.83,-198.59 828.24,-185.3 935.45,-180.23"/>
<polygon fill="#63b8ff" stroke="#63b8ff" points="445.67,-229.33 436.52,-234.66 447,-236.2 445.67,-229.33"/>
</a>
</g>
</g>
<!-- Node19 -->
<g id="Node000019" class="node">
<title>Node19</title>
<g id="a_Node000019"><a xlink:href="_watchman_backend_8hh.html" target="_top" xlink:title=" ">
<polygon fill="white" stroke="#666666" points="569.62,-197.25 404.38,-197.25 404.38,-155.5 569.62,-155.5 569.62,-197.25"/>
<text xml:space="preserve" text-anchor="start" x="412.38" y="-183.75" font-family="Helvetica,sans-Serif" font-size="10.00">frontend/node_modules</text>
<text xml:space="preserve" text-anchor="start" x="412.38" y="-172.5" font-family="Helvetica,sans-Serif" font-size="10.00">/@parcel/watcher/src</text>
<text xml:space="preserve" text-anchor="middle" x="487" y="-161.25" font-family="Helvetica,sans-Serif" font-size="10.00">/watchman/WatchmanBackend.hh</text>
</a>
</g>
</g>
<!-- Node2&#45;&gt;Node19 -->
<g id="edge21_Node000002_Node000019" class="edge">
<title>Node2&#45;&gt;Node19</title>
<g id="a_edge21_Node000002_Node000019"><a xlink:title=" ">
<path fill="none" stroke="#63b8ff" d="M415.04,-226.48C428.88,-217.04 444.22,-206.57 457.17,-197.73"/>
<polygon fill="#63b8ff" stroke="#63b8ff" points="413.28,-223.44 407,-231.97 417.23,-229.23 413.28,-223.44"/>
</a>
</g>
</g>
<!-- Node6&#45;&gt;Node5 -->
<g id="edge6_Node000006_Node000005" class="edge">
<title>Node6&#45;&gt;Node5</title>
<g id="a_edge6_Node000006_Node000005"><a xlink:title=" ">
<path fill="none" stroke="#63b8ff" d="M233.57,-149.01C218.63,-139.49 201.99,-128.9 187.98,-119.98"/>
<polygon fill="#63b8ff" stroke="#63b8ff" points="231.52,-151.85 241.83,-154.26 235.28,-145.94 231.52,-151.85"/>
</a>
</g>
</g>
<!-- Node7&#45;&gt;Node3 -->
<g id="edge8_Node000007_Node000003" class="edge">
<title>Node7&#45;&gt;Node3</title>
<g id="a_edge8_Node000007_Node000003"><a xlink:title=" ">
<path fill="none" stroke="#63b8ff" d="M924.23,-159.17C871.33,-148.84 802.49,-134.6 742,-119.5 739.02,-118.76 735.97,-117.97 732.89,-117.15"/>
<polygon fill="#63b8ff" stroke="#63b8ff" points="923.3,-162.56 933.78,-161.03 924.63,-155.68 923.3,-162.56"/>
</a>
</g>
</g>
<!-- Node8 -->
<g id="Node000008" class="node">
<title>Node8</title>
<g id="a_Node000008"><a xlink:href="_kqueue_backend_8hh.html" target="_top" xlink:title=" ">
<polygon fill="white" stroke="#666666" points="1243.12,-119.5 1104.88,-119.5 1104.88,-77.75 1243.12,-77.75 1243.12,-119.5"/>
<text xml:space="preserve" text-anchor="start" x="1112.88" y="-106" font-family="Helvetica,sans-Serif" font-size="10.00">frontend/node_modules</text>
<text xml:space="preserve" text-anchor="start" x="1112.88" y="-94.75" font-family="Helvetica,sans-Serif" font-size="10.00">/@parcel/watcher/src</text>
<text xml:space="preserve" text-anchor="middle" x="1174" y="-83.5" font-family="Helvetica,sans-Serif" font-size="10.00">/kqueue/KqueueBackend.hh</text>
</a>
</g>
</g>
<!-- Node7&#45;&gt;Node8 -->
<g id="edge9_Node000007_Node000008" class="edge">
<title>Node7&#45;&gt;Node8</title>
<g id="a_edge9_Node000007_Node000008"><a xlink:title=" ">
<path fill="none" stroke="#63b8ff" d="M1064.83,-150.36C1086.04,-140.5 1110.08,-129.33 1130.2,-119.98"/>
<polygon fill="#63b8ff" stroke="#63b8ff" points="1063.65,-147.05 1056.05,-154.44 1066.6,-153.4 1063.65,-147.05"/>
</a>
</g>
</g>
<!-- Node10 -->
<g id="Node000010" class="node">
<title>Node10</title>
<g id="a_Node000010"><a xlink:href="_inotify_backend_8hh.html" target="_top" xlink:title=" ">
<polygon fill="white" stroke="#666666" points="1652.5,-119.5 1531.5,-119.5 1531.5,-77.75 1652.5,-77.75 1652.5,-119.5"/>
<text xml:space="preserve" text-anchor="start" x="1539.5" y="-106" font-family="Helvetica,sans-Serif" font-size="10.00">frontend/node_modules</text>
<text xml:space="preserve" text-anchor="start" x="1539.5" y="-94.75" font-family="Helvetica,sans-Serif" font-size="10.00">/@parcel/watcher/src</text>
<text xml:space="preserve" text-anchor="middle" x="1592" y="-83.5" font-family="Helvetica,sans-Serif" font-size="10.00">/linux/InotifyBackend.hh</text>
</a>
</g>
</g>
<!-- Node7&#45;&gt;Node10 -->
<g id="edge11_Node000007_Node000010" class="edge">
<title>Node7&#45;&gt;Node10</title>
<g id="a_edge11_Node000007_Node000010"><a xlink:title=" ">
<path fill="none" stroke="#63b8ff" d="M1097.86,-170.46C1200.27,-163.61 1375.23,-148.62 1523,-119.5 1525.69,-118.97 1528.43,-118.38 1531.19,-117.76"/>
<polygon fill="#63b8ff" stroke="#63b8ff" points="1097.92,-166.95 1088.17,-171.09 1098.38,-173.93 1097.92,-166.95"/>
</a>
</g>
</g>
<!-- Node7&#45;&gt;Node12 -->
<g id="edge13_Node000007_Node000012" class="edge">
<title>Node7&#45;&gt;Node12</title>
<g id="a_edge13_Node000007_Node000012"><a xlink:title=" ">
<path fill="none" stroke="#63b8ff" d="M1098.02,-171.97C1223.34,-166.14 1461.61,-151.63 1662,-119.5 1664.66,-119.07 1667.37,-118.61 1670.09,-118.11"/>
<polygon fill="#63b8ff" stroke="#63b8ff" points="1097.96,-168.47 1088.13,-172.42 1098.28,-175.46 1097.96,-168.47"/>
</a>
</g>
</g>
<!-- Node13 -->
<g id="Node000013" class="node">
<title>Node13</title>
<g id="a_Node000013"><a xlink:href="fts_8cc.html" target="_top" xlink:title=" ">
<polygon fill="white" stroke="#666666" points="1378.62,-119.5 1261.38,-119.5 1261.38,-77.75 1378.62,-77.75 1378.62,-119.5"/>
<text xml:space="preserve" text-anchor="start" x="1269.38" y="-106" font-family="Helvetica,sans-Serif" font-size="10.00">frontend/node_modules</text>
<text xml:space="preserve" text-anchor="start" x="1269.38" y="-94.75" font-family="Helvetica,sans-Serif" font-size="10.00">/@parcel/watcher/src</text>
<text xml:space="preserve" text-anchor="middle" x="1320" y="-83.5" font-family="Helvetica,sans-Serif" font-size="10.00">/unix/fts.cc</text>
</a>
</g>
</g>
<!-- Node7&#45;&gt;Node13 -->
<g id="edge14_Node000007_Node000013" class="edge">
<title>Node7&#45;&gt;Node13</title>
<g id="a_edge14_Node000007_Node000013"><a xlink:title=" ">
<path fill="none" stroke="#63b8ff" d="M1098.1,-156.43C1144.03,-146.12 1201.24,-132.79 1252,-119.5 1254.97,-118.72 1258.02,-117.9 1261.08,-117.07"/>
<polygon fill="#63b8ff" stroke="#63b8ff" points="1097.45,-152.99 1088.46,-158.58 1098.98,-159.82 1097.45,-152.99"/>
</a>
</g>
</g>
<!-- Node14 -->
<g id="Node000014" class="node">
<title>Node14</title>
<g id="a_Node000014"><a xlink:href="legacy_8cc.html" target="_top" xlink:title=" ">
<polygon fill="white" stroke="#666666" points="1513.62,-119.5 1396.38,-119.5 1396.38,-77.75 1513.62,-77.75 1513.62,-119.5"/>
<text xml:space="preserve" text-anchor="start" x="1404.38" y="-106" font-family="Helvetica,sans-Serif" font-size="10.00">frontend/node_modules</text>
<text xml:space="preserve" text-anchor="start" x="1404.38" y="-94.75" font-family="Helvetica,sans-Serif" font-size="10.00">/@parcel/watcher/src</text>
<text xml:space="preserve" text-anchor="middle" x="1455" y="-83.5" font-family="Helvetica,sans-Serif" font-size="10.00">/unix/legacy.cc</text>
</a>
</g>
</g>
<!-- Node7&#45;&gt;Node14 -->
<g id="edge15_Node000007_Node000014" class="edge">
<title>Node7&#45;&gt;Node14</title>
<g id="a_edge15_Node000007_Node000014"><a xlink:title=" ">
<path fill="none" stroke="#63b8ff" d="M1097.73,-166.05C1174.55,-156.95 1289.48,-141.3 1388,-119.5 1390.61,-118.92 1393.26,-118.3 1395.93,-117.64"/>
<polygon fill="#63b8ff" stroke="#63b8ff" points="1097.71,-162.53 1088.18,-167.17 1098.52,-169.48 1097.71,-162.53"/>
</a>
</g>
</g>
<!-- Node15 -->
<g id="Node000015" class="node">
<title>Node15</title>
<g id="a_Node000015"><a xlink:href="_wasm_backend_8hh.html" target="_top" xlink:title=" ">
<polygon fill="white" stroke="#666666" points="878.88,-119.5 751.12,-119.5 751.12,-77.75 878.88,-77.75 878.88,-119.5"/>
<text xml:space="preserve" text-anchor="start" x="759.12" y="-106" font-family="Helvetica,sans-Serif" font-size="10.00">frontend/node_modules</text>
<text xml:space="preserve" text-anchor="start" x="759.12" y="-94.75" font-family="Helvetica,sans-Serif" font-size="10.00">/@parcel/watcher/src</text>
<text xml:space="preserve" text-anchor="middle" x="815" y="-83.5" font-family="Helvetica,sans-Serif" font-size="10.00">/wasm/WasmBackend.hh</text>
</a>
</g>
</g>
<!-- Node7&#45;&gt;Node15 -->
<g id="edge16_Node000007_Node000015" class="edge">
<title>Node7&#45;&gt;Node15</title>
<g id="a_edge16_Node000007_Node000015"><a xlink:title=" ">
<path fill="none" stroke="#63b8ff" d="M948,-151.03C922.08,-141.01 892.41,-129.54 867.67,-119.98"/>
<polygon fill="#63b8ff" stroke="#63b8ff" points="946.47,-154.19 957.06,-154.53 949,-147.66 946.47,-154.19"/>
</a>
</g>
</g>
<!-- Node17 -->
<g id="Node000017" class="node">
<title>Node17</title>
<g id="a_Node000017"><a xlink:href="_windows_backend_8cc.html" target="_top" xlink:title=" ">
<polygon fill="white" stroke="#666666" points="1016.25,-41.75 863.75,-41.75 863.75,0 1016.25,0 1016.25,-41.75"/>
<text xml:space="preserve" text-anchor="start" x="871.75" y="-28.25" font-family="Helvetica,sans-Serif" font-size="10.00">frontend/node_modules</text>
<text xml:space="preserve" text-anchor="start" x="871.75" y="-17" font-family="Helvetica,sans-Serif" font-size="10.00">/@parcel/watcher/src</text>
<text xml:space="preserve" text-anchor="middle" x="940" y="-5.75" font-family="Helvetica,sans-Serif" font-size="10.00">/windows/WindowsBackend.cc</text>
</a>
</g>
</g>
<!-- Node7&#45;&gt;Node17 -->
<g id="edge18_Node000007_Node000017" class="edge">
<title>Node7&#45;&gt;Node17</title>
<g id="a_edge18_Node000007_Node000017"><a xlink:title=" ">
<path fill="none" stroke="#63b8ff" d="M953.72,-149.04C942.6,-141.18 932.42,-131.4 926,-119.5 912.91,-95.24 921.82,-62.88 930.24,-42.21"/>
<polygon fill="#63b8ff" stroke="#63b8ff" points="951.66,-151.88 961.95,-154.38 955.46,-146 951.66,-151.88"/>
</a>
</g>
</g>
<!-- Node18 -->
<g id="Node000018" class="node">
<title>Node18</title>
<g id="a_Node000018"><a xlink:href="_windows_backend_8hh.html" target="_top" xlink:title=" ">
<polygon fill="white" stroke="#666666" points="1087.25,-119.5 934.75,-119.5 934.75,-77.75 1087.25,-77.75 1087.25,-119.5"/>
<text xml:space="preserve" text-anchor="start" x="942.75" y="-106" font-family="Helvetica,sans-Serif" font-size="10.00">frontend/node_modules</text>
<text xml:space="preserve" text-anchor="start" x="942.75" y="-94.75" font-family="Helvetica,sans-Serif" font-size="10.00">/@parcel/watcher/src</text>
<text xml:space="preserve" text-anchor="middle" x="1011" y="-83.5" font-family="Helvetica,sans-Serif" font-size="10.00">/windows/WindowsBackend.hh</text>
</a>
</g>
</g>
<!-- Node7&#45;&gt;Node18 -->
<g id="edge19_Node000007_Node000018" class="edge">
<title>Node7&#45;&gt;Node18</title>
<g id="a_edge19_Node000007_Node000018"><a xlink:title=" ">
<path fill="none" stroke="#63b8ff" d="M1011,-143.75C1011,-135.71 1011,-127.29 1011,-119.98"/>
<polygon fill="#63b8ff" stroke="#63b8ff" points="1007.5,-143.56 1011,-153.56 1014.5,-143.56 1007.5,-143.56"/>
</a>
</g>
</g>
<!-- Node9 -->
<g id="Node000009" class="node">
<title>Node9</title>
<g id="a_Node000009"><a xlink:href="_kqueue_backend_8cc.html" target="_top" xlink:title=" ">
<polygon fill="white" stroke="#666666" points="1243.12,-41.75 1104.88,-41.75 1104.88,0 1243.12,0 1243.12,-41.75"/>
<text xml:space="preserve" text-anchor="start" x="1112.88" y="-28.25" font-family="Helvetica,sans-Serif" font-size="10.00">frontend/node_modules</text>
<text xml:space="preserve" text-anchor="start" x="1112.88" y="-17" font-family="Helvetica,sans-Serif" font-size="10.00">/@parcel/watcher/src</text>
<text xml:space="preserve" text-anchor="middle" x="1174" y="-5.75" font-family="Helvetica,sans-Serif" font-size="10.00">/kqueue/KqueueBackend.cc</text>
</a>
</g>
</g>
<!-- Node8&#45;&gt;Node9 -->
<g id="edge10_Node000008_Node000009" class="edge">
<title>Node8&#45;&gt;Node9</title>
<g id="a_edge10_Node000008_Node000009"><a xlink:title=" ">
<path fill="none" stroke="#63b8ff" d="M1174,-66C1174,-57.96 1174,-49.54 1174,-42.23"/>
<polygon fill="#63b8ff" stroke="#63b8ff" points="1170.5,-65.81 1174,-75.81 1177.5,-65.81 1170.5,-65.81"/>
</a>
</g>
</g>
<!-- Node11 -->
<g id="Node000011" class="node">
<title>Node11</title>
<g id="a_Node000011"><a xlink:href="_inotify_backend_8cc.html" target="_top" xlink:title=" ">
<polygon fill="white" stroke="#666666" points="1652.5,-41.75 1531.5,-41.75 1531.5,0 1652.5,0 1652.5,-41.75"/>
<text xml:space="preserve" text-anchor="start" x="1539.5" y="-28.25" font-family="Helvetica,sans-Serif" font-size="10.00">frontend/node_modules</text>
<text xml:space="preserve" text-anchor="start" x="1539.5" y="-17" font-family="Helvetica,sans-Serif" font-size="10.00">/@parcel/watcher/src</text>
<text xml:space="preserve" text-anchor="middle" x="1592" y="-5.75" font-family="Helvetica,sans-Serif" font-size="10.00">/linux/InotifyBackend.cc</text>
</a>
</g>
</g>
<!-- Node10&#45;&gt;Node11 -->
<g id="edge12_Node000010_Node000011" class="edge">
<title>Node10&#45;&gt;Node11</title>
<g id="a_edge12_Node000010_Node000011"><a xlink:title=" ">
<path fill="none" stroke="#63b8ff" d="M1592,-66C1592,-57.96 1592,-49.54 1592,-42.23"/>
<polygon fill="#63b8ff" stroke="#63b8ff" points="1588.5,-65.81 1592,-75.81 1595.5,-65.81 1588.5,-65.81"/>
</a>
</g>
</g>
<!-- Node16 -->
<g id="Node000016" class="node">
<title>Node16</title>
<g id="a_Node000016"><a xlink:href="_wasm_backend_8cc.html" target="_top" xlink:title=" ">
<polygon fill="white" stroke="#666666" points="845.88,-41.75 718.12,-41.75 718.12,0 845.88,0 845.88,-41.75"/>
<text xml:space="preserve" text-anchor="start" x="726.12" y="-28.25" font-family="Helvetica,sans-Serif" font-size="10.00">frontend/node_modules</text>
<text xml:space="preserve" text-anchor="start" x="726.12" y="-17" font-family="Helvetica,sans-Serif" font-size="10.00">/@parcel/watcher/src</text>
<text xml:space="preserve" text-anchor="middle" x="782" y="-5.75" font-family="Helvetica,sans-Serif" font-size="10.00">/wasm/WasmBackend.cc</text>
</a>
</g>
</g>
<!-- Node15&#45;&gt;Node16 -->
<g id="edge17_Node000015_Node000016" class="edge">
<title>Node15&#45;&gt;Node16</title>
<g id="a_edge17_Node000015_Node000016"><a xlink:title=" ">
<path fill="none" stroke="#63b8ff" d="M801.59,-66.84C797.98,-58.55 794.16,-49.79 790.87,-42.23"/>
<polygon fill="#63b8ff" stroke="#63b8ff" points="798.35,-68.17 805.55,-75.94 804.77,-65.37 798.35,-68.17"/>
</a>
</g>
</g>
<!-- Node18&#45;&gt;Node17 -->
<g id="edge20_Node000018_Node000017" class="edge">
<title>Node18&#45;&gt;Node17</title>
<g id="a_edge20_Node000018_Node000017"><a xlink:title=" ">
<path fill="none" stroke="#63b8ff" d="M984.23,-69.06C975.86,-60.14 966.81,-50.47 959.08,-42.23"/>
<polygon fill="#63b8ff" stroke="#63b8ff" points="981.55,-71.32 990.94,-76.22 986.65,-66.53 981.55,-71.32"/>
</a>
</g>
</g>
<!-- Node19&#45;&gt;Node20 -->
<g id="edge22_Node000019_Node000020" class="edge">
<title>Node19&#45;&gt;Node20</title>
<g id="a_edge22_Node000019_Node000020"><a xlink:title=" ">
<path fill="none" stroke="#63b8ff" d="M482.41,-143.75C481.24,-135.71 480.02,-127.29 478.96,-119.98"/>
<polygon fill="#63b8ff" stroke="#63b8ff" points="478.93,-144.18 483.83,-153.58 485.86,-143.18 478.93,-144.18"/>
</a>
</g>
</g>
<!-- Node21&#45;&gt;Node7 -->
<g id="edge34_Node000021_Node000007" class="edge">
<title>Node21&#45;&gt;Node7</title>
<g id="a_edge34_Node000021_Node000007"><a xlink:title=" ">
<path fill="none" stroke="#63b8ff" d="M1084.68,-377.83C1067.01,-329.76 1033.36,-238.2 1018.44,-197.61"/>
<polygon fill="#63b8ff" stroke="#63b8ff" points="1081.35,-378.91 1088.08,-387.09 1087.92,-376.49 1081.35,-378.91"/>
</a>
</g>
</g>
<!-- Node21&#45;&gt;Node8 -->
<g id="edge31_Node000021_Node000008" class="edge">
<title>Node21&#45;&gt;Node8</title>
<g id="a_edge31_Node000021_Node000008"><a xlink:title=" ">
<path fill="none" stroke="#63b8ff" d="M1103.85,-377.52C1119.79,-314.39 1155.54,-172.77 1168.86,-119.97"/>
<polygon fill="#63b8ff" stroke="#63b8ff" points="1100.54,-376.33 1101.49,-386.88 1107.33,-378.04 1100.54,-376.33"/>
</a>
</g>
</g>
<!-- Node21&#45;&gt;Node10 -->
<g id="edge32_Node000021_Node000010" class="edge">
<title>Node21&#45;&gt;Node10</title>
<g id="a_edge32_Node000021_Node000010"><a xlink:title=" ">
<path fill="none" stroke="#63b8ff" d="M1165.85,-402.18C1215.04,-395.32 1281.11,-381.28 1333,-352.75 1444.84,-291.25 1542.17,-168.12 1577.67,-119.77"/>
<polygon fill="#63b8ff" stroke="#63b8ff" points="1165.63,-398.68 1156.18,-403.46 1166.55,-405.62 1165.63,-398.68"/>
</a>
</g>
</g>
<!-- Node21&#45;&gt;Node12 -->
<g id="edge33_Node000021_Node000012" class="edge">
<title>Node21&#45;&gt;Node12</title>
<g id="a_edge33_Node000021_Node000012"><a xlink:title=" ">
<path fill="none" stroke="#63b8ff" d="M1166.37,-402.59C1224.65,-395.75 1308.67,-381.54 1377,-352.75 1522.33,-291.52 1669.2,-168.23 1723.79,-119.81"/>
<polygon fill="#63b8ff" stroke="#63b8ff" points="1166.12,-399.1 1156.57,-403.69 1166.9,-406.05 1166.12,-399.1"/>
</a>
</g>
</g>
<!-- Node21&#45;&gt;Node13 -->
<g id="edge35_Node000021_Node000013" class="edge">
<title>Node21&#45;&gt;Node13</title>
<g id="a_edge35_Node000021_Node000013"><a xlink:title=" ">
<path fill="none" stroke="#63b8ff" d="M1166.07,-402.84C1202.09,-396.19 1243.8,-382.17 1270,-352.75 1330.03,-285.34 1326.54,-167.23 1322.33,-119.99"/>
<polygon fill="#63b8ff" stroke="#63b8ff" points="1165.88,-399.32 1156.59,-404.42 1167.03,-406.23 1165.88,-399.32"/>
</a>
</g>
</g>
<!-- Node21&#45;&gt;Node14 -->
<g id="edge36_Node000021_Node000014" class="edge">
<title>Node21&#45;&gt;Node14</title>
<g id="a_edge36_Node000021_Node000014"><a xlink:title=" ">
<path fill="none" stroke="#63b8ff" d="M1166.17,-402.1C1207.85,-395.28 1259.85,-381.32 1298,-352.75 1381.82,-289.98 1431.27,-168.13 1448.28,-119.95"/>
<polygon fill="#63b8ff" stroke="#63b8ff" points="1165.84,-398.61 1156.48,-403.58 1166.89,-405.53 1165.84,-398.61"/>
</a>
</g>
</g>
<!-- Node21&#45;&gt;Node15 -->
<g id="edge37_Node000021_Node000015" class="edge">
<title>Node21&#45;&gt;Node15</title>
<g id="a_edge37_Node000021_Node000015"><a xlink:title=" ">
<path fill="none" stroke="#63b8ff" d="M1069.82,-379.84C1013.52,-317.93 882.11,-173.42 833.51,-119.97"/>
<polygon fill="#63b8ff" stroke="#63b8ff" points="1067.23,-382.19 1076.54,-387.23 1072.41,-377.48 1067.23,-382.19"/>
</a>
</g>
</g>
<!-- Node21&#45;&gt;Node17 -->
<g id="edge39_Node000021_Node000017" class="edge">
<title>Node21&#45;&gt;Node17</title>
<g id="a_edge39_Node000021_Node000017"><a xlink:title=" ">
<path fill="none" stroke="#63b8ff" d="M1046.75,-383.15C927.46,-320.95 630.99,-163.26 606,-119.5 596.8,-103.39 593.85,-91.78 606,-77.75 642.6,-35.48 800.06,-52.12 855,-41.75 857.83,-41.22 860.71,-40.65 863.61,-40.06"/>
<polygon fill="#63b8ff" stroke="#63b8ff" points="1044.89,-386.12 1055.37,-387.64 1048.12,-379.91 1044.89,-386.12"/>
</a>
</g>
</g>
<!-- Node21&#45;&gt;Node20 -->
<g id="edge38_Node000021_Node000020" class="edge">
<title>Node21&#45;&gt;Node20</title>
<g id="a_edge38_Node000021_Node000020"><a xlink:title=" ">
<path fill="none" stroke="#63b8ff" d="M1025.72,-406.85C925.52,-403 748.16,-390.85 698,-352.75 621.84,-294.91 680.34,-222.4 612,-155.5 595.95,-139.79 574.86,-128.27 554.1,-119.93"/>
<polygon fill="#63b8ff" stroke="#63b8ff" points="1025.32,-410.34 1035.44,-407.21 1025.57,-403.35 1025.32,-410.34"/>
</a>
</g>
</g>
<!-- Node22 -->
<g id="Node000022" class="node">
<title>Node22</title>
<g id="a_Node000022"><a xlink:href="_dir_tree_8cc.html" target="_top" xlink:title=" ">
<polygon fill="white" stroke="#666666" points="1260.62,-352.75 1143.38,-352.75 1143.38,-311 1260.62,-311 1260.62,-352.75"/>
<text xml:space="preserve" text-anchor="start" x="1151.38" y="-339.25" font-family="Helvetica,sans-Serif" font-size="10.00">frontend/node_modules</text>
<text xml:space="preserve" text-anchor="start" x="1151.38" y="-328" font-family="Helvetica,sans-Serif" font-size="10.00">/@parcel/watcher/src</text>
<text xml:space="preserve" text-anchor="middle" x="1202" y="-316.75" font-family="Helvetica,sans-Serif" font-size="10.00">/DirTree.cc</text>
</a>
</g>
</g>
<!-- Node21&#45;&gt;Node22 -->
<g id="edge24_Node000021_Node000022" class="edge">
<title>Node21&#45;&gt;Node22</title>
<g id="a_edge24_Node000021_Node000022"><a xlink:title=" ">
<path fill="none" stroke="#63b8ff" d="M1133.66,-381.71C1146.78,-372.34 1161.27,-361.98 1173.52,-353.23"/>
<polygon fill="#63b8ff" stroke="#63b8ff" points="1131.74,-378.78 1125.64,-387.45 1135.81,-384.48 1131.74,-378.78"/>
</a>
</g>
</g>
<!-- Node21&#45;&gt;Node23 -->
<g id="edge25_Node000021_Node000023" class="edge">
<title>Node21&#45;&gt;Node23</title>
<g id="a_edge25_Node000021_Node000023"><a xlink:title=" ">
<path fill="none" stroke="#63b8ff" d="M1026.02,-399.75C907.3,-384.68 668.59,-354.39 557.88,-340.35"/>
<polygon fill="#63b8ff" stroke="#63b8ff" points="1025.26,-403.18 1035.62,-400.96 1026.14,-396.23 1025.26,-403.18"/>
</a>
</g>
</g>
<!-- Node23&#45;&gt;Node2 -->
<g id="edge26_Node000023_Node000002" class="edge">
<title>Node23&#45;&gt;Node2</title>
<g id="a_edge26_Node000023_Node000002"><a xlink:title=" ">
<path fill="none" stroke="#63b8ff" d="M456.62,-304.78C441.06,-295.19 423.68,-284.49 409.05,-275.48"/>
<polygon fill="#63b8ff" stroke="#63b8ff" points="454.4,-307.52 464.75,-309.78 458.07,-301.56 454.4,-307.52"/>
</a>
</g>
</g>
<!-- Node23&#45;&gt;Node4 -->
<g id="edge28_Node000023_Node000004" class="edge">
<title>Node23&#45;&gt;Node4</title>
<g id="a_edge28_Node000023_Node000004"><a xlink:title=" ">
<path fill="none" stroke="#63b8ff" d="M429.18,-314.14C392.49,-304.43 347.14,-290.97 308,-275 253.49,-252.76 193.96,-219.11 158.06,-197.69"/>
<polygon fill="#63b8ff" stroke="#63b8ff" points="428.25,-317.52 438.81,-316.65 430.01,-310.74 428.25,-317.52"/>
</a>
</g>
</g>
<!-- Node23&#45;&gt;Node5 -->
<g id="edge29_Node000023_Node000005" class="edge">
<title>Node23&#45;&gt;Node5</title>
<g id="a_edge29_Node000023_Node000005"><a xlink:title=" ">
<path fill="none" stroke="#63b8ff" d="M429.13,-320.91C314.9,-302.92 96.82,-260.88 57,-197.25 47.16,-181.52 47.64,-171.52 57,-155.5 66.11,-139.91 81.35,-128.32 97.18,-119.87"/>
<polygon fill="#63b8ff" stroke="#63b8ff" points="428.27,-324.32 438.69,-322.39 429.35,-317.4 428.27,-324.32"/>
</a>
</g>
</g>
<!-- Node23&#45;&gt;Node7 -->
<g id="edge30_Node000023_Node000007" class="edge">
<title>Node23&#45;&gt;Node7</title>
<g id="a_edge30_Node000023_Node000007"><a xlink:title=" ">
<path fill="none" stroke="#63b8ff" d="M568.71,-309.97C667.21,-280.44 845.94,-226.86 943.32,-197.67"/>
<polygon fill="#63b8ff" stroke="#63b8ff" points="568.01,-306.53 559.43,-312.76 570.02,-313.24 568.01,-306.53"/>
</a>
</g>
</g>
<!-- Node24 -->
<g id="Node000024" class="node">
<title>Node24</title>
<g id="a_Node000024"><a xlink:href="_watcher_8cc.html" target="_top" xlink:title=" ">
<polygon fill="white" stroke="#666666" points="569.62,-275 452.38,-275 452.38,-233.25 569.62,-233.25 569.62,-275"/>
<text xml:space="preserve" text-anchor="start" x="460.38" y="-261.5" font-family="Helvetica,sans-Serif" font-size="10.00">frontend/node_modules</text>
<text xml:space="preserve" text-anchor="start" x="460.38" y="-250.25" font-family="Helvetica,sans-Serif" font-size="10.00">/@parcel/watcher/src</text>
<text xml:space="preserve" text-anchor="middle" x="511" y="-239" font-family="Helvetica,sans-Serif" font-size="10.00">/Watcher.cc</text>
</a>
</g>
</g>
<!-- Node23&#45;&gt;Node24 -->
<g id="edge27_Node000023_Node000024" class="edge">
<title>Node23&#45;&gt;Node24</title>
<g id="a_edge27_Node000023_Node000024"><a xlink:title=" ">
<path fill="none" stroke="#63b8ff" d="M504.01,-299.25C505.28,-291.21 506.62,-282.79 507.78,-275.48"/>
<polygon fill="#63b8ff" stroke="#63b8ff" points="500.56,-298.66 502.45,-309.08 507.47,-299.75 500.56,-298.66"/>
</a>
</g>
</g>
</g>
</svg>
