<?xml version="1.0" encoding="UTF-8" standalone="no"?>
<!DOCTYPE svg PUBLIC "-//W3C//DTD SVG 1.1//EN"
 "http://www.w3.org/Graphics/SVG/1.1/DTD/svg11.dtd">
<!-- Generated by graphviz version 14.0.4 (20251115.1723)
 -->
<!-- Title: frontend/node_modules/@parcel/watcher/src/macos/FSEventsBackend.cc Pages: 1 -->
<svg width="1044pt" height="492pt"
 viewBox="0.00 0.00 1044.00 492.00" xmlns="http://www.w3.org/2000/svg" xmlns:xlink="http://www.w3.org/1999/xlink">
<g id="graph0" class="graph" transform="scale(1 1) rotate(0) translate(4 487.75)">
<title>frontend/node_modules/@parcel/watcher/src/macos/FSEventsBackend.cc</title>
<!-- Node1 -->
<g id="Node000001" class="node">
<title>Node1</title>
<g id="a_Node000001"><a xlink:title=" ">
<polygon fill="#999999" stroke="#666666" points="684.52,-483.75 538.02,-483.75 538.02,-442 684.52,-442 684.52,-483.75"/>
<text xml:space="preserve" text-anchor="start" x="546.02" y="-470.25" font-family="Helvetica,sans-Serif" font-size="10.00">frontend/node_modules</text>
<text xml:space="preserve" text-anchor="start" x="546.02" y="-459" font-family="Helvetica,sans-Serif" font-size="10.00">/@parcel/watcher/src</text>
<text xml:space="preserve" text-anchor="middle" x="611.27" y="-447.75" font-family="Helvetica,sans-Serif" font-size="10.00">/macos/FSEventsBackend.cc</text>
</a>
</g>
</g>
<!-- Node2 -->
<g id="Node000002" class="node">
<title>Node2</title>
<g id="a_Node000002"><a xlink:title=" ">
<polygon fill="#e0e0e0" stroke="#999999" points="514.14,-350.75 368.39,-350.75 368.39,-331.5 514.14,-331.5 514.14,-350.75"/>
<text xml:space="preserve" text-anchor="middle" x="441.27" y="-337.25" font-family="Helvetica,sans-Serif" font-size="10.00">CoreServices/CoreServices.h</text>
</a>
</g>
</g>
<!-- Node1&#45;&gt;Node2 -->
<g id="edge1_Node000001_Node000002" class="edge">
<title>Node1&#45;&gt;Node2</title>
<g id="a_edge1_Node000001_Node000002"><a xlink:title=" ">
<path fill="none" stroke="#63b8ff" d="M537.55,-450.9C508.47,-442.99 477.1,-429.39 456.27,-406 445.71,-394.15 442.2,-376.27 441.2,-362.44"/>
<polygon fill="#63b8ff" stroke="#63b8ff" points="444.7,-362.57 440.89,-352.68 437.71,-362.79 444.7,-362.57"/>
</a>
</g>
</g>
<!-- Node3 -->
<g id="Node000003" class="node">
<title>Node3</title>
<g id="a_Node000003"><a xlink:title=" ">
<polygon fill="#e0e0e0" stroke="#999999" points="969.02,-406 909.52,-406 909.52,-386.75 969.02,-386.75 969.02,-406"/>
<text xml:space="preserve" text-anchor="middle" x="939.27" y="-392.5" font-family="Helvetica,sans-Serif" font-size="10.00">sys/stat.h</text>
</a>
</g>
</g>
<!-- Node1&#45;&gt;Node3 -->
<g id="edge2_Node000001_Node000003" class="edge">
<title>Node1&#45;&gt;Node3</title>
<g id="a_edge2_Node000001_Node000003"><a xlink:title=" ">
<path fill="none" stroke="#63b8ff" d="M684.88,-447.4C750.69,-434.46 844.74,-415.96 898.12,-405.47"/>
<polygon fill="#63b8ff" stroke="#63b8ff" points="898.56,-408.95 907.7,-403.58 897.21,-402.08 898.56,-408.95"/>
</a>
</g>
</g>
<!-- Node4 -->
<g id="Node000004" class="node">
<title>Node4</title>
<g id="a_Node000004"><a xlink:title=" ">
<polygon fill="#e0e0e0" stroke="#999999" points="154.27,-74.5 114.27,-74.5 114.27,-55.25 154.27,-55.25 154.27,-74.5"/>
<text xml:space="preserve" text-anchor="middle" x="134.27" y="-61" font-family="Helvetica,sans-Serif" font-size="10.00">string</text>
</a>
</g>
</g>
<!-- Node1&#45;&gt;Node4 -->
<g id="edge3_Node000001_Node000004" class="edge">
<title>Node1&#45;&gt;Node4</title>
<g id="a_edge3_Node000001_Node000004"><a xlink:title=" ">
<path fill="none" stroke="#63b8ff" d="M537.57,-462.71C375.06,-462.57 0.27,-450.49 0.27,-342.12 0.27,-342.12 0.27,-342.12 0.27,-174.38 0.27,-144.76 -0.81,-132.27 19.27,-110.5 41.17,-86.74 77.21,-75.49 103.11,-70.25"/>
<polygon fill="#63b8ff" stroke="#63b8ff" points="103.5,-73.74 112.72,-68.51 102.25,-66.85 103.5,-73.74"/>
</a>
</g>
</g>
<!-- Node5 -->
<g id="Node000005" class="node">
<title>Node5</title>
<g id="a_Node000005"><a xlink:title=" ">
<polygon fill="#e0e0e0" stroke="#999999" points="1035.77,-406 986.77,-406 986.77,-386.75 1035.77,-386.75 1035.77,-406"/>
<text xml:space="preserve" text-anchor="middle" x="1011.27" y="-392.5" font-family="Helvetica,sans-Serif" font-size="10.00">fstream</text>
</a>
</g>
</g>
<!-- Node1&#45;&gt;Node5 -->
<g id="edge4_Node000001_Node000005" class="edge">
<title>Node1&#45;&gt;Node5</title>
<g id="a_edge4_Node000001_Node000005"><a xlink:title=" ">
<path fill="none" stroke="#63b8ff" d="M684.78,-452.98C756.62,-443.77 869.25,-427.95 975.24,-406.46"/>
<polygon fill="#63b8ff" stroke="#63b8ff" points="975.89,-409.9 984.99,-404.46 974.49,-403.04 975.89,-409.9"/>
</a>
</g>
</g>
<!-- Node6 -->
<g id="Node000006" class="node">
<title>Node6</title>
<g id="a_Node000006"><a xlink:title=" ">
<polygon fill="#e0e0e0" stroke="#999999" points="894.02,-185 816.52,-185 816.52,-165.75 894.02,-165.75 894.02,-185"/>
<text xml:space="preserve" text-anchor="middle" x="855.27" y="-171.5" font-family="Helvetica,sans-Serif" font-size="10.00">unordered_set</text>
</a>
</g>
</g>
<!-- Node1&#45;&gt;Node6 -->
<g id="edge5_Node000001_Node000006" class="edge">
<title>Node1&#45;&gt;Node6</title>
<g id="a_edge5_Node000001_Node000006"><a xlink:title=" ">
<path fill="none" stroke="#63b8ff" d="M684.69,-459.72C764.64,-453 881.27,-428.4 881.27,-342.12 881.27,-342.12 881.27,-342.12 881.27,-284.88 881.27,-253.15 870.63,-217.61 862.96,-196.12"/>
<polygon fill="#63b8ff" stroke="#63b8ff" points="866.3,-195.05 859.52,-186.9 859.74,-197.5 866.3,-195.05"/>
</a>
</g>
</g>
<!-- Node7 -->
<g id="Node000007" class="node">
<title>Node7</title>
<g id="a_Node000007"><a xlink:href="_event_8hh.html" target="_top" xlink:title=" ">
<polygon fill="white" stroke="#666666" points="271.27,-185 207.27,-185 207.27,-165.75 271.27,-165.75 271.27,-185"/>
<text xml:space="preserve" text-anchor="middle" x="239.27" y="-171.5" font-family="Helvetica,sans-Serif" font-size="10.00">../Event.hh</text>
</a>
</g>
</g>
<!-- Node1&#45;&gt;Node7 -->
<g id="edge6_Node000001_Node000007" class="edge">
<title>Node1&#45;&gt;Node7</title>
<g id="a_edge6_Node000001_Node000007"><a xlink:title=" ">
<path fill="none" stroke="#63b8ff" d="M537.77,-453.36C429.36,-438.72 239.27,-404.21 239.27,-342.12 239.27,-342.12 239.27,-342.12 239.27,-284.88 239.27,-254.16 239.27,-218.55 239.27,-196.74"/>
<polygon fill="#63b8ff" stroke="#63b8ff" points="242.77,-196.89 239.27,-186.89 235.77,-196.89 242.77,-196.89"/>
</a>
</g>
</g>
<!-- Node24 -->
<g id="Node000024" class="node">
<title>Node24</title>
<g id="a_Node000024"><a xlink:href="_backend_8hh.html" target="_top" xlink:title=" ">
<polygon fill="white" stroke="#666666" points="616.64,-350.75 539.89,-350.75 539.89,-331.5 616.64,-331.5 616.64,-350.75"/>
<text xml:space="preserve" text-anchor="middle" x="578.27" y="-337.25" font-family="Helvetica,sans-Serif" font-size="10.00">../Backend.hh</text>
</a>
</g>
</g>
<!-- Node1&#45;&gt;Node24 -->
<g id="edge27_Node000001_Node000024" class="edge">
<title>Node1&#45;&gt;Node24</title>
<g id="a_edge27_Node000001_Node000024"><a xlink:title=" ">
<path fill="none" stroke="#63b8ff" d="M606.49,-441.7C602.82,-426.53 597.51,-405.26 592.27,-386.75 589.95,-378.55 587.17,-369.57 584.71,-361.82"/>
<polygon fill="#63b8ff" stroke="#63b8ff" points="588.08,-360.85 581.67,-352.41 581.41,-363 588.08,-360.85"/>
</a>
</g>
</g>
<!-- Node25 -->
<g id="Node000025" class="node">
<title>Node25</title>
<g id="a_Node000025"><a xlink:href="_watcher_8hh.html" target="_top" xlink:title=" ">
<polygon fill="white" stroke="#666666" points="645.64,-295.5 580.89,-295.5 580.89,-276.25 645.64,-276.25 645.64,-295.5"/>
<text xml:space="preserve" text-anchor="middle" x="613.27" y="-282" font-family="Helvetica,sans-Serif" font-size="10.00">Watcher.hh</text>
</a>
</g>
</g>
<!-- Node1&#45;&gt;Node25 -->
<g id="edge56_Node000001_Node000025" class="edge">
<title>Node1&#45;&gt;Node25</title>
<g id="a_edge56_Node000001_Node000025"><a xlink:title=" ">
<path fill="none" stroke="#63b8ff" d="M616.46,-441.51C622.31,-415.83 630.4,-370.32 625.27,-331.5 624.18,-323.25 622,-314.37 619.8,-306.71"/>
<polygon fill="#63b8ff" stroke="#63b8ff" points="623.22,-305.92 616.92,-297.41 616.54,-308 623.22,-305.92"/>
</a>
</g>
</g>
<!-- Node35 -->
<g id="Node000035" class="node">
<title>Node35</title>
<g id="a_Node000035"><a xlink:href="_f_s_events_backend_8hh.html" target="_top" xlink:title=" ">
<polygon fill="white" stroke="#666666" points="582.89,-406 465.64,-406 465.64,-386.75 582.89,-386.75 582.89,-406"/>
<text xml:space="preserve" text-anchor="middle" x="524.27" y="-392.5" font-family="Helvetica,sans-Serif" font-size="10.00">./FSEventsBackend.hh</text>
</a>
</g>
</g>
<!-- Node1&#45;&gt;Node35 -->
<g id="edge53_Node000001_Node000035" class="edge">
<title>Node1&#45;&gt;Node35</title>
<g id="a_edge53_Node000001_Node000035"><a xlink:title=" ">
<path fill="none" stroke="#63b8ff" d="M584.22,-441.82C571.75,-432.58 557.16,-421.76 545.5,-413.12"/>
<polygon fill="#63b8ff" stroke="#63b8ff" points="547.84,-410.49 537.72,-407.35 543.67,-416.11 547.84,-410.49"/>
</a>
</g>
</g>
<!-- Node7&#45;&gt;Node4 -->
<g id="edge7_Node000007_Node000004" class="edge">
<title>Node7&#45;&gt;Node4</title>
<g id="a_edge7_Node000007_Node000004"><a xlink:title=" ">
<path fill="none" stroke="#63b8ff" d="M242.69,-165.66C247.25,-152.49 253.5,-127.29 242.27,-110.5 237.67,-103.63 195.15,-87.42 164.86,-76.55"/>
<polygon fill="#63b8ff" stroke="#63b8ff" points="166.37,-73.37 155.77,-73.32 164.02,-79.96 166.37,-73.37"/>
</a>
</g>
</g>
<!-- Node8 -->
<g id="Node000008" class="node">
<title>Node8</title>
<g id="a_Node000008"><a xlink:title=" ">
<polygon fill="#e0e0e0" stroke="#999999" points="606.89,-74.5 543.64,-74.5 543.64,-55.25 606.89,-55.25 606.89,-74.5"/>
<text xml:space="preserve" text-anchor="middle" x="575.27" y="-61" font-family="Helvetica,sans-Serif" font-size="10.00">node_api.h</text>
</a>
</g>
</g>
<!-- Node7&#45;&gt;Node8 -->
<g id="edge8_Node000007_Node000008" class="edge">
<title>Node7&#45;&gt;Node8</title>
<g id="a_edge8_Node000007_Node000008"><a xlink:title=" ">
<path fill="none" stroke="#63b8ff" d="M267.76,-165.25C295.86,-156.25 340.04,-142.08 378.27,-129.75 433.2,-112.03 496.7,-91.41 536.43,-78.51"/>
<polygon fill="#63b8ff" stroke="#63b8ff" points="537.35,-81.88 545.78,-75.47 535.19,-75.23 537.35,-81.88"/>
</a>
</g>
</g>
<!-- Node9 -->
<g id="Node000009" class="node">
<title>Node9</title>
<g id="a_Node000009"><a xlink:href="include_8h.html" target="_top" xlink:title=" ">
<polygon fill="white" stroke="#666666" points="112.39,-129.75 28.14,-129.75 28.14,-110.5 112.39,-110.5 112.39,-129.75"/>
<text xml:space="preserve" text-anchor="middle" x="70.27" y="-116.25" font-family="Helvetica,sans-Serif" font-size="10.00">wasm/include.h</text>
</a>
</g>
</g>
<!-- Node7&#45;&gt;Node9 -->
<g id="edge9_Node000007_Node000009" class="edge">
<title>Node7&#45;&gt;Node9</title>
<g id="a_edge9_Node000007_Node000009"><a xlink:title=" ">
<path fill="none" stroke="#63b8ff" d="M210.6,-165.34C182.92,-156.62 140.78,-143.34 109.9,-133.61"/>
<polygon fill="#63b8ff" stroke="#63b8ff" points="111.11,-130.32 100.52,-130.66 109.01,-137 111.11,-130.32"/>
</a>
</g>
</g>
<!-- Node10 -->
<g id="Node000010" class="node">
<title>Node10</title>
<g id="a_Node000010"><a xlink:href="napi_8h.html" target="_top" xlink:title=" ">
<polygon fill="white" stroke="#666666" points="369.39,-129.75 327.14,-129.75 327.14,-110.5 369.39,-110.5 369.39,-129.75"/>
<text xml:space="preserve" text-anchor="middle" x="348.27" y="-116.25" font-family="Helvetica,sans-Serif" font-size="10.00">napi.h</text>
</a>
</g>
</g>
<!-- Node7&#45;&gt;Node10 -->
<g id="edge10_Node000007_Node000010" class="edge">
<title>Node7&#45;&gt;Node10</title>
<g id="a_edge10_Node000007_Node000010"><a xlink:title=" ">
<path fill="none" stroke="#63b8ff" d="M257.76,-165.34C274.67,-157.08 299.96,-144.73 319.51,-135.18"/>
<polygon fill="#63b8ff" stroke="#63b8ff" points="320.88,-138.4 328.33,-130.87 317.81,-132.11 320.88,-138.4"/>
</a>
</g>
</g>
<!-- Node14 -->
<g id="Node000014" class="node">
<title>Node14</title>
<g id="a_Node000014"><a xlink:title=" ">
<polygon fill="#e0e0e0" stroke="#999999" points="667.77,-74.5 624.77,-74.5 624.77,-55.25 667.77,-55.25 667.77,-74.5"/>
<text xml:space="preserve" text-anchor="middle" x="646.27" y="-61" font-family="Helvetica,sans-Serif" font-size="10.00">mutex</text>
</a>
</g>
</g>
<!-- Node7&#45;&gt;Node14 -->
<g id="edge24_Node000007_Node000014" class="edge">
<title>Node7&#45;&gt;Node14</title>
<g id="a_edge24_Node000007_Node000014"><a xlink:title=" ">
<path fill="none" stroke="#63b8ff" d="M271.54,-166.69C307.62,-158.02 367.75,-143.36 419.27,-129.75 503.75,-107.44 527.01,-99.93 613.45,-75.29"/>
<polygon fill="#63b8ff" stroke="#63b8ff" points="614.2,-78.72 622.86,-72.62 612.29,-71.99 614.2,-78.72"/>
</a>
</g>
</g>
<!-- Node22 -->
<g id="Node000022" class="node">
<title>Node22</title>
<g id="a_Node000022"><a xlink:title=" ">
<polygon fill="#e0e0e0" stroke="#999999" points="165.64,-129.75 130.89,-129.75 130.89,-110.5 165.64,-110.5 165.64,-129.75"/>
<text xml:space="preserve" text-anchor="middle" x="148.27" y="-116.25" font-family="Helvetica,sans-Serif" font-size="10.00">map</text>
</a>
</g>
</g>
<!-- Node7&#45;&gt;Node22 -->
<g id="edge25_Node000007_Node000022" class="edge">
<title>Node7&#45;&gt;Node22</title>
<g id="a_edge25_Node000007_Node000022"><a xlink:title=" ">
<path fill="none" stroke="#63b8ff" d="M223.83,-165.34C210.11,-157.31 189.77,-145.41 173.65,-135.98"/>
<polygon fill="#63b8ff" stroke="#63b8ff" points="175.49,-133 165.09,-130.97 171.95,-139.04 175.49,-133"/>
</a>
</g>
</g>
<!-- Node23 -->
<g id="Node000023" class="node">
<title>Node23</title>
<g id="a_Node000023"><a xlink:title=" ">
<polygon fill="#e0e0e0" stroke="#999999" points="233.14,-129.75 183.39,-129.75 183.39,-110.5 233.14,-110.5 233.14,-129.75"/>
<text xml:space="preserve" text-anchor="middle" x="208.27" y="-116.25" font-family="Helvetica,sans-Serif" font-size="10.00">optional</text>
</a>
</g>
</g>
<!-- Node7&#45;&gt;Node23 -->
<g id="edge26_Node000007_Node000023" class="edge">
<title>Node7&#45;&gt;Node23</title>
<g id="a_edge26_Node000007_Node000023"><a xlink:title=" ">
<path fill="none" stroke="#63b8ff" d="M234.15,-165.58C230.09,-158.61 224.27,-148.62 219.18,-139.87"/>
<polygon fill="#63b8ff" stroke="#63b8ff" points="222.32,-138.3 214.26,-131.42 216.27,-141.82 222.32,-138.3"/>
</a>
</g>
</g>
<!-- Node10&#45;&gt;Node4 -->
<g id="edge16_Node000010_Node000004" class="edge">
<title>Node10&#45;&gt;Node4</title>
<g id="a_edge16_Node000010_Node000004"><a xlink:title=" ">
<path fill="none" stroke="#63b8ff" d="M326.8,-113.81C322.33,-112.71 317.65,-111.56 313.27,-110.5 250.03,-95.12 231.36,-92.52 165.5,-74.99"/>
<polygon fill="#63b8ff" stroke="#63b8ff" points="166.54,-71.65 155.97,-72.44 164.73,-78.41 166.54,-71.65"/>
</a>
</g>
</g>
<!-- Node10&#45;&gt;Node8 -->
<g id="edge11_Node000010_Node000008" class="edge">
<title>Node10&#45;&gt;Node8</title>
<g id="a_edge11_Node000010_Node000008"><a xlink:title=" ">
<path fill="none" stroke="#63b8ff" d="M369.63,-114.12C406.72,-105.41 483.71,-87.35 532.25,-75.97"/>
<polygon fill="#63b8ff" stroke="#63b8ff" points="532.93,-79.4 541.86,-73.71 531.33,-72.59 532.93,-79.4"/>
</a>
</g>
</g>
<!-- Node11 -->
<g id="Node000011" class="node">
<title>Node11</title>
<g id="a_Node000011"><a xlink:title=" ">
<polygon fill="#e0e0e0" stroke="#999999" points="525.27,-74.5 467.27,-74.5 467.27,-55.25 525.27,-55.25 525.27,-74.5"/>
<text xml:space="preserve" text-anchor="middle" x="496.27" y="-61" font-family="Helvetica,sans-Serif" font-size="10.00">functional</text>
</a>
</g>
</g>
<!-- Node10&#45;&gt;Node11 -->
<g id="edge12_Node000010_Node000011" class="edge">
<title>Node10&#45;&gt;Node11</title>
<g id="a_edge12_Node000010_Node000011"><a xlink:title=" ">
<path fill="none" stroke="#63b8ff" d="M369.79,-111.38C393.5,-102.85 432.02,-88.99 460.33,-78.81"/>
<polygon fill="#63b8ff" stroke="#63b8ff" points="461.35,-82.16 469.58,-75.48 458.98,-75.57 461.35,-82.16"/>
</a>
</g>
</g>
<!-- Node12 -->
<g id="Node000012" class="node">
<title>Node12</title>
<g id="a_Node000012"><a xlink:title=" ">
<polygon fill="#e0e0e0" stroke="#999999" points="379.39,-74.5 307.14,-74.5 307.14,-55.25 379.39,-55.25 379.39,-74.5"/>
<text xml:space="preserve" text-anchor="middle" x="343.27" y="-61" font-family="Helvetica,sans-Serif" font-size="10.00">initializer_list</text>
</a>
</g>
</g>
<!-- Node10&#45;&gt;Node12 -->
<g id="edge13_Node000010_Node000012" class="edge">
<title>Node10&#45;&gt;Node12</title>
<g id="a_edge13_Node000010_Node000012"><a xlink:title=" ">
<path fill="none" stroke="#63b8ff" d="M347.44,-110.33C346.83,-103.74 345.95,-94.46 345.17,-86.07"/>
<polygon fill="#63b8ff" stroke="#63b8ff" points="348.67,-86 344.25,-76.37 341.7,-86.65 348.67,-86"/>
</a>
</g>
</g>
<!-- Node13 -->
<g id="Node000013" class="node">
<title>Node13</title>
<g id="a_Node000013"><a xlink:title=" ">
<polygon fill="#e0e0e0" stroke="#999999" points="448.89,-74.5 397.64,-74.5 397.64,-55.25 448.89,-55.25 448.89,-74.5"/>
<text xml:space="preserve" text-anchor="middle" x="423.27" y="-61" font-family="Helvetica,sans-Serif" font-size="10.00">memory</text>
</a>
</g>
</g>
<!-- Node10&#45;&gt;Node13 -->
<g id="edge14_Node000010_Node000013" class="edge">
<title>Node10&#45;&gt;Node13</title>
<g id="a_edge14_Node000010_Node000013"><a xlink:title=" ">
<path fill="none" stroke="#63b8ff" d="M360.99,-110.09C371.98,-102.29 388.11,-90.84 401.2,-81.54"/>
<polygon fill="#63b8ff" stroke="#63b8ff" points="403.12,-84.47 409.25,-75.83 399.07,-78.76 403.12,-84.47"/>
</a>
</g>
</g>
<!-- Node10&#45;&gt;Node14 -->
<g id="edge15_Node000010_Node000014" class="edge">
<title>Node10&#45;&gt;Node14</title>
<g id="a_edge15_Node000010_Node000014"><a xlink:title=" ">
<path fill="none" stroke="#63b8ff" d="M369.62,-116.42C413.54,-110.68 517.32,-96.18 613.33,-74.96"/>
<polygon fill="#63b8ff" stroke="#63b8ff" points="613.92,-78.42 622.91,-72.81 612.39,-71.59 613.92,-78.42"/>
</a>
</g>
</g>
<!-- Node15 -->
<g id="Node000015" class="node">
<title>Node15</title>
<g id="a_Node000015"><a xlink:title=" ">
<polygon fill="#e0e0e0" stroke="#999999" points="215.77,-74.5 172.77,-74.5 172.77,-55.25 215.77,-55.25 215.77,-74.5"/>
<text xml:space="preserve" text-anchor="middle" x="194.27" y="-61" font-family="Helvetica,sans-Serif" font-size="10.00">vector</text>
</a>
</g>
</g>
<!-- Node10&#45;&gt;Node15 -->
<g id="edge17_Node000010_Node000015" class="edge">
<title>Node10&#45;&gt;Node15</title>
<g id="a_edge17_Node000010_Node000015"><a xlink:title=" ">
<path fill="none" stroke="#63b8ff" d="M326.86,-111.72C300.91,-102.75 256.95,-87.55 226.81,-77.13"/>
<polygon fill="#63b8ff" stroke="#63b8ff" points="228.02,-73.84 217.43,-73.88 225.73,-80.46 228.02,-73.84"/>
</a>
</g>
</g>
<!-- Node16 -->
<g id="Node000016" class="node">
<title>Node16</title>
<g id="a_Node000016"><a xlink:href="napi-inl_8h.html" target="_top" xlink:title=" ">
<polygon fill="white" stroke="#666666" points="288.77,-74.5 233.77,-74.5 233.77,-55.25 288.77,-55.25 288.77,-74.5"/>
<text xml:space="preserve" text-anchor="middle" x="261.27" y="-61" font-family="Helvetica,sans-Serif" font-size="10.00">napi&#45;inl.h</text>
</a>
</g>
</g>
<!-- Node10&#45;&gt;Node16 -->
<g id="edge18_Node000010_Node000016" class="edge">
<title>Node10&#45;&gt;Node16</title>
<g id="a_edge18_Node000010_Node000016"><a xlink:title=" ">
<path fill="none" stroke="#63b8ff" d="M333.51,-110.09C320.39,-102.06 300.95,-90.16 285.54,-80.73"/>
<polygon fill="#63b8ff" stroke="#63b8ff" points="287.75,-77.98 277.39,-75.74 284.09,-83.95 287.75,-77.98"/>
</a>
</g>
</g>
<!-- Node17 -->
<g id="Node000017" class="node">
<title>Node17</title>
<g id="a_Node000017"><a xlink:title=" ">
<polygon fill="#e0e0e0" stroke="#999999" points="148.14,-19.25 92.39,-19.25 92.39,0 148.14,0 148.14,-19.25"/>
<text xml:space="preserve" text-anchor="middle" x="120.27" y="-5.75" font-family="Helvetica,sans-Serif" font-size="10.00">algorithm</text>
</a>
</g>
</g>
<!-- Node16&#45;&gt;Node17 -->
<g id="edge19_Node000016_Node000017" class="edge">
<title>Node16&#45;&gt;Node17</title>
<g id="a_edge19_Node000016_Node000017"><a xlink:title=" ">
<path fill="none" stroke="#63b8ff" d="M237.35,-54.84C214.76,-46.31 180.63,-33.42 155.04,-23.76"/>
<polygon fill="#63b8ff" stroke="#63b8ff" points="156.31,-20.5 145.72,-20.24 153.84,-27.04 156.31,-20.5"/>
</a>
</g>
</g>
<!-- Node18 -->
<g id="Node000018" class="node">
<title>Node18</title>
<g id="a_Node000018"><a xlink:title=" ">
<polygon fill="#e0e0e0" stroke="#999999" points="211.89,-19.25 166.64,-19.25 166.64,0 211.89,0 211.89,-19.25"/>
<text xml:space="preserve" text-anchor="middle" x="189.27" y="-5.75" font-family="Helvetica,sans-Serif" font-size="10.00">cstring</text>
</a>
</g>
</g>
<!-- Node16&#45;&gt;Node18 -->
<g id="edge20_Node000016_Node000018" class="edge">
<title>Node16&#45;&gt;Node18</title>
<g id="a_edge20_Node000016_Node000018"><a xlink:title=" ">
<path fill="none" stroke="#63b8ff" d="M249.06,-54.84C238.44,-46.99 222.83,-35.45 210.23,-26.12"/>
<polygon fill="#63b8ff" stroke="#63b8ff" points="212.64,-23.56 202.52,-20.42 208.48,-29.19 212.64,-23.56"/>
</a>
</g>
</g>
<!-- Node19 -->
<g id="Node000019" class="node">
<title>Node19</title>
<g id="a_Node000019"><a xlink:title=" ">
<polygon fill="#e0e0e0" stroke="#999999" points="292.14,-19.25 230.39,-19.25 230.39,0 292.14,0 292.14,-19.25"/>
<text xml:space="preserve" text-anchor="middle" x="261.27" y="-5.75" font-family="Helvetica,sans-Serif" font-size="10.00">type_traits</text>
</a>
</g>
</g>
<!-- Node16&#45;&gt;Node19 -->
<g id="edge21_Node000016_Node000019" class="edge">
<title>Node16&#45;&gt;Node19</title>
<g id="a_edge21_Node000016_Node000019"><a xlink:title=" ">
<path fill="none" stroke="#63b8ff" d="M261.27,-55.08C261.27,-48.57 261.27,-39.42 261.27,-31.12"/>
<polygon fill="#63b8ff" stroke="#63b8ff" points="264.77,-31.12 261.27,-21.12 257.77,-31.12 264.77,-31.12"/>
</a>
</g>
</g>
<!-- Node20 -->
<g id="Node000020" class="node">
<title>Node20</title>
<g id="a_Node000020"><a xlink:title=" ">
<polygon fill="#e0e0e0" stroke="#999999" points="349.89,-19.25 310.64,-19.25 310.64,0 349.89,0 349.89,-19.25"/>
<text xml:space="preserve" text-anchor="middle" x="330.27" y="-5.75" font-family="Helvetica,sans-Serif" font-size="10.00">utility</text>
</a>
</g>
</g>
<!-- Node16&#45;&gt;Node20 -->
<g id="edge22_Node000016_Node000020" class="edge">
<title>Node16&#45;&gt;Node20</title>
<g id="a_edge22_Node000016_Node000020"><a xlink:title=" ">
<path fill="none" stroke="#63b8ff" d="M272.97,-54.84C283.05,-47.07 297.81,-35.67 309.83,-26.4"/>
<polygon fill="#63b8ff" stroke="#63b8ff" points="311.76,-29.33 317.54,-20.45 307.48,-23.79 311.76,-29.33"/>
</a>
</g>
</g>
<!-- Node21 -->
<g id="Node000021" class="node">
<title>Node21</title>
<g id="a_Node000021"><a xlink:href="napi-inl_8deprecated_8h.html" target="_top" xlink:title=" ">
<polygon fill="white" stroke="#666666" points="474.27,-19.25 368.27,-19.25 368.27,0 474.27,0 474.27,-19.25"/>
<text xml:space="preserve" text-anchor="middle" x="421.27" y="-5.75" font-family="Helvetica,sans-Serif" font-size="10.00">napi&#45;inl.deprecated.h</text>
</a>
</g>
</g>
<!-- Node16&#45;&gt;Node21 -->
<g id="edge23_Node000016_Node000021" class="edge">
<title>Node16&#45;&gt;Node21</title>
<g id="a_edge23_Node000016_Node000021"><a xlink:title=" ">
<path fill="none" stroke="#63b8ff" d="M288.41,-54.84C314.5,-46.16 354.16,-32.96 383.37,-23.24"/>
<polygon fill="#63b8ff" stroke="#63b8ff" points="384.18,-26.66 392.56,-20.18 381.96,-20.02 384.18,-26.66"/>
</a>
</g>
</g>
<!-- Node24&#45;&gt;Node7 -->
<g id="edge28_Node000024_Node000007" class="edge">
<title>Node24&#45;&gt;Node7</title>
<g id="a_edge28_Node000024_Node000007"><a xlink:title=" ">
<path fill="none" stroke="#63b8ff" d="M539.54,-333.17C482.02,-321.43 372.4,-293.59 294.27,-240.25 276.37,-228.03 260.78,-208.58 250.81,-194.35"/>
<polygon fill="#63b8ff" stroke="#63b8ff" points="253.92,-192.7 245.44,-186.34 248.11,-196.6 253.92,-192.7"/>
</a>
</g>
</g>
<!-- Node24&#45;&gt;Node25 -->
<g id="edge29_Node000024_Node000025" class="edge">
<title>Node24&#45;&gt;Node25</title>
<g id="a_edge29_Node000024_Node000025"><a xlink:title=" ">
<path fill="none" stroke="#63b8ff" d="M584.05,-331.33C588.68,-324.28 595.34,-314.15 601.14,-305.33"/>
<polygon fill="#63b8ff" stroke="#63b8ff" points="603.97,-307.4 606.53,-297.12 598.12,-303.56 603.97,-307.4"/>
</a>
</g>
</g>
<!-- Node31 -->
<g id="Node000031" class="node">
<title>Node31</title>
<g id="a_Node000031"><a xlink:title=" ">
<polygon fill="#e0e0e0" stroke="#999999" points="508.77,-185 465.77,-185 465.77,-165.75 508.77,-165.75 508.77,-185"/>
<text xml:space="preserve" text-anchor="middle" x="487.27" y="-171.5" font-family="Helvetica,sans-Serif" font-size="10.00">thread</text>
</a>
</g>
</g>
<!-- Node24&#45;&gt;Node31 -->
<g id="edge52_Node000024_Node000031" class="edge">
<title>Node24&#45;&gt;Node31</title>
<g id="a_edge52_Node000024_Node000031"><a xlink:title=" ">
<path fill="none" stroke="#63b8ff" d="M560.6,-331.09C533.86,-316.3 484.15,-284.11 464.27,-240.25 457.43,-225.17 465.02,-207.41 473.26,-194.45"/>
<polygon fill="#63b8ff" stroke="#63b8ff" points="475.99,-196.66 478.88,-186.47 470.27,-192.63 475.99,-196.66"/>
</a>
</g>
</g>
<!-- Node33 -->
<g id="Node000033" class="node">
<title>Node33</title>
<g id="a_Node000033"><a xlink:href="_signal_8hh.html" target="_top" xlink:title=" ">
<polygon fill="white" stroke="#666666" points="727.52,-185 671.02,-185 671.02,-165.75 727.52,-165.75 727.52,-185"/>
<text xml:space="preserve" text-anchor="middle" x="699.27" y="-171.5" font-family="Helvetica,sans-Serif" font-size="10.00">Signal.hh</text>
</a>
</g>
</g>
<!-- Node24&#45;&gt;Node33 -->
<g id="edge51_Node000024_Node000033" class="edge">
<title>Node24&#45;&gt;Node33</title>
<g id="a_edge51_Node000024_Node000033"><a xlink:title=" ">
<path fill="none" stroke="#63b8ff" d="M599.84,-331.04C629.99,-316.88 682.88,-286.32 699.27,-240.25 704.23,-226.3 704.02,-209.53 702.68,-196.67"/>
<polygon fill="#63b8ff" stroke="#63b8ff" points="706.16,-196.3 701.32,-186.87 699.23,-197.26 706.16,-196.3"/>
</a>
</g>
</g>
<!-- Node25&#45;&gt;Node6 -->
<g id="edge31_Node000025_Node000006" class="edge">
<title>Node25&#45;&gt;Node6</title>
<g id="a_edge31_Node000025_Node000006"><a xlink:title=" ">
<path fill="none" stroke="#63b8ff" d="M645.82,-281.5C697.88,-275.54 796.84,-261.7 824.27,-240.25 838.23,-229.33 846.28,-210.54 850.67,-196.15"/>
<polygon fill="#63b8ff" stroke="#63b8ff" points="853.96,-197.4 853.14,-186.84 847.19,-195.6 853.96,-197.4"/>
</a>
</g>
</g>
<!-- Node25&#45;&gt;Node7 -->
<g id="edge37_Node000025_Node000007" class="edge">
<title>Node25&#45;&gt;Node7</title>
<g id="a_edge37_Node000025_Node000007"><a xlink:title=" ">
<path fill="none" stroke="#63b8ff" d="M580.71,-284.17C527.39,-282.05 418.93,-273.6 334.27,-240.25 305.14,-228.77 275.88,-207.23 257.69,-192.36"/>
<polygon fill="#63b8ff" stroke="#63b8ff" points="260.32,-189.99 250.4,-186.25 255.82,-195.36 260.32,-189.99"/>
</a>
</g>
</g>
<!-- Node25&#45;&gt;Node8 -->
<g id="edge33_Node000025_Node000008" class="edge">
<title>Node25&#45;&gt;Node8</title>
<g id="a_edge33_Node000025_Node000008"><a xlink:title=" ">
<path fill="none" stroke="#63b8ff" d="M611.73,-276.02C606.12,-243.69 586.66,-131.53 578.7,-85.66"/>
<polygon fill="#63b8ff" stroke="#63b8ff" points="582.2,-85.35 577.04,-76.09 575.3,-86.54 582.2,-85.35"/>
</a>
</g>
</g>
<!-- Node26 -->
<g id="Node000026" class="node">
<title>Node26</title>
<g id="a_Node000026"><a xlink:title=" ">
<polygon fill="#e0e0e0" stroke="#999999" points="735.27,-129.75 641.27,-129.75 641.27,-110.5 735.27,-110.5 735.27,-129.75"/>
<text xml:space="preserve" text-anchor="middle" x="688.27" y="-116.25" font-family="Helvetica,sans-Serif" font-size="10.00">condition_variable</text>
</a>
</g>
</g>
<!-- Node25&#45;&gt;Node26 -->
<g id="edge30_Node000025_Node000026" class="edge">
<title>Node25&#45;&gt;Node26</title>
<g id="a_edge30_Node000025_Node000026"><a xlink:title=" ">
<path fill="none" stroke="#63b8ff" d="M615.29,-276C618.27,-263.47 624.38,-240.02 632.27,-221 642.98,-195.19 648.57,-190.1 662.27,-165.75 667.11,-157.15 672.59,-147.71 677.26,-139.73"/>
<polygon fill="#63b8ff" stroke="#63b8ff" points="680.18,-141.67 682.24,-131.27 674.15,-138.11 680.18,-141.67"/>
</a>
</g>
</g>
<!-- Node27 -->
<g id="Node000027" class="node">
<title>Node27</title>
<g id="a_Node000027"><a xlink:title=" ">
<polygon fill="#e0e0e0" stroke="#999999" points="671.02,-240.25 641.52,-240.25 641.52,-221 671.02,-221 671.02,-240.25"/>
<text xml:space="preserve" text-anchor="middle" x="656.27" y="-226.75" font-family="Helvetica,sans-Serif" font-size="10.00">set</text>
</a>
</g>
</g>
<!-- Node25&#45;&gt;Node27 -->
<g id="edge32_Node000025_Node000027" class="edge">
<title>Node25&#45;&gt;Node27</title>
<g id="a_edge32_Node000025_Node000027"><a xlink:title=" ">
<path fill="none" stroke="#63b8ff" d="M620.37,-276.08C626.19,-268.88 634.6,-258.46 641.83,-249.51"/>
<polygon fill="#63b8ff" stroke="#63b8ff" points="644.5,-251.77 648.06,-241.79 639.06,-247.37 644.5,-251.77"/>
</a>
</g>
</g>
<!-- Node28 -->
<g id="Node000028" class="node">
<title>Node28</title>
<g id="a_Node000028"><a xlink:href="_glob_8hh.html" target="_top" xlink:title=" ">
<polygon fill="white" stroke="#666666" points="815.14,-240.25 765.39,-240.25 765.39,-221 815.14,-221 815.14,-240.25"/>
<text xml:space="preserve" text-anchor="middle" x="790.27" y="-226.75" font-family="Helvetica,sans-Serif" font-size="10.00">Glob.hh</text>
</a>
</g>
</g>
<!-- Node25&#45;&gt;Node28 -->
<g id="edge34_Node000025_Node000028" class="edge">
<title>Node25&#45;&gt;Node28</title>
<g id="a_edge34_Node000025_Node000028"><a xlink:title=" ">
<path fill="none" stroke="#63b8ff" d="M643.3,-275.84C673.91,-266.63 721.42,-252.34 754.09,-242.51"/>
<polygon fill="#63b8ff" stroke="#63b8ff" points="754.96,-245.9 763.53,-239.67 752.94,-239.2 754.96,-245.9"/>
</a>
</g>
</g>
<!-- Node30 -->
<g id="Node000030" class="node">
<title>Node30</title>
<g id="a_Node000030"><a xlink:href="_debounce_8hh.html" target="_top" xlink:title=" ">
<polygon fill="white" stroke="#666666" points="547.14,-240.25 473.39,-240.25 473.39,-221 547.14,-221 547.14,-240.25"/>
<text xml:space="preserve" text-anchor="middle" x="510.27" y="-226.75" font-family="Helvetica,sans-Serif" font-size="10.00">Debounce.hh</text>
</a>
</g>
</g>
<!-- Node25&#45;&gt;Node30 -->
<g id="edge38_Node000025_Node000030" class="edge">
<title>Node25&#45;&gt;Node30</title>
<g id="a_edge38_Node000025_Node000030"><a xlink:title=" ">
<path fill="none" stroke="#63b8ff" d="M595.8,-275.84C579.96,-267.66 556.36,-255.46 537.96,-245.94"/>
<polygon fill="#63b8ff" stroke="#63b8ff" points="539.66,-242.88 529.17,-241.4 536.45,-249.1 539.66,-242.88"/>
</a>
</g>
</g>
<!-- Node25&#45;&gt;Node33 -->
<g id="edge50_Node000025_Node000033" class="edge">
<title>Node25&#45;&gt;Node33</title>
<g id="a_edge50_Node000025_Node000033"><a xlink:title=" ">
<path fill="none" stroke="#63b8ff" d="M633.97,-275.86C648.88,-268.37 668.4,-256.33 680.27,-240.25 689.65,-227.56 694.42,-210.25 696.84,-196.86"/>
<polygon fill="#63b8ff" stroke="#63b8ff" points="700.3,-197.39 698.29,-186.99 693.38,-196.38 700.3,-197.39"/>
</a>
</g>
</g>
<!-- Node34 -->
<g id="Node000034" class="node">
<title>Node34</title>
<g id="a_Node000034"><a xlink:href="_dir_tree_8hh.html" target="_top" xlink:title=" ">
<polygon fill="white" stroke="#666666" points="405.14,-240.25 343.39,-240.25 343.39,-221 405.14,-221 405.14,-240.25"/>
<text xml:space="preserve" text-anchor="middle" x="374.27" y="-226.75" font-family="Helvetica,sans-Serif" font-size="10.00">DirTree.hh</text>
</a>
</g>
</g>
<!-- Node25&#45;&gt;Node34 -->
<g id="edge45_Node000025_Node000034" class="edge">
<title>Node25&#45;&gt;Node34</title>
<g id="a_edge45_Node000025_Node000034"><a xlink:title=" ">
<path fill="none" stroke="#63b8ff" d="M580.54,-277.58C537.9,-268.08 463.29,-251.46 416.45,-241.02"/>
<polygon fill="#63b8ff" stroke="#63b8ff" points="417.47,-237.66 406.94,-238.91 415.94,-244.5 417.47,-237.66"/>
</a>
</g>
</g>
<!-- Node28&#45;&gt;Node6 -->
<g id="edge35_Node000028_Node000006" class="edge">
<title>Node28&#45;&gt;Node6</title>
<g id="a_edge35_Node000028_Node000006"><a xlink:title=" ">
<path fill="none" stroke="#63b8ff" d="M801.3,-220.59C810.69,-212.9 824.42,-201.65 835.68,-192.43"/>
<polygon fill="#63b8ff" stroke="#63b8ff" points="837.72,-195.28 843.24,-186.23 833.28,-189.86 837.72,-195.28"/>
</a>
</g>
</g>
<!-- Node29 -->
<g id="Node000029" class="node">
<title>Node29</title>
<g id="a_Node000029"><a xlink:title=" ">
<polygon fill="#e0e0e0" stroke="#999999" points="798.27,-185 758.27,-185 758.27,-165.75 798.27,-165.75 798.27,-185"/>
<text xml:space="preserve" text-anchor="middle" x="778.27" y="-171.5" font-family="Helvetica,sans-Serif" font-size="10.00">regex</text>
</a>
</g>
</g>
<!-- Node28&#45;&gt;Node29 -->
<g id="edge36_Node000028_Node000029" class="edge">
<title>Node28&#45;&gt;Node29</title>
<g id="a_edge36_Node000028_Node000029"><a xlink:title=" ">
<path fill="none" stroke="#63b8ff" d="M788.29,-220.83C786.8,-214.24 784.71,-204.96 782.82,-196.57"/>
<polygon fill="#63b8ff" stroke="#63b8ff" points="786.24,-195.82 780.63,-186.84 779.41,-197.36 786.24,-195.82"/>
</a>
</g>
</g>
<!-- Node30&#45;&gt;Node11 -->
<g id="edge41_Node000030_Node000011" class="edge">
<title>Node30&#45;&gt;Node11</title>
<g id="a_edge41_Node000030_Node000011"><a xlink:title=" ">
<path fill="none" stroke="#63b8ff" d="M512.33,-220.8C514.31,-211.84 517.15,-197.54 518.27,-185 521.41,-149.66 510.86,-109.17 503.3,-85.66"/>
<polygon fill="#63b8ff" stroke="#63b8ff" points="506.61,-84.55 500.09,-76.2 499.98,-86.79 506.61,-84.55"/>
</a>
</g>
</g>
<!-- Node30&#45;&gt;Node31 -->
<g id="edge39_Node000030_Node000031" class="edge">
<title>Node30&#45;&gt;Node31</title>
<g id="a_edge39_Node000030_Node000031"><a xlink:title=" ">
<path fill="none" stroke="#63b8ff" d="M506.47,-220.83C503.53,-214.01 499.33,-204.31 495.62,-195.7"/>
<polygon fill="#63b8ff" stroke="#63b8ff" points="498.93,-194.54 491.75,-186.75 492.5,-197.32 498.93,-194.54"/>
</a>
</g>
</g>
<!-- Node32 -->
<g id="Node000032" class="node">
<title>Node32</title>
<g id="a_Node000032"><a xlink:title=" ">
<polygon fill="#e0e0e0" stroke="#999999" points="447.64,-185 364.89,-185 364.89,-165.75 447.64,-165.75 447.64,-185"/>
<text xml:space="preserve" text-anchor="middle" x="406.27" y="-171.5" font-family="Helvetica,sans-Serif" font-size="10.00">unordered_map</text>
</a>
</g>
</g>
<!-- Node30&#45;&gt;Node32 -->
<g id="edge40_Node000030_Node000032" class="edge">
<title>Node30&#45;&gt;Node32</title>
<g id="a_edge40_Node000030_Node000032"><a xlink:title=" ">
<path fill="none" stroke="#63b8ff" d="M492.63,-220.59C476.64,-212.41 452.81,-200.21 434.23,-190.69"/>
<polygon fill="#63b8ff" stroke="#63b8ff" points="435.84,-187.58 425.35,-186.14 432.65,-193.82 435.84,-187.58"/>
</a>
</g>
</g>
<!-- Node30&#45;&gt;Node33 -->
<g id="edge42_Node000030_Node000033" class="edge">
<title>Node30&#45;&gt;Node33</title>
<g id="a_edge42_Node000030_Node000033"><a xlink:title=" ">
<path fill="none" stroke="#63b8ff" d="M542.33,-220.59C574.83,-211.43 625.17,-197.25 660.03,-187.43"/>
<polygon fill="#63b8ff" stroke="#63b8ff" points="660.63,-190.9 669.31,-184.82 658.74,-184.16 660.63,-190.9"/>
</a>
</g>
</g>
<!-- Node33&#45;&gt;Node14 -->
<g id="edge43_Node000033_Node000014" class="edge">
<title>Node33&#45;&gt;Node14</title>
<g id="a_edge43_Node000033_Node000014"><a xlink:title=" ">
<path fill="none" stroke="#63b8ff" d="M713.49,-165.44C731.07,-153.24 757.19,-130.58 744.27,-110.5 729.97,-88.28 701.58,-76.99 679.02,-71.34"/>
<polygon fill="#63b8ff" stroke="#63b8ff" points="679.86,-67.94 669.34,-69.19 678.35,-74.77 679.86,-67.94"/>
</a>
</g>
</g>
<!-- Node33&#45;&gt;Node26 -->
<g id="edge44_Node000033_Node000026" class="edge">
<title>Node33&#45;&gt;Node26</title>
<g id="a_edge44_Node000033_Node000026"><a xlink:title=" ">
<path fill="none" stroke="#63b8ff" d="M697.45,-165.58C696.09,-158.99 694.17,-149.71 692.44,-141.32"/>
<polygon fill="#63b8ff" stroke="#63b8ff" points="695.88,-140.68 690.43,-131.59 689.03,-142.09 695.88,-140.68"/>
</a>
</g>
</g>
<!-- Node34&#45;&gt;Node4 -->
<g id="edge46_Node000034_Node000004" class="edge">
<title>Node34&#45;&gt;Node4</title>
<g id="a_edge46_Node000034_Node000004"><a xlink:title=" ">
<path fill="none" stroke="#63b8ff" d="M368.06,-220.81C352.31,-199.06 308.55,-142.29 259.27,-110.5 243.49,-100.32 197.14,-85.01 165.53,-75.24"/>
<polygon fill="#63b8ff" stroke="#63b8ff" points="166.68,-71.93 156.09,-72.35 164.63,-78.62 166.68,-71.93"/>
</a>
</g>
</g>
<!-- Node34&#45;&gt;Node7 -->
<g id="edge49_Node000034_Node000007" class="edge">
<title>Node34&#45;&gt;Node7</title>
<g id="a_edge49_Node000034_Node000007"><a xlink:title=" ">
<path fill="none" stroke="#63b8ff" d="M351.37,-220.59C329.84,-212.1 297.36,-199.29 272.89,-189.64"/>
<polygon fill="#63b8ff" stroke="#63b8ff" points="274.28,-186.42 263.69,-186.01 271.71,-192.93 274.28,-186.42"/>
</a>
</g>
</g>
<!-- Node34&#45;&gt;Node13 -->
<g id="edge48_Node000034_Node000013" class="edge">
<title>Node34&#45;&gt;Node13</title>
<g id="a_edge48_Node000034_Node000013"><a xlink:title=" ">
<path fill="none" stroke="#63b8ff" d="M368.61,-220.91C361.33,-208.59 350.3,-185.37 356.27,-165.75 359.02,-156.71 391.37,-110.54 410.09,-84.25"/>
<polygon fill="#63b8ff" stroke="#63b8ff" points="412.88,-86.37 415.84,-76.2 407.18,-82.3 412.88,-86.37"/>
</a>
</g>
</g>
<!-- Node34&#45;&gt;Node32 -->
<g id="edge47_Node000034_Node000032" class="edge">
<title>Node34&#45;&gt;Node32</title>
<g id="a_edge47_Node000034_Node000032"><a xlink:title=" ">
<path fill="none" stroke="#63b8ff" d="M379.55,-220.83C383.74,-213.86 389.75,-203.87 395,-195.12"/>
<polygon fill="#63b8ff" stroke="#63b8ff" points="397.94,-197.03 400.09,-186.66 391.94,-193.43 397.94,-197.03"/>
</a>
</g>
</g>
<!-- Node35&#45;&gt;Node2 -->
<g id="edge54_Node000035_Node000002" class="edge">
<title>Node35&#45;&gt;Node2</title>
<g id="a_edge54_Node000035_Node000002"><a xlink:title=" ">
<path fill="none" stroke="#63b8ff" d="M510.19,-386.34C497.79,-378.39 479.48,-366.64 464.84,-357.25"/>
<polygon fill="#63b8ff" stroke="#63b8ff" points="467,-354.47 456.69,-352.02 463.22,-360.37 467,-354.47"/>
</a>
</g>
</g>
<!-- Node35&#45;&gt;Node24 -->
<g id="edge55_Node000035_Node000024" class="edge">
<title>Node35&#45;&gt;Node24</title>
<g id="a_edge55_Node000035_Node000024"><a xlink:title=" ">
<path fill="none" stroke="#63b8ff" d="M533.19,-386.58C540.72,-379.15 551.74,-368.29 560.99,-359.16"/>
<polygon fill="#63b8ff" stroke="#63b8ff" points="563.42,-361.69 568.08,-352.17 558.5,-356.7 563.42,-361.69"/>
</a>
</g>
</g>
</g>
</svg>
