<?xml version="1.0" encoding="UTF-8" standalone="no"?>
<!DOCTYPE svg PUBLIC "-//W3C//DTD SVG 1.1//EN"
 "http://www.w3.org/Graphics/SVG/1.1/DTD/svg11.dtd">
<!-- Generated by graphviz version 14.0.4 (20251115.1723)
 -->
<!-- Title: frontend/node_modules/@parcel/watcher/src/Glob.hh Pages: 1 -->
<svg width="1562pt" height="439pt"
 viewBox="0.00 0.00 1562.00 439.00" xmlns="http://www.w3.org/2000/svg" xmlns:xlink="http://www.w3.org/1999/xlink">
<g id="graph0" class="graph" transform="scale(1 1) rotate(0) translate(4 434.5)">
<title>frontend/node_modules/@parcel/watcher/src/Glob.hh</title>
<!-- Node1 -->
<g id="Node000001" class="node">
<title>Node1</title>
<g id="a_Node000001"><a xlink:title=" ">
<polygon fill="#999999" stroke="#666666" points="685.88,-430.5 568.62,-430.5 568.62,-388.75 685.88,-388.75 685.88,-430.5"/>
<text xml:space="preserve" text-anchor="start" x="576.62" y="-417" font-family="Helvetica,sans-Serif" font-size="10.00">frontend/node_modules</text>
<text xml:space="preserve" text-anchor="start" x="576.62" y="-405.75" font-family="Helvetica,sans-Serif" font-size="10.00">/@parcel/watcher/src</text>
<text xml:space="preserve" text-anchor="middle" x="627.25" y="-394.5" font-family="Helvetica,sans-Serif" font-size="10.00">/Glob.hh</text>
</a>
</g>
</g>
<!-- Node2 -->
<g id="Node000002" class="node">
<title>Node2</title>
<g id="a_Node000002"><a xlink:href="_glob_8cc.html" target="_top" xlink:title=" ">
<polygon fill="white" stroke="#666666" points="550.88,-352.75 433.62,-352.75 433.62,-311 550.88,-311 550.88,-352.75"/>
<text xml:space="preserve" text-anchor="start" x="441.62" y="-339.25" font-family="Helvetica,sans-Serif" font-size="10.00">frontend/node_modules</text>
<text xml:space="preserve" text-anchor="start" x="441.62" y="-328" font-family="Helvetica,sans-Serif" font-size="10.00">/@parcel/watcher/src</text>
<text xml:space="preserve" text-anchor="middle" x="492.25" y="-316.75" font-family="Helvetica,sans-Serif" font-size="10.00">/Glob.cc</text>
</a>
</g>
</g>
<!-- Node1&#45;&gt;Node2 -->
<g id="edge1_Node000001_Node000002" class="edge">
<title>Node1&#45;&gt;Node2</title>
<g id="a_edge1_Node000001_Node000002"><a xlink:title=" ">
<path fill="none" stroke="#63b8ff" d="M581.22,-382.8C564.02,-373.14 544.73,-362.32 528.53,-353.23"/>
<polygon fill="#63b8ff" stroke="#63b8ff" points="579.32,-385.74 589.75,-387.58 582.74,-379.64 579.32,-385.74"/>
</a>
</g>
</g>
<!-- Node3 -->
<g id="Node000003" class="node">
<title>Node3</title>
<g id="a_Node000003"><a xlink:href="_watcher_8hh.html" target="_top" xlink:title=" ">
<polygon fill="white" stroke="#666666" points="685.88,-352.75 568.62,-352.75 568.62,-311 685.88,-311 685.88,-352.75"/>
<text xml:space="preserve" text-anchor="start" x="576.62" y="-339.25" font-family="Helvetica,sans-Serif" font-size="10.00">frontend/node_modules</text>
<text xml:space="preserve" text-anchor="start" x="576.62" y="-328" font-family="Helvetica,sans-Serif" font-size="10.00">/@parcel/watcher/src</text>
<text xml:space="preserve" text-anchor="middle" x="627.25" y="-316.75" font-family="Helvetica,sans-Serif" font-size="10.00">/Watcher.hh</text>
</a>
</g>
</g>
<!-- Node1&#45;&gt;Node3 -->
<g id="edge2_Node000001_Node000003" class="edge">
<title>Node1&#45;&gt;Node3</title>
<g id="a_edge2_Node000001_Node000003"><a xlink:title=" ">
<path fill="none" stroke="#63b8ff" d="M627.25,-377C627.25,-368.96 627.25,-360.54 627.25,-353.23"/>
<polygon fill="#63b8ff" stroke="#63b8ff" points="623.75,-376.81 627.25,-386.81 630.75,-376.81 623.75,-376.81"/>
</a>
</g>
</g>
<!-- Node6 -->
<g id="Node000006" class="node">
<title>Node6</title>
<g id="a_Node000006"><a xlink:href="binding_8cc.html" target="_top" xlink:title=" ">
<polygon fill="white" stroke="#666666" points="890.88,-197.25 773.62,-197.25 773.62,-155.5 890.88,-155.5 890.88,-197.25"/>
<text xml:space="preserve" text-anchor="start" x="781.62" y="-183.75" font-family="Helvetica,sans-Serif" font-size="10.00">frontend/node_modules</text>
<text xml:space="preserve" text-anchor="start" x="781.62" y="-172.5" font-family="Helvetica,sans-Serif" font-size="10.00">/@parcel/watcher/src</text>
<text xml:space="preserve" text-anchor="middle" x="832.25" y="-161.25" font-family="Helvetica,sans-Serif" font-size="10.00">/binding.cc</text>
</a>
</g>
</g>
<!-- Node1&#45;&gt;Node6 -->
<g id="edge29_Node000001_Node000006" class="edge">
<title>Node1&#45;&gt;Node6</title>
<g id="a_edge29_Node000001_Node000006"><a xlink:title=" ">
<path fill="none" stroke="#63b8ff" d="M663.34,-381.43C674.04,-372.73 685.5,-362.75 695.25,-352.75 745.57,-301.17 795.28,-231.67 818.57,-197.73"/>
<polygon fill="#63b8ff" stroke="#63b8ff" points="661.4,-378.5 655.76,-387.47 665.76,-383.97 661.4,-378.5"/>
</a>
</g>
</g>
<!-- Node4 -->
<g id="Node000004" class="node">
<title>Node4</title>
<g id="a_Node000004"><a xlink:href="_backend_8hh.html" target="_top" xlink:title=" ">
<polygon fill="white" stroke="#666666" points="638.88,-275 521.62,-275 521.62,-233.25 638.88,-233.25 638.88,-275"/>
<text xml:space="preserve" text-anchor="start" x="529.62" y="-261.5" font-family="Helvetica,sans-Serif" font-size="10.00">frontend/node_modules</text>
<text xml:space="preserve" text-anchor="start" x="529.62" y="-250.25" font-family="Helvetica,sans-Serif" font-size="10.00">/@parcel/watcher/src</text>
<text xml:space="preserve" text-anchor="middle" x="580.25" y="-239" font-family="Helvetica,sans-Serif" font-size="10.00">/Backend.hh</text>
</a>
</g>
</g>
<!-- Node3&#45;&gt;Node4 -->
<g id="edge3_Node000003_Node000004" class="edge">
<title>Node3&#45;&gt;Node4</title>
<g id="a_edge3_Node000003_Node000004"><a xlink:title=" ">
<path fill="none" stroke="#63b8ff" d="M608.67,-300.93C603.37,-292.39 597.73,-283.3 592.88,-275.48"/>
<polygon fill="#63b8ff" stroke="#63b8ff" points="605.61,-302.64 613.86,-309.29 611.56,-298.95 605.61,-302.64"/>
</a>
</g>
</g>
<!-- Node3&#45;&gt;Node6 -->
<g id="edge26_Node000003_Node000006" class="edge">
<title>Node3&#45;&gt;Node6</title>
<g id="a_edge26_Node000003_Node000006"><a xlink:title=" ">
<path fill="none" stroke="#63b8ff" d="M663.04,-304.08C703.54,-273.75 768.59,-225.04 805.12,-197.69"/>
<polygon fill="#63b8ff" stroke="#63b8ff" points="661.17,-301.1 655.26,-309.9 665.36,-306.71 661.17,-301.1"/>
</a>
</g>
</g>
<!-- Node7 -->
<g id="Node000007" class="node">
<title>Node7</title>
<g id="a_Node000007"><a xlink:href="_f_s_events_backend_8cc.html" target="_top" xlink:title=" ">
<polygon fill="white" stroke="#666666" points="146.5,-119.5 0,-119.5 0,-77.75 146.5,-77.75 146.5,-119.5"/>
<text xml:space="preserve" text-anchor="start" x="8" y="-106" font-family="Helvetica,sans-Serif" font-size="10.00">frontend/node_modules</text>
<text xml:space="preserve" text-anchor="start" x="8" y="-94.75" font-family="Helvetica,sans-Serif" font-size="10.00">/@parcel/watcher/src</text>
<text xml:space="preserve" text-anchor="middle" x="73.25" y="-83.5" font-family="Helvetica,sans-Serif" font-size="10.00">/macos/FSEventsBackend.cc</text>
</a>
</g>
</g>
<!-- Node3&#45;&gt;Node7 -->
<g id="edge27_Node000003_Node000007" class="edge">
<title>Node3&#45;&gt;Node7</title>
<g id="a_edge27_Node000003_Node000007"><a xlink:title=" ">
<path fill="none" stroke="#63b8ff" d="M557.11,-310.36C374.65,-267.49 303.37,-303.22 152.25,-197.25 122.62,-176.47 98.2,-141.59 84.69,-119.63"/>
<polygon fill="#63b8ff" stroke="#63b8ff" points="556.13,-313.72 566.67,-312.66 557.77,-306.92 556.13,-313.72"/>
</a>
</g>
</g>
<!-- Node9 -->
<g id="Node000009" class="node">
<title>Node9</title>
<g id="a_Node000009"><a xlink:href="_brute_force_backend_8hh.html" target="_top" xlink:title=" ">
<polygon fill="white" stroke="#666666" points="755.75,-197.25 604.75,-197.25 604.75,-155.5 755.75,-155.5 755.75,-197.25"/>
<text xml:space="preserve" text-anchor="start" x="612.75" y="-183.75" font-family="Helvetica,sans-Serif" font-size="10.00">frontend/node_modules</text>
<text xml:space="preserve" text-anchor="start" x="612.75" y="-172.5" font-family="Helvetica,sans-Serif" font-size="10.00">/@parcel/watcher/src</text>
<text xml:space="preserve" text-anchor="middle" x="680.25" y="-161.25" font-family="Helvetica,sans-Serif" font-size="10.00">/shared/BruteForceBackend.hh</text>
</a>
</g>
</g>
<!-- Node3&#45;&gt;Node9 -->
<g id="edge28_Node000003_Node000009" class="edge">
<title>Node3&#45;&gt;Node9</title>
<g id="a_edge28_Node000003_Node000009"><a xlink:title=" ">
<path fill="none" stroke="#63b8ff" d="M639.13,-299.98C642.17,-291.88 645.39,-283.13 648.25,-275 657.6,-248.41 667.6,-217.46 673.88,-197.65"/>
<polygon fill="#63b8ff" stroke="#63b8ff" points="635.94,-298.51 635.68,-309.1 642.49,-300.99 635.94,-298.51"/>
</a>
</g>
</g>
<!-- Node23 -->
<g id="Node000023" class="node">
<title>Node23</title>
<g id="a_Node000023"><a xlink:href="_watcher_8cc.html" target="_top" xlink:title=" ">
<polygon fill="white" stroke="#666666" points="503.88,-275 386.62,-275 386.62,-233.25 503.88,-233.25 503.88,-275"/>
<text xml:space="preserve" text-anchor="start" x="394.62" y="-261.5" font-family="Helvetica,sans-Serif" font-size="10.00">frontend/node_modules</text>
<text xml:space="preserve" text-anchor="start" x="394.62" y="-250.25" font-family="Helvetica,sans-Serif" font-size="10.00">/@parcel/watcher/src</text>
<text xml:space="preserve" text-anchor="middle" x="445.25" y="-239" font-family="Helvetica,sans-Serif" font-size="10.00">/Watcher.cc</text>
</a>
</g>
</g>
<!-- Node3&#45;&gt;Node23 -->
<g id="edge25_Node000003_Node000023" class="edge">
<title>Node3&#45;&gt;Node23</title>
<g id="a_edge25_Node000003_Node000023"><a xlink:title=" ">
<path fill="none" stroke="#63b8ff" d="M568.11,-306.26C544.19,-296.31 516.92,-284.96 494.16,-275.48"/>
<polygon fill="#63b8ff" stroke="#63b8ff" points="566.5,-309.38 577.08,-309.99 569.19,-302.92 566.5,-309.38"/>
</a>
</g>
</g>
<!-- Node5 -->
<g id="Node000005" class="node">
<title>Node5</title>
<g id="a_Node000005"><a xlink:href="_backend_8cc.html" target="_top" xlink:title=" ">
<polygon fill="white" stroke="#666666" points="464.88,-119.5 347.62,-119.5 347.62,-77.75 464.88,-77.75 464.88,-119.5"/>
<text xml:space="preserve" text-anchor="start" x="355.62" y="-106" font-family="Helvetica,sans-Serif" font-size="10.00">frontend/node_modules</text>
<text xml:space="preserve" text-anchor="start" x="355.62" y="-94.75" font-family="Helvetica,sans-Serif" font-size="10.00">/@parcel/watcher/src</text>
<text xml:space="preserve" text-anchor="middle" x="406.25" y="-83.5" font-family="Helvetica,sans-Serif" font-size="10.00">/Backend.cc</text>
</a>
</g>
</g>
<!-- Node4&#45;&gt;Node5 -->
<g id="edge4_Node000004_Node000005" class="edge">
<title>Node4&#45;&gt;Node5</title>
<g id="a_edge4_Node000004_Node000005"><a xlink:title=" ">
<path fill="none" stroke="#63b8ff" d="M578.78,-221.72C576.21,-200.63 569.66,-173.52 553.25,-155.5 546.79,-148.41 503.15,-132.27 465.07,-119.15"/>
<polygon fill="#63b8ff" stroke="#63b8ff" points="575.28,-221.89 579.7,-231.51 582.24,-221.23 575.28,-221.89"/>
</a>
</g>
</g>
<!-- Node4&#45;&gt;Node6 -->
<g id="edge5_Node000004_Node000006" class="edge">
<title>Node4&#45;&gt;Node6</title>
<g id="a_edge5_Node000004_Node000006"><a xlink:title=" ">
<path fill="none" stroke="#63b8ff" d="M650.03,-232.15C688.86,-220.48 736.64,-206.11 773.54,-195.02"/>
<polygon fill="#63b8ff" stroke="#63b8ff" points="649.35,-228.7 640.78,-234.93 651.37,-235.4 649.35,-228.7"/>
</a>
</g>
</g>
<!-- Node4&#45;&gt;Node7 -->
<g id="edge6_Node000004_Node000007" class="edge">
<title>Node4&#45;&gt;Node7</title>
<g id="a_edge6_Node000004_Node000007"><a xlink:title=" ">
<path fill="none" stroke="#63b8ff" d="M510.51,-232.66C447.28,-216.86 425.35,-224.77 369.25,-197.25 342.33,-184.04 343.33,-168.37 316.25,-155.5 250.02,-124.03 226.66,-136.14 155.25,-119.5 152.54,-118.87 149.78,-118.22 146.99,-117.56"/>
<polygon fill="#63b8ff" stroke="#63b8ff" points="509.44,-236 520,-235.15 511.21,-229.23 509.44,-236"/>
</a>
</g>
</g>
<!-- Node8 -->
<g id="Node000008" class="node">
<title>Node8</title>
<g id="a_Node000008"><a xlink:href="_f_s_events_backend_8hh.html" target="_top" xlink:title=" ">
<polygon fill="white" stroke="#666666" points="307.5,-197.25 161,-197.25 161,-155.5 307.5,-155.5 307.5,-197.25"/>
<text xml:space="preserve" text-anchor="start" x="169" y="-183.75" font-family="Helvetica,sans-Serif" font-size="10.00">frontend/node_modules</text>
<text xml:space="preserve" text-anchor="start" x="169" y="-172.5" font-family="Helvetica,sans-Serif" font-size="10.00">/@parcel/watcher/src</text>
<text xml:space="preserve" text-anchor="middle" x="234.25" y="-161.25" font-family="Helvetica,sans-Serif" font-size="10.00">/macos/FSEventsBackend.hh</text>
</a>
</g>
</g>
<!-- Node4&#45;&gt;Node8 -->
<g id="edge7_Node000004_Node000008" class="edge">
<title>Node4&#45;&gt;Node8</title>
<g id="a_edge7_Node000004_Node000008"><a xlink:title=" ">
<path fill="none" stroke="#63b8ff" d="M510.17,-232.58C431.27,-213.48 408.61,-212.83 331.25,-197.25 323.67,-195.72 315.75,-194.12 307.86,-192.51"/>
<polygon fill="#63b8ff" stroke="#63b8ff" points="509.13,-235.93 519.68,-234.91 510.79,-229.13 509.13,-235.93"/>
</a>
</g>
</g>
<!-- Node4&#45;&gt;Node9 -->
<g id="edge9_Node000004_Node000009" class="edge">
<title>Node4&#45;&gt;Node9</title>
<g id="a_edge9_Node000004_Node000009"><a xlink:title=" ">
<path fill="none" stroke="#63b8ff" d="M616.14,-225.94C628.42,-216.64 641.94,-206.4 653.38,-197.73"/>
<polygon fill="#63b8ff" stroke="#63b8ff" points="614.11,-223.08 608.25,-231.91 618.34,-228.66 614.11,-223.08"/>
</a>
</g>
</g>
<!-- Node21 -->
<g id="Node000021" class="node">
<title>Node21</title>
<g id="a_Node000021"><a xlink:href="_watchman_backend_8hh.html" target="_top" xlink:title=" ">
<polygon fill="white" stroke="#666666" points="543.88,-197.25 378.62,-197.25 378.62,-155.5 543.88,-155.5 543.88,-197.25"/>
<text xml:space="preserve" text-anchor="start" x="386.62" y="-183.75" font-family="Helvetica,sans-Serif" font-size="10.00">frontend/node_modules</text>
<text xml:space="preserve" text-anchor="start" x="386.62" y="-172.5" font-family="Helvetica,sans-Serif" font-size="10.00">/@parcel/watcher/src</text>
<text xml:space="preserve" text-anchor="middle" x="461.25" y="-161.25" font-family="Helvetica,sans-Serif" font-size="10.00">/watchman/WatchmanBackend.hh</text>
</a>
</g>
</g>
<!-- Node4&#45;&gt;Node21 -->
<g id="edge23_Node000004_Node000021" class="edge">
<title>Node4&#45;&gt;Node21</title>
<g id="a_edge23_Node000004_Node000021"><a xlink:title=" ">
<path fill="none" stroke="#63b8ff" d="M538.82,-226.76C523.88,-217.24 507.24,-206.65 493.23,-197.73"/>
<polygon fill="#63b8ff" stroke="#63b8ff" points="536.77,-229.6 547.08,-232.01 540.53,-223.69 536.77,-229.6"/>
</a>
</g>
</g>
<!-- Node8&#45;&gt;Node7 -->
<g id="edge8_Node000008_Node000007" class="edge">
<title>Node8&#45;&gt;Node7</title>
<g id="a_edge8_Node000008_Node000007"><a xlink:title=" ">
<path fill="none" stroke="#63b8ff" d="M180.79,-150.22C159.91,-140.4 136.29,-129.29 116.51,-119.98"/>
<polygon fill="#63b8ff" stroke="#63b8ff" points="179.2,-153.34 189.74,-154.43 182.18,-147.01 179.2,-153.34"/>
</a>
</g>
</g>
<!-- Node9&#45;&gt;Node5 -->
<g id="edge10_Node000009_Node000005" class="edge">
<title>Node9&#45;&gt;Node5</title>
<g id="a_edge10_Node000009_Node000005"><a xlink:title=" ">
<path fill="none" stroke="#63b8ff" d="M593.63,-152.51C556.51,-142.57 512.69,-130.67 473.25,-119.5 470.57,-118.74 467.82,-117.96 465.05,-117.16"/>
<polygon fill="#63b8ff" stroke="#63b8ff" points="592.4,-155.8 602.96,-155 594.2,-149.04 592.4,-155.8"/>
</a>
</g>
</g>
<!-- Node10 -->
<g id="Node000010" class="node">
<title>Node10</title>
<g id="a_Node000010"><a xlink:href="_kqueue_backend_8hh.html" target="_top" xlink:title=" ">
<polygon fill="white" stroke="#666666" points="1110.38,-119.5 972.12,-119.5 972.12,-77.75 1110.38,-77.75 1110.38,-119.5"/>
<text xml:space="preserve" text-anchor="start" x="980.12" y="-106" font-family="Helvetica,sans-Serif" font-size="10.00">frontend/node_modules</text>
<text xml:space="preserve" text-anchor="start" x="980.12" y="-94.75" font-family="Helvetica,sans-Serif" font-size="10.00">/@parcel/watcher/src</text>
<text xml:space="preserve" text-anchor="middle" x="1041.25" y="-83.5" font-family="Helvetica,sans-Serif" font-size="10.00">/kqueue/KqueueBackend.hh</text>
</a>
</g>
</g>
<!-- Node9&#45;&gt;Node10 -->
<g id="edge11_Node000009_Node000010" class="edge">
<title>Node9&#45;&gt;Node10</title>
<g id="a_edge11_Node000009_Node000010"><a xlink:title=" ">
<path fill="none" stroke="#63b8ff" d="M767.41,-154.9C854.2,-137.23 878.94,-137.84 963.25,-119.5 966.12,-118.88 969.04,-118.22 971.99,-117.54"/>
<polygon fill="#63b8ff" stroke="#63b8ff" points="766.78,-151.45 757.7,-156.9 768.2,-158.31 766.78,-151.45"/>
</a>
</g>
</g>
<!-- Node12 -->
<g id="Node000012" class="node">
<title>Node12</title>
<g id="a_Node000012"><a xlink:href="_inotify_backend_8hh.html" target="_top" xlink:title=" ">
<polygon fill="white" stroke="#666666" points="1249.75,-119.5 1128.75,-119.5 1128.75,-77.75 1249.75,-77.75 1249.75,-119.5"/>
<text xml:space="preserve" text-anchor="start" x="1136.75" y="-106" font-family="Helvetica,sans-Serif" font-size="10.00">frontend/node_modules</text>
<text xml:space="preserve" text-anchor="start" x="1136.75" y="-94.75" font-family="Helvetica,sans-Serif" font-size="10.00">/@parcel/watcher/src</text>
<text xml:space="preserve" text-anchor="middle" x="1189.25" y="-83.5" font-family="Helvetica,sans-Serif" font-size="10.00">/linux/InotifyBackend.hh</text>
</a>
</g>
</g>
<!-- Node9&#45;&gt;Node12 -->
<g id="edge13_Node000009_Node000012" class="edge">
<title>Node9&#45;&gt;Node12</title>
<g id="a_edge13_Node000009_Node000012"><a xlink:title=" ">
<path fill="none" stroke="#63b8ff" d="M767.07,-155.14C922.62,-130.06 966.98,-148.6 1119.25,-119.5 1122.23,-118.93 1125.26,-118.29 1128.32,-117.61"/>
<polygon fill="#63b8ff" stroke="#63b8ff" points="766.96,-151.61 757.66,-156.7 768.09,-158.52 766.96,-151.61"/>
</a>
</g>
</g>
<!-- Node14 -->
<g id="Node000014" class="node">
<title>Node14</title>
<g id="a_Node000014"><a xlink:href="_brute_force_backend_8cc.html" target="_top" xlink:title=" ">
<polygon fill="white" stroke="#666666" points="1418.75,-119.5 1267.75,-119.5 1267.75,-77.75 1418.75,-77.75 1418.75,-119.5"/>
<text xml:space="preserve" text-anchor="start" x="1275.75" y="-106" font-family="Helvetica,sans-Serif" font-size="10.00">frontend/node_modules</text>
<text xml:space="preserve" text-anchor="start" x="1275.75" y="-94.75" font-family="Helvetica,sans-Serif" font-size="10.00">/@parcel/watcher/src</text>
<text xml:space="preserve" text-anchor="middle" x="1343.25" y="-83.5" font-family="Helvetica,sans-Serif" font-size="10.00">/shared/BruteForceBackend.cc</text>
</a>
</g>
</g>
<!-- Node9&#45;&gt;Node14 -->
<g id="edge15_Node000009_Node000014" class="edge">
<title>Node9&#45;&gt;Node14</title>
<g id="a_edge15_Node000009_Node000014"><a xlink:title=" ">
<path fill="none" stroke="#63b8ff" d="M767.27,-155.16C984.27,-123.01 1044.85,-152.44 1259.25,-119.5 1261.92,-119.09 1264.62,-118.64 1267.35,-118.16"/>
<polygon fill="#63b8ff" stroke="#63b8ff" points="767.01,-151.66 757.65,-156.62 768.06,-158.58 767.01,-151.66"/>
</a>
</g>
</g>
<!-- Node15 -->
<g id="Node000015" class="node">
<title>Node15</title>
<g id="a_Node000015"><a xlink:href="fts_8cc.html" target="_top" xlink:title=" ">
<polygon fill="white" stroke="#666666" points="1553.88,-119.5 1436.62,-119.5 1436.62,-77.75 1553.88,-77.75 1553.88,-119.5"/>
<text xml:space="preserve" text-anchor="start" x="1444.62" y="-106" font-family="Helvetica,sans-Serif" font-size="10.00">frontend/node_modules</text>
<text xml:space="preserve" text-anchor="start" x="1444.62" y="-94.75" font-family="Helvetica,sans-Serif" font-size="10.00">/@parcel/watcher/src</text>
<text xml:space="preserve" text-anchor="middle" x="1495.25" y="-83.5" font-family="Helvetica,sans-Serif" font-size="10.00">/unix/fts.cc</text>
</a>
</g>
</g>
<!-- Node9&#45;&gt;Node15 -->
<g id="edge16_Node000009_Node000015" class="edge">
<title>Node9&#45;&gt;Node15</title>
<g id="a_edge16_Node000009_Node000015"><a xlink:title=" ">
<path fill="none" stroke="#63b8ff" d="M767.48,-155.17C1058.84,-114.73 1140.73,-169.23 1428.25,-119.5 1430.88,-119.05 1433.55,-118.52 1436.24,-117.94"/>
<polygon fill="#63b8ff" stroke="#63b8ff" points="767.05,-151.7 757.64,-156.57 768.03,-158.63 767.05,-151.7"/>
</a>
</g>
</g>
<!-- Node16 -->
<g id="Node000016" class="node">
<title>Node16</title>
<g id="a_Node000016"><a xlink:href="legacy_8cc.html" target="_top" xlink:title=" ">
<polygon fill="white" stroke="#666666" points="599.88,-119.5 482.62,-119.5 482.62,-77.75 599.88,-77.75 599.88,-119.5"/>
<text xml:space="preserve" text-anchor="start" x="490.62" y="-106" font-family="Helvetica,sans-Serif" font-size="10.00">frontend/node_modules</text>
<text xml:space="preserve" text-anchor="start" x="490.62" y="-94.75" font-family="Helvetica,sans-Serif" font-size="10.00">/@parcel/watcher/src</text>
<text xml:space="preserve" text-anchor="middle" x="541.25" y="-83.5" font-family="Helvetica,sans-Serif" font-size="10.00">/unix/legacy.cc</text>
</a>
</g>
</g>
<!-- Node9&#45;&gt;Node16 -->
<g id="edge17_Node000009_Node000016" class="edge">
<title>Node9&#45;&gt;Node16</title>
<g id="a_edge17_Node000009_Node000016"><a xlink:title=" ">
<path fill="none" stroke="#63b8ff" d="M633.35,-149.82C615.51,-140.1 595.44,-129.16 578.6,-119.98"/>
<polygon fill="#63b8ff" stroke="#63b8ff" points="631.22,-152.64 641.67,-154.35 634.57,-146.49 631.22,-152.64"/>
</a>
</g>
</g>
<!-- Node17 -->
<g id="Node000017" class="node">
<title>Node17</title>
<g id="a_Node000017"><a xlink:href="_wasm_backend_8hh.html" target="_top" xlink:title=" ">
<polygon fill="white" stroke="#666666" points="746.12,-119.5 618.38,-119.5 618.38,-77.75 746.12,-77.75 746.12,-119.5"/>
<text xml:space="preserve" text-anchor="start" x="626.38" y="-106" font-family="Helvetica,sans-Serif" font-size="10.00">frontend/node_modules</text>
<text xml:space="preserve" text-anchor="start" x="626.38" y="-94.75" font-family="Helvetica,sans-Serif" font-size="10.00">/@parcel/watcher/src</text>
<text xml:space="preserve" text-anchor="middle" x="682.25" y="-83.5" font-family="Helvetica,sans-Serif" font-size="10.00">/wasm/WasmBackend.hh</text>
</a>
</g>
</g>
<!-- Node9&#45;&gt;Node17 -->
<g id="edge18_Node000009_Node000017" class="edge">
<title>Node9&#45;&gt;Node17</title>
<g id="a_edge18_Node000009_Node000017"><a xlink:title=" ">
<path fill="none" stroke="#63b8ff" d="M681.08,-143.75C681.3,-135.71 681.52,-127.29 681.71,-119.98"/>
<polygon fill="#63b8ff" stroke="#63b8ff" points="677.59,-143.47 680.83,-153.56 684.59,-143.66 677.59,-143.47"/>
</a>
</g>
</g>
<!-- Node19 -->
<g id="Node000019" class="node">
<title>Node19</title>
<g id="a_Node000019"><a xlink:href="_windows_backend_8cc.html" target="_top" xlink:title=" ">
<polygon fill="white" stroke="#666666" points="935.5,-41.75 783,-41.75 783,0 935.5,0 935.5,-41.75"/>
<text xml:space="preserve" text-anchor="start" x="791" y="-28.25" font-family="Helvetica,sans-Serif" font-size="10.00">frontend/node_modules</text>
<text xml:space="preserve" text-anchor="start" x="791" y="-17" font-family="Helvetica,sans-Serif" font-size="10.00">/@parcel/watcher/src</text>
<text xml:space="preserve" text-anchor="middle" x="859.25" y="-5.75" font-family="Helvetica,sans-Serif" font-size="10.00">/windows/WindowsBackend.cc</text>
</a>
</g>
</g>
<!-- Node9&#45;&gt;Node19 -->
<g id="edge20_Node000009_Node000019" class="edge">
<title>Node9&#45;&gt;Node19</title>
<g id="a_edge20_Node000009_Node000019"><a xlink:title=" ">
<path fill="none" stroke="#63b8ff" d="M719.4,-148.4C731.29,-139.64 744.14,-129.57 755.25,-119.5 773.84,-102.65 775.19,-95.17 793.25,-77.75 806.11,-65.35 821.27,-52.4 833.82,-42.1"/>
<polygon fill="#63b8ff" stroke="#63b8ff" points="717.39,-145.54 711.35,-154.24 721.5,-151.21 717.39,-145.54"/>
</a>
</g>
</g>
<!-- Node20 -->
<g id="Node000020" class="node">
<title>Node20</title>
<g id="a_Node000020"><a xlink:href="_windows_backend_8hh.html" target="_top" xlink:title=" ">
<polygon fill="white" stroke="#666666" points="954.5,-119.5 802,-119.5 802,-77.75 954.5,-77.75 954.5,-119.5"/>
<text xml:space="preserve" text-anchor="start" x="810" y="-106" font-family="Helvetica,sans-Serif" font-size="10.00">frontend/node_modules</text>
<text xml:space="preserve" text-anchor="start" x="810" y="-94.75" font-family="Helvetica,sans-Serif" font-size="10.00">/@parcel/watcher/src</text>
<text xml:space="preserve" text-anchor="middle" x="878.25" y="-83.5" font-family="Helvetica,sans-Serif" font-size="10.00">/windows/WindowsBackend.hh</text>
</a>
</g>
</g>
<!-- Node9&#45;&gt;Node20 -->
<g id="edge21_Node000009_Node000020" class="edge">
<title>Node9&#45;&gt;Node20</title>
<g id="a_edge21_Node000009_Node000020"><a xlink:title=" ">
<path fill="none" stroke="#63b8ff" d="M743.89,-151.03C770.07,-141.01 800.06,-129.54 825.04,-119.98"/>
<polygon fill="#63b8ff" stroke="#63b8ff" points="742.81,-147.69 734.72,-154.53 745.31,-154.23 742.81,-147.69"/>
</a>
</g>
</g>
<!-- Node11 -->
<g id="Node000011" class="node">
<title>Node11</title>
<g id="a_Node000011"><a xlink:href="_kqueue_backend_8cc.html" target="_top" xlink:title=" ">
<polygon fill="white" stroke="#666666" points="1110.38,-41.75 972.12,-41.75 972.12,0 1110.38,0 1110.38,-41.75"/>
<text xml:space="preserve" text-anchor="start" x="980.12" y="-28.25" font-family="Helvetica,sans-Serif" font-size="10.00">frontend/node_modules</text>
<text xml:space="preserve" text-anchor="start" x="980.12" y="-17" font-family="Helvetica,sans-Serif" font-size="10.00">/@parcel/watcher/src</text>
<text xml:space="preserve" text-anchor="middle" x="1041.25" y="-5.75" font-family="Helvetica,sans-Serif" font-size="10.00">/kqueue/KqueueBackend.cc</text>
</a>
</g>
</g>
<!-- Node10&#45;&gt;Node11 -->
<g id="edge12_Node000010_Node000011" class="edge">
<title>Node10&#45;&gt;Node11</title>
<g id="a_edge12_Node000010_Node000011"><a xlink:title=" ">
<path fill="none" stroke="#63b8ff" d="M1041.25,-66C1041.25,-57.96 1041.25,-49.54 1041.25,-42.23"/>
<polygon fill="#63b8ff" stroke="#63b8ff" points="1037.75,-65.81 1041.25,-75.81 1044.75,-65.81 1037.75,-65.81"/>
</a>
</g>
</g>
<!-- Node13 -->
<g id="Node000013" class="node">
<title>Node13</title>
<g id="a_Node000013"><a xlink:href="_inotify_backend_8cc.html" target="_top" xlink:title=" ">
<polygon fill="white" stroke="#666666" points="1249.75,-41.75 1128.75,-41.75 1128.75,0 1249.75,0 1249.75,-41.75"/>
<text xml:space="preserve" text-anchor="start" x="1136.75" y="-28.25" font-family="Helvetica,sans-Serif" font-size="10.00">frontend/node_modules</text>
<text xml:space="preserve" text-anchor="start" x="1136.75" y="-17" font-family="Helvetica,sans-Serif" font-size="10.00">/@parcel/watcher/src</text>
<text xml:space="preserve" text-anchor="middle" x="1189.25" y="-5.75" font-family="Helvetica,sans-Serif" font-size="10.00">/linux/InotifyBackend.cc</text>
</a>
</g>
</g>
<!-- Node12&#45;&gt;Node13 -->
<g id="edge14_Node000012_Node000013" class="edge">
<title>Node12&#45;&gt;Node13</title>
<g id="a_edge14_Node000012_Node000013"><a xlink:title=" ">
<path fill="none" stroke="#63b8ff" d="M1189.25,-66C1189.25,-57.96 1189.25,-49.54 1189.25,-42.23"/>
<polygon fill="#63b8ff" stroke="#63b8ff" points="1185.75,-65.81 1189.25,-75.81 1192.75,-65.81 1185.75,-65.81"/>
</a>
</g>
</g>
<!-- Node18 -->
<g id="Node000018" class="node">
<title>Node18</title>
<g id="a_Node000018"><a xlink:href="_wasm_backend_8cc.html" target="_top" xlink:title=" ">
<polygon fill="white" stroke="#666666" points="746.12,-41.75 618.38,-41.75 618.38,0 746.12,0 746.12,-41.75"/>
<text xml:space="preserve" text-anchor="start" x="626.38" y="-28.25" font-family="Helvetica,sans-Serif" font-size="10.00">frontend/node_modules</text>
<text xml:space="preserve" text-anchor="start" x="626.38" y="-17" font-family="Helvetica,sans-Serif" font-size="10.00">/@parcel/watcher/src</text>
<text xml:space="preserve" text-anchor="middle" x="682.25" y="-5.75" font-family="Helvetica,sans-Serif" font-size="10.00">/wasm/WasmBackend.cc</text>
</a>
</g>
</g>
<!-- Node17&#45;&gt;Node18 -->
<g id="edge19_Node000017_Node000018" class="edge">
<title>Node17&#45;&gt;Node18</title>
<g id="a_edge19_Node000017_Node000018"><a xlink:title=" ">
<path fill="none" stroke="#63b8ff" d="M682.25,-66C682.25,-57.96 682.25,-49.54 682.25,-42.23"/>
<polygon fill="#63b8ff" stroke="#63b8ff" points="678.75,-65.81 682.25,-75.81 685.75,-65.81 678.75,-65.81"/>
</a>
</g>
</g>
<!-- Node20&#45;&gt;Node19 -->
<g id="edge22_Node000020_Node000019" class="edge">
<title>Node20&#45;&gt;Node19</title>
<g id="a_edge22_Node000020_Node000019"><a xlink:title=" ">
<path fill="none" stroke="#63b8ff" d="M870.39,-66.28C868.35,-58.16 866.21,-49.62 864.36,-42.23"/>
<polygon fill="#63b8ff" stroke="#63b8ff" points="866.96,-67.01 872.79,-75.86 873.75,-65.31 866.96,-67.01"/>
</a>
</g>
</g>
<!-- Node22 -->
<g id="Node000022" class="node">
<title>Node22</title>
<g id="a_Node000022"><a xlink:href="_watchman_backend_8cc.html" target="_top" xlink:title=" ">
<polygon fill="white" stroke="#666666" points="329.88,-119.5 164.62,-119.5 164.62,-77.75 329.88,-77.75 329.88,-119.5"/>
<text xml:space="preserve" text-anchor="start" x="172.62" y="-106" font-family="Helvetica,sans-Serif" font-size="10.00">frontend/node_modules</text>
<text xml:space="preserve" text-anchor="start" x="172.62" y="-94.75" font-family="Helvetica,sans-Serif" font-size="10.00">/@parcel/watcher/src</text>
<text xml:space="preserve" text-anchor="middle" x="247.25" y="-83.5" font-family="Helvetica,sans-Serif" font-size="10.00">/watchman/WatchmanBackend.cc</text>
</a>
</g>
</g>
<!-- Node21&#45;&gt;Node22 -->
<g id="edge24_Node000021_Node000022" class="edge">
<title>Node21&#45;&gt;Node22</title>
<g id="a_edge24_Node000021_Node000022"><a xlink:title=" ">
<path fill="none" stroke="#63b8ff" d="M393.22,-151.29C364.74,-141.21 332,-129.63 304.76,-119.98"/>
<polygon fill="#63b8ff" stroke="#63b8ff" points="391.88,-154.53 402.48,-154.57 394.22,-147.93 391.88,-154.53"/>
</a>
</g>
</g>
</g>
</svg>
