<?xml version="1.0" encoding="UTF-8" standalone="no"?>
<!DOCTYPE svg PUBLIC "-//W3C//DTD SVG 1.1//EN"
 "http://www.w3.org/Graphics/SVG/1.1/DTD/svg11.dtd">
<!-- Generated by graphviz version 14.0.4 (20251115.1723)
 -->
<!-- Title: frontend/node_modules/@parcel/watcher/src/Glob.cc Pages: 1 -->
<svg width="144pt" height="160pt"
 viewBox="0.00 0.00 144.00 160.00" xmlns="http://www.w3.org/2000/svg" xmlns:xlink="http://www.w3.org/1999/xlink">
<g id="graph0" class="graph" transform="scale(1 1) rotate(0) translate(4 156.25)">
<title>frontend/node_modules/@parcel/watcher/src/Glob.cc</title>
<!-- Node1 -->
<g id="Node000001" class="node">
<title>Node1</title>
<g id="a_Node000001"><a xlink:title=" ">
<polygon fill="#999999" stroke="#666666" points="135.38,-152.25 18.12,-152.25 18.12,-110.5 135.38,-110.5 135.38,-152.25"/>
<text xml:space="preserve" text-anchor="start" x="26.12" y="-138.75" font-family="Helvetica,sans-Serif" font-size="10.00">frontend/node_modules</text>
<text xml:space="preserve" text-anchor="start" x="26.12" y="-127.5" font-family="Helvetica,sans-Serif" font-size="10.00">/@parcel/watcher/src</text>
<text xml:space="preserve" text-anchor="middle" x="76.75" y="-116.25" font-family="Helvetica,sans-Serif" font-size="10.00">/Glob.cc</text>
</a>
</g>
</g>
<!-- Node2 -->
<g id="Node000002" class="node">
<title>Node2</title>
<g id="a_Node000002"><a xlink:href="_glob_8hh.html" target="_top" xlink:title=" ">
<polygon fill="white" stroke="#666666" points="101.62,-74.5 51.88,-74.5 51.88,-55.25 101.62,-55.25 101.62,-74.5"/>
<text xml:space="preserve" text-anchor="middle" x="76.75" y="-61" font-family="Helvetica,sans-Serif" font-size="10.00">Glob.hh</text>
</a>
</g>
</g>
<!-- Node1&#45;&gt;Node2 -->
<g id="edge1_Node000001_Node000002" class="edge">
<title>Node1&#45;&gt;Node2</title>
<g id="a_edge1_Node000001_Node000002"><a xlink:title=" ">
<path fill="none" stroke="#63b8ff" d="M76.75,-110.32C76.75,-102.65 76.75,-93.89 76.75,-86.2"/>
<polygon fill="#63b8ff" stroke="#63b8ff" points="80.25,-86.46 76.75,-76.46 73.25,-86.46 80.25,-86.46"/>
</a>
</g>
</g>
<!-- Node3 -->
<g id="Node000003" class="node">
<title>Node3</title>
<g id="a_Node000003"><a xlink:title=" ">
<polygon fill="#e0e0e0" stroke="#999999" points="77.5,-19.25 0,-19.25 0,0 77.5,0 77.5,-19.25"/>
<text xml:space="preserve" text-anchor="middle" x="38.75" y="-5.75" font-family="Helvetica,sans-Serif" font-size="10.00">unordered_set</text>
</a>
</g>
</g>
<!-- Node2&#45;&gt;Node3 -->
<g id="edge2_Node000002_Node000003" class="edge">
<title>Node2&#45;&gt;Node3</title>
<g id="a_edge2_Node000002_Node000003"><a xlink:title=" ">
<path fill="none" stroke="#63b8ff" d="M70.48,-55.08C65.39,-47.96 58.05,-37.68 51.72,-28.8"/>
<polygon fill="#63b8ff" stroke="#63b8ff" points="54.7,-26.95 46.04,-20.84 49,-31.01 54.7,-26.95"/>
</a>
</g>
</g>
<!-- Node4 -->
<g id="Node000004" class="node">
<title>Node4</title>
<g id="a_Node000004"><a xlink:title=" ">
<polygon fill="#e0e0e0" stroke="#999999" points="135.75,-19.25 95.75,-19.25 95.75,0 135.75,0 135.75,-19.25"/>
<text xml:space="preserve" text-anchor="middle" x="115.75" y="-5.75" font-family="Helvetica,sans-Serif" font-size="10.00">regex</text>
</a>
</g>
</g>
<!-- Node2&#45;&gt;Node4 -->
<g id="edge3_Node000002_Node000004" class="edge">
<title>Node2&#45;&gt;Node4</title>
<g id="a_edge3_Node000002_Node000004"><a xlink:title=" ">
<path fill="none" stroke="#63b8ff" d="M83.19,-55.08C88.41,-47.96 95.94,-37.68 102.44,-28.8"/>
<polygon fill="#63b8ff" stroke="#63b8ff" points="105.19,-30.97 108.28,-20.83 99.54,-26.83 105.19,-30.97"/>
</a>
</g>
</g>
</g>
</svg>
