<?xml version="1.0" encoding="UTF-8" standalone="no"?>
<!DOCTYPE svg PUBLIC "-//W3C//DTD SVG 1.1//EN"
 "http://www.w3.org/Graphics/SVG/1.1/DTD/svg11.dtd">
<!-- Generated by graphviz version 14.0.4 (20251115.1723)
 -->
<!-- Title: frontend/node_modules/@parcel/watcher/src/watchman/IPC.hh Pages: 1 -->
<svg width="344pt" height="105pt"
 viewBox="0.00 0.00 344.00 105.00" xmlns="http://www.w3.org/2000/svg" xmlns:xlink="http://www.w3.org/1999/xlink">
<g id="graph0" class="graph" transform="scale(1 1) rotate(0) translate(4 101)">
<title>frontend/node_modules/@parcel/watcher/src/watchman/IPC.hh</title>
<!-- Node1 -->
<g id="Node000001" class="node">
<title>Node1</title>
<g id="a_Node000001"><a xlink:title=" ">
<polygon fill="#999999" stroke="#666666" points="207.62,-97 90.38,-97 90.38,-55.25 207.62,-55.25 207.62,-97"/>
<text xml:space="preserve" text-anchor="start" x="98.38" y="-83.5" font-family="Helvetica,sans-Serif" font-size="10.00">frontend/node_modules</text>
<text xml:space="preserve" text-anchor="start" x="98.38" y="-72.25" font-family="Helvetica,sans-Serif" font-size="10.00">/@parcel/watcher/src</text>
<text xml:space="preserve" text-anchor="middle" x="149" y="-61" font-family="Helvetica,sans-Serif" font-size="10.00">/watchman/IPC.hh</text>
</a>
</g>
</g>
<!-- Node2 -->
<g id="Node000002" class="node">
<title>Node2</title>
<g id="a_Node000002"><a xlink:title=" ">
<polygon fill="#e0e0e0" stroke="#999999" points="40,-19.25 0,-19.25 0,0 40,0 40,-19.25"/>
<text xml:space="preserve" text-anchor="middle" x="20" y="-5.75" font-family="Helvetica,sans-Serif" font-size="10.00">string</text>
</a>
</g>
</g>
<!-- Node1&#45;&gt;Node2 -->
<g id="edge1_Node000001_Node000002" class="edge">
<title>Node1&#45;&gt;Node2</title>
<g id="a_edge1_Node000001_Node000002"><a xlink:title=" ">
<path fill="none" stroke="#63b8ff" d="M108.54,-54.89C88.96,-45.1 65.93,-33.59 48.26,-24.76"/>
<polygon fill="#63b8ff" stroke="#63b8ff" points="49.9,-21.66 39.39,-20.32 46.77,-27.92 49.9,-21.66"/>
</a>
</g>
</g>
<!-- Node3 -->
<g id="Node000003" class="node">
<title>Node3</title>
<g id="a_Node000003"><a xlink:title=" ">
<polygon fill="#e0e0e0" stroke="#999999" points="105.75,-19.25 58.25,-19.25 58.25,0 105.75,0 105.75,-19.25"/>
<text xml:space="preserve" text-anchor="middle" x="82" y="-5.75" font-family="Helvetica,sans-Serif" font-size="10.00">stdlib.h</text>
</a>
</g>
</g>
<!-- Node1&#45;&gt;Node3 -->
<g id="edge2_Node000001_Node000003" class="edge">
<title>Node1&#45;&gt;Node3</title>
<g id="a_edge2_Node000001_Node000003"><a xlink:title=" ">
<path fill="none" stroke="#63b8ff" d="M128.17,-55.07C119.04,-46.29 108.45,-36.09 99.71,-27.68"/>
<polygon fill="#63b8ff" stroke="#63b8ff" points="102.14,-25.16 92.51,-20.75 97.29,-30.2 102.14,-25.16"/>
</a>
</g>
</g>
<!-- Node4 -->
<g id="Node000004" class="node">
<title>Node4</title>
<g id="a_Node000004"><a xlink:title=" ">
<polygon fill="#e0e0e0" stroke="#999999" points="174.25,-19.25 123.75,-19.25 123.75,0 174.25,0 174.25,-19.25"/>
<text xml:space="preserve" text-anchor="middle" x="149" y="-5.75" font-family="Helvetica,sans-Serif" font-size="10.00">unistd.h</text>
</a>
</g>
</g>
<!-- Node1&#45;&gt;Node4 -->
<g id="edge3_Node000001_Node000004" class="edge">
<title>Node1&#45;&gt;Node4</title>
<g id="a_edge3_Node000001_Node000004"><a xlink:title=" ">
<path fill="none" stroke="#63b8ff" d="M149,-55.07C149,-47.4 149,-38.64 149,-30.95"/>
<polygon fill="#63b8ff" stroke="#63b8ff" points="152.5,-31.21 149,-21.21 145.5,-31.21 152.5,-31.21"/>
</a>
</g>
</g>
<!-- Node5 -->
<g id="Node000005" class="node">
<title>Node5</title>
<g id="a_Node000005"><a xlink:title=" ">
<polygon fill="#e0e0e0" stroke="#999999" points="264.12,-19.25 191.88,-19.25 191.88,0 264.12,0 264.12,-19.25"/>
<text xml:space="preserve" text-anchor="middle" x="228" y="-5.75" font-family="Helvetica,sans-Serif" font-size="10.00">sys/socket.h</text>
</a>
</g>
</g>
<!-- Node1&#45;&gt;Node5 -->
<g id="edge4_Node000001_Node000005" class="edge">
<title>Node1&#45;&gt;Node5</title>
<g id="a_edge4_Node000001_Node000005"><a xlink:title=" ">
<path fill="none" stroke="#63b8ff" d="M173.56,-55.07C184.66,-46.01 197.6,-35.44 208.08,-26.89"/>
<polygon fill="#63b8ff" stroke="#63b8ff" points="210.19,-29.69 215.72,-20.65 205.76,-24.27 210.19,-29.69"/>
</a>
</g>
</g>
<!-- Node6 -->
<g id="Node000006" class="node">
<title>Node6</title>
<g id="a_Node000006"><a xlink:title=" ">
<polygon fill="#e0e0e0" stroke="#999999" points="335.75,-19.25 282.25,-19.25 282.25,0 335.75,0 335.75,-19.25"/>
<text xml:space="preserve" text-anchor="middle" x="309" y="-5.75" font-family="Helvetica,sans-Serif" font-size="10.00">sys/un.h</text>
</a>
</g>
</g>
<!-- Node1&#45;&gt;Node6 -->
<g id="edge5_Node000001_Node000006" class="edge">
<title>Node1&#45;&gt;Node6</title>
<g id="a_edge5_Node000001_Node000006"><a xlink:title=" ">
<path fill="none" stroke="#63b8ff" d="M199.19,-54.89C224.27,-44.78 253.93,-32.83 276.09,-23.89"/>
<polygon fill="#63b8ff" stroke="#63b8ff" points="277.26,-27.2 285.22,-20.21 274.64,-20.7 277.26,-27.2"/>
</a>
</g>
</g>
</g>
</svg>
