<?xml version="1.0" encoding="UTF-8" standalone="no"?>
<!DOCTYPE svg PUBLIC "-//W3C//DTD SVG 1.1//EN"
 "http://www.w3.org/Graphics/SVG/1.1/DTD/svg11.dtd">
<!-- Generated by graphviz version 14.0.4 (20251115.1723)
 -->
<!-- Title: frontend/node_modules/@parcel/watcher/src/linux/InotifyBackend.cc Pages: 1 -->
<!--zoomable 547 -->

<svg id="main" version="1.1" xmlns="http://www.w3.org/2000/svg" xmlns:xlink="http://www.w3.org/1999/xlink" xml:space="preserve" onload="init(evt)">

<style type="text/css"><![CDATA[
.node, .edge {opacity: 0.7;}
.node.selected, .edge.selected {opacity: 1;}
.edge:hover path { stroke: red; }
.edge:hover polygon { stroke: red; fill: red; }
]]></style>

<defs>
  <circle id="rim" cx="0" cy="0" r="7"/>
  <circle id="rim2" cx="0" cy="0" r="3.5"/>
  <g id="zoomPlus">
    <use xlink:href="#rim" fill="#404040"><set attributeName="fill" to="#808080" begin="zoomplus.mouseover" end="zoomplus.mouseout"/></use>
    <path d="M-4,0h8M0,-4v8" fill="none" stroke="white" stroke-width="1.5" pointer-events="none"/>
  </g>
  <g id="zoomMin">
    <use xlink:href="#rim" fill="#404040"><set attributeName="fill" to="#808080" begin="zoomminus.mouseover" end="zoomminus.mouseout"/></use>
    <path d="M-4,0h8" fill="none" stroke="white" stroke-width="1.5" pointer-events="none"/>
  </g>
  <g id="arrowUp" transform="translate(30 24)">
    <use xlink:href="#rim"/>
    <path pointer-events="none" fill="none" stroke="white" stroke-width="1.5" d="M0,-3.0v7 M-2.5,-0.5L0,-3.0L2.5,-0.5"/>
  </g>
  <g id="arrowRight" transform="rotate(90) translate(36 -43)">
    <use xlink:href="#rim"/>
    <path pointer-events="none" fill="none" stroke="white" stroke-width="1.5" d="M0,-3.0v7 M-2.5,-0.5L0,-3.0L2.5,-0.5"/>
  </g>
  <g id="arrowDown" transform="rotate(180) translate(-30 -48)">
    <use xlink:href="#rim"/>
    <path pointer-events="none" fill="none" stroke="white" stroke-width="1.5" d="M0,-3.0v7 M-2.5,-0.5L0,-3.0L2.5,-0.5"/>
  </g>
  <g id="arrowLeft" transform="rotate(270) translate(-36 17)">
    <use xlink:href="#rim"/>
    <path pointer-events="none" fill="none" stroke="white" stroke-width="1.5" d="M0,-3.0v7 M-2.5,-0.5L0,-3.0L2.5,-0.5"/>
  </g>
  <g id="resetDef">
    <use xlink:href="#rim2" fill="#404040"><set attributeName="fill" to="#808080" begin="reset.mouseover" end="reset.mouseout"/></use>
  </g>
</defs>
<script type="application/ecmascript">
var viewWidth = 899;
var viewHeight = 547;
var sectionId = 'dynsection-0';
</script>
<script type="application/ecmascript" xlink:href="svg.min.js"/>
<svg id="graph" class="graph">
<g id="viewport">
<title>frontend/node_modules/@parcel/watcher/src/linux/InotifyBackend.cc</title>
<!-- Node1 -->
<g id="Node000001" class="node">
<title>Node1</title>
<g id="a_Node000001"><a xlink:title=" ">
<polygon fill="#999999" stroke="#666666" points="447.5,-539 326.5,-539 326.5,-497.25 447.5,-497.25 447.5,-539"/>
<text xml:space="preserve" text-anchor="start" x="334.5" y="-525.5" font-family="Helvetica,sans-Serif" font-size="10.00">frontend/node_modules</text>
<text xml:space="preserve" text-anchor="start" x="334.5" y="-514.25" font-family="Helvetica,sans-Serif" font-size="10.00">/@parcel/watcher/src</text>
<text xml:space="preserve" text-anchor="middle" x="387" y="-503" font-family="Helvetica,sans-Serif" font-size="10.00">/linux/InotifyBackend.cc</text>
</a>
</g>
</g>
<!-- Node2 -->
<g id="Node000002" class="node">
<title>Node2</title>
<g id="a_Node000002"><a xlink:title=" ">
<polygon fill="#e0e0e0" stroke="#999999" points="163.62,-74.5 112.38,-74.5 112.38,-55.25 163.62,-55.25 163.62,-74.5"/>
<text xml:space="preserve" text-anchor="middle" x="138" y="-61" font-family="Helvetica,sans-Serif" font-size="10.00">memory</text>
</a>
</g>
</g>
<!-- Node1&#45;&gt;Node2 -->
<g id="edge1_Node000001_Node000002" class="edge">
<title>Node1&#45;&gt;Node2</title>
<g id="a_edge1_Node000001_Node000002"><a xlink:title=" ">
<path fill="none" stroke="#63b8ff" d="M326.11,-511.02C217.12,-498.41 0,-464.8 0,-397.38 0,-397.38 0,-397.38 0,-174.38 0,-122.73 60.47,-91.91 101.35,-76.98"/>
<polygon fill="#63b8ff" stroke="#63b8ff" points="102.31,-80.35 110.61,-73.77 100.02,-73.74 102.31,-80.35"/>
</a>
</g>
</g>
<!-- Node3 -->
<g id="Node000003" class="node">
<title>Node3</title>
<g id="a_Node000003"><a xlink:title=" ">
<polygon fill="#e0e0e0" stroke="#999999" points="375.62,-461.25 336.38,-461.25 336.38,-442 375.62,-442 375.62,-461.25"/>
<text xml:space="preserve" text-anchor="middle" x="356" y="-447.75" font-family="Helvetica,sans-Serif" font-size="10.00">poll.h</text>
</a>
</g>
</g>
<!-- Node1&#45;&gt;Node3 -->
<g id="edge2_Node000001_Node000003" class="edge">
<title>Node1&#45;&gt;Node3</title>
<g id="a_edge2_Node000001_Node000003"><a xlink:title=" ">
<path fill="none" stroke="#63b8ff" d="M377.36,-497.07C373.5,-489.03 369.06,-479.8 365.23,-471.84"/>
<polygon fill="#63b8ff" stroke="#63b8ff" points="368.5,-470.56 361.02,-463.06 362.19,-473.59 368.5,-470.56"/>
</a>
</g>
</g>
<!-- Node4 -->
<g id="Node000004" class="node">
<title>Node4</title>
<g id="a_Node000004"><a xlink:title=" ">
<polygon fill="#e0e0e0" stroke="#999999" points="444.25,-461.25 393.75,-461.25 393.75,-442 444.25,-442 444.25,-461.25"/>
<text xml:space="preserve" text-anchor="middle" x="419" y="-447.75" font-family="Helvetica,sans-Serif" font-size="10.00">unistd.h</text>
</a>
</g>
</g>
<!-- Node1&#45;&gt;Node4 -->
<g id="edge3_Node000001_Node000004" class="edge">
<title>Node1&#45;&gt;Node4</title>
<g id="a_edge3_Node000001_Node000004"><a xlink:title=" ">
<path fill="none" stroke="#63b8ff" d="M396.95,-497.07C400.94,-489.03 405.52,-479.8 409.47,-471.84"/>
<polygon fill="#63b8ff" stroke="#63b8ff" points="412.52,-473.56 413.83,-463.05 406.25,-470.45 412.52,-473.56"/>
</a>
</g>
</g>
<!-- Node5 -->
<g id="Node000005" class="node">
<title>Node5</title>
<g id="a_Node000005"><a xlink:title=" ">
<polygon fill="#e0e0e0" stroke="#999999" points="505.5,-461.25 462.5,-461.25 462.5,-442 505.5,-442 505.5,-461.25"/>
<text xml:space="preserve" text-anchor="middle" x="484" y="-447.75" font-family="Helvetica,sans-Serif" font-size="10.00">fcntl.h</text>
</a>
</g>
</g>
<!-- Node1&#45;&gt;Node5 -->
<g id="edge4_Node000001_Node000005" class="edge">
<title>Node1&#45;&gt;Node5</title>
<g id="a_edge4_Node000001_Node000005"><a xlink:title=" ">
<path fill="none" stroke="#63b8ff" d="M417.43,-496.89C431.59,-487.47 448.16,-476.46 461.23,-467.77"/>
<polygon fill="#63b8ff" stroke="#63b8ff" points="462.79,-470.93 469.18,-462.48 458.91,-465.11 462.79,-470.93"/>
</a>
</g>
</g>
<!-- Node6 -->
<g id="Node000006" class="node">
<title>Node6</title>
<g id="a_Node000006"><a xlink:title=" ">
<polygon fill="#e0e0e0" stroke="#999999" points="582.75,-461.25 523.25,-461.25 523.25,-442 582.75,-442 582.75,-461.25"/>
<text xml:space="preserve" text-anchor="middle" x="553" y="-447.75" font-family="Helvetica,sans-Serif" font-size="10.00">sys/stat.h</text>
</a>
</g>
</g>
<!-- Node1&#45;&gt;Node6 -->
<g id="edge5_Node000001_Node000006" class="edge">
<title>Node1&#45;&gt;Node6</title>
<g id="a_edge5_Node000001_Node000006"><a xlink:title=" ">
<path fill="none" stroke="#63b8ff" d="M439.07,-496.89C465.22,-486.73 496.14,-474.72 519.17,-465.77"/>
<polygon fill="#63b8ff" stroke="#63b8ff" points="520.32,-469.08 528.38,-462.19 517.79,-462.55 520.32,-469.08"/>
</a>
</g>
</g>
<!-- Node7 -->
<g id="Node000007" class="node">
<title>Node7</title>
<g id="a_Node000007"><a xlink:href="_inotify_backend_8hh.html" target="_top" xlink:title=" ">
<polygon fill="white" stroke="#666666" points="318.38,-461.25 223.62,-461.25 223.62,-442 318.38,-442 318.38,-461.25"/>
<text xml:space="preserve" text-anchor="middle" x="271" y="-447.75" font-family="Helvetica,sans-Serif" font-size="10.00">InotifyBackend.hh</text>
</a>
</g>
</g>
<!-- Node1&#45;&gt;Node7 -->
<g id="edge6_Node000001_Node000007" class="edge">
<title>Node1&#45;&gt;Node7</title>
<g id="a_edge6_Node000001_Node000007"><a xlink:title=" ">
<path fill="none" stroke="#63b8ff" d="M350.62,-496.89C333.17,-487.2 312.69,-475.81 296.87,-467.01"/>
<polygon fill="#63b8ff" stroke="#63b8ff" points="298.98,-464.18 288.54,-462.38 295.58,-470.3 298.98,-464.18"/>
</a>
</g>
</g>
<!-- Node8 -->
<g id="Node000008" class="node">
<title>Node8</title>
<g id="a_Node000008"><a xlink:title=" ">
<polygon fill="#e0e0e0" stroke="#999999" points="110.38,-185 27.62,-185 27.62,-165.75 110.38,-165.75 110.38,-185"/>
<text xml:space="preserve" text-anchor="middle" x="69" y="-171.5" font-family="Helvetica,sans-Serif" font-size="10.00">unordered_map</text>
</a>
</g>
</g>
<!-- Node7&#45;&gt;Node8 -->
<g id="edge7_Node000007_Node000008" class="edge">
<title>Node7&#45;&gt;Node8</title>
<g id="a_edge7_Node000007_Node000008"><a xlink:title=" ">
<path fill="none" stroke="#63b8ff" d="M240.82,-441.52C200.75,-427.34 135,-395.89 135,-342.12 135,-342.12 135,-342.12 135,-284.88 135,-248 106.83,-213 87.3,-193.16"/>
<polygon fill="#63b8ff" stroke="#63b8ff" points="90.01,-190.91 80.4,-186.45 85.12,-195.93 90.01,-190.91"/>
</a>
</g>
</g>
<!-- Node9 -->
<g id="Node000009" class="node">
<title>Node9</title>
<g id="a_Node000009"><a xlink:title=" ">
<polygon fill="#e0e0e0" stroke="#999999" points="488.88,-406 421.12,-406 421.12,-386.75 488.88,-386.75 488.88,-406"/>
<text xml:space="preserve" text-anchor="middle" x="455" y="-392.5" font-family="Helvetica,sans-Serif" font-size="10.00">sys/inotify.h</text>
</a>
</g>
</g>
<!-- Node7&#45;&gt;Node9 -->
<g id="edge8_Node000007_Node000009" class="edge">
<title>Node7&#45;&gt;Node9</title>
<g id="a_edge8_Node000007_Node000009"><a xlink:title=" ">
<path fill="none" stroke="#63b8ff" d="M302.21,-441.59C332.61,-432.79 379.04,-419.36 412.74,-409.61"/>
<polygon fill="#63b8ff" stroke="#63b8ff" points="413.55,-413.02 422.18,-406.87 411.6,-406.29 413.55,-413.02"/>
</a>
</g>
</g>
<!-- Node10 -->
<g id="Node000010" class="node">
<title>Node10</title>
<g id="a_Node000010"><a xlink:href="_brute_force_backend_8hh.html" target="_top" xlink:title=" ">
<polygon fill="white" stroke="#666666" points="403.5,-406 246.5,-406 246.5,-386.75 403.5,-386.75 403.5,-406"/>
<text xml:space="preserve" text-anchor="middle" x="325" y="-392.5" font-family="Helvetica,sans-Serif" font-size="10.00">../shared/BruteForceBackend.hh</text>
</a>
</g>
</g>
<!-- Node7&#45;&gt;Node10 -->
<g id="edge9_Node000007_Node000010" class="edge">
<title>Node7&#45;&gt;Node10</title>
<g id="a_edge9_Node000007_Node000010"><a xlink:title=" ">
<path fill="none" stroke="#63b8ff" d="M279.92,-441.83C287.45,-434.4 298.47,-423.54 307.73,-414.41"/>
<polygon fill="#63b8ff" stroke="#63b8ff" points="310.15,-416.94 314.81,-407.42 305.23,-411.95 310.15,-416.94"/>
</a>
</g>
</g>
<!-- Node37 -->
<g id="Node000037" class="node">
<title>Node37</title>
<g id="a_Node000037"><a xlink:href="_signal_8hh.html" target="_top" xlink:title=" ">
<polygon fill="white" stroke="#666666" points="842.25,-185 785.75,-185 785.75,-165.75 842.25,-165.75 842.25,-185"/>
<text xml:space="preserve" text-anchor="middle" x="814" y="-171.5" font-family="Helvetica,sans-Serif" font-size="10.00">Signal.hh</text>
</a>
</g>
</g>
<!-- Node7&#45;&gt;Node37 -->
<g id="edge59_Node000007_Node000037" class="edge">
<title>Node7&#45;&gt;Node37</title>
<g id="a_edge59_Node000007_Node000037"><a xlink:title=" ">
<path fill="none" stroke="#63b8ff" d="M318.62,-442.92C463.8,-419.35 891,-349.38 891,-342.12 891,-342.12 891,-342.12 891,-284.88 891,-246.1 857.89,-211.52 835.09,-192.31"/>
<polygon fill="#63b8ff" stroke="#63b8ff" points="837.53,-189.78 827.55,-186.23 833.13,-195.23 837.53,-189.78"/>
</a>
</g>
</g>
<!-- Node38 -->
<g id="Node000038" class="node">
<title>Node38</title>
<g id="a_Node000038"><a xlink:href="_dir_tree_8hh.html" target="_top" xlink:title=" ">
<polygon fill="white" stroke="#666666" points="248.88,-240.25 187.12,-240.25 187.12,-221 248.88,-221 248.88,-240.25"/>
<text xml:space="preserve" text-anchor="middle" x="218" y="-226.75" font-family="Helvetica,sans-Serif" font-size="10.00">DirTree.hh</text>
</a>
</g>
</g>
<!-- Node7&#45;&gt;Node38 -->
<g id="edge58_Node000007_Node000038" class="edge">
<title>Node7&#45;&gt;Node38</title>
<g id="a_edge58_Node000007_Node000038"><a xlink:title=" ">
<path fill="none" stroke="#63b8ff" d="M262.05,-441.59C254.28,-433.15 243.44,-419.81 238,-406 217.28,-353.44 216.08,-285.56 217,-252.11"/>
<polygon fill="#63b8ff" stroke="#63b8ff" points="220.49,-252.36 217.37,-242.24 213.5,-252.1 220.49,-252.36"/>
</a>
</g>
</g>
<!-- Node11 -->
<g id="Node000011" class="node">
<title>Node11</title>
<g id="a_Node000011"><a xlink:href="_backend_8hh.html" target="_top" xlink:title=" ">
<polygon fill="white" stroke="#666666" points="553.38,-350.75 476.62,-350.75 476.62,-331.5 553.38,-331.5 553.38,-350.75"/>
<text xml:space="preserve" text-anchor="middle" x="515" y="-337.25" font-family="Helvetica,sans-Serif" font-size="10.00">../Backend.hh</text>
</a>
</g>
</g>
<!-- Node10&#45;&gt;Node11 -->
<g id="edge10_Node000010_Node000011" class="edge">
<title>Node10&#45;&gt;Node11</title>
<g id="a_edge10_Node000010_Node000011"><a xlink:title=" ">
<path fill="none" stroke="#63b8ff" d="M357.23,-386.34C388.76,-377.51 436.98,-363.99 471.81,-354.23"/>
<polygon fill="#63b8ff" stroke="#63b8ff" points="472.47,-357.68 481.15,-351.61 470.58,-350.94 472.47,-357.68"/>
</a>
</g>
</g>
<!-- Node29 -->
<g id="Node000029" class="node">
<title>Node29</title>
<g id="a_Node000029"><a xlink:href="_watcher_8hh.html" target="_top" xlink:title=" ">
<polygon fill="white" stroke="#666666" points="547.38,-295.5 482.62,-295.5 482.62,-276.25 547.38,-276.25 547.38,-295.5"/>
<text xml:space="preserve" text-anchor="middle" x="515" y="-282" font-family="Helvetica,sans-Serif" font-size="10.00">Watcher.hh</text>
</a>
</g>
</g>
<!-- Node10&#45;&gt;Node29 -->
<g id="edge57_Node000010_Node000029" class="edge">
<title>Node10&#45;&gt;Node29</title>
<g id="a_edge57_Node000010_Node000029"><a xlink:title=" ">
<path fill="none" stroke="#63b8ff" d="M340.87,-386.31C373.7,-367.56 449.33,-324.37 489.25,-301.58"/>
<polygon fill="#63b8ff" stroke="#63b8ff" points="490.78,-304.74 497.72,-296.74 487.31,-298.66 490.78,-304.74"/>
</a>
</g>
</g>
<!-- Node10&#45;&gt;Node38 -->
<g id="edge56_Node000010_Node000038" class="edge">
<title>Node10&#45;&gt;Node38</title>
<g id="a_edge56_Node000010_Node000038"><a xlink:title=" ">
<path fill="none" stroke="#63b8ff" d="M319.25,-386.57C302.41,-360.8 252.98,-285.15 230,-249.99"/>
<polygon fill="#63b8ff" stroke="#63b8ff" points="233.01,-248.2 224.61,-241.74 227.15,-252.03 233.01,-248.2"/>
</a>
</g>
</g>
<!-- Node12 -->
<g id="Node000012" class="node">
<title>Node12</title>
<g id="a_Node000012"><a xlink:href="_event_8hh.html" target="_top" xlink:title=" ">
<polygon fill="white" stroke="#666666" points="416.5,-185 361.5,-185 361.5,-165.75 416.5,-165.75 416.5,-185"/>
<text xml:space="preserve" text-anchor="middle" x="389" y="-171.5" font-family="Helvetica,sans-Serif" font-size="10.00">Event.hh</text>
</a>
</g>
</g>
<!-- Node11&#45;&gt;Node12 -->
<g id="edge11_Node000011_Node000012" class="edge">
<title>Node11&#45;&gt;Node12</title>
<g id="a_edge11_Node000011_Node000012"><a xlink:title=" ">
<path fill="none" stroke="#63b8ff" d="M504.31,-331.14C485.23,-314.68 444.89,-277.9 419,-240.25 409.43,-226.34 401.47,-208.89 396.16,-195.75"/>
<polygon fill="#63b8ff" stroke="#63b8ff" points="399.47,-194.6 392.6,-186.53 392.94,-197.12 399.47,-194.6"/>
</a>
</g>
</g>
<!-- Node11&#45;&gt;Node29 -->
<g id="edge32_Node000011_Node000029" class="edge">
<title>Node11&#45;&gt;Node29</title>
<g id="a_edge32_Node000011_Node000029"><a xlink:title=" ">
<path fill="none" stroke="#63b8ff" d="M515,-331.33C515,-324.82 515,-315.67 515,-307.37"/>
<polygon fill="#63b8ff" stroke="#63b8ff" points="518.5,-307.37 515,-297.37 511.5,-307.37 518.5,-307.37"/>
</a>
</g>
</g>
<!-- Node36 -->
<g id="Node000036" class="node">
<title>Node36</title>
<g id="a_Node000036"><a xlink:title=" ">
<polygon fill="#e0e0e0" stroke="#999999" points="764.5,-185 721.5,-185 721.5,-165.75 764.5,-165.75 764.5,-185"/>
<text xml:space="preserve" text-anchor="middle" x="743" y="-171.5" font-family="Helvetica,sans-Serif" font-size="10.00">thread</text>
</a>
</g>
</g>
<!-- Node11&#45;&gt;Node36 -->
<g id="edge55_Node000011_Node000036" class="edge">
<title>Node11&#45;&gt;Node36</title>
<g id="a_edge55_Node000011_Node000036"><a xlink:title=" ">
<path fill="none" stroke="#63b8ff" d="M553.52,-337.09C609.6,-330.36 712.04,-308.83 758,-240.25 767.01,-226.81 761.4,-208.62 754.63,-195.09"/>
<polygon fill="#63b8ff" stroke="#63b8ff" points="757.89,-193.75 749.94,-186.74 751.78,-197.17 757.89,-193.75"/>
</a>
</g>
</g>
<!-- Node11&#45;&gt;Node37 -->
<g id="edge54_Node000011_Node000037" class="edge">
<title>Node11&#45;&gt;Node37</title>
<g id="a_edge54_Node000011_Node000037"><a xlink:title=" ">
<path fill="none" stroke="#63b8ff" d="M553.72,-338.26C597.74,-334.75 670.68,-324.64 726,-295.5 757.5,-278.91 763.19,-269.13 784,-240.25 793.87,-226.55 801.81,-209.09 807.03,-195.89"/>
<polygon fill="#63b8ff" stroke="#63b8ff" points="810.28,-197.2 810.51,-186.61 803.72,-194.74 810.28,-197.2"/>
</a>
</g>
</g>
<!-- Node13 -->
<g id="Node000013" class="node">
<title>Node13</title>
<g id="a_Node000013"><a xlink:title=" ">
<polygon fill="#e0e0e0" stroke="#999999" points="229,-74.5 189,-74.5 189,-55.25 229,-55.25 229,-74.5"/>
<text xml:space="preserve" text-anchor="middle" x="209" y="-61" font-family="Helvetica,sans-Serif" font-size="10.00">string</text>
</a>
</g>
</g>
<!-- Node12&#45;&gt;Node13 -->
<g id="edge12_Node000012_Node000013" class="edge">
<title>Node12&#45;&gt;Node13</title>
<g id="a_edge12_Node000012_Node000013"><a xlink:title=" ">
<path fill="none" stroke="#63b8ff" d="M361.14,-173.72C326.79,-171.45 268.62,-162.6 233,-129.75 220.61,-118.32 214.58,-99.86 211.66,-85.72"/>
<polygon fill="#63b8ff" stroke="#63b8ff" points="215.17,-85.47 210.07,-76.18 208.27,-86.62 215.17,-85.47"/>
</a>
</g>
</g>
<!-- Node14 -->
<g id="Node000014" class="node">
<title>Node14</title>
<g id="a_Node000014"><a xlink:title=" ">
<polygon fill="#e0e0e0" stroke="#999999" points="553.62,-74.5 490.38,-74.5 490.38,-55.25 553.62,-55.25 553.62,-74.5"/>
<text xml:space="preserve" text-anchor="middle" x="522" y="-61" font-family="Helvetica,sans-Serif" font-size="10.00">node_api.h</text>
</a>
</g>
</g>
<!-- Node12&#45;&gt;Node14 -->
<g id="edge13_Node000012_Node000014" class="edge">
<title>Node12&#45;&gt;Node14</title>
<g id="a_edge13_Node000012_Node000014"><a xlink:title=" ">
<path fill="none" stroke="#63b8ff" d="M416.76,-168.3C450.24,-160.37 503.59,-145.63 516,-129.75 525.56,-117.52 526.49,-99.68 525.35,-85.96"/>
<polygon fill="#63b8ff" stroke="#63b8ff" points="528.86,-85.77 524.11,-76.3 521.91,-86.66 528.86,-85.77"/>
</a>
</g>
</g>
<!-- Node15 -->
<g id="Node000015" class="node">
<title>Node15</title>
<g id="a_Node000015"><a xlink:href="include_8h.html" target="_top" xlink:title=" ">
<polygon fill="white" stroke="#666666" points="454.12,-129.75 369.88,-129.75 369.88,-110.5 454.12,-110.5 454.12,-129.75"/>
<text xml:space="preserve" text-anchor="middle" x="412" y="-116.25" font-family="Helvetica,sans-Serif" font-size="10.00">wasm/include.h</text>
</a>
</g>
</g>
<!-- Node12&#45;&gt;Node15 -->
<g id="edge14_Node000012_Node000015" class="edge">
<title>Node12&#45;&gt;Node15</title>
<g id="a_edge14_Node000012_Node000015"><a xlink:title=" ">
<path fill="none" stroke="#63b8ff" d="M392.8,-165.58C395.74,-158.76 399.94,-149.06 403.65,-140.45"/>
<polygon fill="#63b8ff" stroke="#63b8ff" points="406.77,-142.07 407.52,-131.5 400.34,-139.29 406.77,-142.07"/>
</a>
</g>
</g>
<!-- Node16 -->
<g id="Node000016" class="node">
<title>Node16</title>
<g id="a_Node000016"><a xlink:href="napi_8h.html" target="_top" xlink:title=" ">
<polygon fill="white" stroke="#666666" points="352.12,-129.75 309.88,-129.75 309.88,-110.5 352.12,-110.5 352.12,-129.75"/>
<text xml:space="preserve" text-anchor="middle" x="331" y="-116.25" font-family="Helvetica,sans-Serif" font-size="10.00">napi.h</text>
</a>
</g>
</g>
<!-- Node12&#45;&gt;Node16 -->
<g id="edge15_Node000012_Node000016" class="edge">
<title>Node12&#45;&gt;Node16</title>
<g id="a_edge15_Node000012_Node000016"><a xlink:title=" ">
<path fill="none" stroke="#63b8ff" d="M379.16,-165.34C370.95,-157.8 359.02,-146.85 349.09,-137.73"/>
<polygon fill="#63b8ff" stroke="#63b8ff" points="351.54,-135.23 341.81,-131.05 346.81,-140.39 351.54,-135.23"/>
</a>
</g>
</g>
<!-- Node19 -->
<g id="Node000019" class="node">
<title>Node19</title>
<g id="a_Node000019"><a xlink:title=" ">
<polygon fill="#e0e0e0" stroke="#999999" points="691.5,-74.5 648.5,-74.5 648.5,-55.25 691.5,-55.25 691.5,-74.5"/>
<text xml:space="preserve" text-anchor="middle" x="670" y="-61" font-family="Helvetica,sans-Serif" font-size="10.00">mutex</text>
</a>
</g>
</g>
<!-- Node12&#45;&gt;Node19 -->
<g id="edge29_Node000012_Node000019" class="edge">
<title>Node12&#45;&gt;Node19</title>
<g id="a_edge29_Node000012_Node000019"><a xlink:title=" ">
<path fill="none" stroke="#63b8ff" d="M416.92,-167.04C446.41,-159 494.08,-145.18 534,-129.75 572.66,-114.81 615.73,-93.8 642.84,-80.02"/>
<polygon fill="#63b8ff" stroke="#63b8ff" points="644.09,-83.31 651.39,-75.64 640.9,-77.08 644.09,-83.31"/>
</a>
</g>
</g>
<!-- Node27 -->
<g id="Node000027" class="node">
<title>Node27</title>
<g id="a_Node000027"><a xlink:title=" ">
<polygon fill="#e0e0e0" stroke="#999999" points="507.38,-129.75 472.62,-129.75 472.62,-110.5 507.38,-110.5 507.38,-129.75"/>
<text xml:space="preserve" text-anchor="middle" x="490" y="-116.25" font-family="Helvetica,sans-Serif" font-size="10.00">map</text>
</a>
</g>
</g>
<!-- Node12&#45;&gt;Node27 -->
<g id="edge30_Node000012_Node000027" class="edge">
<title>Node12&#45;&gt;Node27</title>
<g id="a_edge30_Node000012_Node000027"><a xlink:title=" ">
<path fill="none" stroke="#63b8ff" d="M406.13,-165.34C421.66,-157.16 444.8,-144.96 462.84,-135.44"/>
<polygon fill="#63b8ff" stroke="#63b8ff" points="464.23,-138.67 471.44,-130.91 460.97,-132.48 464.23,-138.67"/>
</a>
</g>
</g>
<!-- Node28 -->
<g id="Node000028" class="node">
<title>Node28</title>
<g id="a_Node000028"><a xlink:title=" ">
<polygon fill="#e0e0e0" stroke="#999999" points="291.88,-129.75 242.12,-129.75 242.12,-110.5 291.88,-110.5 291.88,-129.75"/>
<text xml:space="preserve" text-anchor="middle" x="267" y="-116.25" font-family="Helvetica,sans-Serif" font-size="10.00">optional</text>
</a>
</g>
</g>
<!-- Node12&#45;&gt;Node28 -->
<g id="edge31_Node000012_Node000028" class="edge">
<title>Node12&#45;&gt;Node28</title>
<g id="a_edge31_Node000012_Node000028"><a xlink:title=" ">
<path fill="none" stroke="#63b8ff" d="M368.3,-165.34C349.11,-156.97 320.29,-144.38 298.28,-134.78"/>
<polygon fill="#63b8ff" stroke="#63b8ff" points="299.75,-131.6 289.18,-130.81 296.95,-138.02 299.75,-131.6"/>
</a>
</g>
</g>
<!-- Node16&#45;&gt;Node2 -->
<g id="edge19_Node000016_Node000002" class="edge">
<title>Node16&#45;&gt;Node2</title>
<g id="a_edge19_Node000016_Node000002"><a xlink:title=" ">
<path fill="none" stroke="#63b8ff" d="M309.38,-112.87C306.56,-112.07 303.71,-111.26 301,-110.5 257.79,-98.37 208.02,-84.81 174.96,-75.85"/>
<polygon fill="#63b8ff" stroke="#63b8ff" points="176.03,-72.51 165.46,-73.28 174.2,-79.27 176.03,-72.51"/>
</a>
</g>
</g>
<!-- Node16&#45;&gt;Node13 -->
<g id="edge21_Node000016_Node000013" class="edge">
<title>Node16&#45;&gt;Node13</title>
<g id="a_edge21_Node000016_Node000013"><a xlink:title=" ">
<path fill="none" stroke="#63b8ff" d="M310.3,-110.09C291,-101.66 261.94,-88.98 239.89,-79.36"/>
<polygon fill="#63b8ff" stroke="#63b8ff" points="241.34,-76.17 230.78,-75.38 238.54,-82.59 241.34,-76.17"/>
</a>
</g>
</g>
<!-- Node16&#45;&gt;Node14 -->
<g id="edge16_Node000016_Node000014" class="edge">
<title>Node16&#45;&gt;Node14</title>
<g id="a_edge16_Node000016_Node000014"><a xlink:title=" ">
<path fill="none" stroke="#63b8ff" d="M352.62,-112.88C355.44,-112.08 358.29,-111.27 361,-110.5 400.95,-99.22 446.56,-86.6 479,-77.67"/>
<polygon fill="#63b8ff" stroke="#63b8ff" points="479.73,-81.1 488.44,-75.08 477.87,-74.35 479.73,-81.1"/>
</a>
</g>
</g>
<!-- Node17 -->
<g id="Node000017" class="node">
<title>Node17</title>
<g id="a_Node000017"><a xlink:title=" ">
<polygon fill="#e0e0e0" stroke="#999999" points="630,-74.5 572,-74.5 572,-55.25 630,-55.25 630,-74.5"/>
<text xml:space="preserve" text-anchor="middle" x="601" y="-61" font-family="Helvetica,sans-Serif" font-size="10.00">functional</text>
</a>
</g>
</g>
<!-- Node16&#45;&gt;Node17 -->
<g id="edge17_Node000016_Node000017" class="edge">
<title>Node16&#45;&gt;Node17</title>
<g id="a_edge17_Node000016_Node000017"><a xlink:title=" ">
<path fill="none" stroke="#63b8ff" d="M352.56,-112.64C355.39,-111.87 358.25,-111.14 361,-110.5 446.36,-90.68 471.66,-92.42 560.42,-74.93"/>
<polygon fill="#63b8ff" stroke="#63b8ff" points="560.97,-78.39 570.09,-72.99 559.59,-71.53 560.97,-78.39"/>
</a>
</g>
</g>
<!-- Node18 -->
<g id="Node000018" class="node">
<title>Node18</title>
<g id="a_Node000018"><a xlink:title=" ">
<polygon fill="#e0e0e0" stroke="#999999" points="454.12,-74.5 381.88,-74.5 381.88,-55.25 454.12,-55.25 454.12,-74.5"/>
<text xml:space="preserve" text-anchor="middle" x="418" y="-61" font-family="Helvetica,sans-Serif" font-size="10.00">initializer_list</text>
</a>
</g>
</g>
<!-- Node16&#45;&gt;Node18 -->
<g id="edge18_Node000016_Node000018" class="edge">
<title>Node16&#45;&gt;Node18</title>
<g id="a_edge18_Node000016_Node000018"><a xlink:title=" ">
<path fill="none" stroke="#63b8ff" d="M345.76,-110.09C358.88,-102.06 378.32,-90.16 393.73,-80.73"/>
<polygon fill="#63b8ff" stroke="#63b8ff" points="395.18,-83.95 401.88,-75.74 391.52,-77.98 395.18,-83.95"/>
</a>
</g>
</g>
<!-- Node16&#45;&gt;Node19 -->
<g id="edge20_Node000016_Node000019" class="edge">
<title>Node16&#45;&gt;Node19</title>
<g id="a_edge20_Node000016_Node000019"><a xlink:title=" ">
<path fill="none" stroke="#63b8ff" d="M352.53,-112.51C355.36,-111.77 358.24,-111.07 361,-110.5 479.42,-85.96 514.84,-98.47 636.79,-74.65"/>
<polygon fill="#63b8ff" stroke="#63b8ff" points="637.48,-78.08 646.59,-72.69 636.1,-71.22 637.48,-78.08"/>
</a>
</g>
</g>
<!-- Node20 -->
<g id="Node000020" class="node">
<title>Node20</title>
<g id="a_Node000020"><a xlink:title=" ">
<polygon fill="#e0e0e0" stroke="#999999" points="290.5,-74.5 247.5,-74.5 247.5,-55.25 290.5,-55.25 290.5,-74.5"/>
<text xml:space="preserve" text-anchor="middle" x="269" y="-61" font-family="Helvetica,sans-Serif" font-size="10.00">vector</text>
</a>
</g>
</g>
<!-- Node16&#45;&gt;Node20 -->
<g id="edge22_Node000016_Node000020" class="edge">
<title>Node16&#45;&gt;Node20</title>
<g id="a_edge22_Node000016_Node000020"><a xlink:title=" ">
<path fill="none" stroke="#63b8ff" d="M320.48,-110.09C311.61,-102.47 298.69,-91.37 288.01,-82.2"/>
<polygon fill="#63b8ff" stroke="#63b8ff" points="290.38,-79.62 280.51,-75.76 285.82,-84.93 290.38,-79.62"/>
</a>
</g>
</g>
<!-- Node21 -->
<g id="Node000021" class="node">
<title>Node21</title>
<g id="a_Node000021"><a xlink:href="napi-inl_8h.html" target="_top" xlink:title=" ">
<polygon fill="white" stroke="#666666" points="363.5,-74.5 308.5,-74.5 308.5,-55.25 363.5,-55.25 363.5,-74.5"/>
<text xml:space="preserve" text-anchor="middle" x="336" y="-61" font-family="Helvetica,sans-Serif" font-size="10.00">napi&#45;inl.h</text>
</a>
</g>
</g>
<!-- Node16&#45;&gt;Node21 -->
<g id="edge23_Node000016_Node000021" class="edge">
<title>Node16&#45;&gt;Node21</title>
<g id="a_edge23_Node000016_Node000021"><a xlink:title=" ">
<path fill="none" stroke="#63b8ff" d="M331.83,-110.33C332.44,-103.74 333.32,-94.46 334.1,-86.07"/>
<polygon fill="#63b8ff" stroke="#63b8ff" points="337.56,-86.65 335.01,-76.37 330.6,-86 337.56,-86.65"/>
</a>
</g>
</g>
<!-- Node22 -->
<g id="Node000022" class="node">
<title>Node22</title>
<g id="a_Node000022"><a xlink:title=" ">
<polygon fill="#e0e0e0" stroke="#999999" points="222.88,-19.25 167.12,-19.25 167.12,0 222.88,0 222.88,-19.25"/>
<text xml:space="preserve" text-anchor="middle" x="195" y="-5.75" font-family="Helvetica,sans-Serif" font-size="10.00">algorithm</text>
</a>
</g>
</g>
<!-- Node21&#45;&gt;Node22 -->
<g id="edge24_Node000021_Node000022" class="edge">
<title>Node21&#45;&gt;Node22</title>
<g id="a_edge24_Node000021_Node000022"><a xlink:title=" ">
<path fill="none" stroke="#63b8ff" d="M312.08,-54.84C289.5,-46.31 255.36,-33.42 229.77,-23.76"/>
<polygon fill="#63b8ff" stroke="#63b8ff" points="231.04,-20.5 220.45,-20.24 228.57,-27.04 231.04,-20.5"/>
</a>
</g>
</g>
<!-- Node23 -->
<g id="Node000023" class="node">
<title>Node23</title>
<g id="a_Node000023"><a xlink:title=" ">
<polygon fill="#e0e0e0" stroke="#999999" points="286.62,-19.25 241.38,-19.25 241.38,0 286.62,0 286.62,-19.25"/>
<text xml:space="preserve" text-anchor="middle" x="264" y="-5.75" font-family="Helvetica,sans-Serif" font-size="10.00">cstring</text>
</a>
</g>
</g>
<!-- Node21&#45;&gt;Node23 -->
<g id="edge25_Node000021_Node000023" class="edge">
<title>Node21&#45;&gt;Node23</title>
<g id="a_edge25_Node000021_Node000023"><a xlink:title=" ">
<path fill="none" stroke="#63b8ff" d="M323.79,-54.84C313.17,-46.99 297.56,-35.45 284.96,-26.12"/>
<polygon fill="#63b8ff" stroke="#63b8ff" points="287.37,-23.56 277.25,-20.42 283.21,-29.19 287.37,-23.56"/>
</a>
</g>
</g>
<!-- Node24 -->
<g id="Node000024" class="node">
<title>Node24</title>
<g id="a_Node000024"><a xlink:title=" ">
<polygon fill="#e0e0e0" stroke="#999999" points="366.88,-19.25 305.12,-19.25 305.12,0 366.88,0 366.88,-19.25"/>
<text xml:space="preserve" text-anchor="middle" x="336" y="-5.75" font-family="Helvetica,sans-Serif" font-size="10.00">type_traits</text>
</a>
</g>
</g>
<!-- Node21&#45;&gt;Node24 -->
<g id="edge26_Node000021_Node000024" class="edge">
<title>Node21&#45;&gt;Node24</title>
<g id="a_edge26_Node000021_Node000024"><a xlink:title=" ">
<path fill="none" stroke="#63b8ff" d="M336,-55.08C336,-48.57 336,-39.42 336,-31.12"/>
<polygon fill="#63b8ff" stroke="#63b8ff" points="339.5,-31.12 336,-21.12 332.5,-31.12 339.5,-31.12"/>
</a>
</g>
</g>
<!-- Node25 -->
<g id="Node000025" class="node">
<title>Node25</title>
<g id="a_Node000025"><a xlink:title=" ">
<polygon fill="#e0e0e0" stroke="#999999" points="424.62,-19.25 385.38,-19.25 385.38,0 424.62,0 424.62,-19.25"/>
<text xml:space="preserve" text-anchor="middle" x="405" y="-5.75" font-family="Helvetica,sans-Serif" font-size="10.00">utility</text>
</a>
</g>
</g>
<!-- Node21&#45;&gt;Node25 -->
<g id="edge27_Node000021_Node000025" class="edge">
<title>Node21&#45;&gt;Node25</title>
<g id="a_edge27_Node000021_Node000025"><a xlink:title=" ">
<path fill="none" stroke="#63b8ff" d="M347.7,-54.84C357.78,-47.07 372.54,-35.67 384.56,-26.4"/>
<polygon fill="#63b8ff" stroke="#63b8ff" points="386.49,-29.33 392.27,-20.45 382.21,-23.79 386.49,-29.33"/>
</a>
</g>
</g>
<!-- Node26 -->
<g id="Node000026" class="node">
<title>Node26</title>
<g id="a_Node000026"><a xlink:href="napi-inl_8deprecated_8h.html" target="_top" xlink:title=" ">
<polygon fill="white" stroke="#666666" points="549,-19.25 443,-19.25 443,0 549,0 549,-19.25"/>
<text xml:space="preserve" text-anchor="middle" x="496" y="-5.75" font-family="Helvetica,sans-Serif" font-size="10.00">napi&#45;inl.deprecated.h</text>
</a>
</g>
</g>
<!-- Node21&#45;&gt;Node26 -->
<g id="edge28_Node000021_Node000026" class="edge">
<title>Node21&#45;&gt;Node26</title>
<g id="a_edge28_Node000021_Node000026"><a xlink:title=" ">
<path fill="none" stroke="#63b8ff" d="M363.14,-54.84C389.23,-46.16 428.9,-32.96 458.1,-23.24"/>
<polygon fill="#63b8ff" stroke="#63b8ff" points="458.91,-26.66 467.29,-20.18 456.7,-20.02 458.91,-26.66"/>
</a>
</g>
</g>
<!-- Node29&#45;&gt;Node12 -->
<g id="edge40_Node000029_Node000012" class="edge">
<title>Node29&#45;&gt;Node12</title>
<g id="a_edge40_Node000029_Node000012"><a xlink:title=" ">
<path fill="none" stroke="#63b8ff" d="M496.18,-275.85C480.48,-267.79 457.99,-255.01 441,-240.25 425.51,-226.8 411.06,-208.37 401.34,-194.76"/>
<polygon fill="#63b8ff" stroke="#63b8ff" points="404.32,-192.93 395.75,-186.7 398.57,-196.92 404.32,-192.93"/>
</a>
</g>
</g>
<!-- Node29&#45;&gt;Node14 -->
<g id="edge36_Node000029_Node000014" class="edge">
<title>Node29&#45;&gt;Node14</title>
<g id="a_edge36_Node000029_Node000014"><a xlink:title=" ">
<path fill="none" stroke="#63b8ff" d="M509.9,-275.89C500.55,-258.83 480.97,-220.31 474,-185 472.34,-176.61 469.78,-173.2 474,-165.75 489.32,-138.69 518.68,-156.81 534,-129.75 541.74,-116.08 537.51,-98.39 532.04,-85.09"/>
<polygon fill="#63b8ff" stroke="#63b8ff" points="535.25,-83.68 527.83,-76.12 528.91,-86.66 535.25,-83.68"/>
</a>
</g>
</g>
<!-- Node30 -->
<g id="Node000030" class="node">
<title>Node30</title>
<g id="a_Node000030"><a xlink:title=" ">
<polygon fill="#e0e0e0" stroke="#999999" points="777,-129.75 683,-129.75 683,-110.5 777,-110.5 777,-129.75"/>
<text xml:space="preserve" text-anchor="middle" x="730" y="-116.25" font-family="Helvetica,sans-Serif" font-size="10.00">condition_variable</text>
</a>
</g>
</g>
<!-- Node29&#45;&gt;Node30 -->
<g id="edge33_Node000029_Node000030" class="edge">
<title>Node29&#45;&gt;Node30</title>
<g id="a_edge33_Node000029_Node000030"><a xlink:title=" ">
<path fill="none" stroke="#63b8ff" d="M547.76,-276.55C571.51,-269.47 603.61,-257.64 628,-240.25 667.55,-212.05 701.52,-165.29 718.47,-139.55"/>
<polygon fill="#63b8ff" stroke="#63b8ff" points="721.2,-141.78 723.66,-131.48 715.31,-137.99 721.2,-141.78"/>
</a>
</g>
</g>
<!-- Node31 -->
<g id="Node000031" class="node">
<title>Node31</title>
<g id="a_Node000031"><a xlink:title=" ">
<polygon fill="#e0e0e0" stroke="#999999" points="560.75,-185 483.25,-185 483.25,-165.75 560.75,-165.75 560.75,-185"/>
<text xml:space="preserve" text-anchor="middle" x="522" y="-171.5" font-family="Helvetica,sans-Serif" font-size="10.00">unordered_set</text>
</a>
</g>
</g>
<!-- Node29&#45;&gt;Node31 -->
<g id="edge34_Node000029_Node000031" class="edge">
<title>Node29&#45;&gt;Node31</title>
<g id="a_edge34_Node000029_Node000031"><a xlink:title=" ">
<path fill="none" stroke="#63b8ff" d="M513.73,-276.17C512.13,-263.85 509.83,-240.64 512,-221 512.91,-212.81 514.72,-203.93 516.56,-196.26"/>
<polygon fill="#63b8ff" stroke="#63b8ff" points="519.93,-197.19 519.05,-186.63 513.16,-195.44 519.93,-197.19"/>
</a>
</g>
</g>
<!-- Node32 -->
<g id="Node000032" class="node">
<title>Node32</title>
<g id="a_Node000032"><a xlink:title=" ">
<polygon fill="#e0e0e0" stroke="#999999" points="550.75,-240.25 521.25,-240.25 521.25,-221 550.75,-221 550.75,-240.25"/>
<text xml:space="preserve" text-anchor="middle" x="536" y="-226.75" font-family="Helvetica,sans-Serif" font-size="10.00">set</text>
</a>
</g>
</g>
<!-- Node29&#45;&gt;Node32 -->
<g id="edge35_Node000029_Node000032" class="edge">
<title>Node29&#45;&gt;Node32</title>
<g id="a_edge35_Node000029_Node000032"><a xlink:title=" ">
<path fill="none" stroke="#63b8ff" d="M518.47,-276.08C521.13,-269.34 524.9,-259.77 528.26,-251.24"/>
<polygon fill="#63b8ff" stroke="#63b8ff" points="531.49,-252.6 531.9,-242.02 524.98,-250.04 531.49,-252.6"/>
</a>
</g>
</g>
<!-- Node33 -->
<g id="Node000033" class="node">
<title>Node33</title>
<g id="a_Node000033"><a xlink:href="_glob_8hh.html" target="_top" xlink:title=" ">
<polygon fill="white" stroke="#666666" points="618.88,-240.25 569.12,-240.25 569.12,-221 618.88,-221 618.88,-240.25"/>
<text xml:space="preserve" text-anchor="middle" x="594" y="-226.75" font-family="Helvetica,sans-Serif" font-size="10.00">Glob.hh</text>
</a>
</g>
</g>
<!-- Node29&#45;&gt;Node33 -->
<g id="edge37_Node000029_Node000033" class="edge">
<title>Node29&#45;&gt;Node33</title>
<g id="a_edge37_Node000029_Node000033"><a xlink:title=" ">
<path fill="none" stroke="#63b8ff" d="M528.4,-275.84C540.09,-267.96 557.3,-256.36 571.16,-247.02"/>
<polygon fill="#63b8ff" stroke="#63b8ff" points="572.94,-250.04 579.28,-241.55 569.03,-244.24 572.94,-250.04"/>
</a>
</g>
</g>
<!-- Node35 -->
<g id="Node000035" class="node">
<title>Node35</title>
<g id="a_Node000035"><a xlink:href="_debounce_8hh.html" target="_top" xlink:title=" ">
<polygon fill="white" stroke="#666666" points="748.88,-240.25 675.12,-240.25 675.12,-221 748.88,-221 748.88,-240.25"/>
<text xml:space="preserve" text-anchor="middle" x="712" y="-226.75" font-family="Helvetica,sans-Serif" font-size="10.00">Debounce.hh</text>
</a>
</g>
</g>
<!-- Node29&#45;&gt;Node35 -->
<g id="edge41_Node000029_Node000035" class="edge">
<title>Node29&#45;&gt;Node35</title>
<g id="a_edge41_Node000029_Node000035"><a xlink:title=" ">
<path fill="none" stroke="#63b8ff" d="M547.53,-276.08C580.31,-267.22 631.14,-253.48 667.61,-243.62"/>
<polygon fill="#63b8ff" stroke="#63b8ff" points="668.23,-247.08 676.97,-241.09 666.4,-240.32 668.23,-247.08"/>
</a>
</g>
</g>
<!-- Node29&#45;&gt;Node37 -->
<g id="edge53_Node000029_Node000037" class="edge">
<title>Node29&#45;&gt;Node37</title>
<g id="a_edge53_Node000029_Node000037"><a xlink:title=" ">
<path fill="none" stroke="#63b8ff" d="M547.56,-285.5C596.45,-285.05 690.3,-278.68 758,-240.25 777.2,-229.35 793.09,-209.36 802.98,-194.64"/>
<polygon fill="#63b8ff" stroke="#63b8ff" points="805.85,-196.65 808.27,-186.33 799.94,-192.89 805.85,-196.65"/>
</a>
</g>
</g>
<!-- Node29&#45;&gt;Node38 -->
<g id="edge48_Node000029_Node000038" class="edge">
<title>Node29&#45;&gt;Node38</title>
<g id="a_edge48_Node000029_Node000038"><a xlink:title=" ">
<path fill="none" stroke="#63b8ff" d="M482.37,-279.02C428.4,-269.35 320.59,-250.02 260.66,-239.27"/>
<polygon fill="#63b8ff" stroke="#63b8ff" points="261.29,-235.83 250.83,-237.51 260.06,-242.72 261.29,-235.83"/>
</a>
</g>
</g>
<!-- Node33&#45;&gt;Node31 -->
<g id="edge38_Node000033_Node000031" class="edge">
<title>Node33&#45;&gt;Node31</title>
<g id="a_edge38_Node000033_Node000031"><a xlink:title=" ">
<path fill="none" stroke="#63b8ff" d="M581.79,-220.59C571.17,-212.74 555.56,-201.2 542.96,-191.87"/>
<polygon fill="#63b8ff" stroke="#63b8ff" points="545.37,-189.31 535.25,-186.17 541.21,-194.94 545.37,-189.31"/>
</a>
</g>
</g>
<!-- Node34 -->
<g id="Node000034" class="node">
<title>Node34</title>
<g id="a_Node000034"><a xlink:title=" ">
<polygon fill="#e0e0e0" stroke="#999999" points="619,-185 579,-185 579,-165.75 619,-165.75 619,-185"/>
<text xml:space="preserve" text-anchor="middle" x="599" y="-171.5" font-family="Helvetica,sans-Serif" font-size="10.00">regex</text>
</a>
</g>
</g>
<!-- Node33&#45;&gt;Node34 -->
<g id="edge39_Node000033_Node000034" class="edge">
<title>Node33&#45;&gt;Node34</title>
<g id="a_edge39_Node000033_Node000034"><a xlink:title=" ">
<path fill="none" stroke="#63b8ff" d="M594.83,-220.83C595.44,-214.24 596.32,-204.96 597.1,-196.57"/>
<polygon fill="#63b8ff" stroke="#63b8ff" points="600.56,-197.15 598.01,-186.87 593.6,-196.5 600.56,-197.15"/>
</a>
</g>
</g>
<!-- Node35&#45;&gt;Node8 -->
<g id="edge43_Node000035_Node000008" class="edge">
<title>Node35&#45;&gt;Node8</title>
<g id="a_edge43_Node000035_Node000008"><a xlink:title=" ">
<path fill="none" stroke="#63b8ff" d="M674.8,-225.62C660.21,-224.1 643.33,-222.4 628,-221 442.18,-204.04 221.27,-187.46 121.97,-180.2"/>
<polygon fill="#63b8ff" stroke="#63b8ff" points="122.49,-176.73 112.26,-179.49 121.98,-183.71 122.49,-176.73"/>
</a>
</g>
</g>
<!-- Node35&#45;&gt;Node17 -->
<g id="edge44_Node000035_Node000017" class="edge">
<title>Node35&#45;&gt;Node17</title>
<g id="a_edge44_Node000035_Node000017"><a xlink:title=" ">
<path fill="none" stroke="#63b8ff" d="M706.03,-220.82C688.57,-195.05 637.28,-119.4 613.45,-84.24"/>
<polygon fill="#63b8ff" stroke="#63b8ff" points="616.35,-82.29 607.85,-75.98 610.56,-86.22 616.35,-82.29"/>
</a>
</g>
</g>
<!-- Node35&#45;&gt;Node36 -->
<g id="edge42_Node000035_Node000036" class="edge">
<title>Node35&#45;&gt;Node36</title>
<g id="a_edge42_Node000035_Node000036"><a xlink:title=" ">
<path fill="none" stroke="#63b8ff" d="M717.12,-220.83C721.18,-213.86 726.99,-203.87 732.09,-195.12"/>
<polygon fill="#63b8ff" stroke="#63b8ff" points="735,-197.07 737.01,-186.67 728.95,-193.55 735,-197.07"/>
</a>
</g>
</g>
<!-- Node35&#45;&gt;Node37 -->
<g id="edge45_Node000035_Node000037" class="edge">
<title>Node35&#45;&gt;Node37</title>
<g id="a_edge45_Node000035_Node000037"><a xlink:title=" ">
<path fill="none" stroke="#63b8ff" d="M729.3,-220.59C744.98,-212.41 768.35,-200.21 786.58,-190.69"/>
<polygon fill="#63b8ff" stroke="#63b8ff" points="788.03,-193.88 795.27,-186.15 784.79,-187.68 788.03,-193.88"/>
</a>
</g>
</g>
<!-- Node37&#45;&gt;Node19 -->
<g id="edge46_Node000037_Node000019" class="edge">
<title>Node37&#45;&gt;Node19</title>
<g id="a_edge46_Node000037_Node000019"><a xlink:title=" ">
<path fill="none" stroke="#63b8ff" d="M812.33,-165.26C809.36,-151.58 801.94,-125.72 786,-110.5 763.13,-88.66 728.43,-77.2 702.94,-71.39"/>
<polygon fill="#63b8ff" stroke="#63b8ff" points="703.93,-68.03 693.43,-69.42 702.51,-74.88 703.93,-68.03"/>
</a>
</g>
</g>
<!-- Node37&#45;&gt;Node30 -->
<g id="edge47_Node000037_Node000030" class="edge">
<title>Node37&#45;&gt;Node30</title>
<g id="a_edge47_Node000037_Node000030"><a xlink:title=" ">
<path fill="none" stroke="#63b8ff" d="M799.75,-165.34C787.2,-157.39 768.67,-145.64 753.86,-136.25"/>
<polygon fill="#63b8ff" stroke="#63b8ff" points="755.92,-133.41 745.6,-131.01 752.17,-139.32 755.92,-133.41"/>
</a>
</g>
</g>
<!-- Node38&#45;&gt;Node2 -->
<g id="edge51_Node000038_Node000002" class="edge">
<title>Node38&#45;&gt;Node2</title>
<g id="a_edge51_Node000038_Node000002"><a xlink:title=" ">
<path fill="none" stroke="#63b8ff" d="M213.7,-220.82C201.16,-195.17 164.47,-120.05 147.19,-84.69"/>
<polygon fill="#63b8ff" stroke="#63b8ff" points="150.52,-83.53 142.99,-76.08 144.23,-86.6 150.52,-83.53"/>
</a>
</g>
</g>
<!-- Node38&#45;&gt;Node8 -->
<g id="edge50_Node000038_Node000008" class="edge">
<title>Node38&#45;&gt;Node8</title>
<g id="a_edge50_Node000038_Node000008"><a xlink:title=" ">
<path fill="none" stroke="#63b8ff" d="M192.72,-220.59C168.64,-211.99 132.14,-198.94 105.02,-189.25"/>
<polygon fill="#63b8ff" stroke="#63b8ff" points="106.42,-186.03 95.83,-185.96 104.06,-192.62 106.42,-186.03"/>
</a>
</g>
</g>
<!-- Node38&#45;&gt;Node12 -->
<g id="edge52_Node000038_Node000012" class="edge">
<title>Node38&#45;&gt;Node12</title>
<g id="a_edge52_Node000038_Node000012"><a xlink:title=" ">
<path fill="none" stroke="#63b8ff" d="M247.01,-220.59C275.44,-211.74 318.95,-198.19 350.31,-188.42"/>
<polygon fill="#63b8ff" stroke="#63b8ff" points="351.32,-191.78 359.82,-185.46 349.24,-185.09 351.32,-191.78"/>
</a>
</g>
</g>
<!-- Node38&#45;&gt;Node13 -->
<g id="edge49_Node000038_Node000013" class="edge">
<title>Node38&#45;&gt;Node13</title>
<g id="a_edge49_Node000038_Node000013"><a xlink:title=" ">
<path fill="none" stroke="#63b8ff" d="M217.52,-220.82C216.12,-195.5 212.08,-122 210.11,-86.09"/>
<polygon fill="#63b8ff" stroke="#63b8ff" points="213.61,-86.03 209.57,-76.23 206.62,-86.41 213.61,-86.03"/>
</a>
</g>
</g>
</g>
</svg>

<g id="navigator" transform="translate(0 0)" fill="#404254">
  <rect fill="#f2f5e9" fill-opacity="0.5" stroke="#606060" stroke-width=".5" x="0" y="0" width="60" height="60"/>
  <use id="zoomplus" xlink:href="#zoomPlus" x="17" y="9" onmousedown="handleZoom(evt,'in')"/>
  <use id="zoomminus" xlink:href="#zoomMin" x="42" y="9" onmousedown="handleZoom(evt,'out')"/>
  <use id="reset" xlink:href="#resetDef" x="30" y="36" onmousedown="handleReset()"/>
   <use id="arrowup" xlink:href="#arrowUp" x="0" y="0" onmousedown="handlePan(0,-1)"/>
  <use id="arrowright" xlink:href="#arrowRight" x="0" y="0" onmousedown="handlePan(1,0)"/>
  <use id="arrowdown" xlink:href="#arrowDown" x="0" y="0" onmousedown="handlePan(0,1)"/>
  <use id="arrowleft" xlink:href="#arrowLeft" x="0" y="0" onmousedown="handlePan(-1,0)"/>
</g>
<svg viewBox="0 0 15 15" width="100%" height="30px" preserveAspectRatio="xMaxYMin meet">
 <g id="arrow_out" transform="scale(0.3 0.3)">
  <a xlink:href="_inotify_backend_8cc__incl_org.svg" target="_base">
   <rect id="button" ry="5" rx="5" y="6" x="6" height="38" width="38"
        fill="#f2f5e9" fill-opacity="0.5" stroke="#606060" stroke-width="1.0"/>
   <path id="arrow"
     d="M 11.500037,31.436501 C 11.940474,20.09759 22.043105,11.32322 32.158766,21.979434 L 37.068811,17.246167 C 37.068811,17.246167 37.088388,32 37.088388,32 L 22.160133,31.978069 C 22.160133,31.978069 26.997745,27.140456 26.997745,27.140456 C 18.528582,18.264221 13.291696,25.230495 11.500037,31.436501 z"
     style="fill:#404040;"/>
  </a>
 </g>
</svg>

<style type='text/css'>
<![CDATA[
[data-mouse-over-selected='false'] { opacity: 0.7; }
[data-mouse-over-selected='true']  { opacity: 1.0; }
]]>
</style>
<script type="application/ecmascript"><![CDATA[
document.addEventListener('DOMContentLoaded', (event) => {
  highlightEdges();
  highlightAdjacentNodes();
});
]]></script>
</svg>
