<?xml version="1.0" encoding="UTF-8" standalone="no"?>
<!DOCTYPE svg PUBLIC "-//W3C//DTD SVG 1.1//EN"
 "http://www.w3.org/Graphics/SVG/1.1/DTD/svg11.dtd">
<!-- Generated by graphviz version 14.0.4 (20251115.1723)
 -->
<!-- Title: frontend/node_modules/@parcel/watcher/src/kqueue/KqueueBackend.hh Pages: 1 -->
<!--zoomable 492 -->

<svg id="main" version="1.1" xmlns="http://www.w3.org/2000/svg" xmlns:xlink="http://www.w3.org/1999/xlink" xml:space="preserve" onload="init(evt)">

<style type="text/css"><![CDATA[
.node, .edge {opacity: 0.7;}
.node.selected, .edge.selected {opacity: 1;}
.edge:hover path { stroke: red; }
.edge:hover polygon { stroke: red; fill: red; }
]]></style>

<defs>
  <circle id="rim" cx="0" cy="0" r="7"/>
  <circle id="rim2" cx="0" cy="0" r="3.5"/>
  <g id="zoomPlus">
    <use xlink:href="#rim" fill="#404040"><set attributeName="fill" to="#808080" begin="zoomplus.mouseover" end="zoomplus.mouseout"/></use>
    <path d="M-4,0h8M0,-4v8" fill="none" stroke="white" stroke-width="1.5" pointer-events="none"/>
  </g>
  <g id="zoomMin">
    <use xlink:href="#rim" fill="#404040"><set attributeName="fill" to="#808080" begin="zoomminus.mouseover" end="zoomminus.mouseout"/></use>
    <path d="M-4,0h8" fill="none" stroke="white" stroke-width="1.5" pointer-events="none"/>
  </g>
  <g id="arrowUp" transform="translate(30 24)">
    <use xlink:href="#rim"/>
    <path pointer-events="none" fill="none" stroke="white" stroke-width="1.5" d="M0,-3.0v7 M-2.5,-0.5L0,-3.0L2.5,-0.5"/>
  </g>
  <g id="arrowRight" transform="rotate(90) translate(36 -43)">
    <use xlink:href="#rim"/>
    <path pointer-events="none" fill="none" stroke="white" stroke-width="1.5" d="M0,-3.0v7 M-2.5,-0.5L0,-3.0L2.5,-0.5"/>
  </g>
  <g id="arrowDown" transform="rotate(180) translate(-30 -48)">
    <use xlink:href="#rim"/>
    <path pointer-events="none" fill="none" stroke="white" stroke-width="1.5" d="M0,-3.0v7 M-2.5,-0.5L0,-3.0L2.5,-0.5"/>
  </g>
  <g id="arrowLeft" transform="rotate(270) translate(-36 17)">
    <use xlink:href="#rim"/>
    <path pointer-events="none" fill="none" stroke="white" stroke-width="1.5" d="M0,-3.0v7 M-2.5,-0.5L0,-3.0L2.5,-0.5"/>
  </g>
  <g id="resetDef">
    <use xlink:href="#rim2" fill="#404040"><set attributeName="fill" to="#808080" begin="reset.mouseover" end="reset.mouseout"/></use>
  </g>
</defs>
<script type="application/ecmascript">
var viewWidth = 821;
var viewHeight = 492;
var sectionId = 'dynsection-0';
</script>
<script type="application/ecmascript" xlink:href="svg.min.js"/>
<svg id="graph" class="graph">
<g id="viewport">
<title>frontend/node_modules/@parcel/watcher/src/kqueue/KqueueBackend.hh</title>
<!-- Node1 -->
<g id="Node000001" class="node">
<title>Node1</title>
<g id="a_Node000001"><a xlink:title=" ">
<polygon fill="#999999" stroke="#666666" points="398.71,-483.75 260.46,-483.75 260.46,-442 398.71,-442 398.71,-483.75"/>
<text xml:space="preserve" text-anchor="start" x="268.46" y="-470.25" font-family="Helvetica,sans-Serif" font-size="10.00">frontend/node_modules</text>
<text xml:space="preserve" text-anchor="start" x="268.46" y="-459" font-family="Helvetica,sans-Serif" font-size="10.00">/@parcel/watcher/src</text>
<text xml:space="preserve" text-anchor="middle" x="329.59" y="-447.75" font-family="Helvetica,sans-Serif" font-size="10.00">/kqueue/KqueueBackend.hh</text>
</a>
</g>
</g>
<!-- Node2 -->
<g id="Node000002" class="node">
<title>Node2</title>
<g id="a_Node000002"><a xlink:title=" ">
<polygon fill="#e0e0e0" stroke="#999999" points="101.96,-185 19.21,-185 19.21,-165.75 101.96,-165.75 101.96,-185"/>
<text xml:space="preserve" text-anchor="middle" x="60.59" y="-171.5" font-family="Helvetica,sans-Serif" font-size="10.00">unordered_map</text>
</a>
</g>
</g>
<!-- Node1&#45;&gt;Node2 -->
<g id="edge1_Node000001_Node000002" class="edge">
<title>Node1&#45;&gt;Node2</title>
<g id="a_edge1_Node000001_Node000002"><a xlink:title=" ">
<path fill="none" stroke="#63b8ff" d="M260.22,-459.38C182.01,-452.42 65.59,-427.68 65.59,-342.12 65.59,-342.12 65.59,-342.12 65.59,-284.88 65.59,-254.12 63.56,-218.52 62.09,-196.73"/>
<polygon fill="#63b8ff" stroke="#63b8ff" points="65.59,-196.61 61.39,-186.88 58.6,-197.1 65.59,-196.61"/>
</a>
</g>
</g>
<!-- Node3 -->
<g id="Node000003" class="node">
<title>Node3</title>
<g id="a_Node000003"><a xlink:title=" ">
<polygon fill="#e0e0e0" stroke="#999999" points="813.09,-406 746.09,-406 746.09,-386.75 813.09,-386.75 813.09,-406"/>
<text xml:space="preserve" text-anchor="middle" x="779.59" y="-392.5" font-family="Helvetica,sans-Serif" font-size="10.00">sys/event.h</text>
</a>
</g>
</g>
<!-- Node1&#45;&gt;Node3 -->
<g id="edge2_Node000001_Node000003" class="edge">
<title>Node1&#45;&gt;Node3</title>
<g id="a_edge2_Node000001_Node000003"><a xlink:title=" ">
<path fill="none" stroke="#63b8ff" d="M399.07,-453.07C479.31,-442.7 615.21,-424.54 731.59,-406 732.59,-405.84 733.61,-405.68 734.64,-405.51"/>
<polygon fill="#63b8ff" stroke="#63b8ff" points="735.02,-408.99 744.29,-403.87 733.85,-402.09 735.02,-408.99"/>
</a>
</g>
</g>
<!-- Node4 -->
<g id="Node000004" class="node">
<title>Node4</title>
<g id="a_Node000004"><a xlink:href="_brute_force_backend_8hh.html" target="_top" xlink:title=" ">
<polygon fill="white" stroke="#666666" points="408.09,-406 251.09,-406 251.09,-386.75 408.09,-386.75 408.09,-406"/>
<text xml:space="preserve" text-anchor="middle" x="329.59" y="-392.5" font-family="Helvetica,sans-Serif" font-size="10.00">../shared/BruteForceBackend.hh</text>
</a>
</g>
</g>
<!-- Node1&#45;&gt;Node4 -->
<g id="edge3_Node000001_Node000004" class="edge">
<title>Node1&#45;&gt;Node4</title>
<g id="a_edge3_Node000001_Node000004"><a xlink:title=" ">
<path fill="none" stroke="#63b8ff" d="M329.59,-441.82C329.59,-434.15 329.59,-425.39 329.59,-417.7"/>
<polygon fill="#63b8ff" stroke="#63b8ff" points="333.09,-417.96 329.59,-407.96 326.09,-417.96 333.09,-417.96"/>
</a>
</g>
</g>
<!-- Node32 -->
<g id="Node000032" class="node">
<title>Node32</title>
<g id="a_Node000032"><a xlink:href="_signal_8hh.html" target="_top" xlink:title=" ">
<polygon fill="white" stroke="#666666" points="707.84,-185 651.34,-185 651.34,-165.75 707.84,-165.75 707.84,-185"/>
<text xml:space="preserve" text-anchor="middle" x="679.59" y="-171.5" font-family="Helvetica,sans-Serif" font-size="10.00">Signal.hh</text>
</a>
</g>
</g>
<!-- Node1&#45;&gt;Node32 -->
<g id="edge53_Node000001_Node000032" class="edge">
<title>Node1&#45;&gt;Node32</title>
<g id="a_edge53_Node000001_Node000032"><a xlink:title=" ">
<path fill="none" stroke="#63b8ff" d="M398.95,-454.83C510.56,-441.55 717.59,-408.04 717.59,-342.12 717.59,-342.12 717.59,-342.12 717.59,-284.88 717.59,-251.88 701.75,-216.26 690.52,-195.16"/>
<polygon fill="#63b8ff" stroke="#63b8ff" points="693.68,-193.65 685.77,-186.61 687.57,-197.05 693.68,-193.65"/>
</a>
</g>
</g>
<!-- Node33 -->
<g id="Node000033" class="node">
<title>Node33</title>
<g id="a_Node000033"><a xlink:href="_dir_tree_8hh.html" target="_top" xlink:title=" ">
<polygon fill="white" stroke="#666666" points="160.46,-240.25 98.71,-240.25 98.71,-221 160.46,-221 160.46,-240.25"/>
<text xml:space="preserve" text-anchor="middle" x="129.59" y="-226.75" font-family="Helvetica,sans-Serif" font-size="10.00">DirTree.hh</text>
</a>
</g>
</g>
<!-- Node1&#45;&gt;Node33 -->
<g id="edge52_Node000001_Node000033" class="edge">
<title>Node1&#45;&gt;Node33</title>
<g id="a_edge52_Node000001_Node000033"><a xlink:title=" ">
<path fill="none" stroke="#63b8ff" d="M290.62,-441.68C274.61,-432.21 256.58,-419.93 242.59,-406 193.9,-357.51 155.11,-284.65 138.44,-250.52"/>
<polygon fill="#63b8ff" stroke="#63b8ff" points="141.78,-249.4 134.31,-241.89 135.47,-252.42 141.78,-249.4"/>
</a>
</g>
</g>
<!-- Node5 -->
<g id="Node000005" class="node">
<title>Node5</title>
<g id="a_Node000005"><a xlink:href="_backend_8hh.html" target="_top" xlink:title=" ">
<polygon fill="white" stroke="#666666" points="433.96,-350.75 357.21,-350.75 357.21,-331.5 433.96,-331.5 433.96,-350.75"/>
<text xml:space="preserve" text-anchor="middle" x="395.59" y="-337.25" font-family="Helvetica,sans-Serif" font-size="10.00">../Backend.hh</text>
</a>
</g>
</g>
<!-- Node4&#45;&gt;Node5 -->
<g id="edge4_Node000004_Node000005" class="edge">
<title>Node4&#45;&gt;Node5</title>
<g id="a_edge4_Node000004_Node000005"><a xlink:title=" ">
<path fill="none" stroke="#63b8ff" d="M340.78,-386.34C350.32,-378.65 364.26,-367.4 375.69,-358.18"/>
<polygon fill="#63b8ff" stroke="#63b8ff" points="377.79,-360.98 383.38,-351.98 373.4,-355.53 377.79,-360.98"/>
</a>
</g>
</g>
<!-- Node24 -->
<g id="Node000024" class="node">
<title>Node24</title>
<g id="a_Node000024"><a xlink:href="_watcher_8hh.html" target="_top" xlink:title=" ">
<polygon fill="white" stroke="#666666" points="394.96,-295.5 330.21,-295.5 330.21,-276.25 394.96,-276.25 394.96,-295.5"/>
<text xml:space="preserve" text-anchor="middle" x="362.59" y="-282" font-family="Helvetica,sans-Serif" font-size="10.00">Watcher.hh</text>
</a>
</g>
</g>
<!-- Node4&#45;&gt;Node24 -->
<g id="edge51_Node000004_Node000024" class="edge">
<title>Node4&#45;&gt;Node24</title>
<g id="a_edge51_Node000004_Node000024"><a xlink:title=" ">
<path fill="none" stroke="#63b8ff" d="M332.25,-386.27C335.89,-373.86 342.64,-350.97 348.59,-331.5 351.08,-323.35 353.88,-314.37 356.32,-306.63"/>
<polygon fill="#63b8ff" stroke="#63b8ff" points="359.63,-307.79 359.3,-297.2 352.95,-305.68 359.63,-307.79"/>
</a>
</g>
</g>
<!-- Node4&#45;&gt;Node33 -->
<g id="edge50_Node000004_Node000033" class="edge">
<title>Node4&#45;&gt;Node33</title>
<g id="a_edge50_Node000004_Node000033"><a xlink:title=" ">
<path fill="none" stroke="#63b8ff" d="M318.55,-386.34C286.1,-359.77 190.7,-281.66 149.22,-247.7"/>
<polygon fill="#63b8ff" stroke="#63b8ff" points="151.47,-245.02 141.52,-241.39 147.04,-250.44 151.47,-245.02"/>
</a>
</g>
</g>
<!-- Node6 -->
<g id="Node000006" class="node">
<title>Node6</title>
<g id="a_Node000006"><a xlink:href="_event_8hh.html" target="_top" xlink:title=" ">
<polygon fill="white" stroke="#666666" points="247.09,-185 192.09,-185 192.09,-165.75 247.09,-165.75 247.09,-185"/>
<text xml:space="preserve" text-anchor="middle" x="219.59" y="-171.5" font-family="Helvetica,sans-Serif" font-size="10.00">Event.hh</text>
</a>
</g>
</g>
<!-- Node5&#45;&gt;Node6 -->
<g id="edge5_Node000005_Node000006" class="edge">
<title>Node5&#45;&gt;Node6</title>
<g id="a_edge5_Node000005_Node000006"><a xlink:title=" ">
<path fill="none" stroke="#63b8ff" d="M373.77,-331.03C341.36,-316.47 280.6,-284.96 245.59,-240.25 235.41,-227.26 228.66,-209.74 224.59,-196.34"/>
<polygon fill="#63b8ff" stroke="#63b8ff" points="228.02,-195.61 221.99,-186.89 221.27,-197.46 228.02,-195.61"/>
</a>
</g>
</g>
<!-- Node5&#45;&gt;Node24 -->
<g id="edge26_Node000005_Node000024" class="edge">
<title>Node5&#45;&gt;Node24</title>
<g id="a_edge26_Node000005_Node000024"><a xlink:title=" ">
<path fill="none" stroke="#63b8ff" d="M390.14,-331.33C385.82,-324.36 379.62,-314.37 374.21,-305.62"/>
<polygon fill="#63b8ff" stroke="#63b8ff" points="377.19,-303.8 368.95,-297.15 371.24,-307.49 377.19,-303.8"/>
</a>
</g>
</g>
<!-- Node31 -->
<g id="Node000031" class="node">
<title>Node31</title>
<g id="a_Node000031"><a xlink:title=" ">
<polygon fill="#e0e0e0" stroke="#999999" points="633.09,-185 590.09,-185 590.09,-165.75 633.09,-165.75 633.09,-185"/>
<text xml:space="preserve" text-anchor="middle" x="611.59" y="-171.5" font-family="Helvetica,sans-Serif" font-size="10.00">thread</text>
</a>
</g>
</g>
<!-- Node5&#45;&gt;Node31 -->
<g id="edge49_Node000005_Node000031" class="edge">
<title>Node5&#45;&gt;Node31</title>
<g id="a_edge49_Node000005_Node000031"><a xlink:title=" ">
<path fill="none" stroke="#63b8ff" d="M423.56,-331.03C462.81,-317.04 534.47,-286.87 579.59,-240.25 591.73,-227.7 600.19,-209.64 605.35,-195.92"/>
<polygon fill="#63b8ff" stroke="#63b8ff" points="608.59,-197.26 608.55,-186.67 601.98,-194.97 608.59,-197.26"/>
</a>
</g>
</g>
<!-- Node5&#45;&gt;Node32 -->
<g id="edge48_Node000005_Node000032" class="edge">
<title>Node5&#45;&gt;Node32</title>
<g id="a_edge48_Node000005_Node000032"><a xlink:title=" ">
<path fill="none" stroke="#63b8ff" d="M433.97,-331.01C462.34,-323.5 501.46,-311.48 533.59,-295.5 571.95,-276.42 579.43,-267.39 612.59,-240.25 630.95,-225.22 650.42,-206.28 663.61,-192.94"/>
<polygon fill="#63b8ff" stroke="#63b8ff" points="665.75,-195.76 670.24,-186.16 660.74,-190.86 665.75,-195.76"/>
</a>
</g>
</g>
<!-- Node7 -->
<g id="Node000007" class="node">
<title>Node7</title>
<g id="a_Node000007"><a xlink:title=" ">
<polygon fill="#e0e0e0" stroke="#999999" points="48.59,-74.5 8.59,-74.5 8.59,-55.25 48.59,-55.25 48.59,-74.5"/>
<text xml:space="preserve" text-anchor="middle" x="28.59" y="-61" font-family="Helvetica,sans-Serif" font-size="10.00">string</text>
</a>
</g>
</g>
<!-- Node6&#45;&gt;Node7 -->
<g id="edge6_Node000006_Node000007" class="edge">
<title>Node6&#45;&gt;Node7</title>
<g id="a_edge6_Node000006_Node000007"><a xlink:title=" ">
<path fill="none" stroke="#63b8ff" d="M191.81,-169.52C163.34,-163.58 118.67,-151.51 85.59,-129.75 67.2,-117.66 51.02,-98.18 40.64,-83.92"/>
<polygon fill="#63b8ff" stroke="#63b8ff" points="43.61,-82.07 35.02,-75.87 37.87,-86.07 43.61,-82.07"/>
</a>
</g>
</g>
<!-- Node8 -->
<g id="Node000008" class="node">
<title>Node8</title>
<g id="a_Node000008"><a xlink:title=" ">
<polygon fill="#e0e0e0" stroke="#999999" points="447.21,-74.5 383.96,-74.5 383.96,-55.25 447.21,-55.25 447.21,-74.5"/>
<text xml:space="preserve" text-anchor="middle" x="415.59" y="-61" font-family="Helvetica,sans-Serif" font-size="10.00">node_api.h</text>
</a>
</g>
</g>
<!-- Node6&#45;&gt;Node8 -->
<g id="edge7_Node000006_Node000008" class="edge">
<title>Node6&#45;&gt;Node8</title>
<g id="a_edge7_Node000006_Node000008"><a xlink:title=" ">
<path fill="none" stroke="#63b8ff" d="M247.5,-168.25C284.94,-159.67 349,-143.55 368.59,-129.75 385.09,-118.12 398.11,-98.86 406.22,-84.52"/>
<polygon fill="#63b8ff" stroke="#63b8ff" points="409.11,-86.54 410.73,-76.06 402.93,-83.24 409.11,-86.54"/>
</a>
</g>
</g>
<!-- Node9 -->
<g id="Node000009" class="node">
<title>Node9</title>
<g id="a_Node000009"><a xlink:href="include_8h.html" target="_top" xlink:title=" ">
<polygon fill="white" stroke="#666666" points="178.71,-129.75 94.46,-129.75 94.46,-110.5 178.71,-110.5 178.71,-129.75"/>
<text xml:space="preserve" text-anchor="middle" x="136.59" y="-116.25" font-family="Helvetica,sans-Serif" font-size="10.00">wasm/include.h</text>
</a>
</g>
</g>
<!-- Node6&#45;&gt;Node9 -->
<g id="edge8_Node000006_Node000009" class="edge">
<title>Node6&#45;&gt;Node9</title>
<g id="a_edge8_Node000006_Node000009"><a xlink:title=" ">
<path fill="none" stroke="#63b8ff" d="M205.51,-165.34C193.11,-157.39 174.79,-145.64 160.16,-136.25"/>
<polygon fill="#63b8ff" stroke="#63b8ff" points="162.32,-133.47 152.01,-131.02 158.54,-139.37 162.32,-133.47"/>
</a>
</g>
</g>
<!-- Node10 -->
<g id="Node000010" class="node">
<title>Node10</title>
<g id="a_Node000010"><a xlink:href="napi_8h.html" target="_top" xlink:title=" ">
<polygon fill="white" stroke="#666666" points="359.71,-129.75 317.46,-129.75 317.46,-110.5 359.71,-110.5 359.71,-129.75"/>
<text xml:space="preserve" text-anchor="middle" x="338.59" y="-116.25" font-family="Helvetica,sans-Serif" font-size="10.00">napi.h</text>
</a>
</g>
</g>
<!-- Node6&#45;&gt;Node10 -->
<g id="edge9_Node000006_Node000010" class="edge">
<title>Node6&#45;&gt;Node10</title>
<g id="a_edge9_Node000006_Node000010"><a xlink:title=" ">
<path fill="none" stroke="#63b8ff" d="M239.77,-165.34C258.49,-156.97 286.61,-144.38 308.07,-134.78"/>
<polygon fill="#63b8ff" stroke="#63b8ff" points="309.22,-138.1 316.92,-130.82 306.36,-131.71 309.22,-138.1"/>
</a>
</g>
</g>
<!-- Node14 -->
<g id="Node000014" class="node">
<title>Node14</title>
<g id="a_Node000014"><a xlink:title=" ">
<polygon fill="#e0e0e0" stroke="#999999" points="585.09,-74.5 542.09,-74.5 542.09,-55.25 585.09,-55.25 585.09,-74.5"/>
<text xml:space="preserve" text-anchor="middle" x="563.59" y="-61" font-family="Helvetica,sans-Serif" font-size="10.00">mutex</text>
</a>
</g>
</g>
<!-- Node6&#45;&gt;Node14 -->
<g id="edge23_Node000006_Node000014" class="edge">
<title>Node6&#45;&gt;Node14</title>
<g id="a_edge23_Node000006_Node000014"><a xlink:title=" ">
<path fill="none" stroke="#63b8ff" d="M247.54,-168.05C281.78,-160.09 341.41,-145.53 391.59,-129.75 441.08,-114.18 497.22,-92.57 531.51,-78.9"/>
<polygon fill="#63b8ff" stroke="#63b8ff" points="532.46,-82.3 540.44,-75.33 529.85,-75.8 532.46,-82.3"/>
</a>
</g>
</g>
<!-- Node22 -->
<g id="Node000022" class="node">
<title>Node22</title>
<g id="a_Node000022"><a xlink:title=" ">
<polygon fill="#e0e0e0" stroke="#999999" points="231.96,-129.75 197.21,-129.75 197.21,-110.5 231.96,-110.5 231.96,-129.75"/>
<text xml:space="preserve" text-anchor="middle" x="214.59" y="-116.25" font-family="Helvetica,sans-Serif" font-size="10.00">map</text>
</a>
</g>
</g>
<!-- Node6&#45;&gt;Node22 -->
<g id="edge24_Node000006_Node000022" class="edge">
<title>Node6&#45;&gt;Node22</title>
<g id="a_edge24_Node000006_Node000022"><a xlink:title=" ">
<path fill="none" stroke="#63b8ff" d="M218.76,-165.58C218.14,-158.99 217.27,-149.71 216.48,-141.32"/>
<polygon fill="#63b8ff" stroke="#63b8ff" points="219.99,-141.25 215.57,-131.62 213.02,-141.9 219.99,-141.25"/>
</a>
</g>
</g>
<!-- Node23 -->
<g id="Node000023" class="node">
<title>Node23</title>
<g id="a_Node000023"><a xlink:title=" ">
<polygon fill="#e0e0e0" stroke="#999999" points="299.46,-129.75 249.71,-129.75 249.71,-110.5 299.46,-110.5 299.46,-129.75"/>
<text xml:space="preserve" text-anchor="middle" x="274.59" y="-116.25" font-family="Helvetica,sans-Serif" font-size="10.00">optional</text>
</a>
</g>
</g>
<!-- Node6&#45;&gt;Node23 -->
<g id="edge25_Node000006_Node000023" class="edge">
<title>Node6&#45;&gt;Node23</title>
<g id="a_edge25_Node000006_Node000023"><a xlink:title=" ">
<path fill="none" stroke="#63b8ff" d="M228.67,-165.58C236.42,-158.07 247.8,-147.06 257.28,-137.88"/>
<polygon fill="#63b8ff" stroke="#63b8ff" points="259.47,-140.63 264.22,-131.16 254.6,-135.6 259.47,-140.63"/>
</a>
</g>
</g>
<!-- Node10&#45;&gt;Node7 -->
<g id="edge15_Node000010_Node000007" class="edge">
<title>Node10&#45;&gt;Node7</title>
<g id="a_edge15_Node000010_Node000007"><a xlink:title=" ">
<path fill="none" stroke="#63b8ff" d="M317.04,-112.57C314.21,-111.81 311.34,-111.1 308.59,-110.5 203.63,-87.61 175.3,-93.56 69.59,-74.5 66.54,-73.95 63.37,-73.34 60.2,-72.72"/>
<polygon fill="#63b8ff" stroke="#63b8ff" points="60.96,-69.3 50.46,-70.71 59.55,-76.16 60.96,-69.3"/>
</a>
</g>
</g>
<!-- Node10&#45;&gt;Node8 -->
<g id="edge10_Node000010_Node000008" class="edge">
<title>Node10&#45;&gt;Node8</title>
<g id="a_edge10_Node000010_Node000008"><a xlink:title=" ">
<path fill="none" stroke="#63b8ff" d="M351.65,-110.09C363.04,-102.21 379.82,-90.61 393.33,-81.27"/>
<polygon fill="#63b8ff" stroke="#63b8ff" points="394.98,-84.38 401.22,-75.81 391,-78.62 394.98,-84.38"/>
</a>
</g>
</g>
<!-- Node11 -->
<g id="Node000011" class="node">
<title>Node11</title>
<g id="a_Node000011"><a xlink:title=" ">
<polygon fill="#e0e0e0" stroke="#999999" points="523.59,-74.5 465.59,-74.5 465.59,-55.25 523.59,-55.25 523.59,-74.5"/>
<text xml:space="preserve" text-anchor="middle" x="494.59" y="-61" font-family="Helvetica,sans-Serif" font-size="10.00">functional</text>
</a>
</g>
</g>
<!-- Node10&#45;&gt;Node11 -->
<g id="edge11_Node000010_Node000011" class="edge">
<title>Node10&#45;&gt;Node11</title>
<g id="a_edge11_Node000010_Node000011"><a xlink:title=" ">
<path fill="none" stroke="#63b8ff" d="M359.95,-111.83C385,-103.28 426.95,-88.96 457.37,-78.58"/>
<polygon fill="#63b8ff" stroke="#63b8ff" points="458.24,-81.98 466.58,-75.44 455.98,-75.35 458.24,-81.98"/>
</a>
</g>
</g>
<!-- Node12 -->
<g id="Node000012" class="node">
<title>Node12</title>
<g id="a_Node000012"><a xlink:title=" ">
<polygon fill="#e0e0e0" stroke="#999999" points="231.71,-74.5 159.46,-74.5 159.46,-55.25 231.71,-55.25 231.71,-74.5"/>
<text xml:space="preserve" text-anchor="middle" x="195.59" y="-61" font-family="Helvetica,sans-Serif" font-size="10.00">initializer_list</text>
</a>
</g>
</g>
<!-- Node10&#45;&gt;Node12 -->
<g id="edge12_Node000010_Node000012" class="edge">
<title>Node10&#45;&gt;Node12</title>
<g id="a_edge12_Node000010_Node000012"><a xlink:title=" ">
<path fill="none" stroke="#63b8ff" d="M317.18,-111.15C294.31,-102.64 257.69,-89 230.61,-78.92"/>
<polygon fill="#63b8ff" stroke="#63b8ff" points="232.03,-75.71 221.44,-75.5 229.59,-82.27 232.03,-75.71"/>
</a>
</g>
</g>
<!-- Node13 -->
<g id="Node000013" class="node">
<title>Node13</title>
<g id="a_Node000013"><a xlink:title=" ">
<polygon fill="#e0e0e0" stroke="#999999" points="130.21,-74.5 78.96,-74.5 78.96,-55.25 130.21,-55.25 130.21,-74.5"/>
<text xml:space="preserve" text-anchor="middle" x="104.59" y="-61" font-family="Helvetica,sans-Serif" font-size="10.00">memory</text>
</a>
</g>
</g>
<!-- Node10&#45;&gt;Node13 -->
<g id="edge13_Node000010_Node000013" class="edge">
<title>Node10&#45;&gt;Node13</title>
<g id="a_edge13_Node000010_Node000013"><a xlink:title=" ">
<path fill="none" stroke="#63b8ff" d="M317,-112.74C314.18,-111.96 311.32,-111.19 308.59,-110.5 250.56,-95.83 182.54,-81.52 141.54,-73.21"/>
<polygon fill="#63b8ff" stroke="#63b8ff" points="142.45,-69.82 131.96,-71.28 141.07,-76.69 142.45,-69.82"/>
</a>
</g>
</g>
<!-- Node10&#45;&gt;Node14 -->
<g id="edge14_Node000010_Node000014" class="edge">
<title>Node10&#45;&gt;Node14</title>
<g id="a_edge14_Node000010_Node000014"><a xlink:title=" ">
<path fill="none" stroke="#63b8ff" d="M360.19,-114.49C394.28,-107.11 462.85,-91.97 530.72,-74.88"/>
<polygon fill="#63b8ff" stroke="#63b8ff" points="531.3,-78.34 540.14,-72.5 529.58,-71.56 531.3,-78.34"/>
</a>
</g>
</g>
<!-- Node15 -->
<g id="Node000015" class="node">
<title>Node15</title>
<g id="a_Node000015"><a xlink:title=" ">
<polygon fill="#e0e0e0" stroke="#999999" points="293.09,-74.5 250.09,-74.5 250.09,-55.25 293.09,-55.25 293.09,-74.5"/>
<text xml:space="preserve" text-anchor="middle" x="271.59" y="-61" font-family="Helvetica,sans-Serif" font-size="10.00">vector</text>
</a>
</g>
</g>
<!-- Node10&#45;&gt;Node15 -->
<g id="edge16_Node000010_Node000015" class="edge">
<title>Node10&#45;&gt;Node15</title>
<g id="a_edge16_Node000010_Node000015"><a xlink:title=" ">
<path fill="none" stroke="#63b8ff" d="M327.22,-110.09C317.54,-102.4 303.39,-91.15 291.78,-81.93"/>
<polygon fill="#63b8ff" stroke="#63b8ff" points="293.98,-79.2 283.97,-75.72 289.62,-84.68 293.98,-79.2"/>
</a>
</g>
</g>
<!-- Node16 -->
<g id="Node000016" class="node">
<title>Node16</title>
<g id="a_Node000016"><a xlink:href="napi-inl_8h.html" target="_top" xlink:title=" ">
<polygon fill="white" stroke="#666666" points="366.09,-74.5 311.09,-74.5 311.09,-55.25 366.09,-55.25 366.09,-74.5"/>
<text xml:space="preserve" text-anchor="middle" x="338.59" y="-61" font-family="Helvetica,sans-Serif" font-size="10.00">napi&#45;inl.h</text>
</a>
</g>
</g>
<!-- Node10&#45;&gt;Node16 -->
<g id="edge17_Node000010_Node000016" class="edge">
<title>Node10&#45;&gt;Node16</title>
<g id="a_edge17_Node000010_Node000016"><a xlink:title=" ">
<path fill="none" stroke="#63b8ff" d="M338.59,-110.33C338.59,-103.82 338.59,-94.67 338.59,-86.37"/>
<polygon fill="#63b8ff" stroke="#63b8ff" points="342.09,-86.37 338.59,-76.37 335.09,-86.37 342.09,-86.37"/>
</a>
</g>
</g>
<!-- Node17 -->
<g id="Node000017" class="node">
<title>Node17</title>
<g id="a_Node000017"><a xlink:title=" ">
<polygon fill="#e0e0e0" stroke="#999999" points="225.46,-19.25 169.71,-19.25 169.71,0 225.46,0 225.46,-19.25"/>
<text xml:space="preserve" text-anchor="middle" x="197.59" y="-5.75" font-family="Helvetica,sans-Serif" font-size="10.00">algorithm</text>
</a>
</g>
</g>
<!-- Node16&#45;&gt;Node17 -->
<g id="edge18_Node000016_Node000017" class="edge">
<title>Node16&#45;&gt;Node17</title>
<g id="a_edge18_Node000016_Node000017"><a xlink:title=" ">
<path fill="none" stroke="#63b8ff" d="M314.67,-54.84C292.08,-46.31 257.95,-33.42 232.36,-23.76"/>
<polygon fill="#63b8ff" stroke="#63b8ff" points="233.63,-20.5 223.04,-20.24 231.16,-27.04 233.63,-20.5"/>
</a>
</g>
</g>
<!-- Node18 -->
<g id="Node000018" class="node">
<title>Node18</title>
<g id="a_Node000018"><a xlink:title=" ">
<polygon fill="#e0e0e0" stroke="#999999" points="289.21,-19.25 243.96,-19.25 243.96,0 289.21,0 289.21,-19.25"/>
<text xml:space="preserve" text-anchor="middle" x="266.59" y="-5.75" font-family="Helvetica,sans-Serif" font-size="10.00">cstring</text>
</a>
</g>
</g>
<!-- Node16&#45;&gt;Node18 -->
<g id="edge19_Node000016_Node000018" class="edge">
<title>Node16&#45;&gt;Node18</title>
<g id="a_edge19_Node000016_Node000018"><a xlink:title=" ">
<path fill="none" stroke="#63b8ff" d="M326.37,-54.84C315.76,-46.99 300.15,-35.45 287.54,-26.12"/>
<polygon fill="#63b8ff" stroke="#63b8ff" points="289.96,-23.56 279.84,-20.42 285.8,-29.19 289.96,-23.56"/>
</a>
</g>
</g>
<!-- Node19 -->
<g id="Node000019" class="node">
<title>Node19</title>
<g id="a_Node000019"><a xlink:title=" ">
<polygon fill="#e0e0e0" stroke="#999999" points="369.46,-19.25 307.71,-19.25 307.71,0 369.46,0 369.46,-19.25"/>
<text xml:space="preserve" text-anchor="middle" x="338.59" y="-5.75" font-family="Helvetica,sans-Serif" font-size="10.00">type_traits</text>
</a>
</g>
</g>
<!-- Node16&#45;&gt;Node19 -->
<g id="edge20_Node000016_Node000019" class="edge">
<title>Node16&#45;&gt;Node19</title>
<g id="a_edge20_Node000016_Node000019"><a xlink:title=" ">
<path fill="none" stroke="#63b8ff" d="M338.59,-55.08C338.59,-48.57 338.59,-39.42 338.59,-31.12"/>
<polygon fill="#63b8ff" stroke="#63b8ff" points="342.09,-31.12 338.59,-21.12 335.09,-31.12 342.09,-31.12"/>
</a>
</g>
</g>
<!-- Node20 -->
<g id="Node000020" class="node">
<title>Node20</title>
<g id="a_Node000020"><a xlink:title=" ">
<polygon fill="#e0e0e0" stroke="#999999" points="427.21,-19.25 387.96,-19.25 387.96,0 427.21,0 427.21,-19.25"/>
<text xml:space="preserve" text-anchor="middle" x="407.59" y="-5.75" font-family="Helvetica,sans-Serif" font-size="10.00">utility</text>
</a>
</g>
</g>
<!-- Node16&#45;&gt;Node20 -->
<g id="edge21_Node000016_Node000020" class="edge">
<title>Node16&#45;&gt;Node20</title>
<g id="a_edge21_Node000016_Node000020"><a xlink:title=" ">
<path fill="none" stroke="#63b8ff" d="M350.29,-54.84C360.36,-47.07 375.13,-35.67 387.15,-26.4"/>
<polygon fill="#63b8ff" stroke="#63b8ff" points="389.08,-29.33 394.86,-20.45 384.8,-23.79 389.08,-29.33"/>
</a>
</g>
</g>
<!-- Node21 -->
<g id="Node000021" class="node">
<title>Node21</title>
<g id="a_Node000021"><a xlink:href="napi-inl_8deprecated_8h.html" target="_top" xlink:title=" ">
<polygon fill="white" stroke="#666666" points="551.59,-19.25 445.59,-19.25 445.59,0 551.59,0 551.59,-19.25"/>
<text xml:space="preserve" text-anchor="middle" x="498.59" y="-5.75" font-family="Helvetica,sans-Serif" font-size="10.00">napi&#45;inl.deprecated.h</text>
</a>
</g>
</g>
<!-- Node16&#45;&gt;Node21 -->
<g id="edge22_Node000016_Node000021" class="edge">
<title>Node16&#45;&gt;Node21</title>
<g id="a_edge22_Node000016_Node000021"><a xlink:title=" ">
<path fill="none" stroke="#63b8ff" d="M365.73,-54.84C391.82,-46.16 431.48,-32.96 460.68,-23.24"/>
<polygon fill="#63b8ff" stroke="#63b8ff" points="461.49,-26.66 469.88,-20.18 459.28,-20.02 461.49,-26.66"/>
</a>
</g>
</g>
<!-- Node24&#45;&gt;Node6 -->
<g id="edge34_Node000024_Node000006" class="edge">
<title>Node24&#45;&gt;Node6</title>
<g id="a_edge34_Node000024_Node000006"><a xlink:title=" ">
<path fill="none" stroke="#63b8ff" d="M334.37,-275.76C314.32,-268.35 287.52,-256.46 267.59,-240.25 251.98,-227.56 238.65,-208.74 230.03,-194.82"/>
<polygon fill="#63b8ff" stroke="#63b8ff" points="233.27,-193.43 225.16,-186.61 227.25,-197 233.27,-193.43"/>
</a>
</g>
</g>
<!-- Node24&#45;&gt;Node8 -->
<g id="edge30_Node000024_Node000008" class="edge">
<title>Node24&#45;&gt;Node8</title>
<g id="a_edge30_Node000024_Node000008"><a xlink:title=" ">
<path fill="none" stroke="#63b8ff" d="M351.22,-275.8C326.96,-255.33 274.37,-204.31 300.59,-165.75 325.04,-129.78 361.1,-160.77 391.59,-129.75 403.16,-117.98 409.24,-100.1 412.39,-86.24"/>
<polygon fill="#63b8ff" stroke="#63b8ff" points="415.82,-86.91 414.24,-76.43 408.94,-85.61 415.82,-86.91"/>
</a>
</g>
</g>
<!-- Node25 -->
<g id="Node000025" class="node">
<title>Node25</title>
<g id="a_Node000025"><a xlink:title=" ">
<polygon fill="#e0e0e0" stroke="#999999" points="630.59,-129.75 536.59,-129.75 536.59,-110.5 630.59,-110.5 630.59,-129.75"/>
<text xml:space="preserve" text-anchor="middle" x="583.59" y="-116.25" font-family="Helvetica,sans-Serif" font-size="10.00">condition_variable</text>
</a>
</g>
</g>
<!-- Node24&#45;&gt;Node25 -->
<g id="edge27_Node000024_Node000025" class="edge">
<title>Node24&#45;&gt;Node25</title>
<g id="a_edge27_Node000024_Node000025"><a xlink:title=" ">
<path fill="none" stroke="#63b8ff" d="M395.13,-280.87C441.9,-274.49 524.9,-260.61 546.59,-240.25 574.27,-214.27 581.39,-168 583.13,-141.42"/>
<polygon fill="#63b8ff" stroke="#63b8ff" points="586.61,-141.78 583.55,-131.64 579.62,-141.48 586.61,-141.78"/>
</a>
</g>
</g>
<!-- Node26 -->
<g id="Node000026" class="node">
<title>Node26</title>
<g id="a_Node000026"><a xlink:title=" ">
<polygon fill="#e0e0e0" stroke="#999999" points="387.34,-185 309.84,-185 309.84,-165.75 387.34,-165.75 387.34,-185"/>
<text xml:space="preserve" text-anchor="middle" x="348.59" y="-171.5" font-family="Helvetica,sans-Serif" font-size="10.00">unordered_set</text>
</a>
</g>
</g>
<!-- Node24&#45;&gt;Node26 -->
<g id="edge28_Node000024_Node000026" class="edge">
<title>Node24&#45;&gt;Node26</title>
<g id="a_edge28_Node000024_Node000026"><a xlink:title=" ">
<path fill="none" stroke="#63b8ff" d="M356,-275.86C350.12,-267.22 341.94,-253.56 338.59,-240.25 334.89,-225.57 337.86,-208.62 341.51,-195.88"/>
<polygon fill="#63b8ff" stroke="#63b8ff" points="344.76,-197.19 344.54,-186.59 338.11,-195.01 344.76,-197.19"/>
</a>
</g>
</g>
<!-- Node27 -->
<g id="Node000027" class="node">
<title>Node27</title>
<g id="a_Node000027"><a xlink:title=" ">
<polygon fill="#e0e0e0" stroke="#999999" points="377.34,-240.25 347.84,-240.25 347.84,-221 377.34,-221 377.34,-240.25"/>
<text xml:space="preserve" text-anchor="middle" x="362.59" y="-226.75" font-family="Helvetica,sans-Serif" font-size="10.00">set</text>
</a>
</g>
</g>
<!-- Node24&#45;&gt;Node27 -->
<g id="edge29_Node000024_Node000027" class="edge">
<title>Node24&#45;&gt;Node27</title>
<g id="a_edge29_Node000024_Node000027"><a xlink:title=" ">
<path fill="none" stroke="#63b8ff" d="M362.59,-276.08C362.59,-269.57 362.59,-260.42 362.59,-252.12"/>
<polygon fill="#63b8ff" stroke="#63b8ff" points="366.09,-252.12 362.59,-242.12 359.09,-252.12 366.09,-252.12"/>
</a>
</g>
</g>
<!-- Node28 -->
<g id="Node000028" class="node">
<title>Node28</title>
<g id="a_Node000028"><a xlink:href="_glob_8hh.html" target="_top" xlink:title=" ">
<polygon fill="white" stroke="#666666" points="445.46,-240.25 395.71,-240.25 395.71,-221 445.46,-221 445.46,-240.25"/>
<text xml:space="preserve" text-anchor="middle" x="420.59" y="-226.75" font-family="Helvetica,sans-Serif" font-size="10.00">Glob.hh</text>
</a>
</g>
</g>
<!-- Node24&#45;&gt;Node28 -->
<g id="edge31_Node000024_Node000028" class="edge">
<title>Node24&#45;&gt;Node28</title>
<g id="a_edge31_Node000024_Node000028"><a xlink:title=" ">
<path fill="none" stroke="#63b8ff" d="M372.43,-275.84C380.64,-268.3 392.57,-257.35 402.5,-248.23"/>
<polygon fill="#63b8ff" stroke="#63b8ff" points="404.78,-250.89 409.78,-241.55 400.05,-245.73 404.78,-250.89"/>
</a>
</g>
</g>
<!-- Node30 -->
<g id="Node000030" class="node">
<title>Node30</title>
<g id="a_Node000030"><a xlink:href="_debounce_8hh.html" target="_top" xlink:title=" ">
<polygon fill="white" stroke="#666666" points="537.46,-240.25 463.71,-240.25 463.71,-221 537.46,-221 537.46,-240.25"/>
<text xml:space="preserve" text-anchor="middle" x="500.59" y="-226.75" font-family="Helvetica,sans-Serif" font-size="10.00">Debounce.hh</text>
</a>
</g>
</g>
<!-- Node24&#45;&gt;Node30 -->
<g id="edge35_Node000024_Node000030" class="edge">
<title>Node24&#45;&gt;Node30</title>
<g id="a_edge35_Node000024_Node000030"><a xlink:title=" ">
<path fill="none" stroke="#63b8ff" d="M386,-275.84C408.1,-267.31 441.51,-254.42 466.56,-244.76"/>
<polygon fill="#63b8ff" stroke="#63b8ff" points="467.58,-248.11 475.65,-241.25 465.06,-241.58 467.58,-248.11"/>
</a>
</g>
</g>
<!-- Node24&#45;&gt;Node32 -->
<g id="edge47_Node000024_Node000032" class="edge">
<title>Node24&#45;&gt;Node32</title>
<g id="a_edge47_Node000024_Node000032"><a xlink:title=" ">
<path fill="none" stroke="#63b8ff" d="M395.28,-281.9C438.72,-277.12 517.22,-265.57 579.59,-240.25 609.5,-228.11 640.25,-206.9 659.62,-192.27"/>
<polygon fill="#63b8ff" stroke="#63b8ff" points="661.67,-195.11 667.44,-186.23 657.39,-189.57 661.67,-195.11"/>
</a>
</g>
</g>
<!-- Node24&#45;&gt;Node33 -->
<g id="edge42_Node000024_Node000033" class="edge">
<title>Node24&#45;&gt;Node33</title>
<g id="a_edge42_Node000024_Node000033"><a xlink:title=" ">
<path fill="none" stroke="#63b8ff" d="M330.19,-277.47C288.81,-268.01 217.11,-251.63 171.57,-241.22"/>
<polygon fill="#63b8ff" stroke="#63b8ff" points="172.6,-237.86 162.07,-239.05 171.04,-244.69 172.6,-237.86"/>
</a>
</g>
</g>
<!-- Node28&#45;&gt;Node26 -->
<g id="edge32_Node000028_Node000026" class="edge">
<title>Node28&#45;&gt;Node26</title>
<g id="a_edge32_Node000028_Node000026"><a xlink:title=" ">
<path fill="none" stroke="#63b8ff" d="M408.37,-220.59C397.76,-212.74 382.15,-201.2 369.54,-191.87"/>
<polygon fill="#63b8ff" stroke="#63b8ff" points="371.96,-189.31 361.84,-186.17 367.8,-194.94 371.96,-189.31"/>
</a>
</g>
</g>
<!-- Node29 -->
<g id="Node000029" class="node">
<title>Node29</title>
<g id="a_Node000029"><a xlink:title=" ">
<polygon fill="#e0e0e0" stroke="#999999" points="445.59,-185 405.59,-185 405.59,-165.75 445.59,-165.75 445.59,-185"/>
<text xml:space="preserve" text-anchor="middle" x="425.59" y="-171.5" font-family="Helvetica,sans-Serif" font-size="10.00">regex</text>
</a>
</g>
</g>
<!-- Node28&#45;&gt;Node29 -->
<g id="edge33_Node000028_Node000029" class="edge">
<title>Node28&#45;&gt;Node29</title>
<g id="a_edge33_Node000028_Node000029"><a xlink:title=" ">
<path fill="none" stroke="#63b8ff" d="M421.41,-220.83C422.03,-214.24 422.9,-204.96 423.69,-196.57"/>
<polygon fill="#63b8ff" stroke="#63b8ff" points="427.15,-197.15 424.6,-186.87 420.18,-196.5 427.15,-197.15"/>
</a>
</g>
</g>
<!-- Node30&#45;&gt;Node2 -->
<g id="edge37_Node000030_Node000002" class="edge">
<title>Node30&#45;&gt;Node2</title>
<g id="a_edge37_Node000030_Node000002"><a xlink:title=" ">
<path fill="none" stroke="#63b8ff" d="M463.47,-222.43C460.47,-221.92 457.48,-221.43 454.59,-221 333.01,-202.74 189.32,-188.24 113.54,-181.14"/>
<polygon fill="#63b8ff" stroke="#63b8ff" points="114.2,-177.69 103.92,-180.25 113.55,-184.66 114.2,-177.69"/>
</a>
</g>
</g>
<!-- Node30&#45;&gt;Node11 -->
<g id="edge38_Node000030_Node000011" class="edge">
<title>Node30&#45;&gt;Node11</title>
<g id="a_edge38_Node000030_Node000011"><a xlink:title=" ">
<path fill="none" stroke="#63b8ff" d="M500.26,-220.82C499.34,-195.5 496.64,-122 495.33,-86.09"/>
<polygon fill="#63b8ff" stroke="#63b8ff" points="498.83,-86.1 494.97,-76.23 491.84,-86.36 498.83,-86.1"/>
</a>
</g>
</g>
<!-- Node30&#45;&gt;Node31 -->
<g id="edge36_Node000030_Node000031" class="edge">
<title>Node30&#45;&gt;Node31</title>
<g id="a_edge36_Node000030_Node000031"><a xlink:title=" ">
<path fill="none" stroke="#63b8ff" d="M519.42,-220.59C536.64,-212.33 562.39,-199.98 582.3,-190.43"/>
<polygon fill="#63b8ff" stroke="#63b8ff" points="583.8,-193.59 591.3,-186.11 580.77,-187.28 583.8,-193.59"/>
</a>
</g>
</g>
<!-- Node30&#45;&gt;Node32 -->
<g id="edge39_Node000030_Node000032" class="edge">
<title>Node30&#45;&gt;Node32</title>
<g id="a_edge39_Node000030_Node000032"><a xlink:title=" ">
<path fill="none" stroke="#63b8ff" d="M530.95,-220.59C561.06,-211.63 607.34,-197.87 640.25,-188.08"/>
<polygon fill="#63b8ff" stroke="#63b8ff" points="640.81,-191.56 649.4,-185.35 638.82,-184.85 640.81,-191.56"/>
</a>
</g>
</g>
<!-- Node32&#45;&gt;Node14 -->
<g id="edge40_Node000032_Node000014" class="edge">
<title>Node32&#45;&gt;Node14</title>
<g id="a_edge40_Node000032_Node000014"><a xlink:title=" ">
<path fill="none" stroke="#63b8ff" d="M675.77,-165.61C669.68,-152.38 656.66,-127.1 639.59,-110.5 626.7,-97.97 609.63,-87.54 594.94,-79.93"/>
<polygon fill="#63b8ff" stroke="#63b8ff" points="596.62,-76.86 586.11,-75.56 593.52,-83.13 596.62,-76.86"/>
</a>
</g>
</g>
<!-- Node32&#45;&gt;Node25 -->
<g id="edge41_Node000032_Node000025" class="edge">
<title>Node32&#45;&gt;Node25</title>
<g id="a_edge41_Node000032_Node000025"><a xlink:title=" ">
<path fill="none" stroke="#63b8ff" d="M663.3,-165.34C648.68,-157.23 626.96,-145.18 609.88,-135.71"/>
<polygon fill="#63b8ff" stroke="#63b8ff" points="611.72,-132.73 601.28,-130.94 608.32,-138.85 611.72,-132.73"/>
</a>
</g>
</g>
<!-- Node33&#45;&gt;Node2 -->
<g id="edge44_Node000033_Node000002" class="edge">
<title>Node33&#45;&gt;Node2</title>
<g id="a_edge44_Node000033_Node000002"><a xlink:title=" ">
<path fill="none" stroke="#63b8ff" d="M117.88,-220.59C107.81,-212.82 93.05,-201.42 81.03,-192.15"/>
<polygon fill="#63b8ff" stroke="#63b8ff" points="83.37,-189.54 73.32,-186.2 79.1,-195.08 83.37,-189.54"/>
</a>
</g>
</g>
<!-- Node33&#45;&gt;Node6 -->
<g id="edge46_Node000033_Node000006" class="edge">
<title>Node33&#45;&gt;Node6</title>
<g id="a_edge46_Node000033_Node000006"><a xlink:title=" ">
<path fill="none" stroke="#63b8ff" d="M144.85,-220.59C158.43,-212.56 178.54,-200.66 194.48,-191.23"/>
<polygon fill="#63b8ff" stroke="#63b8ff" points="196.12,-194.33 202.94,-186.22 192.55,-188.3 196.12,-194.33"/>
</a>
</g>
</g>
<!-- Node33&#45;&gt;Node7 -->
<g id="edge43_Node000033_Node000007" class="edge">
<title>Node33&#45;&gt;Node7</title>
<g id="a_edge43_Node000033_Node000007"><a xlink:title=" ">
<path fill="none" stroke="#63b8ff" d="M98.27,-227.47C70.09,-223.67 30.19,-213.29 10.59,-185 -10.28,-154.89 5.84,-110.21 18.1,-85"/>
<polygon fill="#63b8ff" stroke="#63b8ff" points="21.13,-86.74 22.62,-76.25 14.92,-83.53 21.13,-86.74"/>
</a>
</g>
</g>
<!-- Node33&#45;&gt;Node13 -->
<g id="edge45_Node000033_Node000013" class="edge">
<title>Node33&#45;&gt;Node13</title>
<g id="a_edge45_Node000033_Node000013"><a xlink:title=" ">
<path fill="none" stroke="#63b8ff" d="M127.86,-220.62C125.21,-207.94 119.51,-184.31 110.59,-165.75 102.15,-148.19 91.41,-148.34 85.59,-129.75 80.88,-114.72 86.55,-97.61 92.89,-84.89"/>
<polygon fill="#63b8ff" stroke="#63b8ff" points="95.86,-86.76 97.66,-76.32 89.74,-83.36 95.86,-86.76"/>
</a>
</g>
</g>
</g>
</svg>

<g id="navigator" transform="translate(0 0)" fill="#404254">
  <rect fill="#f2f5e9" fill-opacity="0.5" stroke="#606060" stroke-width=".5" x="0" y="0" width="60" height="60"/>
  <use id="zoomplus" xlink:href="#zoomPlus" x="17" y="9" onmousedown="handleZoom(evt,'in')"/>
  <use id="zoomminus" xlink:href="#zoomMin" x="42" y="9" onmousedown="handleZoom(evt,'out')"/>
  <use id="reset" xlink:href="#resetDef" x="30" y="36" onmousedown="handleReset()"/>
   <use id="arrowup" xlink:href="#arrowUp" x="0" y="0" onmousedown="handlePan(0,-1)"/>
  <use id="arrowright" xlink:href="#arrowRight" x="0" y="0" onmousedown="handlePan(1,0)"/>
  <use id="arrowdown" xlink:href="#arrowDown" x="0" y="0" onmousedown="handlePan(0,1)"/>
  <use id="arrowleft" xlink:href="#arrowLeft" x="0" y="0" onmousedown="handlePan(-1,0)"/>
</g>
<svg viewBox="0 0 15 15" width="100%" height="30px" preserveAspectRatio="xMaxYMin meet">
 <g id="arrow_out" transform="scale(0.3 0.3)">
  <a xlink:href="_kqueue_backend_8hh__incl_org.svg" target="_base">
   <rect id="button" ry="5" rx="5" y="6" x="6" height="38" width="38"
        fill="#f2f5e9" fill-opacity="0.5" stroke="#606060" stroke-width="1.0"/>
   <path id="arrow"
     d="M 11.500037,31.436501 C 11.940474,20.09759 22.043105,11.32322 32.158766,21.979434 L 37.068811,17.246167 C 37.068811,17.246167 37.088388,32 37.088388,32 L 22.160133,31.978069 C 22.160133,31.978069 26.997745,27.140456 26.997745,27.140456 C 18.528582,18.264221 13.291696,25.230495 11.500037,31.436501 z"
     style="fill:#404040;"/>
  </a>
 </g>
</svg>

<style type='text/css'>
<![CDATA[
[data-mouse-over-selected='false'] { opacity: 0.7; }
[data-mouse-over-selected='true']  { opacity: 1.0; }
]]>
</style>
<script type="application/ecmascript"><![CDATA[
document.addEventListener('DOMContentLoaded', (event) => {
  highlightEdges();
  highlightAdjacentNodes();
});
]]></script>
</svg>
