<?xml version="1.0" encoding="UTF-8" standalone="no"?>
<!DOCTYPE svg PUBLIC "-//W3C//DTD SVG 1.1//EN"
 "http://www.w3.org/Graphics/SVG/1.1/DTD/svg11.dtd">
<!-- Generated by graphviz version 14.0.4 (20251115.1723)
 -->
<!-- Title: src/main/java/com/goldenleaf/shop/service/ProductService.java Pages: 1 -->
<svg width="755pt" height="105pt"
 viewBox="0.00 0.00 755.00 105.00" xmlns="http://www.w3.org/2000/svg" xmlns:xlink="http://www.w3.org/1999/xlink">
<g id="graph0" class="graph" transform="scale(1 1) rotate(0) translate(4 101)">
<title>src/main/java/com/goldenleaf/shop/service/ProductService.java</title>
<!-- Node1 -->
<g id="Node000001" class="node">
<title>Node1</title>
<g id="a_Node000001"><a xlink:title=" ">
<polygon fill="#999999" stroke="#666666" points="411.88,-97 246.62,-97 246.62,-66.5 411.88,-66.5 411.88,-97"/>
<text xml:space="preserve" text-anchor="start" x="254.62" y="-83.5" font-family="Helvetica,sans-Serif" font-size="10.00">src/main/java/com/goldenleaf</text>
<text xml:space="preserve" text-anchor="middle" x="329.25" y="-72.25" font-family="Helvetica,sans-Serif" font-size="10.00">/shop/service/ProductService.java</text>
</a>
</g>
</g>
<!-- Node2 -->
<g id="Node000002" class="node">
<title>Node2</title>
<g id="a_Node000002"><a xlink:title=" ">
<polygon fill="#e0e0e0" stroke="#999999" points="68.5,-24.88 0,-24.88 0,-5.63 68.5,-5.63 68.5,-24.88"/>
<text xml:space="preserve" text-anchor="middle" x="34.25" y="-11.38" font-family="Helvetica,sans-Serif" font-size="10.00">java.util.List</text>
</a>
</g>
</g>
<!-- Node1&#45;&gt;Node2 -->
<g id="edge1_Node000001_Node000002" class="edge">
<title>Node1&#45;&gt;Node2</title>
<g id="a_edge1_Node000001_Node000002"><a xlink:title=" ">
<path fill="none" stroke="#63b8ff" d="M246.38,-66.88C196.93,-57.95 133.1,-45.26 77.25,-30.5 75.14,-29.94 72.98,-29.34 70.81,-28.7"/>
<polygon fill="#63b8ff" stroke="#63b8ff" points="72.05,-25.42 61.46,-25.81 69.98,-32.11 72.05,-25.42"/>
</a>
</g>
</g>
<!-- Node3 -->
<g id="Node000003" class="node">
<title>Node3</title>
<g id="a_Node000003"><a xlink:title=" ">
<polygon fill="#e0e0e0" stroke="#999999" points="242.38,-30.5 86.12,-30.5 86.12,0 242.38,0 242.38,-30.5"/>
<text xml:space="preserve" text-anchor="start" x="94.12" y="-17" font-family="Helvetica,sans-Serif" font-size="10.00">org.springframework.stereotype.</text>
<text xml:space="preserve" text-anchor="middle" x="164.25" y="-5.75" font-family="Helvetica,sans-Serif" font-size="10.00">Service</text>
</a>
</g>
</g>
<!-- Node1&#45;&gt;Node3 -->
<g id="edge2_Node000001_Node000003" class="edge">
<title>Node1&#45;&gt;Node3</title>
<g id="a_edge2_Node000001_Node000003"><a xlink:title=" ">
<path fill="none" stroke="#63b8ff" d="M291.81,-66.11C268.26,-56.91 237.66,-44.95 212.33,-35.04"/>
<polygon fill="#63b8ff" stroke="#63b8ff" points="213.83,-31.87 203.24,-31.49 211.28,-38.39 213.83,-31.87"/>
</a>
</g>
</g>
<!-- Node4 -->
<g id="Node000004" class="node">
<title>Node4</title>
<g id="a_Node000004"><a xlink:title=" ">
<polygon fill="#e0e0e0" stroke="#999999" points="398.38,-30.5 260.12,-30.5 260.12,0 398.38,0 398.38,-30.5"/>
<text xml:space="preserve" text-anchor="start" x="268.12" y="-17" font-family="Helvetica,sans-Serif" font-size="10.00">com.goldenleaf.shop.model.</text>
<text xml:space="preserve" text-anchor="middle" x="329.25" y="-5.75" font-family="Helvetica,sans-Serif" font-size="10.00">Product</text>
</a>
</g>
</g>
<!-- Node1&#45;&gt;Node4 -->
<g id="edge3_Node000001_Node000004" class="edge">
<title>Node1&#45;&gt;Node4</title>
<g id="a_edge3_Node000001_Node000004"><a xlink:title=" ">
<path fill="none" stroke="#63b8ff" d="M329.25,-66.11C329.25,-59.02 329.25,-50.29 329.25,-42.13"/>
<polygon fill="#63b8ff" stroke="#63b8ff" points="332.75,-42.34 329.25,-32.34 325.75,-42.34 332.75,-42.34"/>
</a>
</g>
</g>
<!-- Node5 -->
<g id="Node000005" class="node">
<title>Node5</title>
<g id="a_Node000005"><a xlink:title=" ">
<polygon fill="#e0e0e0" stroke="#999999" points="575.88,-24.88 416.62,-24.88 416.62,-5.63 575.88,-5.63 575.88,-24.88"/>
<text xml:space="preserve" text-anchor="middle" x="496.25" y="-11.38" font-family="Helvetica,sans-Serif" font-size="10.00">com.goldenleaf.shop.model.User</text>
</a>
</g>
</g>
<!-- Node1&#45;&gt;Node5 -->
<g id="edge4_Node000001_Node000005" class="edge">
<title>Node1&#45;&gt;Node5</title>
<g id="a_edge4_Node000001_Node000005"><a xlink:title=" ">
<path fill="none" stroke="#63b8ff" d="M367.14,-66.11C395.73,-55.07 434.61,-40.06 462.21,-29.4"/>
<polygon fill="#63b8ff" stroke="#63b8ff" points="463.44,-32.67 471.51,-25.81 460.92,-26.14 463.44,-32.67"/>
</a>
</g>
</g>
<!-- Node6 -->
<g id="Node000006" class="node">
<title>Node6</title>
<g id="a_Node000006"><a xlink:title=" ">
<polygon fill="#e0e0e0" stroke="#999999" points="746.88,-30.5 593.62,-30.5 593.62,0 746.88,0 746.88,-30.5"/>
<text xml:space="preserve" text-anchor="start" x="601.62" y="-17" font-family="Helvetica,sans-Serif" font-size="10.00">com.goldenleaf.shop.repository.</text>
<text xml:space="preserve" text-anchor="middle" x="670.25" y="-5.75" font-family="Helvetica,sans-Serif" font-size="10.00">ProductRepository</text>
</a>
</g>
</g>
<!-- Node1&#45;&gt;Node6 -->
<g id="edge5_Node000001_Node000006" class="edge">
<title>Node1&#45;&gt;Node6</title>
<g id="a_edge5_Node000001_Node000006"><a xlink:title=" ">
<path fill="none" stroke="#63b8ff" d="M407.05,-66.03C459.28,-56.15 528.18,-43.12 582.38,-32.87"/>
<polygon fill="#63b8ff" stroke="#63b8ff" points="582.71,-36.37 591.88,-31.07 581.4,-29.49 582.71,-36.37"/>
</a>
</g>
</g>
</g>
</svg>
