<?xml version="1.0" encoding="UTF-8" standalone="no"?>
<!DOCTYPE svg PUBLIC "-//W3C//DTD SVG 1.1//EN"
 "http://www.w3.org/Graphics/SVG/1.1/DTD/svg11.dtd">
<!-- Generated by graphviz version 14.0.4 (20251115.1723)
 -->
<!-- Title: src/main/java/com/goldenleaf/shop/model/Product.java Pages: 1 -->
<svg width="2504pt" height="105pt"
 viewBox="0.00 0.00 2504.00 105.00" xmlns="http://www.w3.org/2000/svg" xmlns:xlink="http://www.w3.org/1999/xlink">
<g id="graph0" class="graph" transform="scale(1 1) rotate(0) translate(4 101)">
<title>src/main/java/com/goldenleaf/shop/model/Product.java</title>
<!-- Node1 -->
<g id="Node000001" class="node">
<title>Node1</title>
<g id="a_Node000001"><a xlink:title=" ">
<polygon fill="#999999" stroke="#666666" points="1268.62,-97 1125.12,-97 1125.12,-66.5 1268.62,-66.5 1268.62,-97"/>
<text xml:space="preserve" text-anchor="start" x="1133.12" y="-83.5" font-family="Helvetica,sans-Serif" font-size="10.00">src/main/java/com/goldenleaf</text>
<text xml:space="preserve" text-anchor="middle" x="1196.88" y="-72.25" font-family="Helvetica,sans-Serif" font-size="10.00">/shop/model/Product.java</text>
</a>
</g>
</g>
<!-- Node2 -->
<g id="Node000002" class="node">
<title>Node2</title>
<g id="a_Node000002"><a xlink:title=" ">
<polygon fill="#e0e0e0" stroke="#999999" points="91.75,-24.88 0,-24.88 0,-5.63 91.75,-5.63 91.75,-24.88"/>
<text xml:space="preserve" text-anchor="middle" x="45.88" y="-11.38" font-family="Helvetica,sans-Serif" font-size="10.00">java.util.ArrayList</text>
</a>
</g>
</g>
<!-- Node1&#45;&gt;Node2 -->
<g id="edge1_Node000001_Node000002" class="edge">
<title>Node1&#45;&gt;Node2</title>
<g id="a_edge1_Node000001_Node000002"><a xlink:title=" ">
<path fill="none" stroke="#63b8ff" d="M1124.86,-79.4C913.83,-75.14 299.35,-60.43 100.88,-30.5 96.45,-29.83 91.86,-28.95 87.31,-27.96"/>
<polygon fill="#63b8ff" stroke="#63b8ff" points="88.2,-24.57 77.66,-25.66 86.58,-31.38 88.2,-24.57"/>
</a>
</g>
</g>
<!-- Node3 -->
<g id="Node000003" class="node">
<title>Node3</title>
<g id="a_Node000003"><a xlink:title=" ">
<polygon fill="#e0e0e0" stroke="#999999" points="178.12,-24.88 109.62,-24.88 109.62,-5.63 178.12,-5.63 178.12,-24.88"/>
<text xml:space="preserve" text-anchor="middle" x="143.88" y="-11.38" font-family="Helvetica,sans-Serif" font-size="10.00">java.util.List</text>
</a>
</g>
</g>
<!-- Node1&#45;&gt;Node3 -->
<g id="edge2_Node000001_Node000003" class="edge">
<title>Node1&#45;&gt;Node3</title>
<g id="a_edge2_Node000001_Node000003"><a xlink:title=" ">
<path fill="none" stroke="#63b8ff" d="M1124.76,-79.69C924.94,-76.35 367,-64.18 186.88,-30.5 184.03,-29.97 181.12,-29.3 178.22,-28.53"/>
<polygon fill="#63b8ff" stroke="#63b8ff" points="179.26,-25.19 168.68,-25.69 177.26,-31.9 179.26,-25.19"/>
</a>
</g>
</g>
<!-- Node4 -->
<g id="Node000004" class="node">
<title>Node4</title>
<g id="a_Node000004"><a xlink:title=" ">
<polygon fill="#e0e0e0" stroke="#999999" points="263.75,-24.88 196,-24.88 196,-5.63 263.75,-5.63 263.75,-24.88"/>
<text xml:space="preserve" text-anchor="middle" x="229.88" y="-11.38" font-family="Helvetica,sans-Serif" font-size="10.00">java.util.Set</text>
</a>
</g>
</g>
<!-- Node1&#45;&gt;Node4 -->
<g id="edge3_Node000001_Node000004" class="edge">
<title>Node1&#45;&gt;Node4</title>
<g id="a_edge3_Node000001_Node000004"><a xlink:title=" ">
<path fill="none" stroke="#63b8ff" d="M1124.88,-79.3C937.12,-75.13 435.85,-61.37 272.88,-30.5 270.04,-29.96 267.12,-29.29 264.22,-28.52"/>
<polygon fill="#63b8ff" stroke="#63b8ff" points="265.27,-25.18 254.68,-25.67 263.27,-31.89 265.27,-25.18"/>
</a>
</g>
</g>
<!-- Node5 -->
<g id="Node000005" class="node">
<title>Node5</title>
<g id="a_Node000005"><a xlink:title=" ">
<polygon fill="#e0e0e0" stroke="#999999" points="435.88,-30.5 281.88,-30.5 281.88,0 435.88,0 435.88,-30.5"/>
<text xml:space="preserve" text-anchor="start" x="289.88" y="-17" font-family="Helvetica,sans-Serif" font-size="10.00">com.goldenleaf.shop.exception.</text>
<text xml:space="preserve" text-anchor="middle" x="358.88" y="-5.75" font-family="Helvetica,sans-Serif" font-size="10.00">EmptyBrandException</text>
</a>
</g>
</g>
<!-- Node1&#45;&gt;Node5 -->
<g id="edge4_Node000001_Node000005" class="edge">
<title>Node1&#45;&gt;Node5</title>
<g id="a_edge4_Node000001_Node000005"><a xlink:title=" ">
<path fill="none" stroke="#63b8ff" d="M1124.86,-78.28C992.68,-73.22 702.28,-59.75 447.52,-30.73"/>
<polygon fill="#63b8ff" stroke="#63b8ff" points="448.02,-27.26 437.68,-29.6 447.22,-34.22 448.02,-27.26"/>
</a>
</g>
</g>
<!-- Node6 -->
<g id="Node000006" class="node">
<title>Node6</title>
<g id="a_Node000006"><a xlink:title=" ">
<polygon fill="#e0e0e0" stroke="#999999" points="607.88,-30.5 453.88,-30.5 453.88,0 607.88,0 607.88,-30.5"/>
<text xml:space="preserve" text-anchor="start" x="461.88" y="-17" font-family="Helvetica,sans-Serif" font-size="10.00">com.goldenleaf.shop.exception.</text>
<text xml:space="preserve" text-anchor="middle" x="530.88" y="-5.75" font-family="Helvetica,sans-Serif" font-size="10.00">EmptyNameException</text>
</a>
</g>
</g>
<!-- Node1&#45;&gt;Node6 -->
<g id="edge5_Node000001_Node000006" class="edge">
<title>Node1&#45;&gt;Node6</title>
<g id="a_edge5_Node000001_Node000006"><a xlink:title=" ">
<path fill="none" stroke="#63b8ff" d="M1124.8,-76.31C1017.09,-69.29 807.52,-54.07 619.4,-30.76"/>
<polygon fill="#63b8ff" stroke="#63b8ff" points="620.05,-27.31 609.69,-29.54 619.18,-34.25 620.05,-27.31"/>
</a>
</g>
</g>
<!-- Node7 -->
<g id="Node000007" class="node">
<title>Node7</title>
<g id="a_Node000007"><a xlink:title=" ">
<polygon fill="#e0e0e0" stroke="#999999" points="779.88,-30.5 625.88,-30.5 625.88,0 779.88,0 779.88,-30.5"/>
<text xml:space="preserve" text-anchor="start" x="633.88" y="-17" font-family="Helvetica,sans-Serif" font-size="10.00">com.goldenleaf.shop.exception.</text>
<text xml:space="preserve" text-anchor="middle" x="702.88" y="-5.75" font-family="Helvetica,sans-Serif" font-size="10.00">IncorrectPriceException</text>
</a>
</g>
</g>
<!-- Node1&#45;&gt;Node7 -->
<g id="edge6_Node000001_Node000007" class="edge">
<title>Node1&#45;&gt;Node7</title>
<g id="a_edge6_Node000001_Node000007"><a xlink:title=" ">
<path fill="none" stroke="#63b8ff" d="M1124.9,-72.8C1045.68,-63.85 914.29,-48.39 791.32,-30.82"/>
<polygon fill="#63b8ff" stroke="#63b8ff" points="792.1,-27.39 781.7,-29.44 791.1,-34.32 792.1,-27.39"/>
</a>
</g>
</g>
<!-- Node8 -->
<g id="Node000008" class="node">
<title>Node8</title>
<g id="a_Node000008"><a xlink:title=" ">
<polygon fill="#e0e0e0" stroke="#999999" points="959.62,-24.88 798.12,-24.88 798.12,-5.63 959.62,-5.63 959.62,-24.88"/>
<text xml:space="preserve" text-anchor="middle" x="878.88" y="-11.38" font-family="Helvetica,sans-Serif" font-size="10.00">jakarta.persistence.CascadeType</text>
</a>
</g>
</g>
<!-- Node1&#45;&gt;Node8 -->
<g id="edge7_Node000001_Node000008" class="edge">
<title>Node1&#45;&gt;Node8</title>
<g id="a_edge7_Node000001_Node000008"><a xlink:title=" ">
<path fill="none" stroke="#63b8ff" d="M1124.72,-66.11C1067.18,-54.44 987.77,-38.34 934.94,-27.62"/>
<polygon fill="#63b8ff" stroke="#63b8ff" points="935.74,-24.21 925.24,-25.65 934.35,-31.07 935.74,-24.21"/>
</a>
</g>
</g>
<!-- Node9 -->
<g id="Node000009" class="node">
<title>Node9</title>
<g id="a_Node000009"><a xlink:title=" ">
<polygon fill="#e0e0e0" stroke="#999999" points="1115.62,-30.5 978.12,-30.5 978.12,0 1115.62,0 1115.62,-30.5"/>
<text xml:space="preserve" text-anchor="start" x="986.12" y="-17" font-family="Helvetica,sans-Serif" font-size="10.00">jakarta.persistence.Element</text>
<text xml:space="preserve" text-anchor="middle" x="1046.88" y="-5.75" font-family="Helvetica,sans-Serif" font-size="10.00">Collection</text>
</a>
</g>
</g>
<!-- Node1&#45;&gt;Node9 -->
<g id="edge8_Node000001_Node000009" class="edge">
<title>Node1&#45;&gt;Node9</title>
<g id="a_edge8_Node000001_Node000009"><a xlink:title=" ">
<path fill="none" stroke="#63b8ff" d="M1162.84,-66.11C1141.72,-57.03 1114.35,-45.27 1091.51,-35.44"/>
<polygon fill="#63b8ff" stroke="#63b8ff" points="1093,-32.27 1082.43,-31.54 1090.23,-38.7 1093,-32.27"/>
</a>
</g>
</g>
<!-- Node10 -->
<g id="Node000010" class="node">
<title>Node10</title>
<g id="a_Node000010"><a xlink:title=" ">
<polygon fill="#e0e0e0" stroke="#999999" points="1260.38,-24.88 1133.38,-24.88 1133.38,-5.63 1260.38,-5.63 1260.38,-24.88"/>
<text xml:space="preserve" text-anchor="middle" x="1196.88" y="-11.38" font-family="Helvetica,sans-Serif" font-size="10.00">jakarta.persistence.Entity</text>
</a>
</g>
</g>
<!-- Node1&#45;&gt;Node10 -->
<g id="edge9_Node000001_Node000010" class="edge">
<title>Node1&#45;&gt;Node10</title>
<g id="a_edge9_Node000001_Node000010"><a xlink:title=" ">
<path fill="none" stroke="#63b8ff" d="M1196.88,-66.11C1196.88,-57.33 1196.88,-46.02 1196.88,-36.4"/>
<polygon fill="#63b8ff" stroke="#63b8ff" points="1200.38,-36.59 1196.88,-26.59 1193.38,-36.59 1200.38,-36.59"/>
</a>
</g>
</g>
<!-- Node11 -->
<g id="Node000011" class="node">
<title>Node11</title>
<g id="a_Node000011"><a xlink:title=" ">
<polygon fill="#e0e0e0" stroke="#999999" points="1425.12,-30.5 1278.62,-30.5 1278.62,0 1425.12,0 1425.12,-30.5"/>
<text xml:space="preserve" text-anchor="start" x="1286.62" y="-17" font-family="Helvetica,sans-Serif" font-size="10.00">jakarta.persistence.Generated</text>
<text xml:space="preserve" text-anchor="middle" x="1351.88" y="-5.75" font-family="Helvetica,sans-Serif" font-size="10.00">Value</text>
</a>
</g>
</g>
<!-- Node1&#45;&gt;Node11 -->
<g id="edge10_Node000001_Node000011" class="edge">
<title>Node1&#45;&gt;Node11</title>
<g id="a_edge10_Node000001_Node000011"><a xlink:title=" ">
<path fill="none" stroke="#63b8ff" d="M1232.05,-66.11C1253.97,-56.99 1282.4,-45.16 1306.07,-35.31"/>
<polygon fill="#63b8ff" stroke="#63b8ff" points="1307.29,-38.59 1315.18,-31.52 1304.6,-32.13 1307.29,-38.59"/>
</a>
</g>
</g>
<!-- Node12 -->
<g id="Node000012" class="node">
<title>Node12</title>
<g id="a_Node000012"><a xlink:title=" ">
<polygon fill="#e0e0e0" stroke="#999999" points="1612.75,-24.88 1443,-24.88 1443,-5.63 1612.75,-5.63 1612.75,-24.88"/>
<text xml:space="preserve" text-anchor="middle" x="1527.88" y="-11.38" font-family="Helvetica,sans-Serif" font-size="10.00">jakarta.persistence.GenerationType</text>
</a>
</g>
</g>
<!-- Node1&#45;&gt;Node12 -->
<g id="edge11_Node000001_Node000012" class="edge">
<title>Node1&#45;&gt;Node12</title>
<g id="a_edge11_Node000001_Node000012"><a xlink:title=" ">
<path fill="none" stroke="#63b8ff" d="M1269.11,-66.67C1329.43,-54.92 1414.31,-38.38 1470.18,-27.49"/>
<polygon fill="#63b8ff" stroke="#63b8ff" points="1470.66,-30.96 1479.81,-25.62 1469.33,-24.09 1470.66,-30.96"/>
</a>
</g>
</g>
<!-- Node13 -->
<g id="Node000013" class="node">
<title>Node13</title>
<g id="a_Node000013"><a xlink:title=" ">
<polygon fill="#e0e0e0" stroke="#999999" points="1740.75,-24.88 1631,-24.88 1631,-5.63 1740.75,-5.63 1740.75,-24.88"/>
<text xml:space="preserve" text-anchor="middle" x="1685.88" y="-11.38" font-family="Helvetica,sans-Serif" font-size="10.00">jakarta.persistence.Id</text>
</a>
</g>
</g>
<!-- Node1&#45;&gt;Node13 -->
<g id="edge12_Node000001_Node000013" class="edge">
<title>Node1&#45;&gt;Node13</title>
<g id="a_edge12_Node000001_Node000013"><a xlink:title=" ">
<path fill="none" stroke="#63b8ff" d="M1269.01,-74.47C1353.81,-66.57 1498.64,-51.45 1621.88,-30.5 1626.81,-29.66 1631.93,-28.69 1637.03,-27.66"/>
<polygon fill="#63b8ff" stroke="#63b8ff" points="1637.55,-31.13 1646.62,-25.64 1636.11,-24.28 1637.55,-31.13"/>
</a>
</g>
</g>
<!-- Node14 -->
<g id="Node000014" class="node">
<title>Node14</title>
<g id="a_Node000014"><a xlink:title=" ">
<polygon fill="#e0e0e0" stroke="#999999" points="1878.62,-30.5 1759.12,-30.5 1759.12,0 1878.62,0 1878.62,-30.5"/>
<text xml:space="preserve" text-anchor="start" x="1767.12" y="-17" font-family="Helvetica,sans-Serif" font-size="10.00">jakarta.persistence.Join</text>
<text xml:space="preserve" text-anchor="middle" x="1818.88" y="-5.75" font-family="Helvetica,sans-Serif" font-size="10.00">Table</text>
</a>
</g>
</g>
<!-- Node1&#45;&gt;Node14 -->
<g id="edge13_Node000001_Node000014" class="edge">
<title>Node1&#45;&gt;Node14</title>
<g id="a_edge13_Node000001_Node000014"><a xlink:title=" ">
<path fill="none" stroke="#63b8ff" d="M1268.77,-76.82C1372.39,-70.58 1569.91,-56.53 1747.6,-30.72"/>
<polygon fill="#63b8ff" stroke="#63b8ff" points="1747.85,-34.22 1757.24,-29.31 1746.84,-27.3 1747.85,-34.22"/>
</a>
</g>
</g>
<!-- Node15 -->
<g id="Node000015" class="node">
<title>Node15</title>
<g id="a_Node000015"><a xlink:title=" ">
<polygon fill="#e0e0e0" stroke="#999999" points="2022.62,-30.5 1897.12,-30.5 1897.12,0 2022.62,0 2022.62,-30.5"/>
<text xml:space="preserve" text-anchor="start" x="1905.12" y="-17" font-family="Helvetica,sans-Serif" font-size="10.00">jakarta.persistence.Many</text>
<text xml:space="preserve" text-anchor="middle" x="1959.88" y="-5.75" font-family="Helvetica,sans-Serif" font-size="10.00">ToMany</text>
</a>
</g>
</g>
<!-- Node1&#45;&gt;Node15 -->
<g id="edge14_Node000001_Node000015" class="edge">
<title>Node1&#45;&gt;Node15</title>
<g id="a_edge14_Node000001_Node000015"><a xlink:title=" ">
<path fill="none" stroke="#63b8ff" d="M1269.05,-78.42C1393.06,-73.78 1654.72,-61.18 1885.42,-30.71"/>
<polygon fill="#63b8ff" stroke="#63b8ff" points="1885.78,-34.2 1895.23,-29.4 1884.86,-27.26 1885.78,-34.2"/>
</a>
</g>
</g>
<!-- Node16 -->
<g id="Node000016" class="node">
<title>Node16</title>
<g id="a_Node000016"><a xlink:title=" ">
<polygon fill="#e0e0e0" stroke="#999999" points="2194.88,-24.88 2040.88,-24.88 2040.88,-5.63 2194.88,-5.63 2194.88,-24.88"/>
<text xml:space="preserve" text-anchor="middle" x="2117.88" y="-11.38" font-family="Helvetica,sans-Serif" font-size="10.00">jakarta.persistence.OneToMany</text>
</a>
</g>
</g>
<!-- Node1&#45;&gt;Node16 -->
<g id="edge15_Node000001_Node000016" class="edge">
<title>Node1&#45;&gt;Node16</title>
<g id="a_edge15_Node000001_Node000016"><a xlink:title=" ">
<path fill="none" stroke="#63b8ff" d="M1268.85,-78.94C1413.72,-74.74 1750.64,-62.18 2031.88,-30.5 2040.04,-29.58 2048.62,-28.41 2057.06,-27.13"/>
<polygon fill="#63b8ff" stroke="#63b8ff" points="2057.6,-30.59 2066.93,-25.58 2056.51,-23.68 2057.6,-30.59"/>
</a>
</g>
</g>
<!-- Node17 -->
<g id="Node000017" class="node">
<title>Node17</title>
<g id="a_Node000017"><a xlink:title=" ">
<polygon fill="#e0e0e0" stroke="#999999" points="2358.38,-30.5 2213.38,-30.5 2213.38,0 2358.38,0 2358.38,-30.5"/>
<text xml:space="preserve" text-anchor="start" x="2221.38" y="-17" font-family="Helvetica,sans-Serif" font-size="10.00">jakarta.persistence.Sequence</text>
<text xml:space="preserve" text-anchor="middle" x="2285.88" y="-5.75" font-family="Helvetica,sans-Serif" font-size="10.00">Generator</text>
</a>
</g>
</g>
<!-- Node1&#45;&gt;Node17 -->
<g id="edge16_Node000001_Node000017" class="edge">
<title>Node1&#45;&gt;Node17</title>
<g id="a_edge16_Node000001_Node000017"><a xlink:title=" ">
<path fill="none" stroke="#63b8ff" d="M1268.85,-80.17C1432.67,-78.21 1846.05,-69.57 2201.76,-30.63"/>
<polygon fill="#63b8ff" stroke="#63b8ff" points="2202,-34.12 2211.56,-29.55 2201.24,-27.17 2202,-34.12"/>
</a>
</g>
</g>
<!-- Node18 -->
<g id="Node000018" class="node">
<title>Node18</title>
<g id="a_Node000018"><a xlink:title=" ">
<polygon fill="#e0e0e0" stroke="#999999" points="2495.62,-30.5 2376.12,-30.5 2376.12,0 2495.62,0 2495.62,-30.5"/>
<text xml:space="preserve" text-anchor="start" x="2384.12" y="-17" font-family="Helvetica,sans-Serif" font-size="10.00">jakarta.persistence.Join</text>
<text xml:space="preserve" text-anchor="middle" x="2435.88" y="-5.75" font-family="Helvetica,sans-Serif" font-size="10.00">Column</text>
</a>
</g>
</g>
<!-- Node1&#45;&gt;Node18 -->
<g id="edge17_Node000001_Node000018" class="edge">
<title>Node1&#45;&gt;Node18</title>
<g id="a_edge17_Node000001_Node000018"><a xlink:title=" ">
<path fill="none" stroke="#63b8ff" d="M1269.01,-79.2C1486.13,-74.3 2132.32,-57.91 2364.81,-30.72"/>
<polygon fill="#63b8ff" stroke="#63b8ff" points="2364.89,-34.24 2374.39,-29.56 2364.04,-27.29 2364.89,-34.24"/>
</a>
</g>
</g>
</g>
</svg>
