<?xml version="1.0" encoding="UTF-8" standalone="no"?>
<!DOCTYPE svg PUBLIC "-//W3C//DTD SVG 1.1//EN"
 "http://www.w3.org/Graphics/SVG/1.1/DTD/svg11.dtd">
<!-- Generated by graphviz version 14.0.4 (20251115.1723)
 -->
<!-- Title: frontend/node_modules/@parcel/watcher/src/PromiseRunner.hh Pages: 1 -->
<svg width="747pt" height="216pt"
 viewBox="0.00 0.00 747.00 216.00" xmlns="http://www.w3.org/2000/svg" xmlns:xlink="http://www.w3.org/1999/xlink">
<g id="graph0" class="graph" transform="scale(1 1) rotate(0) translate(4 211.5)">
<title>frontend/node_modules/@parcel/watcher/src/PromiseRunner.hh</title>
<!-- Node1 -->
<g id="Node000001" class="node">
<title>Node1</title>
<g id="a_Node000001"><a xlink:title=" ">
<polygon fill="#999999" stroke="#666666" points="228.25,-207.5 111,-207.5 111,-165.75 228.25,-165.75 228.25,-207.5"/>
<text xml:space="preserve" text-anchor="start" x="119" y="-194" font-family="Helvetica,sans-Serif" font-size="10.00">frontend/node_modules</text>
<text xml:space="preserve" text-anchor="start" x="119" y="-182.75" font-family="Helvetica,sans-Serif" font-size="10.00">/@parcel/watcher/src</text>
<text xml:space="preserve" text-anchor="middle" x="169.62" y="-171.5" font-family="Helvetica,sans-Serif" font-size="10.00">/PromiseRunner.hh</text>
</a>
</g>
</g>
<!-- Node2 -->
<g id="Node000002" class="node">
<title>Node2</title>
<g id="a_Node000002"><a xlink:title=" ">
<polygon fill="#e0e0e0" stroke="#999999" points="63.25,-74.5 0,-74.5 0,-55.25 63.25,-55.25 63.25,-74.5"/>
<text xml:space="preserve" text-anchor="middle" x="31.62" y="-61" font-family="Helvetica,sans-Serif" font-size="10.00">node_api.h</text>
</a>
</g>
</g>
<!-- Node1&#45;&gt;Node2 -->
<g id="edge1_Node000001_Node000002" class="edge">
<title>Node1&#45;&gt;Node2</title>
<g id="a_edge1_Node000001_Node000002"><a xlink:title=" ">
<path fill="none" stroke="#63b8ff" d="M146.22,-165.31C119.21,-141.88 75.35,-103.82 50.45,-82.21"/>
<polygon fill="#63b8ff" stroke="#63b8ff" points="52.91,-79.71 43.06,-75.8 48.32,-84.99 52.91,-79.71"/>
</a>
</g>
</g>
<!-- Node3 -->
<g id="Node000003" class="node">
<title>Node3</title>
<g id="a_Node000003"><a xlink:href="include_8h.html" target="_top" xlink:title=" ">
<polygon fill="white" stroke="#666666" points="211.75,-129.75 127.5,-129.75 127.5,-110.5 211.75,-110.5 211.75,-129.75"/>
<text xml:space="preserve" text-anchor="middle" x="169.62" y="-116.25" font-family="Helvetica,sans-Serif" font-size="10.00">wasm/include.h</text>
</a>
</g>
</g>
<!-- Node1&#45;&gt;Node3 -->
<g id="edge2_Node000001_Node000003" class="edge">
<title>Node1&#45;&gt;Node3</title>
<g id="a_edge2_Node000001_Node000003"><a xlink:title=" ">
<path fill="none" stroke="#63b8ff" d="M169.62,-165.57C169.62,-157.9 169.62,-149.14 169.62,-141.45"/>
<polygon fill="#63b8ff" stroke="#63b8ff" points="173.13,-141.71 169.63,-131.71 166.13,-141.71 173.13,-141.71"/>
</a>
</g>
</g>
<!-- Node4 -->
<g id="Node000004" class="node">
<title>Node4</title>
<g id="a_Node000004"><a xlink:href="napi_8h.html" target="_top" xlink:title=" ">
<polygon fill="white" stroke="#666666" points="294.75,-129.75 252.5,-129.75 252.5,-110.5 294.75,-110.5 294.75,-129.75"/>
<text xml:space="preserve" text-anchor="middle" x="273.62" y="-116.25" font-family="Helvetica,sans-Serif" font-size="10.00">napi.h</text>
</a>
</g>
</g>
<!-- Node1&#45;&gt;Node4 -->
<g id="edge3_Node000001_Node000004" class="edge">
<title>Node1&#45;&gt;Node4</title>
<g id="a_edge3_Node000001_Node000004"><a xlink:title=" ">
<path fill="none" stroke="#63b8ff" d="M202.25,-165.39C217.59,-155.88 235.55,-144.74 249.62,-136.01"/>
<polygon fill="#63b8ff" stroke="#63b8ff" points="251.14,-139.19 257.8,-130.94 247.45,-133.24 251.14,-139.19"/>
</a>
</g>
</g>
<!-- Node4&#45;&gt;Node2 -->
<g id="edge4_Node000004_Node000002" class="edge">
<title>Node4&#45;&gt;Node2</title>
<g id="a_edge4_Node000004_Node000002"><a xlink:title=" ">
<path fill="none" stroke="#63b8ff" d="M252.15,-114.4C212.47,-105.67 126.96,-86.85 74.85,-75.39"/>
<polygon fill="#63b8ff" stroke="#63b8ff" points="75.63,-71.97 65.11,-73.24 74.13,-78.81 75.63,-71.97"/>
</a>
</g>
</g>
<!-- Node5 -->
<g id="Node000005" class="node">
<title>Node5</title>
<g id="a_Node000005"><a xlink:title=" ">
<polygon fill="#e0e0e0" stroke="#999999" points="139.62,-74.5 81.62,-74.5 81.62,-55.25 139.62,-55.25 139.62,-74.5"/>
<text xml:space="preserve" text-anchor="middle" x="110.62" y="-61" font-family="Helvetica,sans-Serif" font-size="10.00">functional</text>
</a>
</g>
</g>
<!-- Node4&#45;&gt;Node5 -->
<g id="edge5_Node000004_Node000005" class="edge">
<title>Node4&#45;&gt;Node5</title>
<g id="a_edge5_Node000004_Node000005"><a xlink:title=" ">
<path fill="none" stroke="#63b8ff" d="M252.32,-112.16C226.22,-103.64 181.54,-89.04 149.32,-78.51"/>
<polygon fill="#63b8ff" stroke="#63b8ff" points="150.52,-75.23 139.93,-75.45 148.35,-81.88 150.52,-75.23"/>
</a>
</g>
</g>
<!-- Node6 -->
<g id="Node000006" class="node">
<title>Node6</title>
<g id="a_Node000006"><a xlink:title=" ">
<polygon fill="#e0e0e0" stroke="#999999" points="229.75,-74.5 157.5,-74.5 157.5,-55.25 229.75,-55.25 229.75,-74.5"/>
<text xml:space="preserve" text-anchor="middle" x="193.62" y="-61" font-family="Helvetica,sans-Serif" font-size="10.00">initializer_list</text>
</a>
</g>
</g>
<!-- Node4&#45;&gt;Node6 -->
<g id="edge6_Node000004_Node000006" class="edge">
<title>Node4&#45;&gt;Node6</title>
<g id="a_edge6_Node000004_Node000006"><a xlink:title=" ">
<path fill="none" stroke="#63b8ff" d="M260.05,-110.09C248.22,-102.21 230.79,-90.61 216.75,-81.27"/>
<polygon fill="#63b8ff" stroke="#63b8ff" points="218.79,-78.42 208.52,-75.79 214.91,-84.25 218.79,-78.42"/>
</a>
</g>
</g>
<!-- Node7 -->
<g id="Node000007" class="node">
<title>Node7</title>
<g id="a_Node000007"><a xlink:title=" ">
<polygon fill="#e0e0e0" stroke="#999999" points="299.25,-74.5 248,-74.5 248,-55.25 299.25,-55.25 299.25,-74.5"/>
<text xml:space="preserve" text-anchor="middle" x="273.62" y="-61" font-family="Helvetica,sans-Serif" font-size="10.00">memory</text>
</a>
</g>
</g>
<!-- Node4&#45;&gt;Node7 -->
<g id="edge7_Node000004_Node000007" class="edge">
<title>Node4&#45;&gt;Node7</title>
<g id="a_edge7_Node000004_Node000007"><a xlink:title=" ">
<path fill="none" stroke="#63b8ff" d="M273.62,-110.33C273.62,-103.82 273.62,-94.67 273.62,-86.37"/>
<polygon fill="#63b8ff" stroke="#63b8ff" points="277.13,-86.37 273.63,-76.37 270.13,-86.37 277.13,-86.37"/>
</a>
</g>
</g>
<!-- Node8 -->
<g id="Node000008" class="node">
<title>Node8</title>
<g id="a_Node000008"><a xlink:title=" ">
<polygon fill="#e0e0e0" stroke="#999999" points="360.12,-74.5 317.12,-74.5 317.12,-55.25 360.12,-55.25 360.12,-74.5"/>
<text xml:space="preserve" text-anchor="middle" x="338.62" y="-61" font-family="Helvetica,sans-Serif" font-size="10.00">mutex</text>
</a>
</g>
</g>
<!-- Node4&#45;&gt;Node8 -->
<g id="edge8_Node000004_Node000008" class="edge">
<title>Node4&#45;&gt;Node8</title>
<g id="a_edge8_Node000004_Node000008"><a xlink:title=" ">
<path fill="none" stroke="#63b8ff" d="M284.65,-110.09C294.05,-102.4 307.77,-91.15 319.03,-81.93"/>
<polygon fill="#63b8ff" stroke="#63b8ff" points="321.07,-84.78 326.59,-75.73 316.64,-79.36 321.07,-84.78"/>
</a>
</g>
</g>
<!-- Node9 -->
<g id="Node000009" class="node">
<title>Node9</title>
<g id="a_Node000009"><a xlink:title=" ">
<polygon fill="#e0e0e0" stroke="#999999" points="418.62,-74.5 378.62,-74.5 378.62,-55.25 418.62,-55.25 418.62,-74.5"/>
<text xml:space="preserve" text-anchor="middle" x="398.62" y="-61" font-family="Helvetica,sans-Serif" font-size="10.00">string</text>
</a>
</g>
</g>
<!-- Node4&#45;&gt;Node9 -->
<g id="edge9_Node000004_Node000009" class="edge">
<title>Node4&#45;&gt;Node9</title>
<g id="a_edge9_Node000004_Node000009"><a xlink:title=" ">
<path fill="none" stroke="#63b8ff" d="M294.83,-110.09C314.82,-101.57 345.02,-88.71 367.7,-79.05"/>
<polygon fill="#63b8ff" stroke="#63b8ff" points="368.93,-82.33 376.76,-75.19 366.18,-75.89 368.93,-82.33"/>
</a>
</g>
</g>
<!-- Node10 -->
<g id="Node000010" class="node">
<title>Node10</title>
<g id="a_Node000010"><a xlink:title=" ">
<polygon fill="#e0e0e0" stroke="#999999" points="480.12,-74.5 437.12,-74.5 437.12,-55.25 480.12,-55.25 480.12,-74.5"/>
<text xml:space="preserve" text-anchor="middle" x="458.62" y="-61" font-family="Helvetica,sans-Serif" font-size="10.00">vector</text>
</a>
</g>
</g>
<!-- Node4&#45;&gt;Node10 -->
<g id="edge10_Node000004_Node000010" class="edge">
<title>Node4&#45;&gt;Node10</title>
<g id="a_edge10_Node000004_Node000010"><a xlink:title=" ">
<path fill="none" stroke="#63b8ff" d="M295.21,-112.91C327.43,-103.64 388.33,-86.11 426.01,-75.26"/>
<polygon fill="#63b8ff" stroke="#63b8ff" points="426.8,-78.68 435.44,-72.55 424.86,-71.95 426.8,-78.68"/>
</a>
</g>
</g>
<!-- Node11 -->
<g id="Node000011" class="node">
<title>Node11</title>
<g id="a_Node000011"><a xlink:href="napi-inl_8h.html" target="_top" xlink:title=" ">
<polygon fill="white" stroke="#666666" points="553.12,-74.5 498.12,-74.5 498.12,-55.25 553.12,-55.25 553.12,-74.5"/>
<text xml:space="preserve" text-anchor="middle" x="525.62" y="-61" font-family="Helvetica,sans-Serif" font-size="10.00">napi&#45;inl.h</text>
</a>
</g>
</g>
<!-- Node4&#45;&gt;Node11 -->
<g id="edge11_Node000004_Node000011" class="edge">
<title>Node4&#45;&gt;Node11</title>
<g id="a_edge11_Node000004_Node000011"><a xlink:title=" ">
<path fill="none" stroke="#63b8ff" d="M295.13,-114.91C332.21,-107.61 410.79,-91.9 486.58,-75.13"/>
<polygon fill="#63b8ff" stroke="#63b8ff" points="487.26,-78.56 496.26,-72.98 485.74,-71.73 487.26,-78.56"/>
</a>
</g>
</g>
<!-- Node12 -->
<g id="Node000012" class="node">
<title>Node12</title>
<g id="a_Node000012"><a xlink:title=" ">
<polygon fill="#e0e0e0" stroke="#999999" points="412.5,-19.25 356.75,-19.25 356.75,0 412.5,0 412.5,-19.25"/>
<text xml:space="preserve" text-anchor="middle" x="384.62" y="-5.75" font-family="Helvetica,sans-Serif" font-size="10.00">algorithm</text>
</a>
</g>
</g>
<!-- Node11&#45;&gt;Node12 -->
<g id="edge12_Node000011_Node000012" class="edge">
<title>Node11&#45;&gt;Node12</title>
<g id="a_edge12_Node000011_Node000012"><a xlink:title=" ">
<path fill="none" stroke="#63b8ff" d="M501.71,-54.84C479.12,-46.31 444.99,-33.42 419.4,-23.76"/>
<polygon fill="#63b8ff" stroke="#63b8ff" points="420.67,-20.5 410.08,-20.24 418.2,-27.04 420.67,-20.5"/>
</a>
</g>
</g>
<!-- Node13 -->
<g id="Node000013" class="node">
<title>Node13</title>
<g id="a_Node000013"><a xlink:title=" ">
<polygon fill="#e0e0e0" stroke="#999999" points="476.25,-19.25 431,-19.25 431,0 476.25,0 476.25,-19.25"/>
<text xml:space="preserve" text-anchor="middle" x="453.62" y="-5.75" font-family="Helvetica,sans-Serif" font-size="10.00">cstring</text>
</a>
</g>
</g>
<!-- Node11&#45;&gt;Node13 -->
<g id="edge13_Node000011_Node000013" class="edge">
<title>Node11&#45;&gt;Node13</title>
<g id="a_edge13_Node000011_Node000013"><a xlink:title=" ">
<path fill="none" stroke="#63b8ff" d="M513.41,-54.84C502.8,-46.99 487.19,-35.45 474.58,-26.12"/>
<polygon fill="#63b8ff" stroke="#63b8ff" points="477,-23.56 466.88,-20.42 472.83,-29.19 477,-23.56"/>
</a>
</g>
</g>
<!-- Node14 -->
<g id="Node000014" class="node">
<title>Node14</title>
<g id="a_Node000014"><a xlink:title=" ">
<polygon fill="#e0e0e0" stroke="#999999" points="556.5,-19.25 494.75,-19.25 494.75,0 556.5,0 556.5,-19.25"/>
<text xml:space="preserve" text-anchor="middle" x="525.62" y="-5.75" font-family="Helvetica,sans-Serif" font-size="10.00">type_traits</text>
</a>
</g>
</g>
<!-- Node11&#45;&gt;Node14 -->
<g id="edge14_Node000011_Node000014" class="edge">
<title>Node11&#45;&gt;Node14</title>
<g id="a_edge14_Node000011_Node000014"><a xlink:title=" ">
<path fill="none" stroke="#63b8ff" d="M525.62,-55.08C525.62,-48.57 525.62,-39.42 525.62,-31.12"/>
<polygon fill="#63b8ff" stroke="#63b8ff" points="529.13,-31.12 525.63,-21.12 522.13,-31.12 529.13,-31.12"/>
</a>
</g>
</g>
<!-- Node15 -->
<g id="Node000015" class="node">
<title>Node15</title>
<g id="a_Node000015"><a xlink:title=" ">
<polygon fill="#e0e0e0" stroke="#999999" points="614.25,-19.25 575,-19.25 575,0 614.25,0 614.25,-19.25"/>
<text xml:space="preserve" text-anchor="middle" x="594.62" y="-5.75" font-family="Helvetica,sans-Serif" font-size="10.00">utility</text>
</a>
</g>
</g>
<!-- Node11&#45;&gt;Node15 -->
<g id="edge15_Node000011_Node000015" class="edge">
<title>Node11&#45;&gt;Node15</title>
<g id="a_edge15_Node000011_Node000015"><a xlink:title=" ">
<path fill="none" stroke="#63b8ff" d="M537.33,-54.84C547.4,-47.07 562.17,-35.67 574.19,-26.4"/>
<polygon fill="#63b8ff" stroke="#63b8ff" points="576.12,-29.33 581.89,-20.45 571.84,-23.79 576.12,-29.33"/>
</a>
</g>
</g>
<!-- Node16 -->
<g id="Node000016" class="node">
<title>Node16</title>
<g id="a_Node000016"><a xlink:href="napi-inl_8deprecated_8h.html" target="_top" xlink:title=" ">
<polygon fill="white" stroke="#666666" points="738.62,-19.25 632.62,-19.25 632.62,0 738.62,0 738.62,-19.25"/>
<text xml:space="preserve" text-anchor="middle" x="685.62" y="-5.75" font-family="Helvetica,sans-Serif" font-size="10.00">napi&#45;inl.deprecated.h</text>
</a>
</g>
</g>
<!-- Node11&#45;&gt;Node16 -->
<g id="edge16_Node000011_Node000016" class="edge">
<title>Node11&#45;&gt;Node16</title>
<g id="a_edge16_Node000011_Node000016"><a xlink:title=" ">
<path fill="none" stroke="#63b8ff" d="M552.77,-54.84C578.86,-46.16 618.52,-32.96 647.72,-23.24"/>
<polygon fill="#63b8ff" stroke="#63b8ff" points="648.53,-26.66 656.91,-20.18 646.32,-20.02 648.53,-26.66"/>
</a>
</g>
</g>
</g>
</svg>
