<?xml version="1.0" encoding="UTF-8" standalone="no"?>
<!DOCTYPE svg PUBLIC "-//W3C//DTD SVG 1.1//EN"
 "http://www.w3.org/Graphics/SVG/1.1/DTD/svg11.dtd">
<!-- Generated by graphviz version 14.0.4 (20251115.1723)
 -->
<!-- Title: src/main/java/com/goldenleaf/shop/config/RabbitConfig.java Pages: 1 -->
<svg width="1267pt" height="105pt"
 viewBox="0.00 0.00 1267.00 105.00" xmlns="http://www.w3.org/2000/svg" xmlns:xlink="http://www.w3.org/1999/xlink">
<g id="graph0" class="graph" transform="scale(1 1) rotate(0) translate(4 101)">
<title>src/main/java/com/goldenleaf/shop/config/RabbitConfig.java</title>
<!-- Node1 -->
<g id="Node000001" class="node">
<title>Node1</title>
<g id="a_Node000001"><a xlink:title=" ">
<polygon fill="#999999" stroke="#666666" points="679.25,-97 529,-97 529,-66.5 679.25,-66.5 679.25,-97"/>
<text xml:space="preserve" text-anchor="start" x="537" y="-83.5" font-family="Helvetica,sans-Serif" font-size="10.00">src/main/java/com/goldenleaf</text>
<text xml:space="preserve" text-anchor="middle" x="604.12" y="-72.25" font-family="Helvetica,sans-Serif" font-size="10.00">/shop/config/RabbitConfig.java</text>
</a>
</g>
</g>
<!-- Node2 -->
<g id="Node000002" class="node">
<title>Node2</title>
<g id="a_Node000002"><a xlink:title=" ">
<polygon fill="#e0e0e0" stroke="#999999" points="156.25,-30.5 0,-30.5 0,0 156.25,0 156.25,-30.5"/>
<text xml:space="preserve" text-anchor="start" x="8" y="-17" font-family="Helvetica,sans-Serif" font-size="10.00">org.springframework.amqp.core.</text>
<text xml:space="preserve" text-anchor="middle" x="78.12" y="-5.75" font-family="Helvetica,sans-Serif" font-size="10.00">Queue</text>
</a>
</g>
</g>
<!-- Node1&#45;&gt;Node2 -->
<g id="edge1_Node000001_Node000002" class="edge">
<title>Node1&#45;&gt;Node2</title>
<g id="a_edge1_Node000001_Node000002"><a xlink:title=" ">
<path fill="none" stroke="#63b8ff" d="M528.63,-73.23C443.45,-64.49 300.48,-49.07 167.54,-30.79"/>
<polygon fill="#63b8ff" stroke="#63b8ff" points="168.24,-27.36 157.85,-29.45 167.28,-34.29 168.24,-27.36"/>
</a>
</g>
</g>
<!-- Node3 -->
<g id="Node000003" class="node">
<title>Node3</title>
<g id="a_Node000003"><a xlink:title=" ">
<polygon fill="#e0e0e0" stroke="#999999" points="386,-30.5 174.25,-30.5 174.25,0 386,0 386,-30.5"/>
<text xml:space="preserve" text-anchor="start" x="182.25" y="-17" font-family="Helvetica,sans-Serif" font-size="10.00">org.springframework.amqp.rabbit.connection.</text>
<text xml:space="preserve" text-anchor="middle" x="280.12" y="-5.75" font-family="Helvetica,sans-Serif" font-size="10.00">ConnectionFactory</text>
</a>
</g>
</g>
<!-- Node1&#45;&gt;Node3 -->
<g id="edge2_Node000001_Node000003" class="edge">
<title>Node1&#45;&gt;Node3</title>
<g id="a_edge2_Node000001_Node000003"><a xlink:title=" ">
<path fill="none" stroke="#63b8ff" d="M530.2,-66.03C481.04,-56.25 416.35,-43.37 365.07,-33.16"/>
<polygon fill="#63b8ff" stroke="#63b8ff" points="365.99,-29.77 355.5,-31.25 364.62,-36.64 365.99,-29.77"/>
</a>
</g>
</g>
<!-- Node4 -->
<g id="Node000004" class="node">
<title>Node4</title>
<g id="a_Node000004"><a xlink:title=" ">
<polygon fill="#e0e0e0" stroke="#999999" points="587.75,-30.5 404.5,-30.5 404.5,0 587.75,0 587.75,-30.5"/>
<text xml:space="preserve" text-anchor="start" x="412.5" y="-17" font-family="Helvetica,sans-Serif" font-size="10.00">org.springframework.amqp.rabbit.core.</text>
<text xml:space="preserve" text-anchor="middle" x="496.12" y="-5.75" font-family="Helvetica,sans-Serif" font-size="10.00">RabbitTemplate</text>
</a>
</g>
</g>
<!-- Node1&#45;&gt;Node4 -->
<g id="edge3_Node000001_Node000004" class="edge">
<title>Node1&#45;&gt;Node4</title>
<g id="a_edge3_Node000001_Node000004"><a xlink:title=" ">
<path fill="none" stroke="#63b8ff" d="M579.62,-66.11C564.98,-57.37 546.17,-46.14 530.12,-36.55"/>
<polygon fill="#63b8ff" stroke="#63b8ff" points="532.21,-33.73 521.83,-31.6 528.63,-39.74 532.21,-33.73"/>
</a>
</g>
</g>
<!-- Node5 -->
<g id="Node000005" class="node">
<title>Node5</title>
<g id="a_Node000005"><a xlink:title=" ">
<polygon fill="#e0e0e0" stroke="#999999" points="818.38,-30.5 605.88,-30.5 605.88,0 818.38,0 818.38,-30.5"/>
<text xml:space="preserve" text-anchor="start" x="613.88" y="-17" font-family="Helvetica,sans-Serif" font-size="10.00">org.springframework.amqp.support.converter.</text>
<text xml:space="preserve" text-anchor="middle" x="712.12" y="-5.75" font-family="Helvetica,sans-Serif" font-size="10.00">Jackson2JsonMessageConverter</text>
</a>
</g>
</g>
<!-- Node1&#45;&gt;Node5 -->
<g id="edge4_Node000001_Node000005" class="edge">
<title>Node1&#45;&gt;Node5</title>
<g id="a_edge4_Node000001_Node000005"><a xlink:title=" ">
<path fill="none" stroke="#63b8ff" d="M628.63,-66.11C643.27,-57.37 662.08,-46.14 678.13,-36.55"/>
<polygon fill="#63b8ff" stroke="#63b8ff" points="679.62,-39.74 686.42,-31.6 676.04,-33.73 679.62,-39.74"/>
</a>
</g>
</g>
<!-- Node6 -->
<g id="Node000006" class="node">
<title>Node6</title>
<g id="a_Node000006"><a xlink:title=" ">
<polygon fill="#e0e0e0" stroke="#999999" points="1049.75,-24.88 836.5,-24.88 836.5,-5.63 1049.75,-5.63 1049.75,-24.88"/>
<text xml:space="preserve" text-anchor="middle" x="943.12" y="-11.38" font-family="Helvetica,sans-Serif" font-size="10.00">org.springframework.context.annotation.Bean</text>
</a>
</g>
</g>
<!-- Node1&#45;&gt;Node6 -->
<g id="edge5_Node000001_Node000006" class="edge">
<title>Node1&#45;&gt;Node6</title>
<g id="a_edge5_Node000001_Node000006"><a xlink:title=" ">
<path fill="none" stroke="#63b8ff" d="M679.36,-66.44C741.17,-54.67 827.5,-38.25 884.33,-27.44"/>
<polygon fill="#63b8ff" stroke="#63b8ff" points="884.63,-30.94 893.8,-25.64 883.32,-24.07 884.63,-30.94"/>
</a>
</g>
</g>
<!-- Node7 -->
<g id="Node000007" class="node">
<title>Node7</title>
<g id="a_Node000007"><a xlink:title=" ">
<polygon fill="#e0e0e0" stroke="#999999" points="1258.5,-30.5 1067.75,-30.5 1067.75,0 1258.5,0 1258.5,-30.5"/>
<text xml:space="preserve" text-anchor="start" x="1075.75" y="-17" font-family="Helvetica,sans-Serif" font-size="10.00">org.springframework.context.annotation.</text>
<text xml:space="preserve" text-anchor="middle" x="1163.12" y="-5.75" font-family="Helvetica,sans-Serif" font-size="10.00">Configuration</text>
</a>
</g>
</g>
<!-- Node1&#45;&gt;Node7 -->
<g id="edge6_Node000001_Node000007" class="edge">
<title>Node1&#45;&gt;Node7</title>
<g id="a_edge6_Node000001_Node000007"><a xlink:title=" ">
<path fill="none" stroke="#63b8ff" d="M679.47,-73.04C767.39,-63.9 917.46,-47.89 1056.13,-30.85"/>
<polygon fill="#63b8ff" stroke="#63b8ff" points="1056.37,-34.35 1065.87,-29.65 1055.51,-27.4 1056.37,-34.35"/>
</a>
</g>
</g>
</g>
</svg>
