<?xml version="1.0" encoding="UTF-8" standalone="no"?>
<!DOCTYPE svg PUBLIC "-//W3C//DTD SVG 1.1//EN"
 "http://www.w3.org/Graphics/SVG/1.1/DTD/svg11.dtd">
<!-- Generated by graphviz version 14.0.4 (20251115.1723)
 -->
<!-- Title: src/main/java/com/goldenleaf/shop/repository/ReviewRepository.java Pages: 1 -->
<svg width="926pt" height="105pt"
 viewBox="0.00 0.00 926.00 105.00" xmlns="http://www.w3.org/2000/svg" xmlns:xlink="http://www.w3.org/1999/xlink">
<g id="graph0" class="graph" transform="scale(1 1) rotate(0) translate(4 101)">
<title>src/main/java/com/goldenleaf/shop/repository/ReviewRepository.java</title>
<!-- Node1 -->
<g id="Node000001" class="node">
<title>Node1</title>
<g id="a_Node000001"><a xlink:title=" ">
<polygon fill="#999999" stroke="#666666" points="548.5,-97 360,-97 360,-66.5 548.5,-66.5 548.5,-97"/>
<text xml:space="preserve" text-anchor="start" x="368" y="-83.5" font-family="Helvetica,sans-Serif" font-size="10.00">src/main/java/com/goldenleaf</text>
<text xml:space="preserve" text-anchor="middle" x="454.25" y="-72.25" font-family="Helvetica,sans-Serif" font-size="10.00">/shop/repository/ReviewRepository.java</text>
</a>
</g>
</g>
<!-- Node2 -->
<g id="Node000002" class="node">
<title>Node2</title>
<g id="a_Node000002"><a xlink:title=" ">
<polygon fill="#e0e0e0" stroke="#999999" points="68.5,-24.88 0,-24.88 0,-5.63 68.5,-5.63 68.5,-24.88"/>
<text xml:space="preserve" text-anchor="middle" x="34.25" y="-11.38" font-family="Helvetica,sans-Serif" font-size="10.00">java.util.List</text>
</a>
</g>
</g>
<!-- Node1&#45;&gt;Node2 -->
<g id="edge1_Node000001_Node000002" class="edge">
<title>Node1&#45;&gt;Node2</title>
<g id="a_edge1_Node000001_Node000002"><a xlink:title=" ">
<path fill="none" stroke="#63b8ff" d="M359.64,-73.1C282.86,-65.7 172.16,-52.35 77.25,-30.5 74.82,-29.94 72.34,-29.3 69.84,-28.61"/>
<polygon fill="#63b8ff" stroke="#63b8ff" points="71.07,-25.33 60.49,-25.78 69.04,-32.03 71.07,-25.33"/>
</a>
</g>
</g>
<!-- Node3 -->
<g id="Node000003" class="node">
<title>Node3</title>
<g id="a_Node000003"><a xlink:title=" ">
<polygon fill="#e0e0e0" stroke="#999999" points="275.88,-30.5 86.62,-30.5 86.62,0 275.88,0 275.88,-30.5"/>
<text xml:space="preserve" text-anchor="start" x="94.62" y="-17" font-family="Helvetica,sans-Serif" font-size="10.00">org.springframework.data.jpa.repository.</text>
<text xml:space="preserve" text-anchor="middle" x="181.25" y="-5.75" font-family="Helvetica,sans-Serif" font-size="10.00">JpaRepository</text>
</a>
</g>
</g>
<!-- Node1&#45;&gt;Node3 -->
<g id="edge2_Node000001_Node000003" class="edge">
<title>Node1&#45;&gt;Node3</title>
<g id="a_edge2_Node000001_Node000003"><a xlink:title=" ">
<path fill="none" stroke="#63b8ff" d="M391.96,-66.03C350.99,-56.35 297.21,-43.65 254.23,-33.49"/>
<polygon fill="#63b8ff" stroke="#63b8ff" points="255.28,-30.14 244.74,-31.25 253.67,-36.96 255.28,-30.14"/>
</a>
</g>
</g>
<!-- Node4 -->
<g id="Node000004" class="node">
<title>Node4</title>
<g id="a_Node000004"><a xlink:title=" ">
<polygon fill="#e0e0e0" stroke="#999999" points="450.38,-30.5 294.12,-30.5 294.12,0 450.38,0 450.38,-30.5"/>
<text xml:space="preserve" text-anchor="start" x="302.12" y="-17" font-family="Helvetica,sans-Serif" font-size="10.00">org.springframework.stereotype.</text>
<text xml:space="preserve" text-anchor="middle" x="372.25" y="-5.75" font-family="Helvetica,sans-Serif" font-size="10.00">Repository</text>
</a>
</g>
</g>
<!-- Node1&#45;&gt;Node4 -->
<g id="edge3_Node000001_Node000004" class="edge">
<title>Node1&#45;&gt;Node4</title>
<g id="a_edge3_Node000001_Node000004"><a xlink:title=" ">
<path fill="none" stroke="#63b8ff" d="M435.64,-66.11C425.05,-57.78 411.59,-47.19 399.8,-37.92"/>
<polygon fill="#63b8ff" stroke="#63b8ff" points="402,-35.2 391.97,-31.76 397.67,-40.7 402,-35.2"/>
</a>
</g>
</g>
<!-- Node5 -->
<g id="Node000005" class="node">
<title>Node5</title>
<g id="a_Node000005"><a xlink:title=" ">
<polygon fill="#e0e0e0" stroke="#999999" points="606.38,-30.5 468.12,-30.5 468.12,0 606.38,0 606.38,-30.5"/>
<text xml:space="preserve" text-anchor="start" x="476.12" y="-17" font-family="Helvetica,sans-Serif" font-size="10.00">com.goldenleaf.shop.model.</text>
<text xml:space="preserve" text-anchor="middle" x="537.25" y="-5.75" font-family="Helvetica,sans-Serif" font-size="10.00">Review</text>
</a>
</g>
</g>
<!-- Node1&#45;&gt;Node5 -->
<g id="edge4_Node000001_Node000005" class="edge">
<title>Node1&#45;&gt;Node5</title>
<g id="a_edge4_Node000001_Node000005"><a xlink:title=" ">
<path fill="none" stroke="#63b8ff" d="M473.08,-66.11C483.91,-57.7 497.7,-46.98 509.72,-37.64"/>
<polygon fill="#63b8ff" stroke="#63b8ff" points="511.55,-40.66 517.3,-31.76 507.25,-35.13 511.55,-40.66"/>
</a>
</g>
</g>
<!-- Node6 -->
<g id="Node000006" class="node">
<title>Node6</title>
<g id="a_Node000006"><a xlink:title=" ">
<polygon fill="#e0e0e0" stroke="#999999" points="762.38,-30.5 624.12,-30.5 624.12,0 762.38,0 762.38,-30.5"/>
<text xml:space="preserve" text-anchor="start" x="632.12" y="-17" font-family="Helvetica,sans-Serif" font-size="10.00">com.goldenleaf.shop.model.</text>
<text xml:space="preserve" text-anchor="middle" x="693.25" y="-5.75" font-family="Helvetica,sans-Serif" font-size="10.00">Customer</text>
</a>
</g>
</g>
<!-- Node1&#45;&gt;Node6 -->
<g id="edge5_Node000001_Node000006" class="edge">
<title>Node1&#45;&gt;Node6</title>
<g id="a_edge5_Node000001_Node000006"><a xlink:title=" ">
<path fill="none" stroke="#63b8ff" d="M508.78,-66.03C544.27,-56.46 590.74,-43.92 628.15,-33.82"/>
<polygon fill="#63b8ff" stroke="#63b8ff" points="628.75,-37.28 637.49,-31.3 626.92,-30.52 628.75,-37.28"/>
</a>
</g>
</g>
<!-- Node7 -->
<g id="Node000007" class="node">
<title>Node7</title>
<g id="a_Node000007"><a xlink:title=" ">
<polygon fill="#e0e0e0" stroke="#999999" points="918.38,-30.5 780.12,-30.5 780.12,0 918.38,0 918.38,-30.5"/>
<text xml:space="preserve" text-anchor="start" x="788.12" y="-17" font-family="Helvetica,sans-Serif" font-size="10.00">com.goldenleaf.shop.model.</text>
<text xml:space="preserve" text-anchor="middle" x="849.25" y="-5.75" font-family="Helvetica,sans-Serif" font-size="10.00">Product</text>
</a>
</g>
</g>
<!-- Node1&#45;&gt;Node7 -->
<g id="edge6_Node000001_Node000007" class="edge">
<title>Node1&#45;&gt;Node7</title>
<g id="a_edge6_Node000001_Node000007"><a xlink:title=" ">
<path fill="none" stroke="#63b8ff" d="M548.67,-66.38C608.92,-57.07 688.97,-44.44 768.7,-30.91"/>
<polygon fill="#63b8ff" stroke="#63b8ff" points="769.18,-34.38 778.45,-29.25 768,-27.48 769.18,-34.38"/>
</a>
</g>
</g>
</g>
</svg>
