<?xml version="1.0" encoding="UTF-8" standalone="no"?>
<!DOCTYPE svg PUBLIC "-//W3C//DTD SVG 1.1//EN"
 "http://www.w3.org/Graphics/SVG/1.1/DTD/svg11.dtd">
<!-- Generated by graphviz version 14.0.4 (20251115.1723)
 -->
<!-- Title: src/main/java/com/goldenleaf/shop/service/ReviewService.java Pages: 1 -->
<svg width="716pt" height="105pt"
 viewBox="0.00 0.00 716.00 105.00" xmlns="http://www.w3.org/2000/svg" xmlns:xlink="http://www.w3.org/1999/xlink">
<g id="graph0" class="graph" transform="scale(1 1) rotate(0) translate(4 101)">
<title>src/main/java/com/goldenleaf/shop/service/ReviewService.java</title>
<!-- Node1 -->
<g id="Node000001" class="node">
<title>Node1</title>
<g id="a_Node000001"><a xlink:title=" ">
<polygon fill="#999999" stroke="#666666" points="393.5,-97 229,-97 229,-66.5 393.5,-66.5 393.5,-97"/>
<text xml:space="preserve" text-anchor="start" x="237" y="-83.5" font-family="Helvetica,sans-Serif" font-size="10.00">src/main/java/com/goldenleaf</text>
<text xml:space="preserve" text-anchor="middle" x="311.25" y="-72.25" font-family="Helvetica,sans-Serif" font-size="10.00">/shop/service/ReviewService.java</text>
</a>
</g>
</g>
<!-- Node2 -->
<g id="Node000002" class="node">
<title>Node2</title>
<g id="a_Node000002"><a xlink:title=" ">
<polygon fill="#e0e0e0" stroke="#999999" points="68.5,-24.88 0,-24.88 0,-5.63 68.5,-5.63 68.5,-24.88"/>
<text xml:space="preserve" text-anchor="middle" x="34.25" y="-11.38" font-family="Helvetica,sans-Serif" font-size="10.00">java.util.List</text>
</a>
</g>
</g>
<!-- Node1&#45;&gt;Node2 -->
<g id="edge1_Node000001_Node000002" class="edge">
<title>Node1&#45;&gt;Node2</title>
<g id="a_edge1_Node000001_Node000002"><a xlink:title=" ">
<path fill="none" stroke="#63b8ff" d="M232.47,-66.05C186.84,-56.98 128.47,-44.44 77.25,-30.5 75.14,-29.93 72.99,-29.31 70.82,-28.67"/>
<polygon fill="#63b8ff" stroke="#63b8ff" points="72.07,-25.39 61.48,-25.75 69.98,-32.07 72.07,-25.39"/>
</a>
</g>
</g>
<!-- Node3 -->
<g id="Node000003" class="node">
<title>Node3</title>
<g id="a_Node000003"><a xlink:title=" ">
<polygon fill="#e0e0e0" stroke="#999999" points="224.38,-30.5 86.12,-30.5 86.12,0 224.38,0 224.38,-30.5"/>
<text xml:space="preserve" text-anchor="start" x="94.12" y="-17" font-family="Helvetica,sans-Serif" font-size="10.00">com.goldenleaf.shop.model.</text>
<text xml:space="preserve" text-anchor="middle" x="155.25" y="-5.75" font-family="Helvetica,sans-Serif" font-size="10.00">Review</text>
</a>
</g>
</g>
<!-- Node1&#45;&gt;Node3 -->
<g id="edge2_Node000001_Node000003" class="edge">
<title>Node1&#45;&gt;Node3</title>
<g id="a_edge2_Node000001_Node000003"><a xlink:title=" ">
<path fill="none" stroke="#63b8ff" d="M275.85,-66.11C253.79,-56.99 225.17,-45.16 201.35,-35.31"/>
<polygon fill="#63b8ff" stroke="#63b8ff" points="202.76,-32.1 192.18,-31.52 200.08,-38.57 202.76,-32.1"/>
</a>
</g>
</g>
<!-- Node4 -->
<g id="Node000004" class="node">
<title>Node4</title>
<g id="a_Node000004"><a xlink:title=" ">
<polygon fill="#e0e0e0" stroke="#999999" points="380.38,-30.5 242.12,-30.5 242.12,0 380.38,0 380.38,-30.5"/>
<text xml:space="preserve" text-anchor="start" x="250.12" y="-17" font-family="Helvetica,sans-Serif" font-size="10.00">com.goldenleaf.shop.model.</text>
<text xml:space="preserve" text-anchor="middle" x="311.25" y="-5.75" font-family="Helvetica,sans-Serif" font-size="10.00">Customer</text>
</a>
</g>
</g>
<!-- Node1&#45;&gt;Node4 -->
<g id="edge3_Node000001_Node000004" class="edge">
<title>Node1&#45;&gt;Node4</title>
<g id="a_edge3_Node000001_Node000004"><a xlink:title=" ">
<path fill="none" stroke="#63b8ff" d="M311.25,-66.11C311.25,-59.02 311.25,-50.29 311.25,-42.13"/>
<polygon fill="#63b8ff" stroke="#63b8ff" points="314.75,-42.34 311.25,-32.34 307.75,-42.34 314.75,-42.34"/>
</a>
</g>
</g>
<!-- Node5 -->
<g id="Node000005" class="node">
<title>Node5</title>
<g id="a_Node000005"><a xlink:title=" ">
<polygon fill="#e0e0e0" stroke="#999999" points="536.38,-30.5 398.12,-30.5 398.12,0 536.38,0 536.38,-30.5"/>
<text xml:space="preserve" text-anchor="start" x="406.12" y="-17" font-family="Helvetica,sans-Serif" font-size="10.00">com.goldenleaf.shop.model.</text>
<text xml:space="preserve" text-anchor="middle" x="467.25" y="-5.75" font-family="Helvetica,sans-Serif" font-size="10.00">Product</text>
</a>
</g>
</g>
<!-- Node1&#45;&gt;Node5 -->
<g id="edge4_Node000001_Node000005" class="edge">
<title>Node1&#45;&gt;Node5</title>
<g id="a_edge4_Node000001_Node000005"><a xlink:title=" ">
<path fill="none" stroke="#63b8ff" d="M346.65,-66.11C368.71,-56.99 397.33,-45.16 421.15,-35.31"/>
<polygon fill="#63b8ff" stroke="#63b8ff" points="422.42,-38.57 430.32,-31.52 419.74,-32.1 422.42,-38.57"/>
</a>
</g>
</g>
<!-- Node6 -->
<g id="Node000006" class="node">
<title>Node6</title>
<g id="a_Node000006"><a xlink:title=" ">
<polygon fill="#e0e0e0" stroke="#999999" points="707.88,-30.5 554.62,-30.5 554.62,0 707.88,0 707.88,-30.5"/>
<text xml:space="preserve" text-anchor="start" x="562.62" y="-17" font-family="Helvetica,sans-Serif" font-size="10.00">com.goldenleaf.shop.repository.</text>
<text xml:space="preserve" text-anchor="middle" x="631.25" y="-5.75" font-family="Helvetica,sans-Serif" font-size="10.00">ReviewRepository</text>
</a>
</g>
</g>
<!-- Node1&#45;&gt;Node6 -->
<g id="edge5_Node000001_Node000006" class="edge">
<title>Node1&#45;&gt;Node6</title>
<g id="a_edge5_Node000001_Node000006"><a xlink:title=" ">
<path fill="none" stroke="#63b8ff" d="M384.26,-66.03C432.71,-56.27 496.44,-43.42 547.03,-33.22"/>
<polygon fill="#63b8ff" stroke="#63b8ff" points="547.68,-36.67 556.79,-31.26 546.3,-29.8 547.68,-36.67"/>
</a>
</g>
</g>
</g>
</svg>
