<?xml version="1.0" encoding="UTF-8" standalone="no"?>
<!DOCTYPE svg PUBLIC "-//W3C//DTD SVG 1.1//EN"
 "http://www.w3.org/Graphics/SVG/1.1/DTD/svg11.dtd">
<!-- Generated by graphviz version 14.0.4 (20251115.1723)
 -->
<!-- Title: src/main/java/com/goldenleaf/shop/config/SecurityConfig.java Pages: 1 -->
<svg width="888pt" height="105pt"
 viewBox="0.00 0.00 888.00 105.00" xmlns="http://www.w3.org/2000/svg" xmlns:xlink="http://www.w3.org/1999/xlink">
<g id="graph0" class="graph" transform="scale(1 1) rotate(0) translate(4 101)">
<title>src/main/java/com/goldenleaf/shop/config/SecurityConfig.java</title>
<!-- Node1 -->
<g id="Node000001" class="node">
<title>Node1</title>
<g id="a_Node000001"><a xlink:title=" ">
<polygon fill="#999999" stroke="#666666" points="512.5,-97 354.75,-97 354.75,-66.5 512.5,-66.5 512.5,-97"/>
<text xml:space="preserve" text-anchor="start" x="362.75" y="-83.5" font-family="Helvetica,sans-Serif" font-size="10.00">src/main/java/com/goldenleaf</text>
<text xml:space="preserve" text-anchor="middle" x="433.62" y="-72.25" font-family="Helvetica,sans-Serif" font-size="10.00">/shop/config/SecurityConfig.java</text>
</a>
</g>
</g>
<!-- Node2 -->
<g id="Node000002" class="node">
<title>Node2</title>
<g id="a_Node000002"><a xlink:title=" ">
<polygon fill="#e0e0e0" stroke="#999999" points="213.25,-24.88 0,-24.88 0,-5.63 213.25,-5.63 213.25,-24.88"/>
<text xml:space="preserve" text-anchor="middle" x="106.62" y="-11.38" font-family="Helvetica,sans-Serif" font-size="10.00">org.springframework.context.annotation.Bean</text>
</a>
</g>
</g>
<!-- Node1&#45;&gt;Node2 -->
<g id="edge1_Node000001_Node000002" class="edge">
<title>Node1&#45;&gt;Node2</title>
<g id="a_edge1_Node000001_Node000002"><a xlink:title=" ">
<path fill="none" stroke="#63b8ff" d="M359.01,-66.03C299.71,-54.34 217.99,-38.22 163.79,-27.53"/>
<polygon fill="#63b8ff" stroke="#63b8ff" points="164.63,-24.12 154.15,-25.62 163.28,-30.99 164.63,-24.12"/>
</a>
</g>
</g>
<!-- Node3 -->
<g id="Node000003" class="node">
<title>Node3</title>
<g id="a_Node000003"><a xlink:title=" ">
<polygon fill="#e0e0e0" stroke="#999999" points="422,-30.5 231.25,-30.5 231.25,0 422,0 422,-30.5"/>
<text xml:space="preserve" text-anchor="start" x="239.25" y="-17" font-family="Helvetica,sans-Serif" font-size="10.00">org.springframework.context.annotation.</text>
<text xml:space="preserve" text-anchor="middle" x="326.62" y="-5.75" font-family="Helvetica,sans-Serif" font-size="10.00">Configuration</text>
</a>
</g>
</g>
<!-- Node1&#45;&gt;Node3 -->
<g id="edge2_Node000001_Node000003" class="edge">
<title>Node1&#45;&gt;Node3</title>
<g id="a_edge2_Node000001_Node000003"><a xlink:title=" ">
<path fill="none" stroke="#63b8ff" d="M409.35,-66.11C394.84,-57.37 376.21,-46.14 360.3,-36.55"/>
<polygon fill="#63b8ff" stroke="#63b8ff" points="362.48,-33.77 352.11,-31.61 358.86,-39.77 362.48,-33.77"/>
</a>
</g>
</g>
<!-- Node4 -->
<g id="Node000004" class="node">
<title>Node4</title>
<g id="a_Node000004"><a xlink:title=" ">
<polygon fill="#e0e0e0" stroke="#999999" points="643.38,-30.5 439.88,-30.5 439.88,0 643.38,0 643.38,-30.5"/>
<text xml:space="preserve" text-anchor="start" x="447.88" y="-17" font-family="Helvetica,sans-Serif" font-size="10.00">org.springframework.security.crypto.bcrypt.</text>
<text xml:space="preserve" text-anchor="middle" x="541.62" y="-5.75" font-family="Helvetica,sans-Serif" font-size="10.00">BCryptPasswordEncoder</text>
</a>
</g>
</g>
<!-- Node1&#45;&gt;Node4 -->
<g id="edge3_Node000001_Node000004" class="edge">
<title>Node1&#45;&gt;Node4</title>
<g id="a_edge3_Node000001_Node000004"><a xlink:title=" ">
<path fill="none" stroke="#63b8ff" d="M458.13,-66.11C472.77,-57.37 491.58,-46.14 507.63,-36.55"/>
<polygon fill="#63b8ff" stroke="#63b8ff" points="509.12,-39.74 515.92,-31.6 505.54,-33.73 509.12,-39.74"/>
</a>
</g>
</g>
<!-- Node5 -->
<g id="Node000005" class="node">
<title>Node5</title>
<g id="a_Node000005"><a xlink:title=" ">
<polygon fill="#e0e0e0" stroke="#999999" points="879.88,-30.5 661.38,-30.5 661.38,0 879.88,0 879.88,-30.5"/>
<text xml:space="preserve" text-anchor="start" x="669.38" y="-17" font-family="Helvetica,sans-Serif" font-size="10.00">org.springframework.security.crypto.password.</text>
<text xml:space="preserve" text-anchor="middle" x="770.62" y="-5.75" font-family="Helvetica,sans-Serif" font-size="10.00">PasswordEncoder</text>
</a>
</g>
</g>
<!-- Node1&#45;&gt;Node5 -->
<g id="edge4_Node000001_Node000005" class="edge">
<title>Node1&#45;&gt;Node5</title>
<g id="a_edge4_Node000001_Node000005"><a xlink:title=" ">
<path fill="none" stroke="#63b8ff" d="M510.52,-66.03C561.75,-56.23 629.22,-43.31 682.61,-33.1"/>
<polygon fill="#63b8ff" stroke="#63b8ff" points="683.12,-36.56 692.29,-31.24 681.81,-29.69 683.12,-36.56"/>
</a>
</g>
</g>
</g>
</svg>
