<?xml version="1.0" encoding="UTF-8" standalone="no"?>
<!DOCTYPE svg PUBLIC "-//W3C//DTD SVG 1.1//EN"
 "http://www.w3.org/Graphics/SVG/1.1/DTD/svg11.dtd">
<!-- Generated by graphviz version 14.0.4 (20251115.1723)
 -->
<!-- Title: src/main/java/com/goldenleaf/shop/model/ShoppingItem.java Pages: 1 -->
<svg width="1405pt" height="105pt"
 viewBox="0.00 0.00 1405.00 105.00" xmlns="http://www.w3.org/2000/svg" xmlns:xlink="http://www.w3.org/1999/xlink">
<g id="graph0" class="graph" transform="scale(1 1) rotate(0) translate(4 101)">
<title>src/main/java/com/goldenleaf/shop/model/ShoppingItem.java</title>
<!-- Node1 -->
<g id="Node000001" class="node">
<title>Node1</title>
<g id="a_Node000001"><a xlink:title=" ">
<polygon fill="#999999" stroke="#666666" points="815.62,-97 662.38,-97 662.38,-66.5 815.62,-66.5 815.62,-97"/>
<text xml:space="preserve" text-anchor="start" x="670.38" y="-83.5" font-family="Helvetica,sans-Serif" font-size="10.00">src/main/java/com/goldenleaf</text>
<text xml:space="preserve" text-anchor="middle" x="739" y="-72.25" font-family="Helvetica,sans-Serif" font-size="10.00">/shop/model/ShoppingItem.java</text>
</a>
</g>
</g>
<!-- Node2 -->
<g id="Node000002" class="node">
<title>Node2</title>
<g id="a_Node000002"><a xlink:title=" ">
<polygon fill="#e0e0e0" stroke="#999999" points="154,-30.5 0,-30.5 0,0 154,0 154,-30.5"/>
<text xml:space="preserve" text-anchor="start" x="8" y="-17" font-family="Helvetica,sans-Serif" font-size="10.00">com.goldenleaf.shop.exception.</text>
<text xml:space="preserve" text-anchor="middle" x="77" y="-5.75" font-family="Helvetica,sans-Serif" font-size="10.00">EmptyProductException</text>
</a>
</g>
</g>
<!-- Node1&#45;&gt;Node2 -->
<g id="edge1_Node000001_Node000002" class="edge">
<title>Node1&#45;&gt;Node2</title>
<g id="a_edge1_Node000001_Node000002"><a xlink:title=" ">
<path fill="none" stroke="#63b8ff" d="M661.94,-75.93C553.47,-68.71 349.39,-53.6 165.55,-30.76"/>
<polygon fill="#63b8ff" stroke="#63b8ff" points="166.17,-27.31 155.82,-29.54 165.3,-34.26 166.17,-27.31"/>
</a>
</g>
</g>
<!-- Node3 -->
<g id="Node000003" class="node">
<title>Node3</title>
<g id="a_Node000003"><a xlink:title=" ">
<polygon fill="#e0e0e0" stroke="#999999" points="326,-30.5 172,-30.5 172,0 326,0 326,-30.5"/>
<text xml:space="preserve" text-anchor="start" x="180" y="-17" font-family="Helvetica,sans-Serif" font-size="10.00">com.goldenleaf.shop.exception.</text>
<text xml:space="preserve" text-anchor="middle" x="249" y="-5.75" font-family="Helvetica,sans-Serif" font-size="10.00">IncorrectQuantityException</text>
</a>
</g>
</g>
<!-- Node1&#45;&gt;Node3 -->
<g id="edge2_Node000001_Node000003" class="edge">
<title>Node1&#45;&gt;Node3</title>
<g id="a_edge2_Node000001_Node000003"><a xlink:title=" ">
<path fill="none" stroke="#63b8ff" d="M662.18,-72.13C583.28,-63.07 456.62,-47.93 337.47,-30.82"/>
<polygon fill="#63b8ff" stroke="#63b8ff" points="338.23,-27.4 327.83,-29.43 337.23,-34.32 338.23,-27.4"/>
</a>
</g>
</g>
<!-- Node4 -->
<g id="Node000004" class="node">
<title>Node4</title>
<g id="a_Node000004"><a xlink:title=" ">
<polygon fill="#e0e0e0" stroke="#999999" points="471.5,-24.88 344.5,-24.88 344.5,-5.63 471.5,-5.63 471.5,-24.88"/>
<text xml:space="preserve" text-anchor="middle" x="408" y="-11.38" font-family="Helvetica,sans-Serif" font-size="10.00">jakarta.persistence.Entity</text>
</a>
</g>
</g>
<!-- Node1&#45;&gt;Node4 -->
<g id="edge3_Node000001_Node000004" class="edge">
<title>Node1&#45;&gt;Node4</title>
<g id="a_edge3_Node000001_Node000004"><a xlink:title=" ">
<path fill="none" stroke="#63b8ff" d="M663.36,-66.03C611.94,-56.01 542.36,-42.46 481,-30.5 475.88,-29.5 470.56,-28.46 465.23,-27.42"/>
<polygon fill="#63b8ff" stroke="#63b8ff" points="466.31,-24.07 455.83,-25.59 464.97,-30.94 466.31,-24.07"/>
</a>
</g>
</g>
<!-- Node5 -->
<g id="Node000005" class="node">
<title>Node5</title>
<g id="a_Node000005"><a xlink:title=" ">
<polygon fill="#e0e0e0" stroke="#999999" points="636.25,-30.5 489.75,-30.5 489.75,0 636.25,0 636.25,-30.5"/>
<text xml:space="preserve" text-anchor="start" x="497.75" y="-17" font-family="Helvetica,sans-Serif" font-size="10.00">jakarta.persistence.Generated</text>
<text xml:space="preserve" text-anchor="middle" x="563" y="-5.75" font-family="Helvetica,sans-Serif" font-size="10.00">Value</text>
</a>
</g>
</g>
<!-- Node1&#45;&gt;Node5 -->
<g id="edge4_Node000001_Node000005" class="edge">
<title>Node1&#45;&gt;Node5</title>
<g id="a_edge4_Node000001_Node000005"><a xlink:title=" ">
<path fill="none" stroke="#63b8ff" d="M699.06,-66.11C673.72,-56.83 640.72,-44.73 613.56,-34.78"/>
<polygon fill="#63b8ff" stroke="#63b8ff" points="615.1,-31.62 604.5,-31.46 612.69,-38.19 615.1,-31.62"/>
</a>
</g>
</g>
<!-- Node6 -->
<g id="Node000006" class="node">
<title>Node6</title>
<g id="a_Node000006"><a xlink:title=" ">
<polygon fill="#e0e0e0" stroke="#999999" points="823.88,-24.88 654.12,-24.88 654.12,-5.63 823.88,-5.63 823.88,-24.88"/>
<text xml:space="preserve" text-anchor="middle" x="739" y="-11.38" font-family="Helvetica,sans-Serif" font-size="10.00">jakarta.persistence.GenerationType</text>
</a>
</g>
</g>
<!-- Node1&#45;&gt;Node6 -->
<g id="edge5_Node000001_Node000006" class="edge">
<title>Node1&#45;&gt;Node6</title>
<g id="a_edge5_Node000001_Node000006"><a xlink:title=" ">
<path fill="none" stroke="#63b8ff" d="M739,-66.11C739,-57.33 739,-46.02 739,-36.4"/>
<polygon fill="#63b8ff" stroke="#63b8ff" points="742.5,-36.59 739,-26.59 735.5,-36.59 742.5,-36.59"/>
</a>
</g>
</g>
<!-- Node7 -->
<g id="Node000007" class="node">
<title>Node7</title>
<g id="a_Node000007"><a xlink:title=" ">
<polygon fill="#e0e0e0" stroke="#999999" points="951.88,-24.88 842.12,-24.88 842.12,-5.63 951.88,-5.63 951.88,-24.88"/>
<text xml:space="preserve" text-anchor="middle" x="897" y="-11.38" font-family="Helvetica,sans-Serif" font-size="10.00">jakarta.persistence.Id</text>
</a>
</g>
</g>
<!-- Node1&#45;&gt;Node7 -->
<g id="edge6_Node000001_Node000007" class="edge">
<title>Node1&#45;&gt;Node7</title>
<g id="a_edge6_Node000001_Node000007"><a xlink:title=" ">
<path fill="none" stroke="#63b8ff" d="M774.85,-66.11C801.78,-55.12 838.36,-40.19 864.45,-29.54"/>
<polygon fill="#63b8ff" stroke="#63b8ff" points="865.59,-32.85 873.53,-25.83 862.95,-26.37 865.59,-32.85"/>
</a>
</g>
</g>
<!-- Node8 -->
<g id="Node000008" class="node">
<title>Node8</title>
<g id="a_Node000008"><a xlink:title=" ">
<polygon fill="#e0e0e0" stroke="#999999" points="1089.75,-30.5 970.25,-30.5 970.25,0 1089.75,0 1089.75,-30.5"/>
<text xml:space="preserve" text-anchor="start" x="978.25" y="-17" font-family="Helvetica,sans-Serif" font-size="10.00">jakarta.persistence.Join</text>
<text xml:space="preserve" text-anchor="middle" x="1030" y="-5.75" font-family="Helvetica,sans-Serif" font-size="10.00">Column</text>
</a>
</g>
</g>
<!-- Node1&#45;&gt;Node8 -->
<g id="edge7_Node000001_Node000008" class="edge">
<title>Node1&#45;&gt;Node8</title>
<g id="a_edge7_Node000001_Node000008"><a xlink:title=" ">
<path fill="none" stroke="#63b8ff" d="M805.4,-66.03C851.21,-55.88 912.05,-42.39 958.86,-32.02"/>
<polygon fill="#63b8ff" stroke="#63b8ff" points="959.35,-35.5 968.35,-29.91 957.83,-28.66 959.35,-35.5"/>
</a>
</g>
</g>
<!-- Node9 -->
<g id="Node000009" class="node">
<title>Node9</title>
<g id="a_Node000009"><a xlink:title=" ">
<polygon fill="#e0e0e0" stroke="#999999" points="1233.75,-30.5 1108.25,-30.5 1108.25,0 1233.75,0 1233.75,-30.5"/>
<text xml:space="preserve" text-anchor="start" x="1116.25" y="-17" font-family="Helvetica,sans-Serif" font-size="10.00">jakarta.persistence.Many</text>
<text xml:space="preserve" text-anchor="middle" x="1171" y="-5.75" font-family="Helvetica,sans-Serif" font-size="10.00">ToOne</text>
</a>
</g>
</g>
<!-- Node1&#45;&gt;Node9 -->
<g id="edge8_Node000001_Node000009" class="edge">
<title>Node1&#45;&gt;Node9</title>
<g id="a_edge8_Node000001_Node000009"><a xlink:title=" ">
<path fill="none" stroke="#63b8ff" d="M816.09,-71.27C886.55,-62.32 993.9,-47.95 1096.61,-30.85"/>
<polygon fill="#63b8ff" stroke="#63b8ff" points="1097.05,-34.32 1106.33,-29.22 1095.89,-27.42 1097.05,-34.32"/>
</a>
</g>
</g>
<!-- Node10 -->
<g id="Node000010" class="node">
<title>Node10</title>
<g id="a_Node000010"><a xlink:title=" ">
<polygon fill="#e0e0e0" stroke="#999999" points="1396.5,-30.5 1251.5,-30.5 1251.5,0 1396.5,0 1396.5,-30.5"/>
<text xml:space="preserve" text-anchor="start" x="1259.5" y="-17" font-family="Helvetica,sans-Serif" font-size="10.00">jakarta.persistence.Sequence</text>
<text xml:space="preserve" text-anchor="middle" x="1324" y="-5.75" font-family="Helvetica,sans-Serif" font-size="10.00">Generator</text>
</a>
</g>
</g>
<!-- Node1&#45;&gt;Node10 -->
<g id="edge9_Node000001_Node000010" class="edge">
<title>Node1&#45;&gt;Node10</title>
<g id="a_edge9_Node000001_Node000010"><a xlink:title=" ">
<path fill="none" stroke="#63b8ff" d="M816.06,-74.87C912.79,-67.08 1084.03,-51.97 1239.98,-30.86"/>
<polygon fill="#63b8ff" stroke="#63b8ff" points="1240.25,-34.35 1249.68,-29.53 1239.3,-27.42 1240.25,-34.35"/>
</a>
</g>
</g>
</g>
</svg>
