<?xml version="1.0" encoding="UTF-8" standalone="no"?>
<!DOCTYPE svg PUBLIC "-//W3C//DTD SVG 1.1//EN"
 "http://www.w3.org/Graphics/SVG/1.1/DTD/svg11.dtd">
<!-- Generated by graphviz version 14.0.4 (20251115.1723)
 -->
<!-- Title: src/main/java/com/goldenleaf/shop/repository/ShoppingItemRepository.java Pages: 1 -->
<svg width="1033pt" height="105pt"
 viewBox="0.00 0.00 1033.00 105.00" xmlns="http://www.w3.org/2000/svg" xmlns:xlink="http://www.w3.org/1999/xlink">
<g id="graph0" class="graph" transform="scale(1 1) rotate(0) translate(4 101)">
<title>src/main/java/com/goldenleaf/shop/repository/ShoppingItemRepository.java</title>
<!-- Node1 -->
<g id="Node000001" class="node">
<title>Node1</title>
<g id="a_Node000001"><a xlink:title=" ">
<polygon fill="#999999" stroke="#666666" points="587,-97 371.5,-97 371.5,-66.5 587,-66.5 587,-97"/>
<text xml:space="preserve" text-anchor="start" x="379.5" y="-83.5" font-family="Helvetica,sans-Serif" font-size="10.00">src/main/java/com/goldenleaf</text>
<text xml:space="preserve" text-anchor="middle" x="479.25" y="-72.25" font-family="Helvetica,sans-Serif" font-size="10.00">/shop/repository/ShoppingItemRepository.java</text>
</a>
</g>
</g>
<!-- Node2 -->
<g id="Node000002" class="node">
<title>Node2</title>
<g id="a_Node000002"><a xlink:title=" ">
<polygon fill="#e0e0e0" stroke="#999999" points="68.5,-24.88 0,-24.88 0,-5.63 68.5,-5.63 68.5,-24.88"/>
<text xml:space="preserve" text-anchor="middle" x="34.25" y="-11.38" font-family="Helvetica,sans-Serif" font-size="10.00">java.util.List</text>
</a>
</g>
</g>
<!-- Node1&#45;&gt;Node2 -->
<g id="edge1_Node000001_Node000002" class="edge">
<title>Node1&#45;&gt;Node2</title>
<g id="a_edge1_Node000001_Node000002"><a xlink:title=" ">
<path fill="none" stroke="#63b8ff" d="M371.08,-72.76C289.83,-65.42 176.19,-52.29 78.25,-30.5 75.67,-29.93 73.03,-29.26 70.38,-28.55"/>
<polygon fill="#63b8ff" stroke="#63b8ff" points="71.65,-25.27 61.07,-25.79 69.67,-31.99 71.65,-25.27"/>
</a>
</g>
</g>
<!-- Node3 -->
<g id="Node000003" class="node">
<title>Node3</title>
<g id="a_Node000003"><a xlink:title=" ">
<polygon fill="#e0e0e0" stroke="#999999" points="175.62,-24.88 86.88,-24.88 86.88,-5.63 175.62,-5.63 175.62,-24.88"/>
<text xml:space="preserve" text-anchor="middle" x="131.25" y="-11.38" font-family="Helvetica,sans-Serif" font-size="10.00">java.util.Optional</text>
</a>
</g>
</g>
<!-- Node1&#45;&gt;Node3 -->
<g id="edge2_Node000001_Node000003" class="edge">
<title>Node1&#45;&gt;Node3</title>
<g id="a_edge2_Node000001_Node000003"><a xlink:title=" ">
<path fill="none" stroke="#63b8ff" d="M378.78,-66.03C321.52,-57.05 248.57,-44.59 184.25,-30.5 180.91,-29.77 177.47,-28.96 174.02,-28.12"/>
<polygon fill="#63b8ff" stroke="#63b8ff" points="175.1,-24.78 164.55,-25.7 173.37,-31.56 175.1,-24.78"/>
</a>
</g>
</g>
<!-- Node4 -->
<g id="Node000004" class="node">
<title>Node4</title>
<g id="a_Node000004"><a xlink:title=" ">
<polygon fill="#e0e0e0" stroke="#999999" points="382.88,-30.5 193.62,-30.5 193.62,0 382.88,0 382.88,-30.5"/>
<text xml:space="preserve" text-anchor="start" x="201.62" y="-17" font-family="Helvetica,sans-Serif" font-size="10.00">org.springframework.data.jpa.repository.</text>
<text xml:space="preserve" text-anchor="middle" x="288.25" y="-5.75" font-family="Helvetica,sans-Serif" font-size="10.00">JpaRepository</text>
</a>
</g>
</g>
<!-- Node1&#45;&gt;Node4 -->
<g id="edge3_Node000001_Node000004" class="edge">
<title>Node1&#45;&gt;Node4</title>
<g id="a_edge3_Node000001_Node000004"><a xlink:title=" ">
<path fill="none" stroke="#63b8ff" d="M435.91,-66.11C408.17,-56.75 371.96,-44.52 342.34,-34.51"/>
<polygon fill="#63b8ff" stroke="#63b8ff" points="343.78,-31.31 333.18,-31.42 341.54,-37.94 343.78,-31.31"/>
</a>
</g>
</g>
<!-- Node5 -->
<g id="Node000005" class="node">
<title>Node5</title>
<g id="a_Node000005"><a xlink:title=" ">
<polygon fill="#e0e0e0" stroke="#999999" points="557.38,-30.5 401.12,-30.5 401.12,0 557.38,0 557.38,-30.5"/>
<text xml:space="preserve" text-anchor="start" x="409.12" y="-17" font-family="Helvetica,sans-Serif" font-size="10.00">org.springframework.stereotype.</text>
<text xml:space="preserve" text-anchor="middle" x="479.25" y="-5.75" font-family="Helvetica,sans-Serif" font-size="10.00">Repository</text>
</a>
</g>
</g>
<!-- Node1&#45;&gt;Node5 -->
<g id="edge4_Node000001_Node000005" class="edge">
<title>Node1&#45;&gt;Node5</title>
<g id="a_edge4_Node000001_Node000005"><a xlink:title=" ">
<path fill="none" stroke="#63b8ff" d="M479.25,-66.11C479.25,-59.02 479.25,-50.29 479.25,-42.13"/>
<polygon fill="#63b8ff" stroke="#63b8ff" points="482.75,-42.34 479.25,-32.34 475.75,-42.34 482.75,-42.34"/>
</a>
</g>
</g>
<!-- Node6 -->
<g id="Node000006" class="node">
<title>Node6</title>
<g id="a_Node000006"><a xlink:title=" ">
<polygon fill="#e0e0e0" stroke="#999999" points="713.38,-30.5 575.12,-30.5 575.12,0 713.38,0 713.38,-30.5"/>
<text xml:space="preserve" text-anchor="start" x="583.12" y="-17" font-family="Helvetica,sans-Serif" font-size="10.00">com.goldenleaf.shop.model.</text>
<text xml:space="preserve" text-anchor="middle" x="644.25" y="-5.75" font-family="Helvetica,sans-Serif" font-size="10.00">Product</text>
</a>
</g>
</g>
<!-- Node1&#45;&gt;Node6 -->
<g id="edge5_Node000001_Node000006" class="edge">
<title>Node1&#45;&gt;Node6</title>
<g id="a_edge5_Node000001_Node000006"><a xlink:title=" ">
<path fill="none" stroke="#63b8ff" d="M516.69,-66.11C540.24,-56.91 570.84,-44.95 596.17,-35.04"/>
<polygon fill="#63b8ff" stroke="#63b8ff" points="597.22,-38.39 605.26,-31.49 594.67,-31.87 597.22,-38.39"/>
</a>
</g>
</g>
<!-- Node7 -->
<g id="Node000007" class="node">
<title>Node7</title>
<g id="a_Node000007"><a xlink:title=" ">
<polygon fill="#e0e0e0" stroke="#999999" points="869.38,-30.5 731.12,-30.5 731.12,0 869.38,0 869.38,-30.5"/>
<text xml:space="preserve" text-anchor="start" x="739.12" y="-17" font-family="Helvetica,sans-Serif" font-size="10.00">com.goldenleaf.shop.model.</text>
<text xml:space="preserve" text-anchor="middle" x="800.25" y="-5.75" font-family="Helvetica,sans-Serif" font-size="10.00">ShoppingCart</text>
</a>
</g>
</g>
<!-- Node1&#45;&gt;Node7 -->
<g id="edge6_Node000001_Node000007" class="edge">
<title>Node1&#45;&gt;Node7</title>
<g id="a_edge6_Node000001_Node000007"><a xlink:title=" ">
<path fill="none" stroke="#63b8ff" d="M552.49,-66.03C602.4,-56.01 668.48,-42.73 719.84,-32.41"/>
<polygon fill="#63b8ff" stroke="#63b8ff" points="720.3,-35.88 729.41,-30.48 718.92,-29.02 720.3,-35.88"/>
</a>
</g>
</g>
<!-- Node8 -->
<g id="Node000008" class="node">
<title>Node8</title>
<g id="a_Node000008"><a xlink:title=" ">
<polygon fill="#e0e0e0" stroke="#999999" points="1025.38,-30.5 887.12,-30.5 887.12,0 1025.38,0 1025.38,-30.5"/>
<text xml:space="preserve" text-anchor="start" x="895.12" y="-17" font-family="Helvetica,sans-Serif" font-size="10.00">com.goldenleaf.shop.model.</text>
<text xml:space="preserve" text-anchor="middle" x="956.25" y="-5.75" font-family="Helvetica,sans-Serif" font-size="10.00">ShoppingItem</text>
</a>
</g>
</g>
<!-- Node1&#45;&gt;Node8 -->
<g id="edge7_Node000001_Node000008" class="edge">
<title>Node1&#45;&gt;Node8</title>
<g id="a_edge7_Node000001_Node000008"><a xlink:title=" ">
<path fill="none" stroke="#63b8ff" d="M587.43,-68.77C665,-59.79 772.24,-46.6 875.67,-30.85"/>
<polygon fill="#63b8ff" stroke="#63b8ff" points="876.11,-34.32 885.47,-29.34 875.05,-27.4 876.11,-34.32"/>
</a>
</g>
</g>
</g>
</svg>
