<?xml version="1.0" encoding="UTF-8" standalone="no"?>
<!DOCTYPE svg PUBLIC "-//W3C//DTD SVG 1.1//EN"
 "http://www.w3.org/Graphics/SVG/1.1/DTD/svg11.dtd">
<!-- Generated by graphviz version 14.0.4 (20251115.1723)
 -->
<!-- Title: src/main/java/com/goldenleaf/shop/repository/ShoppingCartRepository.java Pages: 1 -->
<svg width="791pt" height="105pt"
 viewBox="0.00 0.00 791.00 105.00" xmlns="http://www.w3.org/2000/svg" xmlns:xlink="http://www.w3.org/1999/xlink">
<g id="graph0" class="graph" transform="scale(1 1) rotate(0) translate(4 101)">
<title>src/main/java/com/goldenleaf/shop/repository/ShoppingCartRepository.java</title>
<!-- Node1 -->
<g id="Node000001" class="node">
<title>Node1</title>
<g id="a_Node000001"><a xlink:title=" ">
<polygon fill="#999999" stroke="#666666" points="499.75,-97 285,-97 285,-66.5 499.75,-66.5 499.75,-97"/>
<text xml:space="preserve" text-anchor="start" x="293" y="-83.5" font-family="Helvetica,sans-Serif" font-size="10.00">src/main/java/com/goldenleaf</text>
<text xml:space="preserve" text-anchor="middle" x="392.38" y="-72.25" font-family="Helvetica,sans-Serif" font-size="10.00">/shop/repository/ShoppingCartRepository.java</text>
</a>
</g>
</g>
<!-- Node2 -->
<g id="Node000002" class="node">
<title>Node2</title>
<g id="a_Node000002"><a xlink:title=" ">
<polygon fill="#e0e0e0" stroke="#999999" points="88.75,-24.88 0,-24.88 0,-5.63 88.75,-5.63 88.75,-24.88"/>
<text xml:space="preserve" text-anchor="middle" x="44.38" y="-11.38" font-family="Helvetica,sans-Serif" font-size="10.00">java.util.Optional</text>
</a>
</g>
</g>
<!-- Node1&#45;&gt;Node2 -->
<g id="edge1_Node000001_Node000002" class="edge">
<title>Node1&#45;&gt;Node2</title>
<g id="a_edge1_Node000001_Node000002"><a xlink:title=" ">
<path fill="none" stroke="#63b8ff" d="M291.9,-66.03C234.64,-57.05 161.7,-44.59 97.38,-30.5 94.04,-29.77 90.6,-28.96 87.15,-28.12"/>
<polygon fill="#63b8ff" stroke="#63b8ff" points="88.23,-24.78 77.67,-25.7 86.5,-31.56 88.23,-24.78"/>
</a>
</g>
</g>
<!-- Node3 -->
<g id="Node000003" class="node">
<title>Node3</title>
<g id="a_Node000003"><a xlink:title=" ">
<polygon fill="#e0e0e0" stroke="#999999" points="296,-30.5 106.75,-30.5 106.75,0 296,0 296,-30.5"/>
<text xml:space="preserve" text-anchor="start" x="114.75" y="-17" font-family="Helvetica,sans-Serif" font-size="10.00">org.springframework.data.jpa.repository.</text>
<text xml:space="preserve" text-anchor="middle" x="201.38" y="-5.75" font-family="Helvetica,sans-Serif" font-size="10.00">JpaRepository</text>
</a>
</g>
</g>
<!-- Node1&#45;&gt;Node3 -->
<g id="edge2_Node000001_Node000003" class="edge">
<title>Node1&#45;&gt;Node3</title>
<g id="a_edge2_Node000001_Node000003"><a xlink:title=" ">
<path fill="none" stroke="#63b8ff" d="M349.03,-66.11C321.29,-56.75 285.08,-44.52 255.46,-34.51"/>
<polygon fill="#63b8ff" stroke="#63b8ff" points="256.9,-31.31 246.31,-31.42 254.66,-37.94 256.9,-31.31"/>
</a>
</g>
</g>
<!-- Node4 -->
<g id="Node000004" class="node">
<title>Node4</title>
<g id="a_Node000004"><a xlink:title=" ">
<polygon fill="#e0e0e0" stroke="#999999" points="470.5,-30.5 314.25,-30.5 314.25,0 470.5,0 470.5,-30.5"/>
<text xml:space="preserve" text-anchor="start" x="322.25" y="-17" font-family="Helvetica,sans-Serif" font-size="10.00">org.springframework.stereotype.</text>
<text xml:space="preserve" text-anchor="middle" x="392.38" y="-5.75" font-family="Helvetica,sans-Serif" font-size="10.00">Repository</text>
</a>
</g>
</g>
<!-- Node1&#45;&gt;Node4 -->
<g id="edge3_Node000001_Node000004" class="edge">
<title>Node1&#45;&gt;Node4</title>
<g id="a_edge3_Node000001_Node000004"><a xlink:title=" ">
<path fill="none" stroke="#63b8ff" d="M392.38,-66.11C392.38,-59.02 392.38,-50.29 392.38,-42.13"/>
<polygon fill="#63b8ff" stroke="#63b8ff" points="395.88,-42.34 392.38,-32.34 388.88,-42.34 395.88,-42.34"/>
</a>
</g>
</g>
<!-- Node5 -->
<g id="Node000005" class="node">
<title>Node5</title>
<g id="a_Node000005"><a xlink:title=" ">
<polygon fill="#e0e0e0" stroke="#999999" points="626.5,-30.5 488.25,-30.5 488.25,0 626.5,0 626.5,-30.5"/>
<text xml:space="preserve" text-anchor="start" x="496.25" y="-17" font-family="Helvetica,sans-Serif" font-size="10.00">com.goldenleaf.shop.model.</text>
<text xml:space="preserve" text-anchor="middle" x="557.38" y="-5.75" font-family="Helvetica,sans-Serif" font-size="10.00">Customer</text>
</a>
</g>
</g>
<!-- Node1&#45;&gt;Node5 -->
<g id="edge4_Node000001_Node000005" class="edge">
<title>Node1&#45;&gt;Node5</title>
<g id="a_edge4_Node000001_Node000005"><a xlink:title=" ">
<path fill="none" stroke="#63b8ff" d="M429.82,-66.11C453.36,-56.91 483.97,-44.95 509.3,-35.04"/>
<polygon fill="#63b8ff" stroke="#63b8ff" points="510.35,-38.39 518.39,-31.49 507.8,-31.87 510.35,-38.39"/>
</a>
</g>
</g>
<!-- Node6 -->
<g id="Node000006" class="node">
<title>Node6</title>
<g id="a_Node000006"><a xlink:title=" ">
<polygon fill="#e0e0e0" stroke="#999999" points="782.5,-30.5 644.25,-30.5 644.25,0 782.5,0 782.5,-30.5"/>
<text xml:space="preserve" text-anchor="start" x="652.25" y="-17" font-family="Helvetica,sans-Serif" font-size="10.00">com.goldenleaf.shop.model.</text>
<text xml:space="preserve" text-anchor="middle" x="713.38" y="-5.75" font-family="Helvetica,sans-Serif" font-size="10.00">ShoppingCart</text>
</a>
</g>
</g>
<!-- Node1&#45;&gt;Node6 -->
<g id="edge5_Node000001_Node000006" class="edge">
<title>Node1&#45;&gt;Node6</title>
<g id="a_edge5_Node000001_Node000006"><a xlink:title=" ">
<path fill="none" stroke="#63b8ff" d="M465.62,-66.03C515.52,-56.01 581.6,-42.73 632.97,-32.41"/>
<polygon fill="#63b8ff" stroke="#63b8ff" points="633.42,-35.88 642.54,-30.48 632.05,-29.02 633.42,-35.88"/>
</a>
</g>
</g>
</g>
</svg>
