<?xml version="1.0" encoding="UTF-8" standalone="no"?>
<!DOCTYPE svg PUBLIC "-//W3C//DTD SVG 1.1//EN"
 "http://www.w3.org/Graphics/SVG/1.1/DTD/svg11.dtd">
<!-- Generated by graphviz version 14.0.4 (20251115.1723)
 -->
<!-- Title: src/main/java/com/goldenleaf/shop/model/ShoppingCart.java Pages: 1 -->
<!--zoomable 105 -->

<svg id="main" version="1.1" xmlns="http://www.w3.org/2000/svg" xmlns:xlink="http://www.w3.org/1999/xlink" xml:space="preserve" onload="init(evt)">

<style type="text/css"><![CDATA[
.node, .edge {opacity: 0.7;}
.node.selected, .edge.selected {opacity: 1;}
.edge:hover path { stroke: red; }
.edge:hover polygon { stroke: red; fill: red; }
]]></style>

<defs>
  <circle id="rim" cx="0" cy="0" r="7"/>
  <circle id="rim2" cx="0" cy="0" r="3.5"/>
  <g id="zoomPlus">
    <use xlink:href="#rim" fill="#404040"><set attributeName="fill" to="#808080" begin="zoomplus.mouseover" end="zoomplus.mouseout"/></use>
    <path d="M-4,0h8M0,-4v8" fill="none" stroke="white" stroke-width="1.5" pointer-events="none"/>
  </g>
  <g id="zoomMin">
    <use xlink:href="#rim" fill="#404040"><set attributeName="fill" to="#808080" begin="zoomminus.mouseover" end="zoomminus.mouseout"/></use>
    <path d="M-4,0h8" fill="none" stroke="white" stroke-width="1.5" pointer-events="none"/>
  </g>
  <g id="arrowUp" transform="translate(30 24)">
    <use xlink:href="#rim"/>
    <path pointer-events="none" fill="none" stroke="white" stroke-width="1.5" d="M0,-3.0v7 M-2.5,-0.5L0,-3.0L2.5,-0.5"/>
  </g>
  <g id="arrowRight" transform="rotate(90) translate(36 -43)">
    <use xlink:href="#rim"/>
    <path pointer-events="none" fill="none" stroke="white" stroke-width="1.5" d="M0,-3.0v7 M-2.5,-0.5L0,-3.0L2.5,-0.5"/>
  </g>
  <g id="arrowDown" transform="rotate(180) translate(-30 -48)">
    <use xlink:href="#rim"/>
    <path pointer-events="none" fill="none" stroke="white" stroke-width="1.5" d="M0,-3.0v7 M-2.5,-0.5L0,-3.0L2.5,-0.5"/>
  </g>
  <g id="arrowLeft" transform="rotate(270) translate(-36 17)">
    <use xlink:href="#rim"/>
    <path pointer-events="none" fill="none" stroke="white" stroke-width="1.5" d="M0,-3.0v7 M-2.5,-0.5L0,-3.0L2.5,-0.5"/>
  </g>
  <g id="resetDef">
    <use xlink:href="#rim2" fill="#404040"><set attributeName="fill" to="#808080" begin="reset.mouseover" end="reset.mouseout"/></use>
  </g>
</defs>
<script type="application/ecmascript">
var viewWidth = 2442;
var viewHeight = 105;
var sectionId = 'dynsection-0';
</script>
<script type="application/ecmascript" xlink:href="svg.min.js"/>
<svg id="graph" class="graph">
<g id="viewport">
<title>src/main/java/com/goldenleaf/shop/model/ShoppingCart.java</title>
<!-- Node1 -->
<g id="Node000001" class="node">
<title>Node1</title>
<g id="a_Node000001"><a xlink:title=" ">
<polygon fill="#999999" stroke="#666666" points="1261.12,-97 1108.62,-97 1108.62,-66.5 1261.12,-66.5 1261.12,-97"/>
<text xml:space="preserve" text-anchor="start" x="1116.62" y="-83.5" font-family="Helvetica,sans-Serif" font-size="10.00">src/main/java/com/goldenleaf</text>
<text xml:space="preserve" text-anchor="middle" x="1184.88" y="-72.25" font-family="Helvetica,sans-Serif" font-size="10.00">/shop/model/ShoppingCart.java</text>
</a>
</g>
</g>
<!-- Node2 -->
<g id="Node000002" class="node">
<title>Node2</title>
<g id="a_Node000002"><a xlink:title=" ">
<polygon fill="#e0e0e0" stroke="#999999" points="91.75,-24.88 0,-24.88 0,-5.63 91.75,-5.63 91.75,-24.88"/>
<text xml:space="preserve" text-anchor="middle" x="45.88" y="-11.38" font-family="Helvetica,sans-Serif" font-size="10.00">java.util.ArrayList</text>
</a>
</g>
</g>
<!-- Node1&#45;&gt;Node2 -->
<g id="edge1_Node000001_Node000002" class="edge">
<title>Node1&#45;&gt;Node2</title>
<g id="a_edge1_Node000001_Node000002"><a xlink:title=" ">
<path fill="none" stroke="#63b8ff" d="M1108.36,-79.26C894.86,-74.79 295.54,-59.9 100.88,-30.5 96.45,-29.83 91.86,-28.95 87.31,-27.96"/>
<polygon fill="#63b8ff" stroke="#63b8ff" points="88.2,-24.57 77.66,-25.65 86.58,-31.38 88.2,-24.57"/>
</a>
</g>
</g>
<!-- Node3 -->
<g id="Node000003" class="node">
<title>Node3</title>
<g id="a_Node000003"><a xlink:title=" ">
<polygon fill="#e0e0e0" stroke="#999999" points="178.12,-24.88 109.62,-24.88 109.62,-5.63 178.12,-5.63 178.12,-24.88"/>
<text xml:space="preserve" text-anchor="middle" x="143.88" y="-11.38" font-family="Helvetica,sans-Serif" font-size="10.00">java.util.List</text>
</a>
</g>
</g>
<!-- Node1&#45;&gt;Node3 -->
<g id="edge2_Node000001_Node000003" class="edge">
<title>Node1&#45;&gt;Node3</title>
<g id="a_edge2_Node000001_Node000003"><a xlink:title=" ">
<path fill="none" stroke="#63b8ff" d="M1108.21,-79.56C906.3,-75.99 363.25,-63.54 186.88,-30.5 184.03,-29.97 181.12,-29.29 178.22,-28.53"/>
<polygon fill="#63b8ff" stroke="#63b8ff" points="179.26,-25.19 168.68,-25.69 177.26,-31.9 179.26,-25.19"/>
</a>
</g>
</g>
<!-- Node4 -->
<g id="Node000004" class="node">
<title>Node4</title>
<g id="a_Node000004"><a xlink:title=" ">
<polygon fill="#e0e0e0" stroke="#999999" points="349.88,-30.5 195.88,-30.5 195.88,0 349.88,0 349.88,-30.5"/>
<text xml:space="preserve" text-anchor="start" x="203.88" y="-17" font-family="Helvetica,sans-Serif" font-size="10.00">com.goldenleaf.shop.exception.</text>
<text xml:space="preserve" text-anchor="middle" x="272.88" y="-5.75" font-family="Helvetica,sans-Serif" font-size="10.00">EmptyProductException</text>
</a>
</g>
</g>
<!-- Node1&#45;&gt;Node4 -->
<g id="edge3_Node000001_Node000004" class="edge">
<title>Node1&#45;&gt;Node4</title>
<g id="a_edge3_Node000001_Node000004"><a xlink:title=" ">
<path fill="none" stroke="#63b8ff" d="M1108.35,-78.74C964.18,-74.37 642.32,-61.88 361.41,-30.71"/>
<polygon fill="#63b8ff" stroke="#63b8ff" points="362.01,-27.25 351.68,-29.61 361.23,-34.21 362.01,-27.25"/>
</a>
</g>
</g>
<!-- Node5 -->
<g id="Node000005" class="node">
<title>Node5</title>
<g id="a_Node000005"><a xlink:title=" ">
<polygon fill="#e0e0e0" stroke="#999999" points="521.88,-30.5 367.88,-30.5 367.88,0 521.88,0 521.88,-30.5"/>
<text xml:space="preserve" text-anchor="start" x="375.88" y="-17" font-family="Helvetica,sans-Serif" font-size="10.00">com.goldenleaf.shop.exception.</text>
<text xml:space="preserve" text-anchor="middle" x="444.88" y="-5.75" font-family="Helvetica,sans-Serif" font-size="10.00">IncorrectPriceException</text>
</a>
</g>
</g>
<!-- Node1&#45;&gt;Node5 -->
<g id="edge4_Node000001_Node000005" class="edge">
<title>Node1&#45;&gt;Node5</title>
<g id="a_edge4_Node000001_Node000005"><a xlink:title=" ">
<path fill="none" stroke="#63b8ff" d="M1108.14,-77.04C987.83,-70.73 747.29,-56.18 533.32,-30.73"/>
<polygon fill="#63b8ff" stroke="#63b8ff" points="534.03,-27.29 523.69,-29.57 533.2,-34.24 534.03,-27.29"/>
</a>
</g>
</g>
<!-- Node6 -->
<g id="Node000006" class="node">
<title>Node6</title>
<g id="a_Node000006"><a xlink:title=" ">
<polygon fill="#e0e0e0" stroke="#999999" points="693.88,-30.5 539.88,-30.5 539.88,0 693.88,0 693.88,-30.5"/>
<text xml:space="preserve" text-anchor="start" x="547.88" y="-17" font-family="Helvetica,sans-Serif" font-size="10.00">com.goldenleaf.shop.exception.</text>
<text xml:space="preserve" text-anchor="middle" x="616.88" y="-5.75" font-family="Helvetica,sans-Serif" font-size="10.00">IncorrectQuantityException</text>
</a>
</g>
</g>
<!-- Node1&#45;&gt;Node6 -->
<g id="edge5_Node000001_Node000006" class="edge">
<title>Node1&#45;&gt;Node6</title>
<g id="a_edge5_Node000001_Node000006"><a xlink:title=" ">
<path fill="none" stroke="#63b8ff" d="M1108.32,-74.21C1015.43,-65.94 853.8,-50.53 705.32,-30.78"/>
<polygon fill="#63b8ff" stroke="#63b8ff" points="706.07,-27.35 695.7,-29.49 705.14,-34.29 706.07,-27.35"/>
</a>
</g>
</g>
<!-- Node7 -->
<g id="Node000007" class="node">
<title>Node7</title>
<g id="a_Node000007"><a xlink:title=" ">
<polygon fill="#e0e0e0" stroke="#999999" points="873.62,-24.88 712.12,-24.88 712.12,-5.63 873.62,-5.63 873.62,-24.88"/>
<text xml:space="preserve" text-anchor="middle" x="792.88" y="-11.38" font-family="Helvetica,sans-Serif" font-size="10.00">jakarta.persistence.CascadeType</text>
</a>
</g>
</g>
<!-- Node1&#45;&gt;Node7 -->
<g id="edge6_Node000001_Node000007" class="edge">
<title>Node1&#45;&gt;Node7</title>
<g id="a_edge6_Node000001_Node000007"><a xlink:title=" ">
<path fill="none" stroke="#63b8ff" d="M1108.36,-68.16C1035.97,-56.25 928.41,-38.55 859.46,-27.21"/>
<polygon fill="#63b8ff" stroke="#63b8ff" points="860.25,-23.79 849.82,-25.62 859.12,-30.7 860.25,-23.79"/>
</a>
</g>
</g>
<!-- Node8 -->
<g id="Node000008" class="node">
<title>Node8</title>
<g id="a_Node000008"><a xlink:title=" ">
<polygon fill="#e0e0e0" stroke="#999999" points="1026.5,-24.88 891.25,-24.88 891.25,-5.63 1026.5,-5.63 1026.5,-24.88"/>
<text xml:space="preserve" text-anchor="middle" x="958.88" y="-11.38" font-family="Helvetica,sans-Serif" font-size="10.00">jakarta.persistence.Column</text>
</a>
</g>
</g>
<!-- Node1&#45;&gt;Node8 -->
<g id="edge7_Node000001_Node000008" class="edge">
<title>Node1&#45;&gt;Node8</title>
<g id="a_edge7_Node000001_Node000008"><a xlink:title=" ">
<path fill="none" stroke="#63b8ff" d="M1133.31,-66.03C1093.52,-54.68 1039.14,-39.16 1001.72,-28.48"/>
<polygon fill="#63b8ff" stroke="#63b8ff" points="1002.72,-25.12 992.15,-25.75 1000.8,-31.86 1002.72,-25.12"/>
</a>
</g>
</g>
<!-- Node9 -->
<g id="Node000009" class="node">
<title>Node9</title>
<g id="a_Node000009"><a xlink:title=" ">
<polygon fill="#e0e0e0" stroke="#999999" points="1171.38,-24.88 1044.38,-24.88 1044.38,-5.63 1171.38,-5.63 1171.38,-24.88"/>
<text xml:space="preserve" text-anchor="middle" x="1107.88" y="-11.38" font-family="Helvetica,sans-Serif" font-size="10.00">jakarta.persistence.Entity</text>
</a>
</g>
</g>
<!-- Node1&#45;&gt;Node9 -->
<g id="edge8_Node000001_Node000009" class="edge">
<title>Node1&#45;&gt;Node9</title>
<g id="a_edge8_Node000001_Node000009"><a xlink:title=" ">
<path fill="none" stroke="#63b8ff" d="M1167.4,-66.11C1155.38,-56.04 1139.41,-42.67 1127.04,-32.31"/>
<polygon fill="#63b8ff" stroke="#63b8ff" points="1129.48,-29.78 1119.57,-26.04 1124.99,-35.15 1129.48,-29.78"/>
</a>
</g>
</g>
<!-- Node10 -->
<g id="Node000010" class="node">
<title>Node10</title>
<g id="a_Node000010"><a xlink:title=" ">
<polygon fill="#e0e0e0" stroke="#999999" points="1336.12,-30.5 1189.62,-30.5 1189.62,0 1336.12,0 1336.12,-30.5"/>
<text xml:space="preserve" text-anchor="start" x="1197.62" y="-17" font-family="Helvetica,sans-Serif" font-size="10.00">jakarta.persistence.Generated</text>
<text xml:space="preserve" text-anchor="middle" x="1262.88" y="-5.75" font-family="Helvetica,sans-Serif" font-size="10.00">Value</text>
</a>
</g>
</g>
<!-- Node1&#45;&gt;Node10 -->
<g id="edge9_Node000001_Node000010" class="edge">
<title>Node1&#45;&gt;Node10</title>
<g id="a_edge9_Node000001_Node000010"><a xlink:title=" ">
<path fill="none" stroke="#63b8ff" d="M1202.57,-66.11C1212.65,-57.78 1225.45,-47.19 1236.67,-37.92"/>
<polygon fill="#63b8ff" stroke="#63b8ff" points="1238.6,-40.86 1244.08,-31.79 1234.14,-35.47 1238.6,-40.86"/>
</a>
</g>
</g>
<!-- Node11 -->
<g id="Node000011" class="node">
<title>Node11</title>
<g id="a_Node000011"><a xlink:title=" ">
<polygon fill="#e0e0e0" stroke="#999999" points="1523.75,-24.88 1354,-24.88 1354,-5.63 1523.75,-5.63 1523.75,-24.88"/>
<text xml:space="preserve" text-anchor="middle" x="1438.88" y="-11.38" font-family="Helvetica,sans-Serif" font-size="10.00">jakarta.persistence.GenerationType</text>
</a>
</g>
</g>
<!-- Node1&#45;&gt;Node11 -->
<g id="edge10_Node000001_Node000011" class="edge">
<title>Node1&#45;&gt;Node11</title>
<g id="a_edge10_Node000001_Node000011"><a xlink:title=" ">
<path fill="none" stroke="#63b8ff" d="M1242.83,-66.03C1288.03,-54.56 1349.99,-38.82 1392.07,-28.14"/>
<polygon fill="#63b8ff" stroke="#63b8ff" points="1392.82,-31.56 1401.65,-25.7 1391.09,-24.77 1392.82,-31.56"/>
</a>
</g>
</g>
<!-- Node12 -->
<g id="Node000012" class="node">
<title>Node12</title>
<g id="a_Node000012"><a xlink:title=" ">
<polygon fill="#e0e0e0" stroke="#999999" points="1651.75,-24.88 1542,-24.88 1542,-5.63 1651.75,-5.63 1651.75,-24.88"/>
<text xml:space="preserve" text-anchor="middle" x="1596.88" y="-11.38" font-family="Helvetica,sans-Serif" font-size="10.00">jakarta.persistence.Id</text>
</a>
</g>
</g>
<!-- Node1&#45;&gt;Node12 -->
<g id="edge11_Node000001_Node000012" class="edge">
<title>Node1&#45;&gt;Node12</title>
<g id="a_edge11_Node000001_Node000012"><a xlink:title=" ">
<path fill="none" stroke="#63b8ff" d="M1261.52,-71.38C1332.21,-62.33 1439.96,-47.53 1532.88,-30.5 1537.54,-29.65 1542.37,-28.69 1547.21,-27.7"/>
<polygon fill="#63b8ff" stroke="#63b8ff" points="1547.86,-31.14 1556.91,-25.63 1546.4,-24.29 1547.86,-31.14"/>
</a>
</g>
</g>
<!-- Node13 -->
<g id="Node000013" class="node">
<title>Node13</title>
<g id="a_Node000013"><a xlink:title=" ">
<polygon fill="#e0e0e0" stroke="#999999" points="1789.62,-30.5 1670.12,-30.5 1670.12,0 1789.62,0 1789.62,-30.5"/>
<text xml:space="preserve" text-anchor="start" x="1678.12" y="-17" font-family="Helvetica,sans-Serif" font-size="10.00">jakarta.persistence.Join</text>
<text xml:space="preserve" text-anchor="middle" x="1729.88" y="-5.75" font-family="Helvetica,sans-Serif" font-size="10.00">Column</text>
</a>
</g>
</g>
<!-- Node1&#45;&gt;Node13 -->
<g id="edge12_Node000001_Node000013" class="edge">
<title>Node1&#45;&gt;Node13</title>
<g id="a_edge12_Node000001_Node000013"><a xlink:title=" ">
<path fill="none" stroke="#63b8ff" d="M1261.43,-75C1353.43,-67.58 1512.66,-53.05 1658.78,-30.73"/>
<polygon fill="#63b8ff" stroke="#63b8ff" points="1658.88,-34.25 1668.23,-29.27 1657.81,-27.33 1658.88,-34.25"/>
</a>
</g>
</g>
<!-- Node14 -->
<g id="Node000014" class="node">
<title>Node14</title>
<g id="a_Node000014"><a xlink:title=" ">
<polygon fill="#e0e0e0" stroke="#999999" points="1961.88,-24.88 1807.88,-24.88 1807.88,-5.63 1961.88,-5.63 1961.88,-24.88"/>
<text xml:space="preserve" text-anchor="middle" x="1884.88" y="-11.38" font-family="Helvetica,sans-Serif" font-size="10.00">jakarta.persistence.OneToMany</text>
</a>
</g>
</g>
<!-- Node1&#45;&gt;Node14 -->
<g id="edge13_Node000001_Node000014" class="edge">
<title>Node1&#45;&gt;Node14</title>
<g id="a_edge13_Node000001_Node000014"><a xlink:title=" ">
<path fill="none" stroke="#63b8ff" d="M1261.18,-76.54C1377.48,-69.66 1605.95,-54.34 1798.88,-30.5 1806.83,-29.52 1815.17,-28.33 1823.39,-27.07"/>
<polygon fill="#63b8ff" stroke="#63b8ff" points="1823.67,-30.57 1833,-25.55 1822.58,-23.66 1823.67,-30.57"/>
</a>
</g>
</g>
<!-- Node15 -->
<g id="Node000015" class="node">
<title>Node15</title>
<g id="a_Node000015"><a xlink:title=" ">
<polygon fill="#e0e0e0" stroke="#999999" points="2127.88,-24.88 1979.88,-24.88 1979.88,-5.63 2127.88,-5.63 2127.88,-24.88"/>
<text xml:space="preserve" text-anchor="middle" x="2053.88" y="-11.38" font-family="Helvetica,sans-Serif" font-size="10.00">jakarta.persistence.OneToOne</text>
</a>
</g>
</g>
<!-- Node1&#45;&gt;Node15 -->
<g id="edge14_Node000001_Node000015" class="edge">
<title>Node1&#45;&gt;Node15</title>
<g id="a_edge14_Node000001_Node000015"><a xlink:title=" ">
<path fill="none" stroke="#63b8ff" d="M1261.55,-78.55C1402.44,-73.91 1711.83,-60.93 1970.88,-30.5 1978.67,-29.58 1986.85,-28.43 1994.91,-27.17"/>
<polygon fill="#63b8ff" stroke="#63b8ff" points="1995.36,-30.64 2004.67,-25.58 1994.23,-23.73 1995.36,-30.64"/>
</a>
</g>
</g>
<!-- Node16 -->
<g id="Node000016" class="node">
<title>Node16</title>
<g id="a_Node000016"><a xlink:title=" ">
<polygon fill="#e0e0e0" stroke="#999999" points="2291.38,-30.5 2146.38,-30.5 2146.38,0 2291.38,0 2291.38,-30.5"/>
<text xml:space="preserve" text-anchor="start" x="2154.38" y="-17" font-family="Helvetica,sans-Serif" font-size="10.00">jakarta.persistence.Sequence</text>
<text xml:space="preserve" text-anchor="middle" x="2218.88" y="-5.75" font-family="Helvetica,sans-Serif" font-size="10.00">Generator</text>
</a>
</g>
</g>
<!-- Node1&#45;&gt;Node16 -->
<g id="edge15_Node000001_Node000016" class="edge">
<title>Node1&#45;&gt;Node16</title>
<g id="a_edge15_Node000001_Node000016"><a xlink:title=" ">
<path fill="none" stroke="#63b8ff" d="M1261.33,-79.81C1421.47,-77.16 1803.96,-67.32 2134.81,-30.63"/>
<polygon fill="#63b8ff" stroke="#63b8ff" points="2135.01,-34.13 2144.56,-29.54 2134.23,-27.17 2135.01,-34.13"/>
</a>
</g>
</g>
<!-- Node17 -->
<g id="Node000017" class="node">
<title>Node17</title>
<g id="a_Node000017"><a xlink:title=" ">
<polygon fill="#e0e0e0" stroke="#999999" points="2434.25,-24.88 2309.5,-24.88 2309.5,-5.63 2434.25,-5.63 2434.25,-24.88"/>
<text xml:space="preserve" text-anchor="middle" x="2371.88" y="-11.38" font-family="Helvetica,sans-Serif" font-size="10.00">jakarta.persistence.Table</text>
</a>
</g>
</g>
<!-- Node1&#45;&gt;Node17 -->
<g id="edge16_Node000001_Node000017" class="edge">
<title>Node1&#45;&gt;Node17</title>
<g id="a_edge16_Node000001_Node000017"><a xlink:title=" ">
<path fill="none" stroke="#63b8ff" d="M1261.32,-81.33C1442.55,-81.82 1912.23,-77.97 2300.88,-30.5 2307.43,-29.7 2314.29,-28.63 2321.04,-27.43"/>
<polygon fill="#63b8ff" stroke="#63b8ff" points="2321.58,-30.89 2330.76,-25.6 2320.28,-24.01 2321.58,-30.89"/>
</a>
</g>
</g>
</g>
</svg>

<g id="navigator" transform="translate(0 0)" fill="#404254">
  <rect fill="#f2f5e9" fill-opacity="0.5" stroke="#606060" stroke-width=".5" x="0" y="0" width="60" height="60"/>
  <use id="zoomplus" xlink:href="#zoomPlus" x="17" y="9" onmousedown="handleZoom(evt,'in')"/>
  <use id="zoomminus" xlink:href="#zoomMin" x="42" y="9" onmousedown="handleZoom(evt,'out')"/>
  <use id="reset" xlink:href="#resetDef" x="30" y="36" onmousedown="handleReset()"/>
   <use id="arrowup" xlink:href="#arrowUp" x="0" y="0" onmousedown="handlePan(0,-1)"/>
  <use id="arrowright" xlink:href="#arrowRight" x="0" y="0" onmousedown="handlePan(1,0)"/>
  <use id="arrowdown" xlink:href="#arrowDown" x="0" y="0" onmousedown="handlePan(0,1)"/>
  <use id="arrowleft" xlink:href="#arrowLeft" x="0" y="0" onmousedown="handlePan(-1,0)"/>
</g>
<svg viewBox="0 0 15 15" width="100%" height="30px" preserveAspectRatio="xMaxYMin meet">
 <g id="arrow_out" transform="scale(0.3 0.3)">
  <a xlink:href="_shopping_cart_8java__incl_org.svg" target="_base">
   <rect id="button" ry="5" rx="5" y="6" x="6" height="38" width="38"
        fill="#f2f5e9" fill-opacity="0.5" stroke="#606060" stroke-width="1.0"/>
   <path id="arrow"
     d="M 11.500037,31.436501 C 11.940474,20.09759 22.043105,11.32322 32.158766,21.979434 L 37.068811,17.246167 C 37.068811,17.246167 37.088388,32 37.088388,32 L 22.160133,31.978069 C 22.160133,31.978069 26.997745,27.140456 26.997745,27.140456 C 18.528582,18.264221 13.291696,25.230495 11.500037,31.436501 z"
     style="fill:#404040;"/>
  </a>
 </g>
</svg>

<style type='text/css'>
<![CDATA[
[data-mouse-over-selected='false'] { opacity: 0.7; }
[data-mouse-over-selected='true']  { opacity: 1.0; }
]]>
</style>
<script type="application/ecmascript"><![CDATA[
document.addEventListener('DOMContentLoaded', (event) => {
  highlightEdges();
  highlightAdjacentNodes();
});
]]></script>
</svg>
