<?xml version="1.0" encoding="UTF-8" standalone="no"?>
<!DOCTYPE svg PUBLIC "-//W3C//DTD SVG 1.1//EN"
 "http://www.w3.org/Graphics/SVG/1.1/DTD/svg11.dtd">
<!-- Generated by graphviz version 14.0.4 (20251115.1723)
 -->
<!-- Title: src/main/java/com/goldenleaf/shop/service/ShoppingCartService.java Pages: 1 -->
<svg width="1362pt" height="105pt"
 viewBox="0.00 0.00 1362.00 105.00" xmlns="http://www.w3.org/2000/svg" xmlns:xlink="http://www.w3.org/1999/xlink">
<g id="graph0" class="graph" transform="scale(1 1) rotate(0) translate(4 101)">
<title>src/main/java/com/goldenleaf/shop/service/ShoppingCartService.java</title>
<!-- Node1 -->
<g id="Node000001" class="node">
<title>Node1</title>
<g id="a_Node000001"><a xlink:title=" ">
<polygon fill="#999999" stroke="#666666" points="704.62,-97 513.88,-97 513.88,-66.5 704.62,-66.5 704.62,-97"/>
<text xml:space="preserve" text-anchor="start" x="521.88" y="-83.5" font-family="Helvetica,sans-Serif" font-size="10.00">src/main/java/com/goldenleaf</text>
<text xml:space="preserve" text-anchor="middle" x="609.25" y="-72.25" font-family="Helvetica,sans-Serif" font-size="10.00">/shop/service/ShoppingCartService.java</text>
</a>
</g>
</g>
<!-- Node2 -->
<g id="Node000002" class="node">
<title>Node2</title>
<g id="a_Node000002"><a xlink:title=" ">
<polygon fill="#e0e0e0" stroke="#999999" points="68.5,-24.88 0,-24.88 0,-5.63 68.5,-5.63 68.5,-24.88"/>
<text xml:space="preserve" text-anchor="middle" x="34.25" y="-11.38" font-family="Helvetica,sans-Serif" font-size="10.00">java.util.List</text>
</a>
</g>
</g>
<!-- Node1&#45;&gt;Node2 -->
<g id="edge1_Node000001_Node000002" class="edge">
<title>Node1&#45;&gt;Node2</title>
<g id="a_edge1_Node000001_Node000002"><a xlink:title=" ">
<path fill="none" stroke="#63b8ff" d="M513.84,-78C406.83,-73.47 228.56,-61.56 78.25,-30.5 75.6,-29.95 72.88,-29.3 70.16,-28.58"/>
<polygon fill="#63b8ff" stroke="#63b8ff" points="71.16,-25.23 60.58,-25.78 69.19,-31.95 71.16,-25.23"/>
</a>
</g>
</g>
<!-- Node3 -->
<g id="Node000003" class="node">
<title>Node3</title>
<g id="a_Node000003"><a xlink:title=" ">
<polygon fill="#e0e0e0" stroke="#999999" points="175.62,-24.88 86.88,-24.88 86.88,-5.63 175.62,-5.63 175.62,-24.88"/>
<text xml:space="preserve" text-anchor="middle" x="131.25" y="-11.38" font-family="Helvetica,sans-Serif" font-size="10.00">java.util.Optional</text>
</a>
</g>
</g>
<!-- Node1&#45;&gt;Node3 -->
<g id="edge2_Node000001_Node000003" class="edge">
<title>Node1&#45;&gt;Node3</title>
<g id="a_edge2_Node000001_Node000003"><a xlink:title=" ">
<path fill="none" stroke="#63b8ff" d="M513.52,-73.26C427.2,-65.59 297.03,-51.76 185.25,-30.5 181.47,-29.78 177.56,-28.94 173.66,-28.04"/>
<polygon fill="#63b8ff" stroke="#63b8ff" points="174.79,-24.71 164.25,-25.72 173.12,-31.51 174.79,-24.71"/>
</a>
</g>
</g>
<!-- Node4 -->
<g id="Node000004" class="node">
<title>Node4</title>
<g id="a_Node000004"><a xlink:title=" ">
<polygon fill="#e0e0e0" stroke="#999999" points="350.38,-30.5 194.12,-30.5 194.12,0 350.38,0 350.38,-30.5"/>
<text xml:space="preserve" text-anchor="start" x="202.12" y="-17" font-family="Helvetica,sans-Serif" font-size="10.00">org.springframework.stereotype.</text>
<text xml:space="preserve" text-anchor="middle" x="272.25" y="-5.75" font-family="Helvetica,sans-Serif" font-size="10.00">Service</text>
</a>
</g>
</g>
<!-- Node1&#45;&gt;Node4 -->
<g id="edge3_Node000001_Node000004" class="edge">
<title>Node1&#45;&gt;Node4</title>
<g id="a_edge3_Node000001_Node000004"><a xlink:title=" ">
<path fill="none" stroke="#63b8ff" d="M532.36,-66.03C481.12,-56.23 413.65,-43.31 360.27,-33.1"/>
<polygon fill="#63b8ff" stroke="#63b8ff" points="361.07,-29.69 350.59,-31.24 359.75,-36.56 361.07,-29.69"/>
</a>
</g>
</g>
<!-- Node5 -->
<g id="Node000005" class="node">
<title>Node5</title>
<g id="a_Node000005"><a xlink:title=" ">
<polygon fill="#e0e0e0" stroke="#999999" points="522.25,-30.5 368.25,-30.5 368.25,0 522.25,0 522.25,-30.5"/>
<text xml:space="preserve" text-anchor="start" x="376.25" y="-17" font-family="Helvetica,sans-Serif" font-size="10.00">com.goldenleaf.shop.exception.</text>
<text xml:space="preserve" text-anchor="middle" x="445.25" y="-5.75" font-family="Helvetica,sans-Serif" font-size="10.00">EmptyLoginException</text>
</a>
</g>
</g>
<!-- Node1&#45;&gt;Node5 -->
<g id="edge4_Node000001_Node000005" class="edge">
<title>Node1&#45;&gt;Node5</title>
<g id="a_edge4_Node000001_Node000005"><a xlink:title=" ">
<path fill="none" stroke="#63b8ff" d="M572.04,-66.11C548.63,-56.91 518.21,-44.95 493.03,-35.04"/>
<polygon fill="#63b8ff" stroke="#63b8ff" points="494.6,-31.9 484.01,-31.49 492.03,-38.41 494.6,-31.9"/>
</a>
</g>
</g>
<!-- Node6 -->
<g id="Node000006" class="node">
<title>Node6</title>
<g id="a_Node000006"><a xlink:title=" ">
<polygon fill="#e0e0e0" stroke="#999999" points="678.38,-30.5 540.12,-30.5 540.12,0 678.38,0 678.38,-30.5"/>
<text xml:space="preserve" text-anchor="start" x="548.12" y="-17" font-family="Helvetica,sans-Serif" font-size="10.00">com.goldenleaf.shop.model.</text>
<text xml:space="preserve" text-anchor="middle" x="609.25" y="-5.75" font-family="Helvetica,sans-Serif" font-size="10.00">Customer</text>
</a>
</g>
</g>
<!-- Node1&#45;&gt;Node6 -->
<g id="edge5_Node000001_Node000006" class="edge">
<title>Node1&#45;&gt;Node6</title>
<g id="a_edge5_Node000001_Node000006"><a xlink:title=" ">
<path fill="none" stroke="#63b8ff" d="M609.25,-66.11C609.25,-59.02 609.25,-50.29 609.25,-42.13"/>
<polygon fill="#63b8ff" stroke="#63b8ff" points="612.75,-42.34 609.25,-32.34 605.75,-42.34 612.75,-42.34"/>
</a>
</g>
</g>
<!-- Node7 -->
<g id="Node000007" class="node">
<title>Node7</title>
<g id="a_Node000007"><a xlink:title=" ">
<polygon fill="#e0e0e0" stroke="#999999" points="834.38,-30.5 696.12,-30.5 696.12,0 834.38,0 834.38,-30.5"/>
<text xml:space="preserve" text-anchor="start" x="704.12" y="-17" font-family="Helvetica,sans-Serif" font-size="10.00">com.goldenleaf.shop.model.</text>
<text xml:space="preserve" text-anchor="middle" x="765.25" y="-5.75" font-family="Helvetica,sans-Serif" font-size="10.00">ShoppingCart</text>
</a>
</g>
</g>
<!-- Node1&#45;&gt;Node7 -->
<g id="edge6_Node000001_Node000007" class="edge">
<title>Node1&#45;&gt;Node7</title>
<g id="a_edge6_Node000001_Node000007"><a xlink:title=" ">
<path fill="none" stroke="#63b8ff" d="M644.65,-66.11C666.71,-56.99 695.33,-45.16 719.15,-35.31"/>
<polygon fill="#63b8ff" stroke="#63b8ff" points="720.42,-38.57 728.32,-31.52 717.74,-32.1 720.42,-38.57"/>
</a>
</g>
</g>
<!-- Node8 -->
<g id="Node000008" class="node">
<title>Node8</title>
<g id="a_Node000008"><a xlink:title=" ">
<polygon fill="#e0e0e0" stroke="#999999" points="1011.88,-24.88 852.62,-24.88 852.62,-5.63 1011.88,-5.63 1011.88,-24.88"/>
<text xml:space="preserve" text-anchor="middle" x="932.25" y="-11.38" font-family="Helvetica,sans-Serif" font-size="10.00">com.goldenleaf.shop.model.User</text>
</a>
</g>
</g>
<!-- Node1&#45;&gt;Node8 -->
<g id="edge7_Node000001_Node000008" class="edge">
<title>Node1&#45;&gt;Node8</title>
<g id="a_edge7_Node000001_Node000008"><a xlink:title=" ">
<path fill="none" stroke="#63b8ff" d="M682.95,-66.03C741.53,-54.34 822.25,-38.22 875.78,-27.53"/>
<polygon fill="#63b8ff" stroke="#63b8ff" points="876.17,-31.02 885.29,-25.63 874.8,-24.15 876.17,-31.02"/>
</a>
</g>
</g>
<!-- Node9 -->
<g id="Node000009" class="node">
<title>Node9</title>
<g id="a_Node000009"><a xlink:title=" ">
<polygon fill="#e0e0e0" stroke="#999999" points="1182.88,-30.5 1029.62,-30.5 1029.62,0 1182.88,0 1182.88,-30.5"/>
<text xml:space="preserve" text-anchor="start" x="1037.62" y="-17" font-family="Helvetica,sans-Serif" font-size="10.00">com.goldenleaf.shop.repository.</text>
<text xml:space="preserve" text-anchor="middle" x="1106.25" y="-5.75" font-family="Helvetica,sans-Serif" font-size="10.00">ShoppingCartRepository</text>
</a>
</g>
</g>
<!-- Node1&#45;&gt;Node9 -->
<g id="edge8_Node000001_Node000009" class="edge">
<title>Node1&#45;&gt;Node9</title>
<g id="a_edge8_Node000001_Node000009"><a xlink:title=" ">
<path fill="none" stroke="#63b8ff" d="M704.73,-70.33C785.65,-61.22 905.04,-47.11 1018.09,-30.92"/>
<polygon fill="#63b8ff" stroke="#63b8ff" points="1018.47,-34.4 1027.87,-29.51 1017.47,-27.48 1018.47,-34.4"/>
</a>
</g>
</g>
<!-- Node10 -->
<g id="Node000010" class="node">
<title>Node10</title>
<g id="a_Node000010"><a xlink:title=" ">
<polygon fill="#e0e0e0" stroke="#999999" points="1353.88,-30.5 1200.62,-30.5 1200.62,0 1353.88,0 1353.88,-30.5"/>
<text xml:space="preserve" text-anchor="start" x="1208.62" y="-17" font-family="Helvetica,sans-Serif" font-size="10.00">com.goldenleaf.shop.repository.</text>
<text xml:space="preserve" text-anchor="middle" x="1277.25" y="-5.75" font-family="Helvetica,sans-Serif" font-size="10.00">UserRepository</text>
</a>
</g>
</g>
<!-- Node1&#45;&gt;Node10 -->
<g id="edge9_Node000001_Node000010" class="edge">
<title>Node1&#45;&gt;Node10</title>
<g id="a_edge9_Node000001_Node000010"><a xlink:title=" ">
<path fill="none" stroke="#63b8ff" d="M704.93,-74.86C818.21,-67.36 1012.78,-52.81 1189.06,-30.84"/>
<polygon fill="#63b8ff" stroke="#63b8ff" points="1189.39,-34.33 1198.88,-29.61 1188.52,-27.38 1189.39,-34.33"/>
</a>
</g>
</g>
</g>
</svg>
