<?xml version="1.0" encoding="UTF-8" standalone="no"?>
<!DOCTYPE svg PUBLIC "-//W3C//DTD SVG 1.1//EN"
 "http://www.w3.org/Graphics/SVG/1.1/DTD/svg11.dtd">
<!-- Generated by graphviz version 14.0.4 (20251115.1723)
 -->
<!-- Title: src/main/java/com/goldenleaf/shop/service/ShoppingItemService.java Pages: 1 -->
<svg width="1238pt" height="105pt"
 viewBox="0.00 0.00 1238.00 105.00" xmlns="http://www.w3.org/2000/svg" xmlns:xlink="http://www.w3.org/1999/xlink">
<g id="graph0" class="graph" transform="scale(1 1) rotate(0) translate(4 101)">
<title>src/main/java/com/goldenleaf/shop/service/ShoppingItemService.java</title>
<!-- Node1 -->
<g id="Node000001" class="node">
<title>Node1</title>
<g id="a_Node000001"><a xlink:title=" ">
<polygon fill="#999999" stroke="#666666" points="659,-97 467.5,-97 467.5,-66.5 659,-66.5 659,-97"/>
<text xml:space="preserve" text-anchor="start" x="475.5" y="-83.5" font-family="Helvetica,sans-Serif" font-size="10.00">src/main/java/com/goldenleaf</text>
<text xml:space="preserve" text-anchor="middle" x="563.25" y="-72.25" font-family="Helvetica,sans-Serif" font-size="10.00">/shop/service/ShoppingItemService.java</text>
</a>
</g>
</g>
<!-- Node2 -->
<g id="Node000002" class="node">
<title>Node2</title>
<g id="a_Node000002"><a xlink:title=" ">
<polygon fill="#e0e0e0" stroke="#999999" points="68.5,-24.88 0,-24.88 0,-5.63 68.5,-5.63 68.5,-24.88"/>
<text xml:space="preserve" text-anchor="middle" x="34.25" y="-11.38" font-family="Helvetica,sans-Serif" font-size="10.00">java.util.List</text>
</a>
</g>
</g>
<!-- Node1&#45;&gt;Node2 -->
<g id="edge1_Node000001_Node000002" class="edge">
<title>Node1&#45;&gt;Node2</title>
<g id="a_edge1_Node000001_Node000002"><a xlink:title=" ">
<path fill="none" stroke="#63b8ff" d="M467.3,-76.97C368.57,-71.65 210.77,-59.17 77.25,-30.5 74.65,-29.94 72,-29.28 69.34,-28.56"/>
<polygon fill="#63b8ff" stroke="#63b8ff" points="70.59,-25.28 60,-25.76 68.57,-31.99 70.59,-25.28"/>
</a>
</g>
</g>
<!-- Node3 -->
<g id="Node000003" class="node">
<title>Node3</title>
<g id="a_Node000003"><a xlink:title=" ">
<polygon fill="#e0e0e0" stroke="#999999" points="242.38,-30.5 86.12,-30.5 86.12,0 242.38,0 242.38,-30.5"/>
<text xml:space="preserve" text-anchor="start" x="94.12" y="-17" font-family="Helvetica,sans-Serif" font-size="10.00">org.springframework.stereotype.</text>
<text xml:space="preserve" text-anchor="middle" x="164.25" y="-5.75" font-family="Helvetica,sans-Serif" font-size="10.00">Service</text>
</a>
</g>
</g>
<!-- Node1&#45;&gt;Node3 -->
<g id="edge2_Node000001_Node000003" class="edge">
<title>Node1&#45;&gt;Node3</title>
<g id="a_edge2_Node000001_Node000003"><a xlink:title=" ">
<path fill="none" stroke="#63b8ff" d="M471.43,-66.03C412.07,-56.49 332.81,-43.74 253.67,-30.89"/>
<polygon fill="#63b8ff" stroke="#63b8ff" points="254.43,-27.47 244,-29.32 253.31,-34.38 254.43,-27.47"/>
</a>
</g>
</g>
<!-- Node4 -->
<g id="Node000004" class="node">
<title>Node4</title>
<g id="a_Node000004"><a xlink:title=" ">
<polygon fill="#e0e0e0" stroke="#999999" points="398.38,-30.5 260.12,-30.5 260.12,0 398.38,0 398.38,-30.5"/>
<text xml:space="preserve" text-anchor="start" x="268.12" y="-17" font-family="Helvetica,sans-Serif" font-size="10.00">com.goldenleaf.shop.model.</text>
<text xml:space="preserve" text-anchor="middle" x="329.25" y="-5.75" font-family="Helvetica,sans-Serif" font-size="10.00">Product</text>
</a>
</g>
</g>
<!-- Node1&#45;&gt;Node4 -->
<g id="edge3_Node000001_Node000004" class="edge">
<title>Node1&#45;&gt;Node4</title>
<g id="a_edge3_Node000001_Node000004"><a xlink:title=" ">
<path fill="none" stroke="#63b8ff" d="M509.86,-66.03C475.26,-56.5 430.01,-44.02 393.46,-33.95"/>
<polygon fill="#63b8ff" stroke="#63b8ff" points="394.44,-30.59 383.87,-31.31 392.58,-37.34 394.44,-30.59"/>
</a>
</g>
</g>
<!-- Node5 -->
<g id="Node000005" class="node">
<title>Node5</title>
<g id="a_Node000005"><a xlink:title=" ">
<polygon fill="#e0e0e0" stroke="#999999" points="554.38,-30.5 416.12,-30.5 416.12,0 554.38,0 554.38,-30.5"/>
<text xml:space="preserve" text-anchor="start" x="424.12" y="-17" font-family="Helvetica,sans-Serif" font-size="10.00">com.goldenleaf.shop.model.</text>
<text xml:space="preserve" text-anchor="middle" x="485.25" y="-5.75" font-family="Helvetica,sans-Serif" font-size="10.00">ShoppingCart</text>
</a>
</g>
</g>
<!-- Node1&#45;&gt;Node5 -->
<g id="edge4_Node000001_Node000005" class="edge">
<title>Node1&#45;&gt;Node5</title>
<g id="a_edge4_Node000001_Node000005"><a xlink:title=" ">
<path fill="none" stroke="#63b8ff" d="M545.55,-66.11C535.48,-57.78 522.67,-47.19 511.45,-37.92"/>
<polygon fill="#63b8ff" stroke="#63b8ff" points="513.98,-35.47 504.05,-31.79 509.52,-40.86 513.98,-35.47"/>
</a>
</g>
</g>
<!-- Node6 -->
<g id="Node000006" class="node">
<title>Node6</title>
<g id="a_Node000006"><a xlink:title=" ">
<polygon fill="#e0e0e0" stroke="#999999" points="710.38,-30.5 572.12,-30.5 572.12,0 710.38,0 710.38,-30.5"/>
<text xml:space="preserve" text-anchor="start" x="580.12" y="-17" font-family="Helvetica,sans-Serif" font-size="10.00">com.goldenleaf.shop.model.</text>
<text xml:space="preserve" text-anchor="middle" x="641.25" y="-5.75" font-family="Helvetica,sans-Serif" font-size="10.00">ShoppingItem</text>
</a>
</g>
</g>
<!-- Node1&#45;&gt;Node6 -->
<g id="edge5_Node000001_Node000006" class="edge">
<title>Node1&#45;&gt;Node6</title>
<g id="a_edge5_Node000001_Node000006"><a xlink:title=" ">
<path fill="none" stroke="#63b8ff" d="M580.95,-66.11C591.02,-57.78 603.83,-47.19 615.05,-37.92"/>
<polygon fill="#63b8ff" stroke="#63b8ff" points="616.98,-40.86 622.45,-31.79 612.52,-35.47 616.98,-40.86"/>
</a>
</g>
</g>
<!-- Node7 -->
<g id="Node000007" class="node">
<title>Node7</title>
<g id="a_Node000007"><a xlink:title=" ">
<polygon fill="#e0e0e0" stroke="#999999" points="887.88,-24.88 728.62,-24.88 728.62,-5.63 887.88,-5.63 887.88,-24.88"/>
<text xml:space="preserve" text-anchor="middle" x="808.25" y="-11.38" font-family="Helvetica,sans-Serif" font-size="10.00">com.goldenleaf.shop.model.User</text>
</a>
</g>
</g>
<!-- Node1&#45;&gt;Node7 -->
<g id="edge6_Node000001_Node000007" class="edge">
<title>Node1&#45;&gt;Node7</title>
<g id="a_edge6_Node000001_Node000007"><a xlink:title=" ">
<path fill="none" stroke="#63b8ff" d="M619.15,-66.03C662.65,-54.58 722.26,-38.89 762.84,-28.2"/>
<polygon fill="#63b8ff" stroke="#63b8ff" points="763.51,-31.65 772.29,-25.72 761.73,-24.88 763.51,-31.65"/>
</a>
</g>
</g>
<!-- Node8 -->
<g id="Node000008" class="node">
<title>Node8</title>
<g id="a_Node000008"><a xlink:title=" ">
<polygon fill="#e0e0e0" stroke="#999999" points="1058.88,-30.5 905.62,-30.5 905.62,0 1058.88,0 1058.88,-30.5"/>
<text xml:space="preserve" text-anchor="start" x="913.62" y="-17" font-family="Helvetica,sans-Serif" font-size="10.00">com.goldenleaf.shop.repository.</text>
<text xml:space="preserve" text-anchor="middle" x="982.25" y="-5.75" font-family="Helvetica,sans-Serif" font-size="10.00">ShoppingCartRepository</text>
</a>
</g>
</g>
<!-- Node1&#45;&gt;Node8 -->
<g id="edge7_Node000001_Node000008" class="edge">
<title>Node1&#45;&gt;Node8</title>
<g id="a_edge7_Node000001_Node000008"><a xlink:title=" ">
<path fill="none" stroke="#63b8ff" d="M659.42,-66.72C723.39,-57.28 809.59,-44.37 894.23,-30.97"/>
<polygon fill="#63b8ff" stroke="#63b8ff" points="894.53,-34.46 903.85,-29.44 893.43,-27.55 894.53,-34.46"/>
</a>
</g>
</g>
<!-- Node9 -->
<g id="Node000009" class="node">
<title>Node9</title>
<g id="a_Node000009"><a xlink:title=" ">
<polygon fill="#e0e0e0" stroke="#999999" points="1229.88,-30.5 1076.62,-30.5 1076.62,0 1229.88,0 1229.88,-30.5"/>
<text xml:space="preserve" text-anchor="start" x="1084.62" y="-17" font-family="Helvetica,sans-Serif" font-size="10.00">com.goldenleaf.shop.repository.</text>
<text xml:space="preserve" text-anchor="middle" x="1153.25" y="-5.75" font-family="Helvetica,sans-Serif" font-size="10.00">ShoppingItemRepository</text>
</a>
</g>
</g>
<!-- Node1&#45;&gt;Node9 -->
<g id="edge8_Node000001_Node000009" class="edge">
<title>Node1&#45;&gt;Node9</title>
<g id="a_edge8_Node000001_Node000009"><a xlink:title=" ">
<path fill="none" stroke="#63b8ff" d="M659.34,-73.11C758.62,-64.79 918.3,-50.17 1065.36,-30.84"/>
<polygon fill="#63b8ff" stroke="#63b8ff" points="1065.42,-34.36 1074.87,-29.57 1064.5,-27.42 1065.42,-34.36"/>
</a>
</g>
</g>
</g>
</svg>
