<?xml version="1.0" encoding="UTF-8" standalone="no"?>
<!DOCTYPE svg PUBLIC "-//W3C//DTD SVG 1.1//EN"
 "http://www.w3.org/Graphics/SVG/1.1/DTD/svg11.dtd">
<!-- Generated by graphviz version 14.0.4 (20251115.1723)
 -->
<!-- Title: frontend/node_modules/@parcel/watcher/src/Signal.hh Pages: 1 -->
<svg width="164pt" height="105pt"
 viewBox="0.00 0.00 164.00 105.00" xmlns="http://www.w3.org/2000/svg" xmlns:xlink="http://www.w3.org/1999/xlink">
<g id="graph0" class="graph" transform="scale(1 1) rotate(0) translate(4 101)">
<title>frontend/node_modules/@parcel/watcher/src/Signal.hh</title>
<!-- Node1 -->
<g id="Node000001" class="node">
<title>Node1</title>
<g id="a_Node000001"><a xlink:title=" ">
<polygon fill="#999999" stroke="#666666" points="123.12,-97 5.88,-97 5.88,-55.25 123.12,-55.25 123.12,-97"/>
<text xml:space="preserve" text-anchor="start" x="13.88" y="-83.5" font-family="Helvetica,sans-Serif" font-size="10.00">frontend/node_modules</text>
<text xml:space="preserve" text-anchor="start" x="13.88" y="-72.25" font-family="Helvetica,sans-Serif" font-size="10.00">/@parcel/watcher/src</text>
<text xml:space="preserve" text-anchor="middle" x="64.5" y="-61" font-family="Helvetica,sans-Serif" font-size="10.00">/Signal.hh</text>
</a>
</g>
</g>
<!-- Node2 -->
<g id="Node000002" class="node">
<title>Node2</title>
<g id="a_Node000002"><a xlink:title=" ">
<polygon fill="#e0e0e0" stroke="#999999" points="43,-19.25 0,-19.25 0,0 43,0 43,-19.25"/>
<text xml:space="preserve" text-anchor="middle" x="21.5" y="-5.75" font-family="Helvetica,sans-Serif" font-size="10.00">mutex</text>
</a>
</g>
</g>
<!-- Node1&#45;&gt;Node2 -->
<g id="edge1_Node000001_Node000002" class="edge">
<title>Node1&#45;&gt;Node2</title>
<g id="a_edge1_Node000001_Node000002"><a xlink:title=" ">
<path fill="none" stroke="#63b8ff" d="M51.13,-55.07C45.58,-46.75 39.19,-37.16 33.76,-29.02"/>
<polygon fill="#63b8ff" stroke="#63b8ff" points="36.85,-27.33 28.39,-20.95 31.02,-31.22 36.85,-27.33"/>
</a>
</g>
</g>
<!-- Node3 -->
<g id="Node000003" class="node">
<title>Node3</title>
<g id="a_Node000003"><a xlink:title=" ">
<polygon fill="#e0e0e0" stroke="#999999" points="155.5,-19.25 61.5,-19.25 61.5,0 155.5,0 155.5,-19.25"/>
<text xml:space="preserve" text-anchor="middle" x="108.5" y="-5.75" font-family="Helvetica,sans-Serif" font-size="10.00">condition_variable</text>
</a>
</g>
</g>
<!-- Node1&#45;&gt;Node3 -->
<g id="edge2_Node000001_Node000003" class="edge">
<title>Node1&#45;&gt;Node3</title>
<g id="a_edge2_Node000001_Node000003"><a xlink:title=" ">
<path fill="none" stroke="#63b8ff" d="M78.18,-55.07C83.86,-46.75 90.4,-37.16 95.95,-29.02"/>
<polygon fill="#63b8ff" stroke="#63b8ff" points="98.72,-31.18 101.46,-20.95 92.93,-27.23 98.72,-31.18"/>
</a>
</g>
</g>
</g>
</svg>
