<?xml version="1.0" encoding="UTF-8" standalone="no"?>
<!DOCTYPE svg PUBLIC "-//W3C//DTD SVG 1.1//EN"
 "http://www.w3.org/Graphics/SVG/1.1/DTD/svg11.dtd">
<!-- Generated by graphviz version 14.0.4 (20251115.1723)
 -->
<!-- Title: frontend/node_modules/@parcel/watcher/src/Signal.hh Pages: 1 -->
<!--zoomable 516 -->

<svg id="main" version="1.1" xmlns="http://www.w3.org/2000/svg" xmlns:xlink="http://www.w3.org/1999/xlink" xml:space="preserve" onload="init(evt)">

<style type="text/css"><![CDATA[
.node, .edge {opacity: 0.7;}
.node.selected, .edge.selected {opacity: 1;}
.edge:hover path { stroke: red; }
.edge:hover polygon { stroke: red; fill: red; }
]]></style>

<defs>
  <circle id="rim" cx="0" cy="0" r="7"/>
  <circle id="rim2" cx="0" cy="0" r="3.5"/>
  <g id="zoomPlus">
    <use xlink:href="#rim" fill="#404040"><set attributeName="fill" to="#808080" begin="zoomplus.mouseover" end="zoomplus.mouseout"/></use>
    <path d="M-4,0h8M0,-4v8" fill="none" stroke="white" stroke-width="1.5" pointer-events="none"/>
  </g>
  <g id="zoomMin">
    <use xlink:href="#rim" fill="#404040"><set attributeName="fill" to="#808080" begin="zoomminus.mouseover" end="zoomminus.mouseout"/></use>
    <path d="M-4,0h8" fill="none" stroke="white" stroke-width="1.5" pointer-events="none"/>
  </g>
  <g id="arrowUp" transform="translate(30 24)">
    <use xlink:href="#rim"/>
    <path pointer-events="none" fill="none" stroke="white" stroke-width="1.5" d="M0,-3.0v7 M-2.5,-0.5L0,-3.0L2.5,-0.5"/>
  </g>
  <g id="arrowRight" transform="rotate(90) translate(36 -43)">
    <use xlink:href="#rim"/>
    <path pointer-events="none" fill="none" stroke="white" stroke-width="1.5" d="M0,-3.0v7 M-2.5,-0.5L0,-3.0L2.5,-0.5"/>
  </g>
  <g id="arrowDown" transform="rotate(180) translate(-30 -48)">
    <use xlink:href="#rim"/>
    <path pointer-events="none" fill="none" stroke="white" stroke-width="1.5" d="M0,-3.0v7 M-2.5,-0.5L0,-3.0L2.5,-0.5"/>
  </g>
  <g id="arrowLeft" transform="rotate(270) translate(-36 17)">
    <use xlink:href="#rim"/>
    <path pointer-events="none" fill="none" stroke="white" stroke-width="1.5" d="M0,-3.0v7 M-2.5,-0.5L0,-3.0L2.5,-0.5"/>
  </g>
  <g id="resetDef">
    <use xlink:href="#rim2" fill="#404040"><set attributeName="fill" to="#808080" begin="reset.mouseover" end="reset.mouseout"/></use>
  </g>
</defs>
<script type="application/ecmascript">
var viewWidth = 1563;
var viewHeight = 516;
var sectionId = 'dynsection-1';
</script>
<script type="application/ecmascript" xlink:href="svg.min.js"/>
<svg id="graph" class="graph">
<g id="viewport">
<title>frontend/node_modules/@parcel/watcher/src/Signal.hh</title>
<!-- Node1 -->
<g id="Node000001" class="node">
<title>Node1</title>
<g id="a_Node000001"><a xlink:title=" ">
<polygon fill="#999999" stroke="#666666" points="1033.88,-508.25 916.62,-508.25 916.62,-466.5 1033.88,-466.5 1033.88,-508.25"/>
<text xml:space="preserve" text-anchor="start" x="924.62" y="-494.75" font-family="Helvetica,sans-Serif" font-size="10.00">frontend/node_modules</text>
<text xml:space="preserve" text-anchor="start" x="924.62" y="-483.5" font-family="Helvetica,sans-Serif" font-size="10.00">/@parcel/watcher/src</text>
<text xml:space="preserve" text-anchor="middle" x="975.25" y="-472.25" font-family="Helvetica,sans-Serif" font-size="10.00">/Signal.hh</text>
</a>
</g>
</g>
<!-- Node2 -->
<g id="Node000002" class="node">
<title>Node2</title>
<g id="a_Node000002"><a xlink:href="_backend_8hh.html" target="_top" xlink:title=" ">
<polygon fill="white" stroke="#666666" points="646.88,-275 529.62,-275 529.62,-233.25 646.88,-233.25 646.88,-275"/>
<text xml:space="preserve" text-anchor="start" x="537.62" y="-261.5" font-family="Helvetica,sans-Serif" font-size="10.00">frontend/node_modules</text>
<text xml:space="preserve" text-anchor="start" x="537.62" y="-250.25" font-family="Helvetica,sans-Serif" font-size="10.00">/@parcel/watcher/src</text>
<text xml:space="preserve" text-anchor="middle" x="588.25" y="-239" font-family="Helvetica,sans-Serif" font-size="10.00">/Backend.hh</text>
</a>
</g>
</g>
<!-- Node1&#45;&gt;Node2 -->
<g id="edge1_Node000001_Node000002" class="edge">
<title>Node1&#45;&gt;Node2</title>
<g id="a_edge1_Node000001_Node000002"><a xlink:title=" ">
<path fill="none" stroke="#63b8ff" d="M905.57,-465.25C879.35,-456.11 849.74,-444.32 824.25,-430.5 739.43,-384.52 651.22,-310.84 610.86,-275.43"/>
<polygon fill="#63b8ff" stroke="#63b8ff" points="904.17,-468.47 914.77,-468.38 906.43,-461.84 904.17,-468.47"/>
</a>
</g>
</g>
<!-- Node8 -->
<g id="Node000008" class="node">
<title>Node8</title>
<g id="a_Node000008"><a xlink:href="_kqueue_backend_8hh.html" target="_top" xlink:title=" ">
<polygon fill="white" stroke="#666666" points="1415.38,-119.5 1277.12,-119.5 1277.12,-77.75 1415.38,-77.75 1415.38,-119.5"/>
<text xml:space="preserve" text-anchor="start" x="1285.12" y="-106" font-family="Helvetica,sans-Serif" font-size="10.00">frontend/node_modules</text>
<text xml:space="preserve" text-anchor="start" x="1285.12" y="-94.75" font-family="Helvetica,sans-Serif" font-size="10.00">/@parcel/watcher/src</text>
<text xml:space="preserve" text-anchor="middle" x="1346.25" y="-83.5" font-family="Helvetica,sans-Serif" font-size="10.00">/kqueue/KqueueBackend.hh</text>
</a>
</g>
</g>
<!-- Node1&#45;&gt;Node8 -->
<g id="edge32_Node000001_Node000008" class="edge">
<title>Node1&#45;&gt;Node8</title>
<g id="a_edge32_Node000001_Node000008"><a xlink:title=" ">
<path fill="none" stroke="#63b8ff" d="M1045.43,-480.19C1132.4,-468.23 1269.25,-433.44 1269.25,-332.88 1269.25,-332.88 1269.25,-332.88 1269.25,-253.12 1269.25,-200.65 1305.64,-147.78 1328.39,-119.85"/>
<polygon fill="#63b8ff" stroke="#63b8ff" points="1045.01,-476.72 1035.54,-481.47 1045.91,-483.66 1045.01,-476.72"/>
</a>
</g>
</g>
<!-- Node10 -->
<g id="Node000010" class="node">
<title>Node10</title>
<g id="a_Node000010"><a xlink:href="_inotify_backend_8hh.html" target="_top" xlink:title=" ">
<polygon fill="white" stroke="#666666" points="1554.75,-119.5 1433.75,-119.5 1433.75,-77.75 1554.75,-77.75 1554.75,-119.5"/>
<text xml:space="preserve" text-anchor="start" x="1441.75" y="-106" font-family="Helvetica,sans-Serif" font-size="10.00">frontend/node_modules</text>
<text xml:space="preserve" text-anchor="start" x="1441.75" y="-94.75" font-family="Helvetica,sans-Serif" font-size="10.00">/@parcel/watcher/src</text>
<text xml:space="preserve" text-anchor="middle" x="1494.25" y="-83.5" font-family="Helvetica,sans-Serif" font-size="10.00">/linux/InotifyBackend.hh</text>
</a>
</g>
</g>
<!-- Node1&#45;&gt;Node10 -->
<g id="edge33_Node000001_Node000010" class="edge">
<title>Node1&#45;&gt;Node10</title>
<g id="a_edge33_Node000001_Node000010"><a xlink:title=" ">
<path fill="none" stroke="#63b8ff" d="M1045.13,-477.62C1172.92,-459.64 1431.25,-413.35 1431.25,-332.88 1431.25,-332.88 1431.25,-332.88 1431.25,-253.12 1431.25,-202.14 1461.37,-148.28 1479.95,-119.89"/>
<polygon fill="#63b8ff" stroke="#63b8ff" points="1044.86,-474.12 1035.43,-478.96 1045.82,-481.06 1044.86,-474.12"/>
</a>
</g>
</g>
<!-- Node19 -->
<g id="Node000019" class="node">
<title>Node19</title>
<g id="a_Node000019"><a xlink:href="_watchman_backend_8hh.html" target="_top" xlink:title=" ">
<polygon fill="white" stroke="#666666" points="1101.88,-197.25 936.62,-197.25 936.62,-155.5 1101.88,-155.5 1101.88,-197.25"/>
<text xml:space="preserve" text-anchor="start" x="944.62" y="-183.75" font-family="Helvetica,sans-Serif" font-size="10.00">frontend/node_modules</text>
<text xml:space="preserve" text-anchor="start" x="944.62" y="-172.5" font-family="Helvetica,sans-Serif" font-size="10.00">/@parcel/watcher/src</text>
<text xml:space="preserve" text-anchor="middle" x="1019.25" y="-161.25" font-family="Helvetica,sans-Serif" font-size="10.00">/watchman/WatchmanBackend.hh</text>
</a>
</g>
</g>
<!-- Node1&#45;&gt;Node19 -->
<g id="edge34_Node000001_Node000019" class="edge">
<title>Node1&#45;&gt;Node19</title>
<g id="a_edge34_Node000001_Node000019"><a xlink:title=" ">
<path fill="none" stroke="#63b8ff" d="M991.26,-455.68C994.79,-447.68 998.12,-438.93 1000.25,-430.5 1021.65,-345.91 1021.31,-240.75 1020.06,-197.44"/>
<polygon fill="#63b8ff" stroke="#63b8ff" points="988.13,-454.12 987.04,-464.66 994.46,-457.09 988.13,-454.12"/>
</a>
</g>
</g>
<!-- Node21 -->
<g id="Node000021" class="node">
<title>Node21</title>
<g id="a_Node000021"><a xlink:href="_debounce_8hh.html" target="_top" xlink:title=" ">
<polygon fill="white" stroke="#666666" points="990.88,-430.5 873.62,-430.5 873.62,-388.75 990.88,-388.75 990.88,-430.5"/>
<text xml:space="preserve" text-anchor="start" x="881.62" y="-417" font-family="Helvetica,sans-Serif" font-size="10.00">frontend/node_modules</text>
<text xml:space="preserve" text-anchor="start" x="881.62" y="-405.75" font-family="Helvetica,sans-Serif" font-size="10.00">/@parcel/watcher/src</text>
<text xml:space="preserve" text-anchor="middle" x="932.25" y="-394.5" font-family="Helvetica,sans-Serif" font-size="10.00">/Debounce.hh</text>
</a>
</g>
</g>
<!-- Node1&#45;&gt;Node21 -->
<g id="edge23_Node000001_Node000021" class="edge">
<title>Node1&#45;&gt;Node21</title>
<g id="a_edge23_Node000001_Node000021"><a xlink:title=" ">
<path fill="none" stroke="#63b8ff" d="M958.09,-456.15C953.29,-447.7 948.19,-438.71 943.81,-430.98"/>
<polygon fill="#63b8ff" stroke="#63b8ff" points="955,-457.79 962.98,-464.76 961.09,-454.33 955,-457.79"/>
</a>
</g>
</g>
<!-- Node23 -->
<g id="Node000023" class="node">
<title>Node23</title>
<g id="a_Node000023"><a xlink:href="_watcher_8hh.html" target="_top" xlink:title=" ">
<polygon fill="white" stroke="#666666" points="855.88,-352.75 738.62,-352.75 738.62,-311 855.88,-311 855.88,-352.75"/>
<text xml:space="preserve" text-anchor="start" x="746.62" y="-339.25" font-family="Helvetica,sans-Serif" font-size="10.00">frontend/node_modules</text>
<text xml:space="preserve" text-anchor="start" x="746.62" y="-328" font-family="Helvetica,sans-Serif" font-size="10.00">/@parcel/watcher/src</text>
<text xml:space="preserve" text-anchor="middle" x="797.25" y="-316.75" font-family="Helvetica,sans-Serif" font-size="10.00">/Watcher.hh</text>
</a>
</g>
</g>
<!-- Node1&#45;&gt;Node23 -->
<g id="edge31_Node000001_Node000023" class="edge">
<title>Node1&#45;&gt;Node23</title>
<g id="a_edge31_Node000001_Node000023"><a xlink:title=" ">
<path fill="none" stroke="#63b8ff" d="M911.5,-461.12C895.06,-452.85 878.11,-442.6 864.25,-430.5 838.86,-408.33 818.5,-374.5 807.15,-353.05"/>
<polygon fill="#63b8ff" stroke="#63b8ff" points="909.74,-464.16 920.27,-465.36 912.79,-457.86 909.74,-464.16"/>
</a>
</g>
</g>
<!-- Node3 -->
<g id="Node000003" class="node">
<title>Node3</title>
<g id="a_Node000003"><a xlink:href="_backend_8cc.html" target="_top" xlink:title=" ">
<polygon fill="white" stroke="#666666" points="281.88,-119.5 164.62,-119.5 164.62,-77.75 281.88,-77.75 281.88,-119.5"/>
<text xml:space="preserve" text-anchor="start" x="172.62" y="-106" font-family="Helvetica,sans-Serif" font-size="10.00">frontend/node_modules</text>
<text xml:space="preserve" text-anchor="start" x="172.62" y="-94.75" font-family="Helvetica,sans-Serif" font-size="10.00">/@parcel/watcher/src</text>
<text xml:space="preserve" text-anchor="middle" x="223.25" y="-83.5" font-family="Helvetica,sans-Serif" font-size="10.00">/Backend.cc</text>
</a>
</g>
</g>
<!-- Node2&#45;&gt;Node3 -->
<g id="edge2_Node000002_Node000003" class="edge">
<title>Node2&#45;&gt;Node3</title>
<g id="a_edge2_Node000002_Node000003"><a xlink:title=" ">
<path fill="none" stroke="#63b8ff" d="M576.39,-222.66C566.07,-200.35 548.86,-171.33 524.25,-155.5 435.75,-98.58 392.93,-142.52 290.25,-119.5 287.65,-118.92 284.99,-118.29 282.32,-117.62"/>
<polygon fill="#63b8ff" stroke="#63b8ff" points="573.09,-223.83 580.31,-231.59 579.5,-221.03 573.09,-223.83"/>
</a>
</g>
</g>
<!-- Node4 -->
<g id="Node000004" class="node">
<title>Node4</title>
<g id="a_Node000004"><a xlink:href="binding_8cc.html" target="_top" xlink:title=" ">
<polygon fill="white" stroke="#666666" points="906.88,-197.25 789.62,-197.25 789.62,-155.5 906.88,-155.5 906.88,-197.25"/>
<text xml:space="preserve" text-anchor="start" x="797.62" y="-183.75" font-family="Helvetica,sans-Serif" font-size="10.00">frontend/node_modules</text>
<text xml:space="preserve" text-anchor="start" x="797.62" y="-172.5" font-family="Helvetica,sans-Serif" font-size="10.00">/@parcel/watcher/src</text>
<text xml:space="preserve" text-anchor="middle" x="848.25" y="-161.25" font-family="Helvetica,sans-Serif" font-size="10.00">/binding.cc</text>
</a>
</g>
</g>
<!-- Node2&#45;&gt;Node4 -->
<g id="edge3_Node000002_Node000004" class="edge">
<title>Node2&#45;&gt;Node4</title>
<g id="a_edge3_Node000002_Node000004"><a xlink:title=" ">
<path fill="none" stroke="#63b8ff" d="M658.11,-232.42C712.59,-216.54 728.09,-212.38 780.25,-197.25 783.2,-196.39 786.23,-195.51 789.28,-194.63"/>
<polygon fill="#63b8ff" stroke="#63b8ff" points="657.14,-229.06 648.52,-235.22 659.1,-235.78 657.14,-229.06"/>
</a>
</g>
</g>
<!-- Node5 -->
<g id="Node000005" class="node">
<title>Node5</title>
<g id="a_Node000005"><a xlink:href="_f_s_events_backend_8cc.html" target="_top" xlink:title=" ">
<polygon fill="white" stroke="#666666" points="146.5,-119.5 0,-119.5 0,-77.75 146.5,-77.75 146.5,-119.5"/>
<text xml:space="preserve" text-anchor="start" x="8" y="-106" font-family="Helvetica,sans-Serif" font-size="10.00">frontend/node_modules</text>
<text xml:space="preserve" text-anchor="start" x="8" y="-94.75" font-family="Helvetica,sans-Serif" font-size="10.00">/@parcel/watcher/src</text>
<text xml:space="preserve" text-anchor="middle" x="73.25" y="-83.5" font-family="Helvetica,sans-Serif" font-size="10.00">/macos/FSEventsBackend.cc</text>
</a>
</g>
</g>
<!-- Node2&#45;&gt;Node5 -->
<g id="edge4_Node000002_Node000005" class="edge">
<title>Node2&#45;&gt;Node5</title>
<g id="a_edge4_Node000002_Node000005"><a xlink:title=" ">
<path fill="none" stroke="#63b8ff" d="M555.82,-225.75C526.92,-202.97 482.47,-171.73 438.25,-155.5 319.22,-111.82 279.94,-142.47 155.25,-119.5 152.51,-119 149.73,-118.46 146.92,-117.89"/>
<polygon fill="#63b8ff" stroke="#63b8ff" points="553.46,-228.35 563.45,-231.88 557.84,-222.89 553.46,-228.35"/>
</a>
</g>
</g>
<!-- Node6 -->
<g id="Node000006" class="node">
<title>Node6</title>
<g id="a_Node000006"><a xlink:href="_f_s_events_backend_8hh.html" target="_top" xlink:title=" ">
<polygon fill="white" stroke="#666666" points="429.5,-197.25 283,-197.25 283,-155.5 429.5,-155.5 429.5,-197.25"/>
<text xml:space="preserve" text-anchor="start" x="291" y="-183.75" font-family="Helvetica,sans-Serif" font-size="10.00">frontend/node_modules</text>
<text xml:space="preserve" text-anchor="start" x="291" y="-172.5" font-family="Helvetica,sans-Serif" font-size="10.00">/@parcel/watcher/src</text>
<text xml:space="preserve" text-anchor="middle" x="356.25" y="-161.25" font-family="Helvetica,sans-Serif" font-size="10.00">/macos/FSEventsBackend.hh</text>
</a>
</g>
</g>
<!-- Node2&#45;&gt;Node6 -->
<g id="edge5_Node000002_Node000006" class="edge">
<title>Node2&#45;&gt;Node6</title>
<g id="a_edge5_Node000002_Node000006"><a xlink:title=" ">
<path fill="none" stroke="#63b8ff" d="M518.81,-230.45C486.86,-220.02 449.26,-207.74 418.28,-197.63"/>
<polygon fill="#63b8ff" stroke="#63b8ff" points="517.38,-233.67 527.97,-233.44 519.55,-227.01 517.38,-233.67"/>
</a>
</g>
</g>
<!-- Node7 -->
<g id="Node000007" class="node">
<title>Node7</title>
<g id="a_Node000007"><a xlink:href="_brute_force_backend_8hh.html" target="_top" xlink:title=" ">
<polygon fill="white" stroke="#666666" points="771.75,-197.25 620.75,-197.25 620.75,-155.5 771.75,-155.5 771.75,-197.25"/>
<text xml:space="preserve" text-anchor="start" x="628.75" y="-183.75" font-family="Helvetica,sans-Serif" font-size="10.00">frontend/node_modules</text>
<text xml:space="preserve" text-anchor="start" x="628.75" y="-172.5" font-family="Helvetica,sans-Serif" font-size="10.00">/@parcel/watcher/src</text>
<text xml:space="preserve" text-anchor="middle" x="696.25" y="-161.25" font-family="Helvetica,sans-Serif" font-size="10.00">/shared/BruteForceBackend.hh</text>
</a>
</g>
</g>
<!-- Node2&#45;&gt;Node7 -->
<g id="edge7_Node000002_Node000007" class="edge">
<title>Node2&#45;&gt;Node7</title>
<g id="a_edge7_Node000002_Node000007"><a xlink:title=" ">
<path fill="none" stroke="#63b8ff" d="M626.23,-226.48C639.7,-217.04 654.63,-206.57 667.23,-197.73"/>
<polygon fill="#63b8ff" stroke="#63b8ff" points="624.61,-223.35 618.43,-231.96 628.63,-229.08 624.61,-223.35"/>
</a>
</g>
</g>
<!-- Node2&#45;&gt;Node19 -->
<g id="edge21_Node000002_Node000019" class="edge">
<title>Node2&#45;&gt;Node19</title>
<g id="a_edge21_Node000002_Node000019"><a xlink:title=" ">
<path fill="none" stroke="#63b8ff" d="M658.52,-232.69C771.73,-208.99 804.33,-215.75 916.25,-197.25 922.81,-196.17 929.59,-194.99 936.4,-193.76"/>
<polygon fill="#63b8ff" stroke="#63b8ff" points="657.84,-229.25 648.79,-234.76 659.3,-236.1 657.84,-229.25"/>
</a>
</g>
</g>
<!-- Node6&#45;&gt;Node5 -->
<g id="edge6_Node000006_Node000005" class="edge">
<title>Node6&#45;&gt;Node5</title>
<g id="a_edge6_Node000006_Node000005"><a xlink:title=" ">
<path fill="none" stroke="#63b8ff" d="M271.65,-152.73C231.99,-142.12 185.18,-129.59 146.99,-119.36"/>
<polygon fill="#63b8ff" stroke="#63b8ff" points="270.61,-156.07 281.17,-155.28 272.42,-149.31 270.61,-156.07"/>
</a>
</g>
</g>
<!-- Node7&#45;&gt;Node3 -->
<g id="edge8_Node000007_Node000003" class="edge">
<title>Node7&#45;&gt;Node3</title>
<g id="a_edge8_Node000007_Node000003"><a xlink:title=" ">
<path fill="none" stroke="#63b8ff" d="M609.08,-158.71C602.38,-157.57 595.71,-156.49 589.25,-155.5 456.94,-135.27 421.32,-146.63 290.25,-119.5 287.64,-118.96 284.98,-118.36 282.3,-117.73"/>
<polygon fill="#63b8ff" stroke="#63b8ff" points="608.42,-162.15 618.87,-160.4 609.61,-155.25 608.42,-162.15"/>
</a>
</g>
</g>
<!-- Node7&#45;&gt;Node8 -->
<g id="edge9_Node000007_Node000008" class="edge">
<title>Node7&#45;&gt;Node8</title>
<g id="a_edge9_Node000007_Node000008"><a xlink:title=" ">
<path fill="none" stroke="#63b8ff" d="M783.44,-155.14C997.23,-123.44 1057.27,-153.89 1268.25,-119.5 1271.01,-119.05 1273.81,-118.55 1276.64,-118.01"/>
<polygon fill="#63b8ff" stroke="#63b8ff" points="783.01,-151.66 773.65,-156.62 784.06,-158.58 783.01,-151.66"/>
</a>
</g>
</g>
<!-- Node7&#45;&gt;Node10 -->
<g id="edge11_Node000007_Node000010" class="edge">
<title>Node7&#45;&gt;Node10</title>
<g id="a_edge11_Node000007_Node000010"><a xlink:title=" ">
<path fill="none" stroke="#63b8ff" d="M783.15,-155.21C1065.95,-115.66 1145.12,-166.34 1424.25,-119.5 1427.24,-119 1430.28,-118.42 1433.35,-117.77"/>
<polygon fill="#63b8ff" stroke="#63b8ff" points="783.04,-151.69 773.64,-156.57 784.03,-158.62 783.04,-151.69"/>
</a>
</g>
</g>
<!-- Node12 -->
<g id="Node000012" class="node">
<title>Node12</title>
<g id="a_Node000012"><a xlink:href="_brute_force_backend_8cc.html" target="_top" xlink:title=" ">
<polygon fill="white" stroke="#666666" points="1075.75,-119.5 924.75,-119.5 924.75,-77.75 1075.75,-77.75 1075.75,-119.5"/>
<text xml:space="preserve" text-anchor="start" x="932.75" y="-106" font-family="Helvetica,sans-Serif" font-size="10.00">frontend/node_modules</text>
<text xml:space="preserve" text-anchor="start" x="932.75" y="-94.75" font-family="Helvetica,sans-Serif" font-size="10.00">/@parcel/watcher/src</text>
<text xml:space="preserve" text-anchor="middle" x="1000.25" y="-83.5" font-family="Helvetica,sans-Serif" font-size="10.00">/shared/BruteForceBackend.cc</text>
</a>
</g>
</g>
<!-- Node7&#45;&gt;Node12 -->
<g id="edge13_Node000007_Node000012" class="edge">
<title>Node7&#45;&gt;Node12</title>
<g id="a_edge13_Node000007_Node000012"><a xlink:title=" ">
<path fill="none" stroke="#63b8ff" d="M783.3,-153.68C827.88,-142.57 881.65,-129.18 924.5,-118.5"/>
<polygon fill="#63b8ff" stroke="#63b8ff" points="782.5,-150.28 773.65,-156.09 784.2,-157.07 782.5,-150.28"/>
</a>
</g>
</g>
<!-- Node13 -->
<g id="Node000013" class="node">
<title>Node13</title>
<g id="a_Node000013"><a xlink:href="fts_8cc.html" target="_top" xlink:title=" ">
<polygon fill="white" stroke="#666666" points="416.88,-119.5 299.62,-119.5 299.62,-77.75 416.88,-77.75 416.88,-119.5"/>
<text xml:space="preserve" text-anchor="start" x="307.62" y="-106" font-family="Helvetica,sans-Serif" font-size="10.00">frontend/node_modules</text>
<text xml:space="preserve" text-anchor="start" x="307.62" y="-94.75" font-family="Helvetica,sans-Serif" font-size="10.00">/@parcel/watcher/src</text>
<text xml:space="preserve" text-anchor="middle" x="358.25" y="-83.5" font-family="Helvetica,sans-Serif" font-size="10.00">/unix/fts.cc</text>
</a>
</g>
</g>
<!-- Node7&#45;&gt;Node13 -->
<g id="edge14_Node000007_Node000013" class="edge">
<title>Node7&#45;&gt;Node13</title>
<g id="a_edge14_Node000007_Node000013"><a xlink:title=" ">
<path fill="none" stroke="#63b8ff" d="M609.38,-159.41C556,-149.13 486.37,-134.84 425.25,-119.5 422.66,-118.85 420.02,-118.17 417.36,-117.46"/>
<polygon fill="#63b8ff" stroke="#63b8ff" points="608.55,-162.82 619.03,-161.26 609.86,-155.94 608.55,-162.82"/>
</a>
</g>
</g>
<!-- Node14 -->
<g id="Node000014" class="node">
<title>Node14</title>
<g id="a_Node000014"><a xlink:href="legacy_8cc.html" target="_top" xlink:title=" ">
<polygon fill="white" stroke="#666666" points="551.88,-119.5 434.62,-119.5 434.62,-77.75 551.88,-77.75 551.88,-119.5"/>
<text xml:space="preserve" text-anchor="start" x="442.62" y="-106" font-family="Helvetica,sans-Serif" font-size="10.00">frontend/node_modules</text>
<text xml:space="preserve" text-anchor="start" x="442.62" y="-94.75" font-family="Helvetica,sans-Serif" font-size="10.00">/@parcel/watcher/src</text>
<text xml:space="preserve" text-anchor="middle" x="493.25" y="-83.5" font-family="Helvetica,sans-Serif" font-size="10.00">/unix/legacy.cc</text>
</a>
</g>
</g>
<!-- Node7&#45;&gt;Node14 -->
<g id="edge15_Node000007_Node000014" class="edge">
<title>Node7&#45;&gt;Node14</title>
<g id="a_edge15_Node000007_Node000014"><a xlink:title=" ">
<path fill="none" stroke="#63b8ff" d="M631.36,-151.16C604.43,-141.11 573.53,-129.58 547.8,-119.98"/>
<polygon fill="#63b8ff" stroke="#63b8ff" points="629.84,-154.33 640.43,-154.55 632.29,-147.77 629.84,-154.33"/>
</a>
</g>
</g>
<!-- Node15 -->
<g id="Node000015" class="node">
<title>Node15</title>
<g id="a_Node000015"><a xlink:href="_wasm_backend_8hh.html" target="_top" xlink:title=" ">
<polygon fill="white" stroke="#666666" points="698.12,-119.5 570.38,-119.5 570.38,-77.75 698.12,-77.75 698.12,-119.5"/>
<text xml:space="preserve" text-anchor="start" x="578.38" y="-106" font-family="Helvetica,sans-Serif" font-size="10.00">frontend/node_modules</text>
<text xml:space="preserve" text-anchor="start" x="578.38" y="-94.75" font-family="Helvetica,sans-Serif" font-size="10.00">/@parcel/watcher/src</text>
<text xml:space="preserve" text-anchor="middle" x="634.25" y="-83.5" font-family="Helvetica,sans-Serif" font-size="10.00">/wasm/WasmBackend.hh</text>
</a>
</g>
</g>
<!-- Node7&#45;&gt;Node15 -->
<g id="edge16_Node000007_Node000015" class="edge">
<title>Node7&#45;&gt;Node15</title>
<g id="a_edge16_Node000007_Node000015"><a xlink:title=" ">
<path fill="none" stroke="#63b8ff" d="M672.42,-146.26C665.24,-137.49 657.52,-128.05 650.91,-119.98"/>
<polygon fill="#63b8ff" stroke="#63b8ff" points="669.63,-148.38 678.68,-153.9 675.05,-143.95 669.63,-148.38"/>
</a>
</g>
</g>
<!-- Node17 -->
<g id="Node000017" class="node">
<title>Node17</title>
<g id="a_Node000017"><a xlink:href="_windows_backend_8cc.html" target="_top" xlink:title=" ">
<polygon fill="white" stroke="#666666" points="920.5,-41.75 768,-41.75 768,0 920.5,0 920.5,-41.75"/>
<text xml:space="preserve" text-anchor="start" x="776" y="-28.25" font-family="Helvetica,sans-Serif" font-size="10.00">frontend/node_modules</text>
<text xml:space="preserve" text-anchor="start" x="776" y="-17" font-family="Helvetica,sans-Serif" font-size="10.00">/@parcel/watcher/src</text>
<text xml:space="preserve" text-anchor="middle" x="844.25" y="-5.75" font-family="Helvetica,sans-Serif" font-size="10.00">/windows/WindowsBackend.cc</text>
</a>
</g>
</g>
<!-- Node7&#45;&gt;Node17 -->
<g id="edge18_Node000007_Node000017" class="edge">
<title>Node7&#45;&gt;Node17</title>
<g id="a_edge18_Node000007_Node000017"><a xlink:title=" ">
<path fill="none" stroke="#63b8ff" d="M783.1,-153.51C826.46,-141.72 871.05,-127.9 877.25,-119.5 894.56,-96.03 876.45,-62.87 861.01,-41.88"/>
<polygon fill="#63b8ff" stroke="#63b8ff" points="782.34,-150.09 773.59,-156.06 784.15,-156.85 782.34,-150.09"/>
</a>
</g>
</g>
<!-- Node18 -->
<g id="Node000018" class="node">
<title>Node18</title>
<g id="a_Node000018"><a xlink:href="_windows_backend_8hh.html" target="_top" xlink:title=" ">
<polygon fill="white" stroke="#666666" points="868.5,-119.5 716,-119.5 716,-77.75 868.5,-77.75 868.5,-119.5"/>
<text xml:space="preserve" text-anchor="start" x="724" y="-106" font-family="Helvetica,sans-Serif" font-size="10.00">frontend/node_modules</text>
<text xml:space="preserve" text-anchor="start" x="724" y="-94.75" font-family="Helvetica,sans-Serif" font-size="10.00">/@parcel/watcher/src</text>
<text xml:space="preserve" text-anchor="middle" x="792.25" y="-83.5" font-family="Helvetica,sans-Serif" font-size="10.00">/windows/WindowsBackend.hh</text>
</a>
</g>
</g>
<!-- Node7&#45;&gt;Node18 -->
<g id="edge19_Node000007_Node000018" class="edge">
<title>Node7&#45;&gt;Node18</title>
<g id="a_edge19_Node000007_Node000018"><a xlink:title=" ">
<path fill="none" stroke="#63b8ff" d="M730.71,-148.19C742.49,-138.89 755.47,-128.65 766.45,-119.98"/>
<polygon fill="#63b8ff" stroke="#63b8ff" points="728.85,-145.2 723.16,-154.14 733.18,-150.69 728.85,-145.2"/>
</a>
</g>
</g>
<!-- Node9 -->
<g id="Node000009" class="node">
<title>Node9</title>
<g id="a_Node000009"><a xlink:href="_kqueue_backend_8cc.html" target="_top" xlink:title=" ">
<polygon fill="white" stroke="#666666" points="1415.38,-41.75 1277.12,-41.75 1277.12,0 1415.38,0 1415.38,-41.75"/>
<text xml:space="preserve" text-anchor="start" x="1285.12" y="-28.25" font-family="Helvetica,sans-Serif" font-size="10.00">frontend/node_modules</text>
<text xml:space="preserve" text-anchor="start" x="1285.12" y="-17" font-family="Helvetica,sans-Serif" font-size="10.00">/@parcel/watcher/src</text>
<text xml:space="preserve" text-anchor="middle" x="1346.25" y="-5.75" font-family="Helvetica,sans-Serif" font-size="10.00">/kqueue/KqueueBackend.cc</text>
</a>
</g>
</g>
<!-- Node8&#45;&gt;Node9 -->
<g id="edge10_Node000008_Node000009" class="edge">
<title>Node8&#45;&gt;Node9</title>
<g id="a_edge10_Node000008_Node000009"><a xlink:title=" ">
<path fill="none" stroke="#63b8ff" d="M1346.25,-66C1346.25,-57.96 1346.25,-49.54 1346.25,-42.23"/>
<polygon fill="#63b8ff" stroke="#63b8ff" points="1342.75,-65.81 1346.25,-75.81 1349.75,-65.81 1342.75,-65.81"/>
</a>
</g>
</g>
<!-- Node11 -->
<g id="Node000011" class="node">
<title>Node11</title>
<g id="a_Node000011"><a xlink:href="_inotify_backend_8cc.html" target="_top" xlink:title=" ">
<polygon fill="white" stroke="#666666" points="1554.75,-41.75 1433.75,-41.75 1433.75,0 1554.75,0 1554.75,-41.75"/>
<text xml:space="preserve" text-anchor="start" x="1441.75" y="-28.25" font-family="Helvetica,sans-Serif" font-size="10.00">frontend/node_modules</text>
<text xml:space="preserve" text-anchor="start" x="1441.75" y="-17" font-family="Helvetica,sans-Serif" font-size="10.00">/@parcel/watcher/src</text>
<text xml:space="preserve" text-anchor="middle" x="1494.25" y="-5.75" font-family="Helvetica,sans-Serif" font-size="10.00">/linux/InotifyBackend.cc</text>
</a>
</g>
</g>
<!-- Node10&#45;&gt;Node11 -->
<g id="edge12_Node000010_Node000011" class="edge">
<title>Node10&#45;&gt;Node11</title>
<g id="a_edge12_Node000010_Node000011"><a xlink:title=" ">
<path fill="none" stroke="#63b8ff" d="M1494.25,-66C1494.25,-57.96 1494.25,-49.54 1494.25,-42.23"/>
<polygon fill="#63b8ff" stroke="#63b8ff" points="1490.75,-65.81 1494.25,-75.81 1497.75,-65.81 1490.75,-65.81"/>
</a>
</g>
</g>
<!-- Node16 -->
<g id="Node000016" class="node">
<title>Node16</title>
<g id="a_Node000016"><a xlink:href="_wasm_backend_8cc.html" target="_top" xlink:title=" ">
<polygon fill="white" stroke="#666666" points="698.12,-41.75 570.38,-41.75 570.38,0 698.12,0 698.12,-41.75"/>
<text xml:space="preserve" text-anchor="start" x="578.38" y="-28.25" font-family="Helvetica,sans-Serif" font-size="10.00">frontend/node_modules</text>
<text xml:space="preserve" text-anchor="start" x="578.38" y="-17" font-family="Helvetica,sans-Serif" font-size="10.00">/@parcel/watcher/src</text>
<text xml:space="preserve" text-anchor="middle" x="634.25" y="-5.75" font-family="Helvetica,sans-Serif" font-size="10.00">/wasm/WasmBackend.cc</text>
</a>
</g>
</g>
<!-- Node15&#45;&gt;Node16 -->
<g id="edge17_Node000015_Node000016" class="edge">
<title>Node15&#45;&gt;Node16</title>
<g id="a_edge17_Node000015_Node000016"><a xlink:title=" ">
<path fill="none" stroke="#63b8ff" d="M634.25,-66C634.25,-57.96 634.25,-49.54 634.25,-42.23"/>
<polygon fill="#63b8ff" stroke="#63b8ff" points="630.75,-65.81 634.25,-75.81 637.75,-65.81 630.75,-65.81"/>
</a>
</g>
</g>
<!-- Node18&#45;&gt;Node17 -->
<g id="edge20_Node000018_Node000017" class="edge">
<title>Node18&#45;&gt;Node17</title>
<g id="a_edge20_Node000018_Node000017"><a xlink:title=" ">
<path fill="none" stroke="#63b8ff" d="M812.62,-67.95C818.53,-59.34 824.85,-50.13 830.28,-42.23"/>
<polygon fill="#63b8ff" stroke="#63b8ff" points="809.82,-65.85 807.04,-76.08 815.59,-69.81 809.82,-65.85"/>
</a>
</g>
</g>
<!-- Node20 -->
<g id="Node000020" class="node">
<title>Node20</title>
<g id="a_Node000020"><a xlink:href="_watchman_backend_8cc.html" target="_top" xlink:title=" ">
<polygon fill="white" stroke="#666666" points="1258.88,-119.5 1093.62,-119.5 1093.62,-77.75 1258.88,-77.75 1258.88,-119.5"/>
<text xml:space="preserve" text-anchor="start" x="1101.62" y="-106" font-family="Helvetica,sans-Serif" font-size="10.00">frontend/node_modules</text>
<text xml:space="preserve" text-anchor="start" x="1101.62" y="-94.75" font-family="Helvetica,sans-Serif" font-size="10.00">/@parcel/watcher/src</text>
<text xml:space="preserve" text-anchor="middle" x="1176.25" y="-83.5" font-family="Helvetica,sans-Serif" font-size="10.00">/watchman/WatchmanBackend.cc</text>
</a>
</g>
</g>
<!-- Node19&#45;&gt;Node20 -->
<g id="edge22_Node000019_Node000020" class="edge">
<title>Node19&#45;&gt;Node20</title>
<g id="a_edge22_Node000019_Node000020"><a xlink:title=" ">
<path fill="none" stroke="#63b8ff" d="M1071.66,-150.09C1091.95,-140.3 1114.86,-129.24 1134.06,-119.98"/>
<polygon fill="#63b8ff" stroke="#63b8ff" points="1070.17,-146.92 1062.69,-154.42 1073.21,-153.22 1070.17,-146.92"/>
</a>
</g>
</g>
<!-- Node22 -->
<g id="Node000022" class="node">
<title>Node22</title>
<g id="a_Node000022"><a xlink:href="_debounce_8cc.html" target="_top" xlink:title=" ">
<polygon fill="white" stroke="#666666" points="990.88,-352.75 873.62,-352.75 873.62,-311 990.88,-311 990.88,-352.75"/>
<text xml:space="preserve" text-anchor="start" x="881.62" y="-339.25" font-family="Helvetica,sans-Serif" font-size="10.00">frontend/node_modules</text>
<text xml:space="preserve" text-anchor="start" x="881.62" y="-328" font-family="Helvetica,sans-Serif" font-size="10.00">/@parcel/watcher/src</text>
<text xml:space="preserve" text-anchor="middle" x="932.25" y="-316.75" font-family="Helvetica,sans-Serif" font-size="10.00">/Debounce.cc</text>
</a>
</g>
</g>
<!-- Node21&#45;&gt;Node22 -->
<g id="edge24_Node000021_Node000022" class="edge">
<title>Node21&#45;&gt;Node22</title>
<g id="a_edge24_Node000021_Node000022"><a xlink:title=" ">
<path fill="none" stroke="#63b8ff" d="M932.25,-377C932.25,-368.96 932.25,-360.54 932.25,-353.23"/>
<polygon fill="#63b8ff" stroke="#63b8ff" points="928.75,-376.81 932.25,-386.81 935.75,-376.81 928.75,-376.81"/>
</a>
</g>
</g>
<!-- Node21&#45;&gt;Node23 -->
<g id="edge25_Node000021_Node000023" class="edge">
<title>Node21&#45;&gt;Node23</title>
<g id="a_edge25_Node000021_Node000023"><a xlink:title=" ">
<path fill="none" stroke="#63b8ff" d="M886.22,-382.8C869.02,-373.14 849.73,-362.32 833.53,-353.23"/>
<polygon fill="#63b8ff" stroke="#63b8ff" points="884.32,-385.74 894.75,-387.58 887.74,-379.64 884.32,-385.74"/>
</a>
</g>
</g>
<!-- Node23&#45;&gt;Node2 -->
<g id="edge26_Node000023_Node000002" class="edge">
<title>Node23&#45;&gt;Node2</title>
<g id="a_edge26_Node000023_Node000002"><a xlink:title=" ">
<path fill="none" stroke="#63b8ff" d="M730.44,-306.66C702.72,-296.61 670.91,-285.08 644.41,-275.48"/>
<polygon fill="#63b8ff" stroke="#63b8ff" points="729.22,-309.94 739.82,-310.06 731.61,-303.36 729.22,-309.94"/>
</a>
</g>
</g>
<!-- Node23&#45;&gt;Node4 -->
<g id="edge28_Node000023_Node000004" class="edge">
<title>Node23&#45;&gt;Node4</title>
<g id="a_edge28_Node000023_Node000004"><a xlink:title=" ">
<path fill="none" stroke="#63b8ff" d="M813.36,-300.47C817.28,-292.34 821.2,-283.46 824.25,-275 833.65,-248.89 840.63,-217.55 844.57,-197.56"/>
<polygon fill="#63b8ff" stroke="#63b8ff" points="810.31,-298.75 808.98,-309.27 816.57,-301.88 810.31,-298.75"/>
</a>
</g>
</g>
<!-- Node23&#45;&gt;Node5 -->
<g id="edge29_Node000023_Node000005" class="edge">
<title>Node23&#45;&gt;Node5</title>
<g id="a_edge29_Node000023_Node000005"><a xlink:title=" ">
<path fill="none" stroke="#63b8ff" d="M726.93,-318.84C670.66,-308.7 589.91,-292.98 520.25,-275 409.22,-246.34 380.77,-239.69 274.25,-197.25 215.69,-173.92 150.48,-140.87 110.67,-119.84"/>
<polygon fill="#63b8ff" stroke="#63b8ff" points="726.25,-322.27 736.71,-320.59 727.49,-315.38 726.25,-322.27"/>
</a>
</g>
</g>
<!-- Node23&#45;&gt;Node7 -->
<g id="edge30_Node000023_Node000007" class="edge">
<title>Node23&#45;&gt;Node7</title>
<g id="a_edge30_Node000023_Node000007"><a xlink:title=" ">
<path fill="none" stroke="#63b8ff" d="M802.51,-299.35C804.26,-279.03 803.27,-252.85 791.25,-233.25 781.74,-217.76 766.21,-206.07 750.43,-197.49"/>
<polygon fill="#63b8ff" stroke="#63b8ff" points="799.06,-298.7 801.41,-309.03 806.02,-299.5 799.06,-298.7"/>
</a>
</g>
</g>
<!-- Node24 -->
<g id="Node000024" class="node">
<title>Node24</title>
<g id="a_Node000024"><a xlink:href="_watcher_8cc.html" target="_top" xlink:title=" ">
<polygon fill="white" stroke="#666666" points="781.88,-275 664.62,-275 664.62,-233.25 781.88,-233.25 781.88,-275"/>
<text xml:space="preserve" text-anchor="start" x="672.62" y="-261.5" font-family="Helvetica,sans-Serif" font-size="10.00">frontend/node_modules</text>
<text xml:space="preserve" text-anchor="start" x="672.62" y="-250.25" font-family="Helvetica,sans-Serif" font-size="10.00">/@parcel/watcher/src</text>
<text xml:space="preserve" text-anchor="middle" x="723.25" y="-239" font-family="Helvetica,sans-Serif" font-size="10.00">/Watcher.cc</text>
</a>
</g>
</g>
<!-- Node23&#45;&gt;Node24 -->
<g id="edge27_Node000023_Node000024" class="edge">
<title>Node23&#45;&gt;Node24</title>
<g id="a_edge27_Node000023_Node000024"><a xlink:title=" ">
<path fill="none" stroke="#63b8ff" d="M769.62,-302.59C760.82,-293.59 751.27,-283.81 743.14,-275.48"/>
<polygon fill="#63b8ff" stroke="#63b8ff" points="766.87,-304.79 776.36,-309.49 771.88,-299.89 766.87,-304.79"/>
</a>
</g>
</g>
</g>
</svg>

<g id="navigator" transform="translate(0 0)" fill="#404254">
  <rect fill="#f2f5e9" fill-opacity="0.5" stroke="#606060" stroke-width=".5" x="0" y="0" width="60" height="60"/>
  <use id="zoomplus" xlink:href="#zoomPlus" x="17" y="9" onmousedown="handleZoom(evt,'in')"/>
  <use id="zoomminus" xlink:href="#zoomMin" x="42" y="9" onmousedown="handleZoom(evt,'out')"/>
  <use id="reset" xlink:href="#resetDef" x="30" y="36" onmousedown="handleReset()"/>
   <use id="arrowup" xlink:href="#arrowUp" x="0" y="0" onmousedown="handlePan(0,-1)"/>
  <use id="arrowright" xlink:href="#arrowRight" x="0" y="0" onmousedown="handlePan(1,0)"/>
  <use id="arrowdown" xlink:href="#arrowDown" x="0" y="0" onmousedown="handlePan(0,1)"/>
  <use id="arrowleft" xlink:href="#arrowLeft" x="0" y="0" onmousedown="handlePan(-1,0)"/>
</g>
<svg viewBox="0 0 15 15" width="100%" height="30px" preserveAspectRatio="xMaxYMin meet">
 <g id="arrow_out" transform="scale(0.3 0.3)">
  <a xlink:href="_signal_8hh__dep__incl_org.svg" target="_base">
   <rect id="button" ry="5" rx="5" y="6" x="6" height="38" width="38"
        fill="#f2f5e9" fill-opacity="0.5" stroke="#606060" stroke-width="1.0"/>
   <path id="arrow"
     d="M 11.500037,31.436501 C 11.940474,20.09759 22.043105,11.32322 32.158766,21.979434 L 37.068811,17.246167 C 37.068811,17.246167 37.088388,32 37.088388,32 L 22.160133,31.978069 C 22.160133,31.978069 26.997745,27.140456 26.997745,27.140456 C 18.528582,18.264221 13.291696,25.230495 11.500037,31.436501 z"
     style="fill:#404040;"/>
  </a>
 </g>
</svg>

<style type='text/css'>
<![CDATA[
[data-mouse-over-selected='false'] { opacity: 0.7; }
[data-mouse-over-selected='true']  { opacity: 1.0; }
]]>
</style>
<script type="application/ecmascript"><![CDATA[
document.addEventListener('DOMContentLoaded', (event) => {
  highlightEdges();
  highlightAdjacentNodes();
});
]]></script>
</svg>
