<?xml version="1.0" encoding="UTF-8" standalone="no"?>
<!DOCTYPE svg PUBLIC "-//W3C//DTD SVG 1.1//EN"
 "http://www.w3.org/Graphics/SVG/1.1/DTD/svg11.dtd">
<!-- Generated by graphviz version 14.0.4 (20251115.1723)
 -->
<!-- Title: src/main/java/com/goldenleaf/shop/model/User.java Pages: 1 -->
<svg width="2615pt" height="105pt"
 viewBox="0.00 0.00 2615.00 105.00" xmlns="http://www.w3.org/2000/svg" xmlns:xlink="http://www.w3.org/1999/xlink">
<g id="graph0" class="graph" transform="scale(1 1) rotate(0) translate(4 101)">
<title>src/main/java/com/goldenleaf/shop/model/User.java</title>
<!-- Node1 -->
<g id="Node000001" class="node">
<title>Node1</title>
<g id="a_Node000001"><a xlink:title=" ">
<polygon fill="#999999" stroke="#666666" points="1373.25,-97 1229.75,-97 1229.75,-66.5 1373.25,-66.5 1373.25,-97"/>
<text xml:space="preserve" text-anchor="start" x="1237.75" y="-83.5" font-family="Helvetica,sans-Serif" font-size="10.00">src/main/java/com/goldenleaf</text>
<text xml:space="preserve" text-anchor="middle" x="1301.5" y="-72.25" font-family="Helvetica,sans-Serif" font-size="10.00">/shop/model/User.java</text>
</a>
</g>
</g>
<!-- Node2 -->
<g id="Node000002" class="node">
<title>Node2</title>
<g id="a_Node000002"><a xlink:title=" ">
<polygon fill="#e0e0e0" stroke="#999999" points="103,-24.88 0,-24.88 0,-5.63 103,-5.63 103,-24.88"/>
<text xml:space="preserve" text-anchor="middle" x="51.5" y="-11.38" font-family="Helvetica,sans-Serif" font-size="10.00">java.time.LocalDate</text>
</a>
</g>
</g>
<!-- Node1&#45;&gt;Node2 -->
<g id="edge1_Node000001_Node000002" class="edge">
<title>Node1&#45;&gt;Node2</title>
<g id="a_edge1_Node000001_Node000002"><a xlink:title=" ">
<path fill="none" stroke="#63b8ff" d="M1229.41,-79.47C1006.47,-75.25 330.13,-60.25 112.5,-30.5 107.19,-29.77 101.66,-28.8 96.2,-27.7"/>
<polygon fill="#63b8ff" stroke="#63b8ff" points="97.16,-24.33 86.65,-25.62 95.68,-31.17 97.16,-24.33"/>
</a>
</g>
</g>
<!-- Node3 -->
<g id="Node000003" class="node">
<title>Node3</title>
<g id="a_Node000003"><a xlink:title=" ">
<polygon fill="#e0e0e0" stroke="#999999" points="275.5,-30.5 121.5,-30.5 121.5,0 275.5,0 275.5,-30.5"/>
<text xml:space="preserve" text-anchor="start" x="129.5" y="-17" font-family="Helvetica,sans-Serif" font-size="10.00">com.goldenleaf.shop.exception.</text>
<text xml:space="preserve" text-anchor="middle" x="198.5" y="-5.75" font-family="Helvetica,sans-Serif" font-size="10.00">EmptyLastActivityException</text>
</a>
</g>
</g>
<!-- Node1&#45;&gt;Node3 -->
<g id="edge2_Node000001_Node000003" class="edge">
<title>Node1&#45;&gt;Node3</title>
<g id="a_edge2_Node000001_Node000003"><a xlink:title=" ">
<path fill="none" stroke="#63b8ff" d="M1229.45,-80.03C1064.48,-77.76 646.48,-68.54 287.21,-30.7"/>
<polygon fill="#63b8ff" stroke="#63b8ff" points="287.62,-27.23 277.3,-29.65 286.88,-34.19 287.62,-27.23"/>
</a>
</g>
</g>
<!-- Node4 -->
<g id="Node000004" class="node">
<title>Node4</title>
<g id="a_Node000004"><a xlink:title=" ">
<polygon fill="#e0e0e0" stroke="#999999" points="447.5,-30.5 293.5,-30.5 293.5,0 447.5,0 447.5,-30.5"/>
<text xml:space="preserve" text-anchor="start" x="301.5" y="-17" font-family="Helvetica,sans-Serif" font-size="10.00">com.goldenleaf.shop.exception.</text>
<text xml:space="preserve" text-anchor="middle" x="370.5" y="-5.75" font-family="Helvetica,sans-Serif" font-size="10.00">EmptyLoginException</text>
</a>
</g>
</g>
<!-- Node1&#45;&gt;Node4 -->
<g id="edge3_Node000001_Node000004" class="edge">
<title>Node1&#45;&gt;Node4</title>
<g id="a_edge3_Node000001_Node000004"><a xlink:title=" ">
<path fill="none" stroke="#63b8ff" d="M1229.5,-79.01C1085.23,-74.98 750.29,-62.83 459.02,-30.7"/>
<polygon fill="#63b8ff" stroke="#63b8ff" points="459.63,-27.25 449.31,-29.62 458.86,-34.2 459.63,-27.25"/>
</a>
</g>
</g>
<!-- Node5 -->
<g id="Node000005" class="node">
<title>Node5</title>
<g id="a_Node000005"><a xlink:title=" ">
<polygon fill="#e0e0e0" stroke="#999999" points="601.12,-24.88 465.88,-24.88 465.88,-5.63 601.12,-5.63 601.12,-24.88"/>
<text xml:space="preserve" text-anchor="middle" x="533.5" y="-11.38" font-family="Helvetica,sans-Serif" font-size="10.00">jakarta.persistence.Column</text>
</a>
</g>
</g>
<!-- Node1&#45;&gt;Node5 -->
<g id="edge4_Node000001_Node000005" class="edge">
<title>Node1&#45;&gt;Node5</title>
<g id="a_edge4_Node000001_Node000005"><a xlink:title=" ">
<path fill="none" stroke="#63b8ff" d="M1229.25,-78.19C1103.08,-73.12 834.52,-59.67 609.5,-30.5 602.68,-29.62 595.55,-28.52 588.5,-27.32"/>
<polygon fill="#63b8ff" stroke="#63b8ff" points="589.12,-23.88 578.66,-25.58 587.9,-30.77 589.12,-23.88"/>
</a>
</g>
</g>
<!-- Node6 -->
<g id="Node000006" class="node">
<title>Node6</title>
<g id="a_Node000006"><a xlink:title=" ">
<polygon fill="#e0e0e0" stroke="#999999" points="778.12,-30.5 618.88,-30.5 618.88,0 778.12,0 778.12,-30.5"/>
<text xml:space="preserve" text-anchor="start" x="626.88" y="-17" font-family="Helvetica,sans-Serif" font-size="10.00">jakarta.persistence.Discriminator</text>
<text xml:space="preserve" text-anchor="middle" x="698.5" y="-5.75" font-family="Helvetica,sans-Serif" font-size="10.00">Column</text>
</a>
</g>
</g>
<!-- Node1&#45;&gt;Node6 -->
<g id="edge5_Node000001_Node000006" class="edge">
<title>Node1&#45;&gt;Node6</title>
<g id="a_edge5_Node000001_Node000006"><a xlink:title=" ">
<path fill="none" stroke="#63b8ff" d="M1229.41,-75.11C1132.07,-67.17 952.95,-51.47 789.74,-30.74"/>
<polygon fill="#63b8ff" stroke="#63b8ff" points="790.38,-27.29 780.02,-29.49 789.5,-34.23 790.38,-27.29"/>
</a>
</g>
</g>
<!-- Node7 -->
<g id="Node000007" class="node">
<title>Node7</title>
<g id="a_Node000007"><a xlink:title=" ">
<polygon fill="#e0e0e0" stroke="#999999" points="976.62,-24.88 796.38,-24.88 796.38,-5.63 976.62,-5.63 976.62,-24.88"/>
<text xml:space="preserve" text-anchor="middle" x="886.5" y="-11.38" font-family="Helvetica,sans-Serif" font-size="10.00">jakarta.persistence.DiscriminatorType</text>
</a>
</g>
</g>
<!-- Node1&#45;&gt;Node7 -->
<g id="edge6_Node000001_Node000007" class="edge">
<title>Node1&#45;&gt;Node7</title>
<g id="a_edge6_Node000001_Node000007"><a xlink:title=" ">
<path fill="none" stroke="#63b8ff" d="M1229.69,-69.59C1153.01,-57.67 1032.3,-38.91 956.38,-27.11"/>
<polygon fill="#63b8ff" stroke="#63b8ff" points="956.96,-23.66 946.54,-25.58 955.89,-30.58 956.96,-23.66"/>
</a>
</g>
</g>
<!-- Node8 -->
<g id="Node000008" class="node">
<title>Node8</title>
<g id="a_Node000008"><a xlink:title=" ">
<polygon fill="#e0e0e0" stroke="#999999" points="1122,-24.88 995,-24.88 995,-5.63 1122,-5.63 1122,-24.88"/>
<text xml:space="preserve" text-anchor="middle" x="1058.5" y="-11.38" font-family="Helvetica,sans-Serif" font-size="10.00">jakarta.persistence.Entity</text>
</a>
</g>
</g>
<!-- Node1&#45;&gt;Node8 -->
<g id="edge7_Node000001_Node000008" class="edge">
<title>Node1&#45;&gt;Node8</title>
<g id="a_edge7_Node000001_Node000008"><a xlink:title=" ">
<path fill="none" stroke="#63b8ff" d="M1246.06,-66.03C1203,-54.6 1144.04,-38.96 1103.79,-28.27"/>
<polygon fill="#63b8ff" stroke="#63b8ff" points="1104.74,-24.9 1094.17,-25.72 1102.94,-31.67 1104.74,-24.9"/>
</a>
</g>
</g>
<!-- Node9 -->
<g id="Node000009" class="node">
<title>Node9</title>
<g id="a_Node000009"><a xlink:title=" ">
<polygon fill="#e0e0e0" stroke="#999999" points="1286.75,-30.5 1140.25,-30.5 1140.25,0 1286.75,0 1286.75,-30.5"/>
<text xml:space="preserve" text-anchor="start" x="1148.25" y="-17" font-family="Helvetica,sans-Serif" font-size="10.00">jakarta.persistence.Generated</text>
<text xml:space="preserve" text-anchor="middle" x="1213.5" y="-5.75" font-family="Helvetica,sans-Serif" font-size="10.00">Value</text>
</a>
</g>
</g>
<!-- Node1&#45;&gt;Node9 -->
<g id="edge8_Node000001_Node000009" class="edge">
<title>Node1&#45;&gt;Node9</title>
<g id="a_edge8_Node000001_Node000009"><a xlink:title=" ">
<path fill="none" stroke="#63b8ff" d="M1281.53,-66.11C1269.94,-57.62 1255.15,-46.77 1242.31,-37.37"/>
<polygon fill="#63b8ff" stroke="#63b8ff" points="1244.74,-34.81 1234.61,-31.72 1240.61,-40.46 1244.74,-34.81"/>
</a>
</g>
</g>
<!-- Node10 -->
<g id="Node000010" class="node">
<title>Node10</title>
<g id="a_Node000010"><a xlink:title=" ">
<polygon fill="#e0e0e0" stroke="#999999" points="1474.38,-24.88 1304.62,-24.88 1304.62,-5.63 1474.38,-5.63 1474.38,-24.88"/>
<text xml:space="preserve" text-anchor="middle" x="1389.5" y="-11.38" font-family="Helvetica,sans-Serif" font-size="10.00">jakarta.persistence.GenerationType</text>
</a>
</g>
</g>
<!-- Node1&#45;&gt;Node10 -->
<g id="edge9_Node000001_Node000010" class="edge">
<title>Node1&#45;&gt;Node10</title>
<g id="a_edge9_Node000001_Node000010"><a xlink:title=" ">
<path fill="none" stroke="#63b8ff" d="M1321.47,-66.11C1335.39,-55.91 1353.95,-42.3 1368.17,-31.88"/>
<polygon fill="#63b8ff" stroke="#63b8ff" points="1369.99,-34.89 1375.99,-26.15 1365.85,-29.24 1369.99,-34.89"/>
</a>
</g>
</g>
<!-- Node11 -->
<g id="Node000011" class="node">
<title>Node11</title>
<g id="a_Node000011"><a xlink:title=" ">
<polygon fill="#e0e0e0" stroke="#999999" points="1602.38,-24.88 1492.62,-24.88 1492.62,-5.63 1602.38,-5.63 1602.38,-24.88"/>
<text xml:space="preserve" text-anchor="middle" x="1547.5" y="-11.38" font-family="Helvetica,sans-Serif" font-size="10.00">jakarta.persistence.Id</text>
</a>
</g>
</g>
<!-- Node1&#45;&gt;Node11 -->
<g id="edge10_Node000001_Node000011" class="edge">
<title>Node1&#45;&gt;Node11</title>
<g id="a_edge10_Node000001_Node000011"><a xlink:title=" ">
<path fill="none" stroke="#63b8ff" d="M1357.63,-66.03C1401.31,-54.58 1461.16,-38.89 1501.91,-28.2"/>
<polygon fill="#63b8ff" stroke="#63b8ff" points="1502.62,-31.64 1511.4,-25.71 1500.84,-24.87 1502.62,-31.64"/>
</a>
</g>
</g>
<!-- Node12 -->
<g id="Node000012" class="node">
<title>Node12</title>
<g id="a_Node000012"><a xlink:title=" ">
<polygon fill="#e0e0e0" stroke="#999999" points="1770.25,-24.88 1620.75,-24.88 1620.75,-5.63 1770.25,-5.63 1770.25,-24.88"/>
<text xml:space="preserve" text-anchor="middle" x="1695.5" y="-11.38" font-family="Helvetica,sans-Serif" font-size="10.00">jakarta.persistence.Inheritance</text>
</a>
</g>
</g>
<!-- Node1&#45;&gt;Node12 -->
<g id="edge11_Node000001_Node000012" class="edge">
<title>Node1&#45;&gt;Node12</title>
<g id="a_edge11_Node000001_Node000012"><a xlink:title=" ">
<path fill="none" stroke="#63b8ff" d="M1373.56,-69.22C1436.4,-59.13 1530.01,-44.02 1611.5,-30.5 1617.86,-29.45 1624.48,-28.34 1631.1,-27.22"/>
<polygon fill="#63b8ff" stroke="#63b8ff" points="1631.41,-30.72 1640.69,-25.61 1630.25,-23.82 1631.41,-30.72"/>
</a>
</g>
</g>
<!-- Node13 -->
<g id="Node000013" class="node">
<title>Node13</title>
<g id="a_Node000013"><a xlink:title=" ">
<polygon fill="#e0e0e0" stroke="#999999" points="1958.75,-24.88 1788.25,-24.88 1788.25,-5.63 1958.75,-5.63 1958.75,-24.88"/>
<text xml:space="preserve" text-anchor="middle" x="1873.5" y="-11.38" font-family="Helvetica,sans-Serif" font-size="10.00">jakarta.persistence.InheritanceType</text>
</a>
</g>
</g>
<!-- Node1&#45;&gt;Node13 -->
<g id="edge12_Node000001_Node000013" class="edge">
<title>Node1&#45;&gt;Node13</title>
<g id="a_edge12_Node000001_Node000013"><a xlink:title=" ">
<path fill="none" stroke="#63b8ff" d="M1373.69,-74.2C1467.39,-65.45 1635.9,-48.92 1779.5,-30.5 1787.81,-29.43 1796.52,-28.23 1805.14,-26.99"/>
<polygon fill="#63b8ff" stroke="#63b8ff" points="1805.51,-30.47 1814.9,-25.55 1804.49,-23.54 1805.51,-30.47"/>
</a>
</g>
</g>
<!-- Node14 -->
<g id="Node000014" class="node">
<title>Node14</title>
<g id="a_Node000014"><a xlink:title=" ">
<polygon fill="#e0e0e0" stroke="#999999" points="2122,-30.5 1977,-30.5 1977,0 2122,0 2122,-30.5"/>
<text xml:space="preserve" text-anchor="start" x="1985" y="-17" font-family="Helvetica,sans-Serif" font-size="10.00">jakarta.persistence.Sequence</text>
<text xml:space="preserve" text-anchor="middle" x="2049.5" y="-5.75" font-family="Helvetica,sans-Serif" font-size="10.00">Generator</text>
</a>
</g>
</g>
<!-- Node1&#45;&gt;Node14 -->
<g id="edge13_Node000001_Node000014" class="edge">
<title>Node1&#45;&gt;Node14</title>
<g id="a_edge13_Node000001_Node000014"><a xlink:title=" ">
<path fill="none" stroke="#63b8ff" d="M1373.67,-77.6C1494.11,-71.83 1743.85,-57.73 1965.48,-30.66"/>
<polygon fill="#63b8ff" stroke="#63b8ff" points="1965.68,-34.17 1975.18,-29.47 1964.82,-27.22 1965.68,-34.17"/>
</a>
</g>
</g>
<!-- Node15 -->
<g id="Node000015" class="node">
<title>Node15</title>
<g id="a_Node000015"><a xlink:title=" ">
<polygon fill="#e0e0e0" stroke="#999999" points="2264.88,-24.88 2140.12,-24.88 2140.12,-5.63 2264.88,-5.63 2264.88,-24.88"/>
<text xml:space="preserve" text-anchor="middle" x="2202.5" y="-11.38" font-family="Helvetica,sans-Serif" font-size="10.00">jakarta.persistence.Table</text>
</a>
</g>
</g>
<!-- Node1&#45;&gt;Node15 -->
<g id="edge14_Node000001_Node000015" class="edge">
<title>Node1&#45;&gt;Node15</title>
<g id="a_edge14_Node000001_Node000015"><a xlink:title=" ">
<path fill="none" stroke="#63b8ff" d="M1373.7,-79.72C1518.18,-76.91 1852.88,-66.72 2131.5,-30.5 2137.89,-29.67 2144.57,-28.6 2151.16,-27.42"/>
<polygon fill="#63b8ff" stroke="#63b8ff" points="2151.44,-30.93 2160.62,-25.64 2150.15,-24.05 2151.44,-30.93"/>
</a>
</g>
</g>
<!-- Node16 -->
<g id="Node000016" class="node">
<title>Node16</title>
<g id="a_Node000016"><a xlink:title=" ">
<polygon fill="#e0e0e0" stroke="#999999" points="2426.25,-30.5 2282.75,-30.5 2282.75,0 2426.25,0 2426.25,-30.5"/>
<text xml:space="preserve" text-anchor="start" x="2290.75" y="-17" font-family="Helvetica,sans-Serif" font-size="10.00">jakarta.validation.constraints.</text>
<text xml:space="preserve" text-anchor="middle" x="2354.5" y="-5.75" font-family="Helvetica,sans-Serif" font-size="10.00">NotBlank</text>
</a>
</g>
</g>
<!-- Node1&#45;&gt;Node16 -->
<g id="edge15_Node000001_Node000016" class="edge">
<title>Node1&#45;&gt;Node16</title>
<g id="a_edge15_Node000001_Node000016"><a xlink:title=" ">
<path fill="none" stroke="#63b8ff" d="M1373.69,-80.04C1533.57,-77.81 1929.71,-68.68 2271.22,-30.65"/>
<polygon fill="#63b8ff" stroke="#63b8ff" points="2271.53,-34.14 2281.07,-29.54 2270.74,-27.18 2271.53,-34.14"/>
</a>
</g>
</g>
<!-- Node17 -->
<g id="Node000017" class="node">
<title>Node17</title>
<g id="a_Node000017"><a xlink:title=" ">
<polygon fill="#e0e0e0" stroke="#999999" points="2607,-24.88 2444,-24.88 2444,-5.63 2607,-5.63 2607,-24.88"/>
<text xml:space="preserve" text-anchor="middle" x="2525.5" y="-11.38" font-family="Helvetica,sans-Serif" font-size="10.00">jakarta.validation.constraints.Size</text>
</a>
</g>
</g>
<!-- Node1&#45;&gt;Node17 -->
<g id="edge16_Node000001_Node000017" class="edge">
<title>Node1&#45;&gt;Node17</title>
<g id="a_edge16_Node000001_Node000017"><a xlink:title=" ">
<path fill="none" stroke="#63b8ff" d="M1373.68,-80.37C1553.5,-78.81 2035.76,-70.87 2435.5,-30.5 2444.56,-29.58 2454.1,-28.36 2463.45,-27.01"/>
<polygon fill="#63b8ff" stroke="#63b8ff" points="2463.84,-30.49 2473.2,-25.54 2462.8,-23.57 2463.84,-30.49"/>
</a>
</g>
</g>
</g>
</svg>
