<?xml version="1.0" encoding="UTF-8" standalone="no"?>
<!DOCTYPE svg PUBLIC "-//W3C//DTD SVG 1.1//EN"
 "http://www.w3.org/Graphics/SVG/1.1/DTD/svg11.dtd">
<!-- Generated by graphviz version 14.0.4 (20251115.1723)
 -->
<!-- Title: src/main/java/com/goldenleaf/shop/service/UserService.java Pages: 1 -->
<svg width="836pt" height="105pt"
 viewBox="0.00 0.00 836.00 105.00" xmlns="http://www.w3.org/2000/svg" xmlns:xlink="http://www.w3.org/1999/xlink">
<g id="graph0" class="graph" transform="scale(1 1) rotate(0) translate(4 101)">
<title>src/main/java/com/goldenleaf/shop/service/UserService.java</title>
<!-- Node1 -->
<g id="Node000001" class="node">
<title>Node1</title>
<g id="a_Node000001"><a xlink:title=" ">
<polygon fill="#999999" stroke="#666666" points="477.5,-97 325,-97 325,-66.5 477.5,-66.5 477.5,-97"/>
<text xml:space="preserve" text-anchor="start" x="333" y="-83.5" font-family="Helvetica,sans-Serif" font-size="10.00">src/main/java/com/goldenleaf</text>
<text xml:space="preserve" text-anchor="middle" x="401.25" y="-72.25" font-family="Helvetica,sans-Serif" font-size="10.00">/shop/service/UserService.java</text>
</a>
</g>
</g>
<!-- Node2 -->
<g id="Node000002" class="node">
<title>Node2</title>
<g id="a_Node000002"><a xlink:title=" ">
<polygon fill="#e0e0e0" stroke="#999999" points="68.5,-24.88 0,-24.88 0,-5.63 68.5,-5.63 68.5,-24.88"/>
<text xml:space="preserve" text-anchor="middle" x="34.25" y="-11.38" font-family="Helvetica,sans-Serif" font-size="10.00">java.util.List</text>
</a>
</g>
</g>
<!-- Node1&#45;&gt;Node2 -->
<g id="edge1_Node000001_Node000002" class="edge">
<title>Node1&#45;&gt;Node2</title>
<g id="a_edge1_Node000001_Node000002"><a xlink:title=" ">
<path fill="none" stroke="#63b8ff" d="M324.56,-72.3C258.69,-64.22 161.48,-50.32 78.25,-30.5 75.68,-29.89 73.04,-29.2 70.4,-28.46"/>
<polygon fill="#63b8ff" stroke="#63b8ff" points="71.68,-25.19 61.1,-25.67 69.67,-31.89 71.68,-25.19"/>
</a>
</g>
</g>
<!-- Node3 -->
<g id="Node000003" class="node">
<title>Node3</title>
<g id="a_Node000003"><a xlink:title=" ">
<polygon fill="#e0e0e0" stroke="#999999" points="305.5,-30.5 87,-30.5 87,0 305.5,0 305.5,-30.5"/>
<text xml:space="preserve" text-anchor="start" x="95" y="-17" font-family="Helvetica,sans-Serif" font-size="10.00">org.springframework.security.crypto.password.</text>
<text xml:space="preserve" text-anchor="middle" x="196.25" y="-5.75" font-family="Helvetica,sans-Serif" font-size="10.00">PasswordEncoder</text>
</a>
</g>
</g>
<!-- Node1&#45;&gt;Node3 -->
<g id="edge2_Node000001_Node000003" class="edge">
<title>Node1&#45;&gt;Node3</title>
<g id="a_edge2_Node000001_Node000003"><a xlink:title=" ">
<path fill="none" stroke="#63b8ff" d="M354.48,-66.03C324.56,-56.62 285.55,-44.35 253.74,-34.34"/>
<polygon fill="#63b8ff" stroke="#63b8ff" points="254.86,-31.02 244.27,-31.36 252.76,-37.7 254.86,-31.02"/>
</a>
</g>
</g>
<!-- Node4 -->
<g id="Node000004" class="node">
<title>Node4</title>
<g id="a_Node000004"><a xlink:title=" ">
<polygon fill="#e0e0e0" stroke="#999999" points="479.38,-30.5 323.12,-30.5 323.12,0 479.38,0 479.38,-30.5"/>
<text xml:space="preserve" text-anchor="start" x="331.12" y="-17" font-family="Helvetica,sans-Serif" font-size="10.00">org.springframework.stereotype.</text>
<text xml:space="preserve" text-anchor="middle" x="401.25" y="-5.75" font-family="Helvetica,sans-Serif" font-size="10.00">Service</text>
</a>
</g>
</g>
<!-- Node1&#45;&gt;Node4 -->
<g id="edge3_Node000001_Node000004" class="edge">
<title>Node1&#45;&gt;Node4</title>
<g id="a_edge3_Node000001_Node000004"><a xlink:title=" ">
<path fill="none" stroke="#63b8ff" d="M401.25,-66.11C401.25,-59.02 401.25,-50.29 401.25,-42.13"/>
<polygon fill="#63b8ff" stroke="#63b8ff" points="404.75,-42.34 401.25,-32.34 397.75,-42.34 404.75,-42.34"/>
</a>
</g>
</g>
<!-- Node5 -->
<g id="Node000005" class="node">
<title>Node5</title>
<g id="a_Node000005"><a xlink:title=" ">
<polygon fill="#e0e0e0" stroke="#999999" points="656.88,-24.88 497.62,-24.88 497.62,-5.63 656.88,-5.63 656.88,-24.88"/>
<text xml:space="preserve" text-anchor="middle" x="577.25" y="-11.38" font-family="Helvetica,sans-Serif" font-size="10.00">com.goldenleaf.shop.model.User</text>
</a>
</g>
</g>
<!-- Node1&#45;&gt;Node5 -->
<g id="edge4_Node000001_Node000005" class="edge">
<title>Node1&#45;&gt;Node5</title>
<g id="a_edge4_Node000001_Node000005"><a xlink:title=" ">
<path fill="none" stroke="#63b8ff" d="M441.19,-66.11C471.49,-55.01 512.77,-39.88 541.89,-29.21"/>
<polygon fill="#63b8ff" stroke="#63b8ff" points="542.8,-32.6 550.99,-25.87 540.39,-26.03 542.8,-32.6"/>
</a>
</g>
</g>
<!-- Node6 -->
<g id="Node000006" class="node">
<title>Node6</title>
<g id="a_Node000006"><a xlink:title=" ">
<polygon fill="#e0e0e0" stroke="#999999" points="827.88,-30.5 674.62,-30.5 674.62,0 827.88,0 827.88,-30.5"/>
<text xml:space="preserve" text-anchor="start" x="682.62" y="-17" font-family="Helvetica,sans-Serif" font-size="10.00">com.goldenleaf.shop.repository.</text>
<text xml:space="preserve" text-anchor="middle" x="751.25" y="-5.75" font-family="Helvetica,sans-Serif" font-size="10.00">UserRepository</text>
</a>
</g>
</g>
<!-- Node1&#45;&gt;Node6 -->
<g id="edge5_Node000001_Node000006" class="edge">
<title>Node1&#45;&gt;Node6</title>
<g id="a_edge5_Node000001_Node000006"><a xlink:title=" ">
<path fill="none" stroke="#63b8ff" d="M477.63,-66.67C532.22,-56.61 605.82,-43.05 662.94,-32.52"/>
<polygon fill="#63b8ff" stroke="#63b8ff" points="663.44,-35.99 672.64,-30.74 662.17,-29.11 663.44,-35.99"/>
</a>
</g>
</g>
</g>
</svg>
