<?xml version="1.0" encoding="UTF-8" standalone="no"?>
<!DOCTYPE svg PUBLIC "-//W3C//DTD SVG 1.1//EN"
 "http://www.w3.org/Graphics/SVG/1.1/DTD/svg11.dtd">
<!-- Generated by graphviz version 14.0.4 (20251115.1723)
 -->
<!-- Title: frontend/node_modules/@parcel/watcher/src/wasm/WasmBackend.hh Pages: 1 -->
<svg width="731pt" height="492pt"
 viewBox="0.00 0.00 731.00 492.00" xmlns="http://www.w3.org/2000/svg" xmlns:xlink="http://www.w3.org/1999/xlink">
<g id="graph0" class="graph" transform="scale(1 1) rotate(0) translate(4 487.75)">
<title>frontend/node_modules/@parcel/watcher/src/wasm/WasmBackend.hh</title>
<!-- Node1 -->
<g id="Node000001" class="node">
<title>Node1</title>
<g id="a_Node000001"><a xlink:title=" ">
<polygon fill="#999999" stroke="#666666" points="677.88,-483.75 550.12,-483.75 550.12,-442 677.88,-442 677.88,-483.75"/>
<text xml:space="preserve" text-anchor="start" x="558.12" y="-470.25" font-family="Helvetica,sans-Serif" font-size="10.00">frontend/node_modules</text>
<text xml:space="preserve" text-anchor="start" x="558.12" y="-459" font-family="Helvetica,sans-Serif" font-size="10.00">/@parcel/watcher/src</text>
<text xml:space="preserve" text-anchor="middle" x="614" y="-447.75" font-family="Helvetica,sans-Serif" font-size="10.00">/wasm/WasmBackend.hh</text>
</a>
</g>
</g>
<!-- Node2 -->
<g id="Node000002" class="node">
<title>Node2</title>
<g id="a_Node000002"><a xlink:title=" ">
<polygon fill="#e0e0e0" stroke="#999999" points="704.38,-185 621.62,-185 621.62,-165.75 704.38,-165.75 704.38,-185"/>
<text xml:space="preserve" text-anchor="middle" x="663" y="-171.5" font-family="Helvetica,sans-Serif" font-size="10.00">unordered_map</text>
</a>
</g>
</g>
<!-- Node1&#45;&gt;Node2 -->
<g id="edge1_Node000001_Node000002" class="edge">
<title>Node1&#45;&gt;Node2</title>
<g id="a_edge1_Node000001_Node000002"><a xlink:title=" ">
<path fill="none" stroke="#63b8ff" d="M627.34,-441.63C641.24,-418.54 661,-379.2 661,-342.12 661,-342.12 661,-342.12 661,-284.88 661,-254.15 661.81,-218.54 662.4,-196.74"/>
<polygon fill="#63b8ff" stroke="#63b8ff" points="665.9,-196.98 662.68,-186.89 658.9,-196.79 665.9,-196.98"/>
</a>
</g>
</g>
<!-- Node3 -->
<g id="Node000003" class="node">
<title>Node3</title>
<g id="a_Node000003"><a xlink:href="_brute_force_backend_8hh.html" target="_top" xlink:title=" ">
<polygon fill="white" stroke="#666666" points="565.5,-406 408.5,-406 408.5,-386.75 565.5,-386.75 565.5,-406"/>
<text xml:space="preserve" text-anchor="middle" x="487" y="-392.5" font-family="Helvetica,sans-Serif" font-size="10.00">../shared/BruteForceBackend.hh</text>
</a>
</g>
</g>
<!-- Node1&#45;&gt;Node3 -->
<g id="edge2_Node000001_Node000003" class="edge">
<title>Node1&#45;&gt;Node3</title>
<g id="a_edge2_Node000001_Node000003"><a xlink:title=" ">
<path fill="none" stroke="#63b8ff" d="M574.16,-441.64C554.89,-431.85 532.22,-420.34 514.83,-411.51"/>
<polygon fill="#63b8ff" stroke="#63b8ff" points="516.61,-408.49 506.11,-407.08 513.44,-414.73 516.61,-408.49"/>
</a>
</g>
</g>
<!-- Node32 -->
<g id="Node000032" class="node">
<title>Node32</title>
<g id="a_Node000032"><a xlink:href="_dir_tree_8hh.html" target="_top" xlink:title=" ">
<polygon fill="white" stroke="#666666" points="627.88,-240.25 566.12,-240.25 566.12,-221 627.88,-221 627.88,-240.25"/>
<text xml:space="preserve" text-anchor="middle" x="597" y="-226.75" font-family="Helvetica,sans-Serif" font-size="10.00">DirTree.hh</text>
</a>
</g>
</g>
<!-- Node1&#45;&gt;Node32 -->
<g id="edge51_Node000001_Node000032" class="edge">
<title>Node1&#45;&gt;Node32</title>
<g id="a_edge51_Node000001_Node000032"><a xlink:title=" ">
<path fill="none" stroke="#63b8ff" d="M612.52,-441.84C609.31,-398.32 601.72,-295.53 598.49,-251.84"/>
<polygon fill="#63b8ff" stroke="#63b8ff" points="602,-251.75 597.77,-242.04 595.01,-252.27 602,-251.75"/>
</a>
</g>
</g>
<!-- Node4 -->
<g id="Node000004" class="node">
<title>Node4</title>
<g id="a_Node000004"><a xlink:href="_backend_8hh.html" target="_top" xlink:title=" ">
<polygon fill="white" stroke="#666666" points="409.38,-350.75 332.62,-350.75 332.62,-331.5 409.38,-331.5 409.38,-350.75"/>
<text xml:space="preserve" text-anchor="middle" x="371" y="-337.25" font-family="Helvetica,sans-Serif" font-size="10.00">../Backend.hh</text>
</a>
</g>
</g>
<!-- Node3&#45;&gt;Node4 -->
<g id="edge3_Node000003_Node000004" class="edge">
<title>Node3&#45;&gt;Node4</title>
<g id="a_edge3_Node000003_Node000004"><a xlink:title=" ">
<path fill="none" stroke="#63b8ff" d="M467.32,-386.34C449.16,-378 421.92,-365.5 401.03,-355.91"/>
<polygon fill="#63b8ff" stroke="#63b8ff" points="402.7,-352.83 392.15,-351.83 399.78,-359.19 402.7,-352.83"/>
</a>
</g>
</g>
<!-- Node23 -->
<g id="Node000023" class="node">
<title>Node23</title>
<g id="a_Node000023"><a xlink:href="_watcher_8hh.html" target="_top" xlink:title=" ">
<polygon fill="white" stroke="#666666" points="403.38,-295.5 338.62,-295.5 338.62,-276.25 403.38,-276.25 403.38,-295.5"/>
<text xml:space="preserve" text-anchor="middle" x="371" y="-282" font-family="Helvetica,sans-Serif" font-size="10.00">Watcher.hh</text>
</a>
</g>
</g>
<!-- Node3&#45;&gt;Node23 -->
<g id="edge50_Node000003_Node000023" class="edge">
<title>Node3&#45;&gt;Node23</title>
<g id="a_edge50_Node000003_Node000023"><a xlink:title=" ">
<path fill="none" stroke="#63b8ff" d="M477.51,-386.5C458.13,-368.38 413.77,-326.88 388.85,-303.57"/>
<polygon fill="#63b8ff" stroke="#63b8ff" points="391.42,-301.19 381.73,-296.91 386.64,-306.3 391.42,-301.19"/>
</a>
</g>
</g>
<!-- Node3&#45;&gt;Node32 -->
<g id="edge49_Node000003_Node000032" class="edge">
<title>Node3&#45;&gt;Node32</title>
<g id="a_edge49_Node000003_Node000032"><a xlink:title=" ">
<path fill="none" stroke="#63b8ff" d="M492.91,-386.57C510.22,-360.8 561.04,-285.15 584.67,-249.99"/>
<polygon fill="#63b8ff" stroke="#63b8ff" points="587.54,-251.98 590.21,-241.73 581.73,-248.08 587.54,-251.98"/>
</a>
</g>
</g>
<!-- Node5 -->
<g id="Node000005" class="node">
<title>Node5</title>
<g id="a_Node000005"><a xlink:href="_event_8hh.html" target="_top" xlink:title=" ">
<polygon fill="white" stroke="#666666" points="494.5,-185 439.5,-185 439.5,-165.75 494.5,-165.75 494.5,-185"/>
<text xml:space="preserve" text-anchor="middle" x="467" y="-171.5" font-family="Helvetica,sans-Serif" font-size="10.00">Event.hh</text>
</a>
</g>
</g>
<!-- Node4&#45;&gt;Node5 -->
<g id="edge4_Node000004_Node000005" class="edge">
<title>Node4&#45;&gt;Node5</title>
<g id="a_edge4_Node000004_Node000005"><a xlink:title=" ">
<path fill="none" stroke="#63b8ff" d="M383.68,-331.11C404.58,-315.4 445.69,-280.8 463,-240.25 468.82,-226.61 469.66,-209.82 469.13,-196.88"/>
<polygon fill="#63b8ff" stroke="#63b8ff" points="472.63,-196.7 468.39,-186.99 465.65,-197.23 472.63,-196.7"/>
</a>
</g>
</g>
<!-- Node4&#45;&gt;Node23 -->
<g id="edge25_Node000004_Node000023" class="edge">
<title>Node4&#45;&gt;Node23</title>
<g id="a_edge25_Node000004_Node000023"><a xlink:title=" ">
<path fill="none" stroke="#63b8ff" d="M371,-331.33C371,-324.82 371,-315.67 371,-307.37"/>
<polygon fill="#63b8ff" stroke="#63b8ff" points="374.5,-307.37 371,-297.37 367.5,-307.37 374.5,-307.37"/>
</a>
</g>
</g>
<!-- Node30 -->
<g id="Node000030" class="node">
<title>Node30</title>
<g id="a_Node000030"><a xlink:title=" ">
<polygon fill="#e0e0e0" stroke="#999999" points="118.5,-185 75.5,-185 75.5,-165.75 118.5,-165.75 118.5,-185"/>
<text xml:space="preserve" text-anchor="middle" x="97" y="-171.5" font-family="Helvetica,sans-Serif" font-size="10.00">thread</text>
</a>
</g>
</g>
<!-- Node4&#45;&gt;Node30 -->
<g id="edge48_Node000004_Node000030" class="edge">
<title>Node4&#45;&gt;Node30</title>
<g id="a_edge48_Node000004_Node000030"><a xlink:title=" ">
<path fill="none" stroke="#63b8ff" d="M332.22,-336.4C296.22,-331.5 242.28,-320.37 202,-295.5 159.94,-269.53 125.29,-221.5 108.3,-195.05"/>
<polygon fill="#63b8ff" stroke="#63b8ff" points="111.38,-193.38 103.12,-186.75 105.45,-197.08 111.38,-193.38"/>
</a>
</g>
</g>
<!-- Node31 -->
<g id="Node000031" class="node">
<title>Node31</title>
<g id="a_Node000031"><a xlink:href="_signal_8hh.html" target="_top" xlink:title=" ">
<polygon fill="white" stroke="#666666" points="193.25,-185 136.75,-185 136.75,-165.75 193.25,-165.75 193.25,-185"/>
<text xml:space="preserve" text-anchor="middle" x="165" y="-171.5" font-family="Helvetica,sans-Serif" font-size="10.00">Signal.hh</text>
</a>
</g>
</g>
<!-- Node4&#45;&gt;Node31 -->
<g id="edge47_Node000004_Node000031" class="edge">
<title>Node4&#45;&gt;Node31</title>
<g id="a_edge47_Node000004_Node000031"><a xlink:title=" ">
<path fill="none" stroke="#63b8ff" d="M332.31,-332.61C285.59,-321.32 208.62,-295.16 171,-240.25 162.32,-227.58 161.25,-210.02 162.11,-196.52"/>
<polygon fill="#63b8ff" stroke="#63b8ff" points="165.59,-196.93 163.18,-186.61 158.63,-196.18 165.59,-196.93"/>
</a>
</g>
</g>
<!-- Node6 -->
<g id="Node000006" class="node">
<title>Node6</title>
<g id="a_Node000006"><a xlink:title=" ">
<polygon fill="#e0e0e0" stroke="#999999" points="711,-74.5 671,-74.5 671,-55.25 711,-55.25 711,-74.5"/>
<text xml:space="preserve" text-anchor="middle" x="691" y="-61" font-family="Helvetica,sans-Serif" font-size="10.00">string</text>
</a>
</g>
</g>
<!-- Node5&#45;&gt;Node6 -->
<g id="edge5_Node000005_Node000006" class="edge">
<title>Node5&#45;&gt;Node6</title>
<g id="a_edge5_Node000005_Node000006"><a xlink:title=" ">
<path fill="none" stroke="#63b8ff" d="M485.71,-165.31C524.75,-146.4 615.1,-102.64 661.83,-80"/>
<polygon fill="#63b8ff" stroke="#63b8ff" points="663.35,-83.16 670.82,-75.65 660.3,-76.86 663.35,-83.16"/>
</a>
</g>
</g>
<!-- Node7 -->
<g id="Node000007" class="node">
<title>Node7</title>
<g id="a_Node000007"><a xlink:title=" ">
<polygon fill="#e0e0e0" stroke="#999999" points="583.62,-74.5 520.38,-74.5 520.38,-55.25 583.62,-55.25 583.62,-74.5"/>
<text xml:space="preserve" text-anchor="middle" x="552" y="-61" font-family="Helvetica,sans-Serif" font-size="10.00">node_api.h</text>
</a>
</g>
</g>
<!-- Node5&#45;&gt;Node7 -->
<g id="edge6_Node000005_Node000007" class="edge">
<title>Node5&#45;&gt;Node7</title>
<g id="a_edge6_Node000005_Node000007"><a xlink:title=" ">
<path fill="none" stroke="#63b8ff" d="M473.96,-165.5C487.9,-147.69 519.52,-107.33 537.95,-83.81"/>
<polygon fill="#63b8ff" stroke="#63b8ff" points="540.6,-86.1 544.01,-76.07 535.09,-81.78 540.6,-86.1"/>
</a>
</g>
</g>
<!-- Node8 -->
<g id="Node000008" class="node">
<title>Node8</title>
<g id="a_Node000008"><a xlink:href="include_8h.html" target="_top" xlink:title=" ">
<polygon fill="white" stroke="#666666" points="310.12,-129.75 225.88,-129.75 225.88,-110.5 310.12,-110.5 310.12,-129.75"/>
<text xml:space="preserve" text-anchor="middle" x="268" y="-116.25" font-family="Helvetica,sans-Serif" font-size="10.00">wasm/include.h</text>
</a>
</g>
</g>
<!-- Node5&#45;&gt;Node8 -->
<g id="edge7_Node000005_Node000008" class="edge">
<title>Node5&#45;&gt;Node8</title>
<g id="a_edge7_Node000005_Node000008"><a xlink:title=" ">
<path fill="none" stroke="#63b8ff" d="M439.33,-166.97C406.67,-158.23 351.9,-143.58 313.09,-133.19"/>
<polygon fill="#63b8ff" stroke="#63b8ff" points="314.12,-129.84 303.56,-130.64 312.31,-136.61 314.12,-129.84"/>
</a>
</g>
</g>
<!-- Node9 -->
<g id="Node000009" class="node">
<title>Node9</title>
<g id="a_Node000009"><a xlink:href="napi_8h.html" target="_top" xlink:title=" ">
<polygon fill="white" stroke="#666666" points="491.12,-129.75 448.88,-129.75 448.88,-110.5 491.12,-110.5 491.12,-129.75"/>
<text xml:space="preserve" text-anchor="middle" x="470" y="-116.25" font-family="Helvetica,sans-Serif" font-size="10.00">napi.h</text>
</a>
</g>
</g>
<!-- Node5&#45;&gt;Node9 -->
<g id="edge8_Node000005_Node000009" class="edge">
<title>Node5&#45;&gt;Node9</title>
<g id="a_edge8_Node000005_Node000009"><a xlink:title=" ">
<path fill="none" stroke="#63b8ff" d="M467.5,-165.58C467.87,-158.99 468.39,-149.71 468.86,-141.32"/>
<polygon fill="#63b8ff" stroke="#63b8ff" points="472.34,-141.8 469.41,-131.62 465.35,-141.41 472.34,-141.8"/>
</a>
</g>
</g>
<!-- Node13 -->
<g id="Node000013" class="node">
<title>Node13</title>
<g id="a_Node000013"><a xlink:title=" ">
<polygon fill="#e0e0e0" stroke="#999999" points="201.5,-74.5 158.5,-74.5 158.5,-55.25 201.5,-55.25 201.5,-74.5"/>
<text xml:space="preserve" text-anchor="middle" x="180" y="-61" font-family="Helvetica,sans-Serif" font-size="10.00">mutex</text>
</a>
</g>
</g>
<!-- Node5&#45;&gt;Node13 -->
<g id="edge22_Node000005_Node000013" class="edge">
<title>Node5&#45;&gt;Node13</title>
<g id="a_edge22_Node000005_Node000013"><a xlink:title=" ">
<path fill="none" stroke="#63b8ff" d="M439.41,-169.76C375.34,-159.01 221.57,-132.95 217,-129.75 201.76,-119.07 191.91,-99.96 186.23,-85.42"/>
<polygon fill="#63b8ff" stroke="#63b8ff" points="189.68,-84.67 183.05,-76.41 183.08,-87 189.68,-84.67"/>
</a>
</g>
</g>
<!-- Node21 -->
<g id="Node000021" class="node">
<title>Node21</title>
<g id="a_Node000021"><a xlink:title=" ">
<polygon fill="#e0e0e0" stroke="#999999" points="363.38,-129.75 328.62,-129.75 328.62,-110.5 363.38,-110.5 363.38,-129.75"/>
<text xml:space="preserve" text-anchor="middle" x="346" y="-116.25" font-family="Helvetica,sans-Serif" font-size="10.00">map</text>
</a>
</g>
</g>
<!-- Node5&#45;&gt;Node21 -->
<g id="edge23_Node000005_Node000021" class="edge">
<title>Node5&#45;&gt;Node21</title>
<g id="a_edge23_Node000005_Node000021"><a xlink:title=" ">
<path fill="none" stroke="#63b8ff" d="M446.47,-165.34C426.63,-156.61 396.41,-143.31 374.29,-133.57"/>
<polygon fill="#63b8ff" stroke="#63b8ff" points="375.81,-130.42 365.25,-129.6 372.99,-136.83 375.81,-130.42"/>
</a>
</g>
</g>
<!-- Node22 -->
<g id="Node000022" class="node">
<title>Node22</title>
<g id="a_Node000022"><a xlink:title=" ">
<polygon fill="#e0e0e0" stroke="#999999" points="430.88,-129.75 381.12,-129.75 381.12,-110.5 430.88,-110.5 430.88,-129.75"/>
<text xml:space="preserve" text-anchor="middle" x="406" y="-116.25" font-family="Helvetica,sans-Serif" font-size="10.00">optional</text>
</a>
</g>
</g>
<!-- Node5&#45;&gt;Node22 -->
<g id="edge24_Node000005_Node000022" class="edge">
<title>Node5&#45;&gt;Node22</title>
<g id="a_edge24_Node000005_Node000022"><a xlink:title=" ">
<path fill="none" stroke="#63b8ff" d="M456.65,-165.34C447.92,-157.72 435.21,-146.62 424.7,-137.45"/>
<polygon fill="#63b8ff" stroke="#63b8ff" points="427.17,-134.96 417.34,-131.02 422.57,-140.23 427.17,-134.96"/>
</a>
</g>
</g>
<!-- Node9&#45;&gt;Node6 -->
<g id="edge14_Node000009_Node000006" class="edge">
<title>Node9&#45;&gt;Node6</title>
<g id="a_edge14_Node000009_Node000006"><a xlink:title=" ">
<path fill="none" stroke="#63b8ff" d="M491.41,-114.59C525.19,-107.35 593.1,-92.41 660.03,-74.9"/>
<polygon fill="#63b8ff" stroke="#63b8ff" points="660.52,-78.39 669.3,-72.45 658.74,-71.62 660.52,-78.39"/>
</a>
</g>
</g>
<!-- Node9&#45;&gt;Node7 -->
<g id="edge9_Node000009_Node000007" class="edge">
<title>Node9&#45;&gt;Node7</title>
<g id="a_edge9_Node000009_Node000007"><a xlink:title=" ">
<path fill="none" stroke="#63b8ff" d="M483.91,-110.09C496.16,-102.14 514.25,-90.39 528.71,-81"/>
<polygon fill="#63b8ff" stroke="#63b8ff" points="530.27,-84.16 536.75,-75.78 526.46,-78.29 530.27,-84.16"/>
</a>
</g>
</g>
<!-- Node10 -->
<g id="Node000010" class="node">
<title>Node10</title>
<g id="a_Node000010"><a xlink:title=" ">
<polygon fill="#e0e0e0" stroke="#999999" points="278,-74.5 220,-74.5 220,-55.25 278,-55.25 278,-74.5"/>
<text xml:space="preserve" text-anchor="middle" x="249" y="-61" font-family="Helvetica,sans-Serif" font-size="10.00">functional</text>
</a>
</g>
</g>
<!-- Node9&#45;&gt;Node10 -->
<g id="edge10_Node000009_Node000010" class="edge">
<title>Node9&#45;&gt;Node10</title>
<g id="a_edge10_Node000009_Node000010"><a xlink:title=" ">
<path fill="none" stroke="#63b8ff" d="M448.41,-112.78C445.58,-111.99 442.73,-111.21 440,-110.5 411.92,-103.19 336.56,-85.83 289.33,-75.05"/>
<polygon fill="#63b8ff" stroke="#63b8ff" points="290.26,-71.67 279.74,-72.86 288.71,-78.49 290.26,-71.67"/>
</a>
</g>
</g>
<!-- Node11 -->
<g id="Node000011" class="node">
<title>Node11</title>
<g id="a_Node000011"><a xlink:title=" ">
<polygon fill="#e0e0e0" stroke="#999999" points="368.12,-74.5 295.88,-74.5 295.88,-55.25 368.12,-55.25 368.12,-74.5"/>
<text xml:space="preserve" text-anchor="middle" x="332" y="-61" font-family="Helvetica,sans-Serif" font-size="10.00">initializer_list</text>
</a>
</g>
</g>
<!-- Node9&#45;&gt;Node11 -->
<g id="edge11_Node000009_Node000011" class="edge">
<title>Node9&#45;&gt;Node11</title>
<g id="a_edge11_Node000009_Node000011"><a xlink:title=" ">
<path fill="none" stroke="#63b8ff" d="M448.44,-110.8C426.28,-102.26 391.48,-88.83 365.69,-78.88"/>
<polygon fill="#63b8ff" stroke="#63b8ff" points="367.26,-75.73 356.67,-75.39 364.74,-82.26 367.26,-75.73"/>
</a>
</g>
</g>
<!-- Node12 -->
<g id="Node000012" class="node">
<title>Node12</title>
<g id="a_Node000012"><a xlink:title=" ">
<polygon fill="#e0e0e0" stroke="#999999" points="652.62,-74.5 601.38,-74.5 601.38,-55.25 652.62,-55.25 652.62,-74.5"/>
<text xml:space="preserve" text-anchor="middle" x="627" y="-61" font-family="Helvetica,sans-Serif" font-size="10.00">memory</text>
</a>
</g>
</g>
<!-- Node9&#45;&gt;Node12 -->
<g id="edge12_Node000009_Node000012" class="edge">
<title>Node9&#45;&gt;Node12</title>
<g id="a_edge12_Node000009_Node000012"><a xlink:title=" ">
<path fill="none" stroke="#63b8ff" d="M491.5,-111.83C516.93,-103.21 559.68,-88.71 590.36,-78.3"/>
<polygon fill="#63b8ff" stroke="#63b8ff" points="591.29,-81.68 599.63,-75.16 589.04,-75.05 591.29,-81.68"/>
</a>
</g>
</g>
<!-- Node9&#45;&gt;Node13 -->
<g id="edge13_Node000009_Node000013" class="edge">
<title>Node9&#45;&gt;Node13</title>
<g id="a_edge13_Node000009_Node000013"><a xlink:title=" ">
<path fill="none" stroke="#63b8ff" d="M448.45,-112.58C445.62,-111.83 442.75,-111.11 440,-110.5 342.85,-88.98 313.67,-95.82 212.91,-74.67"/>
<polygon fill="#63b8ff" stroke="#63b8ff" points="213.93,-71.31 203.42,-72.63 212.46,-78.15 213.93,-71.31"/>
</a>
</g>
</g>
<!-- Node14 -->
<g id="Node000014" class="node">
<title>Node14</title>
<g id="a_Node000014"><a xlink:title=" ">
<polygon fill="#e0e0e0" stroke="#999999" points="429.5,-74.5 386.5,-74.5 386.5,-55.25 429.5,-55.25 429.5,-74.5"/>
<text xml:space="preserve" text-anchor="middle" x="408" y="-61" font-family="Helvetica,sans-Serif" font-size="10.00">vector</text>
</a>
</g>
</g>
<!-- Node9&#45;&gt;Node14 -->
<g id="edge15_Node000009_Node000014" class="edge">
<title>Node9&#45;&gt;Node14</title>
<g id="a_edge15_Node000009_Node000014"><a xlink:title=" ">
<path fill="none" stroke="#63b8ff" d="M459.48,-110.09C450.61,-102.47 437.69,-91.37 427.01,-82.2"/>
<polygon fill="#63b8ff" stroke="#63b8ff" points="429.38,-79.62 419.51,-75.76 424.82,-84.93 429.38,-79.62"/>
</a>
</g>
</g>
<!-- Node15 -->
<g id="Node000015" class="node">
<title>Node15</title>
<g id="a_Node000015"><a xlink:href="napi-inl_8h.html" target="_top" xlink:title=" ">
<polygon fill="white" stroke="#666666" points="502.5,-74.5 447.5,-74.5 447.5,-55.25 502.5,-55.25 502.5,-74.5"/>
<text xml:space="preserve" text-anchor="middle" x="475" y="-61" font-family="Helvetica,sans-Serif" font-size="10.00">napi&#45;inl.h</text>
</a>
</g>
</g>
<!-- Node9&#45;&gt;Node15 -->
<g id="edge16_Node000009_Node000015" class="edge">
<title>Node9&#45;&gt;Node15</title>
<g id="a_edge16_Node000009_Node000015"><a xlink:title=" ">
<path fill="none" stroke="#63b8ff" d="M470.83,-110.33C471.44,-103.74 472.32,-94.46 473.1,-86.07"/>
<polygon fill="#63b8ff" stroke="#63b8ff" points="476.56,-86.65 474.01,-76.37 469.6,-86 476.56,-86.65"/>
</a>
</g>
</g>
<!-- Node16 -->
<g id="Node000016" class="node">
<title>Node16</title>
<g id="a_Node000016"><a xlink:title=" ">
<polygon fill="#e0e0e0" stroke="#999999" points="361.88,-19.25 306.12,-19.25 306.12,0 361.88,0 361.88,-19.25"/>
<text xml:space="preserve" text-anchor="middle" x="334" y="-5.75" font-family="Helvetica,sans-Serif" font-size="10.00">algorithm</text>
</a>
</g>
</g>
<!-- Node15&#45;&gt;Node16 -->
<g id="edge17_Node000015_Node000016" class="edge">
<title>Node15&#45;&gt;Node16</title>
<g id="a_edge17_Node000015_Node000016"><a xlink:title=" ">
<path fill="none" stroke="#63b8ff" d="M451.08,-54.84C428.5,-46.31 394.36,-33.42 368.77,-23.76"/>
<polygon fill="#63b8ff" stroke="#63b8ff" points="370.04,-20.5 359.45,-20.24 367.57,-27.04 370.04,-20.5"/>
</a>
</g>
</g>
<!-- Node17 -->
<g id="Node000017" class="node">
<title>Node17</title>
<g id="a_Node000017"><a xlink:title=" ">
<polygon fill="#e0e0e0" stroke="#999999" points="425.62,-19.25 380.38,-19.25 380.38,0 425.62,0 425.62,-19.25"/>
<text xml:space="preserve" text-anchor="middle" x="403" y="-5.75" font-family="Helvetica,sans-Serif" font-size="10.00">cstring</text>
</a>
</g>
</g>
<!-- Node15&#45;&gt;Node17 -->
<g id="edge18_Node000015_Node000017" class="edge">
<title>Node15&#45;&gt;Node17</title>
<g id="a_edge18_Node000015_Node000017"><a xlink:title=" ">
<path fill="none" stroke="#63b8ff" d="M462.79,-54.84C452.17,-46.99 436.56,-35.45 423.96,-26.12"/>
<polygon fill="#63b8ff" stroke="#63b8ff" points="426.37,-23.56 416.25,-20.42 422.21,-29.19 426.37,-23.56"/>
</a>
</g>
</g>
<!-- Node18 -->
<g id="Node000018" class="node">
<title>Node18</title>
<g id="a_Node000018"><a xlink:title=" ">
<polygon fill="#e0e0e0" stroke="#999999" points="505.88,-19.25 444.12,-19.25 444.12,0 505.88,0 505.88,-19.25"/>
<text xml:space="preserve" text-anchor="middle" x="475" y="-5.75" font-family="Helvetica,sans-Serif" font-size="10.00">type_traits</text>
</a>
</g>
</g>
<!-- Node15&#45;&gt;Node18 -->
<g id="edge19_Node000015_Node000018" class="edge">
<title>Node15&#45;&gt;Node18</title>
<g id="a_edge19_Node000015_Node000018"><a xlink:title=" ">
<path fill="none" stroke="#63b8ff" d="M475,-55.08C475,-48.57 475,-39.42 475,-31.12"/>
<polygon fill="#63b8ff" stroke="#63b8ff" points="478.5,-31.12 475,-21.12 471.5,-31.12 478.5,-31.12"/>
</a>
</g>
</g>
<!-- Node19 -->
<g id="Node000019" class="node">
<title>Node19</title>
<g id="a_Node000019"><a xlink:title=" ">
<polygon fill="#e0e0e0" stroke="#999999" points="563.62,-19.25 524.38,-19.25 524.38,0 563.62,0 563.62,-19.25"/>
<text xml:space="preserve" text-anchor="middle" x="544" y="-5.75" font-family="Helvetica,sans-Serif" font-size="10.00">utility</text>
</a>
</g>
</g>
<!-- Node15&#45;&gt;Node19 -->
<g id="edge20_Node000015_Node000019" class="edge">
<title>Node15&#45;&gt;Node19</title>
<g id="a_edge20_Node000015_Node000019"><a xlink:title=" ">
<path fill="none" stroke="#63b8ff" d="M486.7,-54.84C496.78,-47.07 511.54,-35.67 523.56,-26.4"/>
<polygon fill="#63b8ff" stroke="#63b8ff" points="525.49,-29.33 531.27,-20.45 521.21,-23.79 525.49,-29.33"/>
</a>
</g>
</g>
<!-- Node20 -->
<g id="Node000020" class="node">
<title>Node20</title>
<g id="a_Node000020"><a xlink:href="napi-inl_8deprecated_8h.html" target="_top" xlink:title=" ">
<polygon fill="white" stroke="#666666" points="688,-19.25 582,-19.25 582,0 688,0 688,-19.25"/>
<text xml:space="preserve" text-anchor="middle" x="635" y="-5.75" font-family="Helvetica,sans-Serif" font-size="10.00">napi&#45;inl.deprecated.h</text>
</a>
</g>
</g>
<!-- Node15&#45;&gt;Node20 -->
<g id="edge21_Node000015_Node000020" class="edge">
<title>Node15&#45;&gt;Node20</title>
<g id="a_edge21_Node000015_Node000020"><a xlink:title=" ">
<path fill="none" stroke="#63b8ff" d="M502.14,-54.84C528.23,-46.16 567.9,-32.96 597.1,-23.24"/>
<polygon fill="#63b8ff" stroke="#63b8ff" points="597.91,-26.66 606.29,-20.18 595.7,-20.02 597.91,-26.66"/>
</a>
</g>
</g>
<!-- Node23&#45;&gt;Node5 -->
<g id="edge33_Node000023_Node000005" class="edge">
<title>Node23&#45;&gt;Node5</title>
<g id="a_edge33_Node000023_Node000005"><a xlink:title=" ">
<path fill="none" stroke="#63b8ff" d="M393.23,-275.81C409.04,-268.35 429.74,-256.39 443,-240.25 453.48,-227.49 459.66,-209.7 463.12,-196.13"/>
<polygon fill="#63b8ff" stroke="#63b8ff" points="466.48,-197.12 465.24,-186.6 459.65,-195.6 466.48,-197.12"/>
</a>
</g>
</g>
<!-- Node23&#45;&gt;Node7 -->
<g id="edge29_Node000023_Node000007" class="edge">
<title>Node23&#45;&gt;Node7</title>
<g id="a_edge29_Node000023_Node000007"><a xlink:title=" ">
<path fill="none" stroke="#63b8ff" d="M397.94,-275.78C417.41,-268.31 443.59,-256.33 463,-240.25 513.1,-198.73 538.04,-121.8 547.43,-85.64"/>
<polygon fill="#63b8ff" stroke="#63b8ff" points="550.78,-86.68 549.76,-76.14 543.98,-85.02 550.78,-86.68"/>
</a>
</g>
</g>
<!-- Node24 -->
<g id="Node000024" class="node">
<title>Node24</title>
<g id="a_Node000024"><a xlink:title=" ">
<polygon fill="#e0e0e0" stroke="#999999" points="94,-129.75 0,-129.75 0,-110.5 94,-110.5 94,-129.75"/>
<text xml:space="preserve" text-anchor="middle" x="47" y="-116.25" font-family="Helvetica,sans-Serif" font-size="10.00">condition_variable</text>
</a>
</g>
</g>
<!-- Node23&#45;&gt;Node24 -->
<g id="edge26_Node000023_Node000024" class="edge">
<title>Node23&#45;&gt;Node24</title>
<g id="a_edge26_Node000023_Node000024"><a xlink:title=" ">
<path fill="none" stroke="#63b8ff" d="M338.56,-284.85C275.11,-282.88 134.8,-268.73 66,-185 55.77,-172.54 51.04,-154.72 48.86,-141.07"/>
<polygon fill="#63b8ff" stroke="#63b8ff" points="52.38,-140.97 47.68,-131.47 45.43,-141.83 52.38,-140.97"/>
</a>
</g>
</g>
<!-- Node25 -->
<g id="Node000025" class="node">
<title>Node25</title>
<g id="a_Node000025"><a xlink:title=" ">
<polygon fill="#e0e0e0" stroke="#999999" points="346.75,-185 269.25,-185 269.25,-165.75 346.75,-165.75 346.75,-185"/>
<text xml:space="preserve" text-anchor="middle" x="308" y="-171.5" font-family="Helvetica,sans-Serif" font-size="10.00">unordered_set</text>
</a>
</g>
</g>
<!-- Node23&#45;&gt;Node25 -->
<g id="edge27_Node000023_Node000025" class="edge">
<title>Node23&#45;&gt;Node25</title>
<g id="a_edge27_Node000023_Node000025"><a xlink:title=" ">
<path fill="none" stroke="#63b8ff" d="M359.28,-275.81C349.35,-267.55 335.41,-254.49 327,-240.25 318.97,-226.66 314.1,-209.42 311.31,-196.28"/>
<polygon fill="#63b8ff" stroke="#63b8ff" points="314.79,-195.85 309.51,-186.67 307.91,-197.14 314.79,-195.85"/>
</a>
</g>
</g>
<!-- Node26 -->
<g id="Node000026" class="node">
<title>Node26</title>
<g id="a_Node000026"><a xlink:title=" ">
<polygon fill="#e0e0e0" stroke="#999999" points="433.75,-240.25 404.25,-240.25 404.25,-221 433.75,-221 433.75,-240.25"/>
<text xml:space="preserve" text-anchor="middle" x="419" y="-226.75" font-family="Helvetica,sans-Serif" font-size="10.00">set</text>
</a>
</g>
</g>
<!-- Node23&#45;&gt;Node26 -->
<g id="edge28_Node000023_Node000026" class="edge">
<title>Node23&#45;&gt;Node26</title>
<g id="a_edge28_Node000023_Node000026"><a xlink:title=" ">
<path fill="none" stroke="#63b8ff" d="M378.93,-276.08C385.56,-268.73 395.22,-258.01 403.39,-248.94"/>
<polygon fill="#63b8ff" stroke="#63b8ff" points="405.79,-251.5 409.89,-241.73 400.59,-246.82 405.79,-251.5"/>
</a>
</g>
</g>
<!-- Node27 -->
<g id="Node000027" class="node">
<title>Node27</title>
<g id="a_Node000027"><a xlink:href="_glob_8hh.html" target="_top" xlink:title=" ">
<polygon fill="white" stroke="#666666" points="385.88,-240.25 336.12,-240.25 336.12,-221 385.88,-221 385.88,-240.25"/>
<text xml:space="preserve" text-anchor="middle" x="361" y="-226.75" font-family="Helvetica,sans-Serif" font-size="10.00">Glob.hh</text>
</a>
</g>
</g>
<!-- Node23&#45;&gt;Node27 -->
<g id="edge30_Node000023_Node000027" class="edge">
<title>Node23&#45;&gt;Node27</title>
<g id="a_edge30_Node000023_Node000027"><a xlink:title=" ">
<path fill="none" stroke="#63b8ff" d="M369.35,-276.08C368.11,-269.49 366.37,-260.21 364.79,-251.82"/>
<polygon fill="#63b8ff" stroke="#63b8ff" points="368.25,-251.28 362.97,-242.1 361.37,-252.57 368.25,-251.28"/>
</a>
</g>
</g>
<!-- Node29 -->
<g id="Node000029" class="node">
<title>Node29</title>
<g id="a_Node000029"><a xlink:href="_debounce_8hh.html" target="_top" xlink:title=" ">
<polygon fill="white" stroke="#666666" points="269.88,-240.25 196.12,-240.25 196.12,-221 269.88,-221 269.88,-240.25"/>
<text xml:space="preserve" text-anchor="middle" x="233" y="-226.75" font-family="Helvetica,sans-Serif" font-size="10.00">Debounce.hh</text>
</a>
</g>
</g>
<!-- Node23&#45;&gt;Node29 -->
<g id="edge34_Node000023_Node000029" class="edge">
<title>Node23&#45;&gt;Node29</title>
<g id="a_edge34_Node000023_Node000029"><a xlink:title=" ">
<path fill="none" stroke="#63b8ff" d="M347.59,-275.84C325.48,-267.31 292.08,-254.42 267.03,-244.76"/>
<polygon fill="#63b8ff" stroke="#63b8ff" points="268.53,-241.58 257.94,-241.25 266.01,-248.11 268.53,-241.58"/>
</a>
</g>
</g>
<!-- Node23&#45;&gt;Node31 -->
<g id="edge46_Node000023_Node000031" class="edge">
<title>Node23&#45;&gt;Node31</title>
<g id="a_edge46_Node000023_Node000031"><a xlink:title=" ">
<path fill="none" stroke="#63b8ff" d="M338.15,-280.73C291.41,-274.21 208.94,-260.22 187,-240.25 174.66,-229.01 169.24,-210.53 166.86,-196.33"/>
<polygon fill="#63b8ff" stroke="#63b8ff" points="170.37,-196.23 165.65,-186.74 163.43,-197.11 170.37,-196.23"/>
</a>
</g>
</g>
<!-- Node23&#45;&gt;Node32 -->
<g id="edge41_Node000023_Node000032" class="edge">
<title>Node23&#45;&gt;Node32</title>
<g id="a_edge41_Node000023_Node000032"><a xlink:title=" ">
<path fill="none" stroke="#63b8ff" d="M403.86,-277.13C443.76,-267.73 511.11,-251.86 554.8,-241.57"/>
<polygon fill="#63b8ff" stroke="#63b8ff" points="555.51,-245 564.44,-239.3 553.91,-238.18 555.51,-245"/>
</a>
</g>
</g>
<!-- Node27&#45;&gt;Node25 -->
<g id="edge31_Node000027_Node000025" class="edge">
<title>Node27&#45;&gt;Node25</title>
<g id="a_edge31_Node000027_Node000025"><a xlink:title=" ">
<path fill="none" stroke="#63b8ff" d="M352.25,-220.83C344.85,-213.4 334.04,-202.54 324.95,-193.41"/>
<polygon fill="#63b8ff" stroke="#63b8ff" points="327.54,-191.05 318.01,-186.43 322.58,-195.99 327.54,-191.05"/>
</a>
</g>
</g>
<!-- Node28 -->
<g id="Node000028" class="node">
<title>Node28</title>
<g id="a_Node000028"><a xlink:title=" ">
<polygon fill="#e0e0e0" stroke="#999999" points="405,-185 365,-185 365,-165.75 405,-165.75 405,-185"/>
<text xml:space="preserve" text-anchor="middle" x="385" y="-171.5" font-family="Helvetica,sans-Serif" font-size="10.00">regex</text>
</a>
</g>
</g>
<!-- Node27&#45;&gt;Node28 -->
<g id="edge32_Node000027_Node000028" class="edge">
<title>Node27&#45;&gt;Node28</title>
<g id="a_edge32_Node000027_Node000028"><a xlink:title=" ">
<path fill="none" stroke="#63b8ff" d="M364.96,-220.83C368.04,-214.01 372.41,-204.31 376.29,-195.7"/>
<polygon fill="#63b8ff" stroke="#63b8ff" points="379.41,-197.29 380.33,-186.74 373.03,-194.42 379.41,-197.29"/>
</a>
</g>
</g>
<!-- Node29&#45;&gt;Node2 -->
<g id="edge36_Node000029_Node000002" class="edge">
<title>Node29&#45;&gt;Node2</title>
<g id="a_edge36_Node000029_Node000002"><a xlink:title=" ">
<path fill="none" stroke="#63b8ff" d="M270.03,-225.04C346.36,-215.59 521.42,-193.91 609.83,-182.96"/>
<polygon fill="#63b8ff" stroke="#63b8ff" points="610.2,-186.44 619.7,-181.74 609.34,-179.49 610.2,-186.44"/>
</a>
</g>
</g>
<!-- Node29&#45;&gt;Node10 -->
<g id="edge37_Node000029_Node000010" class="edge">
<title>Node29&#45;&gt;Node10</title>
<g id="a_edge37_Node000029_Node000010"><a xlink:title=" ">
<path fill="none" stroke="#63b8ff" d="M229.2,-220.72C221.18,-200.59 204.23,-150.23 217,-110.5 220.16,-100.67 226.37,-91.17 232.49,-83.49"/>
<polygon fill="#63b8ff" stroke="#63b8ff" points="235.09,-85.83 238.96,-75.97 229.78,-81.26 235.09,-85.83"/>
</a>
</g>
</g>
<!-- Node29&#45;&gt;Node30 -->
<g id="edge35_Node000029_Node000030" class="edge">
<title>Node29&#45;&gt;Node30</title>
<g id="a_edge35_Node000029_Node000030"><a xlink:title=" ">
<path fill="none" stroke="#63b8ff" d="M209.93,-220.59C187.85,-211.95 154.33,-198.82 129.54,-189.11"/>
<polygon fill="#63b8ff" stroke="#63b8ff" points="130.83,-185.86 120.24,-185.47 128.28,-192.38 130.83,-185.86"/>
</a>
</g>
</g>
<!-- Node29&#45;&gt;Node31 -->
<g id="edge38_Node000029_Node000031" class="edge">
<title>Node29&#45;&gt;Node31</title>
<g id="a_edge38_Node000029_Node000031"><a xlink:title=" ">
<path fill="none" stroke="#63b8ff" d="M221.46,-220.59C211.54,-212.82 196.99,-201.42 185.14,-192.15"/>
<polygon fill="#63b8ff" stroke="#63b8ff" points="187.59,-189.62 177.56,-186.21 183.27,-195.13 187.59,-189.62"/>
</a>
</g>
</g>
<!-- Node31&#45;&gt;Node13 -->
<g id="edge39_Node000031_Node000013" class="edge">
<title>Node31&#45;&gt;Node13</title>
<g id="a_edge39_Node000031_Node000013"><a xlink:title=" ">
<path fill="none" stroke="#63b8ff" d="M158.95,-165.63C151.17,-153.27 139.41,-130.01 146,-110.5 149.41,-100.4 156.12,-90.77 162.69,-83.07"/>
<polygon fill="#63b8ff" stroke="#63b8ff" points="165.16,-85.55 169.37,-75.83 160.01,-80.8 165.16,-85.55"/>
</a>
</g>
</g>
<!-- Node31&#45;&gt;Node24 -->
<g id="edge40_Node000031_Node000024" class="edge">
<title>Node31&#45;&gt;Node24</title>
<g id="a_edge40_Node000031_Node000024"><a xlink:title=" ">
<path fill="none" stroke="#63b8ff" d="M144.98,-165.34C126.51,-157 98.79,-144.5 77.55,-134.91"/>
<polygon fill="#63b8ff" stroke="#63b8ff" points="79.05,-131.75 68.49,-130.83 76.17,-138.13 79.05,-131.75"/>
</a>
</g>
</g>
<!-- Node32&#45;&gt;Node2 -->
<g id="edge43_Node000032_Node000002" class="edge">
<title>Node32&#45;&gt;Node2</title>
<g id="a_edge43_Node000032_Node000002"><a xlink:title=" ">
<path fill="none" stroke="#63b8ff" d="M608.2,-220.59C617.74,-212.9 631.67,-201.65 643.11,-192.43"/>
<polygon fill="#63b8ff" stroke="#63b8ff" points="645.21,-195.23 650.79,-186.23 640.81,-189.78 645.21,-195.23"/>
</a>
</g>
</g>
<!-- Node32&#45;&gt;Node5 -->
<g id="edge45_Node000032_Node000005" class="edge">
<title>Node32&#45;&gt;Node5</title>
<g id="a_edge45_Node000032_Node000005"><a xlink:title=" ">
<path fill="none" stroke="#63b8ff" d="M574.95,-220.59C554.31,-212.14 523.22,-199.4 499.7,-189.77"/>
<polygon fill="#63b8ff" stroke="#63b8ff" points="501.14,-186.58 490.56,-186.03 498.49,-193.06 501.14,-186.58"/>
</a>
</g>
</g>
<!-- Node32&#45;&gt;Node6 -->
<g id="edge42_Node000032_Node000006" class="edge">
<title>Node32&#45;&gt;Node6</title>
<g id="a_edge42_Node000032_Node000006"><a xlink:title=" ">
<path fill="none" stroke="#63b8ff" d="M628.35,-227.1C655.78,-223.05 694.13,-212.48 713,-185 733.95,-154.49 715.71,-109.64 702.25,-84.58"/>
<polygon fill="#63b8ff" stroke="#63b8ff" points="705.46,-83.15 697.48,-76.18 699.38,-86.61 705.46,-83.15"/>
</a>
</g>
</g>
<!-- Node32&#45;&gt;Node12 -->
<g id="edge44_Node000032_Node000012" class="edge">
<title>Node32&#45;&gt;Node12</title>
<g id="a_edge44_Node000032_Node000012"><a xlink:title=" ">
<path fill="none" stroke="#63b8ff" d="M598.61,-220.82C603.27,-195.39 616.84,-121.35 623.38,-85.62"/>
<polygon fill="#63b8ff" stroke="#63b8ff" points="626.75,-86.68 625.11,-76.21 619.86,-85.42 626.75,-86.68"/>
</a>
</g>
</g>
</g>
</svg>
