<?xml version="1.0" encoding="UTF-8" standalone="no"?>
<!DOCTYPE svg PUBLIC "-//W3C//DTD SVG 1.1//EN"
 "http://www.w3.org/Graphics/SVG/1.1/DTD/svg11.dtd">
<!-- Generated by graphviz version 14.0.4 (20251115.1723)
 -->
<!-- Title: frontend/node_modules/@parcel/watcher/src/Watcher.hh Pages: 1 -->
<svg width="1699pt" height="361pt"
 viewBox="0.00 0.00 1699.00 361.00" xmlns="http://www.w3.org/2000/svg" xmlns:xlink="http://www.w3.org/1999/xlink">
<g id="graph0" class="graph" transform="scale(1 1) rotate(0) translate(4 356.75)">
<title>frontend/node_modules/@parcel/watcher/src/Watcher.hh</title>
<!-- Node1 -->
<g id="Node000001" class="node">
<title>Node1</title>
<g id="a_Node000001"><a xlink:title=" ">
<polygon fill="#999999" stroke="#666666" points="1262.75,-352.75 1145.5,-352.75 1145.5,-311 1262.75,-311 1262.75,-352.75"/>
<text xml:space="preserve" text-anchor="start" x="1153.5" y="-339.25" font-family="Helvetica,sans-Serif" font-size="10.00">frontend/node_modules</text>
<text xml:space="preserve" text-anchor="start" x="1153.5" y="-328" font-family="Helvetica,sans-Serif" font-size="10.00">/@parcel/watcher/src</text>
<text xml:space="preserve" text-anchor="middle" x="1204.12" y="-316.75" font-family="Helvetica,sans-Serif" font-size="10.00">/Watcher.hh</text>
</a>
</g>
</g>
<!-- Node2 -->
<g id="Node000002" class="node">
<title>Node2</title>
<g id="a_Node000002"><a xlink:href="_backend_8hh.html" target="_top" xlink:title=" ">
<polygon fill="white" stroke="#666666" points="1262.75,-275 1145.5,-275 1145.5,-233.25 1262.75,-233.25 1262.75,-275"/>
<text xml:space="preserve" text-anchor="start" x="1153.5" y="-261.5" font-family="Helvetica,sans-Serif" font-size="10.00">frontend/node_modules</text>
<text xml:space="preserve" text-anchor="start" x="1153.5" y="-250.25" font-family="Helvetica,sans-Serif" font-size="10.00">/@parcel/watcher/src</text>
<text xml:space="preserve" text-anchor="middle" x="1204.12" y="-239" font-family="Helvetica,sans-Serif" font-size="10.00">/Backend.hh</text>
</a>
</g>
</g>
<!-- Node1&#45;&gt;Node2 -->
<g id="edge1_Node000001_Node000002" class="edge">
<title>Node1&#45;&gt;Node2</title>
<g id="a_edge1_Node000001_Node000002"><a xlink:title=" ">
<path fill="none" stroke="#63b8ff" d="M1204.12,-299.25C1204.12,-291.21 1204.12,-282.79 1204.12,-275.48"/>
<polygon fill="#63b8ff" stroke="#63b8ff" points="1200.63,-299.06 1204.13,-309.06 1207.63,-299.06 1200.63,-299.06"/>
</a>
</g>
</g>
<!-- Node4 -->
<g id="Node000004" class="node">
<title>Node4</title>
<g id="a_Node000004"><a xlink:href="binding_8cc.html" target="_top" xlink:title=" ">
<polygon fill="white" stroke="#666666" points="1092.75,-197.25 975.5,-197.25 975.5,-155.5 1092.75,-155.5 1092.75,-197.25"/>
<text xml:space="preserve" text-anchor="start" x="983.5" y="-183.75" font-family="Helvetica,sans-Serif" font-size="10.00">frontend/node_modules</text>
<text xml:space="preserve" text-anchor="start" x="983.5" y="-172.5" font-family="Helvetica,sans-Serif" font-size="10.00">/@parcel/watcher/src</text>
<text xml:space="preserve" text-anchor="middle" x="1034.12" y="-161.25" font-family="Helvetica,sans-Serif" font-size="10.00">/binding.cc</text>
</a>
</g>
</g>
<!-- Node1&#45;&gt;Node4 -->
<g id="edge24_Node000001_Node000004" class="edge">
<title>Node1&#45;&gt;Node4</title>
<g id="a_edge24_Node000001_Node000004"><a xlink:title=" ">
<path fill="none" stroke="#63b8ff" d="M1169.72,-303.45C1158.83,-294.54 1146.84,-284.51 1136.12,-275 1106.97,-249.14 1074.68,-217.74 1054.4,-197.66"/>
<polygon fill="#63b8ff" stroke="#63b8ff" points="1167.41,-306.08 1177.38,-309.67 1171.82,-300.65 1167.41,-306.08"/>
</a>
</g>
</g>
<!-- Node5 -->
<g id="Node000005" class="node">
<title>Node5</title>
<g id="a_Node000005"><a xlink:href="_f_s_events_backend_8cc.html" target="_top" xlink:title=" ">
<polygon fill="white" stroke="#666666" points="1580.38,-119.5 1433.88,-119.5 1433.88,-77.75 1580.38,-77.75 1580.38,-119.5"/>
<text xml:space="preserve" text-anchor="start" x="1441.88" y="-106" font-family="Helvetica,sans-Serif" font-size="10.00">frontend/node_modules</text>
<text xml:space="preserve" text-anchor="start" x="1441.88" y="-94.75" font-family="Helvetica,sans-Serif" font-size="10.00">/@parcel/watcher/src</text>
<text xml:space="preserve" text-anchor="middle" x="1507.12" y="-83.5" font-family="Helvetica,sans-Serif" font-size="10.00">/macos/FSEventsBackend.cc</text>
</a>
</g>
</g>
<!-- Node1&#45;&gt;Node5 -->
<g id="edge25_Node000001_Node000005" class="edge">
<title>Node1&#45;&gt;Node5</title>
<g id="a_edge25_Node000001_Node000005"><a xlink:title=" ">
<path fill="none" stroke="#63b8ff" d="M1273.91,-322.47C1347.15,-309.52 1458.77,-277.14 1511.12,-197.25 1526.28,-174.12 1520.51,-140.87 1514.33,-119.76"/>
<polygon fill="#63b8ff" stroke="#63b8ff" points="1273.72,-318.96 1264.44,-324.07 1274.88,-325.86 1273.72,-318.96"/>
</a>
</g>
</g>
<!-- Node7 -->
<g id="Node000007" class="node">
<title>Node7</title>
<g id="a_Node000007"><a xlink:href="_brute_force_backend_8hh.html" target="_top" xlink:title=" ">
<polygon fill="white" stroke="#666666" points="874.62,-197.25 723.62,-197.25 723.62,-155.5 874.62,-155.5 874.62,-197.25"/>
<text xml:space="preserve" text-anchor="start" x="731.62" y="-183.75" font-family="Helvetica,sans-Serif" font-size="10.00">frontend/node_modules</text>
<text xml:space="preserve" text-anchor="start" x="731.62" y="-172.5" font-family="Helvetica,sans-Serif" font-size="10.00">/@parcel/watcher/src</text>
<text xml:space="preserve" text-anchor="middle" x="799.12" y="-161.25" font-family="Helvetica,sans-Serif" font-size="10.00">/shared/BruteForceBackend.hh</text>
</a>
</g>
</g>
<!-- Node1&#45;&gt;Node7 -->
<g id="edge26_Node000001_Node000007" class="edge">
<title>Node1&#45;&gt;Node7</title>
<g id="a_edge26_Node000001_Node000007"><a xlink:title=" ">
<path fill="none" stroke="#63b8ff" d="M1140.41,-306.73C1061.05,-276.65 926.88,-225.8 852.61,-197.65"/>
<polygon fill="#63b8ff" stroke="#63b8ff" points="1138.76,-309.84 1149.35,-310.11 1141.24,-303.3 1138.76,-309.84"/>
</a>
</g>
</g>
<!-- Node21 -->
<g id="Node000021" class="node">
<title>Node21</title>
<g id="a_Node000021"><a xlink:href="_watcher_8cc.html" target="_top" xlink:title=" ">
<polygon fill="white" stroke="#666666" points="1690.75,-275 1573.5,-275 1573.5,-233.25 1690.75,-233.25 1690.75,-275"/>
<text xml:space="preserve" text-anchor="start" x="1581.5" y="-261.5" font-family="Helvetica,sans-Serif" font-size="10.00">frontend/node_modules</text>
<text xml:space="preserve" text-anchor="start" x="1581.5" y="-250.25" font-family="Helvetica,sans-Serif" font-size="10.00">/@parcel/watcher/src</text>
<text xml:space="preserve" text-anchor="middle" x="1632.12" y="-239" font-family="Helvetica,sans-Serif" font-size="10.00">/Watcher.cc</text>
</a>
</g>
</g>
<!-- Node1&#45;&gt;Node21 -->
<g id="edge23_Node000001_Node000021" class="edge">
<title>Node1&#45;&gt;Node21</title>
<g id="a_edge23_Node000001_Node000021"><a xlink:title=" ">
<path fill="none" stroke="#63b8ff" d="M1274.39,-322.13C1346.31,-312.64 1461.11,-295.99 1559.12,-275 1563.75,-274.01 1568.52,-272.91 1573.29,-271.74"/>
<polygon fill="#63b8ff" stroke="#63b8ff" points="1274.18,-318.63 1264.72,-323.4 1275.09,-325.57 1274.18,-318.63"/>
</a>
</g>
</g>
<!-- Node3 -->
<g id="Node000003" class="node">
<title>Node3</title>
<g id="a_Node000003"><a xlink:href="_backend_8cc.html" target="_top" xlink:title=" ">
<polygon fill="white" stroke="#666666" points="1206.75,-119.5 1089.5,-119.5 1089.5,-77.75 1206.75,-77.75 1206.75,-119.5"/>
<text xml:space="preserve" text-anchor="start" x="1097.5" y="-106" font-family="Helvetica,sans-Serif" font-size="10.00">frontend/node_modules</text>
<text xml:space="preserve" text-anchor="start" x="1097.5" y="-94.75" font-family="Helvetica,sans-Serif" font-size="10.00">/@parcel/watcher/src</text>
<text xml:space="preserve" text-anchor="middle" x="1148.12" y="-83.5" font-family="Helvetica,sans-Serif" font-size="10.00">/Backend.cc</text>
</a>
</g>
</g>
<!-- Node2&#45;&gt;Node3 -->
<g id="edge2_Node000002_Node000003" class="edge">
<title>Node2&#45;&gt;Node3</title>
<g id="a_edge2_Node000002_Node000003"><a xlink:title=" ">
<path fill="none" stroke="#63b8ff" d="M1162.25,-225.77C1153.31,-217.73 1145.07,-208.14 1140.12,-197.25 1128.8,-172.32 1134.88,-140.14 1140.96,-119.68"/>
<polygon fill="#63b8ff" stroke="#63b8ff" points="1159.86,-228.33 1169.79,-232.01 1164.32,-222.94 1159.86,-228.33"/>
</a>
</g>
</g>
<!-- Node2&#45;&gt;Node4 -->
<g id="edge3_Node000002_Node000004" class="edge">
<title>Node2&#45;&gt;Node4</title>
<g id="a_edge3_Node000002_Node000004"><a xlink:title=" ">
<path fill="none" stroke="#63b8ff" d="M1148.28,-228.24C1126.09,-218.35 1100.88,-207.12 1079.81,-197.73"/>
<polygon fill="#63b8ff" stroke="#63b8ff" points="1146.63,-231.34 1157.19,-232.21 1149.48,-224.94 1146.63,-231.34"/>
</a>
</g>
</g>
<!-- Node2&#45;&gt;Node5 -->
<g id="edge4_Node000002_Node000005" class="edge">
<title>Node2&#45;&gt;Node5</title>
<g id="a_edge4_Node000002_Node000005"><a xlink:title=" ">
<path fill="none" stroke="#63b8ff" d="M1274.17,-248.18C1348.34,-241.46 1458.71,-226.73 1488.12,-197.25 1508.37,-176.96 1510.35,-141.94 1509.24,-119.82"/>
<polygon fill="#63b8ff" stroke="#63b8ff" points="1274.22,-244.66 1264.56,-249.02 1274.83,-251.63 1274.22,-244.66"/>
</a>
</g>
</g>
<!-- Node6 -->
<g id="Node000006" class="node">
<title>Node6</title>
<g id="a_Node000006"><a xlink:href="_f_s_events_backend_8hh.html" target="_top" xlink:title=" ">
<polygon fill="white" stroke="#666666" points="1479.38,-197.25 1332.88,-197.25 1332.88,-155.5 1479.38,-155.5 1479.38,-197.25"/>
<text xml:space="preserve" text-anchor="start" x="1340.88" y="-183.75" font-family="Helvetica,sans-Serif" font-size="10.00">frontend/node_modules</text>
<text xml:space="preserve" text-anchor="start" x="1340.88" y="-172.5" font-family="Helvetica,sans-Serif" font-size="10.00">/@parcel/watcher/src</text>
<text xml:space="preserve" text-anchor="middle" x="1406.12" y="-161.25" font-family="Helvetica,sans-Serif" font-size="10.00">/macos/FSEventsBackend.hh</text>
</a>
</g>
</g>
<!-- Node2&#45;&gt;Node6 -->
<g id="edge5_Node000002_Node000006" class="edge">
<title>Node2&#45;&gt;Node6</title>
<g id="a_edge5_Node000002_Node000006"><a xlink:title=" ">
<path fill="none" stroke="#63b8ff" d="M1268.7,-228.91C1295.49,-218.86 1326.24,-207.33 1351.84,-197.73"/>
<polygon fill="#63b8ff" stroke="#63b8ff" points="1267.81,-225.51 1259.67,-232.29 1270.27,-232.06 1267.81,-225.51"/>
</a>
</g>
</g>
<!-- Node2&#45;&gt;Node7 -->
<g id="edge7_Node000002_Node000007" class="edge">
<title>Node2&#45;&gt;Node7</title>
<g id="a_edge7_Node000002_Node000007"><a xlink:title=" ">
<path fill="none" stroke="#63b8ff" d="M1133.99,-240.01C1061.69,-226.49 949.35,-205.47 875.01,-191.57"/>
<polygon fill="#63b8ff" stroke="#63b8ff" points="1133.27,-243.43 1143.75,-241.83 1134.56,-236.55 1133.27,-243.43"/>
</a>
</g>
</g>
<!-- Node19 -->
<g id="Node000019" class="node">
<title>Node19</title>
<g id="a_Node000019"><a xlink:href="_watchman_backend_8hh.html" target="_top" xlink:title=" ">
<polygon fill="white" stroke="#666666" points="1314.75,-197.25 1149.5,-197.25 1149.5,-155.5 1314.75,-155.5 1314.75,-197.25"/>
<text xml:space="preserve" text-anchor="start" x="1157.5" y="-183.75" font-family="Helvetica,sans-Serif" font-size="10.00">frontend/node_modules</text>
<text xml:space="preserve" text-anchor="start" x="1157.5" y="-172.5" font-family="Helvetica,sans-Serif" font-size="10.00">/@parcel/watcher/src</text>
<text xml:space="preserve" text-anchor="middle" x="1232.12" y="-161.25" font-family="Helvetica,sans-Serif" font-size="10.00">/watchman/WatchmanBackend.hh</text>
</a>
</g>
</g>
<!-- Node2&#45;&gt;Node19 -->
<g id="edge21_Node000002_Node000019" class="edge">
<title>Node2&#45;&gt;Node19</title>
<g id="a_edge21_Node000002_Node000019"><a xlink:title=" ">
<path fill="none" stroke="#63b8ff" d="M1215.61,-222.06C1218.64,-213.86 1221.84,-205.21 1224.6,-197.73"/>
<polygon fill="#63b8ff" stroke="#63b8ff" points="1212.34,-220.81 1212.15,-231.41 1218.9,-223.24 1212.34,-220.81"/>
</a>
</g>
</g>
<!-- Node6&#45;&gt;Node5 -->
<g id="edge6_Node000006_Node000005" class="edge">
<title>Node6&#45;&gt;Node5</title>
<g id="a_edge6_Node000006_Node000005"><a xlink:title=" ">
<path fill="none" stroke="#63b8ff" d="M1442.38,-148.19C1454.78,-138.89 1468.43,-128.65 1479.98,-119.98"/>
<polygon fill="#63b8ff" stroke="#63b8ff" points="1440.3,-145.37 1434.4,-154.17 1444.5,-150.97 1440.3,-145.37"/>
</a>
</g>
</g>
<!-- Node7&#45;&gt;Node3 -->
<g id="edge8_Node000007_Node000003" class="edge">
<title>Node7&#45;&gt;Node3</title>
<g id="a_edge8_Node000007_Node000003"><a xlink:title=" ">
<path fill="none" stroke="#63b8ff" d="M885.99,-159.31C940.5,-148.86 1012.15,-134.43 1075.12,-119.5 1079.73,-118.41 1084.48,-117.23 1089.24,-116.01"/>
<polygon fill="#63b8ff" stroke="#63b8ff" points="885.63,-155.82 876.46,-161.13 886.94,-162.7 885.63,-155.82"/>
</a>
</g>
</g>
<!-- Node8 -->
<g id="Node000008" class="node">
<title>Node8</title>
<g id="a_Node000008"><a xlink:href="_kqueue_backend_8hh.html" target="_top" xlink:title=" ">
<polygon fill="white" stroke="#666666" points="138.25,-119.5 0,-119.5 0,-77.75 138.25,-77.75 138.25,-119.5"/>
<text xml:space="preserve" text-anchor="start" x="8" y="-106" font-family="Helvetica,sans-Serif" font-size="10.00">frontend/node_modules</text>
<text xml:space="preserve" text-anchor="start" x="8" y="-94.75" font-family="Helvetica,sans-Serif" font-size="10.00">/@parcel/watcher/src</text>
<text xml:space="preserve" text-anchor="middle" x="69.12" y="-83.5" font-family="Helvetica,sans-Serif" font-size="10.00">/kqueue/KqueueBackend.hh</text>
</a>
</g>
</g>
<!-- Node7&#45;&gt;Node8 -->
<g id="edge9_Node000007_Node000008" class="edge">
<title>Node7&#45;&gt;Node8</title>
<g id="a_edge9_Node000007_Node000008"><a xlink:title=" ">
<path fill="none" stroke="#63b8ff" d="M711.89,-172.44C586.29,-167.2 347.54,-153.39 147.12,-119.5 144.37,-119.03 141.57,-118.52 138.75,-117.97"/>
<polygon fill="#63b8ff" stroke="#63b8ff" points="711.67,-175.94 721.81,-172.85 711.96,-168.94 711.67,-175.94"/>
</a>
</g>
</g>
<!-- Node10 -->
<g id="Node000010" class="node">
<title>Node10</title>
<g id="a_Node000010"><a xlink:href="_inotify_backend_8hh.html" target="_top" xlink:title=" ">
<polygon fill="white" stroke="#666666" points="277.62,-119.5 156.62,-119.5 156.62,-77.75 277.62,-77.75 277.62,-119.5"/>
<text xml:space="preserve" text-anchor="start" x="164.62" y="-106" font-family="Helvetica,sans-Serif" font-size="10.00">frontend/node_modules</text>
<text xml:space="preserve" text-anchor="start" x="164.62" y="-94.75" font-family="Helvetica,sans-Serif" font-size="10.00">/@parcel/watcher/src</text>
<text xml:space="preserve" text-anchor="middle" x="217.12" y="-83.5" font-family="Helvetica,sans-Serif" font-size="10.00">/linux/InotifyBackend.hh</text>
</a>
</g>
</g>
<!-- Node7&#45;&gt;Node10 -->
<g id="edge11_Node000007_Node000010" class="edge">
<title>Node7&#45;&gt;Node10</title>
<g id="a_edge11_Node000007_Node000010"><a xlink:title=" ">
<path fill="none" stroke="#63b8ff" d="M712.09,-170.47C609.49,-163.64 434.18,-148.66 286.12,-119.5 283.43,-118.97 280.7,-118.38 277.94,-117.76"/>
<polygon fill="#63b8ff" stroke="#63b8ff" points="711.6,-173.95 721.81,-171.11 712.06,-166.96 711.6,-173.95"/>
</a>
</g>
</g>
<!-- Node12 -->
<g id="Node000012" class="node">
<title>Node12</title>
<g id="a_Node000012"><a xlink:href="_brute_force_backend_8cc.html" target="_top" xlink:title=" ">
<polygon fill="white" stroke="#666666" points="446.62,-119.5 295.62,-119.5 295.62,-77.75 446.62,-77.75 446.62,-119.5"/>
<text xml:space="preserve" text-anchor="start" x="303.62" y="-106" font-family="Helvetica,sans-Serif" font-size="10.00">frontend/node_modules</text>
<text xml:space="preserve" text-anchor="start" x="303.62" y="-94.75" font-family="Helvetica,sans-Serif" font-size="10.00">/@parcel/watcher/src</text>
<text xml:space="preserve" text-anchor="middle" x="371.12" y="-83.5" font-family="Helvetica,sans-Serif" font-size="10.00">/shared/BruteForceBackend.cc</text>
</a>
</g>
</g>
<!-- Node7&#45;&gt;Node12 -->
<g id="edge13_Node000007_Node000012" class="edge">
<title>Node7&#45;&gt;Node12</title>
<g id="a_edge13_Node000007_Node000012"><a xlink:title=" ">
<path fill="none" stroke="#63b8ff" d="M712,-162.98C642.27,-152.64 542.11,-136.83 455.12,-119.5 452.48,-118.97 449.79,-118.42 447.08,-117.85"/>
<polygon fill="#63b8ff" stroke="#63b8ff" points="711.45,-166.44 721.85,-164.43 712.47,-159.51 711.45,-166.44"/>
</a>
</g>
</g>
<!-- Node13 -->
<g id="Node000013" class="node">
<title>Node13</title>
<g id="a_Node000013"><a xlink:href="fts_8cc.html" target="_top" xlink:title=" ">
<polygon fill="white" stroke="#666666" points="581.75,-119.5 464.5,-119.5 464.5,-77.75 581.75,-77.75 581.75,-119.5"/>
<text xml:space="preserve" text-anchor="start" x="472.5" y="-106" font-family="Helvetica,sans-Serif" font-size="10.00">frontend/node_modules</text>
<text xml:space="preserve" text-anchor="start" x="472.5" y="-94.75" font-family="Helvetica,sans-Serif" font-size="10.00">/@parcel/watcher/src</text>
<text xml:space="preserve" text-anchor="middle" x="523.12" y="-83.5" font-family="Helvetica,sans-Serif" font-size="10.00">/unix/fts.cc</text>
</a>
</g>
</g>
<!-- Node7&#45;&gt;Node13 -->
<g id="edge14_Node000007_Node000013" class="edge">
<title>Node7&#45;&gt;Node13</title>
<g id="a_edge14_Node000007_Node000013"><a xlink:title=" ">
<path fill="none" stroke="#63b8ff" d="M712.59,-152.8C674.9,-142.83 630.27,-130.82 590.12,-119.5 587.44,-118.74 584.7,-117.96 581.92,-117.17"/>
<polygon fill="#63b8ff" stroke="#63b8ff" points="711.51,-156.14 722.07,-155.31 713.3,-149.37 711.51,-156.14"/>
</a>
</g>
</g>
<!-- Node14 -->
<g id="Node000014" class="node">
<title>Node14</title>
<g id="a_Node000014"><a xlink:href="legacy_8cc.html" target="_top" xlink:title=" ">
<polygon fill="white" stroke="#666666" points="716.75,-119.5 599.5,-119.5 599.5,-77.75 716.75,-77.75 716.75,-119.5"/>
<text xml:space="preserve" text-anchor="start" x="607.5" y="-106" font-family="Helvetica,sans-Serif" font-size="10.00">frontend/node_modules</text>
<text xml:space="preserve" text-anchor="start" x="607.5" y="-94.75" font-family="Helvetica,sans-Serif" font-size="10.00">/@parcel/watcher/src</text>
<text xml:space="preserve" text-anchor="middle" x="658.12" y="-83.5" font-family="Helvetica,sans-Serif" font-size="10.00">/unix/legacy.cc</text>
</a>
</g>
</g>
<!-- Node7&#45;&gt;Node14 -->
<g id="edge15_Node000007_Node000014" class="edge">
<title>Node7&#45;&gt;Node14</title>
<g id="a_edge15_Node000007_Node000014"><a xlink:title=" ">
<path fill="none" stroke="#63b8ff" d="M751.3,-149.68C733.27,-139.99 713.02,-129.12 696.01,-119.98"/>
<polygon fill="#63b8ff" stroke="#63b8ff" points="749.54,-152.71 760.01,-154.36 752.85,-146.54 749.54,-152.71"/>
</a>
</g>
</g>
<!-- Node15 -->
<g id="Node000015" class="node">
<title>Node15</title>
<g id="a_Node000015"><a xlink:href="_wasm_backend_8hh.html" target="_top" xlink:title=" ">
<polygon fill="white" stroke="#666666" points="863,-119.5 735.25,-119.5 735.25,-77.75 863,-77.75 863,-119.5"/>
<text xml:space="preserve" text-anchor="start" x="743.25" y="-106" font-family="Helvetica,sans-Serif" font-size="10.00">frontend/node_modules</text>
<text xml:space="preserve" text-anchor="start" x="743.25" y="-94.75" font-family="Helvetica,sans-Serif" font-size="10.00">/@parcel/watcher/src</text>
<text xml:space="preserve" text-anchor="middle" x="799.12" y="-83.5" font-family="Helvetica,sans-Serif" font-size="10.00">/wasm/WasmBackend.hh</text>
</a>
</g>
</g>
<!-- Node7&#45;&gt;Node15 -->
<g id="edge16_Node000007_Node000015" class="edge">
<title>Node7&#45;&gt;Node15</title>
<g id="a_edge16_Node000007_Node000015"><a xlink:title=" ">
<path fill="none" stroke="#63b8ff" d="M799.12,-143.75C799.12,-135.71 799.12,-127.29 799.12,-119.98"/>
<polygon fill="#63b8ff" stroke="#63b8ff" points="795.63,-143.56 799.13,-153.56 802.63,-143.56 795.63,-143.56"/>
</a>
</g>
</g>
<!-- Node17 -->
<g id="Node000017" class="node">
<title>Node17</title>
<g id="a_Node000017"><a xlink:href="_windows_backend_8cc.html" target="_top" xlink:title=" ">
<polygon fill="white" stroke="#666666" points="1085.38,-41.75 932.88,-41.75 932.88,0 1085.38,0 1085.38,-41.75"/>
<text xml:space="preserve" text-anchor="start" x="940.88" y="-28.25" font-family="Helvetica,sans-Serif" font-size="10.00">frontend/node_modules</text>
<text xml:space="preserve" text-anchor="start" x="940.88" y="-17" font-family="Helvetica,sans-Serif" font-size="10.00">/@parcel/watcher/src</text>
<text xml:space="preserve" text-anchor="middle" x="1009.12" y="-5.75" font-family="Helvetica,sans-Serif" font-size="10.00">/windows/WindowsBackend.cc</text>
</a>
</g>
</g>
<!-- Node7&#45;&gt;Node17 -->
<g id="edge18_Node000007_Node000017" class="edge">
<title>Node7&#45;&gt;Node17</title>
<g id="a_edge18_Node000007_Node000017"><a xlink:title=" ">
<path fill="none" stroke="#63b8ff" d="M886.17,-166.74C947.73,-158.62 1022.64,-143.97 1042.12,-119.5 1060.29,-96.69 1041.94,-63.35 1026.22,-42.13"/>
<polygon fill="#63b8ff" stroke="#63b8ff" points="885.82,-163.25 876.35,-167.99 886.71,-170.19 885.82,-163.25"/>
</a>
</g>
</g>
<!-- Node18 -->
<g id="Node000018" class="node">
<title>Node18</title>
<g id="a_Node000018"><a xlink:href="_windows_backend_8hh.html" target="_top" xlink:title=" ">
<polygon fill="white" stroke="#666666" points="1033.38,-119.5 880.88,-119.5 880.88,-77.75 1033.38,-77.75 1033.38,-119.5"/>
<text xml:space="preserve" text-anchor="start" x="888.88" y="-106" font-family="Helvetica,sans-Serif" font-size="10.00">frontend/node_modules</text>
<text xml:space="preserve" text-anchor="start" x="888.88" y="-94.75" font-family="Helvetica,sans-Serif" font-size="10.00">/@parcel/watcher/src</text>
<text xml:space="preserve" text-anchor="middle" x="957.12" y="-83.5" font-family="Helvetica,sans-Serif" font-size="10.00">/windows/WindowsBackend.hh</text>
</a>
</g>
</g>
<!-- Node7&#45;&gt;Node18 -->
<g id="edge19_Node000007_Node000018" class="edge">
<title>Node7&#45;&gt;Node18</title>
<g id="a_edge19_Node000007_Node000018"><a xlink:title=" ">
<path fill="none" stroke="#63b8ff" d="M851.59,-150.22C872.08,-140.4 895.26,-129.29 914.67,-119.98"/>
<polygon fill="#63b8ff" stroke="#63b8ff" points="850.34,-146.94 842.83,-154.42 853.36,-153.25 850.34,-146.94"/>
</a>
</g>
</g>
<!-- Node9 -->
<g id="Node000009" class="node">
<title>Node9</title>
<g id="a_Node000009"><a xlink:href="_kqueue_backend_8cc.html" target="_top" xlink:title=" ">
<polygon fill="white" stroke="#666666" points="138.25,-41.75 0,-41.75 0,0 138.25,0 138.25,-41.75"/>
<text xml:space="preserve" text-anchor="start" x="8" y="-28.25" font-family="Helvetica,sans-Serif" font-size="10.00">frontend/node_modules</text>
<text xml:space="preserve" text-anchor="start" x="8" y="-17" font-family="Helvetica,sans-Serif" font-size="10.00">/@parcel/watcher/src</text>
<text xml:space="preserve" text-anchor="middle" x="69.12" y="-5.75" font-family="Helvetica,sans-Serif" font-size="10.00">/kqueue/KqueueBackend.cc</text>
</a>
</g>
</g>
<!-- Node8&#45;&gt;Node9 -->
<g id="edge10_Node000008_Node000009" class="edge">
<title>Node8&#45;&gt;Node9</title>
<g id="a_edge10_Node000008_Node000009"><a xlink:title=" ">
<path fill="none" stroke="#63b8ff" d="M69.12,-66C69.12,-57.96 69.12,-49.54 69.12,-42.23"/>
<polygon fill="#63b8ff" stroke="#63b8ff" points="65.63,-65.81 69.13,-75.81 72.63,-65.81 65.63,-65.81"/>
</a>
</g>
</g>
<!-- Node11 -->
<g id="Node000011" class="node">
<title>Node11</title>
<g id="a_Node000011"><a xlink:href="_inotify_backend_8cc.html" target="_top" xlink:title=" ">
<polygon fill="white" stroke="#666666" points="277.62,-41.75 156.62,-41.75 156.62,0 277.62,0 277.62,-41.75"/>
<text xml:space="preserve" text-anchor="start" x="164.62" y="-28.25" font-family="Helvetica,sans-Serif" font-size="10.00">frontend/node_modules</text>
<text xml:space="preserve" text-anchor="start" x="164.62" y="-17" font-family="Helvetica,sans-Serif" font-size="10.00">/@parcel/watcher/src</text>
<text xml:space="preserve" text-anchor="middle" x="217.12" y="-5.75" font-family="Helvetica,sans-Serif" font-size="10.00">/linux/InotifyBackend.cc</text>
</a>
</g>
</g>
<!-- Node10&#45;&gt;Node11 -->
<g id="edge12_Node000010_Node000011" class="edge">
<title>Node10&#45;&gt;Node11</title>
<g id="a_edge12_Node000010_Node000011"><a xlink:title=" ">
<path fill="none" stroke="#63b8ff" d="M217.12,-66C217.12,-57.96 217.12,-49.54 217.12,-42.23"/>
<polygon fill="#63b8ff" stroke="#63b8ff" points="213.63,-65.81 217.13,-75.81 220.63,-65.81 213.63,-65.81"/>
</a>
</g>
</g>
<!-- Node16 -->
<g id="Node000016" class="node">
<title>Node16</title>
<g id="a_Node000016"><a xlink:href="_wasm_backend_8cc.html" target="_top" xlink:title=" ">
<polygon fill="white" stroke="#666666" points="863,-41.75 735.25,-41.75 735.25,0 863,0 863,-41.75"/>
<text xml:space="preserve" text-anchor="start" x="743.25" y="-28.25" font-family="Helvetica,sans-Serif" font-size="10.00">frontend/node_modules</text>
<text xml:space="preserve" text-anchor="start" x="743.25" y="-17" font-family="Helvetica,sans-Serif" font-size="10.00">/@parcel/watcher/src</text>
<text xml:space="preserve" text-anchor="middle" x="799.12" y="-5.75" font-family="Helvetica,sans-Serif" font-size="10.00">/wasm/WasmBackend.cc</text>
</a>
</g>
</g>
<!-- Node15&#45;&gt;Node16 -->
<g id="edge17_Node000015_Node000016" class="edge">
<title>Node15&#45;&gt;Node16</title>
<g id="a_edge17_Node000015_Node000016"><a xlink:title=" ">
<path fill="none" stroke="#63b8ff" d="M799.12,-66C799.12,-57.96 799.12,-49.54 799.12,-42.23"/>
<polygon fill="#63b8ff" stroke="#63b8ff" points="795.63,-65.81 799.13,-75.81 802.63,-65.81 795.63,-65.81"/>
</a>
</g>
</g>
<!-- Node18&#45;&gt;Node17 -->
<g id="edge20_Node000018_Node000017" class="edge">
<title>Node18&#45;&gt;Node17</title>
<g id="a_edge20_Node000018_Node000017"><a xlink:title=" ">
<path fill="none" stroke="#63b8ff" d="M977.49,-67.95C983.41,-59.34 989.73,-50.13 995.15,-42.23"/>
<polygon fill="#63b8ff" stroke="#63b8ff" points="974.69,-65.85 971.92,-76.08 980.46,-69.81 974.69,-65.85"/>
</a>
</g>
</g>
<!-- Node20 -->
<g id="Node000020" class="node">
<title>Node20</title>
<g id="a_Node000020"><a xlink:href="_watchman_backend_8cc.html" target="_top" xlink:title=" ">
<polygon fill="white" stroke="#666666" points="1389.75,-119.5 1224.5,-119.5 1224.5,-77.75 1389.75,-77.75 1389.75,-119.5"/>
<text xml:space="preserve" text-anchor="start" x="1232.5" y="-106" font-family="Helvetica,sans-Serif" font-size="10.00">frontend/node_modules</text>
<text xml:space="preserve" text-anchor="start" x="1232.5" y="-94.75" font-family="Helvetica,sans-Serif" font-size="10.00">/@parcel/watcher/src</text>
<text xml:space="preserve" text-anchor="middle" x="1307.12" y="-83.5" font-family="Helvetica,sans-Serif" font-size="10.00">/watchman/WatchmanBackend.cc</text>
</a>
</g>
</g>
<!-- Node19&#45;&gt;Node20 -->
<g id="edge22_Node000019_Node000020" class="edge">
<title>Node19&#45;&gt;Node20</title>
<g id="a_edge22_Node000019_Node000020"><a xlink:title=" ">
<path fill="none" stroke="#63b8ff" d="M1260.13,-147.09C1269.05,-138.09 1278.73,-128.31 1286.97,-119.98"/>
<polygon fill="#63b8ff" stroke="#63b8ff" points="1257.84,-144.43 1253.29,-154 1262.81,-149.36 1257.84,-144.43"/>
</a>
</g>
</g>
</g>
</svg>
