<?xml version="1.0" encoding="UTF-8" standalone="no"?>
<!DOCTYPE svg PUBLIC "-//W3C//DTD SVG 1.1//EN"
 "http://www.w3.org/Graphics/SVG/1.1/DTD/svg11.dtd">
<!-- Generated by graphviz version 14.0.4 (20251115.1723)
 -->
<!-- Title: frontend/node_modules/@parcel/watcher/src/watchman/WatchmanBackend.hh Pages: 1 -->
<svg width="1182pt" height="437pt"
 viewBox="0.00 0.00 1182.00 437.00" xmlns="http://www.w3.org/2000/svg" xmlns:xlink="http://www.w3.org/1999/xlink">
<g id="graph0" class="graph" transform="scale(1 1) rotate(0) translate(4 432.5)">
<title>frontend/node_modules/@parcel/watcher/src/watchman/WatchmanBackend.hh</title>
<!-- Node1 -->
<g id="Node000001" class="node">
<title>Node1</title>
<g id="a_Node000001"><a xlink:title=" ">
<polygon fill="#999999" stroke="#666666" points="795.12,-428.5 629.88,-428.5 629.88,-386.75 795.12,-386.75 795.12,-428.5"/>
<text xml:space="preserve" text-anchor="start" x="637.88" y="-415" font-family="Helvetica,sans-Serif" font-size="10.00">frontend/node_modules</text>
<text xml:space="preserve" text-anchor="start" x="637.88" y="-403.75" font-family="Helvetica,sans-Serif" font-size="10.00">/@parcel/watcher/src</text>
<text xml:space="preserve" text-anchor="middle" x="712.5" y="-392.5" font-family="Helvetica,sans-Serif" font-size="10.00">/watchman/WatchmanBackend.hh</text>
</a>
</g>
</g>
<!-- Node2 -->
<g id="Node000002" class="node">
<title>Node2</title>
<g id="a_Node000002"><a xlink:href="_backend_8hh.html" target="_top" xlink:title=" ">
<polygon fill="white" stroke="#666666" points="624.88,-350.75 548.12,-350.75 548.12,-331.5 624.88,-331.5 624.88,-350.75"/>
<text xml:space="preserve" text-anchor="middle" x="586.5" y="-337.25" font-family="Helvetica,sans-Serif" font-size="10.00">../Backend.hh</text>
</a>
</g>
</g>
<!-- Node1&#45;&gt;Node2 -->
<g id="edge1_Node000001_Node000002" class="edge">
<title>Node1&#45;&gt;Node2</title>
<g id="a_edge1_Node000001_Node000002"><a xlink:title=" ">
<path fill="none" stroke="#63b8ff" d="M672.98,-386.39C653.85,-376.6 631.36,-365.09 614.11,-356.26"/>
<polygon fill="#63b8ff" stroke="#63b8ff" points="615.96,-353.28 605.47,-351.83 612.77,-359.51 615.96,-353.28"/>
</a>
</g>
</g>
<!-- Node30 -->
<g id="Node000030" class="node">
<title>Node30</title>
<g id="a_Node000030"><a xlink:href="_signal_8hh.html" target="_top" xlink:title=" ">
<polygon fill="white" stroke="#666666" points="829.75,-185 773.25,-185 773.25,-165.75 829.75,-165.75 829.75,-185"/>
<text xml:space="preserve" text-anchor="middle" x="801.5" y="-171.5" font-family="Helvetica,sans-Serif" font-size="10.00">Signal.hh</text>
</a>
</g>
</g>
<!-- Node1&#45;&gt;Node30 -->
<g id="edge53_Node000001_Node000030" class="edge">
<title>Node1&#45;&gt;Node30</title>
<g id="a_edge53_Node000001_Node000030"><a xlink:title=" ">
<path fill="none" stroke="#63b8ff" d="M723,-386.37C738.65,-355.53 768.2,-294.63 786.5,-240.25 791.35,-225.84 795.22,-209.09 797.81,-196.35"/>
<polygon fill="#63b8ff" stroke="#63b8ff" points="801.22,-197.17 799.68,-186.68 794.35,-195.84 801.22,-197.17"/>
</a>
</g>
</g>
<!-- Node32 -->
<g id="Node000032" class="node">
<title>Node32</title>
<g id="a_Node000032"><a xlink:href="_b_s_e_r_8hh.html" target="_top" xlink:title=" ">
<polygon fill="white" stroke="#666666" points="158.12,-240.25 94.88,-240.25 94.88,-221 158.12,-221 158.12,-240.25"/>
<text xml:space="preserve" text-anchor="middle" x="126.5" y="-226.75" font-family="Helvetica,sans-Serif" font-size="10.00">./BSER.hh</text>
</a>
</g>
</g>
<!-- Node1&#45;&gt;Node32 -->
<g id="edge47_Node000001_Node000032" class="edge">
<title>Node1&#45;&gt;Node32</title>
<g id="a_edge47_Node000001_Node000032"><a xlink:title=" ">
<path fill="none" stroke="#63b8ff" d="M643.89,-386.32C568.86,-364.11 445.09,-327.39 338.5,-295.5 278.83,-277.65 209.77,-256.81 167.11,-243.91"/>
<polygon fill="#63b8ff" stroke="#63b8ff" points="168.37,-240.63 157.78,-241.09 166.34,-247.33 168.37,-240.63"/>
</a>
</g>
</g>
<!-- Node34 -->
<g id="Node000034" class="node">
<title>Node34</title>
<g id="a_Node000034"><a xlink:href="_i_p_c_8hh.html" target="_top" xlink:title=" ">
<polygon fill="white" stroke="#666666" points="1023.88,-350.75 971.12,-350.75 971.12,-331.5 1023.88,-331.5 1023.88,-350.75"/>
<text xml:space="preserve" text-anchor="middle" x="997.5" y="-337.25" font-family="Helvetica,sans-Serif" font-size="10.00">./IPC.hh</text>
</a>
</g>
</g>
<!-- Node1&#45;&gt;Node34 -->
<g id="edge54_Node000001_Node000034" class="edge">
<title>Node1&#45;&gt;Node34</title>
<g id="a_edge54_Node000001_Node000034"><a xlink:title=" ">
<path fill="none" stroke="#63b8ff" d="M795.32,-387.88C849.7,-375.57 918.23,-360.06 959.92,-350.63"/>
<polygon fill="#63b8ff" stroke="#63b8ff" points="960.47,-354.09 969.45,-348.47 958.92,-347.27 960.47,-354.09"/>
</a>
</g>
</g>
<!-- Node3 -->
<g id="Node000003" class="node">
<title>Node3</title>
<g id="a_Node000003"><a xlink:href="_event_8hh.html" target="_top" xlink:title=" ">
<polygon fill="white" stroke="#666666" points="467,-185 412,-185 412,-165.75 467,-165.75 467,-185"/>
<text xml:space="preserve" text-anchor="middle" x="439.5" y="-171.5" font-family="Helvetica,sans-Serif" font-size="10.00">Event.hh</text>
</a>
</g>
</g>
<!-- Node2&#45;&gt;Node3 -->
<g id="edge2_Node000002_Node000003" class="edge">
<title>Node2&#45;&gt;Node3</title>
<g id="a_edge2_Node000002_Node000003"><a xlink:title=" ">
<path fill="none" stroke="#63b8ff" d="M547.67,-332.24C502.29,-320.73 429.26,-294.48 396.5,-240.25 386.39,-223.51 401.87,-205.04 417.01,-192.29"/>
<polygon fill="#63b8ff" stroke="#63b8ff" points="418.77,-195.35 424.49,-186.43 414.45,-189.84 418.77,-195.35"/>
</a>
</g>
</g>
<!-- Node21 -->
<g id="Node000021" class="node">
<title>Node21</title>
<g id="a_Node000021"><a xlink:href="_watcher_8hh.html" target="_top" xlink:title=" ">
<polygon fill="white" stroke="#666666" points="618.88,-295.5 554.12,-295.5 554.12,-276.25 618.88,-276.25 618.88,-295.5"/>
<text xml:space="preserve" text-anchor="middle" x="586.5" y="-282" font-family="Helvetica,sans-Serif" font-size="10.00">Watcher.hh</text>
</a>
</g>
</g>
<!-- Node2&#45;&gt;Node21 -->
<g id="edge23_Node000002_Node000021" class="edge">
<title>Node2&#45;&gt;Node21</title>
<g id="a_edge23_Node000002_Node000021"><a xlink:title=" ">
<path fill="none" stroke="#63b8ff" d="M586.5,-331.33C586.5,-324.82 586.5,-315.67 586.5,-307.37"/>
<polygon fill="#63b8ff" stroke="#63b8ff" points="590,-307.37 586.5,-297.37 583,-307.37 590,-307.37"/>
</a>
</g>
</g>
<!-- Node28 -->
<g id="Node000028" class="node">
<title>Node28</title>
<g id="a_Node000028"><a xlink:title=" ">
<polygon fill="#e0e0e0" stroke="#999999" points="217,-185 174,-185 174,-165.75 217,-165.75 217,-185"/>
<text xml:space="preserve" text-anchor="middle" x="195.5" y="-171.5" font-family="Helvetica,sans-Serif" font-size="10.00">thread</text>
</a>
</g>
</g>
<!-- Node2&#45;&gt;Node28 -->
<g id="edge46_Node000002_Node000028" class="edge">
<title>Node2&#45;&gt;Node28</title>
<g id="a_edge46_Node000002_Node000028"><a xlink:title=" ">
<path fill="none" stroke="#63b8ff" d="M547.69,-334C485.01,-322.83 359.15,-295.1 266.5,-240.25 245.2,-227.64 224.59,-208.01 211.12,-193.84"/>
<polygon fill="#63b8ff" stroke="#63b8ff" points="213.74,-191.53 204.39,-186.56 208.6,-196.28 213.74,-191.53"/>
</a>
</g>
</g>
<!-- Node2&#45;&gt;Node30 -->
<g id="edge45_Node000002_Node000030" class="edge">
<title>Node2&#45;&gt;Node30</title>
<g id="a_edge45_Node000002_Node000030"><a xlink:title=" ">
<path fill="none" stroke="#63b8ff" d="M612.15,-331.01C649.66,-316.63 719.98,-285.57 765.5,-240.25 778.33,-227.48 788.01,-209.19 794.09,-195.45"/>
<polygon fill="#63b8ff" stroke="#63b8ff" points="797.16,-197.18 797.75,-186.6 790.69,-194.5 797.16,-197.18"/>
</a>
</g>
</g>
<!-- Node4 -->
<g id="Node000004" class="node">
<title>Node4</title>
<g id="a_Node000004"><a xlink:title=" ">
<polygon fill="#e0e0e0" stroke="#999999" points="708.5,-74.5 668.5,-74.5 668.5,-55.25 708.5,-55.25 708.5,-74.5"/>
<text xml:space="preserve" text-anchor="middle" x="688.5" y="-61" font-family="Helvetica,sans-Serif" font-size="10.00">string</text>
</a>
</g>
</g>
<!-- Node3&#45;&gt;Node4 -->
<g id="edge3_Node000003_Node000004" class="edge">
<title>Node3&#45;&gt;Node4</title>
<g id="a_edge3_Node000003_Node000004"><a xlink:title=" ">
<path fill="none" stroke="#63b8ff" d="M467.42,-167.94C513.21,-157.29 600.52,-136.48 613.5,-129.75 636.64,-117.76 658.8,-97.41 672.96,-82.9"/>
<polygon fill="#63b8ff" stroke="#63b8ff" points="675.3,-85.52 679.63,-75.85 670.21,-80.71 675.3,-85.52"/>
</a>
</g>
</g>
<!-- Node5 -->
<g id="Node000005" class="node">
<title>Node5</title>
<g id="a_Node000005"><a xlink:title=" ">
<polygon fill="#e0e0e0" stroke="#999999" points="644.12,-74.5 580.88,-74.5 580.88,-55.25 644.12,-55.25 644.12,-74.5"/>
<text xml:space="preserve" text-anchor="middle" x="612.5" y="-61" font-family="Helvetica,sans-Serif" font-size="10.00">node_api.h</text>
</a>
</g>
</g>
<!-- Node3&#45;&gt;Node5 -->
<g id="edge4_Node000003_Node000005" class="edge">
<title>Node3&#45;&gt;Node5</title>
<g id="a_edge4_Node000003_Node000005"><a xlink:title=" ">
<path fill="none" stroke="#63b8ff" d="M467.38,-167.83C509.24,-157.77 584.44,-138.75 593.5,-129.75 605.07,-118.27 609.66,-100.08 611.45,-86.04"/>
<polygon fill="#63b8ff" stroke="#63b8ff" points="614.93,-86.4 612.29,-76.14 607.95,-85.8 614.93,-86.4"/>
</a>
</g>
</g>
<!-- Node6 -->
<g id="Node000006" class="node">
<title>Node6</title>
<g id="a_Node000006"><a xlink:href="include_8h.html" target="_top" xlink:title=" ">
<polygon fill="white" stroke="#666666" points="463.62,-129.75 379.38,-129.75 379.38,-110.5 463.62,-110.5 463.62,-129.75"/>
<text xml:space="preserve" text-anchor="middle" x="421.5" y="-116.25" font-family="Helvetica,sans-Serif" font-size="10.00">wasm/include.h</text>
</a>
</g>
</g>
<!-- Node3&#45;&gt;Node6 -->
<g id="edge5_Node000003_Node000006" class="edge">
<title>Node3&#45;&gt;Node6</title>
<g id="a_edge5_Node000003_Node000006"><a xlink:title=" ">
<path fill="none" stroke="#63b8ff" d="M436.53,-165.58C434.25,-158.84 431.01,-149.27 428.13,-140.74"/>
<polygon fill="#63b8ff" stroke="#63b8ff" points="431.54,-139.9 425.02,-131.54 424.91,-142.14 431.54,-139.9"/>
</a>
</g>
</g>
<!-- Node7 -->
<g id="Node000007" class="node">
<title>Node7</title>
<g id="a_Node000007"><a xlink:href="napi_8h.html" target="_top" xlink:title=" ">
<polygon fill="white" stroke="#666666" points="285.62,-129.75 243.38,-129.75 243.38,-110.5 285.62,-110.5 285.62,-129.75"/>
<text xml:space="preserve" text-anchor="middle" x="264.5" y="-116.25" font-family="Helvetica,sans-Serif" font-size="10.00">napi.h</text>
</a>
</g>
</g>
<!-- Node3&#45;&gt;Node7 -->
<g id="edge6_Node000003_Node000007" class="edge">
<title>Node3&#45;&gt;Node7</title>
<g id="a_edge6_Node000003_Node000007"><a xlink:title=" ">
<path fill="none" stroke="#63b8ff" d="M411.77,-165.94C380.56,-156.44 329.92,-141.03 296.91,-130.99"/>
<polygon fill="#63b8ff" stroke="#63b8ff" points="298.06,-127.68 287.48,-128.12 296.03,-134.38 298.06,-127.68"/>
</a>
</g>
</g>
<!-- Node11 -->
<g id="Node000011" class="node">
<title>Node11</title>
<g id="a_Node000011"><a xlink:title=" ">
<polygon fill="#e0e0e0" stroke="#999999" points="435,-74.5 392,-74.5 392,-55.25 435,-55.25 435,-74.5"/>
<text xml:space="preserve" text-anchor="middle" x="413.5" y="-61" font-family="Helvetica,sans-Serif" font-size="10.00">mutex</text>
</a>
</g>
</g>
<!-- Node3&#45;&gt;Node11 -->
<g id="edge20_Node000003_Node000011" class="edge">
<title>Node3&#45;&gt;Node11</title>
<g id="a_edge20_Node000003_Node000011"><a xlink:title=" ">
<path fill="none" stroke="#63b8ff" d="M414.34,-165.39C398.67,-158.32 379.77,-146.79 370.5,-129.75 361.24,-112.73 376.24,-94.51 391.01,-81.9"/>
<polygon fill="#63b8ff" stroke="#63b8ff" points="393.09,-84.72 398.76,-75.78 388.75,-79.23 393.09,-84.72"/>
</a>
</g>
</g>
<!-- Node19 -->
<g id="Node000019" class="node">
<title>Node19</title>
<g id="a_Node000019"><a xlink:title=" ">
<polygon fill="#e0e0e0" stroke="#999999" points="516.88,-129.75 482.12,-129.75 482.12,-110.5 516.88,-110.5 516.88,-129.75"/>
<text xml:space="preserve" text-anchor="middle" x="499.5" y="-116.25" font-family="Helvetica,sans-Serif" font-size="10.00">map</text>
</a>
</g>
</g>
<!-- Node3&#45;&gt;Node19 -->
<g id="edge21_Node000003_Node000019" class="edge">
<title>Node3&#45;&gt;Node19</title>
<g id="a_edge21_Node000003_Node000019"><a xlink:title=" ">
<path fill="none" stroke="#63b8ff" d="M449.68,-165.34C458.26,-157.72 470.77,-146.62 481.1,-137.45"/>
<polygon fill="#63b8ff" stroke="#63b8ff" points="483.18,-140.29 488.34,-131.03 478.54,-135.05 483.18,-140.29"/>
</a>
</g>
</g>
<!-- Node20 -->
<g id="Node000020" class="node">
<title>Node20</title>
<g id="a_Node000020"><a xlink:title=" ">
<polygon fill="#e0e0e0" stroke="#999999" points="584.38,-129.75 534.62,-129.75 534.62,-110.5 584.38,-110.5 584.38,-129.75"/>
<text xml:space="preserve" text-anchor="middle" x="559.5" y="-116.25" font-family="Helvetica,sans-Serif" font-size="10.00">optional</text>
</a>
</g>
</g>
<!-- Node3&#45;&gt;Node20 -->
<g id="edge22_Node000003_Node000020" class="edge">
<title>Node3&#45;&gt;Node20</title>
<g id="a_edge22_Node000003_Node000020"><a xlink:title=" ">
<path fill="none" stroke="#63b8ff" d="M459.86,-165.34C478.73,-156.97 507.09,-144.38 528.73,-134.78"/>
<polygon fill="#63b8ff" stroke="#63b8ff" points="529.94,-138.07 537.66,-130.82 527.1,-131.67 529.94,-138.07"/>
</a>
</g>
</g>
<!-- Node7&#45;&gt;Node4 -->
<g id="edge12_Node000007_Node000004" class="edge">
<title>Node7&#45;&gt;Node4</title>
<g id="a_edge12_Node000007_Node000004"><a xlink:title=" ">
<path fill="none" stroke="#63b8ff" d="M285.87,-113.35C290.35,-112.29 295.06,-111.27 299.5,-110.5 455.33,-83.51 497.67,-101.49 653.5,-74.5 654.7,-74.29 655.92,-74.07 657.16,-73.82"/>
<polygon fill="#63b8ff" stroke="#63b8ff" points="657.75,-77.28 666.77,-71.7 656.25,-70.44 657.75,-77.28"/>
</a>
</g>
</g>
<!-- Node7&#45;&gt;Node5 -->
<g id="edge7_Node000007_Node000005" class="edge">
<title>Node7&#45;&gt;Node5</title>
<g id="a_edge7_Node000007_Node000005"><a xlink:title=" ">
<path fill="none" stroke="#63b8ff" d="M285.9,-113.49C290.37,-112.42 295.08,-111.36 299.5,-110.5 395.23,-91.93 508.83,-77.64 569.4,-70.64"/>
<polygon fill="#63b8ff" stroke="#63b8ff" points="569.74,-74.12 579.28,-69.51 568.95,-67.17 569.74,-74.12"/>
</a>
</g>
</g>
<!-- Node8 -->
<g id="Node000008" class="node">
<title>Node8</title>
<g id="a_Node000008"><a xlink:title=" ">
<polygon fill="#e0e0e0" stroke="#999999" points="210.5,-74.5 152.5,-74.5 152.5,-55.25 210.5,-55.25 210.5,-74.5"/>
<text xml:space="preserve" text-anchor="middle" x="181.5" y="-61" font-family="Helvetica,sans-Serif" font-size="10.00">functional</text>
</a>
</g>
</g>
<!-- Node7&#45;&gt;Node8 -->
<g id="edge8_Node000007_Node000008" class="edge">
<title>Node7&#45;&gt;Node8</title>
<g id="a_edge8_Node000007_Node000008"><a xlink:title=" ">
<path fill="none" stroke="#63b8ff" d="M250.42,-110.09C238.02,-102.14 219.71,-90.39 205.07,-81"/>
<polygon fill="#63b8ff" stroke="#63b8ff" points="207.23,-78.22 196.92,-75.77 203.45,-84.12 207.23,-78.22"/>
</a>
</g>
</g>
<!-- Node9 -->
<g id="Node000009" class="node">
<title>Node9</title>
<g id="a_Node000009"><a xlink:title=" ">
<polygon fill="#e0e0e0" stroke="#999999" points="300.62,-74.5 228.38,-74.5 228.38,-55.25 300.62,-55.25 300.62,-74.5"/>
<text xml:space="preserve" text-anchor="middle" x="264.5" y="-61" font-family="Helvetica,sans-Serif" font-size="10.00">initializer_list</text>
</a>
</g>
</g>
<!-- Node7&#45;&gt;Node9 -->
<g id="edge9_Node000007_Node000009" class="edge">
<title>Node7&#45;&gt;Node9</title>
<g id="a_edge9_Node000007_Node000009"><a xlink:title=" ">
<path fill="none" stroke="#63b8ff" d="M264.5,-110.33C264.5,-103.82 264.5,-94.67 264.5,-86.37"/>
<polygon fill="#63b8ff" stroke="#63b8ff" points="268,-86.37 264.5,-76.37 261,-86.37 268,-86.37"/>
</a>
</g>
</g>
<!-- Node10 -->
<g id="Node000010" class="node">
<title>Node10</title>
<g id="a_Node000010"><a xlink:title=" ">
<polygon fill="#e0e0e0" stroke="#999999" points="134.12,-74.5 82.88,-74.5 82.88,-55.25 134.12,-55.25 134.12,-74.5"/>
<text xml:space="preserve" text-anchor="middle" x="108.5" y="-61" font-family="Helvetica,sans-Serif" font-size="10.00">memory</text>
</a>
</g>
</g>
<!-- Node7&#45;&gt;Node10 -->
<g id="edge10_Node000007_Node000010" class="edge">
<title>Node7&#45;&gt;Node10</title>
<g id="a_edge10_Node000007_Node000010"><a xlink:title=" ">
<path fill="none" stroke="#63b8ff" d="M243.14,-111.83C217.94,-103.23 175.64,-88.79 145.17,-78.39"/>
<polygon fill="#63b8ff" stroke="#63b8ff" points="146.56,-75.17 135.97,-75.25 144.3,-81.79 146.56,-75.17"/>
</a>
</g>
</g>
<!-- Node7&#45;&gt;Node11 -->
<g id="edge11_Node000007_Node000011" class="edge">
<title>Node7&#45;&gt;Node11</title>
<g id="a_edge11_Node000007_Node000011"><a xlink:title=" ">
<path fill="none" stroke="#63b8ff" d="M285.85,-111.5C310.71,-102.61 352.06,-87.83 380.93,-77.51"/>
<polygon fill="#63b8ff" stroke="#63b8ff" points="382.04,-80.83 390.28,-74.17 379.69,-74.24 382.04,-80.83"/>
</a>
</g>
</g>
<!-- Node12 -->
<g id="Node000012" class="node">
<title>Node12</title>
<g id="a_Node000012"><a xlink:title=" ">
<polygon fill="#e0e0e0" stroke="#999999" points="43,-74.5 0,-74.5 0,-55.25 43,-55.25 43,-74.5"/>
<text xml:space="preserve" text-anchor="middle" x="21.5" y="-61" font-family="Helvetica,sans-Serif" font-size="10.00">vector</text>
</a>
</g>
</g>
<!-- Node7&#45;&gt;Node12 -->
<g id="edge13_Node000007_Node000012" class="edge">
<title>Node7&#45;&gt;Node12</title>
<g id="a_edge13_Node000007_Node000012"><a xlink:title=" ">
<path fill="none" stroke="#63b8ff" d="M242.94,-114.4C200.26,-105.05 104.82,-84.13 54.31,-73.06"/>
<polygon fill="#63b8ff" stroke="#63b8ff" points="55.36,-69.71 44.84,-70.99 53.86,-76.55 55.36,-69.71"/>
</a>
</g>
</g>
<!-- Node13 -->
<g id="Node000013" class="node">
<title>Node13</title>
<g id="a_Node000013"><a xlink:href="napi-inl_8h.html" target="_top" xlink:title=" ">
<polygon fill="white" stroke="#666666" points="374,-74.5 319,-74.5 319,-55.25 374,-55.25 374,-74.5"/>
<text xml:space="preserve" text-anchor="middle" x="346.5" y="-61" font-family="Helvetica,sans-Serif" font-size="10.00">napi&#45;inl.h</text>
</a>
</g>
</g>
<!-- Node7&#45;&gt;Node13 -->
<g id="edge14_Node000007_Node000013" class="edge">
<title>Node7&#45;&gt;Node13</title>
<g id="a_edge14_Node000007_Node000013"><a xlink:title=" ">
<path fill="none" stroke="#63b8ff" d="M278.41,-110.09C290.66,-102.14 308.75,-90.39 323.21,-81"/>
<polygon fill="#63b8ff" stroke="#63b8ff" points="324.77,-84.16 331.25,-75.78 320.96,-78.29 324.77,-84.16"/>
</a>
</g>
</g>
<!-- Node14 -->
<g id="Node000014" class="node">
<title>Node14</title>
<g id="a_Node000014"><a xlink:title=" ">
<polygon fill="#e0e0e0" stroke="#999999" points="233.38,-19.25 177.62,-19.25 177.62,0 233.38,0 233.38,-19.25"/>
<text xml:space="preserve" text-anchor="middle" x="205.5" y="-5.75" font-family="Helvetica,sans-Serif" font-size="10.00">algorithm</text>
</a>
</g>
</g>
<!-- Node13&#45;&gt;Node14 -->
<g id="edge15_Node000013_Node000014" class="edge">
<title>Node13&#45;&gt;Node14</title>
<g id="a_edge15_Node000013_Node000014"><a xlink:title=" ">
<path fill="none" stroke="#63b8ff" d="M322.58,-54.84C300,-46.31 265.86,-33.42 240.27,-23.76"/>
<polygon fill="#63b8ff" stroke="#63b8ff" points="241.54,-20.5 230.95,-20.24 239.07,-27.04 241.54,-20.5"/>
</a>
</g>
</g>
<!-- Node15 -->
<g id="Node000015" class="node">
<title>Node15</title>
<g id="a_Node000015"><a xlink:title=" ">
<polygon fill="#e0e0e0" stroke="#999999" points="297.12,-19.25 251.88,-19.25 251.88,0 297.12,0 297.12,-19.25"/>
<text xml:space="preserve" text-anchor="middle" x="274.5" y="-5.75" font-family="Helvetica,sans-Serif" font-size="10.00">cstring</text>
</a>
</g>
</g>
<!-- Node13&#45;&gt;Node15 -->
<g id="edge16_Node000013_Node000015" class="edge">
<title>Node13&#45;&gt;Node15</title>
<g id="a_edge16_Node000013_Node000015"><a xlink:title=" ">
<path fill="none" stroke="#63b8ff" d="M334.29,-54.84C323.67,-46.99 308.06,-35.45 295.46,-26.12"/>
<polygon fill="#63b8ff" stroke="#63b8ff" points="297.87,-23.56 287.75,-20.42 293.71,-29.19 297.87,-23.56"/>
</a>
</g>
</g>
<!-- Node16 -->
<g id="Node000016" class="node">
<title>Node16</title>
<g id="a_Node000016"><a xlink:title=" ">
<polygon fill="#e0e0e0" stroke="#999999" points="377.38,-19.25 315.62,-19.25 315.62,0 377.38,0 377.38,-19.25"/>
<text xml:space="preserve" text-anchor="middle" x="346.5" y="-5.75" font-family="Helvetica,sans-Serif" font-size="10.00">type_traits</text>
</a>
</g>
</g>
<!-- Node13&#45;&gt;Node16 -->
<g id="edge17_Node000013_Node000016" class="edge">
<title>Node13&#45;&gt;Node16</title>
<g id="a_edge17_Node000013_Node000016"><a xlink:title=" ">
<path fill="none" stroke="#63b8ff" d="M346.5,-55.08C346.5,-48.57 346.5,-39.42 346.5,-31.12"/>
<polygon fill="#63b8ff" stroke="#63b8ff" points="350,-31.12 346.5,-21.12 343,-31.12 350,-31.12"/>
</a>
</g>
</g>
<!-- Node17 -->
<g id="Node000017" class="node">
<title>Node17</title>
<g id="a_Node000017"><a xlink:title=" ">
<polygon fill="#e0e0e0" stroke="#999999" points="435.12,-19.25 395.88,-19.25 395.88,0 435.12,0 435.12,-19.25"/>
<text xml:space="preserve" text-anchor="middle" x="415.5" y="-5.75" font-family="Helvetica,sans-Serif" font-size="10.00">utility</text>
</a>
</g>
</g>
<!-- Node13&#45;&gt;Node17 -->
<g id="edge18_Node000013_Node000017" class="edge">
<title>Node13&#45;&gt;Node17</title>
<g id="a_edge18_Node000013_Node000017"><a xlink:title=" ">
<path fill="none" stroke="#63b8ff" d="M358.2,-54.84C368.28,-47.07 383.04,-35.67 395.06,-26.4"/>
<polygon fill="#63b8ff" stroke="#63b8ff" points="396.99,-29.33 402.77,-20.45 392.71,-23.79 396.99,-29.33"/>
</a>
</g>
</g>
<!-- Node18 -->
<g id="Node000018" class="node">
<title>Node18</title>
<g id="a_Node000018"><a xlink:href="napi-inl_8deprecated_8h.html" target="_top" xlink:title=" ">
<polygon fill="white" stroke="#666666" points="559.5,-19.25 453.5,-19.25 453.5,0 559.5,0 559.5,-19.25"/>
<text xml:space="preserve" text-anchor="middle" x="506.5" y="-5.75" font-family="Helvetica,sans-Serif" font-size="10.00">napi&#45;inl.deprecated.h</text>
</a>
</g>
</g>
<!-- Node13&#45;&gt;Node18 -->
<g id="edge19_Node000013_Node000018" class="edge">
<title>Node13&#45;&gt;Node18</title>
<g id="a_edge19_Node000013_Node000018"><a xlink:title=" ">
<path fill="none" stroke="#63b8ff" d="M373.64,-54.84C399.73,-46.16 439.4,-32.96 468.6,-23.24"/>
<polygon fill="#63b8ff" stroke="#63b8ff" points="469.41,-26.66 477.79,-20.18 467.2,-20.02 469.41,-26.66"/>
</a>
</g>
</g>
<!-- Node21&#45;&gt;Node3 -->
<g id="edge31_Node000021_Node000003" class="edge">
<title>Node21&#45;&gt;Node3</title>
<g id="a_edge31_Node000021_Node000003"><a xlink:title=" ">
<path fill="none" stroke="#63b8ff" d="M574.22,-275.81C549.19,-257.34 492,-215.13 460.79,-192.09"/>
<polygon fill="#63b8ff" stroke="#63b8ff" points="462.98,-189.36 452.86,-186.24 458.83,-194.99 462.98,-189.36"/>
</a>
</g>
</g>
<!-- Node21&#45;&gt;Node5 -->
<g id="edge27_Node000021_Node000005" class="edge">
<title>Node21&#45;&gt;Node5</title>
<g id="a_edge27_Node000021_Node000005"><a xlink:title=" ">
<path fill="none" stroke="#63b8ff" d="M619.13,-276.09C637.08,-269.41 657.82,-258.22 668.5,-240.25 699.56,-187.98 652.98,-116.51 627.41,-83.68"/>
<polygon fill="#63b8ff" stroke="#63b8ff" points="630.21,-81.57 621.21,-75.98 624.75,-85.96 630.21,-81.57"/>
</a>
</g>
</g>
<!-- Node22 -->
<g id="Node000022" class="node">
<title>Node22</title>
<g id="a_Node000022"><a xlink:title=" ">
<polygon fill="#e0e0e0" stroke="#999999" points="848.5,-129.75 754.5,-129.75 754.5,-110.5 848.5,-110.5 848.5,-129.75"/>
<text xml:space="preserve" text-anchor="middle" x="801.5" y="-116.25" font-family="Helvetica,sans-Serif" font-size="10.00">condition_variable</text>
</a>
</g>
</g>
<!-- Node21&#45;&gt;Node22 -->
<g id="edge24_Node000021_Node000022" class="edge">
<title>Node21&#45;&gt;Node22</title>
<g id="a_edge24_Node000021_Node000022"><a xlink:title=" ">
<path fill="none" stroke="#63b8ff" d="M619.13,-276.96C643.4,-269.99 676.51,-258.14 701.5,-240.25 704.16,-238.35 760.14,-171.01 787.16,-138.44"/>
<polygon fill="#63b8ff" stroke="#63b8ff" points="789.58,-141 793.27,-131.07 784.19,-136.53 789.58,-141"/>
</a>
</g>
</g>
<!-- Node23 -->
<g id="Node000023" class="node">
<title>Node23</title>
<g id="a_Node000023"><a xlink:title=" ">
<polygon fill="#e0e0e0" stroke="#999999" points="601.25,-185 523.75,-185 523.75,-165.75 601.25,-165.75 601.25,-185"/>
<text xml:space="preserve" text-anchor="middle" x="562.5" y="-171.5" font-family="Helvetica,sans-Serif" font-size="10.00">unordered_set</text>
</a>
</g>
</g>
<!-- Node21&#45;&gt;Node23 -->
<g id="edge25_Node000021_Node000023" class="edge">
<title>Node21&#45;&gt;Node23</title>
<g id="a_edge25_Node000021_Node000023"><a xlink:title=" ">
<path fill="none" stroke="#63b8ff" d="M576.89,-276.04C568.63,-267.72 557.3,-254.46 552.5,-240.25 547.66,-225.9 550.69,-208.94 554.65,-196.1"/>
<polygon fill="#63b8ff" stroke="#63b8ff" points="557.94,-197.3 557.99,-186.7 551.35,-194.95 557.94,-197.3"/>
</a>
</g>
</g>
<!-- Node24 -->
<g id="Node000024" class="node">
<title>Node24</title>
<g id="a_Node000024"><a xlink:title=" ">
<polygon fill="#e0e0e0" stroke="#999999" points="659.25,-240.25 629.75,-240.25 629.75,-221 659.25,-221 659.25,-240.25"/>
<text xml:space="preserve" text-anchor="middle" x="644.5" y="-226.75" font-family="Helvetica,sans-Serif" font-size="10.00">set</text>
</a>
</g>
</g>
<!-- Node21&#45;&gt;Node24 -->
<g id="edge26_Node000021_Node000024" class="edge">
<title>Node21&#45;&gt;Node24</title>
<g id="a_edge26_Node000021_Node000024"><a xlink:title=" ">
<path fill="none" stroke="#63b8ff" d="M596.34,-275.84C604.55,-268.3 616.48,-257.35 626.41,-248.23"/>
<polygon fill="#63b8ff" stroke="#63b8ff" points="628.69,-250.89 633.69,-241.55 623.96,-245.73 628.69,-250.89"/>
</a>
</g>
</g>
<!-- Node25 -->
<g id="Node000025" class="node">
<title>Node25</title>
<g id="a_Node000025"><a xlink:href="_glob_8hh.html" target="_top" xlink:title=" ">
<polygon fill="white" stroke="#666666" points="611.38,-240.25 561.62,-240.25 561.62,-221 611.38,-221 611.38,-240.25"/>
<text xml:space="preserve" text-anchor="middle" x="586.5" y="-226.75" font-family="Helvetica,sans-Serif" font-size="10.00">Glob.hh</text>
</a>
</g>
</g>
<!-- Node21&#45;&gt;Node25 -->
<g id="edge28_Node000021_Node000025" class="edge">
<title>Node21&#45;&gt;Node25</title>
<g id="a_edge28_Node000021_Node000025"><a xlink:title=" ">
<path fill="none" stroke="#63b8ff" d="M586.5,-276.08C586.5,-269.57 586.5,-260.42 586.5,-252.12"/>
<polygon fill="#63b8ff" stroke="#63b8ff" points="590,-252.12 586.5,-242.12 583,-252.12 590,-252.12"/>
</a>
</g>
</g>
<!-- Node27 -->
<g id="Node000027" class="node">
<title>Node27</title>
<g id="a_Node000027"><a xlink:href="_debounce_8hh.html" target="_top" xlink:title=" ">
<polygon fill="white" stroke="#666666" points="349.38,-240.25 275.62,-240.25 275.62,-221 349.38,-221 349.38,-240.25"/>
<text xml:space="preserve" text-anchor="middle" x="312.5" y="-226.75" font-family="Helvetica,sans-Serif" font-size="10.00">Debounce.hh</text>
</a>
</g>
</g>
<!-- Node21&#45;&gt;Node27 -->
<g id="edge32_Node000021_Node000027" class="edge">
<title>Node21&#45;&gt;Node27</title>
<g id="a_edge32_Node000021_Node000027"><a xlink:title=" ">
<path fill="none" stroke="#63b8ff" d="M553.72,-278.5C505.85,-269.2 416.48,-251.83 360.99,-241.05"/>
<polygon fill="#63b8ff" stroke="#63b8ff" points="361.66,-237.61 351.17,-239.14 360.32,-244.48 361.66,-237.61"/>
</a>
</g>
</g>
<!-- Node21&#45;&gt;Node30 -->
<g id="edge44_Node000021_Node000030" class="edge">
<title>Node21&#45;&gt;Node30</title>
<g id="a_edge44_Node000021_Node000030"><a xlink:title=" ">
<path fill="none" stroke="#63b8ff" d="M619.21,-280.34C651.6,-274.74 701.69,-263.02 739.5,-240.25 759.29,-228.33 777.11,-208.55 788.51,-194.15"/>
<polygon fill="#63b8ff" stroke="#63b8ff" points="791.13,-196.49 794.41,-186.41 785.57,-192.25 791.13,-196.49"/>
</a>
</g>
</g>
<!-- Node31 -->
<g id="Node000031" class="node">
<title>Node31</title>
<g id="a_Node000031"><a xlink:href="_dir_tree_8hh.html" target="_top" xlink:title=" ">
<polygon fill="white" stroke="#666666" points="467.38,-240.25 405.62,-240.25 405.62,-221 467.38,-221 467.38,-240.25"/>
<text xml:space="preserve" text-anchor="middle" x="436.5" y="-226.75" font-family="Helvetica,sans-Serif" font-size="10.00">DirTree.hh</text>
</a>
</g>
</g>
<!-- Node21&#45;&gt;Node31 -->
<g id="edge39_Node000021_Node000031" class="edge">
<title>Node21&#45;&gt;Node31</title>
<g id="a_edge39_Node000021_Node000031"><a xlink:title=" ">
<path fill="none" stroke="#63b8ff" d="M561.05,-275.84C536.81,-267.24 500.07,-254.19 472.76,-244.5"/>
<polygon fill="#63b8ff" stroke="#63b8ff" points="474.09,-241.26 463.5,-241.21 471.75,-247.85 474.09,-241.26"/>
</a>
</g>
</g>
<!-- Node25&#45;&gt;Node23 -->
<g id="edge29_Node000025_Node000023" class="edge">
<title>Node25&#45;&gt;Node23</title>
<g id="a_edge29_Node000025_Node000023"><a xlink:title=" ">
<path fill="none" stroke="#63b8ff" d="M582.54,-220.83C579.46,-214.01 575.09,-204.31 571.21,-195.7"/>
<polygon fill="#63b8ff" stroke="#63b8ff" points="574.47,-194.42 567.17,-186.74 568.09,-197.29 574.47,-194.42"/>
</a>
</g>
</g>
<!-- Node26 -->
<g id="Node000026" class="node">
<title>Node26</title>
<g id="a_Node000026"><a xlink:title=" ">
<polygon fill="#e0e0e0" stroke="#999999" points="659.5,-185 619.5,-185 619.5,-165.75 659.5,-165.75 659.5,-185"/>
<text xml:space="preserve" text-anchor="middle" x="639.5" y="-171.5" font-family="Helvetica,sans-Serif" font-size="10.00">regex</text>
</a>
</g>
</g>
<!-- Node25&#45;&gt;Node26 -->
<g id="edge30_Node000025_Node000026" class="edge">
<title>Node25&#45;&gt;Node26</title>
<g id="a_edge30_Node000025_Node000026"><a xlink:title=" ">
<path fill="none" stroke="#63b8ff" d="M595.25,-220.83C602.65,-213.4 613.46,-202.54 622.55,-193.41"/>
<polygon fill="#63b8ff" stroke="#63b8ff" points="624.92,-195.99 629.49,-186.43 619.96,-191.05 624.92,-195.99"/>
</a>
</g>
</g>
<!-- Node27&#45;&gt;Node8 -->
<g id="edge35_Node000027_Node000008" class="edge">
<title>Node27&#45;&gt;Node8</title>
<g id="a_edge35_Node000027_Node000008"><a xlink:title=" ">
<path fill="none" stroke="#63b8ff" d="M318.51,-220.54C326.42,-207.35 338.02,-182.63 326.5,-165.75 301.75,-129.48 270.09,-155.46 234.5,-129.75 217.56,-117.51 202.8,-98.64 193.19,-84.58"/>
<polygon fill="#63b8ff" stroke="#63b8ff" points="196.13,-82.67 187.72,-76.22 190.27,-86.5 196.13,-82.67"/>
</a>
</g>
</g>
<!-- Node27&#45;&gt;Node28 -->
<g id="edge33_Node000027_Node000028" class="edge">
<title>Node27&#45;&gt;Node28</title>
<g id="a_edge33_Node000027_Node000028"><a xlink:title=" ">
<path fill="none" stroke="#63b8ff" d="M292.65,-220.59C274.33,-212.25 246.85,-199.75 225.79,-190.16"/>
<polygon fill="#63b8ff" stroke="#63b8ff" points="227.37,-187.04 216.82,-186.08 224.47,-193.41 227.37,-187.04"/>
</a>
</g>
</g>
<!-- Node29 -->
<g id="Node000029" class="node">
<title>Node29</title>
<g id="a_Node000029"><a xlink:title=" ">
<polygon fill="#e0e0e0" stroke="#999999" points="317.88,-185 235.12,-185 235.12,-165.75 317.88,-165.75 317.88,-185"/>
<text xml:space="preserve" text-anchor="middle" x="276.5" y="-171.5" font-family="Helvetica,sans-Serif" font-size="10.00">unordered_map</text>
</a>
</g>
</g>
<!-- Node27&#45;&gt;Node29 -->
<g id="edge34_Node000027_Node000029" class="edge">
<title>Node27&#45;&gt;Node29</title>
<g id="a_edge34_Node000027_Node000029"><a xlink:title=" ">
<path fill="none" stroke="#63b8ff" d="M306.56,-220.83C301.79,-213.78 294.94,-203.65 288.98,-194.83"/>
<polygon fill="#63b8ff" stroke="#63b8ff" points="291.92,-192.94 283.42,-186.61 286.12,-196.86 291.92,-192.94"/>
</a>
</g>
</g>
<!-- Node27&#45;&gt;Node30 -->
<g id="edge36_Node000027_Node000030" class="edge">
<title>Node27&#45;&gt;Node30</title>
<g id="a_edge36_Node000027_Node000030"><a xlink:title=" ">
<path fill="none" stroke="#63b8ff" d="M349.66,-225.58C439.66,-215.78 668.74,-190.83 761.55,-180.73"/>
<polygon fill="#63b8ff" stroke="#63b8ff" points="761.88,-184.21 771.44,-179.65 761.12,-177.25 761.88,-184.21"/>
</a>
</g>
</g>
<!-- Node30&#45;&gt;Node11 -->
<g id="edge37_Node000030_Node000011" class="edge">
<title>Node30&#45;&gt;Node11</title>
<g id="a_edge37_Node000030_Node000011"><a xlink:title=" ">
<path fill="none" stroke="#63b8ff" d="M819.21,-165.41C841.54,-152.98 875.01,-129.86 857.5,-110.5 843.7,-95.25 547.25,-74.59 446.6,-67.99"/>
<polygon fill="#63b8ff" stroke="#63b8ff" points="447.04,-64.51 436.83,-67.36 446.59,-71.5 447.04,-64.51"/>
</a>
</g>
</g>
<!-- Node30&#45;&gt;Node22 -->
<g id="edge38_Node000030_Node000022" class="edge">
<title>Node30&#45;&gt;Node22</title>
<g id="a_edge38_Node000030_Node000022"><a xlink:title=" ">
<path fill="none" stroke="#63b8ff" d="M801.5,-165.58C801.5,-159.07 801.5,-149.92 801.5,-141.62"/>
<polygon fill="#63b8ff" stroke="#63b8ff" points="805,-141.62 801.5,-131.62 798,-141.62 805,-141.62"/>
</a>
</g>
</g>
<!-- Node31&#45;&gt;Node3 -->
<g id="edge43_Node000031_Node000003" class="edge">
<title>Node31&#45;&gt;Node3</title>
<g id="a_edge43_Node000031_Node000003"><a xlink:title=" ">
<path fill="none" stroke="#63b8ff" d="M437,-220.83C437.37,-214.24 437.89,-204.96 438.36,-196.57"/>
<polygon fill="#63b8ff" stroke="#63b8ff" points="441.84,-197.05 438.91,-186.87 434.85,-196.66 441.84,-197.05"/>
</a>
</g>
</g>
<!-- Node31&#45;&gt;Node4 -->
<g id="edge40_Node000031_Node000004" class="edge">
<title>Node31&#45;&gt;Node4</title>
<g id="a_edge40_Node000031_Node000004"><a xlink:title=" ">
<path fill="none" stroke="#63b8ff" d="M444.76,-220.85C458.15,-207.13 485.95,-180.66 514.5,-165.75 566.51,-138.6 593.29,-163.18 641.5,-129.75 658.09,-118.25 671.09,-98.97 679.18,-84.59"/>
<polygon fill="#63b8ff" stroke="#63b8ff" points="682.09,-86.58 683.67,-76.1 675.9,-83.3 682.09,-86.58"/>
</a>
</g>
</g>
<!-- Node31&#45;&gt;Node10 -->
<g id="edge42_Node000031_Node000010" class="edge">
<title>Node31&#45;&gt;Node10</title>
<g id="a_edge42_Node000031_Node000010"><a xlink:title=" ">
<path fill="none" stroke="#63b8ff" d="M422.64,-220.65C402.14,-207.58 362.3,-183.02 326.5,-165.75 286.95,-146.67 274.57,-147.7 234.5,-129.75 199.44,-114.05 160.12,-93.65 134.87,-80.18"/>
<polygon fill="#63b8ff" stroke="#63b8ff" points="136.77,-77.22 126.3,-75.58 133.46,-83.39 136.77,-77.22"/>
</a>
</g>
</g>
<!-- Node31&#45;&gt;Node29 -->
<g id="edge41_Node000031_Node000029" class="edge">
<title>Node31&#45;&gt;Node29</title>
<g id="a_edge41_Node000031_Node000029"><a xlink:title=" ">
<path fill="none" stroke="#63b8ff" d="M409.36,-220.59C383.27,-211.91 343.6,-198.71 314.4,-188.99"/>
<polygon fill="#63b8ff" stroke="#63b8ff" points="315.8,-185.77 305.21,-185.93 313.59,-192.41 315.8,-185.77"/>
</a>
</g>
</g>
<!-- Node32&#45;&gt;Node4 -->
<g id="edge48_Node000032_Node000004" class="edge">
<title>Node32&#45;&gt;Node4</title>
<g id="a_edge48_Node000032_Node000004"><a xlink:title=" ">
<path fill="none" stroke="#63b8ff" d="M129.33,-220.71C134.22,-206.81 145.57,-180.08 164.5,-165.75 169.22,-162.17 364.69,-111.64 370.5,-110.5 494.91,-86.02 528.85,-97.71 653.5,-74.5 654.7,-74.28 655.92,-74.04 657.15,-73.79"/>
<polygon fill="#63b8ff" stroke="#63b8ff" points="657.77,-77.23 666.75,-71.62 656.23,-70.41 657.77,-77.23"/>
</a>
</g>
</g>
<!-- Node32&#45;&gt;Node10 -->
<g id="edge52_Node000032_Node000010" class="edge">
<title>Node32&#45;&gt;Node10</title>
<g id="a_edge52_Node000032_Node000010"><a xlink:title=" ">
<path fill="none" stroke="#63b8ff" d="M125.53,-220.82C122.75,-195.5 114.67,-122 110.72,-86.09"/>
<polygon fill="#63b8ff" stroke="#63b8ff" points="114.21,-85.78 109.64,-76.23 107.25,-86.55 114.21,-85.78"/>
</a>
</g>
</g>
<!-- Node32&#45;&gt;Node12 -->
<g id="edge50_Node000032_Node000012" class="edge">
<title>Node32&#45;&gt;Node12</title>
<g id="a_edge50_Node000032_Node000012"><a xlink:title=" ">
<path fill="none" stroke="#63b8ff" d="M94.48,-225.92C69.13,-221.12 35.3,-210.13 18.5,-185 -1.47,-155.15 7.03,-111.01 14.56,-85.68"/>
<polygon fill="#63b8ff" stroke="#63b8ff" points="17.83,-86.94 17.59,-76.34 11.17,-84.78 17.83,-86.94"/>
</a>
</g>
</g>
<!-- Node32&#45;&gt;Node29 -->
<g id="edge51_Node000032_Node000029" class="edge">
<title>Node32&#45;&gt;Node29</title>
<g id="a_edge51_Node000032_Node000029"><a xlink:title=" ">
<path fill="none" stroke="#63b8ff" d="M151.95,-220.59C176.19,-211.99 212.93,-198.94 240.24,-189.25"/>
<polygon fill="#63b8ff" stroke="#63b8ff" points="241.25,-192.6 249.5,-185.96 238.91,-186.01 241.25,-192.6"/>
</a>
</g>
</g>
<!-- Node33 -->
<g id="Node000033" class="node">
<title>Node33</title>
<g id="a_Node000033"><a xlink:title=" ">
<polygon fill="#e0e0e0" stroke="#999999" points="79.12,-185 27.88,-185 27.88,-165.75 79.12,-165.75 79.12,-185"/>
<text xml:space="preserve" text-anchor="middle" x="53.5" y="-171.5" font-family="Helvetica,sans-Serif" font-size="10.00">sstream</text>
</a>
</g>
</g>
<!-- Node32&#45;&gt;Node33 -->
<g id="edge49_Node000032_Node000033" class="edge">
<title>Node32&#45;&gt;Node33</title>
<g id="a_edge49_Node000032_Node000033"><a xlink:title=" ">
<path fill="none" stroke="#63b8ff" d="M114.12,-220.59C103.35,-212.74 87.53,-201.2 74.75,-191.87"/>
<polygon fill="#63b8ff" stroke="#63b8ff" points="77.06,-189.23 66.92,-186.17 72.94,-194.89 77.06,-189.23"/>
</a>
</g>
</g>
<!-- Node34&#45;&gt;Node4 -->
<g id="edge55_Node000034_Node000004" class="edge">
<title>Node34&#45;&gt;Node4</title>
<g id="a_edge55_Node000034_Node000004"><a xlink:title=" ">
<path fill="none" stroke="#63b8ff" d="M1024.11,-340.02C1058.81,-338.41 1119.22,-330.35 1154.5,-295.5 1175.57,-274.68 1173.5,-261.24 1173.5,-231.62 1173.5,-231.62 1173.5,-231.62 1173.5,-174.38 1173.5,-81.12 827.68,-67.99 720.07,-66.16"/>
<polygon fill="#63b8ff" stroke="#63b8ff" points="720.29,-62.67 710.24,-66.02 720.18,-69.67 720.29,-62.67"/>
</a>
</g>
</g>
<!-- Node35 -->
<g id="Node000035" class="node">
<title>Node35</title>
<g id="a_Node000035"><a xlink:title=" ">
<polygon fill="#e0e0e0" stroke="#999999" points="915.25,-295.5 867.75,-295.5 867.75,-276.25 915.25,-276.25 915.25,-295.5"/>
<text xml:space="preserve" text-anchor="middle" x="891.5" y="-282" font-family="Helvetica,sans-Serif" font-size="10.00">stdlib.h</text>
</a>
</g>
</g>
<!-- Node34&#45;&gt;Node35 -->
<g id="edge56_Node000034_Node000035" class="edge">
<title>Node34&#45;&gt;Node35</title>
<g id="a_edge56_Node000034_Node000035"><a xlink:title=" ">
<path fill="none" stroke="#63b8ff" d="M979.52,-331.09C963.15,-322.87 938.71,-310.59 919.74,-301.06"/>
<polygon fill="#63b8ff" stroke="#63b8ff" points="921.43,-297.99 910.92,-296.63 918.29,-304.25 921.43,-297.99"/>
</a>
</g>
</g>
<!-- Node36 -->
<g id="Node000036" class="node">
<title>Node36</title>
<g id="a_Node000036"><a xlink:title=" ">
<polygon fill="#e0e0e0" stroke="#999999" points="983.75,-295.5 933.25,-295.5 933.25,-276.25 983.75,-276.25 983.75,-295.5"/>
<text xml:space="preserve" text-anchor="middle" x="958.5" y="-282" font-family="Helvetica,sans-Serif" font-size="10.00">unistd.h</text>
</a>
</g>
</g>
<!-- Node34&#45;&gt;Node36 -->
<g id="edge57_Node000034_Node000036" class="edge">
<title>Node34&#45;&gt;Node36</title>
<g id="a_edge57_Node000034_Node000036"><a xlink:title=" ">
<path fill="none" stroke="#63b8ff" d="M991.06,-331.33C985.84,-324.21 978.31,-313.93 971.81,-305.05"/>
<polygon fill="#63b8ff" stroke="#63b8ff" points="974.71,-303.08 965.97,-297.08 969.06,-307.22 974.71,-303.08"/>
</a>
</g>
</g>
<!-- Node37 -->
<g id="Node000037" class="node">
<title>Node37</title>
<g id="a_Node000037"><a xlink:title=" ">
<polygon fill="#e0e0e0" stroke="#999999" points="1073.62,-295.5 1001.38,-295.5 1001.38,-276.25 1073.62,-276.25 1073.62,-295.5"/>
<text xml:space="preserve" text-anchor="middle" x="1037.5" y="-282" font-family="Helvetica,sans-Serif" font-size="10.00">sys/socket.h</text>
</a>
</g>
</g>
<!-- Node34&#45;&gt;Node37 -->
<g id="edge58_Node000034_Node000037" class="edge">
<title>Node34&#45;&gt;Node37</title>
<g id="a_edge58_Node000034_Node000037"><a xlink:title=" ">
<path fill="none" stroke="#63b8ff" d="M1004.11,-331.33C1009.46,-324.21 1017.18,-313.93 1023.85,-305.05"/>
<polygon fill="#63b8ff" stroke="#63b8ff" points="1026.63,-307.17 1029.84,-297.07 1021.04,-302.96 1026.63,-307.17"/>
</a>
</g>
</g>
<!-- Node38 -->
<g id="Node000038" class="node">
<title>Node38</title>
<g id="a_Node000038"><a xlink:title=" ">
<polygon fill="#e0e0e0" stroke="#999999" points="1145.25,-295.5 1091.75,-295.5 1091.75,-276.25 1145.25,-276.25 1145.25,-295.5"/>
<text xml:space="preserve" text-anchor="middle" x="1118.5" y="-282" font-family="Helvetica,sans-Serif" font-size="10.00">sys/un.h</text>
</a>
</g>
</g>
<!-- Node34&#45;&gt;Node38 -->
<g id="edge59_Node000034_Node000038" class="edge">
<title>Node34&#45;&gt;Node38</title>
<g id="a_edge59_Node000034_Node000038"><a xlink:title=" ">
<path fill="none" stroke="#63b8ff" d="M1018.03,-331.09C1037.06,-322.72 1065.65,-310.13 1087.47,-300.53"/>
<polygon fill="#63b8ff" stroke="#63b8ff" points="1088.74,-303.79 1096.49,-296.56 1085.93,-297.39 1088.74,-303.79"/>
</a>
</g>
</g>
</g>
</svg>
