<?xml version="1.0" encoding="UTF-8" standalone="no"?>
<!DOCTYPE svg PUBLIC "-//W3C//DTD SVG 1.1//EN"
 "http://www.w3.org/Graphics/SVG/1.1/DTD/svg11.dtd">
<!-- Generated by graphviz version 14.0.4 (20251115.1723)
 -->
<!-- Title: frontend/node_modules/@parcel/watcher/src/Watcher.cc Pages: 1 -->
<!--zoomable 381 -->

<svg id="main" version="1.1" xmlns="http://www.w3.org/2000/svg" xmlns:xlink="http://www.w3.org/1999/xlink" xml:space="preserve" onload="init(evt)">

<style type="text/css"><![CDATA[
.node, .edge {opacity: 0.7;}
.node.selected, .edge.selected {opacity: 1;}
.edge:hover path { stroke: red; }
.edge:hover polygon { stroke: red; fill: red; }
]]></style>

<defs>
  <circle id="rim" cx="0" cy="0" r="7"/>
  <circle id="rim2" cx="0" cy="0" r="3.5"/>
  <g id="zoomPlus">
    <use xlink:href="#rim" fill="#404040"><set attributeName="fill" to="#808080" begin="zoomplus.mouseover" end="zoomplus.mouseout"/></use>
    <path d="M-4,0h8M0,-4v8" fill="none" stroke="white" stroke-width="1.5" pointer-events="none"/>
  </g>
  <g id="zoomMin">
    <use xlink:href="#rim" fill="#404040"><set attributeName="fill" to="#808080" begin="zoomminus.mouseover" end="zoomminus.mouseout"/></use>
    <path d="M-4,0h8" fill="none" stroke="white" stroke-width="1.5" pointer-events="none"/>
  </g>
  <g id="arrowUp" transform="translate(30 24)">
    <use xlink:href="#rim"/>
    <path pointer-events="none" fill="none" stroke="white" stroke-width="1.5" d="M0,-3.0v7 M-2.5,-0.5L0,-3.0L2.5,-0.5"/>
  </g>
  <g id="arrowRight" transform="rotate(90) translate(36 -43)">
    <use xlink:href="#rim"/>
    <path pointer-events="none" fill="none" stroke="white" stroke-width="1.5" d="M0,-3.0v7 M-2.5,-0.5L0,-3.0L2.5,-0.5"/>
  </g>
  <g id="arrowDown" transform="rotate(180) translate(-30 -48)">
    <use xlink:href="#rim"/>
    <path pointer-events="none" fill="none" stroke="white" stroke-width="1.5" d="M0,-3.0v7 M-2.5,-0.5L0,-3.0L2.5,-0.5"/>
  </g>
  <g id="arrowLeft" transform="rotate(270) translate(-36 17)">
    <use xlink:href="#rim"/>
    <path pointer-events="none" fill="none" stroke="white" stroke-width="1.5" d="M0,-3.0v7 M-2.5,-0.5L0,-3.0L2.5,-0.5"/>
  </g>
  <g id="resetDef">
    <use xlink:href="#rim2" fill="#404040"><set attributeName="fill" to="#808080" begin="reset.mouseover" end="reset.mouseout"/></use>
  </g>
</defs>
<script type="application/ecmascript">
var viewWidth = 879;
var viewHeight = 381;
var sectionId = 'dynsection-0';
</script>
<script type="application/ecmascript" xlink:href="svg.min.js"/>
<svg id="graph" class="graph">
<g id="viewport">
<title>frontend/node_modules/@parcel/watcher/src/Watcher.cc</title>
<!-- Node1 -->
<g id="Node000001" class="node">
<title>Node1</title>
<g id="a_Node000001"><a xlink:title=" ">
<polygon fill="#999999" stroke="#666666" points="802.25,-373.25 685,-373.25 685,-331.5 802.25,-331.5 802.25,-373.25"/>
<text xml:space="preserve" text-anchor="start" x="693" y="-359.75" font-family="Helvetica,sans-Serif" font-size="10.00">frontend/node_modules</text>
<text xml:space="preserve" text-anchor="start" x="693" y="-348.5" font-family="Helvetica,sans-Serif" font-size="10.00">/@parcel/watcher/src</text>
<text xml:space="preserve" text-anchor="middle" x="743.62" y="-337.25" font-family="Helvetica,sans-Serif" font-size="10.00">/Watcher.cc</text>
</a>
</g>
</g>
<!-- Node2 -->
<g id="Node000002" class="node">
<title>Node2</title>
<g id="a_Node000002"><a xlink:href="_watcher_8hh.html" target="_top" xlink:title=" ">
<polygon fill="white" stroke="#666666" points="680,-295.5 615.25,-295.5 615.25,-276.25 680,-276.25 680,-295.5"/>
<text xml:space="preserve" text-anchor="middle" x="647.62" y="-282" font-family="Helvetica,sans-Serif" font-size="10.00">Watcher.hh</text>
</a>
</g>
</g>
<!-- Node1&#45;&gt;Node2 -->
<g id="edge1_Node000001_Node000002" class="edge">
<title>Node1&#45;&gt;Node2</title>
<g id="a_edge1_Node000001_Node000002"><a xlink:title=" ">
<path fill="none" stroke="#63b8ff" d="M713.51,-331.14C699.63,-321.82 683.41,-310.92 670.54,-302.27"/>
<polygon fill="#63b8ff" stroke="#63b8ff" points="672.56,-299.41 662.31,-296.74 668.65,-305.22 672.56,-299.41"/>
</a>
</g>
</g>
<!-- Node4 -->
<g id="Node000004" class="node">
<title>Node4</title>
<g id="a_Node000004"><a xlink:title=" ">
<polygon fill="#e0e0e0" stroke="#999999" points="871.38,-185 793.88,-185 793.88,-165.75 871.38,-165.75 871.38,-185"/>
<text xml:space="preserve" text-anchor="middle" x="832.62" y="-171.5" font-family="Helvetica,sans-Serif" font-size="10.00">unordered_set</text>
</a>
</g>
</g>
<!-- Node1&#45;&gt;Node4 -->
<g id="edge43_Node000001_Node000004" class="edge">
<title>Node1&#45;&gt;Node4</title>
<g id="a_edge43_Node000001_Node000004"><a xlink:title=" ">
<path fill="none" stroke="#63b8ff" d="M762.6,-331.01C781.05,-309.97 808.34,-275.33 822.62,-240.25 828.28,-226.37 830.75,-209.6 831.83,-196.72"/>
<polygon fill="#63b8ff" stroke="#63b8ff" points="835.31,-197.1 832.41,-186.91 828.32,-196.68 835.31,-197.1"/>
</a>
</g>
</g>
<!-- Node3 -->
<g id="Node000003" class="node">
<title>Node3</title>
<g id="a_Node000003"><a xlink:title=" ">
<polygon fill="#e0e0e0" stroke="#999999" points="728.62,-129.75 634.62,-129.75 634.62,-110.5 728.62,-110.5 728.62,-129.75"/>
<text xml:space="preserve" text-anchor="middle" x="681.62" y="-116.25" font-family="Helvetica,sans-Serif" font-size="10.00">condition_variable</text>
</a>
</g>
</g>
<!-- Node2&#45;&gt;Node3 -->
<g id="edge2_Node000002_Node000003" class="edge">
<title>Node2&#45;&gt;Node3</title>
<g id="a_edge2_Node000002_Node000003"><a xlink:title=" ">
<path fill="none" stroke="#63b8ff" d="M649.45,-276.07C654.73,-250.64 670.11,-176.6 677.53,-140.87"/>
<polygon fill="#63b8ff" stroke="#63b8ff" points="680.87,-141.96 679.48,-131.45 674.02,-140.53 680.87,-141.96"/>
</a>
</g>
</g>
<!-- Node2&#45;&gt;Node4 -->
<g id="edge3_Node000002_Node000004" class="edge">
<title>Node2&#45;&gt;Node4</title>
<g id="a_edge3_Node000002_Node000004"><a xlink:title=" ">
<path fill="none" stroke="#63b8ff" d="M680.41,-283.03C714.31,-279.53 767.04,-269.41 801.62,-240.25 815.04,-228.94 823.12,-210.47 827.65,-196.29"/>
<polygon fill="#63b8ff" stroke="#63b8ff" points="831.01,-197.25 830.35,-186.68 824.27,-195.36 831.01,-197.25"/>
</a>
</g>
</g>
<!-- Node5 -->
<g id="Node000005" class="node">
<title>Node5</title>
<g id="a_Node000005"><a xlink:title=" ">
<polygon fill="#e0e0e0" stroke="#999999" points="724.38,-240.25 694.88,-240.25 694.88,-221 724.38,-221 724.38,-240.25"/>
<text xml:space="preserve" text-anchor="middle" x="709.62" y="-226.75" font-family="Helvetica,sans-Serif" font-size="10.00">set</text>
</a>
</g>
</g>
<!-- Node2&#45;&gt;Node5 -->
<g id="edge4_Node000002_Node000005" class="edge">
<title>Node2&#45;&gt;Node5</title>
<g id="a_edge4_Node000002_Node000005"><a xlink:title=" ">
<path fill="none" stroke="#63b8ff" d="M658.14,-275.84C667.01,-268.22 679.94,-257.12 690.61,-247.95"/>
<polygon fill="#63b8ff" stroke="#63b8ff" points="692.81,-250.68 698.11,-241.51 688.25,-245.37 692.81,-250.68"/>
</a>
</g>
</g>
<!-- Node6 -->
<g id="Node000006" class="node">
<title>Node6</title>
<g id="a_Node000006"><a xlink:title=" ">
<polygon fill="#e0e0e0" stroke="#999999" points="63.25,-74.5 0,-74.5 0,-55.25 63.25,-55.25 63.25,-74.5"/>
<text xml:space="preserve" text-anchor="middle" x="31.62" y="-61" font-family="Helvetica,sans-Serif" font-size="10.00">node_api.h</text>
</a>
</g>
</g>
<!-- Node2&#45;&gt;Node6 -->
<g id="edge5_Node000002_Node000006" class="edge">
<title>Node2&#45;&gt;Node6</title>
<g id="a_edge5_Node000002_Node000006"><a xlink:title=" ">
<path fill="none" stroke="#63b8ff" d="M615.04,-283.83C552.94,-281.16 413.85,-271.85 301.62,-240.25 185.86,-207.66 136.41,-217.92 54.62,-129.75 43.46,-117.71 37.63,-99.85 34.64,-86.08"/>
<polygon fill="#63b8ff" stroke="#63b8ff" points="38.11,-85.57 32.89,-76.35 31.22,-86.81 38.11,-85.57"/>
</a>
</g>
</g>
<!-- Node7 -->
<g id="Node000007" class="node">
<title>Node7</title>
<g id="a_Node000007"><a xlink:href="_glob_8hh.html" target="_top" xlink:title=" ">
<polygon fill="white" stroke="#666666" points="792.5,-240.25 742.75,-240.25 742.75,-221 792.5,-221 792.5,-240.25"/>
<text xml:space="preserve" text-anchor="middle" x="767.62" y="-226.75" font-family="Helvetica,sans-Serif" font-size="10.00">Glob.hh</text>
</a>
</g>
</g>
<!-- Node2&#45;&gt;Node7 -->
<g id="edge6_Node000002_Node000007" class="edge">
<title>Node2&#45;&gt;Node7</title>
<g id="a_edge6_Node000002_Node000007"><a xlink:title=" ">
<path fill="none" stroke="#63b8ff" d="M667.98,-275.84C686.86,-267.47 715.21,-254.88 736.85,-245.28"/>
<polygon fill="#63b8ff" stroke="#63b8ff" points="738.06,-248.57 745.79,-241.32 735.23,-242.17 738.06,-248.57"/>
</a>
</g>
</g>
<!-- Node9 -->
<g id="Node000009" class="node">
<title>Node9</title>
<g id="a_Node000009"><a xlink:href="_event_8hh.html" target="_top" xlink:title=" ">
<polygon fill="white" stroke="#666666" points="302.12,-185 247.12,-185 247.12,-165.75 302.12,-165.75 302.12,-185"/>
<text xml:space="preserve" text-anchor="middle" x="274.62" y="-171.5" font-family="Helvetica,sans-Serif" font-size="10.00">Event.hh</text>
</a>
</g>
</g>
<!-- Node2&#45;&gt;Node9 -->
<g id="edge9_Node000002_Node000009" class="edge">
<title>Node2&#45;&gt;Node9</title>
<g id="a_edge9_Node000002_Node000009"><a xlink:title=" ">
<path fill="none" stroke="#63b8ff" d="M615.01,-283.25C543.92,-279.24 377.47,-267.19 328.62,-240.25 309.59,-229.75 294.36,-209.7 284.98,-194.85"/>
<polygon fill="#63b8ff" stroke="#63b8ff" points="288.12,-193.27 280,-186.47 282.1,-196.85 288.12,-193.27"/>
</a>
</g>
</g>
<!-- Node26 -->
<g id="Node000026" class="node">
<title>Node26</title>
<g id="a_Node000026"><a xlink:href="_debounce_8hh.html" target="_top" xlink:title=" ">
<polygon fill="white" stroke="#666666" points="600.5,-240.25 526.75,-240.25 526.75,-221 600.5,-221 600.5,-240.25"/>
<text xml:space="preserve" text-anchor="middle" x="563.62" y="-226.75" font-family="Helvetica,sans-Serif" font-size="10.00">Debounce.hh</text>
</a>
</g>
</g>
<!-- Node2&#45;&gt;Node26 -->
<g id="edge30_Node000002_Node000026" class="edge">
<title>Node2&#45;&gt;Node26</title>
<g id="a_edge30_Node000002_Node000026"><a xlink:title=" ">
<path fill="none" stroke="#63b8ff" d="M633.38,-275.84C620.83,-267.89 602.29,-256.14 587.48,-246.75"/>
<polygon fill="#63b8ff" stroke="#63b8ff" points="589.54,-243.91 579.22,-241.51 585.79,-249.82 589.54,-243.91"/>
</a>
</g>
</g>
<!-- Node29 -->
<g id="Node000029" class="node">
<title>Node29</title>
<g id="a_Node000029"><a xlink:href="_signal_8hh.html" target="_top" xlink:title=" ">
<polygon fill="white" stroke="#666666" points="652.88,-185 596.38,-185 596.38,-165.75 652.88,-165.75 652.88,-185"/>
<text xml:space="preserve" text-anchor="middle" x="624.62" y="-171.5" font-family="Helvetica,sans-Serif" font-size="10.00">Signal.hh</text>
</a>
</g>
</g>
<!-- Node2&#45;&gt;Node29 -->
<g id="edge42_Node000002_Node000029" class="edge">
<title>Node2&#45;&gt;Node29</title>
<g id="a_edge42_Node000002_Node000029"><a xlink:title=" ">
<path fill="none" stroke="#63b8ff" d="M645.74,-276C642.09,-258.75 633.94,-220.33 628.9,-196.56"/>
<polygon fill="#63b8ff" stroke="#63b8ff" points="632.34,-195.91 626.85,-186.86 625.5,-197.37 632.34,-195.91"/>
</a>
</g>
</g>
<!-- Node30 -->
<g id="Node000030" class="node">
<title>Node30</title>
<g id="a_Node000030"><a xlink:href="_dir_tree_8hh.html" target="_top" xlink:title=" ">
<polygon fill="white" stroke="#666666" points="399.5,-240.25 337.75,-240.25 337.75,-221 399.5,-221 399.5,-240.25"/>
<text xml:space="preserve" text-anchor="middle" x="368.62" y="-226.75" font-family="Helvetica,sans-Serif" font-size="10.00">DirTree.hh</text>
</a>
</g>
</g>
<!-- Node2&#45;&gt;Node30 -->
<g id="edge37_Node000002_Node000030" class="edge">
<title>Node2&#45;&gt;Node30</title>
<g id="a_edge37_Node000002_Node000030"><a xlink:title=" ">
<path fill="none" stroke="#63b8ff" d="M614.8,-278.61C564.1,-268.93 466.77,-250.36 410.88,-239.69"/>
<polygon fill="#63b8ff" stroke="#63b8ff" points="411.58,-236.26 401.1,-237.82 410.27,-243.14 411.58,-236.26"/>
</a>
</g>
</g>
<!-- Node7&#45;&gt;Node4 -->
<g id="edge7_Node000007_Node000004" class="edge">
<title>Node7&#45;&gt;Node4</title>
<g id="a_edge7_Node000007_Node000004"><a xlink:title=" ">
<path fill="none" stroke="#63b8ff" d="M778.65,-220.59C788.05,-212.9 801.77,-201.65 813.03,-192.43"/>
<polygon fill="#63b8ff" stroke="#63b8ff" points="815.07,-195.28 820.59,-186.23 810.64,-189.86 815.07,-195.28"/>
</a>
</g>
</g>
<!-- Node8 -->
<g id="Node000008" class="node">
<title>Node8</title>
<g id="a_Node000008"><a xlink:title=" ">
<polygon fill="#e0e0e0" stroke="#999999" points="775.62,-185 735.62,-185 735.62,-165.75 775.62,-165.75 775.62,-185"/>
<text xml:space="preserve" text-anchor="middle" x="755.62" y="-171.5" font-family="Helvetica,sans-Serif" font-size="10.00">regex</text>
</a>
</g>
</g>
<!-- Node7&#45;&gt;Node8 -->
<g id="edge8_Node000007_Node000008" class="edge">
<title>Node7&#45;&gt;Node8</title>
<g id="a_edge8_Node000007_Node000008"><a xlink:title=" ">
<path fill="none" stroke="#63b8ff" d="M765.64,-220.83C764.16,-214.24 762.07,-204.96 760.18,-196.57"/>
<polygon fill="#63b8ff" stroke="#63b8ff" points="763.6,-195.82 757.98,-186.84 756.77,-197.36 763.6,-195.82"/>
</a>
</g>
</g>
<!-- Node9&#45;&gt;Node6 -->
<g id="edge11_Node000009_Node000006" class="edge">
<title>Node9&#45;&gt;Node6</title>
<g id="a_edge11_Node000009_Node000006"><a xlink:title=" ">
<path fill="none" stroke="#63b8ff" d="M246.8,-173.89C206.75,-171.97 131.92,-163.69 79.62,-129.75 62.56,-118.68 49.3,-99.33 41.08,-84.83"/>
<polygon fill="#63b8ff" stroke="#63b8ff" points="44.29,-83.42 36.51,-76.23 38.11,-86.7 44.29,-83.42"/>
</a>
</g>
</g>
<!-- Node10 -->
<g id="Node000010" class="node">
<title>Node10</title>
<g id="a_Node000010"><a xlink:title=" ">
<polygon fill="#e0e0e0" stroke="#999999" points="196.62,-74.5 156.62,-74.5 156.62,-55.25 196.62,-55.25 196.62,-74.5"/>
<text xml:space="preserve" text-anchor="middle" x="176.62" y="-61" font-family="Helvetica,sans-Serif" font-size="10.00">string</text>
</a>
</g>
</g>
<!-- Node9&#45;&gt;Node10 -->
<g id="edge10_Node000009_Node000010" class="edge">
<title>Node9&#45;&gt;Node10</title>
<g id="a_edge10_Node000009_Node000010"><a xlink:title=" ">
<path fill="none" stroke="#63b8ff" d="M246.69,-171.83C199.69,-166.91 108,-154.33 88.62,-129.75 69.07,-104.95 112.65,-85.29 145.2,-74.64"/>
<polygon fill="#63b8ff" stroke="#63b8ff" points="146.17,-78 154.68,-71.7 144.1,-71.32 146.17,-78"/>
</a>
</g>
</g>
<!-- Node11 -->
<g id="Node000011" class="node">
<title>Node11</title>
<g id="a_Node000011"><a xlink:href="include_8h.html" target="_top" xlink:title=" ">
<polygon fill="white" stroke="#666666" points="181.75,-129.75 97.5,-129.75 97.5,-110.5 181.75,-110.5 181.75,-129.75"/>
<text xml:space="preserve" text-anchor="middle" x="139.62" y="-116.25" font-family="Helvetica,sans-Serif" font-size="10.00">wasm/include.h</text>
</a>
</g>
</g>
<!-- Node9&#45;&gt;Node11 -->
<g id="edge12_Node000009_Node000011" class="edge">
<title>Node9&#45;&gt;Node11</title>
<g id="a_edge12_Node000009_Node000011"><a xlink:title=" ">
<path fill="none" stroke="#63b8ff" d="M251.72,-165.34C230.2,-156.85 197.71,-144.04 173.25,-134.39"/>
<polygon fill="#63b8ff" stroke="#63b8ff" points="174.63,-131.17 164.05,-130.76 172.06,-137.68 174.63,-131.17"/>
</a>
</g>
</g>
<!-- Node12 -->
<g id="Node000012" class="node">
<title>Node12</title>
<g id="a_Node000012"><a xlink:href="napi_8h.html" target="_top" xlink:title=" ">
<polygon fill="white" stroke="#666666" points="400.75,-129.75 358.5,-129.75 358.5,-110.5 400.75,-110.5 400.75,-129.75"/>
<text xml:space="preserve" text-anchor="middle" x="379.62" y="-116.25" font-family="Helvetica,sans-Serif" font-size="10.00">napi.h</text>
</a>
</g>
</g>
<!-- Node9&#45;&gt;Node12 -->
<g id="edge13_Node000009_Node000012" class="edge">
<title>Node9&#45;&gt;Node12</title>
<g id="a_edge13_Node000009_Node000012"><a xlink:title=" ">
<path fill="none" stroke="#63b8ff" d="M292.44,-165.34C308.65,-157.12 332.86,-144.84 351.66,-135.31"/>
<polygon fill="#63b8ff" stroke="#63b8ff" points="353.04,-138.53 360.38,-130.89 349.87,-132.29 353.04,-138.53"/>
</a>
</g>
</g>
<!-- Node16 -->
<g id="Node000016" class="node">
<title>Node16</title>
<g id="a_Node000016"><a xlink:title=" ">
<polygon fill="#e0e0e0" stroke="#999999" points="628.12,-74.5 585.12,-74.5 585.12,-55.25 628.12,-55.25 628.12,-74.5"/>
<text xml:space="preserve" text-anchor="middle" x="606.62" y="-61" font-family="Helvetica,sans-Serif" font-size="10.00">mutex</text>
</a>
</g>
</g>
<!-- Node9&#45;&gt;Node16 -->
<g id="edge27_Node000009_Node000016" class="edge">
<title>Node9&#45;&gt;Node16</title>
<g id="a_edge27_Node000009_Node000016"><a xlink:title=" ">
<path fill="none" stroke="#63b8ff" d="M302.36,-165.31C363.37,-145.37 508.97,-97.79 574.13,-76.49"/>
<polygon fill="#63b8ff" stroke="#63b8ff" points="575.11,-79.86 583.53,-73.42 572.93,-73.2 575.11,-79.86"/>
</a>
</g>
</g>
<!-- Node24 -->
<g id="Node000024" class="node">
<title>Node24</title>
<g id="a_Node000024"><a xlink:title=" ">
<polygon fill="#e0e0e0" stroke="#999999" points="235,-129.75 200.25,-129.75 200.25,-110.5 235,-110.5 235,-129.75"/>
<text xml:space="preserve" text-anchor="middle" x="217.62" y="-116.25" font-family="Helvetica,sans-Serif" font-size="10.00">map</text>
</a>
</g>
</g>
<!-- Node9&#45;&gt;Node24 -->
<g id="edge28_Node000009_Node000024" class="edge">
<title>Node9&#45;&gt;Node24</title>
<g id="a_edge28_Node000009_Node000024"><a xlink:title=" ">
<path fill="none" stroke="#63b8ff" d="M264.96,-165.34C256.88,-157.8 245.16,-146.85 235.4,-137.73"/>
<polygon fill="#63b8ff" stroke="#63b8ff" points="237.95,-135.33 228.26,-131.06 233.18,-140.44 237.95,-135.33"/>
</a>
</g>
</g>
<!-- Node25 -->
<g id="Node000025" class="node">
<title>Node25</title>
<g id="a_Node000025"><a xlink:title=" ">
<polygon fill="#e0e0e0" stroke="#999999" points="302.5,-129.75 252.75,-129.75 252.75,-110.5 302.5,-110.5 302.5,-129.75"/>
<text xml:space="preserve" text-anchor="middle" x="277.62" y="-116.25" font-family="Helvetica,sans-Serif" font-size="10.00">optional</text>
</a>
</g>
</g>
<!-- Node9&#45;&gt;Node25 -->
<g id="edge29_Node000009_Node000025" class="edge">
<title>Node9&#45;&gt;Node25</title>
<g id="a_edge29_Node000009_Node000025"><a xlink:title=" ">
<path fill="none" stroke="#63b8ff" d="M275.12,-165.58C275.49,-158.99 276.01,-149.71 276.49,-141.32"/>
<polygon fill="#63b8ff" stroke="#63b8ff" points="279.97,-141.8 277.03,-131.62 272.98,-141.41 279.97,-141.8"/>
</a>
</g>
</g>
<!-- Node12&#45;&gt;Node6 -->
<g id="edge14_Node000012_Node000006" class="edge">
<title>Node12&#45;&gt;Node6</title>
<g id="a_edge14_Node000012_Node000006"><a xlink:title=" ">
<path fill="none" stroke="#63b8ff" d="M358.12,-115.83C301.88,-107.23 149.62,-83.93 74.6,-72.45"/>
<polygon fill="#63b8ff" stroke="#63b8ff" points="75.59,-69.06 65.17,-71.01 74.53,-75.98 75.59,-69.06"/>
</a>
</g>
</g>
<!-- Node12&#45;&gt;Node10 -->
<g id="edge19_Node000012_Node000010" class="edge">
<title>Node12&#45;&gt;Node10</title>
<g id="a_edge19_Node000012_Node000010"><a xlink:title=" ">
<path fill="none" stroke="#63b8ff" d="M358.16,-113.73C321.86,-104.59 248.95,-86.15 207.82,-75.01"/>
<polygon fill="#63b8ff" stroke="#63b8ff" points="208.91,-71.68 198.34,-72.41 207.06,-78.43 208.91,-71.68"/>
</a>
</g>
</g>
<!-- Node13 -->
<g id="Node000013" class="node">
<title>Node13</title>
<g id="a_Node000013"><a xlink:title=" ">
<polygon fill="#e0e0e0" stroke="#999999" points="566.62,-74.5 508.62,-74.5 508.62,-55.25 566.62,-55.25 566.62,-74.5"/>
<text xml:space="preserve" text-anchor="middle" x="537.62" y="-61" font-family="Helvetica,sans-Serif" font-size="10.00">functional</text>
</a>
</g>
</g>
<!-- Node12&#45;&gt;Node13 -->
<g id="edge15_Node000012_Node000013" class="edge">
<title>Node12&#45;&gt;Node13</title>
<g id="a_edge15_Node000012_Node000013"><a xlink:title=" ">
<path fill="none" stroke="#63b8ff" d="M400.93,-111.94C426.22,-103.42 468.83,-89.06 499.77,-78.63"/>
<polygon fill="#63b8ff" stroke="#63b8ff" points="500.79,-81.98 509.15,-75.47 498.55,-75.35 500.79,-81.98"/>
</a>
</g>
</g>
<!-- Node14 -->
<g id="Node000014" class="node">
<title>Node14</title>
<g id="a_Node000014"><a xlink:title=" ">
<polygon fill="#e0e0e0" stroke="#999999" points="286.75,-74.5 214.5,-74.5 214.5,-55.25 286.75,-55.25 286.75,-74.5"/>
<text xml:space="preserve" text-anchor="middle" x="250.62" y="-61" font-family="Helvetica,sans-Serif" font-size="10.00">initializer_list</text>
</a>
</g>
</g>
<!-- Node12&#45;&gt;Node14 -->
<g id="edge16_Node000012_Node000014" class="edge">
<title>Node12&#45;&gt;Node14</title>
<g id="a_edge16_Node000012_Node000014"><a xlink:title=" ">
<path fill="none" stroke="#63b8ff" d="M358.03,-110.21C337.6,-101.78 306.65,-89 283.22,-79.33"/>
<polygon fill="#63b8ff" stroke="#63b8ff" points="284.7,-76.15 274.12,-75.57 282.03,-82.62 284.7,-76.15"/>
</a>
</g>
</g>
<!-- Node15 -->
<g id="Node000015" class="node">
<title>Node15</title>
<g id="a_Node000015"><a xlink:title=" ">
<polygon fill="#e0e0e0" stroke="#999999" points="490.25,-74.5 439,-74.5 439,-55.25 490.25,-55.25 490.25,-74.5"/>
<text xml:space="preserve" text-anchor="middle" x="464.62" y="-61" font-family="Helvetica,sans-Serif" font-size="10.00">memory</text>
</a>
</g>
</g>
<!-- Node12&#45;&gt;Node15 -->
<g id="edge17_Node000012_Node000015" class="edge">
<title>Node12&#45;&gt;Node15</title>
<g id="a_edge17_Node000012_Node000015"><a xlink:title=" ">
<path fill="none" stroke="#63b8ff" d="M394.04,-110.09C406.74,-102.14 425.5,-90.39 440.48,-81"/>
<polygon fill="#63b8ff" stroke="#63b8ff" points="442.24,-84.03 448.85,-75.76 438.52,-78.1 442.24,-84.03"/>
</a>
</g>
</g>
<!-- Node12&#45;&gt;Node16 -->
<g id="edge18_Node000012_Node000016" class="edge">
<title>Node12&#45;&gt;Node16</title>
<g id="a_edge18_Node000012_Node000016"><a xlink:title=" ">
<path fill="none" stroke="#63b8ff" d="M401.08,-113.76C405.55,-112.66 410.24,-111.53 414.62,-110.5 482.66,-94.51 502.65,-92.5 573.77,-74.86"/>
<polygon fill="#63b8ff" stroke="#63b8ff" points="574.33,-78.33 583.18,-72.51 572.63,-71.54 574.33,-78.33"/>
</a>
</g>
</g>
<!-- Node17 -->
<g id="Node000017" class="node">
<title>Node17</title>
<g id="a_Node000017"><a xlink:title=" ">
<polygon fill="#e0e0e0" stroke="#999999" points="348.12,-74.5 305.12,-74.5 305.12,-55.25 348.12,-55.25 348.12,-74.5"/>
<text xml:space="preserve" text-anchor="middle" x="326.62" y="-61" font-family="Helvetica,sans-Serif" font-size="10.00">vector</text>
</a>
</g>
</g>
<!-- Node12&#45;&gt;Node17 -->
<g id="edge20_Node000012_Node000017" class="edge">
<title>Node12&#45;&gt;Node17</title>
<g id="a_edge20_Node000012_Node000017"><a xlink:title=" ">
<path fill="none" stroke="#63b8ff" d="M370.87,-110.33C363.48,-102.9 352.66,-92.04 343.58,-82.91"/>
<polygon fill="#63b8ff" stroke="#63b8ff" points="346.17,-80.55 336.63,-75.93 341.21,-85.49 346.17,-80.55"/>
</a>
</g>
</g>
<!-- Node18 -->
<g id="Node000018" class="node">
<title>Node18</title>
<g id="a_Node000018"><a xlink:href="napi-inl_8h.html" target="_top" xlink:title=" ">
<polygon fill="white" stroke="#666666" points="421.12,-74.5 366.12,-74.5 366.12,-55.25 421.12,-55.25 421.12,-74.5"/>
<text xml:space="preserve" text-anchor="middle" x="393.62" y="-61" font-family="Helvetica,sans-Serif" font-size="10.00">napi&#45;inl.h</text>
</a>
</g>
</g>
<!-- Node12&#45;&gt;Node18 -->
<g id="edge21_Node000012_Node000018" class="edge">
<title>Node12&#45;&gt;Node18</title>
<g id="a_edge21_Node000012_Node000018"><a xlink:title=" ">
<path fill="none" stroke="#63b8ff" d="M381.94,-110.33C383.69,-103.67 386.17,-94.24 388.39,-85.78"/>
<polygon fill="#63b8ff" stroke="#63b8ff" points="391.72,-86.88 390.88,-76.32 384.95,-85.1 391.72,-86.88"/>
</a>
</g>
</g>
<!-- Node19 -->
<g id="Node000019" class="node">
<title>Node19</title>
<g id="a_Node000019"><a xlink:title=" ">
<polygon fill="#e0e0e0" stroke="#999999" points="280.5,-19.25 224.75,-19.25 224.75,0 280.5,0 280.5,-19.25"/>
<text xml:space="preserve" text-anchor="middle" x="252.62" y="-5.75" font-family="Helvetica,sans-Serif" font-size="10.00">algorithm</text>
</a>
</g>
</g>
<!-- Node18&#45;&gt;Node19 -->
<g id="edge22_Node000018_Node000019" class="edge">
<title>Node18&#45;&gt;Node19</title>
<g id="a_edge22_Node000018_Node000019"><a xlink:title=" ">
<path fill="none" stroke="#63b8ff" d="M369.71,-54.84C347.12,-46.31 312.99,-33.42 287.4,-23.76"/>
<polygon fill="#63b8ff" stroke="#63b8ff" points="288.67,-20.5 278.08,-20.24 286.2,-27.04 288.67,-20.5"/>
</a>
</g>
</g>
<!-- Node20 -->
<g id="Node000020" class="node">
<title>Node20</title>
<g id="a_Node000020"><a xlink:title=" ">
<polygon fill="#e0e0e0" stroke="#999999" points="344.25,-19.25 299,-19.25 299,0 344.25,0 344.25,-19.25"/>
<text xml:space="preserve" text-anchor="middle" x="321.62" y="-5.75" font-family="Helvetica,sans-Serif" font-size="10.00">cstring</text>
</a>
</g>
</g>
<!-- Node18&#45;&gt;Node20 -->
<g id="edge23_Node000018_Node000020" class="edge">
<title>Node18&#45;&gt;Node20</title>
<g id="a_edge23_Node000018_Node000020"><a xlink:title=" ">
<path fill="none" stroke="#63b8ff" d="M381.41,-54.84C370.8,-46.99 355.19,-35.45 342.58,-26.12"/>
<polygon fill="#63b8ff" stroke="#63b8ff" points="345,-23.56 334.88,-20.42 340.83,-29.19 345,-23.56"/>
</a>
</g>
</g>
<!-- Node21 -->
<g id="Node000021" class="node">
<title>Node21</title>
<g id="a_Node000021"><a xlink:title=" ">
<polygon fill="#e0e0e0" stroke="#999999" points="424.5,-19.25 362.75,-19.25 362.75,0 424.5,0 424.5,-19.25"/>
<text xml:space="preserve" text-anchor="middle" x="393.62" y="-5.75" font-family="Helvetica,sans-Serif" font-size="10.00">type_traits</text>
</a>
</g>
</g>
<!-- Node18&#45;&gt;Node21 -->
<g id="edge24_Node000018_Node000021" class="edge">
<title>Node18&#45;&gt;Node21</title>
<g id="a_edge24_Node000018_Node000021"><a xlink:title=" ">
<path fill="none" stroke="#63b8ff" d="M393.62,-55.08C393.62,-48.57 393.62,-39.42 393.62,-31.12"/>
<polygon fill="#63b8ff" stroke="#63b8ff" points="397.13,-31.12 393.63,-21.12 390.13,-31.12 397.13,-31.12"/>
</a>
</g>
</g>
<!-- Node22 -->
<g id="Node000022" class="node">
<title>Node22</title>
<g id="a_Node000022"><a xlink:title=" ">
<polygon fill="#e0e0e0" stroke="#999999" points="482.25,-19.25 443,-19.25 443,0 482.25,0 482.25,-19.25"/>
<text xml:space="preserve" text-anchor="middle" x="462.62" y="-5.75" font-family="Helvetica,sans-Serif" font-size="10.00">utility</text>
</a>
</g>
</g>
<!-- Node18&#45;&gt;Node22 -->
<g id="edge25_Node000018_Node000022" class="edge">
<title>Node18&#45;&gt;Node22</title>
<g id="a_edge25_Node000018_Node000022"><a xlink:title=" ">
<path fill="none" stroke="#63b8ff" d="M405.33,-54.84C415.4,-47.07 430.17,-35.67 442.19,-26.4"/>
<polygon fill="#63b8ff" stroke="#63b8ff" points="444.12,-29.33 449.89,-20.45 439.84,-23.79 444.12,-29.33"/>
</a>
</g>
</g>
<!-- Node23 -->
<g id="Node000023" class="node">
<title>Node23</title>
<g id="a_Node000023"><a xlink:href="napi-inl_8deprecated_8h.html" target="_top" xlink:title=" ">
<polygon fill="white" stroke="#666666" points="606.62,-19.25 500.62,-19.25 500.62,0 606.62,0 606.62,-19.25"/>
<text xml:space="preserve" text-anchor="middle" x="553.62" y="-5.75" font-family="Helvetica,sans-Serif" font-size="10.00">napi&#45;inl.deprecated.h</text>
</a>
</g>
</g>
<!-- Node18&#45;&gt;Node23 -->
<g id="edge26_Node000018_Node000023" class="edge">
<title>Node18&#45;&gt;Node23</title>
<g id="a_edge26_Node000018_Node000023"><a xlink:title=" ">
<path fill="none" stroke="#63b8ff" d="M420.77,-54.84C446.86,-46.16 486.52,-32.96 515.72,-23.24"/>
<polygon fill="#63b8ff" stroke="#63b8ff" points="516.53,-26.66 524.91,-20.18 514.32,-20.02 516.53,-26.66"/>
</a>
</g>
</g>
<!-- Node26&#45;&gt;Node13 -->
<g id="edge33_Node000026_Node000013" class="edge">
<title>Node26&#45;&gt;Node13</title>
<g id="a_edge33_Node000026_Node000013"><a xlink:title=" ">
<path fill="none" stroke="#63b8ff" d="M562.23,-220.82C558.21,-195.5 546.54,-122 540.83,-86.09"/>
<polygon fill="#63b8ff" stroke="#63b8ff" points="544.29,-85.54 539.27,-76.22 537.38,-86.64 544.29,-85.54"/>
</a>
</g>
</g>
<!-- Node27 -->
<g id="Node000027" class="node">
<title>Node27</title>
<g id="a_Node000027"><a xlink:title=" ">
<polygon fill="#e0e0e0" stroke="#999999" points="540.12,-185 497.12,-185 497.12,-165.75 540.12,-165.75 540.12,-185"/>
<text xml:space="preserve" text-anchor="middle" x="518.62" y="-171.5" font-family="Helvetica,sans-Serif" font-size="10.00">thread</text>
</a>
</g>
</g>
<!-- Node26&#45;&gt;Node27 -->
<g id="edge31_Node000026_Node000027" class="edge">
<title>Node26&#45;&gt;Node27</title>
<g id="a_edge31_Node000026_Node000027"><a xlink:title=" ">
<path fill="none" stroke="#63b8ff" d="M556.19,-220.83C550.04,-213.55 541.11,-202.98 533.5,-193.98"/>
<polygon fill="#63b8ff" stroke="#63b8ff" points="536.32,-191.89 527.19,-186.52 530.98,-196.41 536.32,-191.89"/>
</a>
</g>
</g>
<!-- Node28 -->
<g id="Node000028" class="node">
<title>Node28</title>
<g id="a_Node000028"><a xlink:title=" ">
<polygon fill="#e0e0e0" stroke="#999999" points="479,-185 396.25,-185 396.25,-165.75 479,-165.75 479,-185"/>
<text xml:space="preserve" text-anchor="middle" x="437.62" y="-171.5" font-family="Helvetica,sans-Serif" font-size="10.00">unordered_map</text>
</a>
</g>
</g>
<!-- Node26&#45;&gt;Node28 -->
<g id="edge32_Node000026_Node000028" class="edge">
<title>Node26&#45;&gt;Node28</title>
<g id="a_edge32_Node000026_Node000028"><a xlink:title=" ">
<path fill="none" stroke="#63b8ff" d="M542.25,-220.59C522.34,-212.18 492.39,-199.52 469.62,-189.9"/>
<polygon fill="#63b8ff" stroke="#63b8ff" points="471.07,-186.71 460.5,-186.04 468.35,-193.16 471.07,-186.71"/>
</a>
</g>
</g>
<!-- Node26&#45;&gt;Node29 -->
<g id="edge34_Node000026_Node000029" class="edge">
<title>Node26&#45;&gt;Node29</title>
<g id="a_edge34_Node000026_Node000029"><a xlink:title=" ">
<path fill="none" stroke="#63b8ff" d="M573.97,-220.59C582.7,-212.97 595.41,-201.87 605.92,-192.7"/>
<polygon fill="#63b8ff" stroke="#63b8ff" points="608.06,-195.48 613.29,-186.27 603.45,-190.21 608.06,-195.48"/>
</a>
</g>
</g>
<!-- Node29&#45;&gt;Node3 -->
<g id="edge36_Node000029_Node000003" class="edge">
<title>Node29&#45;&gt;Node3</title>
<g id="a_edge36_Node000029_Node000003"><a xlink:title=" ">
<path fill="none" stroke="#63b8ff" d="M634.29,-165.34C642.37,-157.8 654.09,-146.85 663.85,-137.73"/>
<polygon fill="#63b8ff" stroke="#63b8ff" points="666.07,-140.44 670.99,-131.06 661.3,-135.33 666.07,-140.44"/>
</a>
</g>
</g>
<!-- Node29&#45;&gt;Node16 -->
<g id="edge35_Node000029_Node000016" class="edge">
<title>Node29&#45;&gt;Node16</title>
<g id="a_edge35_Node000029_Node000016"><a xlink:title=" ">
<path fill="none" stroke="#63b8ff" d="M623.15,-165.5C620.29,-148.25 613.92,-109.83 609.97,-86.06"/>
<polygon fill="#63b8ff" stroke="#63b8ff" points="613.46,-85.66 608.37,-76.37 606.55,-86.81 613.46,-85.66"/>
</a>
</g>
</g>
<!-- Node30&#45;&gt;Node9 -->
<g id="edge41_Node000030_Node000009" class="edge">
<title>Node30&#45;&gt;Node9</title>
<g id="a_edge41_Node000030_Node000009"><a xlink:title=" ">
<path fill="none" stroke="#63b8ff" d="M352.68,-220.59C338.36,-212.48 317.09,-200.43 300.37,-190.96"/>
<polygon fill="#63b8ff" stroke="#63b8ff" points="302.39,-188.08 291.97,-186.2 298.94,-194.17 302.39,-188.08"/>
</a>
</g>
</g>
<!-- Node30&#45;&gt;Node10 -->
<g id="edge38_Node000030_Node000010" class="edge">
<title>Node30&#45;&gt;Node10</title>
<g id="a_edge38_Node000030_Node000010"><a xlink:title=" ">
<path fill="none" stroke="#63b8ff" d="M366.87,-220.7C362.08,-198.7 346.73,-141.41 311.62,-110.5 307.58,-106.94 246.15,-87.44 207.57,-75.43"/>
<polygon fill="#63b8ff" stroke="#63b8ff" points="208.92,-72.19 198.33,-72.56 206.84,-78.87 208.92,-72.19"/>
</a>
</g>
</g>
<!-- Node30&#45;&gt;Node15 -->
<g id="edge40_Node000030_Node000015" class="edge">
<title>Node30&#45;&gt;Node15</title>
<g id="a_edge40_Node000030_Node000015"><a xlink:title=" ">
<path fill="none" stroke="#63b8ff" d="M370.23,-220.55C372.72,-207.8 378.24,-184.08 387.62,-165.75 403.91,-133.93 430.75,-102.07 448.05,-83.16"/>
<polygon fill="#63b8ff" stroke="#63b8ff" points="450.39,-85.79 454.66,-76.09 445.27,-81.01 450.39,-85.79"/>
</a>
</g>
</g>
<!-- Node30&#45;&gt;Node28 -->
<g id="edge39_Node000030_Node000028" class="edge">
<title>Node30&#45;&gt;Node28</title>
<g id="a_edge39_Node000030_Node000028"><a xlink:title=" ">
<path fill="none" stroke="#63b8ff" d="M380.33,-220.59C390.4,-212.82 405.17,-201.42 417.19,-192.15"/>
<polygon fill="#63b8ff" stroke="#63b8ff" points="419.12,-195.08 424.89,-186.2 414.84,-189.54 419.12,-195.08"/>
</a>
</g>
</g>
</g>
</svg>

<g id="navigator" transform="translate(0 0)" fill="#404254">
  <rect fill="#f2f5e9" fill-opacity="0.5" stroke="#606060" stroke-width=".5" x="0" y="0" width="60" height="60"/>
  <use id="zoomplus" xlink:href="#zoomPlus" x="17" y="9" onmousedown="handleZoom(evt,'in')"/>
  <use id="zoomminus" xlink:href="#zoomMin" x="42" y="9" onmousedown="handleZoom(evt,'out')"/>
  <use id="reset" xlink:href="#resetDef" x="30" y="36" onmousedown="handleReset()"/>
   <use id="arrowup" xlink:href="#arrowUp" x="0" y="0" onmousedown="handlePan(0,-1)"/>
  <use id="arrowright" xlink:href="#arrowRight" x="0" y="0" onmousedown="handlePan(1,0)"/>
  <use id="arrowdown" xlink:href="#arrowDown" x="0" y="0" onmousedown="handlePan(0,1)"/>
  <use id="arrowleft" xlink:href="#arrowLeft" x="0" y="0" onmousedown="handlePan(-1,0)"/>
</g>
<svg viewBox="0 0 15 15" width="100%" height="30px" preserveAspectRatio="xMaxYMin meet">
 <g id="arrow_out" transform="scale(0.3 0.3)">
  <a xlink:href="_watcher_8cc__incl_org.svg" target="_base">
   <rect id="button" ry="5" rx="5" y="6" x="6" height="38" width="38"
        fill="#f2f5e9" fill-opacity="0.5" stroke="#606060" stroke-width="1.0"/>
   <path id="arrow"
     d="M 11.500037,31.436501 C 11.940474,20.09759 22.043105,11.32322 32.158766,21.979434 L 37.068811,17.246167 C 37.068811,17.246167 37.088388,32 37.088388,32 L 22.160133,31.978069 C 22.160133,31.978069 26.997745,27.140456 26.997745,27.140456 C 18.528582,18.264221 13.291696,25.230495 11.500037,31.436501 z"
     style="fill:#404040;"/>
  </a>
 </g>
</svg>

<style type='text/css'>
<![CDATA[
[data-mouse-over-selected='false'] { opacity: 0.7; }
[data-mouse-over-selected='true']  { opacity: 1.0; }
]]>
</style>
<script type="application/ecmascript"><![CDATA[
document.addEventListener('DOMContentLoaded', (event) => {
  highlightEdges();
  highlightAdjacentNodes();
});
]]></script>
</svg>
