<?xml version="1.0" encoding="UTF-8" standalone="no"?>
<!DOCTYPE svg PUBLIC "-//W3C//DTD SVG 1.1//EN"
 "http://www.w3.org/Graphics/SVG/1.1/DTD/svg11.dtd">
<!-- Generated by graphviz version 14.0.4 (20251115.1723)
 -->
<!-- Title: frontend/node_modules/@parcel/watcher/src/Watcher.hh Pages: 1 -->
<svg width="718pt" height="326pt"
 viewBox="0.00 0.00 718.00 326.00" xmlns="http://www.w3.org/2000/svg" xmlns:xlink="http://www.w3.org/1999/xlink">
<g id="graph0" class="graph" transform="scale(1 1) rotate(0) translate(4 322)">
<title>frontend/node_modules/@parcel/watcher/src/Watcher.hh</title>
<!-- Node1 -->
<g id="Node000001" class="node">
<title>Node1</title>
<g id="a_Node000001"><a xlink:title=" ">
<polygon fill="#999999" stroke="#666666" points="239.9,-318 122.65,-318 122.65,-276.25 239.9,-276.25 239.9,-318"/>
<text xml:space="preserve" text-anchor="start" x="130.65" y="-304.5" font-family="Helvetica,sans-Serif" font-size="10.00">frontend/node_modules</text>
<text xml:space="preserve" text-anchor="start" x="130.65" y="-293.25" font-family="Helvetica,sans-Serif" font-size="10.00">/@parcel/watcher/src</text>
<text xml:space="preserve" text-anchor="middle" x="181.27" y="-282" font-family="Helvetica,sans-Serif" font-size="10.00">/Watcher.hh</text>
</a>
</g>
</g>
<!-- Node2 -->
<g id="Node000002" class="node">
<title>Node2</title>
<g id="a_Node000002"><a xlink:title=" ">
<polygon fill="#e0e0e0" stroke="#999999" points="187.27,-129.75 93.27,-129.75 93.27,-110.5 187.27,-110.5 187.27,-129.75"/>
<text xml:space="preserve" text-anchor="middle" x="140.27" y="-116.25" font-family="Helvetica,sans-Serif" font-size="10.00">condition_variable</text>
</a>
</g>
</g>
<!-- Node1&#45;&gt;Node2 -->
<g id="edge1_Node000001_Node000002" class="edge">
<title>Node1&#45;&gt;Node2</title>
<g id="a_edge1_Node000001_Node000002"><a xlink:title=" ">
<path fill="none" stroke="#63b8ff" d="M179.66,-275.88C177.23,-249.93 171.63,-203.75 160.27,-165.75 157.69,-157.12 153.81,-147.97 150.15,-140.22"/>
<polygon fill="#63b8ff" stroke="#63b8ff" points="153.38,-138.85 145.8,-131.44 147.11,-141.96 153.38,-138.85"/>
</a>
</g>
</g>
<!-- Node3 -->
<g id="Node000003" class="node">
<title>Node3</title>
<g id="a_Node000003"><a xlink:title=" ">
<polygon fill="#e0e0e0" stroke="#999999" points="93.02,-185 15.52,-185 15.52,-165.75 93.02,-165.75 93.02,-185"/>
<text xml:space="preserve" text-anchor="middle" x="54.27" y="-171.5" font-family="Helvetica,sans-Serif" font-size="10.00">unordered_set</text>
</a>
</g>
</g>
<!-- Node1&#45;&gt;Node3 -->
<g id="edge2_Node000001_Node000003" class="edge">
<title>Node1&#45;&gt;Node3</title>
<g id="a_edge2_Node000001_Node000003"><a xlink:title=" ">
<path fill="none" stroke="#63b8ff" d="M122.47,-287.19C94.42,-279.65 63.33,-265.77 46.27,-240.25 37.63,-227.31 40.75,-209.56 45.4,-196.05"/>
<polygon fill="#63b8ff" stroke="#63b8ff" points="48.59,-197.49 49.06,-186.9 42.09,-194.89 48.59,-197.49"/>
</a>
</g>
</g>
<!-- Node4 -->
<g id="Node000004" class="node">
<title>Node4</title>
<g id="a_Node000004"><a xlink:title=" ">
<polygon fill="#e0e0e0" stroke="#999999" points="85.02,-240.25 55.52,-240.25 55.52,-221 85.02,-221 85.02,-240.25"/>
<text xml:space="preserve" text-anchor="middle" x="70.27" y="-226.75" font-family="Helvetica,sans-Serif" font-size="10.00">set</text>
</a>
</g>
</g>
<!-- Node1&#45;&gt;Node4 -->
<g id="edge3_Node000001_Node000004" class="edge">
<title>Node1&#45;&gt;Node4</title>
<g id="a_edge3_Node000001_Node000004"><a xlink:title=" ">
<path fill="none" stroke="#63b8ff" d="M146.46,-275.89C129.82,-266.23 110.3,-254.88 95.18,-246.1"/>
<polygon fill="#63b8ff" stroke="#63b8ff" points="97.22,-243.23 86.81,-241.23 93.7,-249.29 97.22,-243.23"/>
</a>
</g>
</g>
<!-- Node5 -->
<g id="Node000005" class="node">
<title>Node5</title>
<g id="a_Node000005"><a xlink:title=" ">
<polygon fill="#e0e0e0" stroke="#999999" points="219.9,-74.5 156.65,-74.5 156.65,-55.25 219.9,-55.25 219.9,-74.5"/>
<text xml:space="preserve" text-anchor="middle" x="188.27" y="-61" font-family="Helvetica,sans-Serif" font-size="10.00">node_api.h</text>
</a>
</g>
</g>
<!-- Node1&#45;&gt;Node5 -->
<g id="edge4_Node000001_Node000005" class="edge">
<title>Node1&#45;&gt;Node5</title>
<g id="a_edge4_Node000001_Node000005"><a xlink:title=" ">
<path fill="none" stroke="#63b8ff" d="M122.26,-280.28C60.79,-260.42 -22.83,-222.03 6.27,-165.75 33.46,-113.18 100.65,-86.96 145.34,-74.91"/>
<polygon fill="#63b8ff" stroke="#63b8ff" points="146.16,-78.31 154.99,-72.45 144.44,-71.53 146.16,-78.31"/>
</a>
</g>
</g>
<!-- Node6 -->
<g id="Node000006" class="node">
<title>Node6</title>
<g id="a_Node000006"><a xlink:href="_glob_8hh.html" target="_top" xlink:title=" ">
<polygon fill="white" stroke="#666666" points="153.15,-240.25 103.4,-240.25 103.4,-221 153.15,-221 153.15,-240.25"/>
<text xml:space="preserve" text-anchor="middle" x="128.27" y="-226.75" font-family="Helvetica,sans-Serif" font-size="10.00">Glob.hh</text>
</a>
</g>
</g>
<!-- Node1&#45;&gt;Node6 -->
<g id="edge5_Node000001_Node000006" class="edge">
<title>Node1&#45;&gt;Node6</title>
<g id="a_edge5_Node000001_Node000006"><a xlink:title=" ">
<path fill="none" stroke="#63b8ff" d="M164.79,-276.07C157.81,-267.56 149.73,-257.73 142.95,-249.48"/>
<polygon fill="#63b8ff" stroke="#63b8ff" points="145.74,-247.37 136.69,-241.86 140.33,-251.81 145.74,-247.37"/>
</a>
</g>
</g>
<!-- Node8 -->
<g id="Node000008" class="node">
<title>Node8</title>
<g id="a_Node000008"><a xlink:href="_event_8hh.html" target="_top" xlink:title=" ">
<polygon fill="white" stroke="#666666" points="536.77,-185 481.77,-185 481.77,-165.75 536.77,-165.75 536.77,-185"/>
<text xml:space="preserve" text-anchor="middle" x="509.27" y="-171.5" font-family="Helvetica,sans-Serif" font-size="10.00">Event.hh</text>
</a>
</g>
</g>
<!-- Node1&#45;&gt;Node8 -->
<g id="edge8_Node000001_Node000008" class="edge">
<title>Node1&#45;&gt;Node8</title>
<g id="a_edge8_Node000001_Node000008"><a xlink:title=" ">
<path fill="none" stroke="#63b8ff" d="M238.38,-275.85C267.93,-265.31 304.57,-252.18 337.27,-240.25 384.93,-222.87 439.86,-202.39 474.57,-189.4"/>
<polygon fill="#63b8ff" stroke="#63b8ff" points="475.54,-192.77 483.68,-185.99 473.08,-186.22 475.54,-192.77"/>
</a>
</g>
</g>
<!-- Node25 -->
<g id="Node000025" class="node">
<title>Node25</title>
<g id="a_Node000025"><a xlink:href="_debounce_8hh.html" target="_top" xlink:title=" ">
<polygon fill="white" stroke="#666666" points="328.15,-240.25 254.4,-240.25 254.4,-221 328.15,-221 328.15,-240.25"/>
<text xml:space="preserve" text-anchor="middle" x="291.27" y="-226.75" font-family="Helvetica,sans-Serif" font-size="10.00">Debounce.hh</text>
</a>
</g>
</g>
<!-- Node1&#45;&gt;Node25 -->
<g id="edge29_Node000001_Node000025" class="edge">
<title>Node1&#45;&gt;Node25</title>
<g id="a_edge29_Node000001_Node000025"><a xlink:title=" ">
<path fill="none" stroke="#63b8ff" d="M215.78,-275.89C232.16,-266.29 251.37,-255.02 266.31,-246.26"/>
<polygon fill="#63b8ff" stroke="#63b8ff" points="267.73,-249.49 274.59,-241.41 264.19,-243.45 267.73,-249.49"/>
</a>
</g>
</g>
<!-- Node28 -->
<g id="Node000028" class="node">
<title>Node28</title>
<g id="a_Node000028"><a xlink:href="_signal_8hh.html" target="_top" xlink:title=" ">
<polygon fill="white" stroke="#666666" points="263.52,-185 207.02,-185 207.02,-165.75 263.52,-165.75 263.52,-185"/>
<text xml:space="preserve" text-anchor="middle" x="235.27" y="-171.5" font-family="Helvetica,sans-Serif" font-size="10.00">Signal.hh</text>
</a>
</g>
</g>
<!-- Node1&#45;&gt;Node28 -->
<g id="edge41_Node000001_Node000028" class="edge">
<title>Node1&#45;&gt;Node28</title>
<g id="a_edge41_Node000001_Node000028"><a xlink:title=" ">
<path fill="none" stroke="#63b8ff" d="M190.43,-275.81C200.53,-253.41 216.66,-217.64 226.58,-195.66"/>
<polygon fill="#63b8ff" stroke="#63b8ff" points="229.7,-197.24 230.62,-186.69 223.32,-194.36 229.7,-197.24"/>
</a>
</g>
</g>
<!-- Node29 -->
<g id="Node000029" class="node">
<title>Node29</title>
<g id="a_Node000029"><a xlink:href="_dir_tree_8hh.html" target="_top" xlink:title=" ">
<polygon fill="white" stroke="#666666" points="540.15,-240.25 478.4,-240.25 478.4,-221 540.15,-221 540.15,-240.25"/>
<text xml:space="preserve" text-anchor="middle" x="509.27" y="-226.75" font-family="Helvetica,sans-Serif" font-size="10.00">DirTree.hh</text>
</a>
</g>
</g>
<!-- Node1&#45;&gt;Node29 -->
<g id="edge36_Node000001_Node000029" class="edge">
<title>Node1&#45;&gt;Node29</title>
<g id="a_edge36_Node000001_Node000029"><a xlink:title=" ">
<path fill="none" stroke="#63b8ff" d="M240.29,-284.52C305.52,-271.69 408.96,-251.35 466.71,-239.99"/>
<polygon fill="#63b8ff" stroke="#63b8ff" points="467.35,-243.44 476.49,-238.07 466,-236.57 467.35,-243.44"/>
</a>
</g>
</g>
<!-- Node6&#45;&gt;Node3 -->
<g id="edge6_Node000006_Node000003" class="edge">
<title>Node6&#45;&gt;Node3</title>
<g id="a_edge6_Node000006_Node000003"><a xlink:title=" ">
<path fill="none" stroke="#63b8ff" d="M115.72,-220.59C104.81,-212.74 88.77,-201.2 75.81,-191.87"/>
<polygon fill="#63b8ff" stroke="#63b8ff" points="78.03,-189.16 67.87,-186.16 73.94,-194.84 78.03,-189.16"/>
</a>
</g>
</g>
<!-- Node7 -->
<g id="Node000007" class="node">
<title>Node7</title>
<g id="a_Node000007"><a xlink:title=" ">
<polygon fill="#e0e0e0" stroke="#999999" points="151.27,-185 111.27,-185 111.27,-165.75 151.27,-165.75 151.27,-185"/>
<text xml:space="preserve" text-anchor="middle" x="131.27" y="-171.5" font-family="Helvetica,sans-Serif" font-size="10.00">regex</text>
</a>
</g>
</g>
<!-- Node6&#45;&gt;Node7 -->
<g id="edge7_Node000006_Node000007" class="edge">
<title>Node6&#45;&gt;Node7</title>
<g id="a_edge7_Node000006_Node000007"><a xlink:title=" ">
<path fill="none" stroke="#63b8ff" d="M128.77,-220.83C129.14,-214.24 129.66,-204.96 130.14,-196.57"/>
<polygon fill="#63b8ff" stroke="#63b8ff" points="133.61,-197.05 130.68,-186.87 126.62,-196.66 133.61,-197.05"/>
</a>
</g>
</g>
<!-- Node8&#45;&gt;Node5 -->
<g id="edge10_Node000008_Node000005" class="edge">
<title>Node8&#45;&gt;Node5</title>
<g id="a_edge10_Node000008_Node000005"><a xlink:title=" ">
<path fill="none" stroke="#63b8ff" d="M481.4,-167.86C478.32,-167.14 475.23,-166.43 472.27,-165.75 401.66,-149.53 381.4,-154.43 313.27,-129.75 276.75,-116.52 237.24,-95 212.63,-80.64"/>
<polygon fill="#63b8ff" stroke="#63b8ff" points="214.43,-77.64 204.04,-75.56 210.87,-83.67 214.43,-77.64"/>
</a>
</g>
</g>
<!-- Node9 -->
<g id="Node000009" class="node">
<title>Node9</title>
<g id="a_Node000009"><a xlink:title=" ">
<polygon fill="#e0e0e0" stroke="#999999" points="710.27,-74.5 670.27,-74.5 670.27,-55.25 710.27,-55.25 710.27,-74.5"/>
<text xml:space="preserve" text-anchor="middle" x="690.27" y="-61" font-family="Helvetica,sans-Serif" font-size="10.00">string</text>
</a>
</g>
</g>
<!-- Node8&#45;&gt;Node9 -->
<g id="edge9_Node000008_Node000009" class="edge">
<title>Node8&#45;&gt;Node9</title>
<g id="a_edge9_Node000008_Node000009"><a xlink:title=" ">
<path fill="none" stroke="#63b8ff" d="M537.17,-168.2C563.1,-161.56 602,-149.26 631.27,-129.75 649.67,-117.49 666.33,-98.35 677.21,-84.22"/>
<polygon fill="#63b8ff" stroke="#63b8ff" points="680.02,-86.31 683.16,-76.2 674.4,-82.14 680.02,-86.31"/>
</a>
</g>
</g>
<!-- Node10 -->
<g id="Node000010" class="node">
<title>Node10</title>
<g id="a_Node000010"><a xlink:href="include_8h.html" target="_top" xlink:title=" ">
<polygon fill="white" stroke="#666666" points="622.4,-129.75 538.15,-129.75 538.15,-110.5 622.4,-110.5 622.4,-129.75"/>
<text xml:space="preserve" text-anchor="middle" x="580.27" y="-116.25" font-family="Helvetica,sans-Serif" font-size="10.00">wasm/include.h</text>
</a>
</g>
</g>
<!-- Node8&#45;&gt;Node10 -->
<g id="edge11_Node000008_Node000010" class="edge">
<title>Node8&#45;&gt;Node10</title>
<g id="a_edge11_Node000008_Node000010"><a xlink:title=" ">
<path fill="none" stroke="#63b8ff" d="M521.32,-165.34C531.68,-157.57 546.87,-146.17 559.24,-136.9"/>
<polygon fill="#63b8ff" stroke="#63b8ff" points="561.3,-139.73 567.2,-130.93 557.1,-134.13 561.3,-139.73"/>
</a>
</g>
</g>
<!-- Node11 -->
<g id="Node000011" class="node">
<title>Node11</title>
<g id="a_Node000011"><a xlink:href="napi_8h.html" target="_top" xlink:title=" ">
<polygon fill="white" stroke="#666666" points="452.4,-129.75 410.15,-129.75 410.15,-110.5 452.4,-110.5 452.4,-129.75"/>
<text xml:space="preserve" text-anchor="middle" x="431.27" y="-116.25" font-family="Helvetica,sans-Serif" font-size="10.00">napi.h</text>
</a>
</g>
</g>
<!-- Node8&#45;&gt;Node11 -->
<g id="edge12_Node000008_Node000011" class="edge">
<title>Node8&#45;&gt;Node11</title>
<g id="a_edge12_Node000008_Node000011"><a xlink:title=" ">
<path fill="none" stroke="#63b8ff" d="M496.04,-165.34C484.5,-157.46 467.51,-145.86 453.82,-136.52"/>
<polygon fill="#63b8ff" stroke="#63b8ff" points="456.05,-133.8 445.82,-131.06 452.11,-139.58 456.05,-133.8"/>
</a>
</g>
</g>
<!-- Node15 -->
<g id="Node000015" class="node">
<title>Node15</title>
<g id="a_Node000015"><a xlink:title=" ">
<polygon fill="#e0e0e0" stroke="#999999" points="280.77,-74.5 237.77,-74.5 237.77,-55.25 280.77,-55.25 280.77,-74.5"/>
<text xml:space="preserve" text-anchor="middle" x="259.27" y="-61" font-family="Helvetica,sans-Serif" font-size="10.00">mutex</text>
</a>
</g>
</g>
<!-- Node8&#45;&gt;Node15 -->
<g id="edge26_Node000008_Node000015" class="edge">
<title>Node8&#45;&gt;Node15</title>
<g id="a_edge26_Node000008_Node000015"><a xlink:title=" ">
<path fill="none" stroke="#63b8ff" d="M481.35,-167.89C441.85,-158.5 371.82,-141.02 348.27,-129.75 321.78,-117.07 294.87,-96.45 277.68,-82.08"/>
<polygon fill="#63b8ff" stroke="#63b8ff" points="280.23,-79.65 270.35,-75.81 275.68,-84.97 280.23,-79.65"/>
</a>
</g>
</g>
<!-- Node23 -->
<g id="Node000023" class="node">
<title>Node23</title>
<g id="a_Node000023"><a xlink:title=" ">
<polygon fill="#e0e0e0" stroke="#999999" points="391.65,-129.75 356.9,-129.75 356.9,-110.5 391.65,-110.5 391.65,-129.75"/>
<text xml:space="preserve" text-anchor="middle" x="374.27" y="-116.25" font-family="Helvetica,sans-Serif" font-size="10.00">map</text>
</a>
</g>
</g>
<!-- Node8&#45;&gt;Node23 -->
<g id="edge27_Node000008_Node000023" class="edge">
<title>Node8&#45;&gt;Node23</title>
<g id="a_edge27_Node000008_Node000023"><a xlink:title=" ">
<path fill="none" stroke="#63b8ff" d="M486.37,-165.34C463.28,-156.23 427.58,-142.15 402.69,-132.33"/>
<polygon fill="#63b8ff" stroke="#63b8ff" points="404.1,-129.13 393.51,-128.71 401.53,-135.64 404.1,-129.13"/>
</a>
</g>
</g>
<!-- Node24 -->
<g id="Node000024" class="node">
<title>Node24</title>
<g id="a_Node000024"><a xlink:title=" ">
<polygon fill="#e0e0e0" stroke="#999999" points="520.15,-129.75 470.4,-129.75 470.4,-110.5 520.15,-110.5 520.15,-129.75"/>
<text xml:space="preserve" text-anchor="middle" x="495.27" y="-116.25" font-family="Helvetica,sans-Serif" font-size="10.00">optional</text>
</a>
</g>
</g>
<!-- Node8&#45;&gt;Node24 -->
<g id="edge28_Node000008_Node000024" class="edge">
<title>Node8&#45;&gt;Node24</title>
<g id="a_edge28_Node000008_Node000024"><a xlink:title=" ">
<path fill="none" stroke="#63b8ff" d="M506.96,-165.58C505.21,-158.92 502.73,-149.49 500.51,-141.03"/>
<polygon fill="#63b8ff" stroke="#63b8ff" points="503.95,-140.35 498.02,-131.57 497.18,-142.13 503.95,-140.35"/>
</a>
</g>
</g>
<!-- Node11&#45;&gt;Node5 -->
<g id="edge13_Node000011_Node000005" class="edge">
<title>Node11&#45;&gt;Node5</title>
<g id="a_edge13_Node000011_Node000005"><a xlink:title=" ">
<path fill="none" stroke="#63b8ff" d="M409.97,-113.01C406.73,-112.13 403.42,-111.27 400.27,-110.5 399.24,-110.25 292.88,-87.87 231.23,-74.91"/>
<polygon fill="#63b8ff" stroke="#63b8ff" points="232.26,-71.55 221.75,-72.92 230.82,-78.4 232.26,-71.55"/>
</a>
</g>
</g>
<!-- Node11&#45;&gt;Node9 -->
<g id="edge18_Node000011_Node000009" class="edge">
<title>Node11&#45;&gt;Node9</title>
<g id="a_edge18_Node000011_Node000009"><a xlink:title=" ">
<path fill="none" stroke="#63b8ff" d="M452.83,-112.64C455.66,-111.88 458.53,-111.14 461.27,-110.5 545.8,-90.8 571.42,-95.02 659.07,-74.79"/>
<polygon fill="#63b8ff" stroke="#63b8ff" points="659.66,-78.24 668.6,-72.54 658.06,-71.43 659.66,-78.24"/>
</a>
</g>
</g>
<!-- Node12 -->
<g id="Node000012" class="node">
<title>Node12</title>
<g id="a_Node000012"><a xlink:title=" ">
<polygon fill="#e0e0e0" stroke="#999999" points="357.27,-74.5 299.27,-74.5 299.27,-55.25 357.27,-55.25 357.27,-74.5"/>
<text xml:space="preserve" text-anchor="middle" x="328.27" y="-61" font-family="Helvetica,sans-Serif" font-size="10.00">functional</text>
</a>
</g>
</g>
<!-- Node11&#45;&gt;Node12 -->
<g id="edge14_Node000011_Node000012" class="edge">
<title>Node11&#45;&gt;Node12</title>
<g id="a_edge14_Node000011_Node000012"><a xlink:title=" ">
<path fill="none" stroke="#63b8ff" d="M413.8,-110.09C397.97,-101.91 374.37,-89.71 355.97,-80.19"/>
<polygon fill="#63b8ff" stroke="#63b8ff" points="357.67,-77.13 347.18,-75.65 354.45,-83.35 357.67,-77.13"/>
</a>
</g>
</g>
<!-- Node13 -->
<g id="Node000013" class="node">
<title>Node13</title>
<g id="a_Node000013"><a xlink:title=" ">
<polygon fill="#e0e0e0" stroke="#999999" points="582.4,-74.5 510.15,-74.5 510.15,-55.25 582.4,-55.25 582.4,-74.5"/>
<text xml:space="preserve" text-anchor="middle" x="546.27" y="-61" font-family="Helvetica,sans-Serif" font-size="10.00">initializer_list</text>
</a>
</g>
</g>
<!-- Node11&#45;&gt;Node13 -->
<g id="edge15_Node000011_Node000013" class="edge">
<title>Node11&#45;&gt;Node13</title>
<g id="a_edge15_Node000011_Node000013"><a xlink:title=" ">
<path fill="none" stroke="#63b8ff" d="M450.78,-110.09C468.79,-101.75 495.8,-89.25 516.5,-79.66"/>
<polygon fill="#63b8ff" stroke="#63b8ff" points="517.69,-82.97 525.3,-75.59 514.75,-76.61 517.69,-82.97"/>
</a>
</g>
</g>
<!-- Node14 -->
<g id="Node000014" class="node">
<title>Node14</title>
<g id="a_Node000014"><a xlink:title=" ">
<polygon fill="#e0e0e0" stroke="#999999" points="651.9,-74.5 600.65,-74.5 600.65,-55.25 651.9,-55.25 651.9,-74.5"/>
<text xml:space="preserve" text-anchor="middle" x="626.27" y="-61" font-family="Helvetica,sans-Serif" font-size="10.00">memory</text>
</a>
</g>
</g>
<!-- Node11&#45;&gt;Node14 -->
<g id="edge16_Node000011_Node000014" class="edge">
<title>Node11&#45;&gt;Node14</title>
<g id="a_edge16_Node000011_Node000014"><a xlink:title=" ">
<path fill="none" stroke="#63b8ff" d="M452.89,-112.87C455.71,-112.06 458.56,-111.26 461.27,-110.5 505.12,-98.27 555.67,-84.67 589.14,-75.74"/>
<polygon fill="#63b8ff" stroke="#63b8ff" points="590.01,-79.13 598.77,-73.17 588.21,-72.37 590.01,-79.13"/>
</a>
</g>
</g>
<!-- Node11&#45;&gt;Node15 -->
<g id="edge17_Node000011_Node000015" class="edge">
<title>Node11&#45;&gt;Node15</title>
<g id="a_edge17_Node000011_Node000015"><a xlink:title=" ">
<path fill="none" stroke="#63b8ff" d="M409.84,-112.49C380.31,-103.35 326.84,-86.79 292.21,-76.07"/>
<polygon fill="#63b8ff" stroke="#63b8ff" points="293.29,-72.74 282.7,-73.13 291.21,-79.43 293.29,-72.74"/>
</a>
</g>
</g>
<!-- Node16 -->
<g id="Node000016" class="node">
<title>Node16</title>
<g id="a_Node000016"><a xlink:title=" ">
<polygon fill="#e0e0e0" stroke="#999999" points="418.77,-74.5 375.77,-74.5 375.77,-55.25 418.77,-55.25 418.77,-74.5"/>
<text xml:space="preserve" text-anchor="middle" x="397.27" y="-61" font-family="Helvetica,sans-Serif" font-size="10.00">vector</text>
</a>
</g>
</g>
<!-- Node11&#45;&gt;Node16 -->
<g id="edge19_Node000011_Node000016" class="edge">
<title>Node11&#45;&gt;Node16</title>
<g id="a_edge19_Node000011_Node000016"><a xlink:title=" ">
<path fill="none" stroke="#63b8ff" d="M425.66,-110.33C421.16,-103.28 414.69,-93.15 409.06,-84.33"/>
<polygon fill="#63b8ff" stroke="#63b8ff" points="412.16,-82.68 403.82,-76.13 406.26,-86.45 412.16,-82.68"/>
</a>
</g>
</g>
<!-- Node17 -->
<g id="Node000017" class="node">
<title>Node17</title>
<g id="a_Node000017"><a xlink:href="napi-inl_8h.html" target="_top" xlink:title=" ">
<polygon fill="white" stroke="#666666" points="491.77,-74.5 436.77,-74.5 436.77,-55.25 491.77,-55.25 491.77,-74.5"/>
<text xml:space="preserve" text-anchor="middle" x="464.27" y="-61" font-family="Helvetica,sans-Serif" font-size="10.00">napi&#45;inl.h</text>
</a>
</g>
</g>
<!-- Node11&#45;&gt;Node17 -->
<g id="edge20_Node000011_Node000017" class="edge">
<title>Node11&#45;&gt;Node17</title>
<g id="a_edge20_Node000011_Node000017"><a xlink:title=" ">
<path fill="none" stroke="#63b8ff" d="M436.72,-110.33C441.04,-103.36 447.24,-93.37 452.66,-84.62"/>
<polygon fill="#63b8ff" stroke="#63b8ff" points="455.62,-86.49 457.91,-76.15 449.67,-82.8 455.62,-86.49"/>
</a>
</g>
</g>
<!-- Node18 -->
<g id="Node000018" class="node">
<title>Node18</title>
<g id="a_Node000018"><a xlink:title=" ">
<polygon fill="#e0e0e0" stroke="#999999" points="351.15,-19.25 295.4,-19.25 295.4,0 351.15,0 351.15,-19.25"/>
<text xml:space="preserve" text-anchor="middle" x="323.27" y="-5.75" font-family="Helvetica,sans-Serif" font-size="10.00">algorithm</text>
</a>
</g>
</g>
<!-- Node17&#45;&gt;Node18 -->
<g id="edge21_Node000017_Node000018" class="edge">
<title>Node17&#45;&gt;Node18</title>
<g id="a_edge21_Node000017_Node000018"><a xlink:title=" ">
<path fill="none" stroke="#63b8ff" d="M440.35,-54.84C417.77,-46.31 383.64,-33.42 358.04,-23.76"/>
<polygon fill="#63b8ff" stroke="#63b8ff" points="359.32,-20.5 348.73,-20.24 356.84,-27.04 359.32,-20.5"/>
</a>
</g>
</g>
<!-- Node19 -->
<g id="Node000019" class="node">
<title>Node19</title>
<g id="a_Node000019"><a xlink:title=" ">
<polygon fill="#e0e0e0" stroke="#999999" points="414.9,-19.25 369.65,-19.25 369.65,0 414.9,0 414.9,-19.25"/>
<text xml:space="preserve" text-anchor="middle" x="392.27" y="-5.75" font-family="Helvetica,sans-Serif" font-size="10.00">cstring</text>
</a>
</g>
</g>
<!-- Node17&#45;&gt;Node19 -->
<g id="edge22_Node000017_Node000019" class="edge">
<title>Node17&#45;&gt;Node19</title>
<g id="a_edge22_Node000017_Node000019"><a xlink:title=" ">
<path fill="none" stroke="#63b8ff" d="M452.06,-54.84C441.44,-46.99 425.84,-35.45 413.23,-26.12"/>
<polygon fill="#63b8ff" stroke="#63b8ff" points="415.64,-23.56 405.52,-20.42 411.48,-29.19 415.64,-23.56"/>
</a>
</g>
</g>
<!-- Node20 -->
<g id="Node000020" class="node">
<title>Node20</title>
<g id="a_Node000020"><a xlink:title=" ">
<polygon fill="#e0e0e0" stroke="#999999" points="495.15,-19.25 433.4,-19.25 433.4,0 495.15,0 495.15,-19.25"/>
<text xml:space="preserve" text-anchor="middle" x="464.27" y="-5.75" font-family="Helvetica,sans-Serif" font-size="10.00">type_traits</text>
</a>
</g>
</g>
<!-- Node17&#45;&gt;Node20 -->
<g id="edge23_Node000017_Node000020" class="edge">
<title>Node17&#45;&gt;Node20</title>
<g id="a_edge23_Node000017_Node000020"><a xlink:title=" ">
<path fill="none" stroke="#63b8ff" d="M464.27,-55.08C464.27,-48.57 464.27,-39.42 464.27,-31.12"/>
<polygon fill="#63b8ff" stroke="#63b8ff" points="467.77,-31.12 464.27,-21.12 460.77,-31.12 467.77,-31.12"/>
</a>
</g>
</g>
<!-- Node21 -->
<g id="Node000021" class="node">
<title>Node21</title>
<g id="a_Node000021"><a xlink:title=" ">
<polygon fill="#e0e0e0" stroke="#999999" points="552.9,-19.25 513.65,-19.25 513.65,0 552.9,0 552.9,-19.25"/>
<text xml:space="preserve" text-anchor="middle" x="533.27" y="-5.75" font-family="Helvetica,sans-Serif" font-size="10.00">utility</text>
</a>
</g>
</g>
<!-- Node17&#45;&gt;Node21 -->
<g id="edge24_Node000017_Node000021" class="edge">
<title>Node17&#45;&gt;Node21</title>
<g id="a_edge24_Node000017_Node000021"><a xlink:title=" ">
<path fill="none" stroke="#63b8ff" d="M475.98,-54.84C486.05,-47.07 500.82,-35.67 512.83,-26.4"/>
<polygon fill="#63b8ff" stroke="#63b8ff" points="514.76,-29.33 520.54,-20.45 510.49,-23.79 514.76,-29.33"/>
</a>
</g>
</g>
<!-- Node22 -->
<g id="Node000022" class="node">
<title>Node22</title>
<g id="a_Node000022"><a xlink:href="napi-inl_8deprecated_8h.html" target="_top" xlink:title=" ">
<polygon fill="white" stroke="#666666" points="677.27,-19.25 571.27,-19.25 571.27,0 677.27,0 677.27,-19.25"/>
<text xml:space="preserve" text-anchor="middle" x="624.27" y="-5.75" font-family="Helvetica,sans-Serif" font-size="10.00">napi&#45;inl.deprecated.h</text>
</a>
</g>
</g>
<!-- Node17&#45;&gt;Node22 -->
<g id="edge25_Node000017_Node000022" class="edge">
<title>Node17&#45;&gt;Node22</title>
<g id="a_edge25_Node000017_Node000022"><a xlink:title=" ">
<path fill="none" stroke="#63b8ff" d="M491.41,-54.84C517.5,-46.16 557.17,-32.96 586.37,-23.24"/>
<polygon fill="#63b8ff" stroke="#63b8ff" points="587.18,-26.66 595.56,-20.18 584.97,-20.02 587.18,-26.66"/>
</a>
</g>
</g>
<!-- Node25&#45;&gt;Node12 -->
<g id="edge32_Node000025_Node000012" class="edge">
<title>Node25&#45;&gt;Node12</title>
<g id="a_edge32_Node000025_Node000012"><a xlink:title=" ">
<path fill="none" stroke="#63b8ff" d="M293.26,-220.82C299.01,-195.39 315.74,-121.35 323.81,-85.62"/>
<polygon fill="#63b8ff" stroke="#63b8ff" points="327.15,-86.72 325.94,-76.2 320.32,-85.18 327.15,-86.72"/>
</a>
</g>
</g>
<!-- Node26 -->
<g id="Node000026" class="node">
<title>Node26</title>
<g id="a_Node000026"><a xlink:title=" ">
<polygon fill="#e0e0e0" stroke="#999999" points="362.77,-185 319.77,-185 319.77,-165.75 362.77,-165.75 362.77,-185"/>
<text xml:space="preserve" text-anchor="middle" x="341.27" y="-171.5" font-family="Helvetica,sans-Serif" font-size="10.00">thread</text>
</a>
</g>
</g>
<!-- Node25&#45;&gt;Node26 -->
<g id="edge30_Node000025_Node000026" class="edge">
<title>Node25&#45;&gt;Node26</title>
<g id="a_edge30_Node000025_Node000026"><a xlink:title=" ">
<path fill="none" stroke="#63b8ff" d="M299.53,-220.83C306.44,-213.48 316.5,-202.76 325.01,-193.69"/>
<polygon fill="#63b8ff" stroke="#63b8ff" points="327.51,-196.15 331.8,-186.46 322.4,-191.36 327.51,-196.15"/>
</a>
</g>
</g>
<!-- Node27 -->
<g id="Node000027" class="node">
<title>Node27</title>
<g id="a_Node000027"><a xlink:title=" ">
<polygon fill="#e0e0e0" stroke="#999999" points="463.65,-185 380.9,-185 380.9,-165.75 463.65,-165.75 463.65,-185"/>
<text xml:space="preserve" text-anchor="middle" x="422.27" y="-171.5" font-family="Helvetica,sans-Serif" font-size="10.00">unordered_map</text>
</a>
</g>
</g>
<!-- Node25&#45;&gt;Node27 -->
<g id="edge31_Node000025_Node000027" class="edge">
<title>Node25&#45;&gt;Node27</title>
<g id="a_edge31_Node000025_Node000027"><a xlink:title=" ">
<path fill="none" stroke="#63b8ff" d="M313.5,-220.59C334.29,-212.14 365.62,-199.4 389.33,-189.77"/>
<polygon fill="#63b8ff" stroke="#63b8ff" points="390.59,-193.03 398.54,-186.02 387.96,-186.55 390.59,-193.03"/>
</a>
</g>
</g>
<!-- Node25&#45;&gt;Node28 -->
<g id="edge33_Node000025_Node000028" class="edge">
<title>Node25&#45;&gt;Node28</title>
<g id="a_edge33_Node000025_Node000028"><a xlink:title=" ">
<path fill="none" stroke="#63b8ff" d="M281.77,-220.59C273.84,-213.05 262.32,-202.1 252.74,-192.98"/>
<polygon fill="#63b8ff" stroke="#63b8ff" points="255.39,-190.67 245.73,-186.32 250.56,-195.74 255.39,-190.67"/>
</a>
</g>
</g>
<!-- Node28&#45;&gt;Node2 -->
<g id="edge35_Node000028_Node000002" class="edge">
<title>Node28&#45;&gt;Node2</title>
<g id="a_edge35_Node000028_Node000002"><a xlink:title=" ">
<path fill="none" stroke="#63b8ff" d="M219.16,-165.34C204.69,-157.23 183.19,-145.18 166.29,-135.71"/>
<polygon fill="#63b8ff" stroke="#63b8ff" points="168.22,-132.78 157.79,-130.94 164.8,-138.89 168.22,-132.78"/>
</a>
</g>
</g>
<!-- Node28&#45;&gt;Node15 -->
<g id="edge34_Node000028_Node000015" class="edge">
<title>Node28&#45;&gt;Node15</title>
<g id="a_edge34_Node000028_Node000015"><a xlink:title=" ">
<path fill="none" stroke="#63b8ff" d="M237.24,-165.5C241.05,-148.25 249.55,-109.83 254.81,-86.06"/>
<polygon fill="#63b8ff" stroke="#63b8ff" points="258.21,-86.87 256.96,-76.35 251.38,-85.36 258.21,-86.87"/>
</a>
</g>
</g>
<!-- Node29&#45;&gt;Node8 -->
<g id="edge40_Node000029_Node000008" class="edge">
<title>Node29&#45;&gt;Node8</title>
<g id="a_edge40_Node000029_Node000008"><a xlink:title=" ">
<path fill="none" stroke="#63b8ff" d="M509.27,-220.83C509.27,-214.32 509.27,-205.17 509.27,-196.87"/>
<polygon fill="#63b8ff" stroke="#63b8ff" points="512.77,-196.87 509.27,-186.87 505.77,-196.87 512.77,-196.87"/>
</a>
</g>
</g>
<!-- Node29&#45;&gt;Node9 -->
<g id="edge37_Node000029_Node000009" class="edge">
<title>Node29&#45;&gt;Node9</title>
<g id="a_edge37_Node000029_Node000009"><a xlink:title=" ">
<path fill="none" stroke="#63b8ff" d="M540.48,-220.91C561.83,-213.8 589.85,-202.12 610.27,-185 643.88,-156.82 669.1,-111.07 681.57,-85.23"/>
<polygon fill="#63b8ff" stroke="#63b8ff" points="684.69,-86.81 685.75,-76.27 678.35,-83.86 684.69,-86.81"/>
</a>
</g>
</g>
<!-- Node29&#45;&gt;Node14 -->
<g id="edge39_Node000029_Node000014" class="edge">
<title>Node29&#45;&gt;Node14</title>
<g id="a_edge39_Node000029_Node000014"><a xlink:title=" ">
<path fill="none" stroke="#63b8ff" d="M528.62,-220.7C557.28,-206.26 609.95,-174.77 631.27,-129.75 637.77,-116.04 635.92,-98.8 632.78,-85.69"/>
<polygon fill="#63b8ff" stroke="#63b8ff" points="636.15,-84.73 630.02,-76.09 629.42,-86.67 636.15,-84.73"/>
</a>
</g>
</g>
<!-- Node29&#45;&gt;Node27 -->
<g id="edge38_Node000029_Node000027" class="edge">
<title>Node29&#45;&gt;Node27</title>
<g id="a_edge38_Node000029_Node000027"><a xlink:title=" ">
<path fill="none" stroke="#63b8ff" d="M494.51,-220.59C481.39,-212.56 461.95,-200.66 446.54,-191.23"/>
<polygon fill="#63b8ff" stroke="#63b8ff" points="448.75,-188.48 438.39,-186.24 445.1,-194.45 448.75,-188.48"/>
</a>
</g>
</g>
</g>
</svg>
