<?xml version="1.0" encoding="UTF-8" standalone="no"?>
<!DOCTYPE svg PUBLIC "-//W3C//DTD SVG 1.1//EN"
 "http://www.w3.org/Graphics/SVG/1.1/DTD/svg11.dtd">
<!-- Generated by graphviz version 14.0.4 (20251115.1723)
 -->
<!-- Title: frontend/node_modules/@parcel/watcher/src/watchman/WatchmanBackend.cc Pages: 1 -->
<!--zoomable 492 -->

<svg id="main" version="1.1" xmlns="http://www.w3.org/2000/svg" xmlns:xlink="http://www.w3.org/1999/xlink" xml:space="preserve" onload="init(evt)">

<style type="text/css"><![CDATA[
.node, .edge {opacity: 0.7;}
.node.selected, .edge.selected {opacity: 1;}
.edge:hover path { stroke: red; }
.edge:hover polygon { stroke: red; fill: red; }
]]></style>

<defs>
  <circle id="rim" cx="0" cy="0" r="7"/>
  <circle id="rim2" cx="0" cy="0" r="3.5"/>
  <g id="zoomPlus">
    <use xlink:href="#rim" fill="#404040"><set attributeName="fill" to="#808080" begin="zoomplus.mouseover" end="zoomplus.mouseout"/></use>
    <path d="M-4,0h8M0,-4v8" fill="none" stroke="white" stroke-width="1.5" pointer-events="none"/>
  </g>
  <g id="zoomMin">
    <use xlink:href="#rim" fill="#404040"><set attributeName="fill" to="#808080" begin="zoomminus.mouseover" end="zoomminus.mouseout"/></use>
    <path d="M-4,0h8" fill="none" stroke="white" stroke-width="1.5" pointer-events="none"/>
  </g>
  <g id="arrowUp" transform="translate(30 24)">
    <use xlink:href="#rim"/>
    <path pointer-events="none" fill="none" stroke="white" stroke-width="1.5" d="M0,-3.0v7 M-2.5,-0.5L0,-3.0L2.5,-0.5"/>
  </g>
  <g id="arrowRight" transform="rotate(90) translate(36 -43)">
    <use xlink:href="#rim"/>
    <path pointer-events="none" fill="none" stroke="white" stroke-width="1.5" d="M0,-3.0v7 M-2.5,-0.5L0,-3.0L2.5,-0.5"/>
  </g>
  <g id="arrowDown" transform="rotate(180) translate(-30 -48)">
    <use xlink:href="#rim"/>
    <path pointer-events="none" fill="none" stroke="white" stroke-width="1.5" d="M0,-3.0v7 M-2.5,-0.5L0,-3.0L2.5,-0.5"/>
  </g>
  <g id="arrowLeft" transform="rotate(270) translate(-36 17)">
    <use xlink:href="#rim"/>
    <path pointer-events="none" fill="none" stroke="white" stroke-width="1.5" d="M0,-3.0v7 M-2.5,-0.5L0,-3.0L2.5,-0.5"/>
  </g>
  <g id="resetDef">
    <use xlink:href="#rim2" fill="#404040"><set attributeName="fill" to="#808080" begin="reset.mouseover" end="reset.mouseout"/></use>
  </g>
</defs>
<script type="application/ecmascript">
var viewWidth = 1262;
var viewHeight = 492;
var sectionId = 'dynsection-0';
</script>
<script type="application/ecmascript" xlink:href="svg.min.js"/>
<svg id="graph" class="graph">
<g id="viewport">
<title>frontend/node_modules/@parcel/watcher/src/watchman/WatchmanBackend.cc</title>
<!-- Node1 -->
<g id="Node000001" class="node">
<title>Node1</title>
<g id="a_Node000001"><a xlink:title=" ">
<polygon fill="#999999" stroke="#666666" points="537.62,-483.75 372.38,-483.75 372.38,-442 537.62,-442 537.62,-483.75"/>
<text xml:space="preserve" text-anchor="start" x="380.38" y="-470.25" font-family="Helvetica,sans-Serif" font-size="10.00">frontend/node_modules</text>
<text xml:space="preserve" text-anchor="start" x="380.38" y="-459" font-family="Helvetica,sans-Serif" font-size="10.00">/@parcel/watcher/src</text>
<text xml:space="preserve" text-anchor="middle" x="455" y="-447.75" font-family="Helvetica,sans-Serif" font-size="10.00">/watchman/WatchmanBackend.cc</text>
</a>
</g>
</g>
<!-- Node2 -->
<g id="Node000002" class="node">
<title>Node2</title>
<g id="a_Node000002"><a xlink:title=" ">
<polygon fill="#e0e0e0" stroke="#999999" points="185,-74.5 145,-74.5 145,-55.25 185,-55.25 185,-74.5"/>
<text xml:space="preserve" text-anchor="middle" x="165" y="-61" font-family="Helvetica,sans-Serif" font-size="10.00">string</text>
</a>
</g>
</g>
<!-- Node1&#45;&gt;Node2 -->
<g id="edge1_Node000001_Node000002" class="edge">
<title>Node1&#45;&gt;Node2</title>
<g id="a_edge1_Node000001_Node000002"><a xlink:title=" ">
<path fill="none" stroke="#63b8ff" d="M372.08,-456.99C240.84,-446.96 0,-418.19 0,-342.12 0,-342.12 0,-342.12 0,-174.38 0,-111.03 85.95,-82.6 133.78,-71.69"/>
<polygon fill="#63b8ff" stroke="#63b8ff" points="134.24,-75.17 143.29,-69.65 132.78,-68.32 134.24,-75.17"/>
</a>
</g>
</g>
<!-- Node3 -->
<g id="Node000003" class="node">
<title>Node3</title>
<g id="a_Node000003"><a xlink:title=" ">
<polygon fill="#e0e0e0" stroke="#999999" points="1176.5,-406 1127.5,-406 1127.5,-386.75 1176.5,-386.75 1176.5,-406"/>
<text xml:space="preserve" text-anchor="middle" x="1152" y="-392.5" font-family="Helvetica,sans-Serif" font-size="10.00">fstream</text>
</a>
</g>
</g>
<!-- Node1&#45;&gt;Node3 -->
<g id="edge2_Node000001_Node000003" class="edge">
<title>Node1&#45;&gt;Node3</title>
<g id="a_edge2_Node000001_Node000003"><a xlink:title=" ">
<path fill="none" stroke="#63b8ff" d="M538,-458.37C663.19,-452.28 907.57,-437.3 1113,-406 1114.02,-405.84 1115.05,-405.68 1116.09,-405.5"/>
<polygon fill="#63b8ff" stroke="#63b8ff" points="1116.69,-408.95 1125.85,-403.63 1115.37,-402.08 1116.69,-408.95"/>
</a>
</g>
</g>
<!-- Node4 -->
<g id="Node000004" class="node">
<title>Node4</title>
<g id="a_Node000004"><a xlink:title=" ">
<polygon fill="#e0e0e0" stroke="#999999" points="531.75,-295.5 484.25,-295.5 484.25,-276.25 531.75,-276.25 531.75,-295.5"/>
<text xml:space="preserve" text-anchor="middle" x="508" y="-282" font-family="Helvetica,sans-Serif" font-size="10.00">stdlib.h</text>
</a>
</g>
</g>
<!-- Node1&#45;&gt;Node4 -->
<g id="edge3_Node000001_Node000004" class="edge">
<title>Node1&#45;&gt;Node4</title>
<g id="a_edge3_Node000001_Node000004"><a xlink:title=" ">
<path fill="none" stroke="#63b8ff" d="M459.64,-441.67C463.25,-426.48 468.54,-405.2 474,-386.75 482.31,-358.68 493.5,-326.73 500.73,-306.69"/>
<polygon fill="#63b8ff" stroke="#63b8ff" points="504.01,-307.9 504.14,-297.31 497.43,-305.51 504.01,-307.9"/>
</a>
</g>
</g>
<!-- Node5 -->
<g id="Node000005" class="node">
<title>Node5</title>
<g id="a_Node000005"><a xlink:title=" ">
<polygon fill="#e0e0e0" stroke="#999999" points="920.88,-19.25 865.12,-19.25 865.12,0 920.88,0 920.88,-19.25"/>
<text xml:space="preserve" text-anchor="middle" x="893" y="-5.75" font-family="Helvetica,sans-Serif" font-size="10.00">algorithm</text>
</a>
</g>
</g>
<!-- Node1&#45;&gt;Node5 -->
<g id="edge4_Node000001_Node000005" class="edge">
<title>Node1&#45;&gt;Node5</title>
<g id="a_edge4_Node000001_Node000005"><a xlink:title=" ">
<path fill="none" stroke="#63b8ff" d="M537.87,-455.01C711.81,-439.47 1099,-398.56 1099,-342.12 1099,-342.12 1099,-342.12 1099,-119.12 1099,-44.66 992.33,-21.18 932.51,-13.87"/>
<polygon fill="#63b8ff" stroke="#63b8ff" points="933.04,-10.41 922.72,-12.78 932.27,-17.36 933.04,-10.41"/>
</a>
</g>
</g>
<!-- Node6 -->
<g id="Node000006" class="node">
<title>Node6</title>
<g id="a_Node000006"><a xlink:href="_dir_tree_8hh.html" target="_top" xlink:title=" ">
<polygon fill="white" stroke="#666666" points="295.38,-240.25 224.62,-240.25 224.62,-221 295.38,-221 295.38,-240.25"/>
<text xml:space="preserve" text-anchor="middle" x="260" y="-226.75" font-family="Helvetica,sans-Serif" font-size="10.00">../DirTree.hh</text>
</a>
</g>
</g>
<!-- Node1&#45;&gt;Node6 -->
<g id="edge5_Node000001_Node000006" class="edge">
<title>Node1&#45;&gt;Node6</title>
<g id="a_edge5_Node000001_Node000006"><a xlink:title=" ">
<path fill="none" stroke="#63b8ff" d="M372.08,-453.77C309.79,-445.77 231.92,-431.02 212,-406 176.08,-360.89 188.97,-329.12 212,-276.25 217.04,-264.67 226.74,-254.74 236.1,-247.21"/>
<polygon fill="#63b8ff" stroke="#63b8ff" points="237.99,-250.17 243.95,-241.41 233.83,-244.54 237.99,-250.17"/>
</a>
</g>
</g>
<!-- Node9 -->
<g id="Node000009" class="node">
<title>Node9</title>
<g id="a_Node000009"><a xlink:href="_event_8hh.html" target="_top" xlink:title=" ">
<polygon fill="white" stroke="#666666" points="532.5,-185 477.5,-185 477.5,-165.75 532.5,-165.75 532.5,-185"/>
<text xml:space="preserve" text-anchor="middle" x="505" y="-171.5" font-family="Helvetica,sans-Serif" font-size="10.00">Event.hh</text>
</a>
</g>
</g>
<!-- Node1&#45;&gt;Node9 -->
<g id="edge30_Node000001_Node000009" class="edge">
<title>Node1&#45;&gt;Node9</title>
<g id="a_edge30_Node000001_Node000009"><a xlink:title=" ">
<path fill="none" stroke="#63b8ff" d="M397.35,-441.6C319.37,-410.88 195.4,-348.44 245,-276.25 258.1,-257.19 396.87,-210.82 466.13,-188.62"/>
<polygon fill="#63b8ff" stroke="#63b8ff" points="467.12,-191.98 475.58,-185.61 464.99,-185.31 467.12,-191.98"/>
</a>
</g>
</g>
<!-- Node24 -->
<g id="Node000024" class="node">
<title>Node24</title>
<g id="a_Node000024"><a xlink:href="_b_s_e_r_8hh.html" target="_top" xlink:title=" ">
<polygon fill="white" stroke="#666666" points="121.62,-240.25 58.38,-240.25 58.38,-221 121.62,-221 121.62,-240.25"/>
<text xml:space="preserve" text-anchor="middle" x="90" y="-226.75" font-family="Helvetica,sans-Serif" font-size="10.00">./BSER.hh</text>
</a>
</g>
</g>
<!-- Node1&#45;&gt;Node24 -->
<g id="edge31_Node000001_Node000024" class="edge">
<title>Node1&#45;&gt;Node24</title>
<g id="a_edge31_Node000001_Node000024"><a xlink:title=" ">
<path fill="none" stroke="#63b8ff" d="M372.04,-458.86C317.97,-453.49 247.89,-439.84 195,-406 137.5,-369.21 106.99,-288.66 95.48,-251.34"/>
<polygon fill="#63b8ff" stroke="#63b8ff" points="98.89,-250.52 92.72,-241.91 92.17,-252.49 98.89,-250.52"/>
</a>
</g>
</g>
<!-- Node26 -->
<g id="Node000026" class="node">
<title>Node26</title>
<g id="a_Node000026"><a xlink:href="_watchman_backend_8hh.html" target="_top" xlink:title=" ">
<polygon fill="white" stroke="#666666" points="603.12,-406 482.88,-406 482.88,-386.75 603.12,-386.75 603.12,-406"/>
<text xml:space="preserve" text-anchor="middle" x="543" y="-392.5" font-family="Helvetica,sans-Serif" font-size="10.00">./WatchmanBackend.hh</text>
</a>
</g>
</g>
<!-- Node1&#45;&gt;Node26 -->
<g id="edge37_Node000001_Node000026" class="edge">
<title>Node1&#45;&gt;Node26</title>
<g id="a_edge37_Node000001_Node000026"><a xlink:title=" ">
<path fill="none" stroke="#63b8ff" d="M482.36,-441.82C494.97,-432.58 509.73,-421.76 521.52,-413.12"/>
<polygon fill="#63b8ff" stroke="#63b8ff" points="523.41,-416.07 529.4,-407.34 519.27,-410.43 523.41,-416.07"/>
</a>
</g>
</g>
<!-- Node41 -->
<g id="Node000041" class="node">
<title>Node41</title>
<g id="a_Node000041"><a xlink:title=" ">
<polygon fill="#e0e0e0" stroke="#999999" points="1253.75,-406 1194.25,-406 1194.25,-386.75 1253.75,-386.75 1253.75,-406"/>
<text xml:space="preserve" text-anchor="middle" x="1224" y="-392.5" font-family="Helvetica,sans-Serif" font-size="10.00">sys/stat.h</text>
</a>
</g>
</g>
<!-- Node1&#45;&gt;Node41 -->
<g id="edge68_Node000001_Node000041" class="edge">
<title>Node1&#45;&gt;Node41</title>
<g id="a_edge68_Node000001_Node000041"><a xlink:title=" ">
<path fill="none" stroke="#63b8ff" d="M537.94,-459.5C671.85,-454.79 944.02,-441.62 1182.46,-406.35"/>
<polygon fill="#63b8ff" stroke="#63b8ff" points="1182.92,-409.82 1192.3,-404.88 1181.89,-402.9 1182.92,-409.82"/>
</a>
</g>
</g>
<!-- Node6&#45;&gt;Node2 -->
<g id="edge6_Node000006_Node000002" class="edge">
<title>Node6&#45;&gt;Node2</title>
<g id="a_edge6_Node000006_Node000002"><a xlink:title=" ">
<path fill="none" stroke="#63b8ff" d="M254.89,-220.82C239.94,-195.05 196.05,-119.4 175.65,-84.24"/>
<polygon fill="#63b8ff" stroke="#63b8ff" points="178.94,-82.92 170.89,-76.03 172.88,-86.44 178.94,-82.92"/>
</a>
</g>
</g>
<!-- Node7 -->
<g id="Node000007" class="node">
<title>Node7</title>
<g id="a_Node000007"><a xlink:title=" ">
<polygon fill="#e0e0e0" stroke="#999999" points="408.38,-185 325.62,-185 325.62,-165.75 408.38,-165.75 408.38,-185"/>
<text xml:space="preserve" text-anchor="middle" x="367" y="-171.5" font-family="Helvetica,sans-Serif" font-size="10.00">unordered_map</text>
</a>
</g>
</g>
<!-- Node6&#45;&gt;Node7 -->
<g id="edge7_Node000006_Node000007" class="edge">
<title>Node6&#45;&gt;Node7</title>
<g id="a_edge7_Node000006_Node000007"><a xlink:title=" ">
<path fill="none" stroke="#63b8ff" d="M278.15,-220.59C294.68,-212.37 319.34,-200.09 338.5,-190.56"/>
<polygon fill="#63b8ff" stroke="#63b8ff" points="340.01,-193.72 347.4,-186.13 336.89,-187.45 340.01,-193.72"/>
</a>
</g>
</g>
<!-- Node8 -->
<g id="Node000008" class="node">
<title>Node8</title>
<g id="a_Node000008"><a xlink:title=" ">
<polygon fill="#e0e0e0" stroke="#999999" points="319.62,-74.5 268.38,-74.5 268.38,-55.25 319.62,-55.25 319.62,-74.5"/>
<text xml:space="preserve" text-anchor="middle" x="294" y="-61" font-family="Helvetica,sans-Serif" font-size="10.00">memory</text>
</a>
</g>
</g>
<!-- Node6&#45;&gt;Node8 -->
<g id="edge8_Node000006_Node000008" class="edge">
<title>Node6&#45;&gt;Node8</title>
<g id="a_edge8_Node000006_Node000008"><a xlink:title=" ">
<path fill="none" stroke="#63b8ff" d="M263.15,-220.84C266.26,-211.91 270.97,-197.63 274,-185 282.2,-150.76 288.25,-110.19 291.44,-86.32"/>
<polygon fill="#63b8ff" stroke="#63b8ff" points="294.91,-86.79 292.72,-76.43 287.97,-85.9 294.91,-86.79"/>
</a>
</g>
</g>
<!-- Node6&#45;&gt;Node9 -->
<g id="edge9_Node000006_Node000009" class="edge">
<title>Node6&#45;&gt;Node9</title>
<g id="a_edge9_Node000006_Node000009"><a xlink:title=" ">
<path fill="none" stroke="#63b8ff" d="M295.63,-221.88C341.02,-212.02 419.19,-195.03 466.1,-184.83"/>
<polygon fill="#63b8ff" stroke="#63b8ff" points="466.8,-188.26 475.83,-182.71 465.32,-181.42 466.8,-188.26"/>
</a>
</g>
</g>
<!-- Node9&#45;&gt;Node2 -->
<g id="edge10_Node000009_Node000002" class="edge">
<title>Node9&#45;&gt;Node2</title>
<g id="a_edge10_Node000009_Node000002"><a xlink:title=" ">
<path fill="none" stroke="#63b8ff" d="M477.26,-166.44C447.09,-157.73 397.48,-143.2 355,-129.75 298.78,-111.94 233.73,-89.72 196.18,-76.73"/>
<polygon fill="#63b8ff" stroke="#63b8ff" points="197.47,-73.48 186.88,-73.51 195.18,-80.09 197.47,-73.48"/>
</a>
</g>
</g>
<!-- Node10 -->
<g id="Node000010" class="node">
<title>Node10</title>
<g id="a_Node000010"><a xlink:title=" ">
<polygon fill="#e0e0e0" stroke="#999999" points="763.62,-74.5 700.38,-74.5 700.38,-55.25 763.62,-55.25 763.62,-74.5"/>
<text xml:space="preserve" text-anchor="middle" x="732" y="-61" font-family="Helvetica,sans-Serif" font-size="10.00">node_api.h</text>
</a>
</g>
</g>
<!-- Node9&#45;&gt;Node10 -->
<g id="edge11_Node000009_Node000010" class="edge">
<title>Node9&#45;&gt;Node10</title>
<g id="a_edge11_Node000009_Node000010"><a xlink:title=" ">
<path fill="none" stroke="#63b8ff" d="M532.83,-172.04C568.17,-168.01 629.98,-157.32 675,-129.75 693.77,-118.26 709.89,-98.69 720.15,-84.24"/>
<polygon fill="#63b8ff" stroke="#63b8ff" points="722.99,-86.3 725.7,-76.05 717.19,-82.37 722.99,-86.3"/>
</a>
</g>
</g>
<!-- Node11 -->
<g id="Node000011" class="node">
<title>Node11</title>
<g id="a_Node000011"><a xlink:href="include_8h.html" target="_top" xlink:title=" ">
<polygon fill="white" stroke="#666666" points="666.12,-129.75 581.88,-129.75 581.88,-110.5 666.12,-110.5 666.12,-129.75"/>
<text xml:space="preserve" text-anchor="middle" x="624" y="-116.25" font-family="Helvetica,sans-Serif" font-size="10.00">wasm/include.h</text>
</a>
</g>
</g>
<!-- Node9&#45;&gt;Node11 -->
<g id="edge12_Node000009_Node000011" class="edge">
<title>Node9&#45;&gt;Node11</title>
<g id="a_edge12_Node000009_Node000011"><a xlink:title=" ">
<path fill="none" stroke="#63b8ff" d="M525.19,-165.34C543.91,-156.97 572.02,-144.38 593.48,-134.78"/>
<polygon fill="#63b8ff" stroke="#63b8ff" points="594.63,-138.1 602.33,-130.82 591.78,-131.71 594.63,-138.1"/>
</a>
</g>
</g>
<!-- Node12 -->
<g id="Node000012" class="node">
<title>Node12</title>
<g id="a_Node000012"><a xlink:href="napi_8h.html" target="_top" xlink:title=" ">
<polygon fill="white" stroke="#666666" points="526.12,-129.75 483.88,-129.75 483.88,-110.5 526.12,-110.5 526.12,-129.75"/>
<text xml:space="preserve" text-anchor="middle" x="505" y="-116.25" font-family="Helvetica,sans-Serif" font-size="10.00">napi.h</text>
</a>
</g>
</g>
<!-- Node9&#45;&gt;Node12 -->
<g id="edge13_Node000009_Node000012" class="edge">
<title>Node9&#45;&gt;Node12</title>
<g id="a_edge13_Node000009_Node000012"><a xlink:title=" ">
<path fill="none" stroke="#63b8ff" d="M505,-165.58C505,-159.07 505,-149.92 505,-141.62"/>
<polygon fill="#63b8ff" stroke="#63b8ff" points="508.5,-141.62 505,-131.62 501.5,-141.62 508.5,-141.62"/>
</a>
</g>
</g>
<!-- Node15 -->
<g id="Node000015" class="node">
<title>Node15</title>
<g id="a_Node000015"><a xlink:title=" ">
<polygon fill="#e0e0e0" stroke="#999999" points="605.5,-74.5 562.5,-74.5 562.5,-55.25 605.5,-55.25 605.5,-74.5"/>
<text xml:space="preserve" text-anchor="middle" x="584" y="-61" font-family="Helvetica,sans-Serif" font-size="10.00">mutex</text>
</a>
</g>
</g>
<!-- Node9&#45;&gt;Node15 -->
<g id="edge27_Node000009_Node000015" class="edge">
<title>Node9&#45;&gt;Node15</title>
<g id="a_edge27_Node000009_Node000015"><a xlink:title=" ">
<path fill="none" stroke="#63b8ff" d="M511.46,-165.5C524.37,-147.77 553.55,-107.69 570.71,-84.13"/>
<polygon fill="#63b8ff" stroke="#63b8ff" points="573.5,-86.24 576.55,-76.1 567.84,-82.12 573.5,-86.24"/>
</a>
</g>
</g>
<!-- Node22 -->
<g id="Node000022" class="node">
<title>Node22</title>
<g id="a_Node000022"><a xlink:title=" ">
<polygon fill="#e0e0e0" stroke="#999999" points="398.38,-129.75 363.62,-129.75 363.62,-110.5 398.38,-110.5 398.38,-129.75"/>
<text xml:space="preserve" text-anchor="middle" x="381" y="-116.25" font-family="Helvetica,sans-Serif" font-size="10.00">map</text>
</a>
</g>
</g>
<!-- Node9&#45;&gt;Node22 -->
<g id="edge28_Node000009_Node000022" class="edge">
<title>Node9&#45;&gt;Node22</title>
<g id="a_edge28_Node000009_Node000022"><a xlink:title=" ">
<path fill="none" stroke="#63b8ff" d="M483.97,-165.34C463.3,-156.47 431.65,-142.87 408.89,-133.1"/>
<polygon fill="#63b8ff" stroke="#63b8ff" points="410.48,-129.98 399.91,-129.25 407.72,-136.41 410.48,-129.98"/>
</a>
</g>
</g>
<!-- Node23 -->
<g id="Node000023" class="node">
<title>Node23</title>
<g id="a_Node000023"><a xlink:title=" ">
<polygon fill="#e0e0e0" stroke="#999999" points="465.88,-129.75 416.12,-129.75 416.12,-110.5 465.88,-110.5 465.88,-129.75"/>
<text xml:space="preserve" text-anchor="middle" x="441" y="-116.25" font-family="Helvetica,sans-Serif" font-size="10.00">optional</text>
</a>
</g>
</g>
<!-- Node9&#45;&gt;Node23 -->
<g id="edge29_Node000009_Node000023" class="edge">
<title>Node9&#45;&gt;Node23</title>
<g id="a_edge29_Node000009_Node000023"><a xlink:title=" ">
<path fill="none" stroke="#63b8ff" d="M494.14,-165.34C484.89,-157.65 471.38,-146.4 460.29,-137.18"/>
<polygon fill="#63b8ff" stroke="#63b8ff" points="462.79,-134.7 452.86,-130.99 458.31,-140.08 462.79,-134.7"/>
</a>
</g>
</g>
<!-- Node12&#45;&gt;Node2 -->
<g id="edge19_Node000012_Node000002" class="edge">
<title>Node12&#45;&gt;Node2</title>
<g id="a_edge19_Node000012_Node000002"><a xlink:title=" ">
<path fill="none" stroke="#63b8ff" d="M483.46,-112.55C480.63,-111.8 477.76,-111.09 475,-110.5 374.46,-88.92 253.28,-74.87 196.83,-69"/>
<polygon fill="#63b8ff" stroke="#63b8ff" points="197.29,-65.53 186.99,-68 196.58,-72.49 197.29,-65.53"/>
</a>
</g>
</g>
<!-- Node12&#45;&gt;Node8 -->
<g id="edge17_Node000012_Node000008" class="edge">
<title>Node12&#45;&gt;Node8</title>
<g id="a_edge17_Node000012_Node000008"><a xlink:title=" ">
<path fill="none" stroke="#63b8ff" d="M483.4,-112.81C480.58,-112.01 477.72,-111.23 475,-110.5 473.23,-110.03 383.28,-87.87 330.87,-74.96"/>
<polygon fill="#63b8ff" stroke="#63b8ff" points="332.01,-71.63 321.46,-72.64 330.33,-78.43 332.01,-71.63"/>
</a>
</g>
</g>
<!-- Node12&#45;&gt;Node10 -->
<g id="edge14_Node000012_Node000010" class="edge">
<title>Node12&#45;&gt;Node10</title>
<g id="a_edge14_Node000012_Node000010"><a xlink:title=" ">
<path fill="none" stroke="#63b8ff" d="M526.36,-114.12C563.45,-105.41 640.44,-87.35 688.98,-75.97"/>
<polygon fill="#63b8ff" stroke="#63b8ff" points="689.66,-79.4 698.59,-73.71 688.06,-72.59 689.66,-79.4"/>
</a>
</g>
</g>
<!-- Node13 -->
<g id="Node000013" class="node">
<title>Node13</title>
<g id="a_Node000013"><a xlink:title=" ">
<polygon fill="#e0e0e0" stroke="#999999" points="682,-74.5 624,-74.5 624,-55.25 682,-55.25 682,-74.5"/>
<text xml:space="preserve" text-anchor="middle" x="653" y="-61" font-family="Helvetica,sans-Serif" font-size="10.00">functional</text>
</a>
</g>
</g>
<!-- Node12&#45;&gt;Node13 -->
<g id="edge15_Node000012_Node000013" class="edge">
<title>Node12&#45;&gt;Node13</title>
<g id="a_edge15_Node000012_Node000013"><a xlink:title=" ">
<path fill="none" stroke="#63b8ff" d="M526.52,-111.38C550.23,-102.85 588.75,-88.99 617.06,-78.81"/>
<polygon fill="#63b8ff" stroke="#63b8ff" points="618.08,-82.16 626.31,-75.48 615.71,-75.57 618.08,-82.16"/>
</a>
</g>
</g>
<!-- Node14 -->
<g id="Node000014" class="node">
<title>Node14</title>
<g id="a_Node000014"><a xlink:title=" ">
<polygon fill="#e0e0e0" stroke="#999999" points="544.12,-74.5 471.88,-74.5 471.88,-55.25 544.12,-55.25 544.12,-74.5"/>
<text xml:space="preserve" text-anchor="middle" x="508" y="-61" font-family="Helvetica,sans-Serif" font-size="10.00">initializer_list</text>
</a>
</g>
</g>
<!-- Node12&#45;&gt;Node14 -->
<g id="edge16_Node000012_Node000014" class="edge">
<title>Node12&#45;&gt;Node14</title>
<g id="a_edge16_Node000012_Node000014"><a xlink:title=" ">
<path fill="none" stroke="#63b8ff" d="M505.5,-110.33C505.87,-103.74 506.39,-94.46 506.86,-86.07"/>
<polygon fill="#63b8ff" stroke="#63b8ff" points="510.34,-86.55 507.41,-76.37 503.35,-86.16 510.34,-86.55"/>
</a>
</g>
</g>
<!-- Node12&#45;&gt;Node15 -->
<g id="edge18_Node000012_Node000015" class="edge">
<title>Node12&#45;&gt;Node15</title>
<g id="a_edge18_Node000012_Node000015"><a xlink:title=" ">
<path fill="none" stroke="#63b8ff" d="M518.4,-110.09C530.09,-102.21 547.3,-90.61 561.16,-81.27"/>
<polygon fill="#63b8ff" stroke="#63b8ff" points="562.94,-84.29 569.28,-75.8 559.03,-78.49 562.94,-84.29"/>
</a>
</g>
</g>
<!-- Node16 -->
<g id="Node000016" class="node">
<title>Node16</title>
<g id="a_Node000016"><a xlink:title=" ">
<polygon fill="#e0e0e0" stroke="#999999" points="380.5,-74.5 337.5,-74.5 337.5,-55.25 380.5,-55.25 380.5,-74.5"/>
<text xml:space="preserve" text-anchor="middle" x="359" y="-61" font-family="Helvetica,sans-Serif" font-size="10.00">vector</text>
</a>
</g>
</g>
<!-- Node12&#45;&gt;Node16 -->
<g id="edge20_Node000012_Node000016" class="edge">
<title>Node12&#45;&gt;Node16</title>
<g id="a_edge20_Node000012_Node000016"><a xlink:title=" ">
<path fill="none" stroke="#63b8ff" d="M483.46,-111.27C459.09,-102.38 419.15,-87.81 391.11,-77.59"/>
<polygon fill="#63b8ff" stroke="#63b8ff" points="392.65,-74.42 382.05,-74.28 390.25,-81 392.65,-74.42"/>
</a>
</g>
</g>
<!-- Node17 -->
<g id="Node000017" class="node">
<title>Node17</title>
<g id="a_Node000017"><a xlink:href="napi-inl_8h.html" target="_top" xlink:title=" ">
<polygon fill="white" stroke="#666666" points="453.5,-74.5 398.5,-74.5 398.5,-55.25 453.5,-55.25 453.5,-74.5"/>
<text xml:space="preserve" text-anchor="middle" x="426" y="-61" font-family="Helvetica,sans-Serif" font-size="10.00">napi&#45;inl.h</text>
</a>
</g>
</g>
<!-- Node12&#45;&gt;Node17 -->
<g id="edge21_Node000012_Node000017" class="edge">
<title>Node12&#45;&gt;Node17</title>
<g id="a_edge21_Node000012_Node000017"><a xlink:title=" ">
<path fill="none" stroke="#63b8ff" d="M491.6,-110.09C479.91,-102.21 462.7,-90.61 448.84,-81.27"/>
<polygon fill="#63b8ff" stroke="#63b8ff" points="450.97,-78.49 440.72,-75.8 447.06,-84.29 450.97,-78.49"/>
</a>
</g>
</g>
<!-- Node17&#45;&gt;Node5 -->
<g id="edge22_Node000017_Node000005" class="edge">
<title>Node17&#45;&gt;Node5</title>
<g id="a_edge22_Node000017_Node000005"><a xlink:title=" ">
<path fill="none" stroke="#63b8ff" d="M453.8,-57C456.9,-56.35 460.01,-55.75 463,-55.25 605.63,-31.32 777.16,-18.13 853.28,-13.07"/>
<polygon fill="#63b8ff" stroke="#63b8ff" points="853.4,-16.57 863.15,-12.43 852.94,-9.59 853.4,-16.57"/>
</a>
</g>
</g>
<!-- Node18 -->
<g id="Node000018" class="node">
<title>Node18</title>
<g id="a_Node000018"><a xlink:title=" ">
<polygon fill="#e0e0e0" stroke="#999999" points="341.62,-19.25 296.38,-19.25 296.38,0 341.62,0 341.62,-19.25"/>
<text xml:space="preserve" text-anchor="middle" x="319" y="-5.75" font-family="Helvetica,sans-Serif" font-size="10.00">cstring</text>
</a>
</g>
</g>
<!-- Node17&#45;&gt;Node18 -->
<g id="edge23_Node000017_Node000018" class="edge">
<title>Node17&#45;&gt;Node18</title>
<g id="a_edge23_Node000017_Node000018"><a xlink:title=" ">
<path fill="none" stroke="#63b8ff" d="M407.85,-54.84C391.32,-46.62 366.66,-34.34 347.5,-24.81"/>
<polygon fill="#63b8ff" stroke="#63b8ff" points="349.11,-21.7 338.6,-20.38 345.99,-27.97 349.11,-21.7"/>
</a>
</g>
</g>
<!-- Node19 -->
<g id="Node000019" class="node">
<title>Node19</title>
<g id="a_Node000019"><a xlink:title=" ">
<polygon fill="#e0e0e0" stroke="#999999" points="421.88,-19.25 360.12,-19.25 360.12,0 421.88,0 421.88,-19.25"/>
<text xml:space="preserve" text-anchor="middle" x="391" y="-5.75" font-family="Helvetica,sans-Serif" font-size="10.00">type_traits</text>
</a>
</g>
</g>
<!-- Node17&#45;&gt;Node19 -->
<g id="edge24_Node000017_Node000019" class="edge">
<title>Node17&#45;&gt;Node19</title>
<g id="a_edge24_Node000017_Node000019"><a xlink:title=" ">
<path fill="none" stroke="#63b8ff" d="M420.22,-55.08C415.59,-48.03 408.93,-37.9 403.13,-29.08"/>
<polygon fill="#63b8ff" stroke="#63b8ff" points="406.15,-27.31 397.74,-20.87 400.3,-31.15 406.15,-27.31"/>
</a>
</g>
</g>
<!-- Node20 -->
<g id="Node000020" class="node">
<title>Node20</title>
<g id="a_Node000020"><a xlink:title=" ">
<polygon fill="#e0e0e0" stroke="#999999" points="479.62,-19.25 440.38,-19.25 440.38,0 479.62,0 479.62,-19.25"/>
<text xml:space="preserve" text-anchor="middle" x="460" y="-5.75" font-family="Helvetica,sans-Serif" font-size="10.00">utility</text>
</a>
</g>
</g>
<!-- Node17&#45;&gt;Node20 -->
<g id="edge25_Node000017_Node000020" class="edge">
<title>Node17&#45;&gt;Node20</title>
<g id="a_edge25_Node000017_Node000020"><a xlink:title=" ">
<path fill="none" stroke="#63b8ff" d="M431.61,-55.08C436.12,-48.03 442.59,-37.9 448.21,-29.08"/>
<polygon fill="#63b8ff" stroke="#63b8ff" points="451.02,-31.2 453.45,-20.88 445.12,-27.43 451.02,-31.2"/>
</a>
</g>
</g>
<!-- Node21 -->
<g id="Node000021" class="node">
<title>Node21</title>
<g id="a_Node000021"><a xlink:href="napi-inl_8deprecated_8h.html" target="_top" xlink:title=" ">
<polygon fill="white" stroke="#666666" points="604,-19.25 498,-19.25 498,0 604,0 604,-19.25"/>
<text xml:space="preserve" text-anchor="middle" x="551" y="-5.75" font-family="Helvetica,sans-Serif" font-size="10.00">napi&#45;inl.deprecated.h</text>
</a>
</g>
</g>
<!-- Node17&#45;&gt;Node21 -->
<g id="edge26_Node000017_Node000021" class="edge">
<title>Node17&#45;&gt;Node21</title>
<g id="a_edge26_Node000017_Node000021"><a xlink:title=" ">
<path fill="none" stroke="#63b8ff" d="M447.2,-54.84C466.96,-46.43 496.67,-33.77 519.25,-24.15"/>
<polygon fill="#63b8ff" stroke="#63b8ff" points="520.47,-27.43 528.3,-20.3 517.73,-20.99 520.47,-27.43"/>
</a>
</g>
</g>
<!-- Node24&#45;&gt;Node2 -->
<g id="edge32_Node000024_Node000002" class="edge">
<title>Node24&#45;&gt;Node2</title>
<g id="a_edge32_Node000024_Node000002"><a xlink:title=" ">
<path fill="none" stroke="#63b8ff" d="M92.2,-220.58C97.37,-200.16 111.44,-149.24 132,-110.5 136.95,-101.16 143.72,-91.64 149.84,-83.79"/>
<polygon fill="#63b8ff" stroke="#63b8ff" points="152.51,-86.05 156.1,-76.08 147.08,-81.64 152.51,-86.05"/>
</a>
</g>
</g>
<!-- Node24&#45;&gt;Node7 -->
<g id="edge35_Node000024_Node000007" class="edge">
<title>Node24&#45;&gt;Node7</title>
<g id="a_edge35_Node000024_Node000007"><a xlink:title=" ">
<path fill="none" stroke="#63b8ff" d="M122.05,-223.46C169.08,-214.42 257.35,-197.45 314.09,-186.55"/>
<polygon fill="#63b8ff" stroke="#63b8ff" points="314.7,-189.99 323.86,-184.67 313.38,-183.12 314.7,-189.99"/>
</a>
</g>
</g>
<!-- Node24&#45;&gt;Node8 -->
<g id="edge36_Node000024_Node000008" class="edge">
<title>Node24&#45;&gt;Node8</title>
<g id="a_edge36_Node000024_Node000008"><a xlink:title=" ">
<path fill="none" stroke="#63b8ff" d="M101.26,-220.59C134.35,-194.03 231.62,-115.95 273.94,-81.98"/>
<polygon fill="#63b8ff" stroke="#63b8ff" points="275.99,-84.82 281.6,-75.83 271.61,-79.36 275.99,-84.82"/>
</a>
</g>
</g>
<!-- Node24&#45;&gt;Node16 -->
<g id="edge34_Node000024_Node000016" class="edge">
<title>Node24&#45;&gt;Node16</title>
<g id="a_edge34_Node000024_Node000016"><a xlink:title=" ">
<path fill="none" stroke="#63b8ff" d="M107.47,-220.56C124.21,-211.78 150.08,-197.93 172,-185 232.36,-149.41 301.43,-104.2 336.3,-81.05"/>
<polygon fill="#63b8ff" stroke="#63b8ff" points="337.94,-84.16 344.33,-75.71 334.07,-78.33 337.94,-84.16"/>
</a>
</g>
</g>
<!-- Node25 -->
<g id="Node000025" class="node">
<title>Node25</title>
<g id="a_Node000025"><a xlink:title=" ">
<polygon fill="#e0e0e0" stroke="#999999" points="79.62,-185 28.38,-185 28.38,-165.75 79.62,-165.75 79.62,-185"/>
<text xml:space="preserve" text-anchor="middle" x="54" y="-171.5" font-family="Helvetica,sans-Serif" font-size="10.00">sstream</text>
</a>
</g>
</g>
<!-- Node24&#45;&gt;Node25 -->
<g id="edge33_Node000024_Node000025" class="edge">
<title>Node24&#45;&gt;Node25</title>
<g id="a_edge33_Node000024_Node000025"><a xlink:title=" ">
<path fill="none" stroke="#63b8ff" d="M84.06,-220.83C79.29,-213.78 72.44,-203.65 66.48,-194.83"/>
<polygon fill="#63b8ff" stroke="#63b8ff" points="69.42,-192.94 60.92,-186.61 63.62,-196.86 69.42,-192.94"/>
</a>
</g>
</g>
<!-- Node26&#45;&gt;Node24 -->
<g id="edge60_Node000026_Node000024" class="edge">
<title>Node26&#45;&gt;Node24</title>
<g id="a_edge60_Node000026_Node000024"><a xlink:title=" ">
<path fill="none" stroke="#63b8ff" d="M482.59,-393.89C397.89,-389.05 242.29,-369.8 136,-295.5 119.58,-284.02 106.88,-264.74 99.02,-250.35"/>
<polygon fill="#63b8ff" stroke="#63b8ff" points="102.35,-249.17 94.67,-241.87 96.12,-252.36 102.35,-249.17"/>
</a>
</g>
</g>
<!-- Node27 -->
<g id="Node000027" class="node">
<title>Node27</title>
<g id="a_Node000027"><a xlink:href="_backend_8hh.html" target="_top" xlink:title=" ">
<polygon fill="white" stroke="#666666" points="678.38,-350.75 601.62,-350.75 601.62,-331.5 678.38,-331.5 678.38,-350.75"/>
<text xml:space="preserve" text-anchor="middle" x="640" y="-337.25" font-family="Helvetica,sans-Serif" font-size="10.00">../Backend.hh</text>
</a>
</g>
</g>
<!-- Node26&#45;&gt;Node27 -->
<g id="edge38_Node000026_Node000027" class="edge">
<title>Node26&#45;&gt;Node27</title>
<g id="a_edge38_Node000026_Node000027"><a xlink:title=" ">
<path fill="none" stroke="#63b8ff" d="M559.45,-386.34C574.23,-378.23 596.18,-366.18 613.43,-356.71"/>
<polygon fill="#63b8ff" stroke="#63b8ff" points="615.06,-359.81 622.14,-351.93 611.69,-353.68 615.06,-359.81"/>
</a>
</g>
</g>
<!-- Node36 -->
<g id="Node000036" class="node">
<title>Node36</title>
<g id="a_Node000036"><a xlink:href="_signal_8hh.html" target="_top" xlink:title=" ">
<polygon fill="white" stroke="#666666" points="724.25,-185 667.75,-185 667.75,-165.75 724.25,-165.75 724.25,-185"/>
<text xml:space="preserve" text-anchor="middle" x="696" y="-171.5" font-family="Helvetica,sans-Serif" font-size="10.00">Signal.hh</text>
</a>
</g>
</g>
<!-- Node26&#45;&gt;Node36 -->
<g id="edge61_Node000026_Node000036" class="edge">
<title>Node26&#45;&gt;Node36</title>
<g id="a_edge61_Node000026_Node000036"><a xlink:title=" ">
<path fill="none" stroke="#63b8ff" d="M549.19,-386.52C572.06,-353.77 652.15,-239.14 683.39,-194.43"/>
<polygon fill="#63b8ff" stroke="#63b8ff" points="686.18,-196.54 689.04,-186.34 680.44,-192.54 686.18,-196.54"/>
</a>
</g>
</g>
<!-- Node37 -->
<g id="Node000037" class="node">
<title>Node37</title>
<g id="a_Node000037"><a xlink:href="_i_p_c_8hh.html" target="_top" xlink:title=" ">
<polygon fill="white" stroke="#666666" points="394.38,-350.75 341.62,-350.75 341.62,-331.5 394.38,-331.5 394.38,-350.75"/>
<text xml:space="preserve" text-anchor="middle" x="368" y="-337.25" font-family="Helvetica,sans-Serif" font-size="10.00">./IPC.hh</text>
</a>
</g>
</g>
<!-- Node26&#45;&gt;Node37 -->
<g id="edge62_Node000026_Node000037" class="edge">
<title>Node26&#45;&gt;Node37</title>
<g id="a_edge62_Node000026_Node000037"><a xlink:title=" ">
<path fill="none" stroke="#63b8ff" d="M513.31,-386.34C483.57,-377.29 437.69,-363.33 405.46,-353.52"/>
<polygon fill="#63b8ff" stroke="#63b8ff" points="406.71,-350.24 396.12,-350.68 404.67,-356.94 406.71,-350.24"/>
</a>
</g>
</g>
<!-- Node27&#45;&gt;Node9 -->
<g id="edge39_Node000027_Node000009" class="edge">
<title>Node27&#45;&gt;Node9</title>
<g id="a_edge39_Node000027_Node000009"><a xlink:title=" ">
<path fill="none" stroke="#63b8ff" d="M632.74,-331.32C611.32,-305.33 548.05,-228.59 519.4,-193.84"/>
<polygon fill="#63b8ff" stroke="#63b8ff" points="522.32,-191.88 513.26,-186.39 516.92,-196.33 522.32,-191.88"/>
</a>
</g>
</g>
<!-- Node28 -->
<g id="Node000028" class="node">
<title>Node28</title>
<g id="a_Node000028"><a xlink:href="_watcher_8hh.html" target="_top" xlink:title=" ">
<polygon fill="white" stroke="#666666" points="808.38,-295.5 743.62,-295.5 743.62,-276.25 808.38,-276.25 808.38,-295.5"/>
<text xml:space="preserve" text-anchor="middle" x="776" y="-282" font-family="Helvetica,sans-Serif" font-size="10.00">Watcher.hh</text>
</a>
</g>
</g>
<!-- Node27&#45;&gt;Node28 -->
<g id="edge40_Node000027_Node000028" class="edge">
<title>Node27&#45;&gt;Node28</title>
<g id="a_edge40_Node000027_Node000028"><a xlink:title=" ">
<path fill="none" stroke="#63b8ff" d="M663.07,-331.09C684.76,-322.6 717.48,-309.79 742.13,-300.14"/>
<polygon fill="#63b8ff" stroke="#63b8ff" points="743.37,-303.41 751.41,-296.5 740.82,-296.89 743.37,-303.41"/>
</a>
</g>
</g>
<!-- Node35 -->
<g id="Node000035" class="node">
<title>Node35</title>
<g id="a_Node000035"><a xlink:title=" ">
<polygon fill="#e0e0e0" stroke="#999999" points="917.5,-185 874.5,-185 874.5,-165.75 917.5,-165.75 917.5,-185"/>
<text xml:space="preserve" text-anchor="middle" x="896" y="-171.5" font-family="Helvetica,sans-Serif" font-size="10.00">thread</text>
</a>
</g>
</g>
<!-- Node27&#45;&gt;Node35 -->
<g id="edge59_Node000027_Node000035" class="edge">
<title>Node27&#45;&gt;Node35</title>
<g id="a_edge59_Node000027_Node000035"><a xlink:title=" ">
<path fill="none" stroke="#63b8ff" d="M678.76,-340.06C742.2,-337.54 865.82,-321.84 913,-240.25 921.08,-226.28 915.15,-208.38 908.17,-195.09"/>
<polygon fill="#63b8ff" stroke="#63b8ff" points="911.2,-193.34 903.11,-186.5 905.17,-196.89 911.2,-193.34"/>
</a>
</g>
</g>
<!-- Node27&#45;&gt;Node36 -->
<g id="edge58_Node000027_Node000036" class="edge">
<title>Node27&#45;&gt;Node36</title>
<g id="a_edge58_Node000027_Node000036"><a xlink:title=" ">
<path fill="none" stroke="#63b8ff" d="M643.01,-331.32C651.75,-305.78 677.25,-231.2 689.41,-195.65"/>
<polygon fill="#63b8ff" stroke="#63b8ff" points="692.56,-197.25 692.48,-186.65 685.94,-194.98 692.56,-197.25"/>
</a>
</g>
</g>
<!-- Node28&#45;&gt;Node6 -->
<g id="edge56_Node000028_Node000006" class="edge">
<title>Node28&#45;&gt;Node6</title>
<g id="a_edge56_Node000028_Node000006"><a xlink:title=" ">
<path fill="none" stroke="#63b8ff" d="M743.33,-281.5C654.8,-272.37 410.05,-247.11 306.85,-236.46"/>
<polygon fill="#63b8ff" stroke="#63b8ff" points="307.38,-233 297.08,-235.45 306.66,-239.96 307.38,-233"/>
</a>
</g>
</g>
<!-- Node28&#45;&gt;Node9 -->
<g id="edge48_Node000028_Node000009" class="edge">
<title>Node28&#45;&gt;Node9</title>
<g id="a_edge48_Node000028_Node000009"><a xlink:title=" ">
<path fill="none" stroke="#63b8ff" d="M753.36,-275.81C705.54,-256.66 594.04,-212.03 538.16,-189.65"/>
<polygon fill="#63b8ff" stroke="#63b8ff" points="539.75,-186.52 529.17,-186.05 537.15,-193.02 539.75,-186.52"/>
</a>
</g>
</g>
<!-- Node28&#45;&gt;Node10 -->
<g id="edge44_Node000028_Node000010" class="edge">
<title>Node28&#45;&gt;Node10</title>
<g id="a_edge44_Node000028_Node000010"><a xlink:title=" ">
<path fill="none" stroke="#63b8ff" d="M780.04,-275.81C785.04,-263.45 792.49,-240.61 789,-221 779.95,-170.1 755.4,-114.01 741.66,-85.24"/>
<polygon fill="#63b8ff" stroke="#63b8ff" points="744.85,-83.81 737.32,-76.36 738.56,-86.88 744.85,-83.81"/>
</a>
</g>
</g>
<!-- Node29 -->
<g id="Node000029" class="node">
<title>Node29</title>
<g id="a_Node000029"><a xlink:title=" ">
<polygon fill="#e0e0e0" stroke="#999999" points="930,-129.75 836,-129.75 836,-110.5 930,-110.5 930,-129.75"/>
<text xml:space="preserve" text-anchor="middle" x="883" y="-116.25" font-family="Helvetica,sans-Serif" font-size="10.00">condition_variable</text>
</a>
</g>
</g>
<!-- Node28&#45;&gt;Node29 -->
<g id="edge41_Node000028_Node000029" class="edge">
<title>Node28&#45;&gt;Node29</title>
<g id="a_edge41_Node000028_Node000029"><a xlink:title=" ">
<path fill="none" stroke="#63b8ff" d="M787.24,-275.83C797.23,-267.38 811.81,-254.03 822,-240.25 845.87,-207.98 865.3,-165.03 875.41,-140.49"/>
<polygon fill="#63b8ff" stroke="#63b8ff" points="878.56,-142.05 879.04,-131.46 872.07,-139.44 878.56,-142.05"/>
</a>
</g>
</g>
<!-- Node30 -->
<g id="Node000030" class="node">
<title>Node30</title>
<g id="a_Node000030"><a xlink:title=" ">
<polygon fill="#e0e0e0" stroke="#999999" points="1012.75,-185 935.25,-185 935.25,-165.75 1012.75,-165.75 1012.75,-185"/>
<text xml:space="preserve" text-anchor="middle" x="974" y="-171.5" font-family="Helvetica,sans-Serif" font-size="10.00">unordered_set</text>
</a>
</g>
</g>
<!-- Node28&#45;&gt;Node30 -->
<g id="edge42_Node000028_Node000030" class="edge">
<title>Node28&#45;&gt;Node30</title>
<g id="a_edge42_Node000028_Node000030"><a xlink:title=" ">
<path fill="none" stroke="#63b8ff" d="M808.67,-278.98C837.72,-272.67 880.5,-260.7 913,-240.25 932.4,-228.04 949.95,-208.31 961.19,-194"/>
<polygon fill="#63b8ff" stroke="#63b8ff" points="963.75,-196.42 966.99,-186.33 958.17,-192.19 963.75,-196.42"/>
</a>
</g>
</g>
<!-- Node31 -->
<g id="Node000031" class="node">
<title>Node31</title>
<g id="a_Node000031"><a xlink:title=" ">
<polygon fill="#e0e0e0" stroke="#999999" points="903.75,-240.25 874.25,-240.25 874.25,-221 903.75,-221 903.75,-240.25"/>
<text xml:space="preserve" text-anchor="middle" x="889" y="-226.75" font-family="Helvetica,sans-Serif" font-size="10.00">set</text>
</a>
</g>
</g>
<!-- Node28&#45;&gt;Node31 -->
<g id="edge43_Node000028_Node000031" class="edge">
<title>Node28&#45;&gt;Node31</title>
<g id="a_edge43_Node000028_Node000031"><a xlink:title=" ">
<path fill="none" stroke="#63b8ff" d="M795.17,-275.84C814.06,-266.94 843.04,-253.28 863.79,-243.5"/>
<polygon fill="#63b8ff" stroke="#63b8ff" points="865.15,-246.73 872.71,-239.3 862.17,-240.4 865.15,-246.73"/>
</a>
</g>
</g>
<!-- Node32 -->
<g id="Node000032" class="node">
<title>Node32</title>
<g id="a_Node000032"><a xlink:href="_glob_8hh.html" target="_top" xlink:title=" ">
<polygon fill="white" stroke="#666666" points="1047.88,-240.25 998.12,-240.25 998.12,-221 1047.88,-221 1047.88,-240.25"/>
<text xml:space="preserve" text-anchor="middle" x="1023" y="-226.75" font-family="Helvetica,sans-Serif" font-size="10.00">Glob.hh</text>
</a>
</g>
</g>
<!-- Node28&#45;&gt;Node32 -->
<g id="edge45_Node000028_Node000032" class="edge">
<title>Node28&#45;&gt;Node32</title>
<g id="a_edge45_Node000028_Node000032"><a xlink:title=" ">
<path fill="none" stroke="#63b8ff" d="M808.8,-277.8C854.99,-267.85 938.9,-249.76 986.84,-239.42"/>
<polygon fill="#63b8ff" stroke="#63b8ff" points="987.41,-242.88 996.45,-237.35 985.93,-236.04 987.41,-242.88"/>
</a>
</g>
</g>
<!-- Node34 -->
<g id="Node000034" class="node">
<title>Node34</title>
<g id="a_Node000034"><a xlink:href="_debounce_8hh.html" target="_top" xlink:title=" ">
<polygon fill="white" stroke="#666666" points="779.88,-240.25 706.12,-240.25 706.12,-221 779.88,-221 779.88,-240.25"/>
<text xml:space="preserve" text-anchor="middle" x="743" y="-226.75" font-family="Helvetica,sans-Serif" font-size="10.00">Debounce.hh</text>
</a>
</g>
</g>
<!-- Node28&#45;&gt;Node34 -->
<g id="edge49_Node000028_Node000034" class="edge">
<title>Node28&#45;&gt;Node34</title>
<g id="a_edge49_Node000028_Node000034"><a xlink:title=" ">
<path fill="none" stroke="#63b8ff" d="M770.55,-276.08C766.23,-269.11 760.04,-259.12 754.62,-250.37"/>
<polygon fill="#63b8ff" stroke="#63b8ff" points="757.61,-248.55 749.36,-241.9 751.66,-252.24 757.61,-248.55"/>
</a>
</g>
</g>
<!-- Node28&#45;&gt;Node36 -->
<g id="edge57_Node000028_Node000036" class="edge">
<title>Node28&#45;&gt;Node36</title>
<g id="a_edge57_Node000028_Node000036"><a xlink:title=" ">
<path fill="none" stroke="#63b8ff" d="M745.03,-275.88C727.67,-269.09 707.46,-257.85 697,-240.25 689.27,-227.24 689.5,-209.96 691.39,-196.66"/>
<polygon fill="#63b8ff" stroke="#63b8ff" points="694.82,-197.35 693.24,-186.87 687.94,-196.05 694.82,-197.35"/>
</a>
</g>
</g>
<!-- Node32&#45;&gt;Node30 -->
<g id="edge46_Node000032_Node000030" class="edge">
<title>Node32&#45;&gt;Node30</title>
<g id="a_edge46_Node000032_Node000030"><a xlink:title=" ">
<path fill="none" stroke="#63b8ff" d="M1014.91,-220.83C1008.14,-213.48 998.28,-202.76 989.94,-193.69"/>
<polygon fill="#63b8ff" stroke="#63b8ff" points="992.64,-191.46 983.29,-186.47 987.49,-196.2 992.64,-191.46"/>
</a>
</g>
</g>
<!-- Node33 -->
<g id="Node000033" class="node">
<title>Node33</title>
<g id="a_Node000033"><a xlink:title=" ">
<polygon fill="#e0e0e0" stroke="#999999" points="1071,-185 1031,-185 1031,-165.75 1071,-165.75 1071,-185"/>
<text xml:space="preserve" text-anchor="middle" x="1051" y="-171.5" font-family="Helvetica,sans-Serif" font-size="10.00">regex</text>
</a>
</g>
</g>
<!-- Node32&#45;&gt;Node33 -->
<g id="edge47_Node000032_Node000033" class="edge">
<title>Node32&#45;&gt;Node33</title>
<g id="a_edge47_Node000032_Node000033"><a xlink:title=" ">
<path fill="none" stroke="#63b8ff" d="M1027.62,-220.83C1031.25,-213.94 1036.43,-204.09 1040.99,-195.41"/>
<polygon fill="#63b8ff" stroke="#63b8ff" points="1044.02,-197.18 1045.57,-186.7 1037.82,-193.92 1044.02,-197.18"/>
</a>
</g>
</g>
<!-- Node34&#45;&gt;Node7 -->
<g id="edge51_Node000034_Node000007" class="edge">
<title>Node34&#45;&gt;Node7</title>
<g id="a_edge51_Node000034_Node000007"><a xlink:title=" ">
<path fill="none" stroke="#63b8ff" d="M705.92,-224.37C638.86,-214.88 497.26,-194.82 420.01,-183.88"/>
<polygon fill="#63b8ff" stroke="#63b8ff" points="420.53,-180.42 410.13,-182.48 419.54,-187.35 420.53,-180.42"/>
</a>
</g>
</g>
<!-- Node34&#45;&gt;Node13 -->
<g id="edge52_Node000034_Node000013" class="edge">
<title>Node34&#45;&gt;Node13</title>
<g id="a_edge52_Node000034_Node000013"><a xlink:title=" ">
<path fill="none" stroke="#63b8ff" d="M742.84,-220.62C742.34,-207.94 740.39,-184.31 733,-165.75 719.59,-132.07 690.78,-100.75 671.64,-82.47"/>
<polygon fill="#63b8ff" stroke="#63b8ff" points="674.2,-80.07 664.49,-75.83 669.44,-85.2 674.2,-80.07"/>
</a>
</g>
</g>
<!-- Node34&#45;&gt;Node35 -->
<g id="edge50_Node000034_Node000035" class="edge">
<title>Node34&#45;&gt;Node35</title>
<g id="a_edge50_Node000034_Node000035"><a xlink:title=" ">
<path fill="none" stroke="#63b8ff" d="M768.95,-220.59C795.15,-211.48 835.65,-197.38 863.86,-187.56"/>
<polygon fill="#63b8ff" stroke="#63b8ff" points="864.65,-190.99 872.95,-184.4 862.35,-184.38 864.65,-190.99"/>
</a>
</g>
</g>
<!-- Node34&#45;&gt;Node36 -->
<g id="edge53_Node000034_Node000036" class="edge">
<title>Node34&#45;&gt;Node36</title>
<g id="a_edge53_Node000034_Node000036"><a xlink:title=" ">
<path fill="none" stroke="#63b8ff" d="M735.24,-220.83C728.81,-213.55 719.49,-202.98 711.54,-193.98"/>
<polygon fill="#63b8ff" stroke="#63b8ff" points="714.17,-191.68 704.93,-186.49 708.92,-196.31 714.17,-191.68"/>
</a>
</g>
</g>
<!-- Node36&#45;&gt;Node15 -->
<g id="edge54_Node000036_Node000015" class="edge">
<title>Node36&#45;&gt;Node15</title>
<g id="a_edge54_Node000036_Node000015"><a xlink:title=" ">
<path fill="none" stroke="#63b8ff" d="M695.25,-165.47C693.68,-152.05 688.95,-126.52 675,-110.5 666.71,-100.98 639.12,-88.11 616.47,-78.63"/>
<polygon fill="#63b8ff" stroke="#63b8ff" points="617.83,-75.41 607.25,-74.86 615.18,-81.89 617.83,-75.41"/>
</a>
</g>
</g>
<!-- Node36&#45;&gt;Node29 -->
<g id="edge55_Node000036_Node000029" class="edge">
<title>Node36&#45;&gt;Node29</title>
<g id="a_edge55_Node000036_Node000029"><a xlink:title=" ">
<path fill="none" stroke="#63b8ff" d="M724.4,-166.29C755.19,-157.52 804.69,-143.42 840.2,-133.31"/>
<polygon fill="#63b8ff" stroke="#63b8ff" points="841.08,-136.7 849.74,-130.6 839.16,-129.97 841.08,-136.7"/>
</a>
</g>
</g>
<!-- Node37&#45;&gt;Node2 -->
<g id="edge63_Node000037_Node000002" class="edge">
<title>Node37&#45;&gt;Node2</title>
<g id="a_edge63_Node000037_Node000002"><a xlink:title=" ">
<path fill="none" stroke="#63b8ff" d="M341.14,-336.19C314.1,-331 272.55,-319.55 245,-295.5 181.32,-239.91 168.32,-130.8 165.67,-85.9"/>
<polygon fill="#63b8ff" stroke="#63b8ff" points="169.18,-85.94 165.22,-76.11 162.18,-86.26 169.18,-85.94"/>
</a>
</g>
</g>
<!-- Node37&#45;&gt;Node4 -->
<g id="edge64_Node000037_Node000004" class="edge">
<title>Node37&#45;&gt;Node4</title>
<g id="a_edge64_Node000037_Node000004"><a xlink:title=" ">
<path fill="none" stroke="#63b8ff" d="M391.75,-331.09C414.17,-322.56 448.06,-309.67 473.47,-300.01"/>
<polygon fill="#63b8ff" stroke="#63b8ff" points="474.62,-303.32 482.72,-296.49 472.13,-296.77 474.62,-303.32"/>
</a>
</g>
</g>
<!-- Node38 -->
<g id="Node000038" class="node">
<title>Node38</title>
<g id="a_Node000038"><a xlink:title=" ">
<polygon fill="#e0e0e0" stroke="#999999" points="376.25,-295.5 325.75,-295.5 325.75,-276.25 376.25,-276.25 376.25,-295.5"/>
<text xml:space="preserve" text-anchor="middle" x="351" y="-282" font-family="Helvetica,sans-Serif" font-size="10.00">unistd.h</text>
</a>
</g>
</g>
<!-- Node37&#45;&gt;Node38 -->
<g id="edge65_Node000037_Node000038" class="edge">
<title>Node37&#45;&gt;Node38</title>
<g id="a_edge65_Node000037_Node000038"><a xlink:title=" ">
<path fill="none" stroke="#63b8ff" d="M365.19,-331.33C363.06,-324.67 360.06,-315.24 357.36,-306.78"/>
<polygon fill="#63b8ff" stroke="#63b8ff" points="360.7,-305.76 354.33,-297.3 354.04,-307.89 360.7,-305.76"/>
</a>
</g>
</g>
<!-- Node39 -->
<g id="Node000039" class="node">
<title>Node39</title>
<g id="a_Node000039"><a xlink:title=" ">
<polygon fill="#e0e0e0" stroke="#999999" points="466.12,-295.5 393.88,-295.5 393.88,-276.25 466.12,-276.25 466.12,-295.5"/>
<text xml:space="preserve" text-anchor="middle" x="430" y="-282" font-family="Helvetica,sans-Serif" font-size="10.00">sys/socket.h</text>
</a>
</g>
</g>
<!-- Node37&#45;&gt;Node39 -->
<g id="edge66_Node000037_Node000039" class="edge">
<title>Node37&#45;&gt;Node39</title>
<g id="a_edge66_Node000037_Node000039"><a xlink:title=" ">
<path fill="none" stroke="#63b8ff" d="M378.52,-331.09C387.39,-323.47 400.31,-312.37 410.99,-303.2"/>
<polygon fill="#63b8ff" stroke="#63b8ff" points="413.18,-305.93 418.49,-296.76 408.62,-300.62 413.18,-305.93"/>
</a>
</g>
</g>
<!-- Node40 -->
<g id="Node000040" class="node">
<title>Node40</title>
<g id="a_Node000040"><a xlink:title=" ">
<polygon fill="#e0e0e0" stroke="#999999" points="307.75,-295.5 254.25,-295.5 254.25,-276.25 307.75,-276.25 307.75,-295.5"/>
<text xml:space="preserve" text-anchor="middle" x="281" y="-282" font-family="Helvetica,sans-Serif" font-size="10.00">sys/un.h</text>
</a>
</g>
</g>
<!-- Node37&#45;&gt;Node40 -->
<g id="edge67_Node000037_Node000040" class="edge">
<title>Node37&#45;&gt;Node40</title>
<g id="a_edge67_Node000037_Node000040"><a xlink:title=" ">
<path fill="none" stroke="#63b8ff" d="M353.24,-331.09C340.12,-323.06 320.68,-311.16 305.27,-301.73"/>
<polygon fill="#63b8ff" stroke="#63b8ff" points="307.48,-298.98 297.12,-296.74 303.82,-304.95 307.48,-298.98"/>
</a>
</g>
</g>
</g>
</svg>

<g id="navigator" transform="translate(0 0)" fill="#404254">
  <rect fill="#f2f5e9" fill-opacity="0.5" stroke="#606060" stroke-width=".5" x="0" y="0" width="60" height="60"/>
  <use id="zoomplus" xlink:href="#zoomPlus" x="17" y="9" onmousedown="handleZoom(evt,'in')"/>
  <use id="zoomminus" xlink:href="#zoomMin" x="42" y="9" onmousedown="handleZoom(evt,'out')"/>
  <use id="reset" xlink:href="#resetDef" x="30" y="36" onmousedown="handleReset()"/>
   <use id="arrowup" xlink:href="#arrowUp" x="0" y="0" onmousedown="handlePan(0,-1)"/>
  <use id="arrowright" xlink:href="#arrowRight" x="0" y="0" onmousedown="handlePan(1,0)"/>
  <use id="arrowdown" xlink:href="#arrowDown" x="0" y="0" onmousedown="handlePan(0,1)"/>
  <use id="arrowleft" xlink:href="#arrowLeft" x="0" y="0" onmousedown="handlePan(-1,0)"/>
</g>
<svg viewBox="0 0 15 15" width="100%" height="30px" preserveAspectRatio="xMaxYMin meet">
 <g id="arrow_out" transform="scale(0.3 0.3)">
  <a xlink:href="_watchman_backend_8cc__incl_org.svg" target="_base">
   <rect id="button" ry="5" rx="5" y="6" x="6" height="38" width="38"
        fill="#f2f5e9" fill-opacity="0.5" stroke="#606060" stroke-width="1.0"/>
   <path id="arrow"
     d="M 11.500037,31.436501 C 11.940474,20.09759 22.043105,11.32322 32.158766,21.979434 L 37.068811,17.246167 C 37.068811,17.246167 37.088388,32 37.088388,32 L 22.160133,31.978069 C 22.160133,31.978069 26.997745,27.140456 26.997745,27.140456 C 18.528582,18.264221 13.291696,25.230495 11.500037,31.436501 z"
     style="fill:#404040;"/>
  </a>
 </g>
</svg>

<style type='text/css'>
<![CDATA[
[data-mouse-over-selected='false'] { opacity: 0.7; }
[data-mouse-over-selected='true']  { opacity: 1.0; }
]]>
</style>
<script type="application/ecmascript"><![CDATA[
document.addEventListener('DOMContentLoaded', (event) => {
  highlightEdges();
  highlightAdjacentNodes();
});
]]></script>
</svg>
