<?xml version="1.0" encoding="UTF-8" standalone="no"?>
<!DOCTYPE svg PUBLIC "-//W3C//DTD SVG 1.1//EN"
 "http://www.w3.org/Graphics/SVG/1.1/DTD/svg11.dtd">
<!-- Generated by graphviz version 14.0.4 (20251115.1723)
 -->
<!-- Title: frontend/node_modules/@parcel/watcher/src/windows/WindowsBackend.cc Pages: 1 -->
<!--zoomable 547 -->

<svg id="main" version="1.1" xmlns="http://www.w3.org/2000/svg" xmlns:xlink="http://www.w3.org/1999/xlink" xml:space="preserve" onload="init(evt)">

<style type="text/css"><![CDATA[
.node, .edge {opacity: 0.7;}
.node.selected, .edge.selected {opacity: 1;}
.edge:hover path { stroke: red; }
.edge:hover polygon { stroke: red; fill: red; }
]]></style>

<defs>
  <circle id="rim" cx="0" cy="0" r="7"/>
  <circle id="rim2" cx="0" cy="0" r="3.5"/>
  <g id="zoomPlus">
    <use xlink:href="#rim" fill="#404040"><set attributeName="fill" to="#808080" begin="zoomplus.mouseover" end="zoomplus.mouseout"/></use>
    <path d="M-4,0h8M0,-4v8" fill="none" stroke="white" stroke-width="1.5" pointer-events="none"/>
  </g>
  <g id="zoomMin">
    <use xlink:href="#rim" fill="#404040"><set attributeName="fill" to="#808080" begin="zoomminus.mouseover" end="zoomminus.mouseout"/></use>
    <path d="M-4,0h8" fill="none" stroke="white" stroke-width="1.5" pointer-events="none"/>
  </g>
  <g id="arrowUp" transform="translate(30 24)">
    <use xlink:href="#rim"/>
    <path pointer-events="none" fill="none" stroke="white" stroke-width="1.5" d="M0,-3.0v7 M-2.5,-0.5L0,-3.0L2.5,-0.5"/>
  </g>
  <g id="arrowRight" transform="rotate(90) translate(36 -43)">
    <use xlink:href="#rim"/>
    <path pointer-events="none" fill="none" stroke="white" stroke-width="1.5" d="M0,-3.0v7 M-2.5,-0.5L0,-3.0L2.5,-0.5"/>
  </g>
  <g id="arrowDown" transform="rotate(180) translate(-30 -48)">
    <use xlink:href="#rim"/>
    <path pointer-events="none" fill="none" stroke="white" stroke-width="1.5" d="M0,-3.0v7 M-2.5,-0.5L0,-3.0L2.5,-0.5"/>
  </g>
  <g id="arrowLeft" transform="rotate(270) translate(-36 17)">
    <use xlink:href="#rim"/>
    <path pointer-events="none" fill="none" stroke="white" stroke-width="1.5" d="M0,-3.0v7 M-2.5,-0.5L0,-3.0L2.5,-0.5"/>
  </g>
  <g id="resetDef">
    <use xlink:href="#rim2" fill="#404040"><set attributeName="fill" to="#808080" begin="reset.mouseover" end="reset.mouseout"/></use>
  </g>
</defs>
<script type="application/ecmascript">
var viewWidth = 907;
var viewHeight = 547;
var sectionId = 'dynsection-0';
</script>
<script type="application/ecmascript" xlink:href="svg.min.js"/>
<svg id="graph" class="graph">
<g id="viewport">
<title>frontend/node_modules/@parcel/watcher/src/windows/WindowsBackend.cc</title>
<!-- Node1 -->
<g id="Node000001" class="node">
<title>Node1</title>
<g id="a_Node000001"><a xlink:title=" ">
<polygon fill="#999999" stroke="#666666" points="786.5,-539 634,-539 634,-497.25 786.5,-497.25 786.5,-539"/>
<text xml:space="preserve" text-anchor="start" x="642" y="-525.5" font-family="Helvetica,sans-Serif" font-size="10.00">frontend/node_modules</text>
<text xml:space="preserve" text-anchor="start" x="642" y="-514.25" font-family="Helvetica,sans-Serif" font-size="10.00">/@parcel/watcher/src</text>
<text xml:space="preserve" text-anchor="middle" x="710.25" y="-503" font-family="Helvetica,sans-Serif" font-size="10.00">/windows/WindowsBackend.cc</text>
</a>
</g>
</g>
<!-- Node2 -->
<g id="Node000002" class="node">
<title>Node2</title>
<g id="a_Node000002"><a xlink:title=" ">
<polygon fill="#e0e0e0" stroke="#999999" points="745.25,-74.5 705.25,-74.5 705.25,-55.25 745.25,-55.25 745.25,-74.5"/>
<text xml:space="preserve" text-anchor="middle" x="725.25" y="-61" font-family="Helvetica,sans-Serif" font-size="10.00">string</text>
</a>
</g>
</g>
<!-- Node1&#45;&gt;Node2 -->
<g id="edge1_Node000001_Node000002" class="edge">
<title>Node1&#45;&gt;Node2</title>
<g id="a_edge1_Node000001_Node000002"><a xlink:title=" ">
<path fill="none" stroke="#63b8ff" d="M765.17,-496.87C782.32,-488.2 799.94,-476.49 812.25,-461.25 830.86,-438.21 831.25,-426.99 831.25,-397.38 831.25,-397.38 831.25,-397.38 831.25,-174.38 831.25,-130.37 786.08,-97.58 754.72,-80.12"/>
<polygon fill="#63b8ff" stroke="#63b8ff" points="756.5,-77.1 746.03,-75.5 753.22,-83.28 756.5,-77.1"/>
</a>
</g>
</g>
<!-- Node3 -->
<g id="Node000003" class="node">
<title>Node3</title>
<g id="a_Node000003"><a xlink:title=" ">
<polygon fill="#e0e0e0" stroke="#999999" points="899.25,-461.25 859.25,-461.25 859.25,-442 899.25,-442 899.25,-461.25"/>
<text xml:space="preserve" text-anchor="middle" x="879.25" y="-447.75" font-family="Helvetica,sans-Serif" font-size="10.00">stack</text>
</a>
</g>
</g>
<!-- Node1&#45;&gt;Node3 -->
<g id="edge2_Node000001_Node000003" class="edge">
<title>Node1&#45;&gt;Node3</title>
<g id="a_edge2_Node000001_Node000003"><a xlink:title=" ">
<path fill="none" stroke="#63b8ff" d="M763.26,-496.89C791.34,-486.18 824.83,-473.4 848.59,-464.33"/>
<polygon fill="#63b8ff" stroke="#63b8ff" points="849.58,-467.7 857.67,-460.86 847.08,-461.16 849.58,-467.7"/>
</a>
</g>
</g>
<!-- Node4 -->
<g id="Node000004" class="node">
<title>Node4</title>
<g id="a_Node000004"><a xlink:href="_dir_tree_8hh.html" target="_top" xlink:title=" ">
<polygon fill="white" stroke="#666666" points="604.62,-240.25 533.88,-240.25 533.88,-221 604.62,-221 604.62,-240.25"/>
<text xml:space="preserve" text-anchor="middle" x="569.25" y="-226.75" font-family="Helvetica,sans-Serif" font-size="10.00">../DirTree.hh</text>
</a>
</g>
</g>
<!-- Node1&#45;&gt;Node4 -->
<g id="edge3_Node000001_Node000004" class="edge">
<title>Node1&#45;&gt;Node4</title>
<g id="a_edge3_Node000001_Node000004"><a xlink:title=" ">
<path fill="none" stroke="#63b8ff" d="M639.59,-496.8C620.74,-488.43 601.85,-476.9 588.25,-461.25 568.83,-438.89 569.25,-426.99 569.25,-397.38 569.25,-397.38 569.25,-397.38 569.25,-340.12 569.25,-309.41 569.25,-273.8 569.25,-251.99"/>
<polygon fill="#63b8ff" stroke="#63b8ff" points="572.75,-252.14 569.25,-242.14 565.75,-252.14 572.75,-252.14"/>
</a>
</g>
</g>
<!-- Node23 -->
<g id="Node000023" class="node">
<title>Node23</title>
<g id="a_Node000023"><a xlink:href="_brute_force_backend_8hh.html" target="_top" xlink:title=" ">
<polygon fill="white" stroke="#666666" points="540.75,-406 383.75,-406 383.75,-386.75 540.75,-386.75 540.75,-406"/>
<text xml:space="preserve" text-anchor="middle" x="462.25" y="-392.5" font-family="Helvetica,sans-Serif" font-size="10.00">../shared/BruteForceBackend.hh</text>
</a>
</g>
</g>
<!-- Node1&#45;&gt;Node23 -->
<g id="edge28_Node000001_Node000023" class="edge">
<title>Node1&#45;&gt;Node23</title>
<g id="a_edge28_Node000001_Node000023"><a xlink:title=" ">
<path fill="none" stroke="#63b8ff" d="M642.3,-496.83C614.62,-487.5 582.74,-475.35 555.25,-461.25 528.63,-447.6 500.68,-427.5 482.45,-413.51"/>
<polygon fill="#63b8ff" stroke="#63b8ff" points="484.63,-410.77 474.59,-407.38 480.32,-416.29 484.63,-410.77"/>
</a>
</g>
</g>
<!-- Node34 -->
<g id="Node000034" class="node">
<title>Node34</title>
<g id="a_Node000034"><a xlink:href="_windows_backend_8hh.html" target="_top" xlink:title=" ">
<polygon fill="white" stroke="#666666" points="711.38,-461.25 597.12,-461.25 597.12,-442 711.38,-442 711.38,-461.25"/>
<text xml:space="preserve" text-anchor="middle" x="654.25" y="-447.75" font-family="Helvetica,sans-Serif" font-size="10.00">./WindowsBackend.hh</text>
</a>
</g>
</g>
<!-- Node1&#45;&gt;Node34 -->
<g id="edge53_Node000001_Node000034" class="edge">
<title>Node1&#45;&gt;Node34</title>
<g id="a_edge53_Node000001_Node000034"><a xlink:title=" ">
<path fill="none" stroke="#63b8ff" d="M692.84,-497.07C685.37,-488.47 676.73,-478.52 669.52,-470.21"/>
<polygon fill="#63b8ff" stroke="#63b8ff" points="672.32,-468.09 663.12,-462.84 667.03,-472.68 672.32,-468.09"/>
</a>
</g>
</g>
<!-- Node37 -->
<g id="Node000037" class="node">
<title>Node37</title>
<g id="a_Node000037"><a xlink:href="win__utils_8hh.html" target="_top" xlink:title=" ">
<polygon fill="white" stroke="#666666" points="803.12,-461.25 729.38,-461.25 729.38,-442 803.12,-442 803.12,-461.25"/>
<text xml:space="preserve" text-anchor="middle" x="766.25" y="-447.75" font-family="Helvetica,sans-Serif" font-size="10.00">./win_utils.hh</text>
</a>
</g>
</g>
<!-- Node1&#45;&gt;Node37 -->
<g id="edge57_Node000001_Node000037" class="edge">
<title>Node1&#45;&gt;Node37</title>
<g id="a_edge57_Node000001_Node000037"><a xlink:title=" ">
<path fill="none" stroke="#63b8ff" d="M727.66,-497.07C735.13,-488.47 743.77,-478.52 750.98,-470.21"/>
<polygon fill="#63b8ff" stroke="#63b8ff" points="753.47,-472.68 757.38,-462.84 748.18,-468.09 753.47,-472.68"/>
</a>
</g>
</g>
<!-- Node4&#45;&gt;Node2 -->
<g id="edge4_Node000004_Node000002" class="edge">
<title>Node4&#45;&gt;Node2</title>
<g id="a_edge4_Node000004_Node000002"><a xlink:title=" ">
<path fill="none" stroke="#63b8ff" d="M578.67,-220.5C587.84,-211.56 602.15,-197.48 614.25,-185 648.82,-149.34 688.21,-106.52 709.53,-83.17"/>
<polygon fill="#63b8ff" stroke="#63b8ff" points="711.85,-85.82 716,-76.07 706.67,-81.11 711.85,-85.82"/>
</a>
</g>
</g>
<!-- Node5 -->
<g id="Node000005" class="node">
<title>Node5</title>
<g id="a_Node000005"><a xlink:title=" ">
<polygon fill="#e0e0e0" stroke="#999999" points="454.62,-185 371.88,-185 371.88,-165.75 454.62,-165.75 454.62,-185"/>
<text xml:space="preserve" text-anchor="middle" x="413.25" y="-171.5" font-family="Helvetica,sans-Serif" font-size="10.00">unordered_map</text>
</a>
</g>
</g>
<!-- Node4&#45;&gt;Node5 -->
<g id="edge5_Node000004_Node000005" class="edge">
<title>Node4&#45;&gt;Node5</title>
<g id="a_edge5_Node000004_Node000005"><a xlink:title=" ">
<path fill="none" stroke="#63b8ff" d="M542.79,-220.59C517.46,-211.95 479.02,-198.82 450.58,-189.12"/>
<polygon fill="#63b8ff" stroke="#63b8ff" points="451.87,-185.86 441.28,-185.94 449.61,-192.48 451.87,-185.86"/>
</a>
</g>
</g>
<!-- Node6 -->
<g id="Node000006" class="node">
<title>Node6</title>
<g id="a_Node000006"><a xlink:title=" ">
<polygon fill="#e0e0e0" stroke="#999999" points="686.88,-74.5 635.62,-74.5 635.62,-55.25 686.88,-55.25 686.88,-74.5"/>
<text xml:space="preserve" text-anchor="middle" x="661.25" y="-61" font-family="Helvetica,sans-Serif" font-size="10.00">memory</text>
</a>
</g>
</g>
<!-- Node4&#45;&gt;Node6 -->
<g id="edge6_Node000004_Node000006" class="edge">
<title>Node4&#45;&gt;Node6</title>
<g id="a_edge6_Node000004_Node000006"><a xlink:title=" ">
<path fill="none" stroke="#63b8ff" d="M574.49,-220.77C579.78,-211.79 588.16,-197.47 595.25,-185 615.23,-149.85 637.97,-108.5 650.86,-84.92"/>
<polygon fill="#63b8ff" stroke="#63b8ff" points="653.9,-86.66 655.62,-76.21 647.76,-83.3 653.9,-86.66"/>
</a>
</g>
</g>
<!-- Node7 -->
<g id="Node000007" class="node">
<title>Node7</title>
<g id="a_Node000007"><a xlink:href="_event_8hh.html" target="_top" xlink:title=" ">
<polygon fill="white" stroke="#666666" points="585.75,-185 530.75,-185 530.75,-165.75 585.75,-165.75 585.75,-185"/>
<text xml:space="preserve" text-anchor="middle" x="558.25" y="-171.5" font-family="Helvetica,sans-Serif" font-size="10.00">Event.hh</text>
</a>
</g>
</g>
<!-- Node4&#45;&gt;Node7 -->
<g id="edge7_Node000004_Node000007" class="edge">
<title>Node4&#45;&gt;Node7</title>
<g id="a_edge7_Node000004_Node000007"><a xlink:title=" ">
<path fill="none" stroke="#63b8ff" d="M567.43,-220.83C566.07,-214.24 564.15,-204.96 562.42,-196.57"/>
<polygon fill="#63b8ff" stroke="#63b8ff" points="565.86,-195.93 560.41,-186.84 559.01,-197.34 565.86,-195.93"/>
</a>
</g>
</g>
<!-- Node7&#45;&gt;Node2 -->
<g id="edge8_Node000007_Node000002" class="edge">
<title>Node7&#45;&gt;Node2</title>
<g id="a_edge8_Node000007_Node000002"><a xlink:title=" ">
<path fill="none" stroke="#63b8ff" d="M572.2,-165.31C600.88,-146.68 666.73,-103.9 701.98,-81"/>
<polygon fill="#63b8ff" stroke="#63b8ff" points="703.71,-84.04 710.19,-75.66 699.89,-78.17 703.71,-84.04"/>
</a>
</g>
</g>
<!-- Node8 -->
<g id="Node000008" class="node">
<title>Node8</title>
<g id="a_Node000008"><a xlink:title=" ">
<polygon fill="#e0e0e0" stroke="#999999" points="316.88,-74.5 253.62,-74.5 253.62,-55.25 316.88,-55.25 316.88,-74.5"/>
<text xml:space="preserve" text-anchor="middle" x="285.25" y="-61" font-family="Helvetica,sans-Serif" font-size="10.00">node_api.h</text>
</a>
</g>
</g>
<!-- Node7&#45;&gt;Node8 -->
<g id="edge9_Node000007_Node000008" class="edge">
<title>Node7&#45;&gt;Node8</title>
<g id="a_edge9_Node000007_Node000008"><a xlink:title=" ">
<path fill="none" stroke="#63b8ff" d="M530.39,-167.76C527.31,-167.07 524.22,-166.38 521.25,-165.75 438.9,-148.19 407.08,-173.68 335.25,-129.75 317.63,-118.98 303.8,-99.59 295.19,-84.99"/>
<polygon fill="#63b8ff" stroke="#63b8ff" points="298.28,-83.36 290.38,-76.31 292.16,-86.75 298.28,-83.36"/>
</a>
</g>
</g>
<!-- Node9 -->
<g id="Node000009" class="node">
<title>Node9</title>
<g id="a_Node000009"><a xlink:href="include_8h.html" target="_top" xlink:title=" ">
<polygon fill="white" stroke="#666666" points="608.38,-129.75 524.12,-129.75 524.12,-110.5 608.38,-110.5 608.38,-129.75"/>
<text xml:space="preserve" text-anchor="middle" x="566.25" y="-116.25" font-family="Helvetica,sans-Serif" font-size="10.00">wasm/include.h</text>
</a>
</g>
</g>
<!-- Node7&#45;&gt;Node9 -->
<g id="edge10_Node000007_Node000009" class="edge">
<title>Node7&#45;&gt;Node9</title>
<g id="a_edge10_Node000007_Node000009"><a xlink:title=" ">
<path fill="none" stroke="#63b8ff" d="M559.57,-165.58C560.56,-158.99 561.96,-149.71 563.22,-141.32"/>
<polygon fill="#63b8ff" stroke="#63b8ff" points="566.65,-142.01 564.68,-131.61 559.73,-140.97 566.65,-142.01"/>
</a>
</g>
</g>
<!-- Node10 -->
<g id="Node000010" class="node">
<title>Node10</title>
<g id="a_Node000010"><a xlink:href="napi_8h.html" target="_top" xlink:title=" ">
<polygon fill="white" stroke="#666666" points="506.38,-129.75 464.12,-129.75 464.12,-110.5 506.38,-110.5 506.38,-129.75"/>
<text xml:space="preserve" text-anchor="middle" x="485.25" y="-116.25" font-family="Helvetica,sans-Serif" font-size="10.00">napi.h</text>
</a>
</g>
</g>
<!-- Node7&#45;&gt;Node10 -->
<g id="edge11_Node000007_Node000010" class="edge">
<title>Node7&#45;&gt;Node10</title>
<g id="a_edge11_Node000007_Node000010"><a xlink:title=" ">
<path fill="none" stroke="#63b8ff" d="M545.87,-165.34C535.1,-157.49 519.28,-145.95 506.5,-136.62"/>
<polygon fill="#63b8ff" stroke="#63b8ff" points="508.81,-133.98 498.67,-130.92 504.69,-139.64 508.81,-133.98"/>
</a>
</g>
</g>
<!-- Node13 -->
<g id="Node000013" class="node">
<title>Node13</title>
<g id="a_Node000013"><a xlink:title=" ">
<polygon fill="#e0e0e0" stroke="#999999" points="235.75,-74.5 192.75,-74.5 192.75,-55.25 235.75,-55.25 235.75,-74.5"/>
<text xml:space="preserve" text-anchor="middle" x="214.25" y="-61" font-family="Helvetica,sans-Serif" font-size="10.00">mutex</text>
</a>
</g>
</g>
<!-- Node7&#45;&gt;Node13 -->
<g id="edge25_Node000007_Node000013" class="edge">
<title>Node7&#45;&gt;Node13</title>
<g id="a_edge25_Node000007_Node000013"><a xlink:title=" ">
<path fill="none" stroke="#63b8ff" d="M530.41,-167.69C527.32,-167.01 524.22,-166.35 521.25,-165.75 427.56,-146.89 398,-165.21 309.25,-129.75 280.33,-118.2 251.22,-96.86 232.99,-82.04"/>
<polygon fill="#63b8ff" stroke="#63b8ff" points="235.59,-79.65 225.67,-75.94 231.11,-85.03 235.59,-79.65"/>
</a>
</g>
</g>
<!-- Node21 -->
<g id="Node000021" class="node">
<title>Node21</title>
<g id="a_Node000021"><a xlink:title=" ">
<polygon fill="#e0e0e0" stroke="#999999" points="378.62,-129.75 343.88,-129.75 343.88,-110.5 378.62,-110.5 378.62,-129.75"/>
<text xml:space="preserve" text-anchor="middle" x="361.25" y="-116.25" font-family="Helvetica,sans-Serif" font-size="10.00">map</text>
</a>
</g>
</g>
<!-- Node7&#45;&gt;Node21 -->
<g id="edge26_Node000007_Node000021" class="edge">
<title>Node7&#45;&gt;Node21</title>
<g id="a_edge26_Node000007_Node000021"><a xlink:title=" ">
<path fill="none" stroke="#63b8ff" d="M530.25,-167.66C498.39,-159.89 444.54,-146.38 390.01,-130.44"/>
<polygon fill="#63b8ff" stroke="#63b8ff" points="391.14,-127.12 380.56,-127.65 389.16,-133.83 391.14,-127.12"/>
</a>
</g>
</g>
<!-- Node22 -->
<g id="Node000022" class="node">
<title>Node22</title>
<g id="a_Node000022"><a xlink:title=" ">
<polygon fill="#e0e0e0" stroke="#999999" points="446.12,-129.75 396.38,-129.75 396.38,-110.5 446.12,-110.5 446.12,-129.75"/>
<text xml:space="preserve" text-anchor="middle" x="421.25" y="-116.25" font-family="Helvetica,sans-Serif" font-size="10.00">optional</text>
</a>
</g>
</g>
<!-- Node7&#45;&gt;Node22 -->
<g id="edge27_Node000007_Node000022" class="edge">
<title>Node7&#45;&gt;Node22</title>
<g id="a_edge27_Node000007_Node000022"><a xlink:title=" ">
<path fill="none" stroke="#63b8ff" d="M535.01,-165.34C513.06,-156.81 479.9,-143.92 455.04,-134.26"/>
<polygon fill="#63b8ff" stroke="#63b8ff" points="456.6,-131.11 446.01,-130.75 454.07,-137.64 456.6,-131.11"/>
</a>
</g>
</g>
<!-- Node10&#45;&gt;Node2 -->
<g id="edge17_Node000010_Node000002" class="edge">
<title>Node10&#45;&gt;Node2</title>
<g id="a_edge17_Node000010_Node000002"><a xlink:title=" ">
<path fill="none" stroke="#63b8ff" d="M506.82,-112.69C509.65,-111.92 512.51,-111.16 515.25,-110.5 591.53,-91.98 614.66,-93.99 694,-74.86"/>
<polygon fill="#63b8ff" stroke="#63b8ff" points="694.69,-78.29 703.56,-72.51 693.02,-71.49 694.69,-78.29"/>
</a>
</g>
</g>
<!-- Node10&#45;&gt;Node6 -->
<g id="edge15_Node000010_Node000006" class="edge">
<title>Node10&#45;&gt;Node6</title>
<g id="a_edge15_Node000010_Node000006"><a xlink:title=" ">
<path fill="none" stroke="#63b8ff" d="M506.83,-112.6C536.07,-103.75 588.69,-87.83 624.29,-77.06"/>
<polygon fill="#63b8ff" stroke="#63b8ff" points="625.19,-80.44 633.75,-74.2 623.16,-73.74 625.19,-80.44"/>
</a>
</g>
</g>
<!-- Node10&#45;&gt;Node8 -->
<g id="edge12_Node000010_Node000008" class="edge">
<title>Node10&#45;&gt;Node8</title>
<g id="a_edge12_Node000010_Node000008"><a xlink:title=" ">
<path fill="none" stroke="#63b8ff" d="M463.64,-112.85C460.82,-112.05 457.97,-111.25 455.25,-110.5 412.16,-98.65 362.74,-85.76 328.33,-76.89"/>
<polygon fill="#63b8ff" stroke="#63b8ff" points="329.29,-73.52 318.73,-74.42 327.55,-80.3 329.29,-73.52"/>
</a>
</g>
</g>
<!-- Node11 -->
<g id="Node000011" class="node">
<title>Node11</title>
<g id="a_Node000011"><a xlink:title=" ">
<polygon fill="#e0e0e0" stroke="#999999" points="393.25,-74.5 335.25,-74.5 335.25,-55.25 393.25,-55.25 393.25,-74.5"/>
<text xml:space="preserve" text-anchor="middle" x="364.25" y="-61" font-family="Helvetica,sans-Serif" font-size="10.00">functional</text>
</a>
</g>
</g>
<!-- Node10&#45;&gt;Node11 -->
<g id="edge13_Node000010_Node000011" class="edge">
<title>Node10&#45;&gt;Node11</title>
<g id="a_edge13_Node000010_Node000011"><a xlink:title=" ">
<path fill="none" stroke="#63b8ff" d="M464.72,-110.09C445.69,-101.72 417.1,-89.13 395.28,-79.53"/>
<polygon fill="#63b8ff" stroke="#63b8ff" points="396.82,-76.39 386.26,-75.56 394.01,-82.79 396.82,-76.39"/>
</a>
</g>
</g>
<!-- Node12 -->
<g id="Node000012" class="node">
<title>Node12</title>
<g id="a_Node000012"><a xlink:title=" ">
<polygon fill="#e0e0e0" stroke="#999999" points="483.38,-74.5 411.12,-74.5 411.12,-55.25 483.38,-55.25 483.38,-74.5"/>
<text xml:space="preserve" text-anchor="middle" x="447.25" y="-61" font-family="Helvetica,sans-Serif" font-size="10.00">initializer_list</text>
</a>
</g>
</g>
<!-- Node10&#45;&gt;Node12 -->
<g id="edge14_Node000010_Node000012" class="edge">
<title>Node10&#45;&gt;Node12</title>
<g id="a_edge14_Node000010_Node000012"><a xlink:title=" ">
<path fill="none" stroke="#63b8ff" d="M478.98,-110.33C473.89,-103.21 466.55,-92.93 460.22,-84.05"/>
<polygon fill="#63b8ff" stroke="#63b8ff" points="463.2,-82.2 454.54,-76.09 457.5,-86.26 463.2,-82.2"/>
</a>
</g>
</g>
<!-- Node10&#45;&gt;Node13 -->
<g id="edge16_Node000010_Node000013" class="edge">
<title>Node10&#45;&gt;Node13</title>
<g id="a_edge16_Node000010_Node000013"><a xlink:title=" ">
<path fill="none" stroke="#63b8ff" d="M463.69,-112.62C460.87,-111.86 458,-111.13 455.25,-110.5 366.04,-90.13 339.04,-95.23 247.34,-75"/>
<polygon fill="#63b8ff" stroke="#63b8ff" points="248.13,-71.59 237.61,-72.8 246.59,-78.42 248.13,-71.59"/>
</a>
</g>
</g>
<!-- Node14 -->
<g id="Node000014" class="node">
<title>Node14</title>
<g id="a_Node000014"><a xlink:title=" ">
<polygon fill="#e0e0e0" stroke="#999999" points="544.75,-74.5 501.75,-74.5 501.75,-55.25 544.75,-55.25 544.75,-74.5"/>
<text xml:space="preserve" text-anchor="middle" x="523.25" y="-61" font-family="Helvetica,sans-Serif" font-size="10.00">vector</text>
</a>
</g>
</g>
<!-- Node10&#45;&gt;Node14 -->
<g id="edge18_Node000010_Node000014" class="edge">
<title>Node10&#45;&gt;Node14</title>
<g id="a_edge18_Node000010_Node000014"><a xlink:title=" ">
<path fill="none" stroke="#63b8ff" d="M491.52,-110.33C496.61,-103.21 503.95,-92.93 510.28,-84.05"/>
<polygon fill="#63b8ff" stroke="#63b8ff" points="513,-86.26 515.96,-76.09 507.3,-82.2 513,-86.26"/>
</a>
</g>
</g>
<!-- Node15 -->
<g id="Node000015" class="node">
<title>Node15</title>
<g id="a_Node000015"><a xlink:href="napi-inl_8h.html" target="_top" xlink:title=" ">
<polygon fill="white" stroke="#666666" points="617.75,-74.5 562.75,-74.5 562.75,-55.25 617.75,-55.25 617.75,-74.5"/>
<text xml:space="preserve" text-anchor="middle" x="590.25" y="-61" font-family="Helvetica,sans-Serif" font-size="10.00">napi&#45;inl.h</text>
</a>
</g>
</g>
<!-- Node10&#45;&gt;Node15 -->
<g id="edge19_Node000010_Node000015" class="edge">
<title>Node10&#45;&gt;Node15</title>
<g id="a_edge19_Node000010_Node000015"><a xlink:title=" ">
<path fill="none" stroke="#63b8ff" d="M503.06,-110.09C519.28,-101.87 543.49,-89.59 562.28,-80.06"/>
<polygon fill="#63b8ff" stroke="#63b8ff" points="563.67,-83.28 571,-75.64 560.5,-77.04 563.67,-83.28"/>
</a>
</g>
</g>
<!-- Node16 -->
<g id="Node000016" class="node">
<title>Node16</title>
<g id="a_Node000016"><a xlink:title=" ">
<polygon fill="#e0e0e0" stroke="#999999" points="477.12,-19.25 421.38,-19.25 421.38,0 477.12,0 477.12,-19.25"/>
<text xml:space="preserve" text-anchor="middle" x="449.25" y="-5.75" font-family="Helvetica,sans-Serif" font-size="10.00">algorithm</text>
</a>
</g>
</g>
<!-- Node15&#45;&gt;Node16 -->
<g id="edge20_Node000015_Node000016" class="edge">
<title>Node15&#45;&gt;Node16</title>
<g id="a_edge20_Node000015_Node000016"><a xlink:title=" ">
<path fill="none" stroke="#63b8ff" d="M566.33,-54.84C543.75,-46.31 509.61,-33.42 484.02,-23.76"/>
<polygon fill="#63b8ff" stroke="#63b8ff" points="485.29,-20.5 474.7,-20.24 482.82,-27.04 485.29,-20.5"/>
</a>
</g>
</g>
<!-- Node17 -->
<g id="Node000017" class="node">
<title>Node17</title>
<g id="a_Node000017"><a xlink:title=" ">
<polygon fill="#e0e0e0" stroke="#999999" points="540.88,-19.25 495.62,-19.25 495.62,0 540.88,0 540.88,-19.25"/>
<text xml:space="preserve" text-anchor="middle" x="518.25" y="-5.75" font-family="Helvetica,sans-Serif" font-size="10.00">cstring</text>
</a>
</g>
</g>
<!-- Node15&#45;&gt;Node17 -->
<g id="edge21_Node000015_Node000017" class="edge">
<title>Node15&#45;&gt;Node17</title>
<g id="a_edge21_Node000015_Node000017"><a xlink:title=" ">
<path fill="none" stroke="#63b8ff" d="M578.04,-54.84C567.42,-46.99 551.81,-35.45 539.21,-26.12"/>
<polygon fill="#63b8ff" stroke="#63b8ff" points="541.62,-23.56 531.5,-20.42 537.46,-29.19 541.62,-23.56"/>
</a>
</g>
</g>
<!-- Node18 -->
<g id="Node000018" class="node">
<title>Node18</title>
<g id="a_Node000018"><a xlink:title=" ">
<polygon fill="#e0e0e0" stroke="#999999" points="621.12,-19.25 559.38,-19.25 559.38,0 621.12,0 621.12,-19.25"/>
<text xml:space="preserve" text-anchor="middle" x="590.25" y="-5.75" font-family="Helvetica,sans-Serif" font-size="10.00">type_traits</text>
</a>
</g>
</g>
<!-- Node15&#45;&gt;Node18 -->
<g id="edge22_Node000015_Node000018" class="edge">
<title>Node15&#45;&gt;Node18</title>
<g id="a_edge22_Node000015_Node000018"><a xlink:title=" ">
<path fill="none" stroke="#63b8ff" d="M590.25,-55.08C590.25,-48.57 590.25,-39.42 590.25,-31.12"/>
<polygon fill="#63b8ff" stroke="#63b8ff" points="593.75,-31.12 590.25,-21.12 586.75,-31.12 593.75,-31.12"/>
</a>
</g>
</g>
<!-- Node19 -->
<g id="Node000019" class="node">
<title>Node19</title>
<g id="a_Node000019"><a xlink:title=" ">
<polygon fill="#e0e0e0" stroke="#999999" points="678.88,-19.25 639.62,-19.25 639.62,0 678.88,0 678.88,-19.25"/>
<text xml:space="preserve" text-anchor="middle" x="659.25" y="-5.75" font-family="Helvetica,sans-Serif" font-size="10.00">utility</text>
</a>
</g>
</g>
<!-- Node15&#45;&gt;Node19 -->
<g id="edge23_Node000015_Node000019" class="edge">
<title>Node15&#45;&gt;Node19</title>
<g id="a_edge23_Node000015_Node000019"><a xlink:title=" ">
<path fill="none" stroke="#63b8ff" d="M601.95,-54.84C612.03,-47.07 626.79,-35.67 638.81,-26.4"/>
<polygon fill="#63b8ff" stroke="#63b8ff" points="640.74,-29.33 646.52,-20.45 636.46,-23.79 640.74,-29.33"/>
</a>
</g>
</g>
<!-- Node20 -->
<g id="Node000020" class="node">
<title>Node20</title>
<g id="a_Node000020"><a xlink:href="napi-inl_8deprecated_8h.html" target="_top" xlink:title=" ">
<polygon fill="white" stroke="#666666" points="803.25,-19.25 697.25,-19.25 697.25,0 803.25,0 803.25,-19.25"/>
<text xml:space="preserve" text-anchor="middle" x="750.25" y="-5.75" font-family="Helvetica,sans-Serif" font-size="10.00">napi&#45;inl.deprecated.h</text>
</a>
</g>
</g>
<!-- Node15&#45;&gt;Node20 -->
<g id="edge24_Node000015_Node000020" class="edge">
<title>Node15&#45;&gt;Node20</title>
<g id="a_edge24_Node000015_Node000020"><a xlink:title=" ">
<path fill="none" stroke="#63b8ff" d="M617.39,-54.84C643.48,-46.16 683.15,-32.96 712.35,-23.24"/>
<polygon fill="#63b8ff" stroke="#63b8ff" points="713.16,-26.66 721.54,-20.18 710.95,-20.02 713.16,-26.66"/>
</a>
</g>
</g>
<!-- Node23&#45;&gt;Node4 -->
<g id="edge51_Node000023_Node000004" class="edge">
<title>Node23&#45;&gt;Node4</title>
<g id="a_edge51_Node000023_Node000004"><a xlink:title=" ">
<path fill="none" stroke="#63b8ff" d="M468,-386.57C484.84,-360.8 534.27,-285.15 557.25,-249.99"/>
<polygon fill="#63b8ff" stroke="#63b8ff" points="560.1,-252.03 562.64,-241.74 554.24,-248.2 560.1,-252.03"/>
</a>
</g>
</g>
<!-- Node24 -->
<g id="Node000024" class="node">
<title>Node24</title>
<g id="a_Node000024"><a xlink:href="_backend_8hh.html" target="_top" xlink:title=" ">
<polygon fill="white" stroke="#666666" points="372.62,-350.75 295.88,-350.75 295.88,-331.5 372.62,-331.5 372.62,-350.75"/>
<text xml:space="preserve" text-anchor="middle" x="334.25" y="-337.25" font-family="Helvetica,sans-Serif" font-size="10.00">../Backend.hh</text>
</a>
</g>
</g>
<!-- Node23&#45;&gt;Node24 -->
<g id="edge29_Node000023_Node000024" class="edge">
<title>Node23&#45;&gt;Node24</title>
<g id="a_edge29_Node000023_Node000024"><a xlink:title=" ">
<path fill="none" stroke="#63b8ff" d="M440.54,-386.34C420.22,-377.89 389.6,-365.15 366.44,-355.52"/>
<polygon fill="#63b8ff" stroke="#63b8ff" points="368.04,-352.39 357.47,-351.78 365.36,-358.86 368.04,-352.39"/>
</a>
</g>
</g>
<!-- Node25 -->
<g id="Node000025" class="node">
<title>Node25</title>
<g id="a_Node000025"><a xlink:href="_watcher_8hh.html" target="_top" xlink:title=" ">
<polygon fill="white" stroke="#666666" points="366.62,-295.5 301.88,-295.5 301.88,-276.25 366.62,-276.25 366.62,-295.5"/>
<text xml:space="preserve" text-anchor="middle" x="334.25" y="-282" font-family="Helvetica,sans-Serif" font-size="10.00">Watcher.hh</text>
</a>
</g>
</g>
<!-- Node23&#45;&gt;Node25 -->
<g id="edge52_Node000023_Node000025" class="edge">
<title>Node23&#45;&gt;Node25</title>
<g id="a_edge52_Node000023_Node000025"><a xlink:title=" ">
<path fill="none" stroke="#63b8ff" d="M451.78,-386.5C430.3,-368.3 381.02,-326.52 353.58,-303.26"/>
<polygon fill="#63b8ff" stroke="#63b8ff" points="355.92,-300.65 346.02,-296.86 351.39,-305.99 355.92,-300.65"/>
</a>
</g>
</g>
<!-- Node24&#45;&gt;Node7 -->
<g id="edge30_Node000024_Node000007" class="edge">
<title>Node24&#45;&gt;Node7</title>
<g id="a_edge30_Node000024_Node000007"><a xlink:title=" ">
<path fill="none" stroke="#63b8ff" d="M348.21,-331.15C374.53,-314.11 433.06,-275.61 480.25,-240.25 500.9,-224.78 523.63,-205.95 539.2,-192.75"/>
<polygon fill="#63b8ff" stroke="#63b8ff" points="541.39,-195.48 546.73,-186.33 536.85,-190.15 541.39,-195.48"/>
</a>
</g>
</g>
<!-- Node24&#45;&gt;Node25 -->
<g id="edge31_Node000024_Node000025" class="edge">
<title>Node24&#45;&gt;Node25</title>
<g id="a_edge31_Node000024_Node000025"><a xlink:title=" ">
<path fill="none" stroke="#63b8ff" d="M334.25,-331.33C334.25,-324.82 334.25,-315.67 334.25,-307.37"/>
<polygon fill="#63b8ff" stroke="#63b8ff" points="337.75,-307.37 334.25,-297.37 330.75,-307.37 337.75,-307.37"/>
</a>
</g>
</g>
<!-- Node32 -->
<g id="Node000032" class="node">
<title>Node32</title>
<g id="a_Node000032"><a xlink:title=" ">
<polygon fill="#e0e0e0" stroke="#999999" points="117.75,-185 74.75,-185 74.75,-165.75 117.75,-165.75 117.75,-185"/>
<text xml:space="preserve" text-anchor="middle" x="96.25" y="-171.5" font-family="Helvetica,sans-Serif" font-size="10.00">thread</text>
</a>
</g>
</g>
<!-- Node24&#45;&gt;Node32 -->
<g id="edge50_Node000024_Node000032" class="edge">
<title>Node24&#45;&gt;Node32</title>
<g id="a_edge50_Node000024_Node000032"><a xlink:title=" ">
<path fill="none" stroke="#63b8ff" d="M312.31,-331.1C276.53,-315.74 204.39,-282.1 152.25,-240.25 135.41,-226.73 119.51,-207.77 108.98,-194.03"/>
<polygon fill="#63b8ff" stroke="#63b8ff" points="112.02,-192.24 103.24,-186.3 106.4,-196.42 112.02,-192.24"/>
</a>
</g>
</g>
<!-- Node33 -->
<g id="Node000033" class="node">
<title>Node33</title>
<g id="a_Node000033"><a xlink:href="_signal_8hh.html" target="_top" xlink:title=" ">
<polygon fill="white" stroke="#666666" points="56.5,-185 0,-185 0,-165.75 56.5,-165.75 56.5,-185"/>
<text xml:space="preserve" text-anchor="middle" x="28.25" y="-171.5" font-family="Helvetica,sans-Serif" font-size="10.00">Signal.hh</text>
</a>
</g>
</g>
<!-- Node24&#45;&gt;Node33 -->
<g id="edge49_Node000024_Node000033" class="edge">
<title>Node24&#45;&gt;Node33</title>
<g id="a_edge49_Node000024_Node000033"><a xlink:title=" ">
<path fill="none" stroke="#63b8ff" d="M298.4,-331.03C248.72,-317.21 157.68,-287.45 92.25,-240.25 73.42,-226.67 54.99,-207.46 42.78,-193.67"/>
<polygon fill="#63b8ff" stroke="#63b8ff" points="45.57,-191.54 36.38,-186.26 40.27,-196.11 45.57,-191.54"/>
</a>
</g>
</g>
<!-- Node25&#45;&gt;Node4 -->
<g id="edge47_Node000025_Node000004" class="edge">
<title>Node25&#45;&gt;Node4</title>
<g id="a_edge47_Node000025_Node000004"><a xlink:title=" ">
<path fill="none" stroke="#63b8ff" d="M366.93,-277.47C407.27,-268.33 476.18,-252.71 522.21,-242.28"/>
<polygon fill="#63b8ff" stroke="#63b8ff" points="522.94,-245.71 531.91,-240.09 521.39,-238.88 522.94,-245.71"/>
</a>
</g>
</g>
<!-- Node25&#45;&gt;Node7 -->
<g id="edge39_Node000025_Node000007" class="edge">
<title>Node25&#45;&gt;Node7</title>
<g id="a_edge39_Node000025_Node000007"><a xlink:title=" ">
<path fill="none" stroke="#63b8ff" d="M361.26,-275.78C384.89,-267.49 419.94,-254.41 449.25,-240.25 479.8,-225.49 513.23,-205.24 534.9,-191.53"/>
<polygon fill="#63b8ff" stroke="#63b8ff" points="536.71,-194.53 543.26,-186.19 532.95,-188.63 536.71,-194.53"/>
</a>
</g>
</g>
<!-- Node25&#45;&gt;Node8 -->
<g id="edge35_Node000025_Node000008" class="edge">
<title>Node25&#45;&gt;Node8</title>
<g id="a_edge35_Node000025_Node000008"><a xlink:title=" ">
<path fill="none" stroke="#63b8ff" d="M301.66,-283.89C270.63,-281.01 225.49,-271.31 203.25,-240.25 165.54,-187.56 231.83,-114.78 266.34,-82.47"/>
<polygon fill="#63b8ff" stroke="#63b8ff" points="268.58,-85.17 273.61,-75.84 263.86,-79.99 268.58,-85.17"/>
</a>
</g>
</g>
<!-- Node26 -->
<g id="Node000026" class="node">
<title>Node26</title>
<g id="a_Node000026"><a xlink:title=" ">
<polygon fill="#e0e0e0" stroke="#999999" points="155.25,-129.75 61.25,-129.75 61.25,-110.5 155.25,-110.5 155.25,-129.75"/>
<text xml:space="preserve" text-anchor="middle" x="108.25" y="-116.25" font-family="Helvetica,sans-Serif" font-size="10.00">condition_variable</text>
</a>
</g>
</g>
<!-- Node25&#45;&gt;Node26 -->
<g id="edge32_Node000025_Node000026" class="edge">
<title>Node25&#45;&gt;Node26</title>
<g id="a_edge32_Node000025_Node000026"><a xlink:title=" ">
<path fill="none" stroke="#63b8ff" d="M301.51,-283.58C265.68,-280.57 208.28,-270.89 170.25,-240.25 153.5,-226.75 128.69,-170.83 116.14,-140.65"/>
<polygon fill="#63b8ff" stroke="#63b8ff" points="119.44,-139.48 112.41,-131.55 112.96,-142.13 119.44,-139.48"/>
</a>
</g>
</g>
<!-- Node27 -->
<g id="Node000027" class="node">
<title>Node27</title>
<g id="a_Node000027"><a xlink:title=" ">
<polygon fill="#e0e0e0" stroke="#999999" points="354,-185 276.5,-185 276.5,-165.75 354,-165.75 354,-185"/>
<text xml:space="preserve" text-anchor="middle" x="315.25" y="-171.5" font-family="Helvetica,sans-Serif" font-size="10.00">unordered_set</text>
</a>
</g>
</g>
<!-- Node25&#45;&gt;Node27 -->
<g id="edge33_Node000025_Node000027" class="edge">
<title>Node25&#45;&gt;Node27</title>
<g id="a_edge33_Node000025_Node000027"><a xlink:title=" ">
<path fill="none" stroke="#63b8ff" d="M332.7,-276C329.68,-258.75 322.95,-220.33 318.79,-196.56"/>
<polygon fill="#63b8ff" stroke="#63b8ff" points="322.26,-196.11 317.09,-186.87 315.36,-197.32 322.26,-196.11"/>
</a>
</g>
</g>
<!-- Node28 -->
<g id="Node000028" class="node">
<title>Node28</title>
<g id="a_Node000028"><a xlink:title=" ">
<polygon fill="#e0e0e0" stroke="#999999" points="440,-240.25 410.5,-240.25 410.5,-221 440,-221 440,-240.25"/>
<text xml:space="preserve" text-anchor="middle" x="425.25" y="-226.75" font-family="Helvetica,sans-Serif" font-size="10.00">set</text>
</a>
</g>
</g>
<!-- Node25&#45;&gt;Node28 -->
<g id="edge34_Node000025_Node000028" class="edge">
<title>Node25&#45;&gt;Node28</title>
<g id="a_edge34_Node000025_Node000028"><a xlink:title=" ">
<path fill="none" stroke="#63b8ff" d="M349.69,-275.84C363.5,-267.76 384,-255.77 400.16,-246.31"/>
<polygon fill="#63b8ff" stroke="#63b8ff" points="401.87,-249.36 408.73,-241.29 398.34,-243.32 401.87,-249.36"/>
</a>
</g>
</g>
<!-- Node29 -->
<g id="Node000029" class="node">
<title>Node29</title>
<g id="a_Node000029"><a xlink:href="_glob_8hh.html" target="_top" xlink:title=" ">
<polygon fill="white" stroke="#666666" points="392.12,-240.25 342.38,-240.25 342.38,-221 392.12,-221 392.12,-240.25"/>
<text xml:space="preserve" text-anchor="middle" x="367.25" y="-226.75" font-family="Helvetica,sans-Serif" font-size="10.00">Glob.hh</text>
</a>
</g>
</g>
<!-- Node25&#45;&gt;Node29 -->
<g id="edge36_Node000025_Node000029" class="edge">
<title>Node25&#45;&gt;Node29</title>
<g id="a_edge36_Node000025_Node000029"><a xlink:title=" ">
<path fill="none" stroke="#63b8ff" d="M339.7,-276.08C344.02,-269.11 350.21,-259.12 355.63,-250.37"/>
<polygon fill="#63b8ff" stroke="#63b8ff" points="358.59,-252.24 360.89,-241.9 352.64,-248.55 358.59,-252.24"/>
</a>
</g>
</g>
<!-- Node31 -->
<g id="Node000031" class="node">
<title>Node31</title>
<g id="a_Node000031"><a xlink:href="_debounce_8hh.html" target="_top" xlink:title=" ">
<polygon fill="white" stroke="#666666" points="286.12,-240.25 212.38,-240.25 212.38,-221 286.12,-221 286.12,-240.25"/>
<text xml:space="preserve" text-anchor="middle" x="249.25" y="-226.75" font-family="Helvetica,sans-Serif" font-size="10.00">Debounce.hh</text>
</a>
</g>
</g>
<!-- Node25&#45;&gt;Node31 -->
<g id="edge40_Node000025_Node000031" class="edge">
<title>Node25&#45;&gt;Node31</title>
<g id="a_edge40_Node000025_Node000031"><a xlink:title=" ">
<path fill="none" stroke="#63b8ff" d="M319.83,-275.84C307.13,-267.89 288.38,-256.14 273.39,-246.75"/>
<polygon fill="#63b8ff" stroke="#63b8ff" points="275.35,-243.85 265.02,-241.51 271.64,-249.78 275.35,-243.85"/>
</a>
</g>
</g>
<!-- Node25&#45;&gt;Node33 -->
<g id="edge48_Node000025_Node000033" class="edge">
<title>Node25&#45;&gt;Node33</title>
<g id="a_edge48_Node000025_Node000033"><a xlink:title=" ">
<path fill="none" stroke="#63b8ff" d="M301.42,-281.04C260.61,-275.51 189.36,-263.33 132.25,-240.25 101.5,-227.82 69.46,-206.71 49.22,-192.18"/>
<polygon fill="#63b8ff" stroke="#63b8ff" points="51.39,-189.43 41.25,-186.34 47.25,-195.07 51.39,-189.43"/>
</a>
</g>
</g>
<!-- Node29&#45;&gt;Node27 -->
<g id="edge37_Node000029_Node000027" class="edge">
<title>Node29&#45;&gt;Node27</title>
<g id="a_edge37_Node000029_Node000027"><a xlink:title=" ">
<path fill="none" stroke="#63b8ff" d="M358.66,-220.83C351.41,-213.4 340.8,-202.54 331.88,-193.41"/>
<polygon fill="#63b8ff" stroke="#63b8ff" points="334.57,-191.15 325.08,-186.44 329.56,-196.04 334.57,-191.15"/>
</a>
</g>
</g>
<!-- Node30 -->
<g id="Node000030" class="node">
<title>Node30</title>
<g id="a_Node000030"><a xlink:title=" ">
<polygon fill="#e0e0e0" stroke="#999999" points="512.25,-185 472.25,-185 472.25,-165.75 512.25,-165.75 512.25,-185"/>
<text xml:space="preserve" text-anchor="middle" x="492.25" y="-171.5" font-family="Helvetica,sans-Serif" font-size="10.00">regex</text>
</a>
</g>
</g>
<!-- Node29&#45;&gt;Node30 -->
<g id="edge38_Node000029_Node000030" class="edge">
<title>Node29&#45;&gt;Node30</title>
<g id="a_edge38_Node000029_Node000030"><a xlink:title=" ">
<path fill="none" stroke="#63b8ff" d="M388.45,-220.59C408.45,-212.07 438.65,-199.21 461.32,-189.55"/>
<polygon fill="#63b8ff" stroke="#63b8ff" points="462.55,-192.83 470.38,-185.69 459.81,-186.39 462.55,-192.83"/>
</a>
</g>
</g>
<!-- Node31&#45;&gt;Node5 -->
<g id="edge42_Node000031_Node000005" class="edge">
<title>Node31&#45;&gt;Node5</title>
<g id="a_edge42_Node000031_Node000005"><a xlink:title=" ">
<path fill="none" stroke="#63b8ff" d="M277.07,-220.59C303.81,-211.91 344.47,-198.71 374.4,-188.99"/>
<polygon fill="#63b8ff" stroke="#63b8ff" points="375.42,-192.34 383.85,-185.92 373.26,-185.68 375.42,-192.34"/>
</a>
</g>
</g>
<!-- Node31&#45;&gt;Node11 -->
<g id="edge43_Node000031_Node000011" class="edge">
<title>Node31&#45;&gt;Node11</title>
<g id="a_edge43_Node000031_Node000011"><a xlink:title=" ">
<path fill="none" stroke="#63b8ff" d="M250.33,-220.83C252.2,-208 256.9,-183.72 267.25,-165.75 287.01,-131.45 321.19,-100.16 343.24,-82.07"/>
<polygon fill="#63b8ff" stroke="#63b8ff" points="345.35,-84.86 350.97,-75.88 340.98,-79.4 345.35,-84.86"/>
</a>
</g>
</g>
<!-- Node31&#45;&gt;Node32 -->
<g id="edge41_Node000031_Node000032" class="edge">
<title>Node31&#45;&gt;Node32</title>
<g id="a_edge41_Node000031_Node000032"><a xlink:title=" ">
<path fill="none" stroke="#63b8ff" d="M223.3,-220.59C197.1,-211.48 156.6,-197.38 128.39,-187.56"/>
<polygon fill="#63b8ff" stroke="#63b8ff" points="129.9,-184.38 119.3,-184.4 127.6,-190.99 129.9,-184.38"/>
</a>
</g>
</g>
<!-- Node31&#45;&gt;Node33 -->
<g id="edge44_Node000031_Node000033" class="edge">
<title>Node31&#45;&gt;Node33</title>
<g id="a_edge44_Node000031_Node000033"><a xlink:title=" ">
<path fill="none" stroke="#63b8ff" d="M212.26,-220.71C172.36,-211.1 109.06,-195.85 68.09,-185.97"/>
<polygon fill="#63b8ff" stroke="#63b8ff" points="68.92,-182.57 58.38,-183.63 67.28,-189.38 68.92,-182.57"/>
</a>
</g>
</g>
<!-- Node33&#45;&gt;Node13 -->
<g id="edge45_Node000033_Node000013" class="edge">
<title>Node33&#45;&gt;Node13</title>
<g id="a_edge45_Node000033_Node000013"><a xlink:title=" ">
<path fill="none" stroke="#63b8ff" d="M29.06,-165.55C30.8,-151.77 36.15,-125.2 52.25,-110.5 87.86,-77.98 145.03,-68.85 181.07,-66.46"/>
<polygon fill="#63b8ff" stroke="#63b8ff" points="181.1,-69.97 190.91,-65.97 180.74,-62.98 181.1,-69.97"/>
</a>
</g>
</g>
<!-- Node33&#45;&gt;Node26 -->
<g id="edge46_Node000033_Node000026" class="edge">
<title>Node33&#45;&gt;Node26</title>
<g id="a_edge46_Node000033_Node000026"><a xlink:title=" ">
<path fill="none" stroke="#63b8ff" d="M41.82,-165.34C53.66,-157.46 71.09,-145.86 85.12,-136.52"/>
<polygon fill="#63b8ff" stroke="#63b8ff" points="86.97,-139.5 93.35,-131.04 83.09,-133.67 86.97,-139.5"/>
</a>
</g>
</g>
<!-- Node34&#45;&gt;Node23 -->
<g id="edge56_Node000034_Node000023" class="edge">
<title>Node34&#45;&gt;Node23</title>
<g id="a_edge56_Node000034_Node000023"><a xlink:title=" ">
<path fill="none" stroke="#63b8ff" d="M621.68,-441.59C589.82,-432.76 541.09,-419.24 505.89,-409.48"/>
<polygon fill="#63b8ff" stroke="#63b8ff" points="507.01,-406.16 496.44,-406.86 505.14,-412.9 507.01,-406.16"/>
</a>
</g>
</g>
<!-- Node35 -->
<g id="Node000035" class="node">
<title>Node35</title>
<g id="a_Node000035"><a xlink:title=" ">
<polygon fill="#e0e0e0" stroke="#999999" points="663,-406 597.5,-406 597.5,-386.75 663,-386.75 663,-406"/>
<text xml:space="preserve" text-anchor="middle" x="630.25" y="-392.5" font-family="Helvetica,sans-Serif" font-size="10.00">winsock2.h</text>
</a>
</g>
</g>
<!-- Node34&#45;&gt;Node35 -->
<g id="edge54_Node000034_Node000035" class="edge">
<title>Node34&#45;&gt;Node35</title>
<g id="a_edge54_Node000034_Node000035"><a xlink:title=" ">
<path fill="none" stroke="#63b8ff" d="M650.29,-441.83C647.21,-435.01 642.84,-425.31 638.96,-416.7"/>
<polygon fill="#63b8ff" stroke="#63b8ff" points="642.22,-415.42 634.92,-407.74 635.84,-418.29 642.22,-415.42"/>
</a>
</g>
</g>
<!-- Node36 -->
<g id="Node000036" class="node">
<title>Node36</title>
<g id="a_Node000036"><a xlink:title=" ">
<polygon fill="#e0e0e0" stroke="#999999" points="743.5,-406 681,-406 681,-386.75 743.5,-386.75 743.5,-406"/>
<text xml:space="preserve" text-anchor="middle" x="712.25" y="-392.5" font-family="Helvetica,sans-Serif" font-size="10.00">windows.h</text>
</a>
</g>
</g>
<!-- Node34&#45;&gt;Node36 -->
<g id="edge55_Node000034_Node000036" class="edge">
<title>Node34&#45;&gt;Node36</title>
<g id="a_edge55_Node000034_Node000036"><a xlink:title=" ">
<path fill="none" stroke="#63b8ff" d="M664.09,-441.59C672.3,-434.05 684.23,-423.1 694.16,-413.98"/>
<polygon fill="#63b8ff" stroke="#63b8ff" points="696.44,-416.64 701.44,-407.3 691.71,-411.48 696.44,-416.64"/>
</a>
</g>
</g>
<!-- Node37&#45;&gt;Node2 -->
<g id="edge58_Node000037_Node000002" class="edge">
<title>Node37&#45;&gt;Node2</title>
<g id="a_edge58_Node000037_Node000002"><a xlink:title=" ">
<path fill="none" stroke="#63b8ff" d="M766.95,-441.63C768.32,-423.05 771.25,-379.08 771.25,-342.12 771.25,-342.12 771.25,-342.12 771.25,-174.38 771.25,-140.57 752.09,-105.21 738.5,-84.38"/>
<polygon fill="#63b8ff" stroke="#63b8ff" points="741.42,-82.44 732.89,-76.15 735.63,-86.38 741.42,-82.44"/>
</a>
</g>
</g>
<!-- Node37&#45;&gt;Node36 -->
<g id="edge59_Node000037_Node000036" class="edge">
<title>Node37&#45;&gt;Node36</title>
<g id="a_edge59_Node000037_Node000036"><a xlink:title=" ">
<path fill="none" stroke="#63b8ff" d="M757.33,-441.83C749.8,-434.4 738.78,-423.54 729.52,-414.41"/>
<polygon fill="#63b8ff" stroke="#63b8ff" points="732.02,-411.95 722.44,-407.42 727.1,-416.94 732.02,-411.95"/>
</a>
</g>
</g>
</g>
</svg>

<g id="navigator" transform="translate(0 0)" fill="#404254">
  <rect fill="#f2f5e9" fill-opacity="0.5" stroke="#606060" stroke-width=".5" x="0" y="0" width="60" height="60"/>
  <use id="zoomplus" xlink:href="#zoomPlus" x="17" y="9" onmousedown="handleZoom(evt,'in')"/>
  <use id="zoomminus" xlink:href="#zoomMin" x="42" y="9" onmousedown="handleZoom(evt,'out')"/>
  <use id="reset" xlink:href="#resetDef" x="30" y="36" onmousedown="handleReset()"/>
   <use id="arrowup" xlink:href="#arrowUp" x="0" y="0" onmousedown="handlePan(0,-1)"/>
  <use id="arrowright" xlink:href="#arrowRight" x="0" y="0" onmousedown="handlePan(1,0)"/>
  <use id="arrowdown" xlink:href="#arrowDown" x="0" y="0" onmousedown="handlePan(0,1)"/>
  <use id="arrowleft" xlink:href="#arrowLeft" x="0" y="0" onmousedown="handlePan(-1,0)"/>
</g>
<svg viewBox="0 0 15 15" width="100%" height="30px" preserveAspectRatio="xMaxYMin meet">
 <g id="arrow_out" transform="scale(0.3 0.3)">
  <a xlink:href="_windows_backend_8cc__incl_org.svg" target="_base">
   <rect id="button" ry="5" rx="5" y="6" x="6" height="38" width="38"
        fill="#f2f5e9" fill-opacity="0.5" stroke="#606060" stroke-width="1.0"/>
   <path id="arrow"
     d="M 11.500037,31.436501 C 11.940474,20.09759 22.043105,11.32322 32.158766,21.979434 L 37.068811,17.246167 C 37.068811,17.246167 37.088388,32 37.088388,32 L 22.160133,31.978069 C 22.160133,31.978069 26.997745,27.140456 26.997745,27.140456 C 18.528582,18.264221 13.291696,25.230495 11.500037,31.436501 z"
     style="fill:#404040;"/>
  </a>
 </g>
</svg>

<style type='text/css'>
<![CDATA[
[data-mouse-over-selected='false'] { opacity: 0.7; }
[data-mouse-over-selected='true']  { opacity: 1.0; }
]]>
</style>
<script type="application/ecmascript"><![CDATA[
document.addEventListener('DOMContentLoaded', (event) => {
  highlightEdges();
  highlightAdjacentNodes();
});
]]></script>
</svg>
