<?xml version="1.0" encoding="UTF-8" standalone="no"?>
<!DOCTYPE svg PUBLIC "-//W3C//DTD SVG 1.1//EN"
 "http://www.w3.org/Graphics/SVG/1.1/DTD/svg11.dtd">
<!-- Generated by graphviz version 14.0.4 (20251115.1723)
 -->
<!-- Title: frontend/node_modules/@parcel/watcher/src/binding.cc Pages: 1 -->
<!--zoomable 437 -->

<svg id="main" version="1.1" xmlns="http://www.w3.org/2000/svg" xmlns:xlink="http://www.w3.org/1999/xlink" xml:space="preserve" onload="init(evt)">

<style type="text/css"><![CDATA[
.node, .edge {opacity: 0.7;}
.node.selected, .edge.selected {opacity: 1;}
.edge:hover path { stroke: red; }
.edge:hover polygon { stroke: red; fill: red; }
]]></style>

<defs>
  <circle id="rim" cx="0" cy="0" r="7"/>
  <circle id="rim2" cx="0" cy="0" r="3.5"/>
  <g id="zoomPlus">
    <use xlink:href="#rim" fill="#404040"><set attributeName="fill" to="#808080" begin="zoomplus.mouseover" end="zoomplus.mouseout"/></use>
    <path d="M-4,0h8M0,-4v8" fill="none" stroke="white" stroke-width="1.5" pointer-events="none"/>
  </g>
  <g id="zoomMin">
    <use xlink:href="#rim" fill="#404040"><set attributeName="fill" to="#808080" begin="zoomminus.mouseover" end="zoomminus.mouseout"/></use>
    <path d="M-4,0h8" fill="none" stroke="white" stroke-width="1.5" pointer-events="none"/>
  </g>
  <g id="arrowUp" transform="translate(30 24)">
    <use xlink:href="#rim"/>
    <path pointer-events="none" fill="none" stroke="white" stroke-width="1.5" d="M0,-3.0v7 M-2.5,-0.5L0,-3.0L2.5,-0.5"/>
  </g>
  <g id="arrowRight" transform="rotate(90) translate(36 -43)">
    <use xlink:href="#rim"/>
    <path pointer-events="none" fill="none" stroke="white" stroke-width="1.5" d="M0,-3.0v7 M-2.5,-0.5L0,-3.0L2.5,-0.5"/>
  </g>
  <g id="arrowDown" transform="rotate(180) translate(-30 -48)">
    <use xlink:href="#rim"/>
    <path pointer-events="none" fill="none" stroke="white" stroke-width="1.5" d="M0,-3.0v7 M-2.5,-0.5L0,-3.0L2.5,-0.5"/>
  </g>
  <g id="arrowLeft" transform="rotate(270) translate(-36 17)">
    <use xlink:href="#rim"/>
    <path pointer-events="none" fill="none" stroke="white" stroke-width="1.5" d="M0,-3.0v7 M-2.5,-0.5L0,-3.0L2.5,-0.5"/>
  </g>
  <g id="resetDef">
    <use xlink:href="#rim2" fill="#404040"><set attributeName="fill" to="#808080" begin="reset.mouseover" end="reset.mouseout"/></use>
  </g>
</defs>
<script type="application/ecmascript">
var viewWidth = 959;
var viewHeight = 437;
var sectionId = 'dynsection-0';
</script>
<script type="application/ecmascript" xlink:href="svg.min.js"/>
<svg id="graph" class="graph">
<g id="viewport">
<title>frontend/node_modules/@parcel/watcher/src/binding.cc</title>
<!-- Node1 -->
<g id="Node000001" class="node">
<title>Node1</title>
<g id="a_Node000001"><a xlink:title=" ">
<polygon fill="#999999" stroke="#666666" points="673.62,-428.5 556.38,-428.5 556.38,-386.75 673.62,-386.75 673.62,-428.5"/>
<text xml:space="preserve" text-anchor="start" x="564.38" y="-415" font-family="Helvetica,sans-Serif" font-size="10.00">frontend/node_modules</text>
<text xml:space="preserve" text-anchor="start" x="564.38" y="-403.75" font-family="Helvetica,sans-Serif" font-size="10.00">/@parcel/watcher/src</text>
<text xml:space="preserve" text-anchor="middle" x="615" y="-392.5" font-family="Helvetica,sans-Serif" font-size="10.00">/binding.cc</text>
</a>
</g>
</g>
<!-- Node2 -->
<g id="Node000002" class="node">
<title>Node2</title>
<g id="a_Node000002"><a xlink:title=" ">
<polygon fill="#e0e0e0" stroke="#999999" points="135.75,-185 58.25,-185 58.25,-165.75 135.75,-165.75 135.75,-185"/>
<text xml:space="preserve" text-anchor="middle" x="97" y="-171.5" font-family="Helvetica,sans-Serif" font-size="10.00">unordered_set</text>
</a>
</g>
</g>
<!-- Node1&#45;&gt;Node2 -->
<g id="edge1_Node000001_Node000002" class="edge">
<title>Node1&#45;&gt;Node2</title>
<g id="a_edge1_Node000001_Node000002"><a xlink:title=" ">
<path fill="none" stroke="#63b8ff" d="M555.97,-403.72C470.28,-396.83 309.81,-373.64 201,-295.5 161.21,-266.93 126.37,-220.32 108.9,-194.69"/>
<polygon fill="#63b8ff" stroke="#63b8ff" points="112.01,-193.04 103.55,-186.66 106.18,-196.92 112.01,-193.04"/>
</a>
</g>
</g>
<!-- Node3 -->
<g id="Node000003" class="node">
<title>Node3</title>
<g id="a_Node000003"><a xlink:title=" ">
<polygon fill="#e0e0e0" stroke="#999999" points="883.62,-74.5 820.38,-74.5 820.38,-55.25 883.62,-55.25 883.62,-74.5"/>
<text xml:space="preserve" text-anchor="middle" x="852" y="-61" font-family="Helvetica,sans-Serif" font-size="10.00">node_api.h</text>
</a>
</g>
</g>
<!-- Node1&#45;&gt;Node3 -->
<g id="edge2_Node000001_Node000003" class="edge">
<title>Node1&#45;&gt;Node3</title>
<g id="a_edge2_Node000001_Node000003"><a xlink:title=" ">
<path fill="none" stroke="#63b8ff" d="M673.91,-398.03C770.27,-382.28 951,-345.01 951,-286.88 951,-286.88 951,-286.88 951,-174.38 951,-131.72 908.73,-98.48 879.43,-80.57"/>
<polygon fill="#63b8ff" stroke="#63b8ff" points="881.41,-77.67 871.01,-75.64 877.87,-83.71 881.41,-77.67"/>
</a>
</g>
</g>
<!-- Node4 -->
<g id="Node000004" class="node">
<title>Node4</title>
<g id="a_Node000004"><a xlink:href="include_8h.html" target="_top" xlink:title=" ">
<polygon fill="white" stroke="#666666" points="885.12,-129.75 800.88,-129.75 800.88,-110.5 885.12,-110.5 885.12,-129.75"/>
<text xml:space="preserve" text-anchor="middle" x="843" y="-116.25" font-family="Helvetica,sans-Serif" font-size="10.00">wasm/include.h</text>
</a>
</g>
</g>
<!-- Node1&#45;&gt;Node4 -->
<g id="edge3_Node000001_Node000004" class="edge">
<title>Node1&#45;&gt;Node4</title>
<g id="a_edge3_Node000001_Node000004"><a xlink:title=" ">
<path fill="none" stroke="#63b8ff" d="M674.01,-401.03C741.57,-391 843,-363.22 843,-286.88 843,-286.88 843,-286.88 843,-229.62 843,-198.91 843,-163.3 843,-141.49"/>
<polygon fill="#63b8ff" stroke="#63b8ff" points="846.5,-141.64 843,-131.64 839.5,-141.64 846.5,-141.64"/>
</a>
</g>
</g>
<!-- Node5 -->
<g id="Node000005" class="node">
<title>Node5</title>
<g id="a_Node000005"><a xlink:href="napi_8h.html" target="_top" xlink:title=" ">
<polygon fill="white" stroke="#666666" points="707.12,-129.75 664.88,-129.75 664.88,-110.5 707.12,-110.5 707.12,-129.75"/>
<text xml:space="preserve" text-anchor="middle" x="686" y="-116.25" font-family="Helvetica,sans-Serif" font-size="10.00">napi.h</text>
</a>
</g>
</g>
<!-- Node1&#45;&gt;Node5 -->
<g id="edge4_Node000001_Node000005" class="edge">
<title>Node1&#45;&gt;Node5</title>
<g id="a_edge4_Node000001_Node000005"><a xlink:title=" ">
<path fill="none" stroke="#63b8ff" d="M619.99,-386.55C633.03,-334.14 667.97,-193.61 681.01,-141.2"/>
<polygon fill="#63b8ff" stroke="#63b8ff" points="684.38,-142.15 683.4,-131.6 677.59,-140.46 684.38,-142.15"/>
</a>
</g>
</g>
<!-- Node18 -->
<g id="Node000018" class="node">
<title>Node18</title>
<g id="a_Node000018"><a xlink:href="_glob_8hh.html" target="_top" xlink:title=" ">
<polygon fill="white" stroke="#666666" points="62.88,-240.25 13.12,-240.25 13.12,-221 62.88,-221 62.88,-240.25"/>
<text xml:space="preserve" text-anchor="middle" x="38" y="-226.75" font-family="Helvetica,sans-Serif" font-size="10.00">Glob.hh</text>
</a>
</g>
</g>
<!-- Node1&#45;&gt;Node18 -->
<g id="edge18_Node000001_Node000018" class="edge">
<title>Node1&#45;&gt;Node18</title>
<g id="a_edge18_Node000001_Node000018"><a xlink:title=" ">
<path fill="none" stroke="#63b8ff" d="M556.26,-404.1C424.44,-397.93 113.72,-380.38 77,-350.75 47.03,-326.57 39.86,-278.89 38.29,-251.76"/>
<polygon fill="#63b8ff" stroke="#63b8ff" points="41.8,-251.97 37.95,-242.1 34.8,-252.22 41.8,-251.97"/>
</a>
</g>
</g>
<!-- Node20 -->
<g id="Node000020" class="node">
<title>Node20</title>
<g id="a_Node000020"><a xlink:href="_event_8hh.html" target="_top" xlink:title=" ">
<polygon fill="white" stroke="#666666" points="604.5,-185 549.5,-185 549.5,-165.75 604.5,-165.75 604.5,-185"/>
<text xml:space="preserve" text-anchor="middle" x="577" y="-171.5" font-family="Helvetica,sans-Serif" font-size="10.00">Event.hh</text>
</a>
</g>
</g>
<!-- Node1&#45;&gt;Node20 -->
<g id="edge21_Node000001_Node000020" class="edge">
<title>Node1&#45;&gt;Node20</title>
<g id="a_edge21_Node000001_Node000020"><a xlink:title=" ">
<path fill="none" stroke="#63b8ff" d="M611.69,-386.59C604.51,-343.07 587.55,-240.28 580.34,-196.59"/>
<polygon fill="#63b8ff" stroke="#63b8ff" points="583.8,-196.07 578.72,-186.77 576.89,-197.21 583.8,-196.07"/>
</a>
</g>
</g>
<!-- Node23 -->
<g id="Node000023" class="node">
<title>Node23</title>
<g id="a_Node000023"><a xlink:href="_backend_8hh.html" target="_top" xlink:title=" ">
<polygon fill="white" stroke="#666666" points="454.88,-350.75 387.12,-350.75 387.12,-331.5 454.88,-331.5 454.88,-350.75"/>
<text xml:space="preserve" text-anchor="middle" x="421" y="-337.25" font-family="Helvetica,sans-Serif" font-size="10.00">Backend.hh</text>
</a>
</g>
</g>
<!-- Node1&#45;&gt;Node23 -->
<g id="edge29_Node000001_Node000023" class="edge">
<title>Node1&#45;&gt;Node23</title>
<g id="a_edge29_Node000001_Node000023"><a xlink:title=" ">
<path fill="none" stroke="#63b8ff" d="M556,-387.01C524.55,-376.55 486.77,-363.99 459.18,-354.82"/>
<polygon fill="#63b8ff" stroke="#63b8ff" points="460.44,-351.55 449.84,-351.71 458.23,-358.19 460.44,-351.55"/>
</a>
</g>
</g>
<!-- Node24 -->
<g id="Node000024" class="node">
<title>Node24</title>
<g id="a_Node000024"><a xlink:href="_watcher_8hh.html" target="_top" xlink:title=" ">
<polygon fill="white" stroke="#666666" points="274.38,-295.5 209.62,-295.5 209.62,-276.25 274.38,-276.25 274.38,-295.5"/>
<text xml:space="preserve" text-anchor="middle" x="242" y="-282" font-family="Helvetica,sans-Serif" font-size="10.00">Watcher.hh</text>
</a>
</g>
</g>
<!-- Node1&#45;&gt;Node24 -->
<g id="edge53_Node000001_Node000024" class="edge">
<title>Node1&#45;&gt;Node24</title>
<g id="a_edge53_Node000001_Node000024"><a xlink:title=" ">
<path fill="none" stroke="#63b8ff" d="M556.08,-396.27C507.53,-386.9 437.28,-371.41 378,-350.75 338.6,-337.02 295.34,-315.51 268.42,-301.3"/>
<polygon fill="#63b8ff" stroke="#63b8ff" points="270.09,-298.22 259.62,-296.6 266.79,-304.4 270.09,-298.22"/>
</a>
</g>
</g>
<!-- Node32 -->
<g id="Node000032" class="node">
<title>Node32</title>
<g id="a_Node000032"><a xlink:href="_promise_runner_8hh.html" target="_top" xlink:title=" ">
<polygon fill="white" stroke="#666666" points="815.12,-185 718.88,-185 718.88,-165.75 815.12,-165.75 815.12,-185"/>
<text xml:space="preserve" text-anchor="middle" x="767" y="-171.5" font-family="Helvetica,sans-Serif" font-size="10.00">PromiseRunner.hh</text>
</a>
</g>
</g>
<!-- Node1&#45;&gt;Node32 -->
<g id="edge54_Node000001_Node000032" class="edge">
<title>Node1&#45;&gt;Node32</title>
<g id="a_edge54_Node000001_Node000032"><a xlink:title=" ">
<path fill="none" stroke="#63b8ff" d="M628.22,-386.59C657.39,-342.42 726.86,-237.17 754.93,-194.66"/>
<polygon fill="#63b8ff" stroke="#63b8ff" points="757.7,-196.81 760.29,-186.54 751.86,-192.96 757.7,-196.81"/>
</a>
</g>
</g>
<!-- Node5&#45;&gt;Node3 -->
<g id="edge5_Node000005_Node000003" class="edge">
<title>Node5&#45;&gt;Node3</title>
<g id="a_edge5_Node000005_Node000003"><a xlink:title=" ">
<path fill="none" stroke="#63b8ff" d="M707.36,-112.27C734.03,-103.72 780.15,-88.92 813.15,-78.34"/>
<polygon fill="#63b8ff" stroke="#63b8ff" points="813.89,-81.77 822.35,-75.39 811.75,-75.11 813.89,-81.77"/>
</a>
</g>
</g>
<!-- Node6 -->
<g id="Node000006" class="node">
<title>Node6</title>
<g id="a_Node000006"><a xlink:title=" ">
<polygon fill="#e0e0e0" stroke="#999999" points="441,-74.5 383,-74.5 383,-55.25 441,-55.25 441,-74.5"/>
<text xml:space="preserve" text-anchor="middle" x="412" y="-61" font-family="Helvetica,sans-Serif" font-size="10.00">functional</text>
</a>
</g>
</g>
<!-- Node5&#45;&gt;Node6 -->
<g id="edge6_Node000005_Node000006" class="edge">
<title>Node5&#45;&gt;Node6</title>
<g id="a_edge6_Node000005_Node000006"><a xlink:title=" ">
<path fill="none" stroke="#63b8ff" d="M664.39,-112.82C661.25,-111.99 658.05,-111.19 655,-110.5 568.21,-90.86 542.62,-92.57 452.45,-74.9"/>
<polygon fill="#63b8ff" stroke="#63b8ff" points="453.4,-71.52 442.91,-73 452.04,-78.38 453.4,-71.52"/>
</a>
</g>
</g>
<!-- Node7 -->
<g id="Node000007" class="node">
<title>Node7</title>
<g id="a_Node000007"><a xlink:title=" ">
<polygon fill="#e0e0e0" stroke="#999999" points="802.12,-74.5 729.88,-74.5 729.88,-55.25 802.12,-55.25 802.12,-74.5"/>
<text xml:space="preserve" text-anchor="middle" x="766" y="-61" font-family="Helvetica,sans-Serif" font-size="10.00">initializer_list</text>
</a>
</g>
</g>
<!-- Node5&#45;&gt;Node7 -->
<g id="edge7_Node000005_Node000007" class="edge">
<title>Node5&#45;&gt;Node7</title>
<g id="a_edge7_Node000005_Node000007"><a xlink:title=" ">
<path fill="none" stroke="#63b8ff" d="M699.57,-110.09C711.41,-102.21 728.84,-90.61 742.87,-81.27"/>
<polygon fill="#63b8ff" stroke="#63b8ff" points="744.72,-84.25 751.1,-75.79 740.84,-78.42 744.72,-84.25"/>
</a>
</g>
</g>
<!-- Node8 -->
<g id="Node000008" class="node">
<title>Node8</title>
<g id="a_Node000008"><a xlink:title=" ">
<polygon fill="#e0e0e0" stroke="#999999" points="574.62,-74.5 523.38,-74.5 523.38,-55.25 574.62,-55.25 574.62,-74.5"/>
<text xml:space="preserve" text-anchor="middle" x="549" y="-61" font-family="Helvetica,sans-Serif" font-size="10.00">memory</text>
</a>
</g>
</g>
<!-- Node5&#45;&gt;Node8 -->
<g id="edge8_Node000005_Node000008" class="edge">
<title>Node5&#45;&gt;Node8</title>
<g id="a_edge8_Node000005_Node000008"><a xlink:title=" ">
<path fill="none" stroke="#63b8ff" d="M664.59,-110.8C642.7,-102.29 608.36,-88.95 582.79,-79.01"/>
<polygon fill="#63b8ff" stroke="#63b8ff" points="584.08,-75.76 573.5,-75.4 581.55,-82.28 584.08,-75.76"/>
</a>
</g>
</g>
<!-- Node9 -->
<g id="Node000009" class="node">
<title>Node9</title>
<g id="a_Node000009"><a xlink:title=" ">
<polygon fill="#e0e0e0" stroke="#999999" points="364.5,-74.5 321.5,-74.5 321.5,-55.25 364.5,-55.25 364.5,-74.5"/>
<text xml:space="preserve" text-anchor="middle" x="343" y="-61" font-family="Helvetica,sans-Serif" font-size="10.00">mutex</text>
</a>
</g>
</g>
<!-- Node5&#45;&gt;Node9 -->
<g id="edge9_Node000005_Node000009" class="edge">
<title>Node5&#45;&gt;Node9</title>
<g id="a_edge9_Node000005_Node000009"><a xlink:title=" ">
<path fill="none" stroke="#63b8ff" d="M664.42,-112.69C661.27,-111.88 658.07,-111.12 655,-110.5 535.08,-86.27 499.42,-98.68 375.95,-74.6"/>
<polygon fill="#63b8ff" stroke="#63b8ff" points="376.9,-71.22 366.41,-72.69 375.53,-78.08 376.9,-71.22"/>
</a>
</g>
</g>
<!-- Node10 -->
<g id="Node000010" class="node">
<title>Node10</title>
<g id="a_Node000010"><a xlink:title=" ">
<polygon fill="#e0e0e0" stroke="#999999" points="499,-74.5 459,-74.5 459,-55.25 499,-55.25 499,-74.5"/>
<text xml:space="preserve" text-anchor="middle" x="479" y="-61" font-family="Helvetica,sans-Serif" font-size="10.00">string</text>
</a>
</g>
</g>
<!-- Node5&#45;&gt;Node10 -->
<g id="edge10_Node000005_Node000010" class="edge">
<title>Node5&#45;&gt;Node10</title>
<g id="a_edge10_Node000005_Node000010"><a xlink:title=" ">
<path fill="none" stroke="#63b8ff" d="M664.67,-113.12C661.44,-112.23 658.13,-111.33 655,-110.5 604.5,-97.08 545.61,-82.33 510.36,-73.6"/>
<polygon fill="#63b8ff" stroke="#63b8ff" points="511.38,-70.24 500.83,-71.24 509.7,-77.04 511.38,-70.24"/>
</a>
</g>
</g>
<!-- Node11 -->
<g id="Node000011" class="node">
<title>Node11</title>
<g id="a_Node000011"><a xlink:title=" ">
<polygon fill="#e0e0e0" stroke="#999999" points="638.5,-74.5 595.5,-74.5 595.5,-55.25 638.5,-55.25 638.5,-74.5"/>
<text xml:space="preserve" text-anchor="middle" x="617" y="-61" font-family="Helvetica,sans-Serif" font-size="10.00">vector</text>
</a>
</g>
</g>
<!-- Node5&#45;&gt;Node11 -->
<g id="edge11_Node000005_Node000011" class="edge">
<title>Node5&#45;&gt;Node11</title>
<g id="a_edge11_Node000005_Node000011"><a xlink:title=" ">
<path fill="none" stroke="#63b8ff" d="M674.3,-110.09C664.22,-102.32 649.46,-90.92 637.44,-81.65"/>
<polygon fill="#63b8ff" stroke="#63b8ff" points="639.79,-79.04 629.73,-75.7 635.51,-84.58 639.79,-79.04"/>
</a>
</g>
</g>
<!-- Node12 -->
<g id="Node000012" class="node">
<title>Node12</title>
<g id="a_Node000012"><a xlink:href="napi-inl_8h.html" target="_top" xlink:title=" ">
<polygon fill="white" stroke="#666666" points="711.5,-74.5 656.5,-74.5 656.5,-55.25 711.5,-55.25 711.5,-74.5"/>
<text xml:space="preserve" text-anchor="middle" x="684" y="-61" font-family="Helvetica,sans-Serif" font-size="10.00">napi&#45;inl.h</text>
</a>
</g>
</g>
<!-- Node5&#45;&gt;Node12 -->
<g id="edge12_Node000005_Node000012" class="edge">
<title>Node5&#45;&gt;Node12</title>
<g id="a_edge12_Node000005_Node000012"><a xlink:title=" ">
<path fill="none" stroke="#63b8ff" d="M685.67,-110.33C685.42,-103.74 685.07,-94.46 684.76,-86.07"/>
<polygon fill="#63b8ff" stroke="#63b8ff" points="688.27,-86.23 684.39,-76.37 681.27,-86.5 688.27,-86.23"/>
</a>
</g>
</g>
<!-- Node13 -->
<g id="Node000013" class="node">
<title>Node13</title>
<g id="a_Node000013"><a xlink:title=" ">
<polygon fill="#e0e0e0" stroke="#999999" points="570.88,-19.25 515.12,-19.25 515.12,0 570.88,0 570.88,-19.25"/>
<text xml:space="preserve" text-anchor="middle" x="543" y="-5.75" font-family="Helvetica,sans-Serif" font-size="10.00">algorithm</text>
</a>
</g>
</g>
<!-- Node12&#45;&gt;Node13 -->
<g id="edge13_Node000012_Node000013" class="edge">
<title>Node12&#45;&gt;Node13</title>
<g id="a_edge13_Node000012_Node000013"><a xlink:title=" ">
<path fill="none" stroke="#63b8ff" d="M660.08,-54.84C637.5,-46.31 603.36,-33.42 577.77,-23.76"/>
<polygon fill="#63b8ff" stroke="#63b8ff" points="579.04,-20.5 568.45,-20.24 576.57,-27.04 579.04,-20.5"/>
</a>
</g>
</g>
<!-- Node14 -->
<g id="Node000014" class="node">
<title>Node14</title>
<g id="a_Node000014"><a xlink:title=" ">
<polygon fill="#e0e0e0" stroke="#999999" points="634.62,-19.25 589.38,-19.25 589.38,0 634.62,0 634.62,-19.25"/>
<text xml:space="preserve" text-anchor="middle" x="612" y="-5.75" font-family="Helvetica,sans-Serif" font-size="10.00">cstring</text>
</a>
</g>
</g>
<!-- Node12&#45;&gt;Node14 -->
<g id="edge14_Node000012_Node000014" class="edge">
<title>Node12&#45;&gt;Node14</title>
<g id="a_edge14_Node000012_Node000014"><a xlink:title=" ">
<path fill="none" stroke="#63b8ff" d="M671.79,-54.84C661.17,-46.99 645.56,-35.45 632.96,-26.12"/>
<polygon fill="#63b8ff" stroke="#63b8ff" points="635.37,-23.56 625.25,-20.42 631.21,-29.19 635.37,-23.56"/>
</a>
</g>
</g>
<!-- Node15 -->
<g id="Node000015" class="node">
<title>Node15</title>
<g id="a_Node000015"><a xlink:title=" ">
<polygon fill="#e0e0e0" stroke="#999999" points="714.88,-19.25 653.12,-19.25 653.12,0 714.88,0 714.88,-19.25"/>
<text xml:space="preserve" text-anchor="middle" x="684" y="-5.75" font-family="Helvetica,sans-Serif" font-size="10.00">type_traits</text>
</a>
</g>
</g>
<!-- Node12&#45;&gt;Node15 -->
<g id="edge15_Node000012_Node000015" class="edge">
<title>Node12&#45;&gt;Node15</title>
<g id="a_edge15_Node000012_Node000015"><a xlink:title=" ">
<path fill="none" stroke="#63b8ff" d="M684,-55.08C684,-48.57 684,-39.42 684,-31.12"/>
<polygon fill="#63b8ff" stroke="#63b8ff" points="687.5,-31.12 684,-21.12 680.5,-31.12 687.5,-31.12"/>
</a>
</g>
</g>
<!-- Node16 -->
<g id="Node000016" class="node">
<title>Node16</title>
<g id="a_Node000016"><a xlink:title=" ">
<polygon fill="#e0e0e0" stroke="#999999" points="772.62,-19.25 733.38,-19.25 733.38,0 772.62,0 772.62,-19.25"/>
<text xml:space="preserve" text-anchor="middle" x="753" y="-5.75" font-family="Helvetica,sans-Serif" font-size="10.00">utility</text>
</a>
</g>
</g>
<!-- Node12&#45;&gt;Node16 -->
<g id="edge16_Node000012_Node000016" class="edge">
<title>Node12&#45;&gt;Node16</title>
<g id="a_edge16_Node000012_Node000016"><a xlink:title=" ">
<path fill="none" stroke="#63b8ff" d="M695.7,-54.84C705.78,-47.07 720.54,-35.67 732.56,-26.4"/>
<polygon fill="#63b8ff" stroke="#63b8ff" points="734.49,-29.33 740.27,-20.45 730.21,-23.79 734.49,-29.33"/>
</a>
</g>
</g>
<!-- Node17 -->
<g id="Node000017" class="node">
<title>Node17</title>
<g id="a_Node000017"><a xlink:href="napi-inl_8deprecated_8h.html" target="_top" xlink:title=" ">
<polygon fill="white" stroke="#666666" points="897,-19.25 791,-19.25 791,0 897,0 897,-19.25"/>
<text xml:space="preserve" text-anchor="middle" x="844" y="-5.75" font-family="Helvetica,sans-Serif" font-size="10.00">napi&#45;inl.deprecated.h</text>
</a>
</g>
</g>
<!-- Node12&#45;&gt;Node17 -->
<g id="edge17_Node000012_Node000017" class="edge">
<title>Node12&#45;&gt;Node17</title>
<g id="a_edge17_Node000012_Node000017"><a xlink:title=" ">
<path fill="none" stroke="#63b8ff" d="M711.14,-54.84C737.23,-46.16 776.9,-32.96 806.1,-23.24"/>
<polygon fill="#63b8ff" stroke="#63b8ff" points="806.91,-26.66 815.29,-20.18 804.7,-20.02 806.91,-26.66"/>
</a>
</g>
</g>
<!-- Node18&#45;&gt;Node2 -->
<g id="edge19_Node000018_Node000002" class="edge">
<title>Node18&#45;&gt;Node2</title>
<g id="a_edge19_Node000018_Node000002"><a xlink:title=" ">
<path fill="none" stroke="#63b8ff" d="M48.01,-220.59C56.37,-213.05 68.5,-202.1 78.6,-192.98"/>
<polygon fill="#63b8ff" stroke="#63b8ff" points="80.94,-195.59 86.02,-186.29 76.25,-190.39 80.94,-195.59"/>
</a>
</g>
</g>
<!-- Node19 -->
<g id="Node000019" class="node">
<title>Node19</title>
<g id="a_Node000019"><a xlink:title=" ">
<polygon fill="#e0e0e0" stroke="#999999" points="40,-185 0,-185 0,-165.75 40,-165.75 40,-185"/>
<text xml:space="preserve" text-anchor="middle" x="20" y="-171.5" font-family="Helvetica,sans-Serif" font-size="10.00">regex</text>
</a>
</g>
</g>
<!-- Node18&#45;&gt;Node19 -->
<g id="edge20_Node000018_Node000019" class="edge">
<title>Node18&#45;&gt;Node19</title>
<g id="a_edge20_Node000018_Node000019"><a xlink:title=" ">
<path fill="none" stroke="#63b8ff" d="M35.03,-220.83C32.75,-214.09 29.51,-204.52 26.63,-195.99"/>
<polygon fill="#63b8ff" stroke="#63b8ff" points="30.04,-195.15 23.52,-186.79 23.41,-197.39 30.04,-195.15"/>
</a>
</g>
</g>
<!-- Node20&#45;&gt;Node3 -->
<g id="edge23_Node000020_Node000003" class="edge">
<title>Node20&#45;&gt;Node3</title>
<g id="a_edge23_Node000020_Node000003"><a xlink:title=" ">
<path fill="none" stroke="#63b8ff" d="M604.8,-166.6C633.12,-158.4 678.15,-144.64 716,-129.75 726.6,-125.58 786.1,-97.34 822.8,-79.83"/>
<polygon fill="#63b8ff" stroke="#63b8ff" points="824.05,-83.11 831.57,-75.65 821.04,-76.8 824.05,-83.11"/>
</a>
</g>
</g>
<!-- Node20&#45;&gt;Node4 -->
<g id="edge24_Node000020_Node000004" class="edge">
<title>Node20&#45;&gt;Node4</title>
<g id="a_edge24_Node000020_Node000004"><a xlink:title=" ">
<path fill="none" stroke="#63b8ff" d="M604.96,-168.78C648.64,-160.03 733.81,-142.98 789.54,-131.83"/>
<polygon fill="#63b8ff" stroke="#63b8ff" points="790.01,-135.3 799.13,-129.91 788.63,-128.44 790.01,-135.3"/>
</a>
</g>
</g>
<!-- Node20&#45;&gt;Node5 -->
<g id="edge25_Node000020_Node000005" class="edge">
<title>Node20&#45;&gt;Node5</title>
<g id="a_edge25_Node000020_Node000005"><a xlink:title=" ">
<path fill="none" stroke="#63b8ff" d="M595.49,-165.34C612.4,-157.08 637.69,-144.73 657.24,-135.18"/>
<polygon fill="#63b8ff" stroke="#63b8ff" points="658.61,-138.4 666.06,-130.87 655.54,-132.11 658.61,-138.4"/>
</a>
</g>
</g>
<!-- Node20&#45;&gt;Node9 -->
<g id="edge26_Node000020_Node000009" class="edge">
<title>Node20&#45;&gt;Node9</title>
<g id="a_edge26_Node000020_Node000009"><a xlink:title=" ">
<path fill="none" stroke="#63b8ff" d="M557.45,-165.31C516.5,-146.32 421.49,-102.27 372.85,-79.72"/>
<polygon fill="#63b8ff" stroke="#63b8ff" points="374.57,-76.66 364.03,-75.63 371.63,-83.01 374.57,-76.66"/>
</a>
</g>
</g>
<!-- Node20&#45;&gt;Node10 -->
<g id="edge22_Node000020_Node000010" class="edge">
<title>Node20&#45;&gt;Node10</title>
<g id="a_edge22_Node000020_Node000010"><a xlink:title=" ">
<path fill="none" stroke="#63b8ff" d="M568.54,-165.57C559.99,-156.63 546.45,-142.35 535,-129.75 520.8,-114.11 504.96,-95.98 493.76,-83.04"/>
<polygon fill="#63b8ff" stroke="#63b8ff" points="496.68,-81.07 487.5,-75.79 491.38,-85.64 496.68,-81.07"/>
</a>
</g>
</g>
<!-- Node21 -->
<g id="Node000021" class="node">
<title>Node21</title>
<g id="a_Node000021"><a xlink:title=" ">
<polygon fill="#e0e0e0" stroke="#999999" points="646.38,-129.75 611.62,-129.75 611.62,-110.5 646.38,-110.5 646.38,-129.75"/>
<text xml:space="preserve" text-anchor="middle" x="629" y="-116.25" font-family="Helvetica,sans-Serif" font-size="10.00">map</text>
</a>
</g>
</g>
<!-- Node20&#45;&gt;Node21 -->
<g id="edge27_Node000020_Node000021" class="edge">
<title>Node20&#45;&gt;Node21</title>
<g id="a_edge27_Node000020_Node000021"><a xlink:title=" ">
<path fill="none" stroke="#63b8ff" d="M585.59,-165.58C592.84,-158.15 603.45,-147.29 612.37,-138.16"/>
<polygon fill="#63b8ff" stroke="#63b8ff" points="614.69,-140.79 619.17,-131.19 609.68,-135.9 614.69,-140.79"/>
</a>
</g>
</g>
<!-- Node22 -->
<g id="Node000022" class="node">
<title>Node22</title>
<g id="a_Node000022"><a xlink:title=" ">
<polygon fill="#e0e0e0" stroke="#999999" points="593.88,-129.75 544.12,-129.75 544.12,-110.5 593.88,-110.5 593.88,-129.75"/>
<text xml:space="preserve" text-anchor="middle" x="569" y="-116.25" font-family="Helvetica,sans-Serif" font-size="10.00">optional</text>
</a>
</g>
</g>
<!-- Node20&#45;&gt;Node22 -->
<g id="edge28_Node000020_Node000022" class="edge">
<title>Node20&#45;&gt;Node22</title>
<g id="a_edge28_Node000020_Node000022"><a xlink:title=" ">
<path fill="none" stroke="#63b8ff" d="M575.68,-165.58C574.69,-158.99 573.29,-149.71 572.03,-141.32"/>
<polygon fill="#63b8ff" stroke="#63b8ff" points="575.52,-140.97 570.57,-131.61 568.6,-142.01 575.52,-140.97"/>
</a>
</g>
</g>
<!-- Node23&#45;&gt;Node20 -->
<g id="edge30_Node000023_Node000020" class="edge">
<title>Node23&#45;&gt;Node20</title>
<g id="a_edge30_Node000023_Node000020"><a xlink:title=" ">
<path fill="none" stroke="#63b8ff" d="M436.28,-331.11C461.82,-315.42 513.57,-280.83 546,-240.25 556.71,-226.84 564.94,-209.13 570.22,-195.76"/>
<polygon fill="#63b8ff" stroke="#63b8ff" points="573.36,-197.35 573.56,-186.76 566.8,-194.91 573.36,-197.35"/>
</a>
</g>
</g>
<!-- Node23&#45;&gt;Node24 -->
<g id="edge31_Node000023_Node000024" class="edge">
<title>Node23&#45;&gt;Node24</title>
<g id="a_edge31_Node000023_Node000024"><a xlink:title=" ">
<path fill="none" stroke="#63b8ff" d="M390.64,-331.09C361.19,-322.33 316.29,-308.98 283.54,-299.23"/>
<polygon fill="#63b8ff" stroke="#63b8ff" points="284.55,-295.88 273.96,-296.38 282.55,-302.59 284.55,-295.88"/>
</a>
</g>
</g>
<!-- Node28 -->
<g id="Node000028" class="node">
<title>Node28</title>
<g id="a_Node000028"><a xlink:title=" ">
<polygon fill="#e0e0e0" stroke="#999999" points="353.5,-185 310.5,-185 310.5,-165.75 353.5,-165.75 353.5,-185"/>
<text xml:space="preserve" text-anchor="middle" x="332" y="-171.5" font-family="Helvetica,sans-Serif" font-size="10.00">thread</text>
</a>
</g>
</g>
<!-- Node23&#45;&gt;Node28 -->
<g id="edge52_Node000023_Node000028" class="edge">
<title>Node23&#45;&gt;Node28</title>
<g id="a_edge52_Node000023_Node000028"><a xlink:title=" ">
<path fill="none" stroke="#63b8ff" d="M421.92,-331.18C423.62,-310.09 425.21,-256.37 402,-221 392.93,-207.17 377.92,-196.78 364.13,-189.51"/>
<polygon fill="#63b8ff" stroke="#63b8ff" points="365.82,-186.44 355.3,-185.22 362.76,-192.74 365.82,-186.44"/>
</a>
</g>
</g>
<!-- Node30 -->
<g id="Node000030" class="node">
<title>Node30</title>
<g id="a_Node000030"><a xlink:href="_signal_8hh.html" target="_top" xlink:title=" ">
<polygon fill="white" stroke="#666666" points="254.25,-185 197.75,-185 197.75,-165.75 254.25,-165.75 254.25,-185"/>
<text xml:space="preserve" text-anchor="middle" x="226" y="-171.5" font-family="Helvetica,sans-Serif" font-size="10.00">Signal.hh</text>
</a>
</g>
</g>
<!-- Node23&#45;&gt;Node30 -->
<g id="edge51_Node000023_Node000030" class="edge">
<title>Node23&#45;&gt;Node30</title>
<g id="a_edge51_Node000023_Node000030"><a xlink:title=" ">
<path fill="none" stroke="#63b8ff" d="M410.24,-331.09C378.6,-304.52 285.59,-226.41 245.15,-192.45"/>
<polygon fill="#63b8ff" stroke="#63b8ff" points="247.56,-189.91 237.65,-186.16 243.06,-195.27 247.56,-189.91"/>
</a>
</g>
</g>
<!-- Node24&#45;&gt;Node2 -->
<g id="edge33_Node000024_Node000002" class="edge">
<title>Node24&#45;&gt;Node2</title>
<g id="a_edge33_Node000024_Node000002"><a xlink:title=" ">
<path fill="none" stroke="#63b8ff" d="M229.09,-275.76C216.49,-266.83 196.81,-252.76 180,-240.25 158.42,-224.19 134.06,-205.35 117.34,-192.32"/>
<polygon fill="#63b8ff" stroke="#63b8ff" points="119.69,-189.71 109.65,-186.31 115.38,-195.23 119.69,-189.71"/>
</a>
</g>
</g>
<!-- Node24&#45;&gt;Node3 -->
<g id="edge35_Node000024_Node000003" class="edge">
<title>Node24&#45;&gt;Node3</title>
<g id="a_edge35_Node000024_Node000003"><a xlink:title=" ">
<path fill="none" stroke="#63b8ff" d="M274.81,-283.8C331.5,-281.13 450.84,-271.9 546,-240.25 643.84,-207.71 660.93,-181.69 750,-129.75 777.48,-113.72 808.36,-94.16 828.87,-80.94"/>
<polygon fill="#63b8ff" stroke="#63b8ff" points="830.55,-84.03 837.04,-75.66 826.74,-78.15 830.55,-84.03"/>
</a>
</g>
</g>
<!-- Node24&#45;&gt;Node18 -->
<g id="edge36_Node000024_Node000018" class="edge">
<title>Node24&#45;&gt;Node18</title>
<g id="a_edge36_Node000024_Node000018"><a xlink:title=" ">
<path fill="none" stroke="#63b8ff" d="M209.22,-276.32C172.22,-266.66 112.19,-250.99 73.94,-241.01"/>
<polygon fill="#63b8ff" stroke="#63b8ff" points="75.31,-237.75 64.75,-238.61 73.54,-244.52 75.31,-237.75"/>
</a>
</g>
</g>
<!-- Node24&#45;&gt;Node20 -->
<g id="edge37_Node000024_Node000020" class="edge">
<title>Node24&#45;&gt;Node20</title>
<g id="a_edge37_Node000024_Node000020"><a xlink:title=" ">
<path fill="none" stroke="#63b8ff" d="M274.71,-282.38C338.78,-277.04 478.19,-263.13 520,-240.25 539.51,-229.57 555.69,-209.55 565.77,-194.75"/>
<polygon fill="#63b8ff" stroke="#63b8ff" points="568.69,-196.69 571.16,-186.39 562.8,-192.89 568.69,-196.69"/>
</a>
</g>
</g>
<!-- Node25 -->
<g id="Node000025" class="node">
<title>Node25</title>
<g id="a_Node000025"><a xlink:title=" ">
<polygon fill="#e0e0e0" stroke="#999999" points="216,-129.75 122,-129.75 122,-110.5 216,-110.5 216,-129.75"/>
<text xml:space="preserve" text-anchor="middle" x="169" y="-116.25" font-family="Helvetica,sans-Serif" font-size="10.00">condition_variable</text>
</a>
</g>
</g>
<!-- Node24&#45;&gt;Node25 -->
<g id="edge32_Node000024_Node000025" class="edge">
<title>Node24&#45;&gt;Node25</title>
<g id="a_edge32_Node000024_Node000025"><a xlink:title=" ">
<path fill="none" stroke="#63b8ff" d="M242.9,-275.97C243.79,-263 243.83,-238.55 234,-221 221.49,-198.65 203.46,-206.14 189,-185 180.05,-171.92 174.96,-154.64 172.16,-141.35"/>
<polygon fill="#63b8ff" stroke="#63b8ff" points="175.62,-140.81 170.39,-131.6 168.73,-142.06 175.62,-140.81"/>
</a>
</g>
</g>
<!-- Node26 -->
<g id="Node000026" class="node">
<title>Node26</title>
<g id="a_Node000026"><a xlink:title=" ">
<polygon fill="#e0e0e0" stroke="#999999" points="224.75,-240.25 195.25,-240.25 195.25,-221 224.75,-221 224.75,-240.25"/>
<text xml:space="preserve" text-anchor="middle" x="210" y="-226.75" font-family="Helvetica,sans-Serif" font-size="10.00">set</text>
</a>
</g>
</g>
<!-- Node24&#45;&gt;Node26 -->
<g id="edge34_Node000024_Node000026" class="edge">
<title>Node24&#45;&gt;Node26</title>
<g id="a_edge34_Node000024_Node000026"><a xlink:title=" ">
<path fill="none" stroke="#63b8ff" d="M236.72,-276.08C232.53,-269.11 226.52,-259.12 221.27,-250.37"/>
<polygon fill="#63b8ff" stroke="#63b8ff" points="224.33,-248.68 216.18,-241.91 218.33,-252.28 224.33,-248.68"/>
</a>
</g>
</g>
<!-- Node27 -->
<g id="Node000027" class="node">
<title>Node27</title>
<g id="a_Node000027"><a xlink:href="_debounce_8hh.html" target="_top" xlink:title=" ">
<polygon fill="white" stroke="#666666" points="392.88,-240.25 319.12,-240.25 319.12,-221 392.88,-221 392.88,-240.25"/>
<text xml:space="preserve" text-anchor="middle" x="356" y="-226.75" font-family="Helvetica,sans-Serif" font-size="10.00">Debounce.hh</text>
</a>
</g>
</g>
<!-- Node24&#45;&gt;Node27 -->
<g id="edge38_Node000024_Node000027" class="edge">
<title>Node24&#45;&gt;Node27</title>
<g id="a_edge38_Node000024_Node000027"><a xlink:title=" ">
<path fill="none" stroke="#63b8ff" d="M261.34,-275.84C279.11,-267.54 305.72,-255.11 326.2,-245.54"/>
<polygon fill="#63b8ff" stroke="#63b8ff" points="327.62,-248.75 335.2,-241.34 324.65,-242.4 327.62,-248.75"/>
</a>
</g>
</g>
<!-- Node24&#45;&gt;Node30 -->
<g id="edge50_Node000024_Node000030" class="edge">
<title>Node24&#45;&gt;Node30</title>
<g id="a_edge50_Node000024_Node000030"><a xlink:title=" ">
<path fill="none" stroke="#63b8ff" d="M223.41,-275.83C210.29,-268.31 193.72,-256.27 186,-240.25 177.85,-223.33 191.42,-205.3 204.91,-192.73"/>
<polygon fill="#63b8ff" stroke="#63b8ff" points="207.08,-195.47 212.39,-186.3 202.52,-190.16 207.08,-195.47"/>
</a>
</g>
</g>
<!-- Node31 -->
<g id="Node000031" class="node">
<title>Node31</title>
<g id="a_Node000031"><a xlink:href="_dir_tree_8hh.html" target="_top" xlink:title=" ">
<polygon fill="white" stroke="#666666" points="510.88,-240.25 449.12,-240.25 449.12,-221 510.88,-221 510.88,-240.25"/>
<text xml:space="preserve" text-anchor="middle" x="480" y="-226.75" font-family="Helvetica,sans-Serif" font-size="10.00">DirTree.hh</text>
</a>
</g>
</g>
<!-- Node24&#45;&gt;Node31 -->
<g id="edge45_Node000024_Node000031" class="edge">
<title>Node24&#45;&gt;Node31</title>
<g id="a_edge45_Node000024_Node000031"><a xlink:title=" ">
<path fill="none" stroke="#63b8ff" d="M274.59,-277.58C317.05,-268.08 391.35,-251.46 437.99,-241.02"/>
<polygon fill="#63b8ff" stroke="#63b8ff" points="438.46,-244.51 447.46,-238.91 436.93,-237.67 438.46,-244.51"/>
</a>
</g>
</g>
<!-- Node27&#45;&gt;Node6 -->
<g id="edge41_Node000027_Node000006" class="edge">
<title>Node27&#45;&gt;Node6</title>
<g id="a_edge41_Node000027_Node000006"><a xlink:title=" ">
<path fill="none" stroke="#63b8ff" d="M338.77,-220.69C319.42,-209.33 291.95,-188.46 302,-165.75 319.04,-127.27 359.04,-97.27 385.81,-80.57"/>
<polygon fill="#63b8ff" stroke="#63b8ff" points="387.29,-83.77 394.05,-75.61 383.68,-77.77 387.29,-83.77"/>
</a>
</g>
</g>
<!-- Node27&#45;&gt;Node28 -->
<g id="edge39_Node000027_Node000028" class="edge">
<title>Node27&#45;&gt;Node28</title>
<g id="a_edge39_Node000027_Node000028"><a xlink:title=" ">
<path fill="none" stroke="#63b8ff" d="M352.04,-220.83C348.96,-214.01 344.59,-204.31 340.71,-195.7"/>
<polygon fill="#63b8ff" stroke="#63b8ff" points="343.97,-194.42 336.67,-186.74 337.59,-197.29 343.97,-194.42"/>
</a>
</g>
</g>
<!-- Node29 -->
<g id="Node000029" class="node">
<title>Node29</title>
<g id="a_Node000029"><a xlink:title=" ">
<polygon fill="#e0e0e0" stroke="#999999" points="454.38,-185 371.62,-185 371.62,-165.75 454.38,-165.75 454.38,-185"/>
<text xml:space="preserve" text-anchor="middle" x="413" y="-171.5" font-family="Helvetica,sans-Serif" font-size="10.00">unordered_map</text>
</a>
</g>
</g>
<!-- Node27&#45;&gt;Node29 -->
<g id="edge40_Node000027_Node000029" class="edge">
<title>Node27&#45;&gt;Node29</title>
<g id="a_edge40_Node000027_Node000029"><a xlink:title=" ">
<path fill="none" stroke="#63b8ff" d="M365.67,-220.59C373.74,-213.05 385.47,-202.1 395.22,-192.98"/>
<polygon fill="#63b8ff" stroke="#63b8ff" points="397.45,-195.69 402.37,-186.31 392.67,-190.58 397.45,-195.69"/>
</a>
</g>
</g>
<!-- Node27&#45;&gt;Node30 -->
<g id="edge42_Node000027_Node000030" class="edge">
<title>Node27&#45;&gt;Node30</title>
<g id="a_edge42_Node000027_Node000030"><a xlink:title=" ">
<path fill="none" stroke="#63b8ff" d="M333.95,-220.59C313.31,-212.14 282.22,-199.4 258.7,-189.77"/>
<polygon fill="#63b8ff" stroke="#63b8ff" points="260.14,-186.58 249.56,-186.03 257.49,-193.06 260.14,-186.58"/>
</a>
</g>
</g>
<!-- Node30&#45;&gt;Node9 -->
<g id="edge43_Node000030_Node000009" class="edge">
<title>Node30&#45;&gt;Node9</title>
<g id="a_edge43_Node000030_Node000009"><a xlink:title=" ">
<path fill="none" stroke="#63b8ff" d="M230.12,-165.63C236.68,-152.43 250.54,-127.19 268,-110.5 280.95,-98.11 297.95,-87.65 312.49,-79.97"/>
<polygon fill="#63b8ff" stroke="#63b8ff" points="313.85,-83.2 321.19,-75.57 310.69,-76.96 313.85,-83.2"/>
</a>
</g>
</g>
<!-- Node30&#45;&gt;Node25 -->
<g id="edge44_Node000030_Node000025" class="edge">
<title>Node30&#45;&gt;Node25</title>
<g id="a_edge44_Node000030_Node000025"><a xlink:title=" ">
<path fill="none" stroke="#63b8ff" d="M216.33,-165.34C208.26,-157.8 196.53,-146.85 186.78,-137.73"/>
<polygon fill="#63b8ff" stroke="#63b8ff" points="189.33,-135.33 179.63,-131.06 184.55,-140.44 189.33,-135.33"/>
</a>
</g>
</g>
<!-- Node31&#45;&gt;Node8 -->
<g id="edge48_Node000031_Node000008" class="edge">
<title>Node31&#45;&gt;Node8</title>
<g id="a_edge48_Node000031_Node000008"><a xlink:title=" ">
<path fill="none" stroke="#63b8ff" d="M483.71,-220.82C494.47,-195.28 525.9,-120.7 540.88,-85.15"/>
<polygon fill="#63b8ff" stroke="#63b8ff" points="544.03,-86.69 544.68,-76.12 537.58,-83.97 544.03,-86.69"/>
</a>
</g>
</g>
<!-- Node31&#45;&gt;Node10 -->
<g id="edge46_Node000031_Node000010" class="edge">
<title>Node31&#45;&gt;Node10</title>
<g id="a_edge46_Node000031_Node000010"><a xlink:title=" ">
<path fill="none" stroke="#63b8ff" d="M479.95,-220.82C479.79,-195.5 479.34,-122 479.12,-86.09"/>
<polygon fill="#63b8ff" stroke="#63b8ff" points="482.62,-86.21 479.06,-76.24 475.62,-86.26 482.62,-86.21"/>
</a>
</g>
</g>
<!-- Node31&#45;&gt;Node20 -->
<g id="edge49_Node000031_Node000020" class="edge">
<title>Node31&#45;&gt;Node20</title>
<g id="a_edge49_Node000031_Node000020"><a xlink:title=" ">
<path fill="none" stroke="#63b8ff" d="M496.45,-220.59C511.23,-212.48 533.18,-200.43 550.43,-190.96"/>
<polygon fill="#63b8ff" stroke="#63b8ff" points="552.06,-194.06 559.14,-186.18 548.69,-187.93 552.06,-194.06"/>
</a>
</g>
</g>
<!-- Node31&#45;&gt;Node29 -->
<g id="edge47_Node000031_Node000029" class="edge">
<title>Node31&#45;&gt;Node29</title>
<g id="a_edge47_Node000031_Node000029"><a xlink:title=" ">
<path fill="none" stroke="#63b8ff" d="M468.63,-220.59C458.95,-212.9 444.8,-201.65 433.19,-192.43"/>
<polygon fill="#63b8ff" stroke="#63b8ff" points="435.39,-189.7 425.38,-186.22 431.03,-195.18 435.39,-189.7"/>
</a>
</g>
</g>
<!-- Node32&#45;&gt;Node3 -->
<g id="edge55_Node000032_Node000003" class="edge">
<title>Node32&#45;&gt;Node3</title>
<g id="a_edge55_Node000032_Node000003"><a xlink:title=" ">
<path fill="none" stroke="#63b8ff" d="M815.61,-170.71C843.46,-165.83 876.3,-154.73 894,-129.75 905.35,-113.73 889.55,-94.89 874.19,-81.84"/>
<polygon fill="#63b8ff" stroke="#63b8ff" points="876.61,-79.29 866.6,-75.83 872.27,-84.78 876.61,-79.29"/>
</a>
</g>
</g>
<!-- Node32&#45;&gt;Node4 -->
<g id="edge56_Node000032_Node000004" class="edge">
<title>Node32&#45;&gt;Node4</title>
<g id="a_edge56_Node000032_Node000004"><a xlink:title=" ">
<path fill="none" stroke="#63b8ff" d="M779.89,-165.34C791.03,-157.54 807.37,-146.09 820.64,-136.79"/>
<polygon fill="#63b8ff" stroke="#63b8ff" points="822.62,-139.68 828.8,-131.07 818.61,-133.94 822.62,-139.68"/>
</a>
</g>
</g>
<!-- Node32&#45;&gt;Node5 -->
<g id="edge57_Node000032_Node000005" class="edge">
<title>Node32&#45;&gt;Node5</title>
<g id="a_edge57_Node000032_Node000005"><a xlink:title=" ">
<path fill="none" stroke="#63b8ff" d="M753.26,-165.34C741.27,-157.46 723.63,-145.86 709.42,-136.52"/>
<polygon fill="#63b8ff" stroke="#63b8ff" points="711.35,-133.6 701.07,-131.03 707.51,-139.45 711.35,-133.6"/>
</a>
</g>
</g>
</g>
</svg>

<g id="navigator" transform="translate(0 0)" fill="#404254">
  <rect fill="#f2f5e9" fill-opacity="0.5" stroke="#606060" stroke-width=".5" x="0" y="0" width="60" height="60"/>
  <use id="zoomplus" xlink:href="#zoomPlus" x="17" y="9" onmousedown="handleZoom(evt,'in')"/>
  <use id="zoomminus" xlink:href="#zoomMin" x="42" y="9" onmousedown="handleZoom(evt,'out')"/>
  <use id="reset" xlink:href="#resetDef" x="30" y="36" onmousedown="handleReset()"/>
   <use id="arrowup" xlink:href="#arrowUp" x="0" y="0" onmousedown="handlePan(0,-1)"/>
  <use id="arrowright" xlink:href="#arrowRight" x="0" y="0" onmousedown="handlePan(1,0)"/>
  <use id="arrowdown" xlink:href="#arrowDown" x="0" y="0" onmousedown="handlePan(0,1)"/>
  <use id="arrowleft" xlink:href="#arrowLeft" x="0" y="0" onmousedown="handlePan(-1,0)"/>
</g>
<svg viewBox="0 0 15 15" width="100%" height="30px" preserveAspectRatio="xMaxYMin meet">
 <g id="arrow_out" transform="scale(0.3 0.3)">
  <a xlink:href="binding_8cc__incl_org.svg" target="_base">
   <rect id="button" ry="5" rx="5" y="6" x="6" height="38" width="38"
        fill="#f2f5e9" fill-opacity="0.5" stroke="#606060" stroke-width="1.0"/>
   <path id="arrow"
     d="M 11.500037,31.436501 C 11.940474,20.09759 22.043105,11.32322 32.158766,21.979434 L 37.068811,17.246167 C 37.068811,17.246167 37.088388,32 37.088388,32 L 22.160133,31.978069 C 22.160133,31.978069 26.997745,27.140456 26.997745,27.140456 C 18.528582,18.264221 13.291696,25.230495 11.500037,31.436501 z"
     style="fill:#404040;"/>
  </a>
 </g>
</svg>

<style type='text/css'>
<![CDATA[
[data-mouse-over-selected='false'] { opacity: 0.7; }
[data-mouse-over-selected='true']  { opacity: 1.0; }
]]>
</style>
<script type="application/ecmascript"><![CDATA[
document.addEventListener('DOMContentLoaded', (event) => {
  highlightEdges();
  highlightAdjacentNodes();
});
]]></script>
</svg>
