<?xml version="1.0" encoding="UTF-8" standalone="no"?>
<!DOCTYPE svg PUBLIC "-//W3C//DTD SVG 1.1//EN"
 "http://www.w3.org/Graphics/SVG/1.1/DTD/svg11.dtd">
<!-- Generated by graphviz version 14.0.4 (20251115.1723)
 -->
<!-- Title: Napi::TypeError Pages: 1 -->
<svg width="142pt" height="193pt"
 viewBox="0.00 0.00 142.00 193.00" xmlns="http://www.w3.org/2000/svg" xmlns:xlink="http://www.w3.org/1999/xlink">
<g id="graph0" class="graph" transform="scale(1 1) rotate(0) translate(4 189)">
<title>Napi::TypeError</title>
<!-- Node1 -->
<g id="Node000001" class="node">
<title>Node1</title>
<g id="a_Node000001"><a xlink:title=" ">
<polygon fill="#999999" stroke="#666666" points="109,-19.25 24.75,-19.25 24.75,0 109,0 109,-19.25"/>
<text xml:space="preserve" text-anchor="middle" x="66.88" y="-5.75" font-family="Helvetica,sans-Serif" font-size="10.00">Napi::TypeError</text>
</a>
</g>
</g>
<!-- Node2 -->
<g id="Node000002" class="node">
<title>Node2</title>
<g id="a_Node000002"><a xlink:href="class_napi_1_1_error.html" target="_top" xlink:title=" ">
<polygon fill="white" stroke="#666666" points="98.5,-74.5 35.25,-74.5 35.25,-55.25 98.5,-55.25 98.5,-74.5"/>
<text xml:space="preserve" text-anchor="middle" x="66.88" y="-61" font-family="Helvetica,sans-Serif" font-size="10.00">Napi::Error</text>
</a>
</g>
</g>
<!-- Node2&#45;&gt;Node1 -->
<g id="edge1_Node000001_Node000002" class="edge">
<title>Node2&#45;&gt;Node1</title>
<g id="a_edge1_Node000001_Node000002"><a xlink:title=" ">
<path fill="none" stroke="#63b8ff" d="M66.88,-43.63C66.88,-35.34 66.88,-26.17 66.88,-19.61"/>
<polygon fill="#63b8ff" stroke="#63b8ff" points="63.38,-43.57 66.88,-53.57 70.38,-43.57 63.38,-43.57"/>
</a>
</g>
</g>
<!-- Node3 -->
<g id="Node000003" class="node">
<title>Node3</title>
<g id="a_Node000003"><a xlink:href="class_napi_1_1_object_reference.html" target="_top" xlink:title=" ">
<polygon fill="white" stroke="#666666" points="124.75,-129.75 9,-129.75 9,-110.5 124.75,-110.5 124.75,-129.75"/>
<text xml:space="preserve" text-anchor="middle" x="66.88" y="-116.25" font-family="Helvetica,sans-Serif" font-size="10.00">Napi::ObjectReference</text>
</a>
</g>
</g>
<!-- Node3&#45;&gt;Node2 -->
<g id="edge2_Node000002_Node000003" class="edge">
<title>Node3&#45;&gt;Node2</title>
<g id="a_edge2_Node000002_Node000003"><a xlink:title=" ">
<path fill="none" stroke="#63b8ff" d="M66.88,-98.88C66.88,-90.59 66.88,-81.42 66.88,-74.86"/>
<polygon fill="#63b8ff" stroke="#63b8ff" points="63.38,-98.82 66.88,-108.82 70.38,-98.82 63.38,-98.82"/>
</a>
</g>
</g>
<!-- Node4 -->
<g id="Node000004" class="node">
<title>Node4</title>
<g id="a_Node000004"><a xlink:href="class_napi_1_1_reference.html" target="_top" xlink:title=" ">
<polygon fill="white" stroke="#666666" points="133.75,-185 0,-185 0,-165.75 133.75,-165.75 133.75,-185"/>
<text xml:space="preserve" text-anchor="middle" x="66.88" y="-171.5" font-family="Helvetica,sans-Serif" font-size="10.00">Napi::Reference&lt; Object &gt;</text>
</a>
</g>
</g>
<!-- Node4&#45;&gt;Node3 -->
<g id="edge3_Node000003_Node000004" class="edge">
<title>Node4&#45;&gt;Node3</title>
<g id="a_edge3_Node000003_Node000004"><a xlink:title=" ">
<path fill="none" stroke="#63b8ff" d="M66.88,-154.13C66.88,-145.84 66.88,-136.67 66.88,-130.11"/>
<polygon fill="#63b8ff" stroke="#63b8ff" points="63.38,-154.07 66.88,-164.07 70.38,-154.07 63.38,-154.07"/>
</a>
</g>
</g>
</g>
</svg>
