<?xml version="1.0" encoding="UTF-8" standalone="no"?>
<!DOCTYPE svg PUBLIC "-//W3C//DTD SVG 1.1//EN"
 "http://www.w3.org/Graphics/SVG/1.1/DTD/svg11.dtd">
<!-- Generated by graphviz version 14.0.4 (20251115.1723)
 -->
<!-- Title: Napi::Buffer&lt; T &gt; Pages: 1 -->
<svg width="110pt" height="304pt"
 viewBox="0.00 0.00 110.00 304.00" xmlns="http://www.w3.org/2000/svg" xmlns:xlink="http://www.w3.org/1999/xlink">
<g id="graph0" class="graph" transform="scale(1 1) rotate(0) translate(4 299.5)">
<title>Napi::Buffer&lt; T &gt;</title>
<!-- Node1 -->
<g id="Node000001" class="node">
<title>Node1</title>
<g id="a_Node000001"><a xlink:title=" ">
<polygon fill="#999999" stroke="#666666" points="97.38,-19.25 4.88,-19.25 4.88,0 97.38,0 97.38,-19.25"/>
<text xml:space="preserve" text-anchor="middle" x="51.12" y="-5.75" font-family="Helvetica,sans-Serif" font-size="10.00">Napi::Buffer&lt; T &gt;</text>
</a>
</g>
</g>
<!-- Node2 -->
<g id="Node000002" class="node">
<title>Node2</title>
<g id="a_Node000002"><a xlink:href="class_napi_1_1_typed_array_of.html" target="_top" xlink:title=" ">
<polygon fill="white" stroke="#666666" points="82.38,-74.5 19.88,-74.5 19.88,-55.25 82.38,-55.25 82.38,-74.5"/>
<text xml:space="preserve" text-anchor="middle" x="51.12" y="-61" font-family="Helvetica,sans-Serif" font-size="10.00">Uint8Array</text>
</a>
</g>
</g>
<!-- Node2&#45;&gt;Node1 -->
<g id="edge1_Node000001_Node000002" class="edge">
<title>Node2&#45;&gt;Node1</title>
<g id="a_edge1_Node000001_Node000002"><a xlink:title=" ">
<path fill="none" stroke="#63b8ff" d="M51.12,-43.63C51.12,-35.34 51.12,-26.17 51.12,-19.61"/>
<polygon fill="#63b8ff" stroke="#63b8ff" points="47.63,-43.57 51.13,-53.57 54.63,-43.57 47.63,-43.57"/>
</a>
</g>
</g>
<!-- Node3 -->
<g id="Node000003" class="node">
<title>Node3</title>
<g id="a_Node000003"><a xlink:href="class_napi_1_1_typed_array.html" target="_top" xlink:title=" ">
<polygon fill="white" stroke="#666666" points="97,-129.75 5.25,-129.75 5.25,-110.5 97,-110.5 97,-129.75"/>
<text xml:space="preserve" text-anchor="middle" x="51.12" y="-116.25" font-family="Helvetica,sans-Serif" font-size="10.00">Napi::TypedArray</text>
</a>
</g>
</g>
<!-- Node3&#45;&gt;Node2 -->
<g id="edge2_Node000002_Node000003" class="edge">
<title>Node3&#45;&gt;Node2</title>
<g id="a_edge2_Node000002_Node000003"><a xlink:title=" ">
<path fill="none" stroke="#63b8ff" d="M51.12,-98.88C51.12,-90.59 51.12,-81.42 51.12,-74.86"/>
<polygon fill="#63b8ff" stroke="#63b8ff" points="47.63,-98.82 51.13,-108.82 54.63,-98.82 47.63,-98.82"/>
</a>
</g>
</g>
<!-- Node4 -->
<g id="Node000004" class="node">
<title>Node4</title>
<g id="a_Node000004"><a xlink:href="class_napi_1_1_object.html" target="_top" xlink:title="A JavaScript object value.">
<polygon fill="white" stroke="#666666" points="86.5,-185 15.75,-185 15.75,-165.75 86.5,-165.75 86.5,-185"/>
<text xml:space="preserve" text-anchor="middle" x="51.12" y="-171.5" font-family="Helvetica,sans-Serif" font-size="10.00">Napi::Object</text>
</a>
</g>
</g>
<!-- Node4&#45;&gt;Node3 -->
<g id="edge3_Node000003_Node000004" class="edge">
<title>Node4&#45;&gt;Node3</title>
<g id="a_edge3_Node000003_Node000004"><a xlink:title=" ">
<path fill="none" stroke="#63b8ff" d="M51.12,-154.13C51.12,-145.84 51.12,-136.67 51.12,-130.11"/>
<polygon fill="#63b8ff" stroke="#63b8ff" points="47.63,-154.07 51.13,-164.07 54.63,-154.07 47.63,-154.07"/>
</a>
</g>
</g>
<!-- Node5 -->
<g id="Node000005" class="node">
<title>Node5</title>
<g id="a_Node000005"><a xlink:href="class_napi_1_1_type_taggable.html" target="_top" xlink:title=" ">
<polygon fill="white" stroke="#666666" points="102.25,-240.25 0,-240.25 0,-221 102.25,-221 102.25,-240.25"/>
<text xml:space="preserve" text-anchor="middle" x="51.12" y="-226.75" font-family="Helvetica,sans-Serif" font-size="10.00">Napi::TypeTaggable</text>
</a>
</g>
</g>
<!-- Node5&#45;&gt;Node4 -->
<g id="edge4_Node000004_Node000005" class="edge">
<title>Node5&#45;&gt;Node4</title>
<g id="a_edge4_Node000004_Node000005"><a xlink:title=" ">
<path fill="none" stroke="#63b8ff" d="M51.12,-209.38C51.12,-201.09 51.12,-191.92 51.12,-185.36"/>
<polygon fill="#63b8ff" stroke="#63b8ff" points="47.63,-209.32 51.13,-219.32 54.63,-209.32 47.63,-209.32"/>
</a>
</g>
</g>
<!-- Node6 -->
<g id="Node000006" class="node">
<title>Node6</title>
<g id="a_Node000006"><a xlink:href="class_napi_1_1_value.html" target="_top" xlink:title=" ">
<polygon fill="white" stroke="#666666" points="84.25,-295.5 18,-295.5 18,-276.25 84.25,-276.25 84.25,-295.5"/>
<text xml:space="preserve" text-anchor="middle" x="51.12" y="-282" font-family="Helvetica,sans-Serif" font-size="10.00">Napi::Value</text>
</a>
</g>
</g>
<!-- Node6&#45;&gt;Node5 -->
<g id="edge5_Node000005_Node000006" class="edge">
<title>Node6&#45;&gt;Node5</title>
<g id="a_edge5_Node000005_Node000006"><a xlink:title=" ">
<path fill="none" stroke="#63b8ff" d="M51.12,-264.63C51.12,-256.34 51.12,-247.17 51.12,-240.61"/>
<polygon fill="#63b8ff" stroke="#63b8ff" points="47.63,-264.57 51.13,-274.57 54.63,-264.57 47.63,-264.57"/>
</a>
</g>
</g>
</g>
</svg>
