<?xml version="1.0" encoding="UTF-8" standalone="no"?>
<!DOCTYPE svg PUBLIC "-//W3C//DTD SVG 1.1//EN"
 "http://www.w3.org/Graphics/SVG/1.1/DTD/svg11.dtd">
<!-- Generated by graphviz version 14.0.4 (20251115.1723)
 -->
<!-- Title: Napi::Value Pages: 1 -->
<svg width="769pt" height="447pt"
 viewBox="0.00 0.00 769.00 447.00" xmlns="http://www.w3.org/2000/svg" xmlns:xlink="http://www.w3.org/1999/xlink">
<g id="graph0" class="graph" transform="scale(1 1) rotate(0) translate(4 443.25)">
<title>Napi::Value</title>
<!-- Node1 -->
<g id="Node000001" class="node">
<title>Node1</title>
<g id="a_Node000001"><a xlink:title=" ">
<polygon fill="#999999" stroke="#666666" points="66.25,-383.25 0,-383.25 0,-364 66.25,-364 66.25,-383.25"/>
<text xml:space="preserve" text-anchor="middle" x="33.12" y="-369.75" font-family="Helvetica,sans-Serif" font-size="10.00">Napi::Value</text>
</a>
</g>
</g>
<!-- Node2 -->
<g id="Node000002" class="node">
<title>Node2</title>
<g id="a_Node000002"><a xlink:href="class_napi_1_1_boolean.html" target="_top" xlink:title="A JavaScript boolean value.">
<polygon fill="white" stroke="#666666" points="192.12,-439.25 114.62,-439.25 114.62,-420 192.12,-420 192.12,-439.25"/>
<text xml:space="preserve" text-anchor="middle" x="153.38" y="-425.75" font-family="Helvetica,sans-Serif" font-size="10.00">Napi::Boolean</text>
</a>
</g>
</g>
<!-- Node1&#45;&gt;Node2 -->
<g id="edge1_Node000001_Node000002" class="edge">
<title>Node1&#45;&gt;Node2</title>
<g id="a_edge1_Node000001_Node000002"><a xlink:title=" ">
<path fill="none" stroke="#63b8ff" d="M60,-389.38C72.51,-396.65 87.9,-405.1 102.25,-411.62 108.48,-414.46 115.29,-417.16 121.84,-419.56"/>
<polygon fill="#63b8ff" stroke="#63b8ff" points="61.95,-386.46 51.56,-384.38 58.38,-392.49 61.95,-386.46"/>
</a>
</g>
</g>
<!-- Node3 -->
<g id="Node000003" class="node">
<title>Node3</title>
<g id="a_Node000003"><a xlink:href="class_napi_1_1_name.html" target="_top" xlink:title="A JavaScript string or symbol value (that can be used as a property name).">
<polygon fill="white" stroke="#666666" points="187.62,-402.25 119.12,-402.25 119.12,-383 187.62,-383 187.62,-402.25"/>
<text xml:space="preserve" text-anchor="middle" x="153.38" y="-388.75" font-family="Helvetica,sans-Serif" font-size="10.00">Napi::Name</text>
</a>
</g>
</g>
<!-- Node1&#45;&gt;Node3 -->
<g id="edge2_Node000001_Node000003" class="edge">
<title>Node1&#45;&gt;Node3</title>
<g id="a_edge2_Node000001_Node000003"><a xlink:title=" ">
<path fill="none" stroke="#63b8ff" d="M77.54,-380.6C91.18,-382.79 106.02,-385.18 118.86,-387.24"/>
<polygon fill="#63b8ff" stroke="#63b8ff" points="78.36,-377.19 67.93,-379.06 77.25,-384.1 78.36,-377.19"/>
</a>
</g>
</g>
<!-- Node6 -->
<g id="Node000006" class="node">
<title>Node6</title>
<g id="a_Node000006"><a xlink:href="class_napi_1_1_number.html" target="_top" xlink:title="A JavaScript number value.">
<polygon fill="white" stroke="#666666" points="191.75,-365.25 115,-365.25 115,-346 191.75,-346 191.75,-365.25"/>
<text xml:space="preserve" text-anchor="middle" x="153.38" y="-351.75" font-family="Helvetica,sans-Serif" font-size="10.00">Napi::Number</text>
</a>
</g>
</g>
<!-- Node1&#45;&gt;Node6 -->
<g id="edge5_Node000001_Node000006" class="edge">
<title>Node1&#45;&gt;Node6</title>
<g id="a_edge5_Node000001_Node000006"><a xlink:title=" ">
<path fill="none" stroke="#63b8ff" d="M77.7,-366.99C89.83,-365.15 102.9,-363.16 114.66,-361.37"/>
<polygon fill="#63b8ff" stroke="#63b8ff" points="77.29,-363.51 67.93,-368.48 78.35,-370.43 77.29,-363.51"/>
</a>
</g>
</g>
<!-- Node7 -->
<g id="Node000007" class="node">
<title>Node7</title>
<g id="a_Node000007"><a xlink:href="class_napi_1_1_type_taggable.html" target="_top" xlink:title=" ">
<polygon fill="white" stroke="#666666" points="204.5,-328.25 102.25,-328.25 102.25,-309 204.5,-309 204.5,-328.25"/>
<text xml:space="preserve" text-anchor="middle" x="153.38" y="-314.75" font-family="Helvetica,sans-Serif" font-size="10.00">Napi::TypeTaggable</text>
</a>
</g>
</g>
<!-- Node1&#45;&gt;Node7 -->
<g id="edge6_Node000001_Node000007" class="edge">
<title>Node1&#45;&gt;Node7</title>
<g id="a_edge6_Node000001_Node000007"><a xlink:title=" ">
<path fill="none" stroke="#63b8ff" d="M60.55,-358.05C72.98,-351.04 88.14,-342.94 102.25,-336.62 108.49,-333.83 115.32,-331.14 121.86,-328.74"/>
<polygon fill="#63b8ff" stroke="#63b8ff" points="59.09,-354.85 52.15,-362.86 62.57,-360.93 59.09,-354.85"/>
</a>
</g>
</g>
<!-- Node4 -->
<g id="Node000004" class="node">
<title>Node4</title>
<g id="a_Node000004"><a xlink:href="class_napi_1_1_string.html" target="_top" xlink:title="A JavaScript string value.">
<polygon fill="white" stroke="#666666" points="325.5,-430.25 257.75,-430.25 257.75,-411 325.5,-411 325.5,-430.25"/>
<text xml:space="preserve" text-anchor="middle" x="291.62" y="-416.75" font-family="Helvetica,sans-Serif" font-size="10.00">Napi::String</text>
</a>
</g>
</g>
<!-- Node3&#45;&gt;Node4 -->
<g id="edge3_Node000003_Node000004" class="edge">
<title>Node3&#45;&gt;Node4</title>
<g id="a_edge3_Node000003_Node000004"><a xlink:title=" ">
<path fill="none" stroke="#63b8ff" d="M199.15,-401.83C218.11,-405.72 239.82,-410.18 257.33,-413.78"/>
<polygon fill="#63b8ff" stroke="#63b8ff" points="200.04,-398.44 189.54,-399.85 198.63,-405.29 200.04,-398.44"/>
</a>
</g>
</g>
<!-- Node5 -->
<g id="Node000005" class="node">
<title>Node5</title>
<g id="a_Node000005"><a xlink:href="class_napi_1_1_symbol.html" target="_top" xlink:title="A JavaScript symbol value.">
<polygon fill="white" stroke="#666666" points="329.25,-393.25 254,-393.25 254,-374 329.25,-374 329.25,-393.25"/>
<text xml:space="preserve" text-anchor="middle" x="291.62" y="-379.75" font-family="Helvetica,sans-Serif" font-size="10.00">Napi::Symbol</text>
</a>
</g>
</g>
<!-- Node3&#45;&gt;Node5 -->
<g id="edge4_Node000003_Node000005" class="edge">
<title>Node3&#45;&gt;Node5</title>
<g id="a_edge4_Node000003_Node000005"><a xlink:title=" ">
<path fill="none" stroke="#63b8ff" d="M199.47,-389.65C216.99,-388.49 236.82,-387.18 253.5,-386.08"/>
<polygon fill="#63b8ff" stroke="#63b8ff" points="199.31,-386.15 189.57,-390.3 199.77,-393.13 199.31,-386.15"/>
</a>
</g>
</g>
<!-- Node8 -->
<g id="Node000008" class="node">
<title>Node8</title>
<g id="a_Node000008"><a xlink:href="class_napi_1_1_external.html" target="_top" xlink:title=" ">
<polygon fill="white" stroke="#666666" points="342.75,-338.25 240.5,-338.25 240.5,-319 342.75,-319 342.75,-338.25"/>
<text xml:space="preserve" text-anchor="middle" x="291.62" y="-324.75" font-family="Helvetica,sans-Serif" font-size="10.00">Napi::External&lt; T &gt;</text>
</a>
</g>
</g>
<!-- Node7&#45;&gt;Node8 -->
<g id="edge7_Node000007_Node000008" class="edge">
<title>Node7&#45;&gt;Node8</title>
<g id="a_edge7_Node000007_Node000008"><a xlink:title=" ">
<path fill="none" stroke="#63b8ff" d="M215.97,-323.15C224.02,-323.74 232.19,-324.34 240.03,-324.91"/>
<polygon fill="#63b8ff" stroke="#63b8ff" points="216.46,-319.67 206.23,-322.43 215.95,-326.65 216.46,-319.67"/>
</a>
</g>
</g>
<!-- Node9 -->
<g id="Node000009" class="node">
<title>Node9</title>
<g id="a_Node000009"><a xlink:href="class_napi_1_1_object.html" target="_top" xlink:title="A JavaScript object value.">
<polygon fill="white" stroke="#666666" points="327,-301.25 256.25,-301.25 256.25,-282 327,-282 327,-301.25"/>
<text xml:space="preserve" text-anchor="middle" x="291.62" y="-287.75" font-family="Helvetica,sans-Serif" font-size="10.00">Napi::Object</text>
</a>
</g>
</g>
<!-- Node7&#45;&gt;Node9 -->
<g id="edge8_Node000007_Node000009" class="edge">
<title>Node7&#45;&gt;Node9</title>
<g id="a_edge8_Node000007_Node000009"><a xlink:title=" ">
<path fill="none" stroke="#63b8ff" d="M215.64,-306.49C229.4,-303.76 243.54,-300.96 255.78,-298.53"/>
<polygon fill="#63b8ff" stroke="#63b8ff" points="215.34,-302.98 206.21,-308.35 216.7,-309.84 215.34,-302.98"/>
</a>
</g>
</g>
<!-- Node10 -->
<g id="Node000010" class="node">
<title>Node10</title>
<g id="a_Node000010"><a xlink:href="class_napi_1_1_array.html" target="_top" xlink:title=" ">
<polygon fill="white" stroke="#666666" points="457.38,-394.25 391.88,-394.25 391.88,-375 457.38,-375 457.38,-394.25"/>
<text xml:space="preserve" text-anchor="middle" x="424.62" y="-380.75" font-family="Helvetica,sans-Serif" font-size="10.00">Napi::Array</text>
</a>
</g>
</g>
<!-- Node9&#45;&gt;Node10 -->
<g id="edge9_Node000009_Node000010" class="edge">
<title>Node9&#45;&gt;Node10</title>
<g id="a_edge9_Node000009_Node000010"><a xlink:title=" ">
<path fill="none" stroke="#63b8ff" d="M337.34,-305.81C339.23,-306.99 341.05,-308.26 342.75,-309.62 366.12,-328.37 355.73,-347.45 378.75,-366.62 382.62,-369.85 387.14,-372.55 391.8,-374.8"/>
<polygon fill="#63b8ff" stroke="#63b8ff" points="339.23,-302.85 328.73,-301.37 336.01,-309.07 339.23,-302.85"/>
</a>
</g>
</g>
<!-- Node11 -->
<g id="Node000011" class="node">
<title>Node11</title>
<g id="a_Node000011"><a xlink:href="class_napi_1_1_array_buffer.html" target="_top" xlink:title="A JavaScript array buffer value.">
<polygon fill="white" stroke="#666666" points="470.5,-357.25 378.75,-357.25 378.75,-338 470.5,-338 470.5,-357.25"/>
<text xml:space="preserve" text-anchor="middle" x="424.62" y="-343.75" font-family="Helvetica,sans-Serif" font-size="10.00">Napi::ArrayBuffer</text>
</a>
</g>
</g>
<!-- Node9&#45;&gt;Node11 -->
<g id="edge10_Node000009_Node000011" class="edge">
<title>Node9&#45;&gt;Node11</title>
<g id="a_edge10_Node000009_Node000011"><a xlink:title=" ">
<path fill="none" stroke="#63b8ff" d="M333.69,-305.75C336.78,-307 339.83,-308.3 342.75,-309.62 359.42,-317.19 362.22,-321.76 378.75,-329.62 384.51,-332.37 390.81,-335.07 396.81,-337.51"/>
<polygon fill="#63b8ff" stroke="#63b8ff" points="335.16,-302.57 324.57,-302.24 332.64,-309.1 335.16,-302.57"/>
</a>
</g>
</g>
<!-- Node12 -->
<g id="Node000012" class="node">
<title>Node12</title>
<g id="a_Node000012"><a xlink:href="class_napi_1_1_data_view.html" target="_top" xlink:title=" ">
<polygon fill="white" stroke="#666666" points="467.12,-320.25 382.12,-320.25 382.12,-301 467.12,-301 467.12,-320.25"/>
<text xml:space="preserve" text-anchor="middle" x="424.62" y="-306.75" font-family="Helvetica,sans-Serif" font-size="10.00">Napi::DataView</text>
</a>
</g>
</g>
<!-- Node9&#45;&gt;Node12 -->
<g id="edge11_Node000009_Node000012" class="edge">
<title>Node9&#45;&gt;Node12</title>
<g id="a_edge11_Node000009_Node000012"><a xlink:title=" ">
<path fill="none" stroke="#63b8ff" d="M338.76,-298.32C352.74,-300.34 368.01,-302.56 381.69,-304.54"/>
<polygon fill="#63b8ff" stroke="#63b8ff" points="339.28,-294.86 328.88,-296.88 338.28,-301.78 339.28,-294.86"/>
</a>
</g>
</g>
<!-- Node13 -->
<g id="Node000013" class="node">
<title>Node13</title>
<g id="a_Node000013"><a xlink:href="class_napi_1_1_function.html" target="_top" xlink:title=" ">
<polygon fill="white" stroke="#666666" points="464.5,-283.25 384.75,-283.25 384.75,-264 464.5,-264 464.5,-283.25"/>
<text xml:space="preserve" text-anchor="middle" x="424.62" y="-269.75" font-family="Helvetica,sans-Serif" font-size="10.00">Napi::Function</text>
</a>
</g>
</g>
<!-- Node9&#45;&gt;Node13 -->
<g id="edge12_Node000009_Node000013" class="edge">
<title>Node9&#45;&gt;Node13</title>
<g id="a_edge12_Node000009_Node000013"><a xlink:title=" ">
<path fill="none" stroke="#63b8ff" d="M338.52,-285.32C353.54,-283.26 370.07,-280.98 384.54,-279"/>
<polygon fill="#63b8ff" stroke="#63b8ff" points="338.32,-281.81 328.89,-286.64 339.27,-288.75 338.32,-281.81"/>
</a>
</g>
</g>
<!-- Node14 -->
<g id="Node000014" class="node">
<title>Node14</title>
<g id="a_Node000014"><a xlink:href="class_napi_1_1_promise.html" target="_top" xlink:title=" ">
<polygon fill="white" stroke="#666666" points="463.75,-246.25 385.5,-246.25 385.5,-227 463.75,-227 463.75,-246.25"/>
<text xml:space="preserve" text-anchor="middle" x="424.62" y="-232.75" font-family="Helvetica,sans-Serif" font-size="10.00">Napi::Promise</text>
</a>
</g>
</g>
<!-- Node9&#45;&gt;Node14 -->
<g id="edge13_Node000009_Node000014" class="edge">
<title>Node9&#45;&gt;Node14</title>
<g id="a_edge13_Node000009_Node000014"><a xlink:title=" ">
<path fill="none" stroke="#63b8ff" d="M326.01,-277.06C341.94,-270.17 361.29,-261.88 378.75,-254.62 385.11,-251.99 392,-249.19 398.42,-246.61"/>
<polygon fill="#63b8ff" stroke="#63b8ff" points="324.76,-273.79 316.98,-280.98 327.55,-280.21 324.76,-273.79"/>
</a>
</g>
</g>
<!-- Node15 -->
<g id="Node000015" class="node">
<title>Node15</title>
<g id="a_Node000015"><a xlink:href="class_napi_1_1_typed_array.html" target="_top" xlink:title=" ">
<polygon fill="white" stroke="#666666" points="470.5,-209.25 378.75,-209.25 378.75,-190 470.5,-190 470.5,-209.25"/>
<text xml:space="preserve" text-anchor="middle" x="424.62" y="-195.75" font-family="Helvetica,sans-Serif" font-size="10.00">Napi::TypedArray</text>
</a>
</g>
</g>
<!-- Node9&#45;&gt;Node15 -->
<g id="edge14_Node000009_Node000015" class="edge">
<title>Node9&#45;&gt;Node15</title>
<g id="a_edge14_Node000009_Node000015"><a xlink:title=" ">
<path fill="none" stroke="#63b8ff" d="M309.8,-273.83C326.29,-257.52 352.49,-233.57 378.75,-217.62 383.63,-214.66 389.08,-212 394.46,-209.7"/>
<polygon fill="#63b8ff" stroke="#63b8ff" points="307.74,-270.93 303.18,-280.5 312.71,-275.86 307.74,-270.93"/>
</a>
</g>
</g>
<!-- Node16 -->
<g id="Node000016" class="node">
<title>Node16</title>
<g id="a_Node000016"><a xlink:href="class_napi_1_1_typed_array_of.html" target="_top" xlink:title=" ">
<polygon fill="white" stroke="#666666" points="620.75,-410.88 518.5,-410.88 518.5,-380.38 620.75,-380.38 620.75,-410.88"/>
<text xml:space="preserve" text-anchor="start" x="526.5" y="-397.38" font-family="Helvetica,sans-Serif" font-size="10.00">Napi::TypedArrayOf</text>
<text xml:space="preserve" text-anchor="middle" x="569.62" y="-386.12" font-family="Helvetica,sans-Serif" font-size="10.00">&lt; int8_t &gt;</text>
</a>
</g>
</g>
<!-- Node15&#45;&gt;Node16 -->
<g id="edge15_Node000015_Node000016" class="edge">
<title>Node15&#45;&gt;Node16</title>
<g id="a_edge15_Node000015_Node000016"><a xlink:title=" ">
<path fill="none" stroke="#63b8ff" d="M469.71,-216.74C469.98,-217.03 470.24,-217.33 470.5,-217.62 516.05,-270.59 460.98,-317.63 506.5,-370.62 509.83,-374.51 513.86,-377.79 518.23,-380.57"/>
<polygon fill="#63b8ff" stroke="#63b8ff" points="471.93,-214.03 461.91,-210.59 467.59,-219.53 471.93,-214.03"/>
</a>
</g>
</g>
<!-- Node17 -->
<g id="Node000017" class="node">
<title>Node17</title>
<g id="a_Node000017"><a xlink:href="class_napi_1_1_typed_array_of.html" target="_top" xlink:title=" ">
<polygon fill="white" stroke="#666666" points="620.75,-361.88 518.5,-361.88 518.5,-331.38 620.75,-331.38 620.75,-361.88"/>
<text xml:space="preserve" text-anchor="start" x="526.5" y="-348.38" font-family="Helvetica,sans-Serif" font-size="10.00">Napi::TypedArrayOf</text>
<text xml:space="preserve" text-anchor="middle" x="569.62" y="-337.12" font-family="Helvetica,sans-Serif" font-size="10.00">&lt; uint8_t &gt;</text>
</a>
</g>
</g>
<!-- Node15&#45;&gt;Node17 -->
<g id="edge16_Node000015_Node000017" class="edge">
<title>Node15&#45;&gt;Node17</title>
<g id="a_edge16_Node000015_Node000017"><a xlink:title=" ">
<path fill="none" stroke="#63b8ff" d="M469.04,-216.18C469.54,-216.65 470.03,-217.13 470.5,-217.62 504.24,-253.04 472.78,-286.2 506.5,-321.62 509.95,-325.25 513.99,-328.36 518.33,-331.02"/>
<polygon fill="#63b8ff" stroke="#63b8ff" points="471.36,-213.54 461.19,-210.56 467.28,-219.23 471.36,-213.54"/>
</a>
</g>
</g>
<!-- Node19 -->
<g id="Node000019" class="node">
<title>Node19</title>
<g id="a_Node000019"><a xlink:href="class_napi_1_1_typed_array_of.html" target="_top" xlink:title=" ">
<polygon fill="white" stroke="#666666" points="620.75,-312.88 518.5,-312.88 518.5,-282.38 620.75,-282.38 620.75,-312.88"/>
<text xml:space="preserve" text-anchor="start" x="526.5" y="-299.38" font-family="Helvetica,sans-Serif" font-size="10.00">Napi::TypedArrayOf</text>
<text xml:space="preserve" text-anchor="middle" x="569.62" y="-288.12" font-family="Helvetica,sans-Serif" font-size="10.00">&lt; int16_t &gt;</text>
</a>
</g>
</g>
<!-- Node15&#45;&gt;Node19 -->
<g id="edge18_Node000015_Node000019" class="edge">
<title>Node15&#45;&gt;Node19</title>
<g id="a_edge18_Node000015_Node000019"><a xlink:title=" ">
<path fill="none" stroke="#63b8ff" d="M467.57,-215.4C468.58,-216.11 469.56,-216.85 470.5,-217.62 493.1,-236.14 483.91,-254.1 506.5,-272.62 510.81,-276.16 515.7,-279.25 520.78,-281.94"/>
<polygon fill="#63b8ff" stroke="#63b8ff" points="469.58,-212.52 459.18,-210.5 466.05,-218.56 469.58,-212.52"/>
</a>
</g>
</g>
<!-- Node20 -->
<g id="Node000020" class="node">
<title>Node20</title>
<g id="a_Node000020"><a xlink:href="class_napi_1_1_typed_array_of.html" target="_top" xlink:title=" ">
<polygon fill="white" stroke="#666666" points="620.75,-263.88 518.5,-263.88 518.5,-233.38 620.75,-233.38 620.75,-263.88"/>
<text xml:space="preserve" text-anchor="start" x="526.5" y="-250.38" font-family="Helvetica,sans-Serif" font-size="10.00">Napi::TypedArrayOf</text>
<text xml:space="preserve" text-anchor="middle" x="569.62" y="-239.12" font-family="Helvetica,sans-Serif" font-size="10.00">&lt; uint16_t &gt;</text>
</a>
</g>
</g>
<!-- Node15&#45;&gt;Node20 -->
<g id="edge19_Node000015_Node000020" class="edge">
<title>Node15&#45;&gt;Node20</title>
<g id="a_edge19_Node000015_Node000020"><a xlink:title=" ">
<path fill="none" stroke="#63b8ff" d="M465.76,-213.38C483.49,-219.45 504.43,-226.63 522.77,-232.91"/>
<polygon fill="#63b8ff" stroke="#63b8ff" points="466.93,-210.08 456.34,-210.15 464.67,-216.7 466.93,-210.08"/>
</a>
</g>
</g>
<!-- Node21 -->
<g id="Node000021" class="node">
<title>Node21</title>
<g id="a_Node000021"><a xlink:href="class_napi_1_1_typed_array_of.html" target="_top" xlink:title=" ">
<polygon fill="white" stroke="#666666" points="620.75,-214.88 518.5,-214.88 518.5,-184.38 620.75,-184.38 620.75,-214.88"/>
<text xml:space="preserve" text-anchor="start" x="526.5" y="-201.38" font-family="Helvetica,sans-Serif" font-size="10.00">Napi::TypedArrayOf</text>
<text xml:space="preserve" text-anchor="middle" x="569.62" y="-190.12" font-family="Helvetica,sans-Serif" font-size="10.00">&lt; int32_t &gt;</text>
</a>
</g>
</g>
<!-- Node15&#45;&gt;Node21 -->
<g id="edge20_Node000015_Node000021" class="edge">
<title>Node15&#45;&gt;Node21</title>
<g id="a_edge20_Node000015_Node000021"><a xlink:title=" ">
<path fill="none" stroke="#63b8ff" d="M482.08,-199.62C494.01,-199.62 506.52,-199.62 518.21,-199.62"/>
<polygon fill="#63b8ff" stroke="#63b8ff" points="482.38,-196.13 472.38,-199.63 482.38,-203.13 482.38,-196.13"/>
</a>
</g>
</g>
<!-- Node22 -->
<g id="Node000022" class="node">
<title>Node22</title>
<g id="a_Node000022"><a xlink:href="class_napi_1_1_typed_array_of.html" target="_top" xlink:title=" ">
<polygon fill="white" stroke="#666666" points="620.75,-165.88 518.5,-165.88 518.5,-135.38 620.75,-135.38 620.75,-165.88"/>
<text xml:space="preserve" text-anchor="start" x="526.5" y="-152.38" font-family="Helvetica,sans-Serif" font-size="10.00">Napi::TypedArrayOf</text>
<text xml:space="preserve" text-anchor="middle" x="569.62" y="-141.12" font-family="Helvetica,sans-Serif" font-size="10.00">&lt; uint32_t &gt;</text>
</a>
</g>
</g>
<!-- Node15&#45;&gt;Node22 -->
<g id="edge21_Node000015_Node000022" class="edge">
<title>Node15&#45;&gt;Node22</title>
<g id="a_edge21_Node000015_Node000022"><a xlink:title=" ">
<path fill="none" stroke="#63b8ff" d="M465.76,-185.87C483.49,-179.8 504.43,-172.62 522.77,-166.34"/>
<polygon fill="#63b8ff" stroke="#63b8ff" points="464.67,-182.55 456.34,-189.1 466.93,-189.17 464.67,-182.55"/>
</a>
</g>
</g>
<!-- Node23 -->
<g id="Node000023" class="node">
<title>Node23</title>
<g id="a_Node000023"><a xlink:href="class_napi_1_1_typed_array_of.html" target="_top" xlink:title=" ">
<polygon fill="white" stroke="#666666" points="620.75,-116.88 518.5,-116.88 518.5,-86.38 620.75,-86.38 620.75,-116.88"/>
<text xml:space="preserve" text-anchor="start" x="526.5" y="-103.38" font-family="Helvetica,sans-Serif" font-size="10.00">Napi::TypedArrayOf</text>
<text xml:space="preserve" text-anchor="middle" x="569.62" y="-92.12" font-family="Helvetica,sans-Serif" font-size="10.00">&lt; float &gt;</text>
</a>
</g>
</g>
<!-- Node15&#45;&gt;Node23 -->
<g id="edge22_Node000015_Node000023" class="edge">
<title>Node15&#45;&gt;Node23</title>
<g id="a_edge22_Node000015_Node000023"><a xlink:title=" ">
<path fill="none" stroke="#63b8ff" d="M442.02,-181.57C457.42,-165.46 481.73,-142.1 506.5,-126.62 512.02,-123.18 518.1,-120.04 524.23,-117.24"/>
<polygon fill="#63b8ff" stroke="#63b8ff" points="439.75,-178.88 435.48,-188.57 444.86,-183.66 439.75,-178.88"/>
</a>
</g>
</g>
<!-- Node24 -->
<g id="Node000024" class="node">
<title>Node24</title>
<g id="a_Node000024"><a xlink:href="class_napi_1_1_typed_array_of.html" target="_top" xlink:title=" ">
<polygon fill="white" stroke="#666666" points="620.75,-67.88 518.5,-67.88 518.5,-37.38 620.75,-37.38 620.75,-67.88"/>
<text xml:space="preserve" text-anchor="start" x="526.5" y="-54.38" font-family="Helvetica,sans-Serif" font-size="10.00">Napi::TypedArrayOf</text>
<text xml:space="preserve" text-anchor="middle" x="569.62" y="-43.12" font-family="Helvetica,sans-Serif" font-size="10.00">&lt; double &gt;</text>
</a>
</g>
</g>
<!-- Node15&#45;&gt;Node24 -->
<g id="edge23_Node000015_Node000024" class="edge">
<title>Node15&#45;&gt;Node24</title>
<g id="a_edge23_Node000015_Node000024"><a xlink:title=" ">
<path fill="none" stroke="#63b8ff" d="M434.42,-179.19C446.87,-152.47 472.02,-105.74 506.5,-77.62 510.83,-74.1 515.71,-71.02 520.8,-68.33"/>
<polygon fill="#63b8ff" stroke="#63b8ff" points="431.26,-177.68 430.36,-188.24 437.65,-180.55 431.26,-177.68"/>
</a>
</g>
</g>
<!-- Node25 -->
<g id="Node000025" class="node">
<title>Node25</title>
<g id="a_Node000025"><a xlink:href="class_napi_1_1_typed_array_of.html" target="_top" xlink:title=" ">
<polygon fill="white" stroke="#666666" points="632.75,-19.25 506.5,-19.25 506.5,0 632.75,0 632.75,-19.25"/>
<text xml:space="preserve" text-anchor="middle" x="569.62" y="-5.75" font-family="Helvetica,sans-Serif" font-size="10.00">Napi::TypedArrayOf&lt; T &gt;</text>
</a>
</g>
</g>
<!-- Node15&#45;&gt;Node25 -->
<g id="edge24_Node000015_Node000025" class="edge">
<title>Node15&#45;&gt;Node25</title>
<g id="a_edge24_Node000015_Node000025"><a xlink:title=" ">
<path fill="none" stroke="#63b8ff" d="M429.73,-178.81C437.9,-142.88 459.61,-69.17 506.5,-28.62 510.68,-25.01 515.54,-22.08 520.66,-19.71"/>
<polygon fill="#63b8ff" stroke="#63b8ff" points="426.36,-177.84 427.7,-188.35 433.2,-179.3 426.36,-177.84"/>
</a>
</g>
</g>
<!-- Node18 -->
<g id="Node000018" class="node">
<title>Node18</title>
<g id="a_Node000018"><a xlink:href="class_napi_1_1_buffer.html" target="_top" xlink:title=" ">
<polygon fill="white" stroke="#666666" points="761.25,-356.25 668.75,-356.25 668.75,-337 761.25,-337 761.25,-356.25"/>
<text xml:space="preserve" text-anchor="middle" x="715" y="-342.75" font-family="Helvetica,sans-Serif" font-size="10.00">Napi::Buffer&lt; T &gt;</text>
</a>
</g>
</g>
<!-- Node17&#45;&gt;Node18 -->
<g id="edge17_Node000017_Node000018" class="edge">
<title>Node17&#45;&gt;Node18</title>
<g id="a_edge17_Node000017_Node000018"><a xlink:title=" ">
<path fill="none" stroke="#63b8ff" d="M632.63,-346.62C644.74,-346.62 657.24,-346.62 668.68,-346.62"/>
<polygon fill="#63b8ff" stroke="#63b8ff" points="632.69,-343.13 622.69,-346.63 632.69,-350.13 632.69,-343.13"/>
</a>
</g>
</g>
</g>
</svg>
