<?xml version="1.0" encoding="UTF-8" standalone="no"?>
<!DOCTYPE svg PUBLIC "-//W3C//DTD SVG 1.1//EN"
 "http://www.w3.org/Graphics/SVG/1.1/DTD/svg11.dtd">
<!-- Generated by graphviz version 14.0.4 (20251115.1723)
 -->
<!-- Title: PromiseRunner Pages: 1 -->
<svg width="486pt" height="83pt"
 viewBox="0.00 0.00 486.00 83.00" xmlns="http://www.w3.org/2000/svg" xmlns:xlink="http://www.w3.org/1999/xlink">

<svg id="main" version="1.1" xmlns="http://www.w3.org/2000/svg" xmlns:xlink="http://www.w3.org/1999/xlink" xml:space="preserve">

<style type="text/css"><![CDATA[
.node, .edge {opacity: 0.7;}
.node.selected, .edge.selected {opacity: 1;}
.edge:hover path { stroke: red; }
.edge:hover polygon { stroke: red; fill: red; }
]]></style>
<script type="application/ecmascript" xlink:href="svg.min.js"/>
<svg id="graph" class="graph">
<g id="graph0" class="graph" transform="scale(1 1) rotate(0) translate(4 78.5)">
<title>PromiseRunner</title>
<!-- Node1 -->
<g id="Node000001" class="node">
<title>Node1</title>
<g id="a_Node000001"><a xlink:title=" ">
<polygon fill="#999999" stroke="#666666" points="281.12,-74.5 197.62,-74.5 197.62,-55.25 281.12,-55.25 281.12,-74.5"/>
<text xml:space="preserve" text-anchor="middle" x="239.38" y="-61" font-family="Helvetica,sans-Serif" font-size="10.00">PromiseRunner</text>
</a>
</g>
</g>
<!-- Node2 -->
<g id="Node000002" class="node">
<title>Node2</title>
<g id="a_Node000002"><a xlink:href="class_get_events_since_runner.html" target="_top" xlink:title=" ">
<polygon fill="white" stroke="#666666" points="118.75,-19.25 0,-19.25 0,0 118.75,0 118.75,-19.25"/>
<text xml:space="preserve" text-anchor="middle" x="59.38" y="-5.75" font-family="Helvetica,sans-Serif" font-size="10.00">GetEventsSinceRunner</text>
</a>
</g>
</g>
<!-- Node1&#45;&gt;Node2 -->
<g id="edge1_Node000001_Node000002" class="edge">
<title>Node1&#45;&gt;Node2</title>
<g id="a_edge1_Node000001_Node000002"><a xlink:title=" ">
<path fill="none" stroke="#63b8ff" d="M198.19,-51.69C165.27,-41.95 119.85,-28.52 90.06,-19.7"/>
<polygon fill="#63b8ff" stroke="#63b8ff" points="196.81,-54.93 207.39,-54.41 198.79,-48.22 196.81,-54.93"/>
</a>
</g>
</g>
<!-- Node3 -->
<g id="Node000003" class="node">
<title>Node3</title>
<g id="a_Node000003"><a xlink:href="class_subscribe_runner.html" target="_top" xlink:title=" ">
<polygon fill="white" stroke="#666666" points="227.88,-19.25 136.88,-19.25 136.88,0 227.88,0 227.88,-19.25"/>
<text xml:space="preserve" text-anchor="middle" x="182.38" y="-5.75" font-family="Helvetica,sans-Serif" font-size="10.00">SubscribeRunner</text>
</a>
</g>
</g>
<!-- Node1&#45;&gt;Node3 -->
<g id="edge2_Node000001_Node000003" class="edge">
<title>Node1&#45;&gt;Node3</title>
<g id="a_edge2_Node000001_Node000003"><a xlink:title=" ">
<path fill="none" stroke="#63b8ff" d="M221.43,-47.11C211.64,-37.97 199.93,-27.03 191.9,-19.52"/>
<polygon fill="#63b8ff" stroke="#63b8ff" points="218.9,-49.54 228.6,-53.81 223.68,-44.42 218.9,-49.54"/>
</a>
</g>
</g>
<!-- Node4 -->
<g id="Node000004" class="node">
<title>Node4</title>
<g id="a_Node000004"><a xlink:href="class_unsubscribe_runner.html" target="_top" xlink:title=" ">
<polygon fill="white" stroke="#666666" points="348.5,-19.25 246.25,-19.25 246.25,0 348.5,0 348.5,-19.25"/>
<text xml:space="preserve" text-anchor="middle" x="297.38" y="-5.75" font-family="Helvetica,sans-Serif" font-size="10.00">UnsubscribeRunner</text>
</a>
</g>
</g>
<!-- Node1&#45;&gt;Node4 -->
<g id="edge3_Node000001_Node000004" class="edge">
<title>Node1&#45;&gt;Node4</title>
<g id="a_edge3_Node000001_Node000004"><a xlink:title=" ">
<path fill="none" stroke="#63b8ff" d="M257.64,-47.11C267.59,-37.97 279.51,-27.03 287.68,-19.52"/>
<polygon fill="#63b8ff" stroke="#63b8ff" points="255.33,-44.48 250.33,-53.82 260.06,-49.63 255.33,-44.48"/>
</a>
</g>
</g>
<!-- Node5 -->
<g id="Node000005" class="node">
<title>Node5</title>
<g id="a_Node000005"><a xlink:href="class_write_snapshot_runner.html" target="_top" xlink:title=" ">
<polygon fill="white" stroke="#666666" points="478,-19.25 366.75,-19.25 366.75,0 478,0 478,-19.25"/>
<text xml:space="preserve" text-anchor="middle" x="422.38" y="-5.75" font-family="Helvetica,sans-Serif" font-size="10.00">WriteSnapshotRunner</text>
</a>
</g>
</g>
<!-- Node1&#45;&gt;Node5 -->
<g id="edge4_Node000001_Node000005" class="edge">
<title>Node1&#45;&gt;Node5</title>
<g id="a_edge4_Node000001_Node000005"><a xlink:title=" ">
<path fill="none" stroke="#63b8ff" d="M281.24,-51.69C314.71,-41.95 360.89,-28.52 391.18,-19.7"/>
<polygon fill="#63b8ff" stroke="#63b8ff" points="280.5,-48.26 271.87,-54.42 282.45,-54.99 280.5,-48.26"/>
</a>
</g>
</g>
</g>
</svg>
</svg>

<style type='text/css'>
<![CDATA[
[data-mouse-over-selected='false'] { opacity: 0.7; }
[data-mouse-over-selected='true']  { opacity: 1.0; }
]]>
</style>
<script type="application/ecmascript"><![CDATA[
document.addEventListener('DOMContentLoaded', (event) => {
  highlightEdges();
  highlightAdjacentNodes();
});
]]></script>
</svg>
