<?xml version="1.0" encoding="UTF-8" standalone="no"?>
<!DOCTYPE svg PUBLIC "-//W3C//DTD SVG 1.1//EN"
 "http://www.w3.org/Graphics/SVG/1.1/DTD/svg11.dtd">
<!-- Generated by graphviz version 14.0.4 (20251115.1723)
 -->
<!-- Title: Napi::Name Pages: 1 -->
<svg width="170pt" height="138pt"
 viewBox="0.00 0.00 170.00 138.00" xmlns="http://www.w3.org/2000/svg" xmlns:xlink="http://www.w3.org/1999/xlink">
<g id="graph0" class="graph" transform="scale(1 1) rotate(0) translate(4 133.75)">
<title>Napi::Name</title>
<!-- Node1 -->
<g id="Node000001" class="node">
<title>Node1</title>
<g id="a_Node000001"><a xlink:title="A JavaScript string or symbol value (that can be used as a property name).">
<polygon fill="#999999" stroke="#666666" points="113.12,-74.5 44.62,-74.5 44.62,-55.25 113.12,-55.25 113.12,-74.5"/>
<text xml:space="preserve" text-anchor="middle" x="78.88" y="-61" font-family="Helvetica,sans-Serif" font-size="10.00">Napi::Name</text>
</a>
</g>
</g>
<!-- Node3 -->
<g id="Node000003" class="node">
<title>Node3</title>
<g id="a_Node000003"><a xlink:href="class_napi_1_1_string.html" target="_top" xlink:title="A JavaScript string value.">
<polygon fill="white" stroke="#666666" points="67.75,-19.25 0,-19.25 0,0 67.75,0 67.75,-19.25"/>
<text xml:space="preserve" text-anchor="middle" x="33.88" y="-5.75" font-family="Helvetica,sans-Serif" font-size="10.00">Napi::String</text>
</a>
</g>
</g>
<!-- Node1&#45;&gt;Node3 -->
<g id="edge2_Node000001_Node000003" class="edge">
<title>Node1&#45;&gt;Node3</title>
<g id="a_edge2_Node000001_Node000003"><a xlink:title=" ">
<path fill="none" stroke="#63b8ff" d="M64.2,-46.51C56.61,-37.53 47.67,-26.95 41.47,-19.61"/>
<polygon fill="#63b8ff" stroke="#63b8ff" points="61.34,-48.55 70.47,-53.93 66.69,-44.03 61.34,-48.55"/>
</a>
</g>
</g>
<!-- Node4 -->
<g id="Node000004" class="node">
<title>Node4</title>
<g id="a_Node000004"><a xlink:href="class_napi_1_1_symbol.html" target="_top" xlink:title="A JavaScript symbol value.">
<polygon fill="white" stroke="#666666" points="161.5,-19.25 86.25,-19.25 86.25,0 161.5,0 161.5,-19.25"/>
<text xml:space="preserve" text-anchor="middle" x="123.88" y="-5.75" font-family="Helvetica,sans-Serif" font-size="10.00">Napi::Symbol</text>
</a>
</g>
</g>
<!-- Node1&#45;&gt;Node4 -->
<g id="edge3_Node000001_Node000004" class="edge">
<title>Node1&#45;&gt;Node4</title>
<g id="a_edge3_Node000001_Node000004"><a xlink:title=" ">
<path fill="none" stroke="#63b8ff" d="M93.55,-46.51C101.14,-37.53 110.08,-26.95 116.28,-19.61"/>
<polygon fill="#63b8ff" stroke="#63b8ff" points="91.06,-44.03 87.28,-53.93 96.41,-48.55 91.06,-44.03"/>
</a>
</g>
</g>
<!-- Node2 -->
<g id="Node000002" class="node">
<title>Node2</title>
<g id="a_Node000002"><a xlink:href="class_napi_1_1_value.html" target="_top" xlink:title=" ">
<polygon fill="white" stroke="#666666" points="112,-129.75 45.75,-129.75 45.75,-110.5 112,-110.5 112,-129.75"/>
<text xml:space="preserve" text-anchor="middle" x="78.88" y="-116.25" font-family="Helvetica,sans-Serif" font-size="10.00">Napi::Value</text>
</a>
</g>
</g>
<!-- Node2&#45;&gt;Node1 -->
<g id="edge1_Node000001_Node000002" class="edge">
<title>Node2&#45;&gt;Node1</title>
<g id="a_edge1_Node000001_Node000002"><a xlink:title=" ">
<path fill="none" stroke="#63b8ff" d="M78.88,-98.88C78.88,-90.59 78.88,-81.42 78.88,-74.86"/>
<polygon fill="#63b8ff" stroke="#63b8ff" points="75.38,-98.82 78.88,-108.82 82.38,-98.82 75.38,-98.82"/>
</a>
</g>
</g>
</g>
</svg>
