<?xml version="1.0" encoding="UTF-8" standalone="no"?>
<!DOCTYPE svg PUBLIC "-//W3C//DTD SVG 1.1//EN"
 "http://www.w3.org/Graphics/SVG/1.1/DTD/svg11.dtd">
<!-- Generated by graphviz version 14.0.4 (20251115.1723)
 -->
<!-- Title: Napi::ObjectReference Pages: 1 -->
<svg width="202pt" height="193pt"
 viewBox="0.00 0.00 202.00 193.00" xmlns="http://www.w3.org/2000/svg" xmlns:xlink="http://www.w3.org/1999/xlink">

<svg id="main" version="1.1" xmlns="http://www.w3.org/2000/svg" xmlns:xlink="http://www.w3.org/1999/xlink" xml:space="preserve">

<style type="text/css"><![CDATA[
.node, .edge {opacity: 0.7;}
.node.selected, .edge.selected {opacity: 1;}
.edge:hover path { stroke: red; }
.edge:hover polygon { stroke: red; fill: red; }
]]></style>
<script type="application/ecmascript" xlink:href="svg.min.js"/>
<svg id="graph" class="graph">
<g id="graph0" class="graph" transform="scale(1 1) rotate(0) translate(4 189)">
<title>Napi::ObjectReference</title>
<!-- Node1 -->
<g id="Node000001" class="node">
<title>Node1</title>
<g id="a_Node000001"><a xlink:title=" ">
<polygon fill="#999999" stroke="#666666" points="156.75,-129.75 41,-129.75 41,-110.5 156.75,-110.5 156.75,-129.75"/>
<text xml:space="preserve" text-anchor="middle" x="98.88" y="-116.25" font-family="Helvetica,sans-Serif" font-size="10.00">Napi::ObjectReference</text>
</a>
</g>
</g>
<!-- Node3 -->
<g id="Node000003" class="node">
<title>Node3</title>
<g id="a_Node000003"><a xlink:href="class_napi_1_1_error.html" target="_top" xlink:title=" ">
<polygon fill="white" stroke="#666666" points="130.5,-74.5 67.25,-74.5 67.25,-55.25 130.5,-55.25 130.5,-74.5"/>
<text xml:space="preserve" text-anchor="middle" x="98.88" y="-61" font-family="Helvetica,sans-Serif" font-size="10.00">Napi::Error</text>
</a>
</g>
</g>
<!-- Node1&#45;&gt;Node3 -->
<g id="edge2_Node000001_Node000003" class="edge">
<title>Node1&#45;&gt;Node3</title>
<g id="a_edge2_Node000001_Node000003"><a xlink:title=" ">
<path fill="none" stroke="#63b8ff" d="M98.88,-98.88C98.88,-90.59 98.88,-81.42 98.88,-74.86"/>
<polygon fill="#63b8ff" stroke="#63b8ff" points="95.38,-98.82 98.88,-108.82 102.38,-98.82 95.38,-98.82"/>
</a>
</g>
</g>
<!-- Node2 -->
<g id="Node000002" class="node">
<title>Node2</title>
<g id="a_Node000002"><a xlink:href="class_napi_1_1_reference.html" target="_top" xlink:title=" ">
<polygon fill="white" stroke="#666666" points="165.75,-185 32,-185 32,-165.75 165.75,-165.75 165.75,-185"/>
<text xml:space="preserve" text-anchor="middle" x="98.88" y="-171.5" font-family="Helvetica,sans-Serif" font-size="10.00">Napi::Reference&lt; Object &gt;</text>
</a>
</g>
</g>
<!-- Node2&#45;&gt;Node1 -->
<g id="edge1_Node000001_Node000002" class="edge">
<title>Node2&#45;&gt;Node1</title>
<g id="a_edge1_Node000001_Node000002"><a xlink:title=" ">
<path fill="none" stroke="#63b8ff" d="M98.88,-154.13C98.88,-145.84 98.88,-136.67 98.88,-130.11"/>
<polygon fill="#63b8ff" stroke="#63b8ff" points="95.38,-154.07 98.88,-164.07 102.38,-154.07 95.38,-154.07"/>
</a>
</g>
</g>
<!-- Node4 -->
<g id="Node000004" class="node">
<title>Node4</title>
<g id="a_Node000004"><a xlink:href="class_napi_1_1_range_error.html" target="_top" xlink:title=" ">
<polygon fill="white" stroke="#666666" points="91.75,-19.25 0,-19.25 0,0 91.75,0 91.75,-19.25"/>
<text xml:space="preserve" text-anchor="middle" x="45.88" y="-5.75" font-family="Helvetica,sans-Serif" font-size="10.00">Napi::RangeError</text>
</a>
</g>
</g>
<!-- Node3&#45;&gt;Node4 -->
<g id="edge3_Node000003_Node000004" class="edge">
<title>Node3&#45;&gt;Node4</title>
<g id="a_edge3_Node000003_Node000004"><a xlink:title=" ">
<path fill="none" stroke="#63b8ff" d="M82.15,-47.07C73.1,-37.98 62.27,-27.1 54.82,-19.61"/>
<polygon fill="#63b8ff" stroke="#63b8ff" points="79.52,-49.39 89.06,-54.01 84.48,-44.45 79.52,-49.39"/>
</a>
</g>
</g>
<!-- Node5 -->
<g id="Node000005" class="node">
<title>Node5</title>
<g id="a_Node000005"><a xlink:href="class_napi_1_1_type_error.html" target="_top" xlink:title=" ">
<polygon fill="white" stroke="#666666" points="194,-19.25 109.75,-19.25 109.75,0 194,0 194,-19.25"/>
<text xml:space="preserve" text-anchor="middle" x="151.88" y="-5.75" font-family="Helvetica,sans-Serif" font-size="10.00">Napi::TypeError</text>
</a>
</g>
</g>
<!-- Node3&#45;&gt;Node5 -->
<g id="edge4_Node000003_Node000005" class="edge">
<title>Node3&#45;&gt;Node5</title>
<g id="a_edge4_Node000003_Node000005"><a xlink:title=" ">
<path fill="none" stroke="#63b8ff" d="M115.6,-47.07C124.65,-37.98 135.48,-27.1 142.93,-19.61"/>
<polygon fill="#63b8ff" stroke="#63b8ff" points="113.27,-44.45 108.69,-54.01 118.23,-49.39 113.27,-44.45"/>
</a>
</g>
</g>
</g>
</svg>
</svg>

<style type='text/css'>
<![CDATA[
[data-mouse-over-selected='false'] { opacity: 0.7; }
[data-mouse-over-selected='true']  { opacity: 1.0; }
]]>
</style>
<script type="application/ecmascript"><![CDATA[
document.addEventListener('DOMContentLoaded', (event) => {
  highlightEdges();
  highlightAdjacentNodes();
});
]]></script>
</svg>
