<?xml version="1.0" encoding="UTF-8" standalone="no"?>
<!DOCTYPE svg PUBLIC "-//W3C//DTD SVG 1.1//EN"
 "http://www.w3.org/Graphics/SVG/1.1/DTD/svg11.dtd">
<!-- Generated by graphviz version 14.0.4 (20251115.1723)
 -->
<!-- Title: PromiseRunner Pages: 1 -->
<svg width="208pt" height="100pt"
 viewBox="0.00 0.00 208.00 100.00" xmlns="http://www.w3.org/2000/svg" xmlns:xlink="http://www.w3.org/1999/xlink">
<g id="graph0" class="graph" transform="scale(1 1) rotate(0) translate(4 95.75)">
<title>PromiseRunner</title>
<!-- Node1 -->
<g id="Node000001" class="node">
<title>Node1</title>
<g id="a_Node000001"><a xlink:title=" ">
<polygon fill="#999999" stroke="#666666" points="125.5,-19.25 42,-19.25 42,0 125.5,0 125.5,-19.25"/>
<text xml:space="preserve" text-anchor="middle" x="83.75" y="-5.75" font-family="Helvetica,sans-Serif" font-size="10.00">PromiseRunner</text>
</a>
</g>
</g>
<!-- Node2 -->
<g id="Node000002" class="node">
<title>Node2</title>
<g id="a_Node000002"><a xlink:href="class_napi_1_1_env.html" target="_top" xlink:title=" ">
<polygon fill="white" stroke="#666666" points="59.5,-91.75 0,-91.75 0,-72.5 59.5,-72.5 59.5,-91.75"/>
<text xml:space="preserve" text-anchor="middle" x="29.75" y="-78.25" font-family="Helvetica,sans-Serif" font-size="10.00">Napi::Env</text>
</a>
</g>
</g>
<!-- Node2&#45;&gt;Node1 -->
<g id="edge1_Node000001_Node000002" class="edge">
<title>Node2&#45;&gt;Node1</title>
<g id="a_edge1_Node000001_Node000002"><a xlink:title=" ">
<path fill="none" stroke="#9a32cd" stroke-dasharray="5,2" d="M43.55,-63.1C54.18,-49.23 68.43,-30.63 76.8,-19.7"/>
<polygon fill="#9a32cd" stroke="#9a32cd" points="40.81,-60.93 37.51,-70.99 46.37,-65.18 40.81,-60.93"/>
</a>
</g>
<text xml:space="preserve" text-anchor="start" x="66.17" y="-42" font-family="Helvetica,sans-Serif" font-size="10.00" fill="grey">env</text>
</g>
<!-- Node3 -->
<g id="Node000003" class="node">
<title>Node3</title>
<g id="a_Node000003"><a xlink:href="class_napi_1_1_promise_1_1_deferred.html" target="_top" xlink:title=" ">
<polygon fill="white" stroke="#666666" points="199.62,-91.75 77.88,-91.75 77.88,-72.5 199.62,-72.5 199.62,-91.75"/>
<text xml:space="preserve" text-anchor="middle" x="138.75" y="-78.25" font-family="Helvetica,sans-Serif" font-size="10.00">Napi::Promise::Deferred</text>
</a>
</g>
</g>
<!-- Node3&#45;&gt;Node1 -->
<g id="edge2_Node000001_Node000003" class="edge">
<title>Node3&#45;&gt;Node1</title>
<g id="a_edge2_Node000001_Node000003"><a xlink:title=" ">
<path fill="none" stroke="#9a32cd" stroke-dasharray="5,2" d="M125.01,-63.51C114.15,-49.59 99.44,-30.73 90.83,-19.7"/>
<polygon fill="#9a32cd" stroke="#9a32cd" points="121.94,-65.27 130.85,-71 127.46,-60.97 121.94,-65.27"/>
</a>
</g>
<text xml:space="preserve" text-anchor="start" x="120.79" y="-42" font-family="Helvetica,sans-Serif" font-size="10.00" fill="grey">deferred</text>
</g>
</g>
</svg>
