<?xml version="1.0" encoding="UTF-8" standalone="no"?>
<!DOCTYPE svg PUBLIC "-//W3C//DTD SVG 1.1//EN"
 "http://www.w3.org/Graphics/SVG/1.1/DTD/svg11.dtd">
<!-- Generated by graphviz version 14.0.4 (20251115.1723)
 -->
<!-- Title: com.goldenleaf.shop.model.User Pages: 1 -->
<svg width="302pt" height="94pt"
 viewBox="0.00 0.00 302.00 94.00" xmlns="http://www.w3.org/2000/svg" xmlns:xlink="http://www.w3.org/1999/xlink">
<g id="graph0" class="graph" transform="scale(1 1) rotate(0) translate(4 89.75)">
<title>com.goldenleaf.shop.model.User</title>
<!-- Node1 -->
<g id="Node000001" class="node">
<title>Node1</title>
<g id="a_Node000001"><a xlink:title=" ">
<polygon fill="#999999" stroke="#666666" points="226.75,-85.75 67.5,-85.75 67.5,-66.5 226.75,-66.5 226.75,-85.75"/>
<text xml:space="preserve" text-anchor="middle" x="147.12" y="-72.25" font-family="Helvetica,sans-Serif" font-size="10.00">com.goldenleaf.shop.model.User</text>
</a>
</g>
</g>
<!-- Node2 -->
<g id="Node000002" class="node">
<title>Node2</title>
<g id="a_Node000002"><a xlink:href="classcom_1_1goldenleaf_1_1shop_1_1model_1_1_admin.html" target="_top" xlink:title=" ">
<polygon fill="white" stroke="#666666" points="138.25,-30.5 0,-30.5 0,0 138.25,0 138.25,-30.5"/>
<text xml:space="preserve" text-anchor="start" x="8" y="-17" font-family="Helvetica,sans-Serif" font-size="10.00">com.goldenleaf.shop.model.</text>
<text xml:space="preserve" text-anchor="middle" x="69.12" y="-5.75" font-family="Helvetica,sans-Serif" font-size="10.00">Admin</text>
</a>
</g>
</g>
<!-- Node1&#45;&gt;Node2 -->
<g id="edge1_Node000001_Node000002" class="edge">
<title>Node1&#45;&gt;Node2</title>
<g id="a_edge1_Node000001_Node000002"><a xlink:title=" ">
<path fill="none" stroke="#63b8ff" d="M126.19,-59.32C114.43,-50.45 99.85,-39.44 88.38,-30.78"/>
<polygon fill="#63b8ff" stroke="#63b8ff" points="123.98,-62.04 134.07,-65.27 128.2,-56.45 123.98,-62.04"/>
</a>
</g>
</g>
<!-- Node3 -->
<g id="Node000003" class="node">
<title>Node3</title>
<g id="a_Node000003"><a xlink:href="classcom_1_1goldenleaf_1_1shop_1_1model_1_1_customer.html" target="_top" xlink:title=" ">
<polygon fill="white" stroke="#666666" points="294.25,-30.5 156,-30.5 156,0 294.25,0 294.25,-30.5"/>
<text xml:space="preserve" text-anchor="start" x="164" y="-17" font-family="Helvetica,sans-Serif" font-size="10.00">com.goldenleaf.shop.model.</text>
<text xml:space="preserve" text-anchor="middle" x="225.12" y="-5.75" font-family="Helvetica,sans-Serif" font-size="10.00">Customer</text>
</a>
</g>
</g>
<!-- Node1&#45;&gt;Node3 -->
<g id="edge2_Node000001_Node000003" class="edge">
<title>Node1&#45;&gt;Node3</title>
<g id="a_edge2_Node000001_Node000003"><a xlink:title=" ">
<path fill="none" stroke="#63b8ff" d="M168.06,-59.32C179.82,-50.45 194.4,-39.44 205.87,-30.78"/>
<polygon fill="#63b8ff" stroke="#63b8ff" points="166.05,-56.45 160.18,-65.27 170.27,-62.04 166.05,-56.45"/>
</a>
</g>
</g>
</g>
</svg>
