<?xml version="1.0" encoding="UTF-8" standalone="no"?>
<!DOCTYPE svg PUBLIC "-//W3C//DTD SVG 1.1//EN"
 "http://www.w3.org/Graphics/SVG/1.1/DTD/svg11.dtd">
<!-- Generated by graphviz version 14.0.4 (20251115.1723)
 -->
<!-- Title: BSERValue Pages: 1 -->
<svg width="347pt" height="286pt"
 viewBox="0.00 0.00 347.00 286.00" xmlns="http://www.w3.org/2000/svg" xmlns:xlink="http://www.w3.org/1999/xlink">

<svg id="main" version="1.1" xmlns="http://www.w3.org/2000/svg" xmlns:xlink="http://www.w3.org/1999/xlink" xml:space="preserve">

<style type="text/css"><![CDATA[
.node, .edge {opacity: 0.7;}
.node.selected, .edge.selected {opacity: 1;}
.edge:hover path { stroke: red; }
.edge:hover polygon { stroke: red; fill: red; }
]]></style>
<script type="application/ecmascript" xlink:href="svg.min.js"/>
<svg id="graph" class="graph">
<g id="graph0" class="graph" transform="scale(1 1) rotate(0) translate(4 282.25)">
<title>BSERValue</title>
<!-- Node1 -->
<g id="Node000001" class="node">
<title>Node1</title>
<g id="a_Node000001"><a xlink:title=" ">
<polygon fill="#999999" stroke="#666666" points="67.75,-130.25 0,-130.25 0,-111 67.75,-111 67.75,-130.25"/>
<text xml:space="preserve" text-anchor="middle" x="33.88" y="-116.75" font-family="Helvetica,sans-Serif" font-size="10.00">BSERValue</text>
</a>
</g>
</g>
<!-- Node2 -->
<g id="Node000002" class="node">
<title>Node2</title>
<g id="a_Node000002"><a xlink:href="class_value.html" target="_top" xlink:title=" ">
<polygon fill="white" stroke="#666666" points="221.38,-260.25 106.38,-260.25 106.38,-241 221.38,-241 221.38,-260.25"/>
<text xml:space="preserve" text-anchor="middle" x="163.88" y="-246.75" font-family="Helvetica,sans-Serif" font-size="10.00">Value&lt; BSER::Array &gt;</text>
</a>
</g>
</g>
<!-- Node1&#45;&gt;Node2 -->
<g id="edge1_Node000001_Node000002" class="edge">
<title>Node1&#45;&gt;Node2</title>
<g id="a_edge1_Node000001_Node000002"><a xlink:title=" ">
<path fill="none" stroke="#63b8ff" d="M46.27,-140.13C58.64,-160.19 79.87,-191.54 103.75,-213.62 115.49,-224.48 130.84,-233.97 142.96,-240.63"/>
<polygon fill="#63b8ff" stroke="#63b8ff" points="49.43,-138.59 41.27,-131.83 43.43,-142.2 49.43,-138.59"/>
</a>
</g>
</g>
<!-- Node4 -->
<g id="Node000004" class="node">
<title>Node4</title>
<g id="a_Node000004"><a xlink:href="class_value.html" target="_top" xlink:title=" ">
<polygon fill="white" stroke="#666666" points="201.88,-204.25 125.88,-204.25 125.88,-185 201.88,-185 201.88,-204.25"/>
<text xml:space="preserve" text-anchor="middle" x="163.88" y="-190.75" font-family="Helvetica,sans-Serif" font-size="10.00">Value&lt; bool &gt;</text>
</a>
</g>
</g>
<!-- Node1&#45;&gt;Node4 -->
<g id="edge3_Node000001_Node000004" class="edge">
<title>Node1&#45;&gt;Node4</title>
<g id="a_edge3_Node000001_Node000004"><a xlink:title=" ">
<path fill="none" stroke="#63b8ff" d="M52.82,-138.52C65.96,-150.75 84.74,-166.51 103.75,-176.62 110.48,-180.2 118.02,-183.18 125.41,-185.62"/>
<polygon fill="#63b8ff" stroke="#63b8ff" points="55.43,-136.17 45.79,-131.78 50.59,-141.23 55.43,-136.17"/>
</a>
</g>
</g>
<!-- Node7 -->
<g id="Node000007" class="node">
<title>Node7</title>
<g id="a_Node000007"><a xlink:href="class_value.html" target="_top" xlink:title=" ">
<polygon fill="white" stroke="#666666" points="207.12,-167.25 120.62,-167.25 120.62,-148 207.12,-148 207.12,-167.25"/>
<text xml:space="preserve" text-anchor="middle" x="163.88" y="-153.75" font-family="Helvetica,sans-Serif" font-size="10.00">Value&lt; double &gt;</text>
</a>
</g>
</g>
<!-- Node1&#45;&gt;Node7 -->
<g id="edge6_Node000001_Node000007" class="edge">
<title>Node1&#45;&gt;Node7</title>
<g id="a_edge6_Node000001_Node000007"><a xlink:title=" ">
<path fill="none" stroke="#63b8ff" d="M78.91,-133.36C94.94,-137.99 112.83,-143.16 127.96,-147.53"/>
<polygon fill="#63b8ff" stroke="#63b8ff" points="80.2,-130.08 69.63,-130.67 78.26,-136.81 80.2,-130.08"/>
</a>
</g>
</g>
<!-- Node9 -->
<g id="Node000009" class="node">
<title>Node9</title>
<g id="a_Node000009"><a xlink:href="class_value.html" target="_top" xlink:title=" ">
<polygon fill="white" stroke="#666666" points="207.5,-130.25 120.25,-130.25 120.25,-111 207.5,-111 207.5,-130.25"/>
<text xml:space="preserve" text-anchor="middle" x="163.88" y="-116.75" font-family="Helvetica,sans-Serif" font-size="10.00">Value&lt; int64_t &gt;</text>
</a>
</g>
</g>
<!-- Node1&#45;&gt;Node9 -->
<g id="edge8_Node000001_Node000009" class="edge">
<title>Node1&#45;&gt;Node9</title>
<g id="a_edge8_Node000001_Node000009"><a xlink:title=" ">
<path fill="none" stroke="#63b8ff" d="M79.39,-120.62C92.58,-120.62 107,-120.62 120.08,-120.62"/>
<polygon fill="#63b8ff" stroke="#63b8ff" points="79.68,-117.13 69.68,-120.63 79.68,-124.13 79.68,-117.13"/>
</a>
</g>
</g>
<!-- Node11 -->
<g id="Node000011" class="node">
<title>Node11</title>
<g id="a_Node000011"><a xlink:href="class_value.html" target="_top" xlink:title=" ">
<polygon fill="white" stroke="#666666" points="224,-93.25 103.75,-93.25 103.75,-74 224,-74 224,-93.25"/>
<text xml:space="preserve" text-anchor="middle" x="163.88" y="-79.75" font-family="Helvetica,sans-Serif" font-size="10.00">Value&lt; BSER::Object &gt;</text>
</a>
</g>
</g>
<!-- Node1&#45;&gt;Node11 -->
<g id="edge10_Node000001_Node000011" class="edge">
<title>Node1&#45;&gt;Node11</title>
<g id="a_edge10_Node000001_Node000011"><a xlink:title=" ">
<path fill="none" stroke="#63b8ff" d="M78.91,-107.89C94.94,-103.26 112.83,-98.09 127.96,-93.72"/>
<polygon fill="#63b8ff" stroke="#63b8ff" points="78.26,-104.44 69.63,-110.58 80.2,-111.17 78.26,-104.44"/>
</a>
</g>
</g>
<!-- Node13 -->
<g id="Node000013" class="node">
<title>Node13</title>
<g id="a_Node000013"><a xlink:href="class_value.html" target="_top" xlink:title=" ">
<polygon fill="white" stroke="#666666" points="214.62,-56.25 113.12,-56.25 113.12,-37 214.62,-37 214.62,-56.25"/>
<text xml:space="preserve" text-anchor="middle" x="163.88" y="-42.75" font-family="Helvetica,sans-Serif" font-size="10.00">Value&lt; std::string &gt;</text>
</a>
</g>
</g>
<!-- Node1&#45;&gt;Node13 -->
<g id="edge12_Node000001_Node000013" class="edge">
<title>Node1&#45;&gt;Node13</title>
<g id="a_edge12_Node000001_Node000013"><a xlink:title=" ">
<path fill="none" stroke="#63b8ff" d="M52.82,-102.73C65.96,-90.5 84.74,-74.74 103.75,-64.62 109.53,-61.55 115.91,-58.92 122.28,-56.69"/>
<polygon fill="#63b8ff" stroke="#63b8ff" points="50.59,-100.02 45.79,-109.47 55.43,-105.08 50.59,-100.02"/>
</a>
</g>
</g>
<!-- Node15 -->
<g id="Node000015" class="node">
<title>Node15</title>
<g id="a_Node000015"><a xlink:href="class_value.html" target="_top" xlink:title=" ">
<polygon fill="white" stroke="#666666" points="195.88,-19.25 131.88,-19.25 131.88,0 195.88,0 195.88,-19.25"/>
<text xml:space="preserve" text-anchor="middle" x="163.88" y="-5.75" font-family="Helvetica,sans-Serif" font-size="10.00">Value&lt; T &gt;</text>
</a>
</g>
</g>
<!-- Node1&#45;&gt;Node15 -->
<g id="edge14_Node000001_Node000015" class="edge">
<title>Node1&#45;&gt;Node15</title>
<g id="a_edge14_Node000001_Node000015"><a xlink:title=" ">
<path fill="none" stroke="#63b8ff" d="M44.82,-100.43C56.23,-79.28 76.89,-46.57 103.75,-27.62 111.9,-21.87 121.94,-17.92 131.41,-15.23"/>
<polygon fill="#63b8ff" stroke="#63b8ff" points="41.76,-98.73 40.27,-109.22 47.98,-101.94 41.76,-98.73"/>
</a>
</g>
</g>
<!-- Node3 -->
<g id="Node000003" class="node">
<title>Node3</title>
<g id="a_Node000003"><a xlink:href="class_b_s_e_r_array.html" target="_top" xlink:title=" ">
<polygon fill="white" stroke="#666666" points="333,-278.25 266,-278.25 266,-259 333,-259 333,-278.25"/>
<text xml:space="preserve" text-anchor="middle" x="299.5" y="-264.75" font-family="Helvetica,sans-Serif" font-size="10.00">BSERArray</text>
</a>
</g>
</g>
<!-- Node2&#45;&gt;Node3 -->
<g id="edge2_Node000002_Node000003" class="edge">
<title>Node2&#45;&gt;Node3</title>
<g id="a_edge2_Node000002_Node000003"><a xlink:title=" ">
<path fill="none" stroke="#63b8ff" d="M232.94,-259.79C244.36,-261.33 255.74,-262.87 265.73,-264.21"/>
<polygon fill="#63b8ff" stroke="#63b8ff" points="233.42,-256.33 223.04,-258.46 232.49,-263.26 233.42,-256.33"/>
</a>
</g>
</g>
<!-- Node5 -->
<g id="Node000005" class="node">
<title>Node5</title>
<g id="a_Node000005"><a xlink:href="class_b_s_e_r_boolean.html" target="_top" xlink:title=" ">
<polygon fill="white" stroke="#666666" points="339,-241.25 260,-241.25 260,-222 339,-222 339,-241.25"/>
<text xml:space="preserve" text-anchor="middle" x="299.5" y="-227.75" font-family="Helvetica,sans-Serif" font-size="10.00">BSERBoolean</text>
</a>
</g>
</g>
<!-- Node4&#45;&gt;Node5 -->
<g id="edge4_Node000004_Node000005" class="edge">
<title>Node4&#45;&gt;Node5</title>
<g id="a_edge4_Node000004_Node000005"><a xlink:title=" ">
<path fill="none" stroke="#63b8ff" d="M212.37,-207.78C228.7,-212.3 246.72,-217.29 262.03,-221.53"/>
<polygon fill="#63b8ff" stroke="#63b8ff" points="213.42,-204.43 202.85,-205.14 211.55,-211.18 213.42,-204.43"/>
</a>
</g>
</g>
<!-- Node6 -->
<g id="Node000006" class="node">
<title>Node6</title>
<g id="a_Node000006"><a xlink:href="class_b_s_e_r_null.html" target="_top" xlink:title=" ">
<polygon fill="white" stroke="#666666" points="330,-204.25 269,-204.25 269,-185 330,-185 330,-204.25"/>
<text xml:space="preserve" text-anchor="middle" x="299.5" y="-190.75" font-family="Helvetica,sans-Serif" font-size="10.00">BSERNull</text>
</a>
</g>
</g>
<!-- Node4&#45;&gt;Node6 -->
<g id="edge5_Node000004_Node000006" class="edge">
<title>Node4&#45;&gt;Node6</title>
<g id="a_edge5_Node000004_Node000006"><a xlink:title=" ">
<path fill="none" stroke="#63b8ff" d="M213.57,-194.62C232.01,-194.62 252.45,-194.62 268.66,-194.62"/>
<polygon fill="#63b8ff" stroke="#63b8ff" points="213.61,-191.13 203.61,-194.63 213.61,-198.13 213.61,-191.13"/>
</a>
</g>
</g>
<!-- Node8 -->
<g id="Node000008" class="node">
<title>Node8</title>
<g id="a_Node000008"><a xlink:href="class_b_s_e_r_double.html" target="_top" xlink:title=" ">
<polygon fill="white" stroke="#666666" points="336.75,-167.25 262.25,-167.25 262.25,-148 336.75,-148 336.75,-167.25"/>
<text xml:space="preserve" text-anchor="middle" x="299.5" y="-153.75" font-family="Helvetica,sans-Serif" font-size="10.00">BSERDouble</text>
</a>
</g>
</g>
<!-- Node7&#45;&gt;Node8 -->
<g id="edge7_Node000007_Node000008" class="edge">
<title>Node7&#45;&gt;Node8</title>
<g id="a_edge7_Node000007_Node000008"><a xlink:title=" ">
<path fill="none" stroke="#63b8ff" d="M218.93,-157.62C233.44,-157.62 248.79,-157.62 262.09,-157.62"/>
<polygon fill="#63b8ff" stroke="#63b8ff" points="219.04,-154.13 209.04,-157.63 219.04,-161.13 219.04,-154.13"/>
</a>
</g>
</g>
<!-- Node10 -->
<g id="Node000010" class="node">
<title>Node10</title>
<g id="a_Node000010"><a xlink:href="class_b_s_e_r_integer.html" target="_top" xlink:title=" ">
<polygon fill="white" stroke="#666666" points="336.38,-130.25 262.62,-130.25 262.62,-111 336.38,-111 336.38,-130.25"/>
<text xml:space="preserve" text-anchor="middle" x="299.5" y="-116.75" font-family="Helvetica,sans-Serif" font-size="10.00">BSERInteger</text>
</a>
</g>
</g>
<!-- Node9&#45;&gt;Node10 -->
<g id="edge9_Node000009_Node000010" class="edge">
<title>Node9&#45;&gt;Node10</title>
<g id="a_edge9_Node000009_Node000010"><a xlink:title=" ">
<path fill="none" stroke="#63b8ff" d="M219.28,-120.62C233.76,-120.62 249.04,-120.62 262.29,-120.62"/>
<polygon fill="#63b8ff" stroke="#63b8ff" points="219.4,-117.13 209.4,-120.63 219.4,-124.13 219.4,-117.13"/>
</a>
</g>
</g>
<!-- Node12 -->
<g id="Node000012" class="node">
<title>Node12</title>
<g id="a_Node000012"><a xlink:href="class_b_s_e_r_object.html" target="_top" xlink:title=" ">
<polygon fill="white" stroke="#666666" points="335.62,-93.25 263.38,-93.25 263.38,-74 335.62,-74 335.62,-93.25"/>
<text xml:space="preserve" text-anchor="middle" x="299.5" y="-79.75" font-family="Helvetica,sans-Serif" font-size="10.00">BSERObject</text>
</a>
</g>
</g>
<!-- Node11&#45;&gt;Node12 -->
<g id="edge11_Node000011_Node000012" class="edge">
<title>Node11&#45;&gt;Node12</title>
<g id="a_edge11_Node000011_Node000012"><a xlink:title=" ">
<path fill="none" stroke="#63b8ff" d="M235.48,-83.62C245.04,-83.62 254.5,-83.62 263.06,-83.62"/>
<polygon fill="#63b8ff" stroke="#63b8ff" points="235.78,-80.13 225.78,-83.63 235.78,-87.13 235.78,-80.13"/>
</a>
</g>
</g>
<!-- Node14 -->
<g id="Node000014" class="node">
<title>Node14</title>
<g id="a_Node000014"><a xlink:href="class_b_s_e_r_string.html" target="_top" xlink:title=" ">
<polygon fill="white" stroke="#666666" points="334.12,-56.25 264.88,-56.25 264.88,-37 334.12,-37 334.12,-56.25"/>
<text xml:space="preserve" text-anchor="middle" x="299.5" y="-42.75" font-family="Helvetica,sans-Serif" font-size="10.00">BSERString</text>
</a>
</g>
</g>
<!-- Node13&#45;&gt;Node14 -->
<g id="edge13_Node000013_Node000014" class="edge">
<title>Node13&#45;&gt;Node14</title>
<g id="a_edge13_Node000013_Node000014"><a xlink:title=" ">
<path fill="none" stroke="#63b8ff" d="M226.46,-46.62C239.63,-46.62 253.07,-46.62 264.72,-46.62"/>
<polygon fill="#63b8ff" stroke="#63b8ff" points="226.53,-43.13 216.53,-46.63 226.53,-50.13 226.53,-43.13"/>
</a>
</g>
</g>
</g>
</svg>
</svg>

<style type='text/css'>
<![CDATA[
[data-mouse-over-selected='false'] { opacity: 0.7; }
[data-mouse-over-selected='true']  { opacity: 1.0; }
]]>
</style>
<script type="application/ecmascript"><![CDATA[
document.addEventListener('DOMContentLoaded', (event) => {
  highlightEdges();
  highlightAdjacentNodes();
});
]]></script>
</svg>
