<?xml version="1.0" encoding="UTF-8" standalone="no"?>
<!DOCTYPE svg PUBLIC "-//W3C//DTD SVG 1.1//EN"
 "http://www.w3.org/Graphics/SVG/1.1/DTD/svg11.dtd">
<!-- Generated by graphviz version 14.0.4 (20251115.1723)
 -->
<!-- Title: Napi::TypeTaggable Pages: 1 -->
<!--zoomable 419 -->

<svg id="main" version="1.1" xmlns="http://www.w3.org/2000/svg" xmlns:xlink="http://www.w3.org/1999/xlink" xml:space="preserve" onload="init(evt)">

<style type="text/css"><![CDATA[
.node, .edge {opacity: 0.7;}
.node.selected, .edge.selected {opacity: 1;}
.edge:hover path { stroke: red; }
.edge:hover polygon { stroke: red; fill: red; }
]]></style>

<defs>
  <circle id="rim" cx="0" cy="0" r="7"/>
  <circle id="rim2" cx="0" cy="0" r="3.5"/>
  <g id="zoomPlus">
    <use xlink:href="#rim" fill="#404040"><set attributeName="fill" to="#808080" begin="zoomplus.mouseover" end="zoomplus.mouseout"/></use>
    <path d="M-4,0h8M0,-4v8" fill="none" stroke="white" stroke-width="1.5" pointer-events="none"/>
  </g>
  <g id="zoomMin">
    <use xlink:href="#rim" fill="#404040"><set attributeName="fill" to="#808080" begin="zoomminus.mouseover" end="zoomminus.mouseout"/></use>
    <path d="M-4,0h8" fill="none" stroke="white" stroke-width="1.5" pointer-events="none"/>
  </g>
  <g id="arrowUp" transform="translate(30 24)">
    <use xlink:href="#rim"/>
    <path pointer-events="none" fill="none" stroke="white" stroke-width="1.5" d="M0,-3.0v7 M-2.5,-0.5L0,-3.0L2.5,-0.5"/>
  </g>
  <g id="arrowRight" transform="rotate(90) translate(36 -43)">
    <use xlink:href="#rim"/>
    <path pointer-events="none" fill="none" stroke="white" stroke-width="1.5" d="M0,-3.0v7 M-2.5,-0.5L0,-3.0L2.5,-0.5"/>
  </g>
  <g id="arrowDown" transform="rotate(180) translate(-30 -48)">
    <use xlink:href="#rim"/>
    <path pointer-events="none" fill="none" stroke="white" stroke-width="1.5" d="M0,-3.0v7 M-2.5,-0.5L0,-3.0L2.5,-0.5"/>
  </g>
  <g id="arrowLeft" transform="rotate(270) translate(-36 17)">
    <use xlink:href="#rim"/>
    <path pointer-events="none" fill="none" stroke="white" stroke-width="1.5" d="M0,-3.0v7 M-2.5,-0.5L0,-3.0L2.5,-0.5"/>
  </g>
  <g id="resetDef">
    <use xlink:href="#rim2" fill="#404040"><set attributeName="fill" to="#808080" begin="reset.mouseover" end="reset.mouseout"/></use>
  </g>
</defs>
<script type="application/ecmascript">
var viewWidth = 769;
var viewHeight = 419;
var sectionId = 'dynsection-0';
</script>
<script type="application/ecmascript" xlink:href="svg.min.js"/>
<svg id="graph" class="graph">
<g id="viewport">
<title>Napi::TypeTaggable</title>
<!-- Node1 -->
<g id="Node000001" class="node">
<title>Node1</title>
<g id="a_Node000001"><a xlink:title=" ">
<polygon fill="#999999" stroke="#666666" points="204.5,-319.25 102.25,-319.25 102.25,-300 204.5,-300 204.5,-319.25"/>
<text xml:space="preserve" text-anchor="middle" x="153.38" y="-305.75" font-family="Helvetica,sans-Serif" font-size="10.00">Napi::TypeTaggable</text>
</a>
</g>
</g>
<!-- Node3 -->
<g id="Node000003" class="node">
<title>Node3</title>
<g id="a_Node000003"><a xlink:href="class_napi_1_1_external.html" target="_top" xlink:title=" ">
<polygon fill="white" stroke="#666666" points="342.75,-338.25 240.5,-338.25 240.5,-319 342.75,-319 342.75,-338.25"/>
<text xml:space="preserve" text-anchor="middle" x="291.62" y="-324.75" font-family="Helvetica,sans-Serif" font-size="10.00">Napi::External&lt; T &gt;</text>
</a>
</g>
</g>
<!-- Node1&#45;&gt;Node3 -->
<g id="edge2_Node000001_Node000003" class="edge">
<title>Node1&#45;&gt;Node3</title>
<g id="a_edge2_Node000001_Node000003"><a xlink:title=" ">
<path fill="none" stroke="#63b8ff" d="M215.97,-318.21C224.02,-319.34 232.19,-320.48 240.03,-321.57"/>
<polygon fill="#63b8ff" stroke="#63b8ff" points="216.61,-314.77 206.22,-316.85 215.64,-321.7 216.61,-314.77"/>
</a>
</g>
</g>
<!-- Node4 -->
<g id="Node000004" class="node">
<title>Node4</title>
<g id="a_Node000004"><a xlink:href="class_napi_1_1_object.html" target="_top" xlink:title="A JavaScript object value.">
<polygon fill="white" stroke="#666666" points="327,-301.25 256.25,-301.25 256.25,-282 327,-282 327,-301.25"/>
<text xml:space="preserve" text-anchor="middle" x="291.62" y="-287.75" font-family="Helvetica,sans-Serif" font-size="10.00">Napi::Object</text>
</a>
</g>
</g>
<!-- Node1&#45;&gt;Node4 -->
<g id="edge3_Node000001_Node000004" class="edge">
<title>Node1&#45;&gt;Node4</title>
<g id="a_edge3_Node000001_Node000004"><a xlink:title=" ">
<path fill="none" stroke="#63b8ff" d="M216.04,-301.48C229.68,-299.68 243.66,-297.83 255.78,-296.23"/>
<polygon fill="#63b8ff" stroke="#63b8ff" points="215.68,-298 206.22,-302.78 216.6,-304.94 215.68,-298"/>
</a>
</g>
</g>
<!-- Node2 -->
<g id="Node000002" class="node">
<title>Node2</title>
<g id="a_Node000002"><a xlink:href="class_napi_1_1_value.html" target="_top" xlink:title=" ">
<polygon fill="white" stroke="#666666" points="66.25,-319.25 0,-319.25 0,-300 66.25,-300 66.25,-319.25"/>
<text xml:space="preserve" text-anchor="middle" x="33.12" y="-305.75" font-family="Helvetica,sans-Serif" font-size="10.00">Napi::Value</text>
</a>
</g>
</g>
<!-- Node2&#45;&gt;Node1 -->
<g id="edge1_Node000001_Node000002" class="edge">
<title>Node2&#45;&gt;Node1</title>
<g id="a_edge1_Node000001_Node000002"><a xlink:title=" ">
<path fill="none" stroke="#63b8ff" d="M77.91,-309.62C85.72,-309.62 93.91,-309.62 101.88,-309.62"/>
<polygon fill="#63b8ff" stroke="#63b8ff" points="77.95,-306.13 67.95,-309.63 77.95,-313.13 77.95,-306.13"/>
</a>
</g>
</g>
<!-- Node5 -->
<g id="Node000005" class="node">
<title>Node5</title>
<g id="a_Node000005"><a xlink:href="class_napi_1_1_array.html" target="_top" xlink:title=" ">
<polygon fill="white" stroke="#666666" points="457.38,-394.25 391.88,-394.25 391.88,-375 457.38,-375 457.38,-394.25"/>
<text xml:space="preserve" text-anchor="middle" x="424.62" y="-380.75" font-family="Helvetica,sans-Serif" font-size="10.00">Napi::Array</text>
</a>
</g>
</g>
<!-- Node4&#45;&gt;Node5 -->
<g id="edge4_Node000004_Node000005" class="edge">
<title>Node4&#45;&gt;Node5</title>
<g id="a_edge4_Node000004_Node000005"><a xlink:title=" ">
<path fill="none" stroke="#63b8ff" d="M337.34,-305.81C339.23,-306.99 341.05,-308.26 342.75,-309.62 366.12,-328.37 355.73,-347.45 378.75,-366.62 382.62,-369.85 387.14,-372.55 391.8,-374.8"/>
<polygon fill="#63b8ff" stroke="#63b8ff" points="339.23,-302.85 328.73,-301.37 336.01,-309.07 339.23,-302.85"/>
</a>
</g>
</g>
<!-- Node6 -->
<g id="Node000006" class="node">
<title>Node6</title>
<g id="a_Node000006"><a xlink:href="class_napi_1_1_array_buffer.html" target="_top" xlink:title="A JavaScript array buffer value.">
<polygon fill="white" stroke="#666666" points="470.5,-357.25 378.75,-357.25 378.75,-338 470.5,-338 470.5,-357.25"/>
<text xml:space="preserve" text-anchor="middle" x="424.62" y="-343.75" font-family="Helvetica,sans-Serif" font-size="10.00">Napi::ArrayBuffer</text>
</a>
</g>
</g>
<!-- Node4&#45;&gt;Node6 -->
<g id="edge5_Node000004_Node000006" class="edge">
<title>Node4&#45;&gt;Node6</title>
<g id="a_edge5_Node000004_Node000006"><a xlink:title=" ">
<path fill="none" stroke="#63b8ff" d="M333.69,-305.75C336.78,-307 339.83,-308.3 342.75,-309.62 359.42,-317.19 362.22,-321.76 378.75,-329.62 384.51,-332.37 390.81,-335.07 396.81,-337.51"/>
<polygon fill="#63b8ff" stroke="#63b8ff" points="335.16,-302.57 324.57,-302.24 332.64,-309.1 335.16,-302.57"/>
</a>
</g>
</g>
<!-- Node7 -->
<g id="Node000007" class="node">
<title>Node7</title>
<g id="a_Node000007"><a xlink:href="class_napi_1_1_data_view.html" target="_top" xlink:title=" ">
<polygon fill="white" stroke="#666666" points="467.12,-320.25 382.12,-320.25 382.12,-301 467.12,-301 467.12,-320.25"/>
<text xml:space="preserve" text-anchor="middle" x="424.62" y="-306.75" font-family="Helvetica,sans-Serif" font-size="10.00">Napi::DataView</text>
</a>
</g>
</g>
<!-- Node4&#45;&gt;Node7 -->
<g id="edge6_Node000004_Node000007" class="edge">
<title>Node4&#45;&gt;Node7</title>
<g id="a_edge6_Node000004_Node000007"><a xlink:title=" ">
<path fill="none" stroke="#63b8ff" d="M338.76,-298.32C352.74,-300.34 368.01,-302.56 381.69,-304.54"/>
<polygon fill="#63b8ff" stroke="#63b8ff" points="339.28,-294.86 328.88,-296.88 338.28,-301.78 339.28,-294.86"/>
</a>
</g>
</g>
<!-- Node8 -->
<g id="Node000008" class="node">
<title>Node8</title>
<g id="a_Node000008"><a xlink:href="class_napi_1_1_function.html" target="_top" xlink:title=" ">
<polygon fill="white" stroke="#666666" points="464.5,-283.25 384.75,-283.25 384.75,-264 464.5,-264 464.5,-283.25"/>
<text xml:space="preserve" text-anchor="middle" x="424.62" y="-269.75" font-family="Helvetica,sans-Serif" font-size="10.00">Napi::Function</text>
</a>
</g>
</g>
<!-- Node4&#45;&gt;Node8 -->
<g id="edge7_Node000004_Node000008" class="edge">
<title>Node4&#45;&gt;Node8</title>
<g id="a_edge7_Node000004_Node000008"><a xlink:title=" ">
<path fill="none" stroke="#63b8ff" d="M338.52,-285.32C353.54,-283.26 370.07,-280.98 384.54,-279"/>
<polygon fill="#63b8ff" stroke="#63b8ff" points="338.32,-281.81 328.89,-286.64 339.27,-288.75 338.32,-281.81"/>
</a>
</g>
</g>
<!-- Node9 -->
<g id="Node000009" class="node">
<title>Node9</title>
<g id="a_Node000009"><a xlink:href="class_napi_1_1_promise.html" target="_top" xlink:title=" ">
<polygon fill="white" stroke="#666666" points="463.75,-246.25 385.5,-246.25 385.5,-227 463.75,-227 463.75,-246.25"/>
<text xml:space="preserve" text-anchor="middle" x="424.62" y="-232.75" font-family="Helvetica,sans-Serif" font-size="10.00">Napi::Promise</text>
</a>
</g>
</g>
<!-- Node4&#45;&gt;Node9 -->
<g id="edge8_Node000004_Node000009" class="edge">
<title>Node4&#45;&gt;Node9</title>
<g id="a_edge8_Node000004_Node000009"><a xlink:title=" ">
<path fill="none" stroke="#63b8ff" d="M326.01,-277.06C341.94,-270.17 361.29,-261.88 378.75,-254.62 385.11,-251.99 392,-249.19 398.42,-246.61"/>
<polygon fill="#63b8ff" stroke="#63b8ff" points="324.76,-273.79 316.98,-280.98 327.55,-280.21 324.76,-273.79"/>
</a>
</g>
</g>
<!-- Node10 -->
<g id="Node000010" class="node">
<title>Node10</title>
<g id="a_Node000010"><a xlink:href="class_napi_1_1_typed_array.html" target="_top" xlink:title=" ">
<polygon fill="white" stroke="#666666" points="470.5,-209.25 378.75,-209.25 378.75,-190 470.5,-190 470.5,-209.25"/>
<text xml:space="preserve" text-anchor="middle" x="424.62" y="-195.75" font-family="Helvetica,sans-Serif" font-size="10.00">Napi::TypedArray</text>
</a>
</g>
</g>
<!-- Node4&#45;&gt;Node10 -->
<g id="edge9_Node000004_Node000010" class="edge">
<title>Node4&#45;&gt;Node10</title>
<g id="a_edge9_Node000004_Node000010"><a xlink:title=" ">
<path fill="none" stroke="#63b8ff" d="M309.8,-273.83C326.29,-257.52 352.49,-233.57 378.75,-217.62 383.63,-214.66 389.08,-212 394.46,-209.7"/>
<polygon fill="#63b8ff" stroke="#63b8ff" points="307.74,-270.93 303.18,-280.5 312.71,-275.86 307.74,-270.93"/>
</a>
</g>
</g>
<!-- Node11 -->
<g id="Node000011" class="node">
<title>Node11</title>
<g id="a_Node000011"><a xlink:href="class_napi_1_1_typed_array_of.html" target="_top" xlink:title=" ">
<polygon fill="white" stroke="#666666" points="620.75,-410.88 518.5,-410.88 518.5,-380.38 620.75,-380.38 620.75,-410.88"/>
<text xml:space="preserve" text-anchor="start" x="526.5" y="-397.38" font-family="Helvetica,sans-Serif" font-size="10.00">Napi::TypedArrayOf</text>
<text xml:space="preserve" text-anchor="middle" x="569.62" y="-386.12" font-family="Helvetica,sans-Serif" font-size="10.00">&lt; int8_t &gt;</text>
</a>
</g>
</g>
<!-- Node10&#45;&gt;Node11 -->
<g id="edge10_Node000010_Node000011" class="edge">
<title>Node10&#45;&gt;Node11</title>
<g id="a_edge10_Node000010_Node000011"><a xlink:title=" ">
<path fill="none" stroke="#63b8ff" d="M469.71,-216.74C469.98,-217.03 470.24,-217.33 470.5,-217.62 516.05,-270.59 460.98,-317.63 506.5,-370.62 509.83,-374.51 513.86,-377.79 518.23,-380.57"/>
<polygon fill="#63b8ff" stroke="#63b8ff" points="471.93,-214.03 461.91,-210.59 467.59,-219.53 471.93,-214.03"/>
</a>
</g>
</g>
<!-- Node12 -->
<g id="Node000012" class="node">
<title>Node12</title>
<g id="a_Node000012"><a xlink:href="class_napi_1_1_typed_array_of.html" target="_top" xlink:title=" ">
<polygon fill="white" stroke="#666666" points="620.75,-361.88 518.5,-361.88 518.5,-331.38 620.75,-331.38 620.75,-361.88"/>
<text xml:space="preserve" text-anchor="start" x="526.5" y="-348.38" font-family="Helvetica,sans-Serif" font-size="10.00">Napi::TypedArrayOf</text>
<text xml:space="preserve" text-anchor="middle" x="569.62" y="-337.12" font-family="Helvetica,sans-Serif" font-size="10.00">&lt; uint8_t &gt;</text>
</a>
</g>
</g>
<!-- Node10&#45;&gt;Node12 -->
<g id="edge11_Node000010_Node000012" class="edge">
<title>Node10&#45;&gt;Node12</title>
<g id="a_edge11_Node000010_Node000012"><a xlink:title=" ">
<path fill="none" stroke="#63b8ff" d="M469.04,-216.18C469.54,-216.65 470.03,-217.13 470.5,-217.62 504.24,-253.04 472.78,-286.2 506.5,-321.62 509.95,-325.25 513.99,-328.36 518.33,-331.02"/>
<polygon fill="#63b8ff" stroke="#63b8ff" points="471.36,-213.54 461.19,-210.56 467.28,-219.23 471.36,-213.54"/>
</a>
</g>
</g>
<!-- Node14 -->
<g id="Node000014" class="node">
<title>Node14</title>
<g id="a_Node000014"><a xlink:href="class_napi_1_1_typed_array_of.html" target="_top" xlink:title=" ">
<polygon fill="white" stroke="#666666" points="620.75,-312.88 518.5,-312.88 518.5,-282.38 620.75,-282.38 620.75,-312.88"/>
<text xml:space="preserve" text-anchor="start" x="526.5" y="-299.38" font-family="Helvetica,sans-Serif" font-size="10.00">Napi::TypedArrayOf</text>
<text xml:space="preserve" text-anchor="middle" x="569.62" y="-288.12" font-family="Helvetica,sans-Serif" font-size="10.00">&lt; int16_t &gt;</text>
</a>
</g>
</g>
<!-- Node10&#45;&gt;Node14 -->
<g id="edge13_Node000010_Node000014" class="edge">
<title>Node10&#45;&gt;Node14</title>
<g id="a_edge13_Node000010_Node000014"><a xlink:title=" ">
<path fill="none" stroke="#63b8ff" d="M467.57,-215.4C468.58,-216.11 469.56,-216.85 470.5,-217.62 493.1,-236.14 483.91,-254.1 506.5,-272.62 510.81,-276.16 515.7,-279.25 520.78,-281.94"/>
<polygon fill="#63b8ff" stroke="#63b8ff" points="469.58,-212.52 459.18,-210.5 466.05,-218.56 469.58,-212.52"/>
</a>
</g>
</g>
<!-- Node15 -->
<g id="Node000015" class="node">
<title>Node15</title>
<g id="a_Node000015"><a xlink:href="class_napi_1_1_typed_array_of.html" target="_top" xlink:title=" ">
<polygon fill="white" stroke="#666666" points="620.75,-263.88 518.5,-263.88 518.5,-233.38 620.75,-233.38 620.75,-263.88"/>
<text xml:space="preserve" text-anchor="start" x="526.5" y="-250.38" font-family="Helvetica,sans-Serif" font-size="10.00">Napi::TypedArrayOf</text>
<text xml:space="preserve" text-anchor="middle" x="569.62" y="-239.12" font-family="Helvetica,sans-Serif" font-size="10.00">&lt; uint16_t &gt;</text>
</a>
</g>
</g>
<!-- Node10&#45;&gt;Node15 -->
<g id="edge14_Node000010_Node000015" class="edge">
<title>Node10&#45;&gt;Node15</title>
<g id="a_edge14_Node000010_Node000015"><a xlink:title=" ">
<path fill="none" stroke="#63b8ff" d="M465.76,-213.38C483.49,-219.45 504.43,-226.63 522.77,-232.91"/>
<polygon fill="#63b8ff" stroke="#63b8ff" points="466.93,-210.08 456.34,-210.15 464.67,-216.7 466.93,-210.08"/>
</a>
</g>
</g>
<!-- Node16 -->
<g id="Node000016" class="node">
<title>Node16</title>
<g id="a_Node000016"><a xlink:href="class_napi_1_1_typed_array_of.html" target="_top" xlink:title=" ">
<polygon fill="white" stroke="#666666" points="620.75,-214.88 518.5,-214.88 518.5,-184.38 620.75,-184.38 620.75,-214.88"/>
<text xml:space="preserve" text-anchor="start" x="526.5" y="-201.38" font-family="Helvetica,sans-Serif" font-size="10.00">Napi::TypedArrayOf</text>
<text xml:space="preserve" text-anchor="middle" x="569.62" y="-190.12" font-family="Helvetica,sans-Serif" font-size="10.00">&lt; int32_t &gt;</text>
</a>
</g>
</g>
<!-- Node10&#45;&gt;Node16 -->
<g id="edge15_Node000010_Node000016" class="edge">
<title>Node10&#45;&gt;Node16</title>
<g id="a_edge15_Node000010_Node000016"><a xlink:title=" ">
<path fill="none" stroke="#63b8ff" d="M482.08,-199.62C494.01,-199.62 506.52,-199.62 518.21,-199.62"/>
<polygon fill="#63b8ff" stroke="#63b8ff" points="482.38,-196.13 472.38,-199.63 482.38,-203.13 482.38,-196.13"/>
</a>
</g>
</g>
<!-- Node17 -->
<g id="Node000017" class="node">
<title>Node17</title>
<g id="a_Node000017"><a xlink:href="class_napi_1_1_typed_array_of.html" target="_top" xlink:title=" ">
<polygon fill="white" stroke="#666666" points="620.75,-165.88 518.5,-165.88 518.5,-135.38 620.75,-135.38 620.75,-165.88"/>
<text xml:space="preserve" text-anchor="start" x="526.5" y="-152.38" font-family="Helvetica,sans-Serif" font-size="10.00">Napi::TypedArrayOf</text>
<text xml:space="preserve" text-anchor="middle" x="569.62" y="-141.12" font-family="Helvetica,sans-Serif" font-size="10.00">&lt; uint32_t &gt;</text>
</a>
</g>
</g>
<!-- Node10&#45;&gt;Node17 -->
<g id="edge16_Node000010_Node000017" class="edge">
<title>Node10&#45;&gt;Node17</title>
<g id="a_edge16_Node000010_Node000017"><a xlink:title=" ">
<path fill="none" stroke="#63b8ff" d="M465.76,-185.87C483.49,-179.8 504.43,-172.62 522.77,-166.34"/>
<polygon fill="#63b8ff" stroke="#63b8ff" points="464.67,-182.55 456.34,-189.1 466.93,-189.17 464.67,-182.55"/>
</a>
</g>
</g>
<!-- Node18 -->
<g id="Node000018" class="node">
<title>Node18</title>
<g id="a_Node000018"><a xlink:href="class_napi_1_1_typed_array_of.html" target="_top" xlink:title=" ">
<polygon fill="white" stroke="#666666" points="620.75,-116.88 518.5,-116.88 518.5,-86.38 620.75,-86.38 620.75,-116.88"/>
<text xml:space="preserve" text-anchor="start" x="526.5" y="-103.38" font-family="Helvetica,sans-Serif" font-size="10.00">Napi::TypedArrayOf</text>
<text xml:space="preserve" text-anchor="middle" x="569.62" y="-92.12" font-family="Helvetica,sans-Serif" font-size="10.00">&lt; float &gt;</text>
</a>
</g>
</g>
<!-- Node10&#45;&gt;Node18 -->
<g id="edge17_Node000010_Node000018" class="edge">
<title>Node10&#45;&gt;Node18</title>
<g id="a_edge17_Node000010_Node000018"><a xlink:title=" ">
<path fill="none" stroke="#63b8ff" d="M442.02,-181.57C457.42,-165.46 481.73,-142.1 506.5,-126.62 512.02,-123.18 518.1,-120.04 524.23,-117.24"/>
<polygon fill="#63b8ff" stroke="#63b8ff" points="439.75,-178.88 435.48,-188.57 444.86,-183.66 439.75,-178.88"/>
</a>
</g>
</g>
<!-- Node19 -->
<g id="Node000019" class="node">
<title>Node19</title>
<g id="a_Node000019"><a xlink:href="class_napi_1_1_typed_array_of.html" target="_top" xlink:title=" ">
<polygon fill="white" stroke="#666666" points="620.75,-67.88 518.5,-67.88 518.5,-37.38 620.75,-37.38 620.75,-67.88"/>
<text xml:space="preserve" text-anchor="start" x="526.5" y="-54.38" font-family="Helvetica,sans-Serif" font-size="10.00">Napi::TypedArrayOf</text>
<text xml:space="preserve" text-anchor="middle" x="569.62" y="-43.12" font-family="Helvetica,sans-Serif" font-size="10.00">&lt; double &gt;</text>
</a>
</g>
</g>
<!-- Node10&#45;&gt;Node19 -->
<g id="edge18_Node000010_Node000019" class="edge">
<title>Node10&#45;&gt;Node19</title>
<g id="a_edge18_Node000010_Node000019"><a xlink:title=" ">
<path fill="none" stroke="#63b8ff" d="M434.42,-179.19C446.87,-152.47 472.02,-105.74 506.5,-77.62 510.83,-74.1 515.71,-71.02 520.8,-68.33"/>
<polygon fill="#63b8ff" stroke="#63b8ff" points="431.26,-177.68 430.36,-188.24 437.65,-180.55 431.26,-177.68"/>
</a>
</g>
</g>
<!-- Node20 -->
<g id="Node000020" class="node">
<title>Node20</title>
<g id="a_Node000020"><a xlink:href="class_napi_1_1_typed_array_of.html" target="_top" xlink:title=" ">
<polygon fill="white" stroke="#666666" points="632.75,-19.25 506.5,-19.25 506.5,0 632.75,0 632.75,-19.25"/>
<text xml:space="preserve" text-anchor="middle" x="569.62" y="-5.75" font-family="Helvetica,sans-Serif" font-size="10.00">Napi::TypedArrayOf&lt; T &gt;</text>
</a>
</g>
</g>
<!-- Node10&#45;&gt;Node20 -->
<g id="edge19_Node000010_Node000020" class="edge">
<title>Node10&#45;&gt;Node20</title>
<g id="a_edge19_Node000010_Node000020"><a xlink:title=" ">
<path fill="none" stroke="#63b8ff" d="M429.73,-178.81C437.9,-142.88 459.61,-69.17 506.5,-28.62 510.68,-25.01 515.54,-22.08 520.66,-19.71"/>
<polygon fill="#63b8ff" stroke="#63b8ff" points="426.36,-177.84 427.7,-188.35 433.2,-179.3 426.36,-177.84"/>
</a>
</g>
</g>
<!-- Node13 -->
<g id="Node000013" class="node">
<title>Node13</title>
<g id="a_Node000013"><a xlink:href="class_napi_1_1_buffer.html" target="_top" xlink:title=" ">
<polygon fill="white" stroke="#666666" points="761.25,-356.25 668.75,-356.25 668.75,-337 761.25,-337 761.25,-356.25"/>
<text xml:space="preserve" text-anchor="middle" x="715" y="-342.75" font-family="Helvetica,sans-Serif" font-size="10.00">Napi::Buffer&lt; T &gt;</text>
</a>
</g>
</g>
<!-- Node12&#45;&gt;Node13 -->
<g id="edge12_Node000012_Node000013" class="edge">
<title>Node12&#45;&gt;Node13</title>
<g id="a_edge12_Node000012_Node000013"><a xlink:title=" ">
<path fill="none" stroke="#63b8ff" d="M632.63,-346.62C644.74,-346.62 657.24,-346.62 668.68,-346.62"/>
<polygon fill="#63b8ff" stroke="#63b8ff" points="632.69,-343.13 622.69,-346.63 632.69,-350.13 632.69,-343.13"/>
</a>
</g>
</g>
</g>
</svg>

<g id="navigator" transform="translate(0 0)" fill="#404254">
  <rect fill="#f2f5e9" fill-opacity="0.5" stroke="#606060" stroke-width=".5" x="0" y="0" width="60" height="60"/>
  <use id="zoomplus" xlink:href="#zoomPlus" x="17" y="9" onmousedown="handleZoom(evt,'in')"/>
  <use id="zoomminus" xlink:href="#zoomMin" x="42" y="9" onmousedown="handleZoom(evt,'out')"/>
  <use id="reset" xlink:href="#resetDef" x="30" y="36" onmousedown="handleReset()"/>
   <use id="arrowup" xlink:href="#arrowUp" x="0" y="0" onmousedown="handlePan(0,-1)"/>
  <use id="arrowright" xlink:href="#arrowRight" x="0" y="0" onmousedown="handlePan(1,0)"/>
  <use id="arrowdown" xlink:href="#arrowDown" x="0" y="0" onmousedown="handlePan(0,1)"/>
  <use id="arrowleft" xlink:href="#arrowLeft" x="0" y="0" onmousedown="handlePan(-1,0)"/>
</g>
<svg viewBox="0 0 15 15" width="100%" height="30px" preserveAspectRatio="xMaxYMin meet">
 <g id="arrow_out" transform="scale(0.3 0.3)">
  <a xlink:href="class_napi_1_1_type_taggable__inherit__graph_org.svg" target="_base">
   <rect id="button" ry="5" rx="5" y="6" x="6" height="38" width="38"
        fill="#f2f5e9" fill-opacity="0.5" stroke="#606060" stroke-width="1.0"/>
   <path id="arrow"
     d="M 11.500037,31.436501 C 11.940474,20.09759 22.043105,11.32322 32.158766,21.979434 L 37.068811,17.246167 C 37.068811,17.246167 37.088388,32 37.088388,32 L 22.160133,31.978069 C 22.160133,31.978069 26.997745,27.140456 26.997745,27.140456 C 18.528582,18.264221 13.291696,25.230495 11.500037,31.436501 z"
     style="fill:#404040;"/>
  </a>
 </g>
</svg>

<style type='text/css'>
<![CDATA[
[data-mouse-over-selected='false'] { opacity: 0.7; }
[data-mouse-over-selected='true']  { opacity: 1.0; }
]]>
</style>
<script type="application/ecmascript"><![CDATA[
document.addEventListener('DOMContentLoaded', (event) => {
  highlightEdges();
  highlightAdjacentNodes();
});
]]></script>
</svg>
