<?xml version="1.0" encoding="UTF-8" standalone="no"?>
<!DOCTYPE svg PUBLIC "-//W3C//DTD SVG 1.1//EN"
 "http://www.w3.org/Graphics/SVG/1.1/DTD/svg11.dtd">
<!-- Generated by graphviz version 14.0.4 (20251115.1723)
 -->
<!-- Title: Backend Pages: 1 -->
<svg width="487pt" height="138pt"
 viewBox="0.00 0.00 487.00 138.00" xmlns="http://www.w3.org/2000/svg" xmlns:xlink="http://www.w3.org/1999/xlink">

<svg id="main" version="1.1" xmlns="http://www.w3.org/2000/svg" xmlns:xlink="http://www.w3.org/1999/xlink" xml:space="preserve">

<style type="text/css"><![CDATA[
.node, .edge {opacity: 0.7;}
.node.selected, .edge.selected {opacity: 1;}
.edge:hover path { stroke: red; }
.edge:hover polygon { stroke: red; fill: red; }
]]></style>
<script type="application/ecmascript" xlink:href="svg.min.js"/>
<svg id="graph" class="graph">
<g id="graph0" class="graph" transform="scale(1 1) rotate(0) translate(4 133.75)">
<title>Backend</title>
<!-- Node1 -->
<g id="Node000001" class="node">
<title>Node1</title>
<g id="a_Node000001"><a xlink:title=" ">
<polygon fill="#999999" stroke="#666666" points="338.75,-129.75 284.5,-129.75 284.5,-110.5 338.75,-110.5 338.75,-129.75"/>
<text xml:space="preserve" text-anchor="middle" x="311.62" y="-116.25" font-family="Helvetica,sans-Serif" font-size="10.00">Backend</text>
</a>
</g>
</g>
<!-- Node2 -->
<g id="Node000002" class="node">
<title>Node2</title>
<g id="a_Node000002"><a xlink:href="class_brute_force_backend.html" target="_top" xlink:title=" ">
<polygon fill="white" stroke="#666666" points="244.75,-74.5 142.5,-74.5 142.5,-55.25 244.75,-55.25 244.75,-74.5"/>
<text xml:space="preserve" text-anchor="middle" x="193.62" y="-61" font-family="Helvetica,sans-Serif" font-size="10.00">BruteForceBackend</text>
</a>
</g>
</g>
<!-- Node1&#45;&gt;Node2 -->
<g id="edge1_Node000001_Node000002" class="edge">
<title>Node1&#45;&gt;Node2</title>
<g id="a_edge1_Node000001_Node000002"><a xlink:title=" ">
<path fill="none" stroke="#63b8ff" d="M281.19,-105.39C259.97,-95.81 232.25,-83.31 213.74,-74.95"/>
<polygon fill="#63b8ff" stroke="#63b8ff" points="279.67,-108.55 290.23,-109.47 282.55,-102.17 279.67,-108.55"/>
</a>
</g>
</g>
<!-- Node7 -->
<g id="Node000007" class="node">
<title>Node7</title>
<g id="a_Node000007"><a xlink:href="class_f_s_events_backend.html" target="_top" xlink:title=" ">
<polygon fill="white" stroke="#666666" points="360.5,-74.5 262.75,-74.5 262.75,-55.25 360.5,-55.25 360.5,-74.5"/>
<text xml:space="preserve" text-anchor="middle" x="311.62" y="-61" font-family="Helvetica,sans-Serif" font-size="10.00">FSEventsBackend</text>
</a>
</g>
</g>
<!-- Node1&#45;&gt;Node7 -->
<g id="edge6_Node000001_Node000007" class="edge">
<title>Node1&#45;&gt;Node7</title>
<g id="a_edge6_Node000001_Node000007"><a xlink:title=" ">
<path fill="none" stroke="#63b8ff" d="M311.62,-98.88C311.62,-90.59 311.62,-81.42 311.62,-74.86"/>
<polygon fill="#63b8ff" stroke="#63b8ff" points="308.13,-98.82 311.63,-108.82 315.13,-98.82 308.13,-98.82"/>
</a>
</g>
</g>
<!-- Node8 -->
<g id="Node000008" class="node">
<title>Node8</title>
<g id="a_Node000008"><a xlink:href="class_watchman_backend.html" target="_top" xlink:title=" ">
<polygon fill="white" stroke="#666666" points="479,-74.5 378.25,-74.5 378.25,-55.25 479,-55.25 479,-74.5"/>
<text xml:space="preserve" text-anchor="middle" x="428.62" y="-61" font-family="Helvetica,sans-Serif" font-size="10.00">WatchmanBackend</text>
</a>
</g>
</g>
<!-- Node1&#45;&gt;Node8 -->
<g id="edge7_Node000001_Node000008" class="edge">
<title>Node1&#45;&gt;Node8</title>
<g id="a_edge7_Node000001_Node000008"><a xlink:title=" ">
<path fill="none" stroke="#63b8ff" d="M341.81,-105.39C362.85,-95.81 390.33,-83.31 408.68,-74.95"/>
<polygon fill="#63b8ff" stroke="#63b8ff" points="340.5,-102.14 332.85,-109.46 343.4,-108.51 340.5,-102.14"/>
</a>
</g>
</g>
<!-- Node3 -->
<g id="Node000003" class="node">
<title>Node3</title>
<g id="a_Node000003"><a xlink:href="class_inotify_backend.html" target="_top" xlink:title=" ">
<polygon fill="white" stroke="#666666" points="81.25,-19.25 0,-19.25 0,0 81.25,0 81.25,-19.25"/>
<text xml:space="preserve" text-anchor="middle" x="40.62" y="-5.75" font-family="Helvetica,sans-Serif" font-size="10.00">InotifyBackend</text>
</a>
</g>
</g>
<!-- Node2&#45;&gt;Node3 -->
<g id="edge2_Node000002_Node000003" class="edge">
<title>Node2&#45;&gt;Node3</title>
<g id="a_edge2_Node000002_Node000003"><a xlink:title=" ">
<path fill="none" stroke="#63b8ff" d="M157.15,-51.18C129.3,-41.49 91.59,-28.36 66.71,-19.7"/>
<polygon fill="#63b8ff" stroke="#63b8ff" points="155.65,-54.36 166.24,-54.34 157.95,-47.75 155.65,-54.36"/>
</a>
</g>
</g>
<!-- Node4 -->
<g id="Node000004" class="node">
<title>Node4</title>
<g id="a_Node000004"><a xlink:href="class_kqueue_backend.html" target="_top" xlink:title=" ">
<polygon fill="white" stroke="#666666" points="186.25,-19.25 99,-19.25 99,0 186.25,0 186.25,-19.25"/>
<text xml:space="preserve" text-anchor="middle" x="142.62" y="-5.75" font-family="Helvetica,sans-Serif" font-size="10.00">KqueueBackend</text>
</a>
</g>
</g>
<!-- Node2&#45;&gt;Node4 -->
<g id="edge3_Node000002_Node000004" class="edge">
<title>Node2&#45;&gt;Node4</title>
<g id="a_edge3_Node000002_Node000004"><a xlink:title=" ">
<path fill="none" stroke="#63b8ff" d="M177.26,-46.79C168.61,-37.75 158.33,-27.02 151.23,-19.61"/>
<polygon fill="#63b8ff" stroke="#63b8ff" points="174.71,-49.19 184.16,-53.99 179.77,-44.35 174.71,-49.19"/>
</a>
</g>
</g>
<!-- Node5 -->
<g id="Node000005" class="node">
<title>Node5</title>
<g id="a_Node000005"><a xlink:href="class_wasm_backend.html" target="_top" xlink:title=" ">
<polygon fill="white" stroke="#666666" points="286.62,-19.25 204.62,-19.25 204.62,0 286.62,0 286.62,-19.25"/>
<text xml:space="preserve" text-anchor="middle" x="245.62" y="-5.75" font-family="Helvetica,sans-Serif" font-size="10.00">WasmBackend</text>
</a>
</g>
</g>
<!-- Node2&#45;&gt;Node5 -->
<g id="edge4_Node000002_Node000005" class="edge">
<title>Node2&#45;&gt;Node5</title>
<g id="a_edge4_Node000002_Node000005"><a xlink:title=" ">
<path fill="none" stroke="#63b8ff" d="M210.03,-47.07C218.92,-37.98 229.54,-27.1 236.85,-19.61"/>
<polygon fill="#63b8ff" stroke="#63b8ff" points="207.75,-44.4 203.27,-54 212.76,-49.29 207.75,-44.4"/>
</a>
</g>
</g>
<!-- Node6 -->
<g id="Node000006" class="node">
<title>Node6</title>
<g id="a_Node000006"><a xlink:href="class_windows_backend.html" target="_top" xlink:title=" ">
<polygon fill="white" stroke="#666666" points="399,-19.25 304.25,-19.25 304.25,0 399,0 399,-19.25"/>
<text xml:space="preserve" text-anchor="middle" x="351.62" y="-5.75" font-family="Helvetica,sans-Serif" font-size="10.00">WindowsBackend</text>
</a>
</g>
</g>
<!-- Node2&#45;&gt;Node6 -->
<g id="edge5_Node000002_Node000006" class="edge">
<title>Node2&#45;&gt;Node6</title>
<g id="a_edge5_Node000002_Node000006"><a xlink:title=" ">
<path fill="none" stroke="#63b8ff" d="M231.29,-51.18C260.05,-41.49 299,-28.36 324.69,-19.7"/>
<polygon fill="#63b8ff" stroke="#63b8ff" points="230.22,-47.85 221.86,-54.36 232.46,-54.48 230.22,-47.85"/>
</a>
</g>
</g>
</g>
</svg>
</svg>

<style type='text/css'>
<![CDATA[
[data-mouse-over-selected='false'] { opacity: 0.7; }
[data-mouse-over-selected='true']  { opacity: 1.0; }
]]>
</style>
<script type="application/ecmascript"><![CDATA[
document.addEventListener('DOMContentLoaded', (event) => {
  highlightEdges();
  highlightAdjacentNodes();
});
]]></script>
</svg>
