<?xml version="1.0" encoding="UTF-8" standalone="no"?>
<!DOCTYPE svg PUBLIC "-//W3C//DTD SVG 1.1//EN"
 "http://www.w3.org/Graphics/SVG/1.1/DTD/svg11.dtd">
<!-- Generated by graphviz version 14.0.4 (20251115.1723)
 -->
<!-- Title: Napi::TypedArray Pages: 1 -->
<svg width="738pt" height="419pt"
 viewBox="0.00 0.00 738.00 419.00" xmlns="http://www.w3.org/2000/svg" xmlns:xlink="http://www.w3.org/1999/xlink">
<g id="graph0" class="graph" transform="scale(1 1) rotate(0) translate(4 414.88)">
<title>Napi::TypedArray</title>
<!-- Node1 -->
<g id="Node000001" class="node">
<title>Node1</title>
<g id="a_Node000001"><a xlink:title=" ">
<polygon fill="#999999" stroke="#666666" points="439,-209.25 347.25,-209.25 347.25,-190 439,-190 439,-209.25"/>
<text xml:space="preserve" text-anchor="middle" x="393.12" y="-195.75" font-family="Helvetica,sans-Serif" font-size="10.00">Napi::TypedArray</text>
</a>
</g>
</g>
<!-- Node5 -->
<g id="Node000005" class="node">
<title>Node5</title>
<g id="a_Node000005"><a xlink:href="class_napi_1_1_typed_array_of.html" target="_top" xlink:title=" ">
<polygon fill="white" stroke="#666666" points="589.25,-410.88 487,-410.88 487,-380.38 589.25,-380.38 589.25,-410.88"/>
<text xml:space="preserve" text-anchor="start" x="495" y="-397.38" font-family="Helvetica,sans-Serif" font-size="10.00">Napi::TypedArrayOf</text>
<text xml:space="preserve" text-anchor="middle" x="538.12" y="-386.12" font-family="Helvetica,sans-Serif" font-size="10.00">&lt; int8_t &gt;</text>
</a>
</g>
</g>
<!-- Node1&#45;&gt;Node5 -->
<g id="edge4_Node000001_Node000005" class="edge">
<title>Node1&#45;&gt;Node5</title>
<g id="a_edge4_Node000001_Node000005"><a xlink:title=" ">
<path fill="none" stroke="#63b8ff" d="M398.72,-220.53C407.55,-256.02 430.11,-328.31 475,-370.62 478.81,-374.21 483.2,-377.31 487.84,-379.98"/>
<polygon fill="#63b8ff" stroke="#63b8ff" points="402.2,-220.03 396.51,-211.1 395.39,-221.63 402.2,-220.03"/>
</a>
</g>
</g>
<!-- Node6 -->
<g id="Node000006" class="node">
<title>Node6</title>
<g id="a_Node000006"><a xlink:href="class_napi_1_1_typed_array_of.html" target="_top" xlink:title=" ">
<polygon fill="white" stroke="#666666" points="589.25,-361.88 487,-361.88 487,-331.38 589.25,-331.38 589.25,-361.88"/>
<text xml:space="preserve" text-anchor="start" x="495" y="-348.38" font-family="Helvetica,sans-Serif" font-size="10.00">Napi::TypedArrayOf</text>
<text xml:space="preserve" text-anchor="middle" x="538.12" y="-337.12" font-family="Helvetica,sans-Serif" font-size="10.00">&lt; uint8_t &gt;</text>
</a>
</g>
</g>
<!-- Node1&#45;&gt;Node6 -->
<g id="edge5_Node000001_Node000006" class="edge">
<title>Node1&#45;&gt;Node6</title>
<g id="a_edge5_Node000001_Node000006"><a xlink:title=" ">
<path fill="none" stroke="#63b8ff" d="M402.92,-220.06C415.37,-246.78 440.52,-293.51 475,-321.62 479.33,-325.15 484.21,-328.23 489.3,-330.92"/>
<polygon fill="#63b8ff" stroke="#63b8ff" points="406.15,-218.7 398.86,-211.01 399.76,-221.57 406.15,-218.7"/>
</a>
</g>
</g>
<!-- Node8 -->
<g id="Node000008" class="node">
<title>Node8</title>
<g id="a_Node000008"><a xlink:href="class_napi_1_1_typed_array_of.html" target="_top" xlink:title=" ">
<polygon fill="white" stroke="#666666" points="589.25,-312.88 487,-312.88 487,-282.38 589.25,-282.38 589.25,-312.88"/>
<text xml:space="preserve" text-anchor="start" x="495" y="-299.38" font-family="Helvetica,sans-Serif" font-size="10.00">Napi::TypedArrayOf</text>
<text xml:space="preserve" text-anchor="middle" x="538.12" y="-288.12" font-family="Helvetica,sans-Serif" font-size="10.00">&lt; int16_t &gt;</text>
</a>
</g>
</g>
<!-- Node1&#45;&gt;Node8 -->
<g id="edge7_Node000001_Node000008" class="edge">
<title>Node1&#45;&gt;Node8</title>
<g id="a_edge7_Node000001_Node000008"><a xlink:title=" ">
<path fill="none" stroke="#63b8ff" d="M410.52,-217.68C425.92,-233.79 450.23,-257.15 475,-272.62 480.52,-276.07 486.6,-279.21 492.73,-282.01"/>
<polygon fill="#63b8ff" stroke="#63b8ff" points="413.36,-215.59 403.98,-210.68 408.25,-220.37 413.36,-215.59"/>
</a>
</g>
</g>
<!-- Node9 -->
<g id="Node000009" class="node">
<title>Node9</title>
<g id="a_Node000009"><a xlink:href="class_napi_1_1_typed_array_of.html" target="_top" xlink:title=" ">
<polygon fill="white" stroke="#666666" points="589.25,-263.88 487,-263.88 487,-233.38 589.25,-233.38 589.25,-263.88"/>
<text xml:space="preserve" text-anchor="start" x="495" y="-250.38" font-family="Helvetica,sans-Serif" font-size="10.00">Napi::TypedArrayOf</text>
<text xml:space="preserve" text-anchor="middle" x="538.12" y="-239.12" font-family="Helvetica,sans-Serif" font-size="10.00">&lt; uint16_t &gt;</text>
</a>
</g>
</g>
<!-- Node1&#45;&gt;Node9 -->
<g id="edge8_Node000001_Node000009" class="edge">
<title>Node1&#45;&gt;Node9</title>
<g id="a_edge8_Node000001_Node000009"><a xlink:title=" ">
<path fill="none" stroke="#63b8ff" d="M434.26,-213.38C451.99,-219.45 472.93,-226.63 491.27,-232.91"/>
<polygon fill="#63b8ff" stroke="#63b8ff" points="435.43,-210.08 424.84,-210.15 433.17,-216.7 435.43,-210.08"/>
</a>
</g>
</g>
<!-- Node10 -->
<g id="Node000010" class="node">
<title>Node10</title>
<g id="a_Node000010"><a xlink:href="class_napi_1_1_typed_array_of.html" target="_top" xlink:title=" ">
<polygon fill="white" stroke="#666666" points="589.25,-214.88 487,-214.88 487,-184.38 589.25,-184.38 589.25,-214.88"/>
<text xml:space="preserve" text-anchor="start" x="495" y="-201.38" font-family="Helvetica,sans-Serif" font-size="10.00">Napi::TypedArrayOf</text>
<text xml:space="preserve" text-anchor="middle" x="538.12" y="-190.12" font-family="Helvetica,sans-Serif" font-size="10.00">&lt; int32_t &gt;</text>
</a>
</g>
</g>
<!-- Node1&#45;&gt;Node10 -->
<g id="edge9_Node000001_Node000010" class="edge">
<title>Node1&#45;&gt;Node10</title>
<g id="a_edge9_Node000001_Node000010"><a xlink:title=" ">
<path fill="none" stroke="#63b8ff" d="M450.58,-199.62C462.51,-199.62 475.02,-199.62 486.71,-199.62"/>
<polygon fill="#63b8ff" stroke="#63b8ff" points="450.88,-196.13 440.88,-199.63 450.88,-203.13 450.88,-196.13"/>
</a>
</g>
</g>
<!-- Node11 -->
<g id="Node000011" class="node">
<title>Node11</title>
<g id="a_Node000011"><a xlink:href="class_napi_1_1_typed_array_of.html" target="_top" xlink:title=" ">
<polygon fill="white" stroke="#666666" points="589.25,-165.88 487,-165.88 487,-135.38 589.25,-135.38 589.25,-165.88"/>
<text xml:space="preserve" text-anchor="start" x="495" y="-152.38" font-family="Helvetica,sans-Serif" font-size="10.00">Napi::TypedArrayOf</text>
<text xml:space="preserve" text-anchor="middle" x="538.12" y="-141.12" font-family="Helvetica,sans-Serif" font-size="10.00">&lt; uint32_t &gt;</text>
</a>
</g>
</g>
<!-- Node1&#45;&gt;Node11 -->
<g id="edge10_Node000001_Node000011" class="edge">
<title>Node1&#45;&gt;Node11</title>
<g id="a_edge10_Node000001_Node000011"><a xlink:title=" ">
<path fill="none" stroke="#63b8ff" d="M434.26,-185.87C451.99,-179.8 472.93,-172.62 491.27,-166.34"/>
<polygon fill="#63b8ff" stroke="#63b8ff" points="433.17,-182.55 424.84,-189.1 435.43,-189.17 433.17,-182.55"/>
</a>
</g>
</g>
<!-- Node12 -->
<g id="Node000012" class="node">
<title>Node12</title>
<g id="a_Node000012"><a xlink:href="class_napi_1_1_typed_array_of.html" target="_top" xlink:title=" ">
<polygon fill="white" stroke="#666666" points="589.25,-116.88 487,-116.88 487,-86.38 589.25,-86.38 589.25,-116.88"/>
<text xml:space="preserve" text-anchor="start" x="495" y="-103.38" font-family="Helvetica,sans-Serif" font-size="10.00">Napi::TypedArrayOf</text>
<text xml:space="preserve" text-anchor="middle" x="538.12" y="-92.12" font-family="Helvetica,sans-Serif" font-size="10.00">&lt; float &gt;</text>
</a>
</g>
</g>
<!-- Node1&#45;&gt;Node12 -->
<g id="edge11_Node000001_Node000012" class="edge">
<title>Node1&#45;&gt;Node12</title>
<g id="a_edge11_Node000001_Node000012"><a xlink:title=" ">
<path fill="none" stroke="#63b8ff" d="M410.52,-181.57C425.92,-165.46 450.23,-142.1 475,-126.62 480.52,-123.18 486.6,-120.04 492.73,-117.24"/>
<polygon fill="#63b8ff" stroke="#63b8ff" points="408.25,-178.88 403.98,-188.57 413.36,-183.66 408.25,-178.88"/>
</a>
</g>
</g>
<!-- Node13 -->
<g id="Node000013" class="node">
<title>Node13</title>
<g id="a_Node000013"><a xlink:href="class_napi_1_1_typed_array_of.html" target="_top" xlink:title=" ">
<polygon fill="white" stroke="#666666" points="589.25,-67.88 487,-67.88 487,-37.38 589.25,-37.38 589.25,-67.88"/>
<text xml:space="preserve" text-anchor="start" x="495" y="-54.38" font-family="Helvetica,sans-Serif" font-size="10.00">Napi::TypedArrayOf</text>
<text xml:space="preserve" text-anchor="middle" x="538.12" y="-43.12" font-family="Helvetica,sans-Serif" font-size="10.00">&lt; double &gt;</text>
</a>
</g>
</g>
<!-- Node1&#45;&gt;Node13 -->
<g id="edge12_Node000001_Node000013" class="edge">
<title>Node1&#45;&gt;Node13</title>
<g id="a_edge12_Node000001_Node000013"><a xlink:title=" ">
<path fill="none" stroke="#63b8ff" d="M402.92,-179.19C415.37,-152.47 440.52,-105.74 475,-77.62 479.33,-74.1 484.21,-71.02 489.3,-68.33"/>
<polygon fill="#63b8ff" stroke="#63b8ff" points="399.76,-177.68 398.86,-188.24 406.15,-180.55 399.76,-177.68"/>
</a>
</g>
</g>
<!-- Node14 -->
<g id="Node000014" class="node">
<title>Node14</title>
<g id="a_Node000014"><a xlink:href="class_napi_1_1_typed_array_of.html" target="_top" xlink:title=" ">
<polygon fill="white" stroke="#666666" points="601.25,-19.25 475,-19.25 475,0 601.25,0 601.25,-19.25"/>
<text xml:space="preserve" text-anchor="middle" x="538.12" y="-5.75" font-family="Helvetica,sans-Serif" font-size="10.00">Napi::TypedArrayOf&lt; T &gt;</text>
</a>
</g>
</g>
<!-- Node1&#45;&gt;Node14 -->
<g id="edge13_Node000001_Node000014" class="edge">
<title>Node1&#45;&gt;Node14</title>
<g id="a_edge13_Node000001_Node000014"><a xlink:title=" ">
<path fill="none" stroke="#63b8ff" d="M398.23,-178.81C406.4,-142.88 428.11,-69.17 475,-28.62 479.18,-25.01 484.04,-22.08 489.16,-19.71"/>
<polygon fill="#63b8ff" stroke="#63b8ff" points="394.86,-177.84 396.2,-188.35 401.7,-179.3 394.86,-177.84"/>
</a>
</g>
</g>
<!-- Node2 -->
<g id="Node000002" class="node">
<title>Node2</title>
<g id="a_Node000002"><a xlink:href="class_napi_1_1_object.html" target="_top" xlink:title="A JavaScript object value.">
<polygon fill="white" stroke="#666666" points="311.25,-209.25 240.5,-209.25 240.5,-190 311.25,-190 311.25,-209.25"/>
<text xml:space="preserve" text-anchor="middle" x="275.88" y="-195.75" font-family="Helvetica,sans-Serif" font-size="10.00">Napi::Object</text>
</a>
</g>
</g>
<!-- Node2&#45;&gt;Node1 -->
<g id="edge1_Node000001_Node000002" class="edge">
<title>Node2&#45;&gt;Node1</title>
<g id="a_edge1_Node000001_Node000002"><a xlink:title=" ">
<path fill="none" stroke="#63b8ff" d="M322.79,-199.62C330.73,-199.62 338.98,-199.62 346.9,-199.62"/>
<polygon fill="#63b8ff" stroke="#63b8ff" points="322.97,-196.13 312.97,-199.63 322.97,-203.13 322.97,-196.13"/>
</a>
</g>
</g>
<!-- Node3 -->
<g id="Node000003" class="node">
<title>Node3</title>
<g id="a_Node000003"><a xlink:href="class_napi_1_1_type_taggable.html" target="_top" xlink:title=" ">
<polygon fill="white" stroke="#666666" points="204.5,-209.25 102.25,-209.25 102.25,-190 204.5,-190 204.5,-209.25"/>
<text xml:space="preserve" text-anchor="middle" x="153.38" y="-195.75" font-family="Helvetica,sans-Serif" font-size="10.00">Napi::TypeTaggable</text>
</a>
</g>
</g>
<!-- Node3&#45;&gt;Node2 -->
<g id="edge2_Node000002_Node000003" class="edge">
<title>Node3&#45;&gt;Node2</title>
<g id="a_edge2_Node000002_Node000003"><a xlink:title=" ">
<path fill="none" stroke="#63b8ff" d="M216.28,-199.62C224.44,-199.62 232.56,-199.62 240.04,-199.62"/>
<polygon fill="#63b8ff" stroke="#63b8ff" points="216.29,-196.13 206.29,-199.63 216.29,-203.13 216.29,-196.13"/>
</a>
</g>
</g>
<!-- Node4 -->
<g id="Node000004" class="node">
<title>Node4</title>
<g id="a_Node000004"><a xlink:href="class_napi_1_1_value.html" target="_top" xlink:title=" ">
<polygon fill="white" stroke="#666666" points="66.25,-209.25 0,-209.25 0,-190 66.25,-190 66.25,-209.25"/>
<text xml:space="preserve" text-anchor="middle" x="33.12" y="-195.75" font-family="Helvetica,sans-Serif" font-size="10.00">Napi::Value</text>
</a>
</g>
</g>
<!-- Node4&#45;&gt;Node3 -->
<g id="edge3_Node000003_Node000004" class="edge">
<title>Node4&#45;&gt;Node3</title>
<g id="a_edge3_Node000003_Node000004"><a xlink:title=" ">
<path fill="none" stroke="#63b8ff" d="M77.91,-199.62C85.72,-199.62 93.91,-199.62 101.88,-199.62"/>
<polygon fill="#63b8ff" stroke="#63b8ff" points="77.95,-196.13 67.95,-199.63 77.95,-203.13 77.95,-196.13"/>
</a>
</g>
</g>
<!-- Node7 -->
<g id="Node000007" class="node">
<title>Node7</title>
<g id="a_Node000007"><a xlink:href="class_napi_1_1_buffer.html" target="_top" xlink:title=" ">
<polygon fill="white" stroke="#666666" points="729.75,-356.25 637.25,-356.25 637.25,-337 729.75,-337 729.75,-356.25"/>
<text xml:space="preserve" text-anchor="middle" x="683.5" y="-342.75" font-family="Helvetica,sans-Serif" font-size="10.00">Napi::Buffer&lt; T &gt;</text>
</a>
</g>
</g>
<!-- Node6&#45;&gt;Node7 -->
<g id="edge6_Node000006_Node000007" class="edge">
<title>Node6&#45;&gt;Node7</title>
<g id="a_edge6_Node000006_Node000007"><a xlink:title=" ">
<path fill="none" stroke="#63b8ff" d="M601.13,-346.62C613.24,-346.62 625.74,-346.62 637.18,-346.62"/>
<polygon fill="#63b8ff" stroke="#63b8ff" points="601.19,-343.13 591.19,-346.63 601.19,-350.13 601.19,-343.13"/>
</a>
</g>
</g>
</g>
</svg>
