<?xml version="1.0" encoding="UTF-8" standalone="no"?>
<!DOCTYPE svg PUBLIC "-//W3C//DTD SVG 1.1//EN"
 "http://www.w3.org/Graphics/SVG/1.1/DTD/svg11.dtd">
<!-- Generated by graphviz version 14.0.4 (20251115.1723)
 -->
<!-- Title: Napi::Object Pages: 1 -->
<!--zoomable 419 -->

<svg id="main" version="1.1" xmlns="http://www.w3.org/2000/svg" xmlns:xlink="http://www.w3.org/1999/xlink" xml:space="preserve" onload="init(evt)">

<style type="text/css"><![CDATA[
.node, .edge {opacity: 0.7;}
.node.selected, .edge.selected {opacity: 1;}
.edge:hover path { stroke: red; }
.edge:hover polygon { stroke: red; fill: red; }
]]></style>

<defs>
  <circle id="rim" cx="0" cy="0" r="7"/>
  <circle id="rim2" cx="0" cy="0" r="3.5"/>
  <g id="zoomPlus">
    <use xlink:href="#rim" fill="#404040"><set attributeName="fill" to="#808080" begin="zoomplus.mouseover" end="zoomplus.mouseout"/></use>
    <path d="M-4,0h8M0,-4v8" fill="none" stroke="white" stroke-width="1.5" pointer-events="none"/>
  </g>
  <g id="zoomMin">
    <use xlink:href="#rim" fill="#404040"><set attributeName="fill" to="#808080" begin="zoomminus.mouseover" end="zoomminus.mouseout"/></use>
    <path d="M-4,0h8" fill="none" stroke="white" stroke-width="1.5" pointer-events="none"/>
  </g>
  <g id="arrowUp" transform="translate(30 24)">
    <use xlink:href="#rim"/>
    <path pointer-events="none" fill="none" stroke="white" stroke-width="1.5" d="M0,-3.0v7 M-2.5,-0.5L0,-3.0L2.5,-0.5"/>
  </g>
  <g id="arrowRight" transform="rotate(90) translate(36 -43)">
    <use xlink:href="#rim"/>
    <path pointer-events="none" fill="none" stroke="white" stroke-width="1.5" d="M0,-3.0v7 M-2.5,-0.5L0,-3.0L2.5,-0.5"/>
  </g>
  <g id="arrowDown" transform="rotate(180) translate(-30 -48)">
    <use xlink:href="#rim"/>
    <path pointer-events="none" fill="none" stroke="white" stroke-width="1.5" d="M0,-3.0v7 M-2.5,-0.5L0,-3.0L2.5,-0.5"/>
  </g>
  <g id="arrowLeft" transform="rotate(270) translate(-36 17)">
    <use xlink:href="#rim"/>
    <path pointer-events="none" fill="none" stroke="white" stroke-width="1.5" d="M0,-3.0v7 M-2.5,-0.5L0,-3.0L2.5,-0.5"/>
  </g>
  <g id="resetDef">
    <use xlink:href="#rim2" fill="#404040"><set attributeName="fill" to="#808080" begin="reset.mouseover" end="reset.mouseout"/></use>
  </g>
</defs>
<script type="application/ecmascript">
var viewWidth = 738;
var viewHeight = 419;
var sectionId = 'dynsection-0';
</script>
<script type="application/ecmascript" xlink:href="svg.min.js"/>
<svg id="graph" class="graph">
<g id="viewport">
<title>Napi::Object</title>
<!-- Node1 -->
<g id="Node000001" class="node">
<title>Node1</title>
<g id="a_Node000001"><a xlink:title="A JavaScript object value.">
<polygon fill="#999999" stroke="#666666" points="311.25,-301.25 240.5,-301.25 240.5,-282 311.25,-282 311.25,-301.25"/>
<text xml:space="preserve" text-anchor="middle" x="275.88" y="-287.75" font-family="Helvetica,sans-Serif" font-size="10.00">Napi::Object</text>
</a>
</g>
</g>
<!-- Node4 -->
<g id="Node000004" class="node">
<title>Node4</title>
<g id="a_Node000004"><a xlink:href="class_napi_1_1_array.html" target="_top" xlink:title=" ">
<polygon fill="white" stroke="#666666" points="425.88,-394.25 360.38,-394.25 360.38,-375 425.88,-375 425.88,-394.25"/>
<text xml:space="preserve" text-anchor="middle" x="393.12" y="-380.75" font-family="Helvetica,sans-Serif" font-size="10.00">Napi::Array</text>
</a>
</g>
</g>
<!-- Node1&#45;&gt;Node4 -->
<g id="edge3_Node000001_Node000004" class="edge">
<title>Node1&#45;&gt;Node4</title>
<g id="a_edge3_Node000001_Node000004"><a xlink:title=" ">
<path fill="none" stroke="#63b8ff" d="M290.72,-310.53C303.74,-327.18 324.57,-351.13 347.25,-366.62 351.69,-369.66 356.71,-372.3 361.75,-374.55"/>
<polygon fill="#63b8ff" stroke="#63b8ff" points="293.76,-308.74 284.92,-302.89 288.18,-312.97 293.76,-308.74"/>
</a>
</g>
</g>
<!-- Node5 -->
<g id="Node000005" class="node">
<title>Node5</title>
<g id="a_Node000005"><a xlink:href="class_napi_1_1_array_buffer.html" target="_top" xlink:title="A JavaScript array buffer value.">
<polygon fill="white" stroke="#666666" points="439,-357.25 347.25,-357.25 347.25,-338 439,-338 439,-357.25"/>
<text xml:space="preserve" text-anchor="middle" x="393.12" y="-343.75" font-family="Helvetica,sans-Serif" font-size="10.00">Napi::ArrayBuffer</text>
</a>
</g>
</g>
<!-- Node1&#45;&gt;Node5 -->
<g id="edge4_Node000001_Node000005" class="edge">
<title>Node1&#45;&gt;Node5</title>
<g id="a_edge4_Node000001_Node000005"><a xlink:title=" ">
<path fill="none" stroke="#63b8ff" d="M303.91,-307.16C316.85,-314.35 332.67,-322.79 347.25,-329.62 353.18,-332.4 359.66,-335.16 365.81,-337.65"/>
<polygon fill="#63b8ff" stroke="#63b8ff" points="305.98,-304.31 295.55,-302.46 302.55,-310.41 305.98,-304.31"/>
</a>
</g>
</g>
<!-- Node6 -->
<g id="Node000006" class="node">
<title>Node6</title>
<g id="a_Node000006"><a xlink:href="class_napi_1_1_data_view.html" target="_top" xlink:title=" ">
<polygon fill="white" stroke="#666666" points="435.62,-320.25 350.62,-320.25 350.62,-301 435.62,-301 435.62,-320.25"/>
<text xml:space="preserve" text-anchor="middle" x="393.12" y="-306.75" font-family="Helvetica,sans-Serif" font-size="10.00">Napi::DataView</text>
</a>
</g>
</g>
<!-- Node1&#45;&gt;Node6 -->
<g id="edge5_Node000001_Node000006" class="edge">
<title>Node1&#45;&gt;Node6</title>
<g id="a_edge5_Node000001_Node000006"><a xlink:title=" ">
<path fill="none" stroke="#63b8ff" d="M322.68,-299.18C331.78,-300.68 341.29,-302.24 350.24,-303.72"/>
<polygon fill="#63b8ff" stroke="#63b8ff" points="323.38,-295.75 312.95,-297.57 322.24,-302.65 323.38,-295.75"/>
</a>
</g>
</g>
<!-- Node7 -->
<g id="Node000007" class="node">
<title>Node7</title>
<g id="a_Node000007"><a xlink:href="class_napi_1_1_function.html" target="_top" xlink:title=" ">
<polygon fill="white" stroke="#666666" points="433,-283.25 353.25,-283.25 353.25,-264 433,-264 433,-283.25"/>
<text xml:space="preserve" text-anchor="middle" x="393.12" y="-269.75" font-family="Helvetica,sans-Serif" font-size="10.00">Napi::Function</text>
</a>
</g>
</g>
<!-- Node1&#45;&gt;Node7 -->
<g id="edge6_Node000001_Node000007" class="edge">
<title>Node1&#45;&gt;Node7</title>
<g id="a_edge6_Node000001_Node000007"><a xlink:title=" ">
<path fill="none" stroke="#63b8ff" d="M322.58,-284.49C332.69,-282.91 343.31,-281.25 353.13,-279.72"/>
<polygon fill="#63b8ff" stroke="#63b8ff" points="322.29,-280.99 312.95,-285.99 323.37,-287.91 322.29,-280.99"/>
</a>
</g>
</g>
<!-- Node8 -->
<g id="Node000008" class="node">
<title>Node8</title>
<g id="a_Node000008"><a xlink:href="class_napi_1_1_promise.html" target="_top" xlink:title=" ">
<polygon fill="white" stroke="#666666" points="432.25,-246.25 354,-246.25 354,-227 432.25,-227 432.25,-246.25"/>
<text xml:space="preserve" text-anchor="middle" x="393.12" y="-232.75" font-family="Helvetica,sans-Serif" font-size="10.00">Napi::Promise</text>
</a>
</g>
</g>
<!-- Node1&#45;&gt;Node8 -->
<g id="edge7_Node000001_Node000008" class="edge">
<title>Node1&#45;&gt;Node8</title>
<g id="a_edge7_Node000001_Node000008"><a xlink:title=" ">
<path fill="none" stroke="#63b8ff" d="M304.87,-276.06C317.64,-269.18 333.05,-261.18 347.25,-254.62 353.19,-251.88 359.68,-249.14 365.83,-246.65"/>
<polygon fill="#63b8ff" stroke="#63b8ff" points="303.28,-272.94 296.17,-280.8 306.63,-279.09 303.28,-272.94"/>
</a>
</g>
</g>
<!-- Node9 -->
<g id="Node000009" class="node">
<title>Node9</title>
<g id="a_Node000009"><a xlink:href="class_napi_1_1_typed_array.html" target="_top" xlink:title=" ">
<polygon fill="white" stroke="#666666" points="439,-209.25 347.25,-209.25 347.25,-190 439,-190 439,-209.25"/>
<text xml:space="preserve" text-anchor="middle" x="393.12" y="-195.75" font-family="Helvetica,sans-Serif" font-size="10.00">Napi::TypedArray</text>
</a>
</g>
</g>
<!-- Node1&#45;&gt;Node9 -->
<g id="edge8_Node000001_Node000009" class="edge">
<title>Node1&#45;&gt;Node9</title>
<g id="a_edge8_Node000001_Node000009"><a xlink:title=" ">
<path fill="none" stroke="#63b8ff" d="M290.77,-272.98C303.83,-256.56 324.68,-232.93 347.25,-217.62 351.7,-214.61 356.72,-211.98 361.76,-209.72"/>
<polygon fill="#63b8ff" stroke="#63b8ff" points="288.31,-270.45 284.96,-280.5 293.85,-274.73 288.31,-270.45"/>
</a>
</g>
</g>
<!-- Node2 -->
<g id="Node000002" class="node">
<title>Node2</title>
<g id="a_Node000002"><a xlink:href="class_napi_1_1_type_taggable.html" target="_top" xlink:title=" ">
<polygon fill="white" stroke="#666666" points="204.5,-301.25 102.25,-301.25 102.25,-282 204.5,-282 204.5,-301.25"/>
<text xml:space="preserve" text-anchor="middle" x="153.38" y="-287.75" font-family="Helvetica,sans-Serif" font-size="10.00">Napi::TypeTaggable</text>
</a>
</g>
</g>
<!-- Node2&#45;&gt;Node1 -->
<g id="edge1_Node000001_Node000002" class="edge">
<title>Node2&#45;&gt;Node1</title>
<g id="a_edge1_Node000001_Node000002"><a xlink:title=" ">
<path fill="none" stroke="#63b8ff" d="M216.28,-291.62C224.44,-291.62 232.56,-291.62 240.04,-291.62"/>
<polygon fill="#63b8ff" stroke="#63b8ff" points="216.29,-288.13 206.29,-291.63 216.29,-295.13 216.29,-288.13"/>
</a>
</g>
</g>
<!-- Node3 -->
<g id="Node000003" class="node">
<title>Node3</title>
<g id="a_Node000003"><a xlink:href="class_napi_1_1_value.html" target="_top" xlink:title=" ">
<polygon fill="white" stroke="#666666" points="66.25,-301.25 0,-301.25 0,-282 66.25,-282 66.25,-301.25"/>
<text xml:space="preserve" text-anchor="middle" x="33.12" y="-287.75" font-family="Helvetica,sans-Serif" font-size="10.00">Napi::Value</text>
</a>
</g>
</g>
<!-- Node3&#45;&gt;Node2 -->
<g id="edge2_Node000002_Node000003" class="edge">
<title>Node3&#45;&gt;Node2</title>
<g id="a_edge2_Node000002_Node000003"><a xlink:title=" ">
<path fill="none" stroke="#63b8ff" d="M77.91,-291.62C85.72,-291.62 93.91,-291.62 101.88,-291.62"/>
<polygon fill="#63b8ff" stroke="#63b8ff" points="77.95,-288.13 67.95,-291.63 77.95,-295.13 77.95,-288.13"/>
</a>
</g>
</g>
<!-- Node10 -->
<g id="Node000010" class="node">
<title>Node10</title>
<g id="a_Node000010"><a xlink:href="class_napi_1_1_typed_array_of.html" target="_top" xlink:title=" ">
<polygon fill="white" stroke="#666666" points="589.25,-410.88 487,-410.88 487,-380.38 589.25,-380.38 589.25,-410.88"/>
<text xml:space="preserve" text-anchor="start" x="495" y="-397.38" font-family="Helvetica,sans-Serif" font-size="10.00">Napi::TypedArrayOf</text>
<text xml:space="preserve" text-anchor="middle" x="538.12" y="-386.12" font-family="Helvetica,sans-Serif" font-size="10.00">&lt; int8_t &gt;</text>
</a>
</g>
</g>
<!-- Node9&#45;&gt;Node10 -->
<g id="edge9_Node000009_Node000010" class="edge">
<title>Node9&#45;&gt;Node10</title>
<g id="a_edge9_Node000009_Node000010"><a xlink:title=" ">
<path fill="none" stroke="#63b8ff" d="M438.21,-216.74C438.48,-217.03 438.74,-217.33 439,-217.62 484.55,-270.59 429.48,-317.63 475,-370.62 478.33,-374.51 482.36,-377.79 486.73,-380.57"/>
<polygon fill="#63b8ff" stroke="#63b8ff" points="440.43,-214.03 430.41,-210.59 436.09,-219.53 440.43,-214.03"/>
</a>
</g>
</g>
<!-- Node11 -->
<g id="Node000011" class="node">
<title>Node11</title>
<g id="a_Node000011"><a xlink:href="class_napi_1_1_typed_array_of.html" target="_top" xlink:title=" ">
<polygon fill="white" stroke="#666666" points="589.25,-361.88 487,-361.88 487,-331.38 589.25,-331.38 589.25,-361.88"/>
<text xml:space="preserve" text-anchor="start" x="495" y="-348.38" font-family="Helvetica,sans-Serif" font-size="10.00">Napi::TypedArrayOf</text>
<text xml:space="preserve" text-anchor="middle" x="538.12" y="-337.12" font-family="Helvetica,sans-Serif" font-size="10.00">&lt; uint8_t &gt;</text>
</a>
</g>
</g>
<!-- Node9&#45;&gt;Node11 -->
<g id="edge10_Node000009_Node000011" class="edge">
<title>Node9&#45;&gt;Node11</title>
<g id="a_edge10_Node000009_Node000011"><a xlink:title=" ">
<path fill="none" stroke="#63b8ff" d="M437.54,-216.18C438.04,-216.65 438.53,-217.13 439,-217.62 472.74,-253.04 441.28,-286.2 475,-321.62 478.45,-325.25 482.49,-328.36 486.83,-331.02"/>
<polygon fill="#63b8ff" stroke="#63b8ff" points="439.86,-213.54 429.69,-210.56 435.78,-219.23 439.86,-213.54"/>
</a>
</g>
</g>
<!-- Node13 -->
<g id="Node000013" class="node">
<title>Node13</title>
<g id="a_Node000013"><a xlink:href="class_napi_1_1_typed_array_of.html" target="_top" xlink:title=" ">
<polygon fill="white" stroke="#666666" points="589.25,-312.88 487,-312.88 487,-282.38 589.25,-282.38 589.25,-312.88"/>
<text xml:space="preserve" text-anchor="start" x="495" y="-299.38" font-family="Helvetica,sans-Serif" font-size="10.00">Napi::TypedArrayOf</text>
<text xml:space="preserve" text-anchor="middle" x="538.12" y="-288.12" font-family="Helvetica,sans-Serif" font-size="10.00">&lt; int16_t &gt;</text>
</a>
</g>
</g>
<!-- Node9&#45;&gt;Node13 -->
<g id="edge12_Node000009_Node000013" class="edge">
<title>Node9&#45;&gt;Node13</title>
<g id="a_edge12_Node000009_Node000013"><a xlink:title=" ">
<path fill="none" stroke="#63b8ff" d="M436.07,-215.4C437.08,-216.11 438.06,-216.85 439,-217.62 461.6,-236.14 452.41,-254.1 475,-272.62 479.31,-276.16 484.2,-279.25 489.28,-281.94"/>
<polygon fill="#63b8ff" stroke="#63b8ff" points="438.08,-212.52 427.68,-210.5 434.55,-218.56 438.08,-212.52"/>
</a>
</g>
</g>
<!-- Node14 -->
<g id="Node000014" class="node">
<title>Node14</title>
<g id="a_Node000014"><a xlink:href="class_napi_1_1_typed_array_of.html" target="_top" xlink:title=" ">
<polygon fill="white" stroke="#666666" points="589.25,-263.88 487,-263.88 487,-233.38 589.25,-233.38 589.25,-263.88"/>
<text xml:space="preserve" text-anchor="start" x="495" y="-250.38" font-family="Helvetica,sans-Serif" font-size="10.00">Napi::TypedArrayOf</text>
<text xml:space="preserve" text-anchor="middle" x="538.12" y="-239.12" font-family="Helvetica,sans-Serif" font-size="10.00">&lt; uint16_t &gt;</text>
</a>
</g>
</g>
<!-- Node9&#45;&gt;Node14 -->
<g id="edge13_Node000009_Node000014" class="edge">
<title>Node9&#45;&gt;Node14</title>
<g id="a_edge13_Node000009_Node000014"><a xlink:title=" ">
<path fill="none" stroke="#63b8ff" d="M434.26,-213.38C451.99,-219.45 472.93,-226.63 491.27,-232.91"/>
<polygon fill="#63b8ff" stroke="#63b8ff" points="435.43,-210.08 424.84,-210.15 433.17,-216.7 435.43,-210.08"/>
</a>
</g>
</g>
<!-- Node15 -->
<g id="Node000015" class="node">
<title>Node15</title>
<g id="a_Node000015"><a xlink:href="class_napi_1_1_typed_array_of.html" target="_top" xlink:title=" ">
<polygon fill="white" stroke="#666666" points="589.25,-214.88 487,-214.88 487,-184.38 589.25,-184.38 589.25,-214.88"/>
<text xml:space="preserve" text-anchor="start" x="495" y="-201.38" font-family="Helvetica,sans-Serif" font-size="10.00">Napi::TypedArrayOf</text>
<text xml:space="preserve" text-anchor="middle" x="538.12" y="-190.12" font-family="Helvetica,sans-Serif" font-size="10.00">&lt; int32_t &gt;</text>
</a>
</g>
</g>
<!-- Node9&#45;&gt;Node15 -->
<g id="edge14_Node000009_Node000015" class="edge">
<title>Node9&#45;&gt;Node15</title>
<g id="a_edge14_Node000009_Node000015"><a xlink:title=" ">
<path fill="none" stroke="#63b8ff" d="M450.58,-199.62C462.51,-199.62 475.02,-199.62 486.71,-199.62"/>
<polygon fill="#63b8ff" stroke="#63b8ff" points="450.88,-196.13 440.88,-199.63 450.88,-203.13 450.88,-196.13"/>
</a>
</g>
</g>
<!-- Node16 -->
<g id="Node000016" class="node">
<title>Node16</title>
<g id="a_Node000016"><a xlink:href="class_napi_1_1_typed_array_of.html" target="_top" xlink:title=" ">
<polygon fill="white" stroke="#666666" points="589.25,-165.88 487,-165.88 487,-135.38 589.25,-135.38 589.25,-165.88"/>
<text xml:space="preserve" text-anchor="start" x="495" y="-152.38" font-family="Helvetica,sans-Serif" font-size="10.00">Napi::TypedArrayOf</text>
<text xml:space="preserve" text-anchor="middle" x="538.12" y="-141.12" font-family="Helvetica,sans-Serif" font-size="10.00">&lt; uint32_t &gt;</text>
</a>
</g>
</g>
<!-- Node9&#45;&gt;Node16 -->
<g id="edge15_Node000009_Node000016" class="edge">
<title>Node9&#45;&gt;Node16</title>
<g id="a_edge15_Node000009_Node000016"><a xlink:title=" ">
<path fill="none" stroke="#63b8ff" d="M434.26,-185.87C451.99,-179.8 472.93,-172.62 491.27,-166.34"/>
<polygon fill="#63b8ff" stroke="#63b8ff" points="433.17,-182.55 424.84,-189.1 435.43,-189.17 433.17,-182.55"/>
</a>
</g>
</g>
<!-- Node17 -->
<g id="Node000017" class="node">
<title>Node17</title>
<g id="a_Node000017"><a xlink:href="class_napi_1_1_typed_array_of.html" target="_top" xlink:title=" ">
<polygon fill="white" stroke="#666666" points="589.25,-116.88 487,-116.88 487,-86.38 589.25,-86.38 589.25,-116.88"/>
<text xml:space="preserve" text-anchor="start" x="495" y="-103.38" font-family="Helvetica,sans-Serif" font-size="10.00">Napi::TypedArrayOf</text>
<text xml:space="preserve" text-anchor="middle" x="538.12" y="-92.12" font-family="Helvetica,sans-Serif" font-size="10.00">&lt; float &gt;</text>
</a>
</g>
</g>
<!-- Node9&#45;&gt;Node17 -->
<g id="edge16_Node000009_Node000017" class="edge">
<title>Node9&#45;&gt;Node17</title>
<g id="a_edge16_Node000009_Node000017"><a xlink:title=" ">
<path fill="none" stroke="#63b8ff" d="M410.52,-181.57C425.92,-165.46 450.23,-142.1 475,-126.62 480.52,-123.18 486.6,-120.04 492.73,-117.24"/>
<polygon fill="#63b8ff" stroke="#63b8ff" points="408.25,-178.88 403.98,-188.57 413.36,-183.66 408.25,-178.88"/>
</a>
</g>
</g>
<!-- Node18 -->
<g id="Node000018" class="node">
<title>Node18</title>
<g id="a_Node000018"><a xlink:href="class_napi_1_1_typed_array_of.html" target="_top" xlink:title=" ">
<polygon fill="white" stroke="#666666" points="589.25,-67.88 487,-67.88 487,-37.38 589.25,-37.38 589.25,-67.88"/>
<text xml:space="preserve" text-anchor="start" x="495" y="-54.38" font-family="Helvetica,sans-Serif" font-size="10.00">Napi::TypedArrayOf</text>
<text xml:space="preserve" text-anchor="middle" x="538.12" y="-43.12" font-family="Helvetica,sans-Serif" font-size="10.00">&lt; double &gt;</text>
</a>
</g>
</g>
<!-- Node9&#45;&gt;Node18 -->
<g id="edge17_Node000009_Node000018" class="edge">
<title>Node9&#45;&gt;Node18</title>
<g id="a_edge17_Node000009_Node000018"><a xlink:title=" ">
<path fill="none" stroke="#63b8ff" d="M402.92,-179.19C415.37,-152.47 440.52,-105.74 475,-77.62 479.33,-74.1 484.21,-71.02 489.3,-68.33"/>
<polygon fill="#63b8ff" stroke="#63b8ff" points="399.76,-177.68 398.86,-188.24 406.15,-180.55 399.76,-177.68"/>
</a>
</g>
</g>
<!-- Node19 -->
<g id="Node000019" class="node">
<title>Node19</title>
<g id="a_Node000019"><a xlink:href="class_napi_1_1_typed_array_of.html" target="_top" xlink:title=" ">
<polygon fill="white" stroke="#666666" points="601.25,-19.25 475,-19.25 475,0 601.25,0 601.25,-19.25"/>
<text xml:space="preserve" text-anchor="middle" x="538.12" y="-5.75" font-family="Helvetica,sans-Serif" font-size="10.00">Napi::TypedArrayOf&lt; T &gt;</text>
</a>
</g>
</g>
<!-- Node9&#45;&gt;Node19 -->
<g id="edge18_Node000009_Node000019" class="edge">
<title>Node9&#45;&gt;Node19</title>
<g id="a_edge18_Node000009_Node000019"><a xlink:title=" ">
<path fill="none" stroke="#63b8ff" d="M398.23,-178.81C406.4,-142.88 428.11,-69.17 475,-28.62 479.18,-25.01 484.04,-22.08 489.16,-19.71"/>
<polygon fill="#63b8ff" stroke="#63b8ff" points="394.86,-177.84 396.2,-188.35 401.7,-179.3 394.86,-177.84"/>
</a>
</g>
</g>
<!-- Node12 -->
<g id="Node000012" class="node">
<title>Node12</title>
<g id="a_Node000012"><a xlink:href="class_napi_1_1_buffer.html" target="_top" xlink:title=" ">
<polygon fill="white" stroke="#666666" points="729.75,-356.25 637.25,-356.25 637.25,-337 729.75,-337 729.75,-356.25"/>
<text xml:space="preserve" text-anchor="middle" x="683.5" y="-342.75" font-family="Helvetica,sans-Serif" font-size="10.00">Napi::Buffer&lt; T &gt;</text>
</a>
</g>
</g>
<!-- Node11&#45;&gt;Node12 -->
<g id="edge11_Node000011_Node000012" class="edge">
<title>Node11&#45;&gt;Node12</title>
<g id="a_edge11_Node000011_Node000012"><a xlink:title=" ">
<path fill="none" stroke="#63b8ff" d="M601.13,-346.62C613.24,-346.62 625.74,-346.62 637.18,-346.62"/>
<polygon fill="#63b8ff" stroke="#63b8ff" points="601.19,-343.13 591.19,-346.63 601.19,-350.13 601.19,-343.13"/>
</a>
</g>
</g>
</g>
</svg>

<g id="navigator" transform="translate(0 0)" fill="#404254">
  <rect fill="#f2f5e9" fill-opacity="0.5" stroke="#606060" stroke-width=".5" x="0" y="0" width="60" height="60"/>
  <use id="zoomplus" xlink:href="#zoomPlus" x="17" y="9" onmousedown="handleZoom(evt,'in')"/>
  <use id="zoomminus" xlink:href="#zoomMin" x="42" y="9" onmousedown="handleZoom(evt,'out')"/>
  <use id="reset" xlink:href="#resetDef" x="30" y="36" onmousedown="handleReset()"/>
   <use id="arrowup" xlink:href="#arrowUp" x="0" y="0" onmousedown="handlePan(0,-1)"/>
  <use id="arrowright" xlink:href="#arrowRight" x="0" y="0" onmousedown="handlePan(1,0)"/>
  <use id="arrowdown" xlink:href="#arrowDown" x="0" y="0" onmousedown="handlePan(0,1)"/>
  <use id="arrowleft" xlink:href="#arrowLeft" x="0" y="0" onmousedown="handlePan(-1,0)"/>
</g>
<svg viewBox="0 0 15 15" width="100%" height="30px" preserveAspectRatio="xMaxYMin meet">
 <g id="arrow_out" transform="scale(0.3 0.3)">
  <a xlink:href="class_napi_1_1_object__inherit__graph_org.svg" target="_base">
   <rect id="button" ry="5" rx="5" y="6" x="6" height="38" width="38"
        fill="#f2f5e9" fill-opacity="0.5" stroke="#606060" stroke-width="1.0"/>
   <path id="arrow"
     d="M 11.500037,31.436501 C 11.940474,20.09759 22.043105,11.32322 32.158766,21.979434 L 37.068811,17.246167 C 37.068811,17.246167 37.088388,32 37.088388,32 L 22.160133,31.978069 C 22.160133,31.978069 26.997745,27.140456 26.997745,27.140456 C 18.528582,18.264221 13.291696,25.230495 11.500037,31.436501 z"
     style="fill:#404040;"/>
  </a>
 </g>
</svg>

<style type='text/css'>
<![CDATA[
[data-mouse-over-selected='false'] { opacity: 0.7; }
[data-mouse-over-selected='true']  { opacity: 1.0; }
]]>
</style>
<script type="application/ecmascript"><![CDATA[
document.addEventListener('DOMContentLoaded', (event) => {
  highlightEdges();
  highlightAdjacentNodes();
});
]]></script>
</svg>
