<?xml version="1.0" encoding="UTF-8" standalone="no"?>
<!DOCTYPE svg PUBLIC "-//W3C//DTD SVG 1.1//EN"
 "http://www.w3.org/Graphics/SVG/1.1/DTD/svg11.dtd">
<!-- Generated by graphviz version 14.0.4 (20251115.1723)
 -->
<!-- Title: Napi::TypedArrayOf&lt; T &gt; Pages: 1 -->
<svg width="134pt" height="248pt"
 viewBox="0.00 0.00 134.00 248.00" xmlns="http://www.w3.org/2000/svg" xmlns:xlink="http://www.w3.org/1999/xlink">
<g id="graph0" class="graph" transform="scale(1 1) rotate(0) translate(4 244.25)">
<title>Napi::TypedArrayOf&lt; T &gt;</title>
<!-- Node1 -->
<g id="Node000001" class="node">
<title>Node1</title>
<g id="a_Node000001"><a xlink:title=" ">
<polygon fill="#999999" stroke="#666666" points="126.25,-19.25 0,-19.25 0,0 126.25,0 126.25,-19.25"/>
<text xml:space="preserve" text-anchor="middle" x="63.12" y="-5.75" font-family="Helvetica,sans-Serif" font-size="10.00">Napi::TypedArrayOf&lt; T &gt;</text>
</a>
</g>
</g>
<!-- Node2 -->
<g id="Node000002" class="node">
<title>Node2</title>
<g id="a_Node000002"><a xlink:href="class_napi_1_1_typed_array.html" target="_top" xlink:title=" ">
<polygon fill="white" stroke="#666666" points="109,-74.5 17.25,-74.5 17.25,-55.25 109,-55.25 109,-74.5"/>
<text xml:space="preserve" text-anchor="middle" x="63.12" y="-61" font-family="Helvetica,sans-Serif" font-size="10.00">Napi::TypedArray</text>
</a>
</g>
</g>
<!-- Node2&#45;&gt;Node1 -->
<g id="edge1_Node000001_Node000002" class="edge">
<title>Node2&#45;&gt;Node1</title>
<g id="a_edge1_Node000001_Node000002"><a xlink:title=" ">
<path fill="none" stroke="#63b8ff" d="M63.12,-43.63C63.12,-35.34 63.12,-26.17 63.12,-19.61"/>
<polygon fill="#63b8ff" stroke="#63b8ff" points="59.63,-43.57 63.13,-53.57 66.63,-43.57 59.63,-43.57"/>
</a>
</g>
</g>
<!-- Node3 -->
<g id="Node000003" class="node">
<title>Node3</title>
<g id="a_Node000003"><a xlink:href="class_napi_1_1_object.html" target="_top" xlink:title="A JavaScript object value.">
<polygon fill="white" stroke="#666666" points="98.5,-129.75 27.75,-129.75 27.75,-110.5 98.5,-110.5 98.5,-129.75"/>
<text xml:space="preserve" text-anchor="middle" x="63.12" y="-116.25" font-family="Helvetica,sans-Serif" font-size="10.00">Napi::Object</text>
</a>
</g>
</g>
<!-- Node3&#45;&gt;Node2 -->
<g id="edge2_Node000002_Node000003" class="edge">
<title>Node3&#45;&gt;Node2</title>
<g id="a_edge2_Node000002_Node000003"><a xlink:title=" ">
<path fill="none" stroke="#63b8ff" d="M63.12,-98.88C63.12,-90.59 63.12,-81.42 63.12,-74.86"/>
<polygon fill="#63b8ff" stroke="#63b8ff" points="59.63,-98.82 63.13,-108.82 66.63,-98.82 59.63,-98.82"/>
</a>
</g>
</g>
<!-- Node4 -->
<g id="Node000004" class="node">
<title>Node4</title>
<g id="a_Node000004"><a xlink:href="class_napi_1_1_type_taggable.html" target="_top" xlink:title=" ">
<polygon fill="white" stroke="#666666" points="114.25,-185 12,-185 12,-165.75 114.25,-165.75 114.25,-185"/>
<text xml:space="preserve" text-anchor="middle" x="63.12" y="-171.5" font-family="Helvetica,sans-Serif" font-size="10.00">Napi::TypeTaggable</text>
</a>
</g>
</g>
<!-- Node4&#45;&gt;Node3 -->
<g id="edge3_Node000003_Node000004" class="edge">
<title>Node4&#45;&gt;Node3</title>
<g id="a_edge3_Node000003_Node000004"><a xlink:title=" ">
<path fill="none" stroke="#63b8ff" d="M63.12,-154.13C63.12,-145.84 63.12,-136.67 63.12,-130.11"/>
<polygon fill="#63b8ff" stroke="#63b8ff" points="59.63,-154.07 63.13,-164.07 66.63,-154.07 59.63,-154.07"/>
</a>
</g>
</g>
<!-- Node5 -->
<g id="Node000005" class="node">
<title>Node5</title>
<g id="a_Node000005"><a xlink:href="class_napi_1_1_value.html" target="_top" xlink:title=" ">
<polygon fill="white" stroke="#666666" points="96.25,-240.25 30,-240.25 30,-221 96.25,-221 96.25,-240.25"/>
<text xml:space="preserve" text-anchor="middle" x="63.12" y="-226.75" font-family="Helvetica,sans-Serif" font-size="10.00">Napi::Value</text>
</a>
</g>
</g>
<!-- Node5&#45;&gt;Node4 -->
<g id="edge4_Node000004_Node000005" class="edge">
<title>Node5&#45;&gt;Node4</title>
<g id="a_edge4_Node000004_Node000005"><a xlink:title=" ">
<path fill="none" stroke="#63b8ff" d="M63.12,-209.38C63.12,-201.09 63.12,-191.92 63.12,-185.36"/>
<polygon fill="#63b8ff" stroke="#63b8ff" points="59.63,-209.32 63.13,-219.32 66.63,-209.32 59.63,-209.32"/>
</a>
</g>
</g>
</g>
</svg>
