<?xml version="1.0" encoding="UTF-8" standalone="no"?>
<!DOCTYPE svg PUBLIC "-//W3C//DTD SVG 1.1//EN"
 "http://www.w3.org/Graphics/SVG/1.1/DTD/svg11.dtd">
<!-- Generated by graphviz version 14.0.4 (20251115.1723)
 -->
<!-- Title: frontend/node_modules/@types Pages: 1 -->
<!--zoomable 95 -->

<svg id="main" version="1.1" xmlns="http://www.w3.org/2000/svg" xmlns:xlink="http://www.w3.org/1999/xlink" xml:space="preserve" onload="init(evt)">

<style type="text/css"><![CDATA[
.node, .edge {opacity: 0.7;}
.node.selected, .edge.selected {opacity: 1;}
.edge:hover path { stroke: red; }
.edge:hover polygon { stroke: red; fill: red; }
]]></style>

<defs>
  <circle id="rim" cx="0" cy="0" r="7"/>
  <circle id="rim2" cx="0" cy="0" r="3.5"/>
  <g id="zoomPlus">
    <use xlink:href="#rim" fill="#404040"><set attributeName="fill" to="#808080" begin="zoomplus.mouseover" end="zoomplus.mouseout"/></use>
    <path d="M-4,0h8M0,-4v8" fill="none" stroke="white" stroke-width="1.5" pointer-events="none"/>
  </g>
  <g id="zoomMin">
    <use xlink:href="#rim" fill="#404040"><set attributeName="fill" to="#808080" begin="zoomminus.mouseover" end="zoomminus.mouseout"/></use>
    <path d="M-4,0h8" fill="none" stroke="white" stroke-width="1.5" pointer-events="none"/>
  </g>
  <g id="arrowUp" transform="translate(30 24)">
    <use xlink:href="#rim"/>
    <path pointer-events="none" fill="none" stroke="white" stroke-width="1.5" d="M0,-3.0v7 M-2.5,-0.5L0,-3.0L2.5,-0.5"/>
  </g>
  <g id="arrowRight" transform="rotate(90) translate(36 -43)">
    <use xlink:href="#rim"/>
    <path pointer-events="none" fill="none" stroke="white" stroke-width="1.5" d="M0,-3.0v7 M-2.5,-0.5L0,-3.0L2.5,-0.5"/>
  </g>
  <g id="arrowDown" transform="rotate(180) translate(-30 -48)">
    <use xlink:href="#rim"/>
    <path pointer-events="none" fill="none" stroke="white" stroke-width="1.5" d="M0,-3.0v7 M-2.5,-0.5L0,-3.0L2.5,-0.5"/>
  </g>
  <g id="arrowLeft" transform="rotate(270) translate(-36 17)">
    <use xlink:href="#rim"/>
    <path pointer-events="none" fill="none" stroke="white" stroke-width="1.5" d="M0,-3.0v7 M-2.5,-0.5L0,-3.0L2.5,-0.5"/>
  </g>
  <g id="resetDef">
    <use xlink:href="#rim2" fill="#404040"><set attributeName="fill" to="#808080" begin="reset.mouseover" end="reset.mouseout"/></use>
  </g>
</defs>
<script type="application/ecmascript">
var viewWidth = 848;
var viewHeight = 95;
var sectionId = 'dynsection-0';
</script>
<script type="application/ecmascript" xlink:href="svg.min.js"/>
<svg id="graph" class="graph">
<g id="viewport">
<title>frontend/node_modules/@types</title>
<g id="clust1" class="cluster">
<title>clusterdir_8be25e30241834509be35899d7f7509b</title>
<g id="a_clust1"><a xlink:href="dir_8be25e30241834509be35899d7f7509b.html" target="_top" xlink:title="node_modules">
<polygon fill="#edf0f7" stroke="#7f7f7f" stroke-dasharray="5,2" points="8,-8 8,-78.5 832,-78.5 832,-8 8,-8"/>
<text xml:space="preserve" text-anchor="middle" x="420" y="-65" font-family="Helvetica,sans-Serif" font-size="10.00">node_modules</text>
</a>
</g>
</g>
<g id="clust2" class="cluster">
<title>clusterdir_e287942531e1809827c1a69aa97e6920</title>
<g id="a_clust2"><a xlink:href="dir_e287942531e1809827c1a69aa97e6920.html" target="_top">
<polygon fill="#edf0f7" stroke="#404040" stroke-width="2" points="16,-16 16,-51.25 824,-51.25 824,-16 16,-16"/>
</a>
</g>
</g>
<!-- dir_e287942531e1809827c1a69aa97e6920 -->
<g id="node1" class="node">
<title>dir_e287942531e1809827c1a69aa97e6920</title>
<text xml:space="preserve" text-anchor="middle" x="49" y="-29.75" font-family="Helvetica,sans-Serif" font-size="10.00">@types</text>
</g>
<!-- dir_deba8b345c1f8d852ed3cffc3493cdd0 -->
<g id="node2" class="node">
<title>dir_deba8b345c1f8d852ed3cffc3493cdd0</title>
<g id="a_node2"><a xlink:href="dir_deba8b345c1f8d852ed3cffc3493cdd0.html" target="_top" xlink:title="babel__core">
<polygon fill="#a2b4d6" stroke="#404040" points="161.25,-43.25 92.75,-43.25 92.75,-24 161.25,-24 161.25,-43.25"/>
<text xml:space="preserve" text-anchor="middle" x="127" y="-29.75" font-family="Helvetica,sans-Serif" font-size="10.00">babel__core</text>
</a>
</g>
</g>
<!-- dir_0dd7094ddcc28f056b746615c391c39e -->
<g id="node3" class="node">
<title>dir_0dd7094ddcc28f056b746615c391c39e</title>
<g id="a_node3"><a xlink:href="dir_0dd7094ddcc28f056b746615c391c39e.html" target="_top" xlink:title="babel__generator">
<polygon fill="#a2b4d6" stroke="#404040" points="269.12,-43.25 178.88,-43.25 178.88,-24 269.12,-24 269.12,-43.25"/>
<text xml:space="preserve" text-anchor="middle" x="224" y="-29.75" font-family="Helvetica,sans-Serif" font-size="10.00">babel__generator</text>
</a>
</g>
</g>
<!-- dir_f39a655ee70770916ed5d478086e1cb1 -->
<g id="node4" class="node">
<title>dir_f39a655ee70770916ed5d478086e1cb1</title>
<g id="a_node4"><a xlink:href="dir_f39a655ee70770916ed5d478086e1cb1.html" target="_top" xlink:title="babel__template">
<polygon fill="#a2b4d6" stroke="#404040" points="374.62,-43.25 287.38,-43.25 287.38,-24 374.62,-24 374.62,-43.25"/>
<text xml:space="preserve" text-anchor="middle" x="331" y="-29.75" font-family="Helvetica,sans-Serif" font-size="10.00">babel__template</text>
</a>
</g>
</g>
<!-- dir_c0ff49144216f65ae103c31b132fbbdd -->
<g id="node5" class="node">
<title>dir_c0ff49144216f65ae103c31b132fbbdd</title>
<g id="a_node5"><a xlink:href="dir_c0ff49144216f65ae103c31b132fbbdd.html" target="_top" xlink:title="babel__traverse">
<polygon fill="#a2b4d6" stroke="#404040" points="477.5,-43.25 392.5,-43.25 392.5,-24 477.5,-24 477.5,-43.25"/>
<text xml:space="preserve" text-anchor="middle" x="435" y="-29.75" font-family="Helvetica,sans-Serif" font-size="10.00">babel__traverse</text>
</a>
</g>
</g>
<!-- dir_41979f1980d929add3b495aa4b99c28a -->
<g id="node6" class="node">
<title>dir_41979f1980d929add3b495aa4b99c28a</title>
<g id="a_node6"><a xlink:href="dir_41979f1980d929add3b495aa4b99c28a.html" target="_top" xlink:title="estree">
<polygon fill="#a2b4d6" stroke="#404040" points="538.5,-43.25 495.5,-43.25 495.5,-24 538.5,-24 538.5,-43.25"/>
<text xml:space="preserve" text-anchor="middle" x="517" y="-29.75" font-family="Helvetica,sans-Serif" font-size="10.00">estree</text>
</a>
</g>
</g>
<!-- dir_efde1bc7a0c7a1734d80d0805d108321 -->
<g id="node7" class="node">
<title>dir_efde1bc7a0c7a1734d80d0805d108321</title>
<g id="a_node7"><a xlink:href="dir_efde1bc7a0c7a1734d80d0805d108321.html" target="_top" xlink:title="json&#45;schema">
<polygon fill="#a2b4d6" stroke="#404040" points="627.75,-43.25 556.25,-43.25 556.25,-24 627.75,-24 627.75,-43.25"/>
<text xml:space="preserve" text-anchor="middle" x="592" y="-29.75" font-family="Helvetica,sans-Serif" font-size="10.00">json&#45;schema</text>
</a>
</g>
</g>
<!-- dir_9e903e952abaebb4672cca78502985a5 -->
<g id="node8" class="node">
<title>dir_9e903e952abaebb4672cca78502985a5</title>
<g id="a_node8"><a xlink:href="dir_9e903e952abaebb4672cca78502985a5.html" target="_top" xlink:title="node">
<polygon fill="#a2b4d6" stroke="#404040" points="682.5,-43.25 645.5,-43.25 645.5,-24 682.5,-24 682.5,-43.25"/>
<text xml:space="preserve" text-anchor="middle" x="664" y="-29.75" font-family="Helvetica,sans-Serif" font-size="10.00">node</text>
</a>
</g>
</g>
<!-- dir_1db073bef8afc212a66fbb7732bca54e -->
<g id="node9" class="node">
<title>dir_1db073bef8afc212a66fbb7732bca54e</title>
<g id="a_node9"><a xlink:href="dir_1db073bef8afc212a66fbb7732bca54e.html" target="_top" xlink:title="react">
<polygon fill="#a2b4d6" stroke="#404040" points="737.88,-43.25 700.12,-43.25 700.12,-24 737.88,-24 737.88,-43.25"/>
<text xml:space="preserve" text-anchor="middle" x="719" y="-29.75" font-family="Helvetica,sans-Serif" font-size="10.00">react</text>
</a>
</g>
</g>
<!-- dir_da1202e2f0440bb7bc5975bb53f07dbb -->
<g id="node10" class="node">
<title>dir_da1202e2f0440bb7bc5975bb53f07dbb</title>
<g id="a_node10"><a xlink:href="dir_da1202e2f0440bb7bc5975bb53f07dbb.html" target="_top" xlink:title="react&#45;dom">
<polygon fill="#a2b4d6" stroke="#404040" points="815.75,-43.25 756.25,-43.25 756.25,-24 815.75,-24 815.75,-43.25"/>
<text xml:space="preserve" text-anchor="middle" x="786" y="-29.75" font-family="Helvetica,sans-Serif" font-size="10.00">react&#45;dom</text>
</a>
</g>
</g>
</g>
</svg>

<g id="navigator" transform="translate(0 0)" fill="#404254">
  <rect fill="#f2f5e9" fill-opacity="0.5" stroke="#606060" stroke-width=".5" x="0" y="0" width="60" height="60"/>
  <use id="zoomplus" xlink:href="#zoomPlus" x="17" y="9" onmousedown="handleZoom(evt,'in')"/>
  <use id="zoomminus" xlink:href="#zoomMin" x="42" y="9" onmousedown="handleZoom(evt,'out')"/>
  <use id="reset" xlink:href="#resetDef" x="30" y="36" onmousedown="handleReset()"/>
   <use id="arrowup" xlink:href="#arrowUp" x="0" y="0" onmousedown="handlePan(0,-1)"/>
  <use id="arrowright" xlink:href="#arrowRight" x="0" y="0" onmousedown="handlePan(1,0)"/>
  <use id="arrowdown" xlink:href="#arrowDown" x="0" y="0" onmousedown="handlePan(0,1)"/>
  <use id="arrowleft" xlink:href="#arrowLeft" x="0" y="0" onmousedown="handlePan(-1,0)"/>
</g>
<svg viewBox="0 0 15 15" width="100%" height="30px" preserveAspectRatio="xMaxYMin meet">
 <g id="arrow_out" transform="scale(0.3 0.3)">
  <a xlink:href="dir_e287942531e1809827c1a69aa97e6920_dep_org.svg" target="_base">
   <rect id="button" ry="5" rx="5" y="6" x="6" height="38" width="38"
        fill="#f2f5e9" fill-opacity="0.5" stroke="#606060" stroke-width="1.0"/>
   <path id="arrow"
     d="M 11.500037,31.436501 C 11.940474,20.09759 22.043105,11.32322 32.158766,21.979434 L 37.068811,17.246167 C 37.068811,17.246167 37.088388,32 37.088388,32 L 22.160133,31.978069 C 22.160133,31.978069 26.997745,27.140456 26.997745,27.140456 C 18.528582,18.264221 13.291696,25.230495 11.500037,31.436501 z"
     style="fill:#404040;"/>
  </a>
 </g>
</svg>

<style type='text/css'>
<![CDATA[
[data-mouse-over-selected='false'] { opacity: 0.7; }
[data-mouse-over-selected='true']  { opacity: 1.0; }
]]>
</style>
<script type="application/ecmascript"><![CDATA[
document.addEventListener('DOMContentLoaded', (event) => {
  highlightEdges();
  highlightAdjacentNodes();
});
]]></script>
</svg>
