<?xml version="1.0" encoding="UTF-8" standalone="no"?>
<!DOCTYPE svg PUBLIC "-//W3C//DTD SVG 1.1//EN"
 "http://www.w3.org/Graphics/SVG/1.1/DTD/svg11.dtd">
<!-- Generated by graphviz version 14.0.4 (20251115.1723)
 -->
<!-- Title: frontend/node_modules/@eslint Pages: 1 -->
<!--zoomable 95 -->

<svg id="main" version="1.1" xmlns="http://www.w3.org/2000/svg" xmlns:xlink="http://www.w3.org/1999/xlink" xml:space="preserve" onload="init(evt)">

<style type="text/css"><![CDATA[
.node, .edge {opacity: 0.7;}
.node.selected, .edge.selected {opacity: 1;}
.edge:hover path { stroke: red; }
.edge:hover polygon { stroke: red; fill: red; }
]]></style>

<defs>
  <circle id="rim" cx="0" cy="0" r="7"/>
  <circle id="rim2" cx="0" cy="0" r="3.5"/>
  <g id="zoomPlus">
    <use xlink:href="#rim" fill="#404040"><set attributeName="fill" to="#808080" begin="zoomplus.mouseover" end="zoomplus.mouseout"/></use>
    <path d="M-4,0h8M0,-4v8" fill="none" stroke="white" stroke-width="1.5" pointer-events="none"/>
  </g>
  <g id="zoomMin">
    <use xlink:href="#rim" fill="#404040"><set attributeName="fill" to="#808080" begin="zoomminus.mouseover" end="zoomminus.mouseout"/></use>
    <path d="M-4,0h8" fill="none" stroke="white" stroke-width="1.5" pointer-events="none"/>
  </g>
  <g id="arrowUp" transform="translate(30 24)">
    <use xlink:href="#rim"/>
    <path pointer-events="none" fill="none" stroke="white" stroke-width="1.5" d="M0,-3.0v7 M-2.5,-0.5L0,-3.0L2.5,-0.5"/>
  </g>
  <g id="arrowRight" transform="rotate(90) translate(36 -43)">
    <use xlink:href="#rim"/>
    <path pointer-events="none" fill="none" stroke="white" stroke-width="1.5" d="M0,-3.0v7 M-2.5,-0.5L0,-3.0L2.5,-0.5"/>
  </g>
  <g id="arrowDown" transform="rotate(180) translate(-30 -48)">
    <use xlink:href="#rim"/>
    <path pointer-events="none" fill="none" stroke="white" stroke-width="1.5" d="M0,-3.0v7 M-2.5,-0.5L0,-3.0L2.5,-0.5"/>
  </g>
  <g id="arrowLeft" transform="rotate(270) translate(-36 17)">
    <use xlink:href="#rim"/>
    <path pointer-events="none" fill="none" stroke="white" stroke-width="1.5" d="M0,-3.0v7 M-2.5,-0.5L0,-3.0L2.5,-0.5"/>
  </g>
  <g id="resetDef">
    <use xlink:href="#rim2" fill="#404040"><set attributeName="fill" to="#808080" begin="reset.mouseover" end="reset.mouseout"/></use>
  </g>
</defs>
<script type="application/ecmascript">
var viewWidth = 621;
var viewHeight = 95;
var sectionId = 'dynsection-0';
</script>
<script type="application/ecmascript" xlink:href="svg.min.js"/>
<svg id="graph" class="graph">
<g id="viewport">
<title>frontend/node_modules/@eslint</title>
<g id="clust1" class="cluster">
<title>clusterdir_8be25e30241834509be35899d7f7509b</title>
<g id="a_clust1"><a xlink:href="dir_8be25e30241834509be35899d7f7509b.html" target="_top" xlink:title="node_modules">
<polygon fill="#edf0f7" stroke="#7f7f7f" stroke-dasharray="5,2" points="8,-8 8,-78.5 605,-78.5 605,-8 8,-8"/>
<text xml:space="preserve" text-anchor="middle" x="306.5" y="-65" font-family="Helvetica,sans-Serif" font-size="10.00">node_modules</text>
</a>
</g>
</g>
<g id="clust2" class="cluster">
<title>clusterdir_618511567d65701eb67973a81d24040a</title>
<g id="a_clust2"><a xlink:href="dir_618511567d65701eb67973a81d24040a.html" target="_top">
<polygon fill="#edf0f7" stroke="#404040" stroke-width="2" points="16,-16 16,-51.25 597,-51.25 597,-16 16,-16"/>
</a>
</g>
</g>
<!-- dir_618511567d65701eb67973a81d24040a -->
<g id="node1" class="node">
<title>dir_618511567d65701eb67973a81d24040a</title>
<text xml:space="preserve" text-anchor="middle" x="49" y="-29.75" font-family="Helvetica,sans-Serif" font-size="10.00">@eslint</text>
</g>
<!-- dir_d255a4fca3cbf943930feec41c2bbab8 -->
<g id="node2" class="node">
<title>dir_d255a4fca3cbf943930feec41c2bbab8</title>
<g id="a_node2"><a xlink:href="dir_d255a4fca3cbf943930feec41c2bbab8.html" target="_top" xlink:title="config&#45;array">
<polygon fill="#a2b4d6" stroke="#404040" points="158.5,-43.25 91.5,-43.25 91.5,-24 158.5,-24 158.5,-43.25"/>
<text xml:space="preserve" text-anchor="middle" x="125" y="-29.75" font-family="Helvetica,sans-Serif" font-size="10.00">config&#45;array</text>
</a>
</g>
</g>
<!-- dir_1b2bcd4f46252e5e3a537ff4981ebfd0 -->
<g id="node3" class="node">
<title>dir_1b2bcd4f46252e5e3a537ff4981ebfd0</title>
<g id="a_node3"><a xlink:href="dir_1b2bcd4f46252e5e3a537ff4981ebfd0.html" target="_top" xlink:title="config&#45;helpers">
<polygon fill="#a2b4d6" stroke="#404040" points="253.38,-43.25 176.62,-43.25 176.62,-24 253.38,-24 253.38,-43.25"/>
<text xml:space="preserve" text-anchor="middle" x="215" y="-29.75" font-family="Helvetica,sans-Serif" font-size="10.00">config&#45;helpers</text>
</a>
</g>
</g>
<!-- dir_2c850db1eb7af0e565c735f24af064ab -->
<g id="node4" class="node">
<title>dir_2c850db1eb7af0e565c735f24af064ab</title>
<g id="a_node4"><a xlink:href="dir_2c850db1eb7af0e565c735f24af064ab.html" target="_top" xlink:title="core">
<polygon fill="#a2b4d6" stroke="#404040" points="306.38,-43.25 271.62,-43.25 271.62,-24 306.38,-24 306.38,-43.25"/>
<text xml:space="preserve" text-anchor="middle" x="289" y="-29.75" font-family="Helvetica,sans-Serif" font-size="10.00">core</text>
</a>
</g>
</g>
<!-- dir_bfa5d707a331ac8cb39a31502a7d0cda -->
<g id="node5" class="node">
<title>dir_bfa5d707a331ac8cb39a31502a7d0cda</title>
<g id="a_node5"><a xlink:href="dir_bfa5d707a331ac8cb39a31502a7d0cda.html" target="_top" xlink:title="eslintrc">
<polygon fill="#a2b4d6" stroke="#404040" points="371.75,-43.25 324.25,-43.25 324.25,-24 371.75,-24 371.75,-43.25"/>
<text xml:space="preserve" text-anchor="middle" x="348" y="-29.75" font-family="Helvetica,sans-Serif" font-size="10.00">eslintrc</text>
</a>
</g>
</g>
<!-- dir_51c81abd8a14fbb46270b92e9f982d8b -->
<g id="node6" class="node">
<title>dir_51c81abd8a14fbb46270b92e9f982d8b</title>
<g id="a_node6"><a xlink:href="dir_51c81abd8a14fbb46270b92e9f982d8b.html" target="_top" xlink:title="js">
<polygon fill="#a2b4d6" stroke="#404040" points="418.4,-43.25 389.6,-43.25 389.6,-24 418.4,-24 418.4,-43.25"/>
<text xml:space="preserve" text-anchor="middle" x="404" y="-29.75" font-family="Helvetica,sans-Serif" font-size="10.00">js</text>
</a>
</g>
</g>
<!-- dir_a3559cc143141644160657dba38ca424 -->
<g id="node7" class="node">
<title>dir_a3559cc143141644160657dba38ca424</title>
<g id="a_node7"><a xlink:href="dir_a3559cc143141644160657dba38ca424.html" target="_top" xlink:title="object&#45;schema">
<polygon fill="#a2b4d6" stroke="#404040" points="515.88,-43.25 436.12,-43.25 436.12,-24 515.88,-24 515.88,-43.25"/>
<text xml:space="preserve" text-anchor="middle" x="476" y="-29.75" font-family="Helvetica,sans-Serif" font-size="10.00">object&#45;schema</text>
</a>
</g>
</g>
<!-- dir_9e9ea4d73b61169b8ec6aad12bbc4938 -->
<g id="node8" class="node">
<title>dir_9e9ea4d73b61169b8ec6aad12bbc4938</title>
<g id="a_node8"><a xlink:href="dir_9e9ea4d73b61169b8ec6aad12bbc4938.html" target="_top" xlink:title="plugin&#45;kit">
<polygon fill="#a2b4d6" stroke="#404040" points="588.5,-43.25 533.5,-43.25 533.5,-24 588.5,-24 588.5,-43.25"/>
<text xml:space="preserve" text-anchor="middle" x="561" y="-29.75" font-family="Helvetica,sans-Serif" font-size="10.00">plugin&#45;kit</text>
</a>
</g>
</g>
</g>
</svg>

<g id="navigator" transform="translate(0 0)" fill="#404254">
  <rect fill="#f2f5e9" fill-opacity="0.5" stroke="#606060" stroke-width=".5" x="0" y="0" width="60" height="60"/>
  <use id="zoomplus" xlink:href="#zoomPlus" x="17" y="9" onmousedown="handleZoom(evt,'in')"/>
  <use id="zoomminus" xlink:href="#zoomMin" x="42" y="9" onmousedown="handleZoom(evt,'out')"/>
  <use id="reset" xlink:href="#resetDef" x="30" y="36" onmousedown="handleReset()"/>
   <use id="arrowup" xlink:href="#arrowUp" x="0" y="0" onmousedown="handlePan(0,-1)"/>
  <use id="arrowright" xlink:href="#arrowRight" x="0" y="0" onmousedown="handlePan(1,0)"/>
  <use id="arrowdown" xlink:href="#arrowDown" x="0" y="0" onmousedown="handlePan(0,1)"/>
  <use id="arrowleft" xlink:href="#arrowLeft" x="0" y="0" onmousedown="handlePan(-1,0)"/>
</g>
<svg viewBox="0 0 15 15" width="100%" height="30px" preserveAspectRatio="xMaxYMin meet">
 <g id="arrow_out" transform="scale(0.3 0.3)">
  <a xlink:href="dir_618511567d65701eb67973a81d24040a_dep_org.svg" target="_base">
   <rect id="button" ry="5" rx="5" y="6" x="6" height="38" width="38"
        fill="#f2f5e9" fill-opacity="0.5" stroke="#606060" stroke-width="1.0"/>
   <path id="arrow"
     d="M 11.500037,31.436501 C 11.940474,20.09759 22.043105,11.32322 32.158766,21.979434 L 37.068811,17.246167 C 37.068811,17.246167 37.088388,32 37.088388,32 L 22.160133,31.978069 C 22.160133,31.978069 26.997745,27.140456 26.997745,27.140456 C 18.528582,18.264221 13.291696,25.230495 11.500037,31.436501 z"
     style="fill:#404040;"/>
  </a>
 </g>
</svg>

<style type='text/css'>
<![CDATA[
[data-mouse-over-selected='false'] { opacity: 0.7; }
[data-mouse-over-selected='true']  { opacity: 1.0; }
]]>
</style>
<script type="application/ecmascript"><![CDATA[
document.addEventListener('DOMContentLoaded', (event) => {
  highlightEdges();
  highlightAdjacentNodes();
});
]]></script>
</svg>
