<?xml version="1.0" encoding="UTF-8" standalone="no"?>
<!DOCTYPE svg PUBLIC "-//W3C//DTD SVG 1.1//EN"
 "http://www.w3.org/Graphics/SVG/1.1/DTD/svg11.dtd">
<!-- Generated by graphviz version 14.0.4 (20251115.1723)
 -->
<!-- Title: frontend/node_modules/@jridgewell Pages: 1 -->
<!--zoomable 95 -->

<svg id="main" version="1.1" xmlns="http://www.w3.org/2000/svg" xmlns:xlink="http://www.w3.org/1999/xlink" xml:space="preserve" onload="init(evt)">

<style type="text/css"><![CDATA[
.node, .edge {opacity: 0.7;}
.node.selected, .edge.selected {opacity: 1;}
.edge:hover path { stroke: red; }
.edge:hover polygon { stroke: red; fill: red; }
]]></style>

<defs>
  <circle id="rim" cx="0" cy="0" r="7"/>
  <circle id="rim2" cx="0" cy="0" r="3.5"/>
  <g id="zoomPlus">
    <use xlink:href="#rim" fill="#404040"><set attributeName="fill" to="#808080" begin="zoomplus.mouseover" end="zoomplus.mouseout"/></use>
    <path d="M-4,0h8M0,-4v8" fill="none" stroke="white" stroke-width="1.5" pointer-events="none"/>
  </g>
  <g id="zoomMin">
    <use xlink:href="#rim" fill="#404040"><set attributeName="fill" to="#808080" begin="zoomminus.mouseover" end="zoomminus.mouseout"/></use>
    <path d="M-4,0h8" fill="none" stroke="white" stroke-width="1.5" pointer-events="none"/>
  </g>
  <g id="arrowUp" transform="translate(30 24)">
    <use xlink:href="#rim"/>
    <path pointer-events="none" fill="none" stroke="white" stroke-width="1.5" d="M0,-3.0v7 M-2.5,-0.5L0,-3.0L2.5,-0.5"/>
  </g>
  <g id="arrowRight" transform="rotate(90) translate(36 -43)">
    <use xlink:href="#rim"/>
    <path pointer-events="none" fill="none" stroke="white" stroke-width="1.5" d="M0,-3.0v7 M-2.5,-0.5L0,-3.0L2.5,-0.5"/>
  </g>
  <g id="arrowDown" transform="rotate(180) translate(-30 -48)">
    <use xlink:href="#rim"/>
    <path pointer-events="none" fill="none" stroke="white" stroke-width="1.5" d="M0,-3.0v7 M-2.5,-0.5L0,-3.0L2.5,-0.5"/>
  </g>
  <g id="arrowLeft" transform="rotate(270) translate(-36 17)">
    <use xlink:href="#rim"/>
    <path pointer-events="none" fill="none" stroke="white" stroke-width="1.5" d="M0,-3.0v7 M-2.5,-0.5L0,-3.0L2.5,-0.5"/>
  </g>
  <g id="resetDef">
    <use xlink:href="#rim2" fill="#404040"><set attributeName="fill" to="#808080" begin="reset.mouseover" end="reset.mouseout"/></use>
  </g>
</defs>
<script type="application/ecmascript">
var viewWidth = 577;
var viewHeight = 95;
var sectionId = 'dynsection-0';
</script>
<script type="application/ecmascript" xlink:href="svg.min.js"/>
<svg id="graph" class="graph">
<g id="viewport">
<title>frontend/node_modules/@jridgewell</title>
<g id="clust1" class="cluster">
<title>clusterdir_8be25e30241834509be35899d7f7509b</title>
<g id="a_clust1"><a xlink:href="dir_8be25e30241834509be35899d7f7509b.html" target="_top" xlink:title="node_modules">
<polygon fill="#edf0f7" stroke="#7f7f7f" stroke-dasharray="5,2" points="8,-8 8,-78.5 561,-78.5 561,-8 8,-8"/>
<text xml:space="preserve" text-anchor="middle" x="284.5" y="-65" font-family="Helvetica,sans-Serif" font-size="10.00">node_modules</text>
</a>
</g>
</g>
<g id="clust2" class="cluster">
<title>clusterdir_c52904a310617b773f3ce26bd67cc272</title>
<g id="a_clust2"><a xlink:href="dir_c52904a310617b773f3ce26bd67cc272.html" target="_top">
<polygon fill="#edf0f7" stroke="#404040" stroke-width="2" points="16,-16 16,-51.25 553,-51.25 553,-16 16,-16"/>
</a>
</g>
</g>
<!-- dir_c52904a310617b773f3ce26bd67cc272 -->
<g id="node1" class="node">
<title>dir_c52904a310617b773f3ce26bd67cc272</title>
<text xml:space="preserve" text-anchor="middle" x="58" y="-29.75" font-family="Helvetica,sans-Serif" font-size="10.00">@jridgewell</text>
</g>
<!-- dir_8bfb625b7de57230c01215642ef1db52 -->
<g id="node2" class="node">
<title>dir_8bfb625b7de57230c01215642ef1db52</title>
<g id="a_node2"><a xlink:href="dir_8bfb625b7de57230c01215642ef1db52.html" target="_top" xlink:title="gen&#45;mapping">
<polygon fill="#a2b4d6" stroke="#404040" points="180.75,-43.25 109.25,-43.25 109.25,-24 180.75,-24 180.75,-43.25"/>
<text xml:space="preserve" text-anchor="middle" x="145" y="-29.75" font-family="Helvetica,sans-Serif" font-size="10.00">gen&#45;mapping</text>
</a>
</g>
</g>
<!-- dir_b0e7af9e9cba8796b67a47510f32bcb1 -->
<g id="node3" class="node">
<title>dir_b0e7af9e9cba8796b67a47510f32bcb1</title>
<g id="a_node3"><a xlink:href="dir_b0e7af9e9cba8796b67a47510f32bcb1.html" target="_top" xlink:title="remapping">
<polygon fill="#a2b4d6" stroke="#404040" points="259.5,-43.25 198.5,-43.25 198.5,-24 259.5,-24 259.5,-43.25"/>
<text xml:space="preserve" text-anchor="middle" x="229" y="-29.75" font-family="Helvetica,sans-Serif" font-size="10.00">remapping</text>
</a>
</g>
</g>
<!-- dir_d9e6989d7e028b706d506dd2c387ca4d -->
<g id="node4" class="node">
<title>dir_d9e6989d7e028b706d506dd2c387ca4d</title>
<g id="a_node4"><a xlink:href="dir_d9e6989d7e028b706d506dd2c387ca4d.html" target="_top" xlink:title="resolve&#45;uri">
<polygon fill="#a2b4d6" stroke="#404040" points="338.5,-43.25 277.5,-43.25 277.5,-24 338.5,-24 338.5,-43.25"/>
<text xml:space="preserve" text-anchor="middle" x="308" y="-29.75" font-family="Helvetica,sans-Serif" font-size="10.00">resolve&#45;uri</text>
</a>
</g>
</g>
<!-- dir_27d797c4a13b20694bc9a0128e29ad81 -->
<g id="node5" class="node">
<title>dir_27d797c4a13b20694bc9a0128e29ad81</title>
<g id="a_node5"><a xlink:href="dir_27d797c4a13b20694bc9a0128e29ad81.html" target="_top" xlink:title="sourcemap&#45;codec">
<polygon fill="#a2b4d6" stroke="#404040" points="449.62,-43.25 356.38,-43.25 356.38,-24 449.62,-24 449.62,-43.25"/>
<text xml:space="preserve" text-anchor="middle" x="403" y="-29.75" font-family="Helvetica,sans-Serif" font-size="10.00">sourcemap&#45;codec</text>
</a>
</g>
</g>
<!-- dir_5881d50db2911ff7869859cadfb13b6b -->
<g id="node6" class="node">
<title>dir_5881d50db2911ff7869859cadfb13b6b</title>
<g id="a_node6"><a xlink:href="dir_5881d50db2911ff7869859cadfb13b6b.html" target="_top" xlink:title="trace&#45;mapping">
<polygon fill="#a2b4d6" stroke="#404040" points="544.75,-43.25 467.25,-43.25 467.25,-24 544.75,-24 544.75,-43.25"/>
<text xml:space="preserve" text-anchor="middle" x="506" y="-29.75" font-family="Helvetica,sans-Serif" font-size="10.00">trace&#45;mapping</text>
</a>
</g>
</g>
</g>
</svg>

<g id="navigator" transform="translate(0 0)" fill="#404254">
  <rect fill="#f2f5e9" fill-opacity="0.5" stroke="#606060" stroke-width=".5" x="0" y="0" width="60" height="60"/>
  <use id="zoomplus" xlink:href="#zoomPlus" x="17" y="9" onmousedown="handleZoom(evt,'in')"/>
  <use id="zoomminus" xlink:href="#zoomMin" x="42" y="9" onmousedown="handleZoom(evt,'out')"/>
  <use id="reset" xlink:href="#resetDef" x="30" y="36" onmousedown="handleReset()"/>
   <use id="arrowup" xlink:href="#arrowUp" x="0" y="0" onmousedown="handlePan(0,-1)"/>
  <use id="arrowright" xlink:href="#arrowRight" x="0" y="0" onmousedown="handlePan(1,0)"/>
  <use id="arrowdown" xlink:href="#arrowDown" x="0" y="0" onmousedown="handlePan(0,1)"/>
  <use id="arrowleft" xlink:href="#arrowLeft" x="0" y="0" onmousedown="handlePan(-1,0)"/>
</g>
<svg viewBox="0 0 15 15" width="100%" height="30px" preserveAspectRatio="xMaxYMin meet">
 <g id="arrow_out" transform="scale(0.3 0.3)">
  <a xlink:href="dir_c52904a310617b773f3ce26bd67cc272_dep_org.svg" target="_base">
   <rect id="button" ry="5" rx="5" y="6" x="6" height="38" width="38"
        fill="#f2f5e9" fill-opacity="0.5" stroke="#606060" stroke-width="1.0"/>
   <path id="arrow"
     d="M 11.500037,31.436501 C 11.940474,20.09759 22.043105,11.32322 32.158766,21.979434 L 37.068811,17.246167 C 37.068811,17.246167 37.088388,32 37.088388,32 L 22.160133,31.978069 C 22.160133,31.978069 26.997745,27.140456 26.997745,27.140456 C 18.528582,18.264221 13.291696,25.230495 11.500037,31.436501 z"
     style="fill:#404040;"/>
  </a>
 </g>
</svg>

<style type='text/css'>
<![CDATA[
[data-mouse-over-selected='false'] { opacity: 0.7; }
[data-mouse-over-selected='true']  { opacity: 1.0; }
]]>
</style>
<script type="application/ecmascript"><![CDATA[
document.addEventListener('DOMContentLoaded', (event) => {
  highlightEdges();
  highlightAdjacentNodes();
});
]]></script>
</svg>
