<?xml version="1.0" encoding="UTF-8" standalone="no"?>
<!DOCTYPE svg PUBLIC "-//W3C//DTD SVG 1.1//EN"
 "http://www.w3.org/Graphics/SVG/1.1/DTD/svg11.dtd">
<!-- Generated by graphviz version 14.0.4 (20251115.1723)
 -->
<!-- Title: frontend/node_modules/@parcel/watcher/src/unix/fts.cc Pages: 1 -->
<!--zoomable 492 -->

<svg id="main" version="1.1" xmlns="http://www.w3.org/2000/svg" xmlns:xlink="http://www.w3.org/1999/xlink" xml:space="preserve" onload="init(evt)">

<style type="text/css"><![CDATA[
.node, .edge {opacity: 0.7;}
.node.selected, .edge.selected {opacity: 1;}
.edge:hover path { stroke: red; }
.edge:hover polygon { stroke: red; fill: red; }
]]></style>

<defs>
  <circle id="rim" cx="0" cy="0" r="7"/>
  <circle id="rim2" cx="0" cy="0" r="3.5"/>
  <g id="zoomPlus">
    <use xlink:href="#rim" fill="#404040"><set attributeName="fill" to="#808080" begin="zoomplus.mouseover" end="zoomplus.mouseout"/></use>
    <path d="M-4,0h8M0,-4v8" fill="none" stroke="white" stroke-width="1.5" pointer-events="none"/>
  </g>
  <g id="zoomMin">
    <use xlink:href="#rim" fill="#404040"><set attributeName="fill" to="#808080" begin="zoomminus.mouseover" end="zoomminus.mouseout"/></use>
    <path d="M-4,0h8" fill="none" stroke="white" stroke-width="1.5" pointer-events="none"/>
  </g>
  <g id="arrowUp" transform="translate(30 24)">
    <use xlink:href="#rim"/>
    <path pointer-events="none" fill="none" stroke="white" stroke-width="1.5" d="M0,-3.0v7 M-2.5,-0.5L0,-3.0L2.5,-0.5"/>
  </g>
  <g id="arrowRight" transform="rotate(90) translate(36 -43)">
    <use xlink:href="#rim"/>
    <path pointer-events="none" fill="none" stroke="white" stroke-width="1.5" d="M0,-3.0v7 M-2.5,-0.5L0,-3.0L2.5,-0.5"/>
  </g>
  <g id="arrowDown" transform="rotate(180) translate(-30 -48)">
    <use xlink:href="#rim"/>
    <path pointer-events="none" fill="none" stroke="white" stroke-width="1.5" d="M0,-3.0v7 M-2.5,-0.5L0,-3.0L2.5,-0.5"/>
  </g>
  <g id="arrowLeft" transform="rotate(270) translate(-36 17)">
    <use xlink:href="#rim"/>
    <path pointer-events="none" fill="none" stroke="white" stroke-width="1.5" d="M0,-3.0v7 M-2.5,-0.5L0,-3.0L2.5,-0.5"/>
  </g>
  <g id="resetDef">
    <use xlink:href="#rim2" fill="#404040"><set attributeName="fill" to="#808080" begin="reset.mouseover" end="reset.mouseout"/></use>
  </g>
</defs>
<script type="application/ecmascript">
var viewWidth = 852;
var viewHeight = 492;
var sectionId = 'dynsection-0';
</script>
<script type="application/ecmascript" xlink:href="svg.min.js"/>
<svg id="graph" class="graph">
<g id="viewport">
<title>frontend/node_modules/@parcel/watcher/src/unix/fts.cc</title>
<!-- Node1 -->
<g id="Node000001" class="node">
<title>Node1</title>
<g id="a_Node000001"><a xlink:title=" ">
<polygon fill="#999999" stroke="#666666" points="760.88,-483.75 643.62,-483.75 643.62,-442 760.88,-442 760.88,-483.75"/>
<text xml:space="preserve" text-anchor="start" x="651.62" y="-470.25" font-family="Helvetica,sans-Serif" font-size="10.00">frontend/node_modules</text>
<text xml:space="preserve" text-anchor="start" x="651.62" y="-459" font-family="Helvetica,sans-Serif" font-size="10.00">/@parcel/watcher/src</text>
<text xml:space="preserve" text-anchor="middle" x="702.25" y="-447.75" font-family="Helvetica,sans-Serif" font-size="10.00">/unix/fts.cc</text>
</a>
</g>
</g>
<!-- Node2 -->
<g id="Node000002" class="node">
<title>Node2</title>
<g id="a_Node000002"><a xlink:title=" ">
<polygon fill="#e0e0e0" stroke="#999999" points="671.25,-74.5 631.25,-74.5 631.25,-55.25 671.25,-55.25 671.25,-74.5"/>
<text xml:space="preserve" text-anchor="middle" x="651.25" y="-61" font-family="Helvetica,sans-Serif" font-size="10.00">string</text>
</a>
</g>
</g>
<!-- Node1&#45;&gt;Node2 -->
<g id="edge1_Node000001_Node000002" class="edge">
<title>Node1&#45;&gt;Node2</title>
<g id="a_edge1_Node000001_Node000002"><a xlink:title=" ">
<path fill="none" stroke="#63b8ff" d="M702.25,-441.53C702.25,-417.71 702.25,-377.05 702.25,-342.12 702.25,-342.12 702.25,-342.12 702.25,-174.38 702.25,-139.83 680.82,-104.48 665.74,-83.88"/>
<polygon fill="#63b8ff" stroke="#63b8ff" points="668.55,-81.8 659.69,-75.98 662.99,-86.05 668.55,-81.8"/>
</a>
</g>
</g>
<!-- Node3 -->
<g id="Node000003" class="node">
<title>Node3</title>
<g id="a_Node000003"><a xlink:title=" ">
<polygon fill="#e0e0e0" stroke="#999999" points="766,-406 730.5,-406 730.5,-386.75 766,-386.75 766,-406"/>
<text xml:space="preserve" text-anchor="middle" x="748.25" y="-392.5" font-family="Helvetica,sans-Serif" font-size="10.00">fts.h</text>
</a>
</g>
</g>
<!-- Node1&#45;&gt;Node3 -->
<g id="edge2_Node000001_Node000003" class="edge">
<title>Node1&#45;&gt;Node3</title>
<g id="a_edge2_Node000001_Node000003"><a xlink:title=" ">
<path fill="none" stroke="#63b8ff" d="M716.55,-441.82C722.49,-433.5 729.33,-423.91 735.13,-415.77"/>
<polygon fill="#63b8ff" stroke="#63b8ff" points="737.95,-417.85 740.9,-407.68 732.25,-413.79 737.95,-417.85"/>
</a>
</g>
</g>
<!-- Node4 -->
<g id="Node000004" class="node">
<title>Node4</title>
<g id="a_Node000004"><a xlink:title=" ">
<polygon fill="#e0e0e0" stroke="#999999" points="844,-406 784.5,-406 784.5,-386.75 844,-386.75 844,-406"/>
<text xml:space="preserve" text-anchor="middle" x="814.25" y="-392.5" font-family="Helvetica,sans-Serif" font-size="10.00">sys/stat.h</text>
</a>
</g>
</g>
<!-- Node1&#45;&gt;Node4 -->
<g id="edge3_Node000001_Node000004" class="edge">
<title>Node1&#45;&gt;Node4</title>
<g id="a_edge3_Node000001_Node000004"><a xlink:title=" ">
<path fill="none" stroke="#63b8ff" d="M737.38,-441.64C754.06,-432.04 773.62,-420.77 788.84,-412.01"/>
<polygon fill="#63b8ff" stroke="#63b8ff" points="790.36,-415.17 797.28,-407.15 786.86,-409.11 790.36,-415.17"/>
</a>
</g>
</g>
<!-- Node5 -->
<g id="Node000005" class="node">
<title>Node5</title>
<g id="a_Node000005"><a xlink:href="_dir_tree_8hh.html" target="_top" xlink:title=" ">
<polygon fill="white" stroke="#666666" points="648.62,-240.25 577.88,-240.25 577.88,-221 648.62,-221 648.62,-240.25"/>
<text xml:space="preserve" text-anchor="middle" x="613.25" y="-226.75" font-family="Helvetica,sans-Serif" font-size="10.00">../DirTree.hh</text>
</a>
</g>
</g>
<!-- Node1&#45;&gt;Node5 -->
<g id="edge4_Node000001_Node000005" class="edge">
<title>Node1&#45;&gt;Node5</title>
<g id="a_edge4_Node000001_Node000005"><a xlink:title=" ">
<path fill="none" stroke="#63b8ff" d="M694.51,-441.84C677.58,-398.04 637.44,-294.2 620.74,-251"/>
<polygon fill="#63b8ff" stroke="#63b8ff" points="624.11,-250 617.24,-241.94 617.58,-252.53 624.11,-250"/>
</a>
</g>
</g>
<!-- Node24 -->
<g id="Node000024" class="node">
<title>Node24</title>
<g id="a_Node000024"><a xlink:href="_brute_force_backend_8hh.html" target="_top" xlink:title=" ">
<polygon fill="white" stroke="#666666" points="561.75,-406 404.75,-406 404.75,-386.75 561.75,-386.75 561.75,-406"/>
<text xml:space="preserve" text-anchor="middle" x="483.25" y="-392.5" font-family="Helvetica,sans-Serif" font-size="10.00">../shared/BruteForceBackend.hh</text>
</a>
</g>
</g>
<!-- Node1&#45;&gt;Node24 -->
<g id="edge29_Node000001_Node000024" class="edge">
<title>Node1&#45;&gt;Node24</title>
<g id="a_edge29_Node000001_Node000024"><a xlink:title=" ">
<path fill="none" stroke="#63b8ff" d="M643.27,-444.51C605.83,-433.48 558.28,-419.47 524.78,-409.61"/>
<polygon fill="#63b8ff" stroke="#63b8ff" points="526.02,-406.32 515.44,-406.86 524.05,-413.04 526.02,-406.32"/>
</a>
</g>
</g>
<!-- Node5&#45;&gt;Node2 -->
<g id="edge5_Node000005_Node000002" class="edge">
<title>Node5&#45;&gt;Node2</title>
<g id="a_edge5_Node000005_Node000002"><a xlink:title=" ">
<path fill="none" stroke="#63b8ff" d="M620.37,-220.66C626.77,-212.05 635.83,-198.42 640.25,-185 651.26,-151.56 652.51,-110.16 652.1,-86.02"/>
<polygon fill="#63b8ff" stroke="#63b8ff" points="655.61,-86.22 651.81,-76.33 648.61,-86.43 655.61,-86.22"/>
</a>
</g>
</g>
<!-- Node6 -->
<g id="Node000006" class="node">
<title>Node6</title>
<g id="a_Node000006"><a xlink:title=" ">
<polygon fill="#e0e0e0" stroke="#999999" points="390.62,-185 307.88,-185 307.88,-165.75 390.62,-165.75 390.62,-185"/>
<text xml:space="preserve" text-anchor="middle" x="349.25" y="-171.5" font-family="Helvetica,sans-Serif" font-size="10.00">unordered_map</text>
</a>
</g>
</g>
<!-- Node5&#45;&gt;Node6 -->
<g id="edge6_Node000005_Node000006" class="edge">
<title>Node5&#45;&gt;Node6</title>
<g id="a_edge6_Node000005_Node000006"><a xlink:title=" ">
<path fill="none" stroke="#63b8ff" d="M577.65,-222.44C532.41,-213.32 453.96,-197.5 401.82,-186.98"/>
<polygon fill="#63b8ff" stroke="#63b8ff" points="402.78,-183.6 392.28,-185.05 401.39,-190.46 402.78,-183.6"/>
</a>
</g>
</g>
<!-- Node7 -->
<g id="Node000007" class="node">
<title>Node7</title>
<g id="a_Node000007"><a xlink:title=" ">
<polygon fill="#e0e0e0" stroke="#999999" points="600.88,-74.5 549.62,-74.5 549.62,-55.25 600.88,-55.25 600.88,-74.5"/>
<text xml:space="preserve" text-anchor="middle" x="575.25" y="-61" font-family="Helvetica,sans-Serif" font-size="10.00">memory</text>
</a>
</g>
</g>
<!-- Node5&#45;&gt;Node7 -->
<g id="edge7_Node000005_Node000007" class="edge">
<title>Node5&#45;&gt;Node7</title>
<g id="a_edge7_Node000005_Node000007"><a xlink:title=" ">
<path fill="none" stroke="#63b8ff" d="M611.21,-220.82C605.3,-195.39 588.12,-121.35 579.83,-85.62"/>
<polygon fill="#63b8ff" stroke="#63b8ff" points="583.32,-85.15 577.65,-76.2 576.5,-86.73 583.32,-85.15"/>
</a>
</g>
</g>
<!-- Node8 -->
<g id="Node000008" class="node">
<title>Node8</title>
<g id="a_Node000008"><a xlink:href="_event_8hh.html" target="_top" xlink:title=" ">
<polygon fill="white" stroke="#666666" points="521.75,-185 466.75,-185 466.75,-165.75 521.75,-165.75 521.75,-185"/>
<text xml:space="preserve" text-anchor="middle" x="494.25" y="-171.5" font-family="Helvetica,sans-Serif" font-size="10.00">Event.hh</text>
</a>
</g>
</g>
<!-- Node5&#45;&gt;Node8 -->
<g id="edge8_Node000005_Node000008" class="edge">
<title>Node5&#45;&gt;Node8</title>
<g id="a_edge8_Node000005_Node000008"><a xlink:title=" ">
<path fill="none" stroke="#63b8ff" d="M593.06,-220.59C574.34,-212.22 546.23,-199.63 524.77,-190.03"/>
<polygon fill="#63b8ff" stroke="#63b8ff" points="526.47,-186.96 515.92,-186.07 523.62,-193.35 526.47,-186.96"/>
</a>
</g>
</g>
<!-- Node8&#45;&gt;Node2 -->
<g id="edge9_Node000008_Node000002" class="edge">
<title>Node8&#45;&gt;Node2</title>
<g id="a_edge9_Node000008_Node000002"><a xlink:title=" ">
<path fill="none" stroke="#63b8ff" d="M507.37,-165.31C534.21,-146.76 595.7,-104.26 628.94,-81.29"/>
<polygon fill="#63b8ff" stroke="#63b8ff" points="630.8,-84.26 637.04,-75.7 626.82,-78.5 630.8,-84.26"/>
</a>
</g>
</g>
<!-- Node9 -->
<g id="Node000009" class="node">
<title>Node9</title>
<g id="a_Node000009"><a xlink:title=" ">
<polygon fill="#e0e0e0" stroke="#999999" points="506.88,-74.5 443.62,-74.5 443.62,-55.25 506.88,-55.25 506.88,-74.5"/>
<text xml:space="preserve" text-anchor="middle" x="475.25" y="-61" font-family="Helvetica,sans-Serif" font-size="10.00">node_api.h</text>
</a>
</g>
</g>
<!-- Node8&#45;&gt;Node9 -->
<g id="edge10_Node000008_Node000009" class="edge">
<title>Node8&#45;&gt;Node9</title>
<g id="a_edge10_Node000008_Node000009"><a xlink:title=" ">
<path fill="none" stroke="#63b8ff" d="M471.16,-165.33C456.25,-158.13 438.05,-146.46 429.25,-129.75 419.99,-112.16 436.1,-93.94 451.75,-81.48"/>
<polygon fill="#63b8ff" stroke="#63b8ff" points="453.53,-84.52 459.49,-75.76 449.37,-78.89 453.53,-84.52"/>
</a>
</g>
</g>
<!-- Node10 -->
<g id="Node000010" class="node">
<title>Node10</title>
<g id="a_Node000010"><a xlink:href="include_8h.html" target="_top" xlink:title=" ">
<polygon fill="white" stroke="#666666" points="522.38,-129.75 438.12,-129.75 438.12,-110.5 522.38,-110.5 522.38,-129.75"/>
<text xml:space="preserve" text-anchor="middle" x="480.25" y="-116.25" font-family="Helvetica,sans-Serif" font-size="10.00">wasm/include.h</text>
</a>
</g>
</g>
<!-- Node8&#45;&gt;Node10 -->
<g id="edge11_Node000008_Node000010" class="edge">
<title>Node8&#45;&gt;Node10</title>
<g id="a_edge11_Node000008_Node000010"><a xlink:title=" ">
<path fill="none" stroke="#63b8ff" d="M491.94,-165.58C490.19,-158.92 487.71,-149.49 485.48,-141.03"/>
<polygon fill="#63b8ff" stroke="#63b8ff" points="488.92,-140.35 483,-131.57 482.15,-142.13 488.92,-140.35"/>
</a>
</g>
</g>
<!-- Node11 -->
<g id="Node000011" class="node">
<title>Node11</title>
<g id="a_Node000011"><a xlink:href="napi_8h.html" target="_top" xlink:title=" ">
<polygon fill="white" stroke="#666666" points="261.38,-129.75 219.12,-129.75 219.12,-110.5 261.38,-110.5 261.38,-129.75"/>
<text xml:space="preserve" text-anchor="middle" x="240.25" y="-116.25" font-family="Helvetica,sans-Serif" font-size="10.00">napi.h</text>
</a>
</g>
</g>
<!-- Node8&#45;&gt;Node11 -->
<g id="edge12_Node000008_Node000011" class="edge">
<title>Node8&#45;&gt;Node11</title>
<g id="a_edge12_Node000008_Node000011"><a xlink:title=" ">
<path fill="none" stroke="#63b8ff" d="M466.39,-167.76C463.31,-167.07 460.22,-166.38 457.25,-165.75 378.36,-148.93 355.14,-149.01 273.02,-129.99"/>
<polygon fill="#63b8ff" stroke="#63b8ff" points="273.88,-126.6 263.35,-127.72 272.28,-133.42 273.88,-126.6"/>
</a>
</g>
</g>
<!-- Node14 -->
<g id="Node000014" class="node">
<title>Node14</title>
<g id="a_Node000014"><a xlink:title=" ">
<polygon fill="#e0e0e0" stroke="#999999" points="123.75,-74.5 80.75,-74.5 80.75,-55.25 123.75,-55.25 123.75,-74.5"/>
<text xml:space="preserve" text-anchor="middle" x="102.25" y="-61" font-family="Helvetica,sans-Serif" font-size="10.00">mutex</text>
</a>
</g>
</g>
<!-- Node8&#45;&gt;Node14 -->
<g id="edge26_Node000008_Node000014" class="edge">
<title>Node8&#45;&gt;Node14</title>
<g id="a_edge26_Node000008_Node000014"><a xlink:title=" ">
<path fill="none" stroke="#63b8ff" d="M466.42,-167.62C463.34,-166.95 460.23,-166.31 457.25,-165.75 348.24,-145.14 314.86,-166.68 210.25,-129.75 177.59,-118.22 143.84,-96.38 122.96,-81.47"/>
<polygon fill="#63b8ff" stroke="#63b8ff" points="125.16,-78.75 115.02,-75.69 121.03,-84.41 125.16,-78.75"/>
</a>
</g>
</g>
<!-- Node22 -->
<g id="Node000022" class="node">
<title>Node22</title>
<g id="a_Node000022"><a xlink:title=" ">
<polygon fill="#e0e0e0" stroke="#999999" points="314.62,-129.75 279.88,-129.75 279.88,-110.5 314.62,-110.5 314.62,-129.75"/>
<text xml:space="preserve" text-anchor="middle" x="297.25" y="-116.25" font-family="Helvetica,sans-Serif" font-size="10.00">map</text>
</a>
</g>
</g>
<!-- Node8&#45;&gt;Node22 -->
<g id="edge27_Node000008_Node000022" class="edge">
<title>Node8&#45;&gt;Node22</title>
<g id="a_edge27_Node000008_Node000022"><a xlink:title=" ">
<path fill="none" stroke="#63b8ff" d="M466.25,-167.66C434.39,-159.89 380.54,-146.38 326.01,-130.44"/>
<polygon fill="#63b8ff" stroke="#63b8ff" points="327.14,-127.12 316.56,-127.65 325.16,-133.83 327.14,-127.12"/>
</a>
</g>
</g>
<!-- Node23 -->
<g id="Node000023" class="node">
<title>Node23</title>
<g id="a_Node000023"><a xlink:title=" ">
<polygon fill="#e0e0e0" stroke="#999999" points="382.12,-129.75 332.38,-129.75 332.38,-110.5 382.12,-110.5 382.12,-129.75"/>
<text xml:space="preserve" text-anchor="middle" x="357.25" y="-116.25" font-family="Helvetica,sans-Serif" font-size="10.00">optional</text>
</a>
</g>
</g>
<!-- Node8&#45;&gt;Node23 -->
<g id="edge28_Node000008_Node000023" class="edge">
<title>Node8&#45;&gt;Node23</title>
<g id="a_edge28_Node000008_Node000023"><a xlink:title=" ">
<path fill="none" stroke="#63b8ff" d="M471.01,-165.34C449.06,-156.81 415.9,-143.92 391.04,-134.26"/>
<polygon fill="#63b8ff" stroke="#63b8ff" points="392.6,-131.11 382.01,-130.75 390.07,-137.64 392.6,-131.11"/>
</a>
</g>
</g>
<!-- Node11&#45;&gt;Node2 -->
<g id="edge18_Node000011_Node000002" class="edge">
<title>Node11&#45;&gt;Node2</title>
<g id="a_edge18_Node000011_Node000002"><a xlink:title=" ">
<path fill="none" stroke="#63b8ff" d="M261.82,-112.63C264.97,-111.83 268.18,-111.09 271.25,-110.5 420.08,-82.1 460.59,-98.13 610.25,-74.5 613.31,-74.02 616.49,-73.46 619.66,-72.86"/>
<polygon fill="#63b8ff" stroke="#63b8ff" points="620.3,-76.3 629.4,-70.88 618.91,-69.44 620.3,-76.3"/>
</a>
</g>
</g>
<!-- Node11&#45;&gt;Node7 -->
<g id="edge16_Node000011_Node000007" class="edge">
<title>Node11&#45;&gt;Node7</title>
<g id="a_edge16_Node000011_Node000007"><a xlink:title=" ">
<path fill="none" stroke="#63b8ff" d="M261.84,-112.74C264.98,-111.92 268.19,-111.15 271.25,-110.5 272.88,-110.16 456.98,-83.19 537.86,-71.35"/>
<polygon fill="#63b8ff" stroke="#63b8ff" points="538.35,-74.81 547.74,-69.9 537.34,-67.89 538.35,-74.81"/>
</a>
</g>
</g>
<!-- Node11&#45;&gt;Node9 -->
<g id="edge13_Node000011_Node000009" class="edge">
<title>Node11&#45;&gt;Node9</title>
<g id="a_edge13_Node000011_Node000009"><a xlink:title=" ">
<path fill="none" stroke="#63b8ff" d="M261.55,-113.03C264.79,-112.15 268.11,-111.28 271.25,-110.5 301.2,-103.06 381.53,-85.78 431.99,-75.04"/>
<polygon fill="#63b8ff" stroke="#63b8ff" points="432.67,-78.47 441.72,-72.97 431.21,-71.63 432.67,-78.47"/>
</a>
</g>
</g>
<!-- Node12 -->
<g id="Node000012" class="node">
<title>Node12</title>
<g id="a_Node000012"><a xlink:title=" ">
<polygon fill="#e0e0e0" stroke="#999999" points="200.25,-74.5 142.25,-74.5 142.25,-55.25 200.25,-55.25 200.25,-74.5"/>
<text xml:space="preserve" text-anchor="middle" x="171.25" y="-61" font-family="Helvetica,sans-Serif" font-size="10.00">functional</text>
</a>
</g>
</g>
<!-- Node11&#45;&gt;Node12 -->
<g id="edge14_Node000011_Node000012" class="edge">
<title>Node11&#45;&gt;Node12</title>
<g id="a_edge14_Node000011_Node000012"><a xlink:title=" ">
<path fill="none" stroke="#63b8ff" d="M228.55,-110.09C218.47,-102.32 203.71,-90.92 191.69,-81.65"/>
<polygon fill="#63b8ff" stroke="#63b8ff" points="194.04,-79.04 183.98,-75.7 189.76,-84.58 194.04,-79.04"/>
</a>
</g>
</g>
<!-- Node13 -->
<g id="Node000013" class="node">
<title>Node13</title>
<g id="a_Node000013"><a xlink:title=" ">
<polygon fill="#e0e0e0" stroke="#999999" points="425.38,-74.5 353.12,-74.5 353.12,-55.25 425.38,-55.25 425.38,-74.5"/>
<text xml:space="preserve" text-anchor="middle" x="389.25" y="-61" font-family="Helvetica,sans-Serif" font-size="10.00">initializer_list</text>
</a>
</g>
</g>
<!-- Node11&#45;&gt;Node13 -->
<g id="edge15_Node000011_Node000013" class="edge">
<title>Node11&#45;&gt;Node13</title>
<g id="a_edge15_Node000011_Node000013"><a xlink:title=" ">
<path fill="none" stroke="#63b8ff" d="M261.6,-111.5C285.47,-102.97 324.52,-89.01 353.16,-78.77"/>
<polygon fill="#63b8ff" stroke="#63b8ff" points="354.29,-82.09 362.53,-75.43 351.93,-75.49 354.29,-82.09"/>
</a>
</g>
</g>
<!-- Node11&#45;&gt;Node14 -->
<g id="edge17_Node000011_Node000014" class="edge">
<title>Node11&#45;&gt;Node14</title>
<g id="a_edge17_Node000011_Node000014"><a xlink:title=" ">
<path fill="none" stroke="#63b8ff" d="M218.69,-110.8C196.14,-102.1 160.48,-88.34 134.56,-78.34"/>
<polygon fill="#63b8ff" stroke="#63b8ff" points="136.12,-75.19 125.53,-74.86 133.6,-81.72 136.12,-75.19"/>
</a>
</g>
</g>
<!-- Node15 -->
<g id="Node000015" class="node">
<title>Node15</title>
<g id="a_Node000015"><a xlink:title=" ">
<polygon fill="#e0e0e0" stroke="#999999" points="261.75,-74.5 218.75,-74.5 218.75,-55.25 261.75,-55.25 261.75,-74.5"/>
<text xml:space="preserve" text-anchor="middle" x="240.25" y="-61" font-family="Helvetica,sans-Serif" font-size="10.00">vector</text>
</a>
</g>
</g>
<!-- Node11&#45;&gt;Node15 -->
<g id="edge19_Node000011_Node000015" class="edge">
<title>Node11&#45;&gt;Node15</title>
<g id="a_edge19_Node000011_Node000015"><a xlink:title=" ">
<path fill="none" stroke="#63b8ff" d="M240.25,-110.33C240.25,-103.82 240.25,-94.67 240.25,-86.37"/>
<polygon fill="#63b8ff" stroke="#63b8ff" points="243.75,-86.37 240.25,-76.37 236.75,-86.37 243.75,-86.37"/>
</a>
</g>
</g>
<!-- Node16 -->
<g id="Node000016" class="node">
<title>Node16</title>
<g id="a_Node000016"><a xlink:href="napi-inl_8h.html" target="_top" xlink:title=" ">
<polygon fill="white" stroke="#666666" points="334.75,-74.5 279.75,-74.5 279.75,-55.25 334.75,-55.25 334.75,-74.5"/>
<text xml:space="preserve" text-anchor="middle" x="307.25" y="-61" font-family="Helvetica,sans-Serif" font-size="10.00">napi&#45;inl.h</text>
</a>
</g>
</g>
<!-- Node11&#45;&gt;Node16 -->
<g id="edge20_Node000011_Node000016" class="edge">
<title>Node11&#45;&gt;Node16</title>
<g id="a_edge20_Node000011_Node000016"><a xlink:title=" ">
<path fill="none" stroke="#63b8ff" d="M251.62,-110.09C261.3,-102.4 275.45,-91.15 287.06,-81.93"/>
<polygon fill="#63b8ff" stroke="#63b8ff" points="289.22,-84.68 294.87,-75.72 284.86,-79.2 289.22,-84.68"/>
</a>
</g>
</g>
<!-- Node17 -->
<g id="Node000017" class="node">
<title>Node17</title>
<g id="a_Node000017"><a xlink:title=" ">
<polygon fill="#e0e0e0" stroke="#999999" points="194.12,-19.25 138.38,-19.25 138.38,0 194.12,0 194.12,-19.25"/>
<text xml:space="preserve" text-anchor="middle" x="166.25" y="-5.75" font-family="Helvetica,sans-Serif" font-size="10.00">algorithm</text>
</a>
</g>
</g>
<!-- Node16&#45;&gt;Node17 -->
<g id="edge21_Node000016_Node000017" class="edge">
<title>Node16&#45;&gt;Node17</title>
<g id="a_edge21_Node000016_Node000017"><a xlink:title=" ">
<path fill="none" stroke="#63b8ff" d="M283.33,-54.84C260.75,-46.31 226.61,-33.42 201.02,-23.76"/>
<polygon fill="#63b8ff" stroke="#63b8ff" points="202.29,-20.5 191.7,-20.24 199.82,-27.04 202.29,-20.5"/>
</a>
</g>
</g>
<!-- Node18 -->
<g id="Node000018" class="node">
<title>Node18</title>
<g id="a_Node000018"><a xlink:title=" ">
<polygon fill="#e0e0e0" stroke="#999999" points="257.88,-19.25 212.62,-19.25 212.62,0 257.88,0 257.88,-19.25"/>
<text xml:space="preserve" text-anchor="middle" x="235.25" y="-5.75" font-family="Helvetica,sans-Serif" font-size="10.00">cstring</text>
</a>
</g>
</g>
<!-- Node16&#45;&gt;Node18 -->
<g id="edge22_Node000016_Node000018" class="edge">
<title>Node16&#45;&gt;Node18</title>
<g id="a_edge22_Node000016_Node000018"><a xlink:title=" ">
<path fill="none" stroke="#63b8ff" d="M295.04,-54.84C284.42,-46.99 268.81,-35.45 256.21,-26.12"/>
<polygon fill="#63b8ff" stroke="#63b8ff" points="258.62,-23.56 248.5,-20.42 254.46,-29.19 258.62,-23.56"/>
</a>
</g>
</g>
<!-- Node19 -->
<g id="Node000019" class="node">
<title>Node19</title>
<g id="a_Node000019"><a xlink:title=" ">
<polygon fill="#e0e0e0" stroke="#999999" points="338.12,-19.25 276.38,-19.25 276.38,0 338.12,0 338.12,-19.25"/>
<text xml:space="preserve" text-anchor="middle" x="307.25" y="-5.75" font-family="Helvetica,sans-Serif" font-size="10.00">type_traits</text>
</a>
</g>
</g>
<!-- Node16&#45;&gt;Node19 -->
<g id="edge23_Node000016_Node000019" class="edge">
<title>Node16&#45;&gt;Node19</title>
<g id="a_edge23_Node000016_Node000019"><a xlink:title=" ">
<path fill="none" stroke="#63b8ff" d="M307.25,-55.08C307.25,-48.57 307.25,-39.42 307.25,-31.12"/>
<polygon fill="#63b8ff" stroke="#63b8ff" points="310.75,-31.12 307.25,-21.12 303.75,-31.12 310.75,-31.12"/>
</a>
</g>
</g>
<!-- Node20 -->
<g id="Node000020" class="node">
<title>Node20</title>
<g id="a_Node000020"><a xlink:title=" ">
<polygon fill="#e0e0e0" stroke="#999999" points="395.88,-19.25 356.62,-19.25 356.62,0 395.88,0 395.88,-19.25"/>
<text xml:space="preserve" text-anchor="middle" x="376.25" y="-5.75" font-family="Helvetica,sans-Serif" font-size="10.00">utility</text>
</a>
</g>
</g>
<!-- Node16&#45;&gt;Node20 -->
<g id="edge24_Node000016_Node000020" class="edge">
<title>Node16&#45;&gt;Node20</title>
<g id="a_edge24_Node000016_Node000020"><a xlink:title=" ">
<path fill="none" stroke="#63b8ff" d="M318.95,-54.84C329.03,-47.07 343.79,-35.67 355.81,-26.4"/>
<polygon fill="#63b8ff" stroke="#63b8ff" points="357.74,-29.33 363.52,-20.45 353.46,-23.79 357.74,-29.33"/>
</a>
</g>
</g>
<!-- Node21 -->
<g id="Node000021" class="node">
<title>Node21</title>
<g id="a_Node000021"><a xlink:href="napi-inl_8deprecated_8h.html" target="_top" xlink:title=" ">
<polygon fill="white" stroke="#666666" points="520.25,-19.25 414.25,-19.25 414.25,0 520.25,0 520.25,-19.25"/>
<text xml:space="preserve" text-anchor="middle" x="467.25" y="-5.75" font-family="Helvetica,sans-Serif" font-size="10.00">napi&#45;inl.deprecated.h</text>
</a>
</g>
</g>
<!-- Node16&#45;&gt;Node21 -->
<g id="edge25_Node000016_Node000021" class="edge">
<title>Node16&#45;&gt;Node21</title>
<g id="a_edge25_Node000016_Node000021"><a xlink:title=" ">
<path fill="none" stroke="#63b8ff" d="M334.39,-54.84C360.48,-46.16 400.15,-32.96 429.35,-23.24"/>
<polygon fill="#63b8ff" stroke="#63b8ff" points="430.16,-26.66 438.54,-20.18 427.95,-20.02 430.16,-26.66"/>
</a>
</g>
</g>
<!-- Node24&#45;&gt;Node5 -->
<g id="edge52_Node000024_Node000005" class="edge">
<title>Node24&#45;&gt;Node5</title>
<g id="a_edge52_Node000024_Node000005"><a xlink:title=" ">
<path fill="none" stroke="#63b8ff" d="M490.24,-386.57C510.87,-360.58 571.79,-283.84 599.39,-249.09"/>
<polygon fill="#63b8ff" stroke="#63b8ff" points="601.81,-251.67 605.28,-241.66 596.33,-247.31 601.81,-251.67"/>
</a>
</g>
</g>
<!-- Node25 -->
<g id="Node000025" class="node">
<title>Node25</title>
<g id="a_Node000025"><a xlink:href="_backend_8hh.html" target="_top" xlink:title=" ">
<polygon fill="white" stroke="#666666" points="394.62,-350.75 317.88,-350.75 317.88,-331.5 394.62,-331.5 394.62,-350.75"/>
<text xml:space="preserve" text-anchor="middle" x="356.25" y="-337.25" font-family="Helvetica,sans-Serif" font-size="10.00">../Backend.hh</text>
</a>
</g>
</g>
<!-- Node24&#45;&gt;Node25 -->
<g id="edge30_Node000024_Node000025" class="edge">
<title>Node24&#45;&gt;Node25</title>
<g id="a_edge30_Node000024_Node000025"><a xlink:title=" ">
<path fill="none" stroke="#63b8ff" d="M461.71,-386.34C441.64,-377.93 411.45,-365.27 388.5,-355.65"/>
<polygon fill="#63b8ff" stroke="#63b8ff" points="389.87,-352.43 379.3,-351.79 387.16,-358.88 389.87,-352.43"/>
</a>
</g>
</g>
<!-- Node26 -->
<g id="Node000026" class="node">
<title>Node26</title>
<g id="a_Node000026"><a xlink:href="_watcher_8hh.html" target="_top" xlink:title=" ">
<polygon fill="white" stroke="#666666" points="388.62,-295.5 323.88,-295.5 323.88,-276.25 388.62,-276.25 388.62,-295.5"/>
<text xml:space="preserve" text-anchor="middle" x="356.25" y="-282" font-family="Helvetica,sans-Serif" font-size="10.00">Watcher.hh</text>
</a>
</g>
</g>
<!-- Node24&#45;&gt;Node26 -->
<g id="edge53_Node000024_Node000026" class="edge">
<title>Node24&#45;&gt;Node26</title>
<g id="a_edge53_Node000024_Node000026"><a xlink:title=" ">
<path fill="none" stroke="#63b8ff" d="M472.86,-386.5C451.55,-368.3 402.65,-326.52 375.43,-303.26"/>
<polygon fill="#63b8ff" stroke="#63b8ff" points="377.81,-300.69 367.94,-296.86 373.27,-306.02 377.81,-300.69"/>
</a>
</g>
</g>
<!-- Node25&#45;&gt;Node8 -->
<g id="edge31_Node000025_Node000008" class="edge">
<title>Node25&#45;&gt;Node8</title>
<g id="a_edge31_Node000025_Node000008"><a xlink:title=" ">
<path fill="none" stroke="#63b8ff" d="M364.89,-331.04C373.31,-322.12 386.37,-308.07 397.25,-295.5 427.63,-260.38 461.56,-217.92 480.15,-194.36"/>
<polygon fill="#63b8ff" stroke="#63b8ff" points="482.76,-196.71 486.19,-186.68 477.26,-192.38 482.76,-196.71"/>
</a>
</g>
</g>
<!-- Node25&#45;&gt;Node26 -->
<g id="edge32_Node000025_Node000026" class="edge">
<title>Node25&#45;&gt;Node26</title>
<g id="a_edge32_Node000025_Node000026"><a xlink:title=" ">
<path fill="none" stroke="#63b8ff" d="M356.25,-331.33C356.25,-324.82 356.25,-315.67 356.25,-307.37"/>
<polygon fill="#63b8ff" stroke="#63b8ff" points="359.75,-307.37 356.25,-297.37 352.75,-307.37 359.75,-307.37"/>
</a>
</g>
</g>
<!-- Node33 -->
<g id="Node000033" class="node">
<title>Node33</title>
<g id="a_Node000033"><a xlink:title=" ">
<polygon fill="#e0e0e0" stroke="#999999" points="155.75,-185 112.75,-185 112.75,-165.75 155.75,-165.75 155.75,-185"/>
<text xml:space="preserve" text-anchor="middle" x="134.25" y="-171.5" font-family="Helvetica,sans-Serif" font-size="10.00">thread</text>
</a>
</g>
</g>
<!-- Node25&#45;&gt;Node33 -->
<g id="edge51_Node000025_Node000033" class="edge">
<title>Node25&#45;&gt;Node33</title>
<g id="a_edge51_Node000025_Node000033"><a xlink:title=" ">
<path fill="none" stroke="#63b8ff" d="M317.5,-331.15C271.72,-318.57 196.33,-291.26 153.25,-240.25 142.85,-227.93 138.14,-210.1 136.01,-196.41"/>
<polygon fill="#63b8ff" stroke="#63b8ff" points="139.52,-196.29 134.87,-186.77 132.57,-197.11 139.52,-196.29"/>
</a>
</g>
</g>
<!-- Node34 -->
<g id="Node000034" class="node">
<title>Node34</title>
<g id="a_Node000034"><a xlink:href="_signal_8hh.html" target="_top" xlink:title=" ">
<polygon fill="white" stroke="#666666" points="56.5,-185 0,-185 0,-165.75 56.5,-165.75 56.5,-185"/>
<text xml:space="preserve" text-anchor="middle" x="28.25" y="-171.5" font-family="Helvetica,sans-Serif" font-size="10.00">Signal.hh</text>
</a>
</g>
</g>
<!-- Node25&#45;&gt;Node34 -->
<g id="edge50_Node000025_Node000034" class="edge">
<title>Node25&#45;&gt;Node34</title>
<g id="a_edge50_Node000025_Node000034"><a xlink:title=" ">
<path fill="none" stroke="#63b8ff" d="M317.4,-339.18C251.79,-335.39 119.15,-317.93 47.25,-240.25 36.3,-228.42 31.64,-210.54 29.67,-196.71"/>
<polygon fill="#63b8ff" stroke="#63b8ff" points="33.17,-196.52 28.66,-186.93 26.2,-197.24 33.17,-196.52"/>
</a>
</g>
</g>
<!-- Node26&#45;&gt;Node5 -->
<g id="edge48_Node000026_Node000005" class="edge">
<title>Node26&#45;&gt;Node5</title>
<g id="a_edge48_Node000026_Node000005"><a xlink:title=" ">
<path fill="none" stroke="#63b8ff" d="M389.06,-278.08C434.1,-268.74 515.32,-251.92 566.65,-241.28"/>
<polygon fill="#63b8ff" stroke="#63b8ff" points="567.19,-244.74 576.27,-239.29 565.77,-237.89 567.19,-244.74"/>
</a>
</g>
</g>
<!-- Node26&#45;&gt;Node8 -->
<g id="edge40_Node000026_Node000008" class="edge">
<title>Node26&#45;&gt;Node8</title>
<g id="a_edge40_Node000026_Node000008"><a xlink:title=" ">
<path fill="none" stroke="#63b8ff" d="M367.54,-276C390.79,-257.72 444.29,-215.65 473.79,-192.46"/>
<polygon fill="#63b8ff" stroke="#63b8ff" points="475.91,-195.24 481.61,-186.31 471.59,-189.74 475.91,-195.24"/>
</a>
</g>
</g>
<!-- Node26&#45;&gt;Node9 -->
<g id="edge36_Node000026_Node000009" class="edge">
<title>Node26&#45;&gt;Node9</title>
<g id="a_edge36_Node000026_Node000009"><a xlink:title=" ">
<path fill="none" stroke="#63b8ff" d="M389.08,-276.87C430.52,-264.8 500.05,-237.55 530.25,-185 546.75,-156.29 545.62,-140.33 531.25,-110.5 525.34,-98.24 514.25,-88.3 503.48,-80.95"/>
<polygon fill="#63b8ff" stroke="#63b8ff" points="505.46,-78.06 495.12,-75.72 501.75,-83.99 505.46,-78.06"/>
</a>
</g>
</g>
<!-- Node27 -->
<g id="Node000027" class="node">
<title>Node27</title>
<g id="a_Node000027"><a xlink:title=" ">
<polygon fill="#e0e0e0" stroke="#999999" points="118.25,-129.75 24.25,-129.75 24.25,-110.5 118.25,-110.5 118.25,-129.75"/>
<text xml:space="preserve" text-anchor="middle" x="71.25" y="-116.25" font-family="Helvetica,sans-Serif" font-size="10.00">condition_variable</text>
</a>
</g>
</g>
<!-- Node26&#45;&gt;Node27 -->
<g id="edge33_Node000026_Node000027" class="edge">
<title>Node26&#45;&gt;Node27</title>
<g id="a_edge33_Node000026_Node000027"><a xlink:title=" ">
<path fill="none" stroke="#63b8ff" d="M323.46,-283.75C281.39,-281 207.4,-271.67 153.25,-240.25 114.28,-217.64 89.65,-168.19 78.41,-140.65"/>
<polygon fill="#63b8ff" stroke="#63b8ff" points="81.71,-139.49 74.84,-131.42 75.18,-142.01 81.71,-139.49"/>
</a>
</g>
</g>
<!-- Node28 -->
<g id="Node000028" class="node">
<title>Node28</title>
<g id="a_Node000028"><a xlink:title=" ">
<polygon fill="#e0e0e0" stroke="#999999" points="290,-185 212.5,-185 212.5,-165.75 290,-165.75 290,-185"/>
<text xml:space="preserve" text-anchor="middle" x="251.25" y="-171.5" font-family="Helvetica,sans-Serif" font-size="10.00">unordered_set</text>
</a>
</g>
</g>
<!-- Node26&#45;&gt;Node28 -->
<g id="edge34_Node000026_Node000028" class="edge">
<title>Node26&#45;&gt;Node28</title>
<g id="a_edge34_Node000026_Node000028"><a xlink:title=" ">
<path fill="none" stroke="#63b8ff" d="M341.11,-275.85C328.05,-267.6 309.15,-254.55 295.25,-240.25 281.92,-226.54 269.84,-208.38 261.72,-194.93"/>
<polygon fill="#63b8ff" stroke="#63b8ff" points="264.94,-193.5 256.88,-186.63 258.9,-197.03 264.94,-193.5"/>
</a>
</g>
</g>
<!-- Node29 -->
<g id="Node000029" class="node">
<title>Node29</title>
<g id="a_Node000029"><a xlink:title=" ">
<polygon fill="#e0e0e0" stroke="#999999" points="402,-240.25 372.5,-240.25 372.5,-221 402,-221 402,-240.25"/>
<text xml:space="preserve" text-anchor="middle" x="387.25" y="-226.75" font-family="Helvetica,sans-Serif" font-size="10.00">set</text>
</a>
</g>
</g>
<!-- Node26&#45;&gt;Node29 -->
<g id="edge35_Node000026_Node000029" class="edge">
<title>Node26&#45;&gt;Node29</title>
<g id="a_edge35_Node000026_Node000029"><a xlink:title=" ">
<path fill="none" stroke="#63b8ff" d="M361.37,-276.08C365.43,-269.11 371.24,-259.12 376.34,-250.37"/>
<polygon fill="#63b8ff" stroke="#63b8ff" points="379.25,-252.32 381.26,-241.92 373.2,-248.8 379.25,-252.32"/>
</a>
</g>
</g>
<!-- Node30 -->
<g id="Node000030" class="node">
<title>Node30</title>
<g id="a_Node000030"><a xlink:href="_glob_8hh.html" target="_top" xlink:title=" ">
<polygon fill="white" stroke="#666666" points="354.12,-240.25 304.38,-240.25 304.38,-221 354.12,-221 354.12,-240.25"/>
<text xml:space="preserve" text-anchor="middle" x="329.25" y="-226.75" font-family="Helvetica,sans-Serif" font-size="10.00">Glob.hh</text>
</a>
</g>
</g>
<!-- Node26&#45;&gt;Node30 -->
<g id="edge37_Node000026_Node000030" class="edge">
<title>Node26&#45;&gt;Node30</title>
<g id="a_edge37_Node000026_Node000030"><a xlink:title=" ">
<path fill="none" stroke="#63b8ff" d="M351.79,-276.08C348.3,-269.19 343.3,-259.34 338.9,-250.66"/>
<polygon fill="#63b8ff" stroke="#63b8ff" points="342.13,-249.3 334.49,-241.96 335.89,-252.46 342.13,-249.3"/>
</a>
</g>
</g>
<!-- Node32 -->
<g id="Node000032" class="node">
<title>Node32</title>
<g id="a_Node000032"><a xlink:href="_debounce_8hh.html" target="_top" xlink:title=" ">
<polygon fill="white" stroke="#666666" points="236.12,-240.25 162.38,-240.25 162.38,-221 236.12,-221 236.12,-240.25"/>
<text xml:space="preserve" text-anchor="middle" x="199.25" y="-226.75" font-family="Helvetica,sans-Serif" font-size="10.00">Debounce.hh</text>
</a>
</g>
</g>
<!-- Node26&#45;&gt;Node32 -->
<g id="edge41_Node000026_Node000032" class="edge">
<title>Node26&#45;&gt;Node32</title>
<g id="a_edge41_Node000026_Node000032"><a xlink:title=" ">
<path fill="none" stroke="#63b8ff" d="M329.62,-275.84C304.13,-267.2 265.44,-254.07 236.82,-244.37"/>
<polygon fill="#63b8ff" stroke="#63b8ff" points="238.04,-241.09 227.45,-241.19 235.79,-247.72 238.04,-241.09"/>
</a>
</g>
</g>
<!-- Node26&#45;&gt;Node34 -->
<g id="edge49_Node000026_Node000034" class="edge">
<title>Node26&#45;&gt;Node34</title>
<g id="a_edge49_Node000026_Node000034"><a xlink:title=" ">
<path fill="none" stroke="#63b8ff" d="M323.56,-283.08C257.68,-278.93 111.71,-266.94 70.25,-240.25 53.87,-229.71 42.47,-210.26 35.72,-195.58"/>
<polygon fill="#63b8ff" stroke="#63b8ff" points="39,-194.34 31.89,-186.49 32.55,-197.06 39,-194.34"/>
</a>
</g>
</g>
<!-- Node30&#45;&gt;Node28 -->
<g id="edge38_Node000030_Node000028" class="edge">
<title>Node30&#45;&gt;Node28</title>
<g id="a_edge38_Node000030_Node000028"><a xlink:title=" ">
<path fill="none" stroke="#63b8ff" d="M316.02,-220.59C304.48,-212.71 287.48,-201.11 273.8,-191.77"/>
<polygon fill="#63b8ff" stroke="#63b8ff" points="276.03,-189.05 265.8,-186.31 272.08,-194.83 276.03,-189.05"/>
</a>
</g>
</g>
<!-- Node31 -->
<g id="Node000031" class="node">
<title>Node31</title>
<g id="a_Node000031"><a xlink:title=" ">
<polygon fill="#e0e0e0" stroke="#999999" points="448.25,-185 408.25,-185 408.25,-165.75 448.25,-165.75 448.25,-185"/>
<text xml:space="preserve" text-anchor="middle" x="428.25" y="-171.5" font-family="Helvetica,sans-Serif" font-size="10.00">regex</text>
</a>
</g>
</g>
<!-- Node30&#45;&gt;Node31 -->
<g id="edge39_Node000030_Node000031" class="edge">
<title>Node30&#45;&gt;Node31</title>
<g id="a_edge39_Node000030_Node000031"><a xlink:title=" ">
<path fill="none" stroke="#63b8ff" d="M346.04,-220.59C361.26,-212.41 383.95,-200.21 401.63,-190.69"/>
<polygon fill="#63b8ff" stroke="#63b8ff" points="402.89,-193.99 410.04,-186.17 399.58,-187.82 402.89,-193.99"/>
</a>
</g>
</g>
<!-- Node32&#45;&gt;Node6 -->
<g id="edge43_Node000032_Node000006" class="edge">
<title>Node32&#45;&gt;Node6</title>
<g id="a_edge43_Node000032_Node000006"><a xlink:title=" ">
<path fill="none" stroke="#63b8ff" d="M224.7,-220.59C248.94,-211.99 285.68,-198.94 312.99,-189.25"/>
<polygon fill="#63b8ff" stroke="#63b8ff" points="314,-192.6 322.25,-185.96 311.66,-186.01 314,-192.6"/>
</a>
</g>
</g>
<!-- Node32&#45;&gt;Node12 -->
<g id="edge44_Node000032_Node000012" class="edge">
<title>Node32&#45;&gt;Node12</title>
<g id="a_edge44_Node000032_Node000012"><a xlink:title=" ">
<path fill="none" stroke="#63b8ff" d="M197.74,-220.82C193.4,-195.39 180.74,-121.35 174.63,-85.62"/>
<polygon fill="#63b8ff" stroke="#63b8ff" points="178.15,-85.48 173.02,-76.21 171.25,-86.66 178.15,-85.48"/>
</a>
</g>
</g>
<!-- Node32&#45;&gt;Node33 -->
<g id="edge42_Node000032_Node000033" class="edge">
<title>Node32&#45;&gt;Node33</title>
<g id="a_edge42_Node000032_Node000033"><a xlink:title=" ">
<path fill="none" stroke="#63b8ff" d="M188.22,-220.59C178.83,-212.9 165.1,-201.65 153.84,-192.43"/>
<polygon fill="#63b8ff" stroke="#63b8ff" points="156.24,-189.86 146.28,-186.23 151.8,-195.28 156.24,-189.86"/>
</a>
</g>
</g>
<!-- Node32&#45;&gt;Node34 -->
<g id="edge45_Node000032_Node000034" class="edge">
<title>Node32&#45;&gt;Node34</title>
<g id="a_edge45_Node000032_Node000034"><a xlink:title=" ">
<path fill="none" stroke="#63b8ff" d="M170.24,-220.59C142.07,-211.82 99.08,-198.43 67.78,-188.69"/>
<polygon fill="#63b8ff" stroke="#63b8ff" points="68.86,-185.36 58.27,-185.72 66.78,-192.04 68.86,-185.36"/>
</a>
</g>
</g>
<!-- Node34&#45;&gt;Node14 -->
<g id="edge46_Node000034_Node000014" class="edge">
<title>Node34&#45;&gt;Node14</title>
<g id="a_edge46_Node000034_Node000014"><a xlink:title=" ">
<path fill="none" stroke="#63b8ff" d="M22.69,-165.42C15.37,-152.4 4.63,-127.88 15.25,-110.5 27.01,-91.25 50.01,-79.96 69.41,-73.55"/>
<polygon fill="#63b8ff" stroke="#63b8ff" points="70.26,-76.95 78.85,-70.75 68.27,-70.24 70.26,-76.95"/>
</a>
</g>
</g>
<!-- Node34&#45;&gt;Node27 -->
<g id="edge47_Node000034_Node000027" class="edge">
<title>Node34&#45;&gt;Node27</title>
<g id="a_edge47_Node000034_Node000027"><a xlink:title=" ">
<path fill="none" stroke="#63b8ff" d="M35.35,-165.58C41.17,-158.38 49.58,-147.96 56.81,-139.01"/>
<polygon fill="#63b8ff" stroke="#63b8ff" points="59.48,-141.27 63.04,-131.29 54.04,-136.87 59.48,-141.27"/>
</a>
</g>
</g>
</g>
</svg>

<g id="navigator" transform="translate(0 0)" fill="#404254">
  <rect fill="#f2f5e9" fill-opacity="0.5" stroke="#606060" stroke-width=".5" x="0" y="0" width="60" height="60"/>
  <use id="zoomplus" xlink:href="#zoomPlus" x="17" y="9" onmousedown="handleZoom(evt,'in')"/>
  <use id="zoomminus" xlink:href="#zoomMin" x="42" y="9" onmousedown="handleZoom(evt,'out')"/>
  <use id="reset" xlink:href="#resetDef" x="30" y="36" onmousedown="handleReset()"/>
   <use id="arrowup" xlink:href="#arrowUp" x="0" y="0" onmousedown="handlePan(0,-1)"/>
  <use id="arrowright" xlink:href="#arrowRight" x="0" y="0" onmousedown="handlePan(1,0)"/>
  <use id="arrowdown" xlink:href="#arrowDown" x="0" y="0" onmousedown="handlePan(0,1)"/>
  <use id="arrowleft" xlink:href="#arrowLeft" x="0" y="0" onmousedown="handlePan(-1,0)"/>
</g>
<svg viewBox="0 0 15 15" width="100%" height="30px" preserveAspectRatio="xMaxYMin meet">
 <g id="arrow_out" transform="scale(0.3 0.3)">
  <a xlink:href="fts_8cc__incl_org.svg" target="_base">
   <rect id="button" ry="5" rx="5" y="6" x="6" height="38" width="38"
        fill="#f2f5e9" fill-opacity="0.5" stroke="#606060" stroke-width="1.0"/>
   <path id="arrow"
     d="M 11.500037,31.436501 C 11.940474,20.09759 22.043105,11.32322 32.158766,21.979434 L 37.068811,17.246167 C 37.068811,17.246167 37.088388,32 37.088388,32 L 22.160133,31.978069 C 22.160133,31.978069 26.997745,27.140456 26.997745,27.140456 C 18.528582,18.264221 13.291696,25.230495 11.500037,31.436501 z"
     style="fill:#404040;"/>
  </a>
 </g>
</svg>

<style type='text/css'>
<![CDATA[
[data-mouse-over-selected='false'] { opacity: 0.7; }
[data-mouse-over-selected='true']  { opacity: 1.0; }
]]>
</style>
<script type="application/ecmascript"><![CDATA[
document.addEventListener('DOMContentLoaded', (event) => {
  highlightEdges();
  highlightAdjacentNodes();
});
]]></script>
</svg>
