<?xml version="1.0" encoding="UTF-8" standalone="no"?>
<!DOCTYPE svg PUBLIC "-//W3C//DTD SVG 1.1//EN"
 "http://www.w3.org/Graphics/SVG/1.1/DTD/svg11.dtd">
<!-- Generated by graphviz version 14.0.4 (20251115.1723)
 -->
<!-- Title: Graphical Class Hierarchy Pages: 1 -->
<svg width="342pt" height="88pt"
 viewBox="0.00 0.00 342.00 88.00" xmlns="http://www.w3.org/2000/svg" xmlns:xlink="http://www.w3.org/1999/xlink">
<g id="graph0" class="graph" transform="scale(1 1) rotate(0) translate(4 83.5)">
<title>Graphical Class Hierarchy</title>
<!-- Node0 -->
<g id="Node000000" class="node">
<title>Node0</title>
<g id="a_Node000000"><a xlink:href="classcom_1_1goldenleaf_1_1shop_1_1model_1_1_user.html" target="_top" xlink:title=" ">
<polygon fill="white" stroke="#666666" points="159.25,-48.88 0,-48.88 0,-29.62 159.25,-29.62 159.25,-48.88"/>
<text xml:space="preserve" text-anchor="middle" x="79.62" y="-35.38" font-family="Helvetica,sans-Serif" font-size="10.00">com.goldenleaf.shop.model.User</text>
</a>
</g>
</g>
<!-- Node1 -->
<g id="Node000001" class="node">
<title>Node1</title>
<g id="a_Node000001"><a xlink:href="classcom_1_1goldenleaf_1_1shop_1_1model_1_1_admin.html" target="_top" xlink:title=" ">
<polygon fill="white" stroke="#666666" points="333.5,-79.5 195.25,-79.5 195.25,-49 333.5,-49 333.5,-79.5"/>
<text xml:space="preserve" text-anchor="start" x="203.25" y="-66" font-family="Helvetica,sans-Serif" font-size="10.00">com.goldenleaf.shop.model.</text>
<text xml:space="preserve" text-anchor="middle" x="264.38" y="-54.75" font-family="Helvetica,sans-Serif" font-size="10.00">Admin</text>
</a>
</g>
</g>
<!-- Node0&#45;&gt;Node1 -->
<g id="edge31_Node000000_Node000001" class="edge">
<title>Node0&#45;&gt;Node1</title>
<g id="a_edge31_Node000000_Node000001"><a xlink:title=" ">
<path fill="none" stroke="#63b8ff" d="M165.81,-50.9C175.57,-52.24 185.41,-53.59 194.91,-54.88"/>
<polygon fill="#63b8ff" stroke="#63b8ff" points="166.31,-47.44 155.93,-49.55 165.36,-54.37 166.31,-47.44"/>
</a>
</g>
</g>
<!-- Node2 -->
<g id="Node000002" class="node">
<title>Node2</title>
<g id="a_Node000002"><a xlink:href="classcom_1_1goldenleaf_1_1shop_1_1model_1_1_customer.html" target="_top" xlink:title=" ">
<polygon fill="white" stroke="#666666" points="333.5,-30.5 195.25,-30.5 195.25,0 333.5,0 333.5,-30.5"/>
<text xml:space="preserve" text-anchor="start" x="203.25" y="-17" font-family="Helvetica,sans-Serif" font-size="10.00">com.goldenleaf.shop.model.</text>
<text xml:space="preserve" text-anchor="middle" x="264.38" y="-5.75" font-family="Helvetica,sans-Serif" font-size="10.00">Customer</text>
</a>
</g>
</g>
<!-- Node0&#45;&gt;Node2 -->
<g id="edge32_Node000000_Node000002" class="edge">
<title>Node0&#45;&gt;Node2</title>
<g id="a_edge32_Node000000_Node000002"><a xlink:title=" ">
<path fill="none" stroke="#63b8ff" d="M169,-27.64C177.7,-26.5 186.45,-25.35 194.91,-24.24"/>
<polygon fill="#63b8ff" stroke="#63b8ff" points="168.56,-24.17 159.1,-28.94 169.47,-31.11 168.56,-24.17"/>
</a>
</g>
</g>
</g>
</svg>
