<?xml version="1.0" encoding="UTF-8" standalone="no"?>
<!DOCTYPE svg PUBLIC "-//W3C//DTD SVG 1.1//EN"
 "http://www.w3.org/Graphics/SVG/1.1/DTD/svg11.dtd">
<!-- Generated by graphviz version 14.0.4 (20251115.1723)
 -->
<!-- Title: Graphical Class Hierarchy Pages: 1 -->
<svg width="189pt" height="64pt"
 viewBox="0.00 0.00 189.00 64.00" xmlns="http://www.w3.org/2000/svg" xmlns:xlink="http://www.w3.org/1999/xlink">
<g id="graph0" class="graph" transform="scale(1 1) rotate(0) translate(4 60.25)">
<title>Graphical Class Hierarchy</title>
<!-- Node0 -->
<g id="Node000000" class="node">
<title>Node0</title>
<g id="a_Node000000"><a xlink:href="class_watcher_state.html" target="_top" xlink:title=" ">
<polygon fill="white" stroke="#666666" points="75.25,-37.25 0,-37.25 0,-18 75.25,-18 75.25,-37.25"/>
<text xml:space="preserve" text-anchor="middle" x="37.62" y="-23.75" font-family="Helvetica,sans-Serif" font-size="10.00">WatcherState</text>
</a>
</g>
</g>
<!-- Node1 -->
<g id="Node000001" class="node">
<title>Node1</title>
<g id="a_Node000001"><a xlink:href="class_state.html" target="_top" xlink:title=" ">
<polygon fill="white" stroke="#666666" points="165.88,-56.25 126.62,-56.25 126.62,-37 165.88,-37 165.88,-56.25"/>
<text xml:space="preserve" text-anchor="middle" x="146.25" y="-42.75" font-family="Helvetica,sans-Serif" font-size="10.00">State</text>
</a>
</g>
</g>
<!-- Node0&#45;&gt;Node1 -->
<g id="edge97_Node000000_Node000001" class="edge">
<title>Node0&#45;&gt;Node1</title>
<g id="a_edge97_Node000000_Node000001"><a xlink:title=" ">
<path fill="none" stroke="#63b8ff" d="M86.68,-36.19C100.7,-38.69 115.22,-41.27 126.29,-43.25"/>
<polygon fill="#63b8ff" stroke="#63b8ff" points="87.57,-32.79 77.11,-34.48 86.34,-39.68 87.57,-32.79"/>
</a>
</g>
</g>
<!-- Node2 -->
<g id="Node000002" class="node">
<title>Node2</title>
<g id="a_Node000002"><a xlink:href="class_subscription.html" target="_top" xlink:title=" ">
<polygon fill="white" stroke="#666666" points="181.25,-19.25 111.25,-19.25 111.25,0 181.25,0 181.25,-19.25"/>
<text xml:space="preserve" text-anchor="middle" x="146.25" y="-5.75" font-family="Helvetica,sans-Serif" font-size="10.00">Subscription</text>
</a>
</g>
</g>
<!-- Node0&#45;&gt;Node2 -->
<g id="edge98_Node000000_Node000002" class="edge">
<title>Node0&#45;&gt;Node2</title>
<g id="a_edge98_Node000000_Node000002"><a xlink:title=" ">
<path fill="none" stroke="#63b8ff" d="M86.86,-19.48C94.94,-18.12 103.18,-16.73 110.83,-15.44"/>
<polygon fill="#63b8ff" stroke="#63b8ff" points="86.39,-16.01 77.11,-21.13 87.55,-22.91 86.39,-16.01"/>
</a>
</g>
</g>
</g>
</svg>
