<?xml version="1.0" encoding="UTF-8" standalone="no"?>
<!DOCTYPE svg PUBLIC "-//W3C//DTD SVG 1.1//EN"
 "http://www.w3.org/Graphics/SVG/1.1/DTD/svg11.dtd">
<!-- Generated by graphviz version 14.0.4 (20251115.1723)
 -->
<!-- Title: Graphical Class Hierarchy Pages: 1 -->
<svg width="522pt" height="82pt"
 viewBox="0.00 0.00 522.00 82.00" xmlns="http://www.w3.org/2000/svg" xmlns:xlink="http://www.w3.org/1999/xlink">
<g id="graph0" class="graph" transform="scale(1 1) rotate(0) translate(4 78.25)">
<title>Graphical Class Hierarchy</title>
<!-- Node0 -->
<g id="Node000000" class="node">
<title>Node0</title>
<g id="a_Node000000"><a xlink:href="class_napi_1_1_instance_wrap.html" target="_top" xlink:title=" ">
<polygon fill="white" stroke="#666666" points="130,-74.25 3.75,-74.25 3.75,-55 130,-55 130,-74.25"/>
<text xml:space="preserve" text-anchor="middle" x="66.88" y="-60.75" font-family="Helvetica,sans-Serif" font-size="10.00">Napi::InstanceWrap&lt; T &gt;</text>
</a>
</g>
</g>
<!-- Node1 -->
<g id="Node000001" class="node">
<title>Node1</title>
<g id="a_Node000001"><a xlink:href="class_napi_1_1_object_wrap.html" target="_top" xlink:title=" ">
<polygon fill="white" stroke="#666666" points="287,-74.25 169.75,-74.25 169.75,-55 287,-55 287,-74.25"/>
<text xml:space="preserve" text-anchor="middle" x="228.38" y="-60.75" font-family="Helvetica,sans-Serif" font-size="10.00">Napi::ObjectWrap&lt; T &gt;</text>
</a>
</g>
</g>
<!-- Node0&#45;&gt;Node1 -->
<g id="edge61_Node000000_Node000001" class="edge">
<title>Node0&#45;&gt;Node1</title>
<g id="a_edge61_Node000000_Node000001"><a xlink:title=" ">
<path fill="none" stroke="#63b8ff" d="M141.7,-64.62C151,-64.62 160.4,-64.62 169.4,-64.62"/>
<polygon fill="#63b8ff" stroke="#63b8ff" points="141.97,-61.13 131.97,-64.63 141.97,-68.13 141.97,-61.13"/>
</a>
</g>
</g>
<!-- Node2 -->
<g id="Node000002" class="node">
<title>Node2</title>
<g id="a_Node000002"><a xlink:href="class_napi_1_1_reference.html" target="_top" xlink:title=" ">
<polygon fill="white" stroke="#666666" points="133.75,-37.25 0,-37.25 0,-18 133.75,-18 133.75,-37.25"/>
<text xml:space="preserve" text-anchor="middle" x="66.88" y="-23.75" font-family="Helvetica,sans-Serif" font-size="10.00">Napi::Reference&lt; Object &gt;</text>
</a>
</g>
</g>
<!-- Node2&#45;&gt;Node1 -->
<g id="edge66_Node000002_Node000001" class="edge">
<title>Node2&#45;&gt;Node1</title>
<g id="a_edge66_Node000002_Node000001"><a xlink:title=" ">
<path fill="none" stroke="#63b8ff" d="M122.61,-40.32C142.61,-44.96 164.95,-50.14 183.84,-54.53"/>
<polygon fill="#63b8ff" stroke="#63b8ff" points="123.47,-36.93 112.93,-38.08 121.88,-43.75 123.47,-36.93"/>
</a>
</g>
</g>
<!-- Node3 -->
<g id="Node000003" class="node">
<title>Node3</title>
<g id="a_Node000003"><a xlink:href="class_napi_1_1_object_reference.html" target="_top" xlink:title=" ">
<polygon fill="white" stroke="#666666" points="286.25,-37.25 170.5,-37.25 170.5,-18 286.25,-18 286.25,-37.25"/>
<text xml:space="preserve" text-anchor="middle" x="228.38" y="-23.75" font-family="Helvetica,sans-Serif" font-size="10.00">Napi::ObjectReference</text>
</a>
</g>
</g>
<!-- Node2&#45;&gt;Node3 -->
<g id="edge62_Node000002_Node000003" class="edge">
<title>Node2&#45;&gt;Node3</title>
<g id="a_edge62_Node000002_Node000003"><a xlink:title=" ">
<path fill="none" stroke="#63b8ff" d="M145.45,-27.62C153.8,-27.62 162.17,-27.62 170.21,-27.62"/>
<polygon fill="#63b8ff" stroke="#63b8ff" points="145.65,-24.13 135.65,-27.63 145.65,-31.13 145.65,-24.13"/>
</a>
</g>
</g>
<!-- Node4 -->
<g id="Node000004" class="node">
<title>Node4</title>
<g id="a_Node000004"><a xlink:href="class_napi_1_1_error.html" target="_top" xlink:title=" ">
<polygon fill="white" stroke="#666666" points="386.25,-37.25 323,-37.25 323,-18 386.25,-18 386.25,-37.25"/>
<text xml:space="preserve" text-anchor="middle" x="354.62" y="-23.75" font-family="Helvetica,sans-Serif" font-size="10.00">Napi::Error</text>
</a>
</g>
</g>
<!-- Node3&#45;&gt;Node4 -->
<g id="edge63_Node000003_Node000004" class="edge">
<title>Node3&#45;&gt;Node4</title>
<g id="a_edge63_Node000003_Node000004"><a xlink:title=" ">
<path fill="none" stroke="#63b8ff" d="M297.86,-27.62C306.54,-27.62 315.05,-27.62 322.71,-27.62"/>
<polygon fill="#63b8ff" stroke="#63b8ff" points="297.92,-24.13 287.92,-27.63 297.92,-31.13 297.92,-24.13"/>
</a>
</g>
</g>
<!-- Node5 -->
<g id="Node000005" class="node">
<title>Node5</title>
<g id="a_Node000005"><a xlink:href="class_napi_1_1_range_error.html" target="_top" xlink:title=" ">
<polygon fill="white" stroke="#666666" points="514,-56.25 422.25,-56.25 422.25,-37 514,-37 514,-56.25"/>
<text xml:space="preserve" text-anchor="middle" x="468.12" y="-42.75" font-family="Helvetica,sans-Serif" font-size="10.00">Napi::RangeError</text>
</a>
</g>
</g>
<!-- Node4&#45;&gt;Node5 -->
<g id="edge64_Node000004_Node000005" class="edge">
<title>Node4&#45;&gt;Node5</title>
<g id="a_edge64_Node000004_Node000005"><a xlink:title=" ">
<path fill="none" stroke="#63b8ff" d="M397.9,-34.83C405.8,-36.18 414.08,-37.59 422.06,-38.95"/>
<polygon fill="#63b8ff" stroke="#63b8ff" points="398.62,-31.4 388.18,-33.17 397.45,-38.3 398.62,-31.4"/>
</a>
</g>
</g>
<!-- Node6 -->
<g id="Node000006" class="node">
<title>Node6</title>
<g id="a_Node000006"><a xlink:href="class_napi_1_1_type_error.html" target="_top" xlink:title=" ">
<polygon fill="white" stroke="#666666" points="510.25,-19.25 426,-19.25 426,0 510.25,0 510.25,-19.25"/>
<text xml:space="preserve" text-anchor="middle" x="468.12" y="-5.75" font-family="Helvetica,sans-Serif" font-size="10.00">Napi::TypeError</text>
</a>
</g>
</g>
<!-- Node4&#45;&gt;Node6 -->
<g id="edge65_Node000004_Node000006" class="edge">
<title>Node4&#45;&gt;Node6</title>
<g id="a_edge65_Node000004_Node000006"><a xlink:title=" ">
<path fill="none" stroke="#63b8ff" d="M397.91,-20.8C407.05,-19.32 416.71,-17.76 425.81,-16.29"/>
<polygon fill="#63b8ff" stroke="#63b8ff" points="397.49,-17.32 388.18,-22.37 398.61,-24.23 397.49,-17.32"/>
</a>
</g>
</g>
</g>
</svg>
