<?xml version="1.0" encoding="UTF-8" standalone="no"?>
<!DOCTYPE svg PUBLIC "-//W3C//DTD SVG 1.1//EN"
 "http://www.w3.org/Graphics/SVG/1.1/DTD/svg11.dtd">
<!-- Generated by graphviz version 14.0.4 (20251115.1723)
 -->
<!-- Title: Graphical Class Hierarchy Pages: 1 -->
<svg width="276pt" height="431pt"
 viewBox="0.00 0.00 276.00 431.00" xmlns="http://www.w3.org/2000/svg" xmlns:xlink="http://www.w3.org/1999/xlink">
<g id="graph0" class="graph" transform="scale(1 1) rotate(0) translate(4 426.5)">
<title>Graphical Class Hierarchy</title>
<!-- Node0 -->
<g id="Node000000" class="node">
<title>Node0</title>
<g id="a_Node000000"><a xlink:title=" ">
<polygon fill="#e0e0e0" stroke="#999999" points="79,-220.88 0,-220.88 0,-201.62 79,-201.62 79,-220.88"/>
<text xml:space="preserve" text-anchor="middle" x="39.5" y="-207.38" font-family="Helvetica,sans-Serif" font-size="10.00">JpaRepository</text>
</a>
</g>
</g>
<!-- Node1 -->
<g id="Node000001" class="node">
<title>Node1</title>
<g id="a_Node000001"><a xlink:href="interfacecom_1_1goldenleaf_1_1shop_1_1repository_1_1_admin_repository.html" target="_top" xlink:title=" ">
<polygon fill="white" stroke="#666666" points="268.25,-422.5 115,-422.5 115,-392 268.25,-392 268.25,-422.5"/>
<text xml:space="preserve" text-anchor="start" x="123" y="-409" font-family="Helvetica,sans-Serif" font-size="10.00">com.goldenleaf.shop.repository.</text>
<text xml:space="preserve" text-anchor="middle" x="191.62" y="-397.75" font-family="Helvetica,sans-Serif" font-size="10.00">AdminRepository</text>
</a>
</g>
</g>
<!-- Node0&#45;&gt;Node1 -->
<g id="edge52_Node000000_Node000001" class="edge">
<title>Node0&#45;&gt;Node1</title>
<g id="a_edge52_Node000000_Node000001"><a xlink:title=" ">
<path fill="none" stroke="#63b8ff" d="M43.87,-231.93C50.78,-267.65 69.85,-341.06 115,-382.25 118.98,-385.88 123.51,-388.99 128.32,-391.65"/>
<polygon fill="#63b8ff" stroke="#63b8ff" points="47.39,-231.69 42.18,-222.46 40.5,-232.92 47.39,-231.69"/>
</a>
</g>
</g>
<!-- Node2 -->
<g id="Node000002" class="node">
<title>Node2</title>
<g id="a_Node000002"><a xlink:href="interfacecom_1_1goldenleaf_1_1shop_1_1repository_1_1_category_repository.html" target="_top" xlink:title=" ">
<polygon fill="white" stroke="#666666" points="268.25,-373.5 115,-373.5 115,-343 268.25,-343 268.25,-373.5"/>
<text xml:space="preserve" text-anchor="start" x="123" y="-360" font-family="Helvetica,sans-Serif" font-size="10.00">com.goldenleaf.shop.repository.</text>
<text xml:space="preserve" text-anchor="middle" x="191.62" y="-348.75" font-family="Helvetica,sans-Serif" font-size="10.00">CategoryRepository</text>
</a>
</g>
</g>
<!-- Node0&#45;&gt;Node2 -->
<g id="edge53_Node000000_Node000002" class="edge">
<title>Node0&#45;&gt;Node2</title>
<g id="a_edge53_Node000000_Node000002"><a xlink:title=" ">
<path fill="none" stroke="#63b8ff" d="M47.76,-231.61C58.42,-258.63 80.8,-306.1 115,-333.25 119.55,-336.86 124.64,-339.96 129.98,-342.62"/>
<polygon fill="#63b8ff" stroke="#63b8ff" points="51.13,-230.63 44.34,-222.5 44.58,-233.09 51.13,-230.63"/>
</a>
</g>
</g>
<!-- Node3 -->
<g id="Node000003" class="node">
<title>Node3</title>
<g id="a_Node000003"><a xlink:href="interfacecom_1_1goldenleaf_1_1shop_1_1repository_1_1_credit_card_repository.html" target="_top" xlink:title=" ">
<polygon fill="white" stroke="#666666" points="268.25,-324.5 115,-324.5 115,-294 268.25,-294 268.25,-324.5"/>
<text xml:space="preserve" text-anchor="start" x="123" y="-311" font-family="Helvetica,sans-Serif" font-size="10.00">com.goldenleaf.shop.repository.</text>
<text xml:space="preserve" text-anchor="middle" x="191.62" y="-299.75" font-family="Helvetica,sans-Serif" font-size="10.00">CreditCardRepository</text>
</a>
</g>
</g>
<!-- Node0&#45;&gt;Node3 -->
<g id="edge54_Node000000_Node000003" class="edge">
<title>Node0&#45;&gt;Node3</title>
<g id="a_edge54_Node000000_Node000003"><a xlink:title=" ">
<path fill="none" stroke="#63b8ff" d="M55.27,-229.93C69.12,-246.33 91.21,-269.76 115,-284.25 120.79,-287.78 127.13,-290.87 133.6,-293.56"/>
<polygon fill="#63b8ff" stroke="#63b8ff" points="58.12,-227.89 49.07,-222.38 52.71,-232.33 58.12,-227.89"/>
</a>
</g>
</g>
<!-- Node4 -->
<g id="Node000004" class="node">
<title>Node4</title>
<g id="a_Node000004"><a xlink:href="interfacecom_1_1goldenleaf_1_1shop_1_1repository_1_1_customer_repository.html" target="_top" xlink:title=" ">
<polygon fill="white" stroke="#666666" points="268.25,-275.5 115,-275.5 115,-245 268.25,-245 268.25,-275.5"/>
<text xml:space="preserve" text-anchor="start" x="123" y="-262" font-family="Helvetica,sans-Serif" font-size="10.00">com.goldenleaf.shop.repository.</text>
<text xml:space="preserve" text-anchor="middle" x="191.62" y="-250.75" font-family="Helvetica,sans-Serif" font-size="10.00">CustomerRepository</text>
</a>
</g>
</g>
<!-- Node0&#45;&gt;Node4 -->
<g id="edge55_Node000000_Node000004" class="edge">
<title>Node0&#45;&gt;Node4</title>
<g id="a_edge55_Node000000_Node000004"><a xlink:title=" ">
<path fill="none" stroke="#63b8ff" d="M82.1,-224.83C100.83,-230.94 123.04,-238.19 142.48,-244.54"/>
<polygon fill="#63b8ff" stroke="#63b8ff" points="83.27,-221.53 72.68,-221.75 81.1,-228.18 83.27,-221.53"/>
</a>
</g>
</g>
<!-- Node5 -->
<g id="Node000005" class="node">
<title>Node5</title>
<g id="a_Node000005"><a xlink:href="interfacecom_1_1goldenleaf_1_1shop_1_1repository_1_1_product_repository.html" target="_top" xlink:title=" ">
<polygon fill="white" stroke="#666666" points="268.25,-226.5 115,-226.5 115,-196 268.25,-196 268.25,-226.5"/>
<text xml:space="preserve" text-anchor="start" x="123" y="-213" font-family="Helvetica,sans-Serif" font-size="10.00">com.goldenleaf.shop.repository.</text>
<text xml:space="preserve" text-anchor="middle" x="191.62" y="-201.75" font-family="Helvetica,sans-Serif" font-size="10.00">ProductRepository</text>
</a>
</g>
</g>
<!-- Node0&#45;&gt;Node5 -->
<g id="edge56_Node000000_Node000005" class="edge">
<title>Node0&#45;&gt;Node5</title>
<g id="a_edge56_Node000000_Node000005"><a xlink:title=" ">
<path fill="none" stroke="#63b8ff" d="M90.6,-211.25C98.38,-211.25 106.56,-211.25 114.76,-211.25"/>
<polygon fill="#63b8ff" stroke="#63b8ff" points="90.67,-207.75 80.67,-211.25 90.67,-214.75 90.67,-207.75"/>
</a>
</g>
</g>
<!-- Node6 -->
<g id="Node000006" class="node">
<title>Node6</title>
<g id="a_Node000006"><a xlink:href="interfacecom_1_1goldenleaf_1_1shop_1_1repository_1_1_review_repository.html" target="_top" xlink:title=" ">
<polygon fill="white" stroke="#666666" points="268.25,-177.5 115,-177.5 115,-147 268.25,-147 268.25,-177.5"/>
<text xml:space="preserve" text-anchor="start" x="123" y="-164" font-family="Helvetica,sans-Serif" font-size="10.00">com.goldenleaf.shop.repository.</text>
<text xml:space="preserve" text-anchor="middle" x="191.62" y="-152.75" font-family="Helvetica,sans-Serif" font-size="10.00">ReviewRepository</text>
</a>
</g>
</g>
<!-- Node0&#45;&gt;Node6 -->
<g id="edge57_Node000000_Node000006" class="edge">
<title>Node0&#45;&gt;Node6</title>
<g id="a_edge57_Node000000_Node000006"><a xlink:title=" ">
<path fill="none" stroke="#63b8ff" d="M82.1,-197.67C100.83,-191.56 123.04,-184.31 142.48,-177.96"/>
<polygon fill="#63b8ff" stroke="#63b8ff" points="81.1,-194.32 72.68,-200.75 83.27,-200.97 81.1,-194.32"/>
</a>
</g>
</g>
<!-- Node7 -->
<g id="Node000007" class="node">
<title>Node7</title>
<g id="a_Node000007"><a xlink:href="interfacecom_1_1goldenleaf_1_1shop_1_1repository_1_1_shopping_cart_repository.html" target="_top" xlink:title=" ">
<polygon fill="white" stroke="#666666" points="268.25,-128.5 115,-128.5 115,-98 268.25,-98 268.25,-128.5"/>
<text xml:space="preserve" text-anchor="start" x="123" y="-115" font-family="Helvetica,sans-Serif" font-size="10.00">com.goldenleaf.shop.repository.</text>
<text xml:space="preserve" text-anchor="middle" x="191.62" y="-103.75" font-family="Helvetica,sans-Serif" font-size="10.00">ShoppingCartRepository</text>
</a>
</g>
</g>
<!-- Node0&#45;&gt;Node7 -->
<g id="edge58_Node000000_Node000007" class="edge">
<title>Node0&#45;&gt;Node7</title>
<g id="a_edge58_Node000000_Node000007"><a xlink:title=" ">
<path fill="none" stroke="#63b8ff" d="M55.27,-192.57C69.12,-176.17 91.21,-152.74 115,-138.25 120.79,-134.72 127.13,-131.63 133.6,-128.94"/>
<polygon fill="#63b8ff" stroke="#63b8ff" points="52.71,-190.17 49.07,-200.12 58.12,-194.61 52.71,-190.17"/>
</a>
</g>
</g>
<!-- Node8 -->
<g id="Node000008" class="node">
<title>Node8</title>
<g id="a_Node000008"><a xlink:href="interfacecom_1_1goldenleaf_1_1shop_1_1repository_1_1_shopping_item_repository.html" target="_top" xlink:title=" ">
<polygon fill="white" stroke="#666666" points="268.25,-79.5 115,-79.5 115,-49 268.25,-49 268.25,-79.5"/>
<text xml:space="preserve" text-anchor="start" x="123" y="-66" font-family="Helvetica,sans-Serif" font-size="10.00">com.goldenleaf.shop.repository.</text>
<text xml:space="preserve" text-anchor="middle" x="191.62" y="-54.75" font-family="Helvetica,sans-Serif" font-size="10.00">ShoppingItemRepository</text>
</a>
</g>
</g>
<!-- Node0&#45;&gt;Node8 -->
<g id="edge59_Node000000_Node000008" class="edge">
<title>Node0&#45;&gt;Node8</title>
<g id="a_edge59_Node000000_Node000008"><a xlink:title=" ">
<path fill="none" stroke="#63b8ff" d="M47.76,-190.89C58.42,-163.87 80.8,-116.4 115,-89.25 119.55,-85.64 124.64,-82.54 129.98,-79.88"/>
<polygon fill="#63b8ff" stroke="#63b8ff" points="44.58,-189.41 44.34,-200 51.13,-191.87 44.58,-189.41"/>
</a>
</g>
</g>
<!-- Node9 -->
<g id="Node000009" class="node">
<title>Node9</title>
<g id="a_Node000009"><a xlink:href="interfacecom_1_1goldenleaf_1_1shop_1_1repository_1_1_user_repository.html" target="_top" xlink:title=" ">
<polygon fill="white" stroke="#666666" points="268.25,-30.5 115,-30.5 115,0 268.25,0 268.25,-30.5"/>
<text xml:space="preserve" text-anchor="start" x="123" y="-17" font-family="Helvetica,sans-Serif" font-size="10.00">com.goldenleaf.shop.repository.</text>
<text xml:space="preserve" text-anchor="middle" x="191.62" y="-5.75" font-family="Helvetica,sans-Serif" font-size="10.00">UserRepository</text>
</a>
</g>
</g>
<!-- Node0&#45;&gt;Node9 -->
<g id="edge60_Node000000_Node000009" class="edge">
<title>Node0&#45;&gt;Node9</title>
<g id="a_edge60_Node000000_Node000009"><a xlink:title=" ">
<path fill="none" stroke="#63b8ff" d="M43.87,-190.57C50.78,-154.85 69.85,-81.44 115,-40.25 118.98,-36.62 123.51,-33.51 128.32,-30.85"/>
<polygon fill="#63b8ff" stroke="#63b8ff" points="40.5,-189.58 42.18,-200.04 47.39,-190.81 40.5,-189.58"/>
</a>
</g>
</g>
</g>
</svg>
