<?xml version="1.0" encoding="UTF-8" standalone="no"?>
<!DOCTYPE svg PUBLIC "-//W3C//DTD SVG 1.1//EN"
 "http://www.w3.org/Graphics/SVG/1.1/DTD/svg11.dtd">
<!-- Generated by graphviz version 14.0.4 (20251115.1723)
 -->
<!-- Title: Graphical Class Hierarchy Pages: 1 -->
<svg width="433pt" height="241pt"
 viewBox="0.00 0.00 433.00 241.00" xmlns="http://www.w3.org/2000/svg" xmlns:xlink="http://www.w3.org/1999/xlink">
<g id="graph0" class="graph" transform="scale(1 1) rotate(0) translate(4 236.88)">
<title>Graphical Class Hierarchy</title>
<!-- Node0 -->
<g id="Node000000" class="node">
<title>Node0</title>
<g id="a_Node000000"><a xlink:title=" ">
<polygon fill="#e0e0e0" stroke="#999999" points="67.78,-232.88 38.98,-232.88 38.98,-213.62 67.78,-213.62 67.78,-232.88"/>
<text xml:space="preserve" text-anchor="middle" x="53.38" y="-219.38" font-family="Helvetica,sans-Serif" font-size="10.00">B</text>
</a>
</g>
</g>
<!-- Node1 -->
<g id="Node000001" class="node">
<title>Node1</title>
<g id="a_Node000001"><a xlink:href="struct_napi_1_1details_1_1disjunction_3_01_b_01_4.html" target="_top" xlink:title=" ">
<polygon fill="white" stroke="#666666" points="290.75,-232.88 142.75,-232.88 142.75,-213.62 290.75,-213.62 290.75,-232.88"/>
<text xml:space="preserve" text-anchor="middle" x="216.75" y="-219.38" font-family="Helvetica,sans-Serif" font-size="10.00">Napi::details::disjunction&lt; B &gt;</text>
</a>
</g>
</g>
<!-- Node0&#45;&gt;Node1 -->
<g id="edge1_Node000000_Node000001" class="edge">
<title>Node0&#45;&gt;Node1</title>
<g id="a_edge1_Node000000_Node000001"><a xlink:title=" ">
<path fill="none" stroke="#63b8ff" d="M79.27,-223.25C96.27,-223.25 119.75,-223.25 142.45,-223.25"/>
<polygon fill="#63b8ff" stroke="#63b8ff" points="79.65,-219.75 69.65,-223.25 79.65,-226.75 79.65,-219.75"/>
</a>
</g>
</g>
<!-- Node2 -->
<g id="Node000002" class="node">
<title>Node2</title>
<g id="a_Node000002"><a xlink:title=" ">
<polygon fill="#e0e0e0" stroke="#999999" points="93.62,-114.88 13.12,-114.88 13.12,-95.62 93.62,-95.62 93.62,-114.88"/>
<text xml:space="preserve" text-anchor="middle" x="53.38" y="-101.38" font-family="Helvetica,sans-Serif" font-size="10.00">std::false_type</text>
</a>
</g>
</g>
<!-- Node2&#45;&gt;Node1 -->
<g id="edge4_Node000002_Node000001" class="edge">
<title>Node2&#45;&gt;Node1</title>
<g id="a_edge4_Node000002_Node000001"><a xlink:title=" ">
<path fill="none" stroke="#63b8ff" d="M66.49,-124.67C81.58,-147.22 109.48,-183.93 142.75,-204.25 148.67,-207.87 155.27,-210.8 162.01,-213.18"/>
<polygon fill="#63b8ff" stroke="#63b8ff" points="69.51,-122.89 61.14,-116.41 63.64,-126.7 69.51,-122.89"/>
</a>
</g>
</g>
<!-- Node3 -->
<g id="Node000003" class="node">
<title>Node3</title>
<g id="a_Node000003"><a xlink:href="struct_napi_1_1details_1_1disjunction.html" target="_top" xlink:title=" ">
<polygon fill="white" stroke="#666666" points="285.5,-195.25 148,-195.25 148,-97.25 285.5,-97.25 285.5,-195.25"/>
<text xml:space="preserve" text-anchor="start" x="156" y="-181.75" font-family="Helvetica,sans-Serif" font-size="10.00">Napi::details::disjunction</text>
<text xml:space="preserve" text-anchor="start" x="156" y="-170.5" font-family="Helvetica,sans-Serif" font-size="10.00">&lt; std::is_convertible&lt; T,</text>
<text xml:space="preserve" text-anchor="start" x="156" y="-159.25" font-family="Helvetica,sans-Serif" font-size="10.00"> const char * &gt;::type, std</text>
<text xml:space="preserve" text-anchor="start" x="156" y="-148" font-family="Helvetica,sans-Serif" font-size="10.00">::is_convertible&lt; T, const</text>
<text xml:space="preserve" text-anchor="start" x="156" y="-136.75" font-family="Helvetica,sans-Serif" font-size="10.00"> char16_t * &gt;::type, std::is</text>
<text xml:space="preserve" text-anchor="start" x="156" y="-125.5" font-family="Helvetica,sans-Serif" font-size="10.00">_convertible&lt; T, std::string</text>
<text xml:space="preserve" text-anchor="start" x="156" y="-114.25" font-family="Helvetica,sans-Serif" font-size="10.00"> &gt;::type, std::is_convertible</text>
<text xml:space="preserve" text-anchor="middle" x="216.75" y="-103" font-family="Helvetica,sans-Serif" font-size="10.00">&lt; T, std::u16string &gt;::type &gt;</text>
</a>
</g>
</g>
<!-- Node2&#45;&gt;Node3 -->
<g id="edge2_Node000002_Node000003" class="edge">
<title>Node2&#45;&gt;Node3</title>
<g id="a_edge2_Node000002_Node000003"><a xlink:title=" ">
<path fill="none" stroke="#63b8ff" d="M104.9,-118.09C118.48,-121.54 133.39,-125.32 147.75,-128.97"/>
<polygon fill="#63b8ff" stroke="#63b8ff" points="105.87,-114.72 95.32,-115.65 104.15,-121.51 105.87,-114.72"/>
</a>
</g>
</g>
<!-- Node5 -->
<g id="Node000005" class="node">
<title>Node5</title>
<g id="a_Node000005"><a xlink:href="struct_napi_1_1details_1_1disjunction_3_01_b_00_01_bs_8_8_8_01_4.html" target="_top" xlink:title=" ">
<polygon fill="white" stroke="#666666" points="278.38,-30.5 155.12,-30.5 155.12,0 278.38,0 278.38,-30.5"/>
<text xml:space="preserve" text-anchor="start" x="163.12" y="-17" font-family="Helvetica,sans-Serif" font-size="10.00">Napi::details::disjunction</text>
<text xml:space="preserve" text-anchor="middle" x="216.75" y="-5.75" font-family="Helvetica,sans-Serif" font-size="10.00">&lt; B, Bs... &gt;</text>
</a>
</g>
</g>
<!-- Node2&#45;&gt;Node5 -->
<g id="edge5_Node000002_Node000005" class="edge">
<title>Node2&#45;&gt;Node5</title>
<g id="a_edge5_Node000002_Node000005"><a xlink:title=" ">
<path fill="none" stroke="#63b8ff" d="M74.2,-87.91C91.38,-73.58 117.4,-53.51 142.75,-40.25 149.28,-36.83 156.37,-33.73 163.48,-30.97"/>
<polygon fill="#63b8ff" stroke="#63b8ff" points="72.13,-85.08 66.78,-94.22 76.66,-90.41 72.13,-85.08"/>
</a>
</g>
</g>
<!-- Node7 -->
<g id="Node000007" class="node">
<title>Node7</title>
<g id="a_Node000007"><a xlink:href="struct_napi_1_1details_1_1disjunction.html" target="_top" xlink:title=" ">
<polygon fill="white" stroke="#666666" points="278.38,-79.5 155.12,-79.5 155.12,-49 278.38,-49 278.38,-79.5"/>
<text xml:space="preserve" text-anchor="start" x="163.12" y="-66" font-family="Helvetica,sans-Serif" font-size="10.00">Napi::details::disjunction</text>
<text xml:space="preserve" text-anchor="middle" x="216.75" y="-54.75" font-family="Helvetica,sans-Serif" font-size="10.00">&lt;... &gt;</text>
</a>
</g>
</g>
<!-- Node2&#45;&gt;Node7 -->
<g id="edge6_Node000002_Node000007" class="edge">
<title>Node2&#45;&gt;Node7</title>
<g id="a_edge6_Node000002_Node000007"><a xlink:title=" ">
<path fill="none" stroke="#63b8ff" d="M104.97,-92.4C120.73,-88.39 138.27,-83.94 154.67,-79.77"/>
<polygon fill="#63b8ff" stroke="#63b8ff" points="104.15,-88.99 95.32,-94.85 105.87,-95.78 104.15,-88.99"/>
</a>
</g>
</g>
<!-- Node4 -->
<g id="Node000004" class="node">
<title>Node4</title>
<g id="a_Node000004"><a xlink:href="struct_napi_1_1details_1_1can__make__string.html" target="_top" xlink:title=" ">
<polygon fill="white" stroke="#666666" points="425.25,-161.5 326.75,-161.5 326.75,-131 425.25,-131 425.25,-161.5"/>
<text xml:space="preserve" text-anchor="start" x="334.75" y="-148" font-family="Helvetica,sans-Serif" font-size="10.00">Napi::details::can</text>
<text xml:space="preserve" text-anchor="middle" x="376" y="-136.75" font-family="Helvetica,sans-Serif" font-size="10.00">_make_string&lt; T &gt;</text>
</a>
</g>
</g>
<!-- Node3&#45;&gt;Node4 -->
<g id="edge3_Node000003_Node000004" class="edge">
<title>Node3&#45;&gt;Node4</title>
<g id="a_edge3_Node000003_Node000004"><a xlink:title=" ">
<path fill="none" stroke="#63b8ff" d="M297.04,-146.25C307.01,-146.25 316.96,-146.25 326.26,-146.25"/>
<polygon fill="#63b8ff" stroke="#63b8ff" points="297.32,-142.75 287.32,-146.25 297.32,-149.75 297.32,-142.75"/>
</a>
</g>
</g>
<!-- Node6 -->
<g id="Node000006" class="node">
<title>Node6</title>
<g id="a_Node000006"><a xlink:title=" ">
<polygon fill="#e0e0e0" stroke="#999999" points="106.75,-24.88 0,-24.88 0,-5.63 106.75,-5.63 106.75,-24.88"/>
<text xml:space="preserve" text-anchor="middle" x="53.38" y="-11.38" font-family="Helvetica,sans-Serif" font-size="10.00">std::conditional::type</text>
</a>
</g>
</g>
<!-- Node6&#45;&gt;Node5 -->
<g id="edge7_Node000006_Node000005" class="edge">
<title>Node6&#45;&gt;Node5</title>
<g id="a_edge7_Node000006_Node000005"><a xlink:title=" ">
<path fill="none" stroke="#63b8ff" d="M118.46,-15.25C130.39,-15.25 142.83,-15.25 154.67,-15.25"/>
<polygon fill="#63b8ff" stroke="#63b8ff" points="118.73,-11.75 108.73,-15.25 118.73,-18.75 118.73,-11.75"/>
</a>
</g>
</g>
</g>
</svg>
