<?xml version="1.0" encoding="UTF-8" standalone="no"?>
<!DOCTYPE svg PUBLIC "-//W3C//DTD SVG 1.1//EN"
 "http://www.w3.org/Graphics/SVG/1.1/DTD/svg11.dtd">
<!-- Generated by graphviz version 14.0.4 (20251115.1723)
 -->
<!-- Title: Graphical Class Hierarchy Pages: 1 -->
<svg width="331pt" height="156pt"
 viewBox="0.00 0.00 331.00 156.00" xmlns="http://www.w3.org/2000/svg" xmlns:xlink="http://www.w3.org/1999/xlink">
<g id="graph0" class="graph" transform="scale(1 1) rotate(0) translate(4 152.25)">
<title>Graphical Class Hierarchy</title>
<!-- Node0 -->
<g id="Node000000" class="node">
<title>Node0</title>
<g id="a_Node000000"><a xlink:href="class_backend.html" target="_top" xlink:title=" ">
<polygon fill="white" stroke="#666666" points="54.25,-56.25 0,-56.25 0,-37 54.25,-37 54.25,-56.25"/>
<text xml:space="preserve" text-anchor="middle" x="27.12" y="-42.75" font-family="Helvetica,sans-Serif" font-size="10.00">Backend</text>
</a>
</g>
</g>
<!-- Node1 -->
<g id="Node000001" class="node">
<title>Node1</title>
<g id="a_Node000001"><a xlink:href="class_brute_force_backend.html" target="_top" xlink:title=" ">
<polygon fill="white" stroke="#666666" points="192.5,-93.25 90.25,-93.25 90.25,-74 192.5,-74 192.5,-93.25"/>
<text xml:space="preserve" text-anchor="middle" x="141.38" y="-79.75" font-family="Helvetica,sans-Serif" font-size="10.00">BruteForceBackend</text>
</a>
</g>
</g>
<!-- Node0&#45;&gt;Node1 -->
<g id="edge8_Node000000_Node000001" class="edge">
<title>Node0&#45;&gt;Node1</title>
<g id="a_edge8_Node000000_Node000001"><a xlink:title=" ">
<path fill="none" stroke="#63b8ff" d="M65.36,-58.9C79.85,-63.68 96.24,-69.08 110,-73.61"/>
<polygon fill="#63b8ff" stroke="#63b8ff" points="66.76,-55.67 56.16,-55.87 64.57,-62.32 66.76,-55.67"/>
</a>
</g>
</g>
<!-- Node6 -->
<g id="Node000006" class="node">
<title>Node6</title>
<g id="a_Node000006"><a xlink:href="class_f_s_events_backend.html" target="_top" xlink:title=" ">
<polygon fill="white" stroke="#666666" points="190.25,-56.25 92.5,-56.25 92.5,-37 190.25,-37 190.25,-56.25"/>
<text xml:space="preserve" text-anchor="middle" x="141.38" y="-42.75" font-family="Helvetica,sans-Serif" font-size="10.00">FSEventsBackend</text>
</a>
</g>
</g>
<!-- Node0&#45;&gt;Node6 -->
<g id="edge13_Node000000_Node000006" class="edge">
<title>Node0&#45;&gt;Node6</title>
<g id="a_edge13_Node000000_Node000006"><a xlink:title=" ">
<path fill="none" stroke="#63b8ff" d="M66.16,-46.62C74.6,-46.62 83.65,-46.62 92.43,-46.62"/>
<polygon fill="#63b8ff" stroke="#63b8ff" points="66.24,-43.13 56.24,-46.63 66.24,-50.13 66.24,-43.13"/>
</a>
</g>
</g>
<!-- Node7 -->
<g id="Node000007" class="node">
<title>Node7</title>
<g id="a_Node000007"><a xlink:href="class_watchman_backend.html" target="_top" xlink:title=" ">
<polygon fill="white" stroke="#666666" points="191.75,-19.25 91,-19.25 91,0 191.75,0 191.75,-19.25"/>
<text xml:space="preserve" text-anchor="middle" x="141.38" y="-5.75" font-family="Helvetica,sans-Serif" font-size="10.00">WatchmanBackend</text>
</a>
</g>
</g>
<!-- Node0&#45;&gt;Node7 -->
<g id="edge14_Node000000_Node000007" class="edge">
<title>Node0&#45;&gt;Node7</title>
<g id="a_edge14_Node000000_Node000007"><a xlink:title=" ">
<path fill="none" stroke="#63b8ff" d="M65.36,-34.35C79.85,-29.57 96.24,-24.17 110,-19.64"/>
<polygon fill="#63b8ff" stroke="#63b8ff" points="64.57,-30.93 56.16,-37.38 66.76,-37.58 64.57,-30.93"/>
</a>
</g>
</g>
<!-- Node2 -->
<g id="Node000002" class="node">
<title>Node2</title>
<g id="a_Node000002"><a xlink:href="class_inotify_backend.html" target="_top" xlink:title=" ">
<polygon fill="white" stroke="#666666" points="316.5,-148.25 235.25,-148.25 235.25,-129 316.5,-129 316.5,-148.25"/>
<text xml:space="preserve" text-anchor="middle" x="275.88" y="-134.75" font-family="Helvetica,sans-Serif" font-size="10.00">InotifyBackend</text>
</a>
</g>
</g>
<!-- Node1&#45;&gt;Node2 -->
<g id="edge9_Node000001_Node000002" class="edge">
<title>Node1&#45;&gt;Node2</title>
<g id="a_edge9_Node000001_Node000002"><a xlink:title=" ">
<path fill="none" stroke="#63b8ff" d="M175.72,-98.28C191.64,-105.19 211,-113.47 228.5,-120.62 234.9,-123.24 241.82,-125.98 248.32,-128.51"/>
<polygon fill="#63b8ff" stroke="#63b8ff" points="177.26,-95.13 166.7,-94.35 174.47,-101.55 177.26,-95.13"/>
</a>
</g>
</g>
<!-- Node3 -->
<g id="Node000003" class="node">
<title>Node3</title>
<g id="a_Node000003"><a xlink:href="class_kqueue_backend.html" target="_top" xlink:title=" ">
<polygon fill="white" stroke="#666666" points="319.5,-111.25 232.25,-111.25 232.25,-92 319.5,-92 319.5,-111.25"/>
<text xml:space="preserve" text-anchor="middle" x="275.88" y="-97.75" font-family="Helvetica,sans-Serif" font-size="10.00">KqueueBackend</text>
</a>
</g>
</g>
<!-- Node1&#45;&gt;Node3 -->
<g id="edge10_Node000001_Node000003" class="edge">
<title>Node1&#45;&gt;Node3</title>
<g id="a_edge10_Node000001_Node000003"><a xlink:title=" ">
<path fill="none" stroke="#63b8ff" d="M204.17,-92.02C213.54,-93.29 223.03,-94.58 231.89,-95.79"/>
<polygon fill="#63b8ff" stroke="#63b8ff" points="204.73,-88.56 194.35,-90.69 203.78,-95.5 204.73,-88.56"/>
</a>
</g>
</g>
<!-- Node4 -->
<g id="Node000004" class="node">
<title>Node4</title>
<g id="a_Node000004"><a xlink:href="class_wasm_backend.html" target="_top" xlink:title=" ">
<polygon fill="white" stroke="#666666" points="316.88,-74.25 234.88,-74.25 234.88,-55 316.88,-55 316.88,-74.25"/>
<text xml:space="preserve" text-anchor="middle" x="275.88" y="-60.75" font-family="Helvetica,sans-Serif" font-size="10.00">WasmBackend</text>
</a>
</g>
</g>
<!-- Node1&#45;&gt;Node4 -->
<g id="edge11_Node000001_Node000004" class="edge">
<title>Node1&#45;&gt;Node4</title>
<g id="a_edge11_Node000001_Node000004"><a xlink:title=" ">
<path fill="none" stroke="#63b8ff" d="M203.96,-74.79C214.3,-73.31 224.79,-71.81 234.42,-70.43"/>
<polygon fill="#63b8ff" stroke="#63b8ff" points="203.75,-71.29 194.34,-76.17 204.74,-78.22 203.75,-71.29"/>
</a>
</g>
</g>
<!-- Node5 -->
<g id="Node000005" class="node">
<title>Node5</title>
<g id="a_Node000005"><a xlink:href="class_windows_backend.html" target="_top" xlink:title=" ">
<polygon fill="white" stroke="#666666" points="323.25,-37.25 228.5,-37.25 228.5,-18 323.25,-18 323.25,-37.25"/>
<text xml:space="preserve" text-anchor="middle" x="275.88" y="-23.75" font-family="Helvetica,sans-Serif" font-size="10.00">WindowsBackend</text>
</a>
</g>
</g>
<!-- Node1&#45;&gt;Node5 -->
<g id="edge12_Node000001_Node000005" class="edge">
<title>Node1&#45;&gt;Node5</title>
<g id="a_edge12_Node000001_Node000005"><a xlink:title=" ">
<path fill="none" stroke="#63b8ff" d="M183.44,-69.5C186.53,-68.25 189.58,-66.95 192.5,-65.62 209.17,-58.06 211.93,-53.4 228.5,-45.62 234.44,-42.84 240.94,-40.12 247.15,-37.67"/>
<polygon fill="#63b8ff" stroke="#63b8ff" points="182.39,-66.15 174.32,-73.01 184.91,-72.68 182.39,-66.15"/>
</a>
</g>
</g>
</g>
</svg>
