<?xml version="1.0" encoding="UTF-8" standalone="no"?>
<!DOCTYPE svg PUBLIC "-//W3C//DTD SVG 1.1//EN"
 "http://www.w3.org/Graphics/SVG/1.1/DTD/svg11.dtd">
<!-- Generated by graphviz version 14.0.4 (20251115.1723)
 -->
<!-- Title: Graphical Class Hierarchy Pages: 1 -->
<svg width="246pt" height="138pt"
 viewBox="0.00 0.00 246.00 138.00" xmlns="http://www.w3.org/2000/svg" xmlns:xlink="http://www.w3.org/1999/xlink">
<g id="graph0" class="graph" transform="scale(1 1) rotate(0) translate(4 134.25)">
<title>Graphical Class Hierarchy</title>
<!-- Node0 -->
<g id="Node000000" class="node">
<title>Node0</title>
<g id="a_Node000000"><a xlink:href="class_promise_runner.html" target="_top" xlink:title=" ">
<polygon fill="white" stroke="#666666" points="83.5,-74.25 0,-74.25 0,-55 83.5,-55 83.5,-74.25"/>
<text xml:space="preserve" text-anchor="middle" x="41.75" y="-60.75" font-family="Helvetica,sans-Serif" font-size="10.00">PromiseRunner</text>
</a>
</g>
</g>
<!-- Node1 -->
<g id="Node000001" class="node">
<title>Node1</title>
<g id="a_Node000001"><a xlink:href="class_get_events_since_runner.html" target="_top" xlink:title=" ">
<polygon fill="white" stroke="#666666" points="238.25,-130.25 119.5,-130.25 119.5,-111 238.25,-111 238.25,-130.25"/>
<text xml:space="preserve" text-anchor="middle" x="178.88" y="-116.75" font-family="Helvetica,sans-Serif" font-size="10.00">GetEventsSinceRunner</text>
</a>
</g>
</g>
<!-- Node0&#45;&gt;Node1 -->
<g id="edge92_Node000000_Node000001" class="edge">
<title>Node0&#45;&gt;Node1</title>
<g id="a_edge92_Node000000_Node000001"><a xlink:title=" ">
<path fill="none" stroke="#63b8ff" d="M71.14,-80.04C85.4,-87.44 103.1,-96.09 119.5,-102.62 126.69,-105.49 134.53,-108.19 142.06,-110.58"/>
<polygon fill="#63b8ff" stroke="#63b8ff" points="72.8,-76.96 62.32,-75.4 69.53,-83.15 72.8,-76.96"/>
</a>
</g>
</g>
<!-- Node2 -->
<g id="Node000002" class="node">
<title>Node2</title>
<g id="a_Node000002"><a xlink:href="class_subscribe_runner.html" target="_top" xlink:title=" ">
<polygon fill="white" stroke="#666666" points="224.38,-93.25 133.38,-93.25 133.38,-74 224.38,-74 224.38,-93.25"/>
<text xml:space="preserve" text-anchor="middle" x="178.88" y="-79.75" font-family="Helvetica,sans-Serif" font-size="10.00">SubscribeRunner</text>
</a>
</g>
</g>
<!-- Node0&#45;&gt;Node2 -->
<g id="edge93_Node000000_Node000002" class="edge">
<title>Node0&#45;&gt;Node2</title>
<g id="a_edge93_Node000000_Node000002"><a xlink:title=" ">
<path fill="none" stroke="#63b8ff" d="M95.01,-71.97C107.67,-73.75 121.08,-75.64 133.34,-77.36"/>
<polygon fill="#63b8ff" stroke="#63b8ff" points="95.55,-68.51 85.16,-70.59 94.57,-75.45 95.55,-68.51"/>
</a>
</g>
</g>
<!-- Node3 -->
<g id="Node000003" class="node">
<title>Node3</title>
<g id="a_Node000003"><a xlink:href="class_unsubscribe_runner.html" target="_top" xlink:title=" ">
<polygon fill="white" stroke="#666666" points="230,-56.25 127.75,-56.25 127.75,-37 230,-37 230,-56.25"/>
<text xml:space="preserve" text-anchor="middle" x="178.88" y="-42.75" font-family="Helvetica,sans-Serif" font-size="10.00">UnsubscribeRunner</text>
</a>
</g>
</g>
<!-- Node0&#45;&gt;Node3 -->
<g id="edge94_Node000000_Node000003" class="edge">
<title>Node0&#45;&gt;Node3</title>
<g id="a_edge94_Node000000_Node000003"><a xlink:title=" ">
<path fill="none" stroke="#63b8ff" d="M95,-57.67C105.69,-56.24 116.93,-54.74 127.55,-53.33"/>
<polygon fill="#63b8ff" stroke="#63b8ff" points="94.61,-54.19 85.16,-58.98 95.53,-61.12 94.61,-54.19"/>
</a>
</g>
</g>
<!-- Node4 -->
<g id="Node000004" class="node">
<title>Node4</title>
<g id="a_Node000004"><a xlink:href="class_write_snapshot_runner.html" target="_top" xlink:title=" ">
<polygon fill="white" stroke="#666666" points="234.5,-19.25 123.25,-19.25 123.25,0 234.5,0 234.5,-19.25"/>
<text xml:space="preserve" text-anchor="middle" x="178.88" y="-5.75" font-family="Helvetica,sans-Serif" font-size="10.00">WriteSnapshotRunner</text>
</a>
</g>
</g>
<!-- Node0&#45;&gt;Node4 -->
<g id="edge95_Node000000_Node000004" class="edge">
<title>Node0&#45;&gt;Node4</title>
<g id="a_edge95_Node000000_Node000004"><a xlink:title=" ">
<path fill="none" stroke="#63b8ff" d="M71.76,-49.37C85.93,-42.24 103.37,-33.96 119.5,-27.62 126.71,-24.8 134.55,-22.12 142.08,-19.73"/>
<polygon fill="#63b8ff" stroke="#63b8ff" points="70.3,-46.18 62.98,-53.85 73.48,-52.42 70.3,-46.18"/>
</a>
</g>
</g>
</g>
</svg>
