<?xml version="1.0" encoding="UTF-8" standalone="no"?>
<!DOCTYPE svg PUBLIC "-//W3C//DTD SVG 1.1//EN"
 "http://www.w3.org/Graphics/SVG/1.1/DTD/svg11.dtd">
<!-- Generated by graphviz version 14.0.4 (20251115.1723)
 -->
<!-- Title: Graphical Class Hierarchy Pages: 1 -->
<svg width="258pt" height="921pt"
 viewBox="0.00 0.00 258.00 921.00" xmlns="http://www.w3.org/2000/svg" xmlns:xlink="http://www.w3.org/1999/xlink">
<g id="graph0" class="graph" transform="scale(1 1) rotate(0) translate(4 916.5)">
<title>Graphical Class Hierarchy</title>
<!-- Node0 -->
<g id="Node000000" class="node">
<title>Node0</title>
<g id="a_Node000000"><a xlink:title=" ">
<polygon fill="#e0e0e0" stroke="#999999" points="59.5,-465.88 0,-465.88 0,-446.62 59.5,-446.62 59.5,-465.88"/>
<text xml:space="preserve" text-anchor="middle" x="29.75" y="-452.38" font-family="Helvetica,sans-Serif" font-size="10.00">Exception</text>
</a>
</g>
</g>
<!-- Node1 -->
<g id="Node000001" class="node">
<title>Node1</title>
<g id="a_Node000001"><a xlink:href="classcom_1_1goldenleaf_1_1shop_1_1exception_1_1_empty_author_exception.html" target="_top" xlink:title=" ">
<polygon fill="white" stroke="#666666" points="249.5,-912.5 95.5,-912.5 95.5,-882 249.5,-882 249.5,-912.5"/>
<text xml:space="preserve" text-anchor="start" x="103.5" y="-899" font-family="Helvetica,sans-Serif" font-size="10.00">com.goldenleaf.shop.exception.</text>
<text xml:space="preserve" text-anchor="middle" x="172.5" y="-887.75" font-family="Helvetica,sans-Serif" font-size="10.00">EmptyAuthorException</text>
</a>
</g>
</g>
<!-- Node0&#45;&gt;Node1 -->
<g id="edge33_Node000000_Node000001" class="edge">
<title>Node0&#45;&gt;Node1</title>
<g id="a_edge33_Node000000_Node000001"><a xlink:title=" ">
<path fill="none" stroke="#63b8ff" d="M31.22,-477.62C33.3,-553.92 44.09,-811.67 95.5,-872.25 98.56,-875.85 102.14,-878.94 106.06,-881.58"/>
<polygon fill="#63b8ff" stroke="#63b8ff" points="34.72,-477.69 30.97,-467.78 27.72,-477.86 34.72,-477.69"/>
</a>
</g>
</g>
<!-- Node2 -->
<g id="Node000002" class="node">
<title>Node2</title>
<g id="a_Node000002"><a xlink:href="classcom_1_1goldenleaf_1_1shop_1_1exception_1_1_empty_brand_exception.html" target="_top" xlink:title=" ">
<polygon fill="white" stroke="#666666" points="249.5,-863.5 95.5,-863.5 95.5,-833 249.5,-833 249.5,-863.5"/>
<text xml:space="preserve" text-anchor="start" x="103.5" y="-850" font-family="Helvetica,sans-Serif" font-size="10.00">com.goldenleaf.shop.exception.</text>
<text xml:space="preserve" text-anchor="middle" x="172.5" y="-838.75" font-family="Helvetica,sans-Serif" font-size="10.00">EmptyBrandException</text>
</a>
</g>
</g>
<!-- Node0&#45;&gt;Node2 -->
<g id="edge34_Node000000_Node000002" class="edge">
<title>Node0&#45;&gt;Node2</title>
<g id="a_edge34_Node000000_Node000002"><a xlink:title=" ">
<path fill="none" stroke="#63b8ff" d="M31.69,-477.32C35.23,-547.32 49.94,-770.65 95.5,-823.25 98.59,-826.82 102.2,-829.88 106.14,-832.51"/>
<polygon fill="#63b8ff" stroke="#63b8ff" points="35.2,-477.44 31.23,-467.62 28.21,-477.78 35.2,-477.44"/>
</a>
</g>
</g>
<!-- Node3 -->
<g id="Node000003" class="node">
<title>Node3</title>
<g id="a_Node000003"><a xlink:href="classcom_1_1goldenleaf_1_1shop_1_1exception_1_1_empty_card_number_exception.html" target="_top" xlink:title=" ">
<polygon fill="white" stroke="#666666" points="249.5,-814.5 95.5,-814.5 95.5,-784 249.5,-784 249.5,-814.5"/>
<text xml:space="preserve" text-anchor="start" x="103.5" y="-801" font-family="Helvetica,sans-Serif" font-size="10.00">com.goldenleaf.shop.exception.</text>
<text xml:space="preserve" text-anchor="middle" x="172.5" y="-789.75" font-family="Helvetica,sans-Serif" font-size="10.00">EmptyCardNumberException</text>
</a>
</g>
</g>
<!-- Node0&#45;&gt;Node3 -->
<g id="edge35_Node000000_Node000003" class="edge">
<title>Node0&#45;&gt;Node3</title>
<g id="a_edge35_Node000000_Node000003"><a xlink:title=" ">
<path fill="none" stroke="#63b8ff" d="M32.35,-477.76C37.55,-541.84 55.92,-729.74 95.5,-774.25 98.73,-777.88 102.5,-780.99 106.6,-783.65"/>
<polygon fill="#63b8ff" stroke="#63b8ff" points="35.85,-477.57 31.58,-467.88 28.87,-478.12 35.85,-477.57"/>
</a>
</g>
</g>
<!-- Node4 -->
<g id="Node000004" class="node">
<title>Node4</title>
<g id="a_Node000004"><a xlink:href="classcom_1_1goldenleaf_1_1shop_1_1exception_1_1_empty_content_exception.html" target="_top" xlink:title=" ">
<polygon fill="white" stroke="#666666" points="249.5,-765.5 95.5,-765.5 95.5,-735 249.5,-735 249.5,-765.5"/>
<text xml:space="preserve" text-anchor="start" x="103.5" y="-752" font-family="Helvetica,sans-Serif" font-size="10.00">com.goldenleaf.shop.exception.</text>
<text xml:space="preserve" text-anchor="middle" x="172.5" y="-740.75" font-family="Helvetica,sans-Serif" font-size="10.00">EmptyContentException</text>
</a>
</g>
</g>
<!-- Node0&#45;&gt;Node4 -->
<g id="edge36_Node000000_Node000004" class="edge">
<title>Node0&#45;&gt;Node4</title>
<g id="a_edge36_Node000000_Node000004"><a xlink:title=" ">
<path fill="none" stroke="#63b8ff" d="M33.18,-477.38C40.1,-534.21 61.68,-688.55 95.5,-725.25 98.79,-728.82 102.61,-731.89 106.74,-734.52"/>
<polygon fill="#63b8ff" stroke="#63b8ff" points="36.69,-477.27 32.04,-467.75 29.74,-478.09 36.69,-477.27"/>
</a>
</g>
</g>
<!-- Node5 -->
<g id="Node000005" class="node">
<title>Node5</title>
<g id="a_Node000005"><a xlink:href="classcom_1_1goldenleaf_1_1shop_1_1exception_1_1_empty_cvv_exception.html" target="_top" xlink:title=" ">
<polygon fill="white" stroke="#666666" points="249.5,-716.5 95.5,-716.5 95.5,-686 249.5,-686 249.5,-716.5"/>
<text xml:space="preserve" text-anchor="start" x="103.5" y="-703" font-family="Helvetica,sans-Serif" font-size="10.00">com.goldenleaf.shop.exception.</text>
<text xml:space="preserve" text-anchor="middle" x="172.5" y="-691.75" font-family="Helvetica,sans-Serif" font-size="10.00">EmptyCvvException</text>
</a>
</g>
</g>
<!-- Node0&#45;&gt;Node5 -->
<g id="edge37_Node000000_Node000005" class="edge">
<title>Node0&#45;&gt;Node5</title>
<g id="a_edge37_Node000000_Node000005"><a xlink:title=" ">
<path fill="none" stroke="#63b8ff" d="M30.8,-477.49C32.07,-520.85 41.15,-620.16 95.5,-676.25 98.98,-679.84 102.98,-682.92 107.3,-685.55"/>
<polygon fill="#63b8ff" stroke="#63b8ff" points="34.3,-477.62 30.64,-467.67 27.3,-477.73 34.3,-477.62"/>
</a>
</g>
</g>
<!-- Node6 -->
<g id="Node000006" class="node">
<title>Node6</title>
<g id="a_Node000006"><a xlink:href="classcom_1_1goldenleaf_1_1shop_1_1exception_1_1_empty_expiry_exception.html" target="_top" xlink:title=" ">
<polygon fill="white" stroke="#666666" points="249.5,-667.5 95.5,-667.5 95.5,-637 249.5,-637 249.5,-667.5"/>
<text xml:space="preserve" text-anchor="start" x="103.5" y="-654" font-family="Helvetica,sans-Serif" font-size="10.00">com.goldenleaf.shop.exception.</text>
<text xml:space="preserve" text-anchor="middle" x="172.5" y="-642.75" font-family="Helvetica,sans-Serif" font-size="10.00">EmptyExpiryException</text>
</a>
</g>
</g>
<!-- Node0&#45;&gt;Node6 -->
<g id="edge38_Node000000_Node000006" class="edge">
<title>Node0&#45;&gt;Node6</title>
<g id="a_edge38_Node000000_Node000006"><a xlink:title=" ">
<path fill="none" stroke="#63b8ff" d="M32.91,-477.39C37.69,-513.23 52.41,-586.02 95.5,-627.25 99.31,-630.9 103.67,-634.02 108.32,-636.68"/>
<polygon fill="#63b8ff" stroke="#63b8ff" points="36.44,-477.39 31.78,-467.87 29.49,-478.21 36.44,-477.39"/>
</a>
</g>
</g>
<!-- Node7 -->
<g id="Node000007" class="node">
<title>Node7</title>
<g id="a_Node000007"><a xlink:href="classcom_1_1goldenleaf_1_1shop_1_1exception_1_1_empty_last_activity_exception.html" target="_top" xlink:title=" ">
<polygon fill="white" stroke="#666666" points="249.5,-618.5 95.5,-618.5 95.5,-588 249.5,-588 249.5,-618.5"/>
<text xml:space="preserve" text-anchor="start" x="103.5" y="-605" font-family="Helvetica,sans-Serif" font-size="10.00">com.goldenleaf.shop.exception.</text>
<text xml:space="preserve" text-anchor="middle" x="172.5" y="-593.75" font-family="Helvetica,sans-Serif" font-size="10.00">EmptyLastActivityException</text>
</a>
</g>
</g>
<!-- Node0&#45;&gt;Node7 -->
<g id="edge39_Node000000_Node000007" class="edge">
<title>Node0&#45;&gt;Node7</title>
<g id="a_edge39_Node000000_Node000007"><a xlink:title=" ">
<path fill="none" stroke="#63b8ff" d="M36.43,-476.96C44.9,-504.03 63.38,-551.18 95.5,-578.25 99.75,-581.83 104.52,-584.9 109.56,-587.54"/>
<polygon fill="#63b8ff" stroke="#63b8ff" points="39.84,-476.14 33.66,-467.53 33.12,-478.11 39.84,-476.14"/>
</a>
</g>
</g>
<!-- Node8 -->
<g id="Node000008" class="node">
<title>Node8</title>
<g id="a_Node000008"><a xlink:href="classcom_1_1goldenleaf_1_1shop_1_1exception_1_1_empty_login_exception.html" target="_top" xlink:title=" ">
<polygon fill="white" stroke="#666666" points="249.5,-569.5 95.5,-569.5 95.5,-539 249.5,-539 249.5,-569.5"/>
<text xml:space="preserve" text-anchor="start" x="103.5" y="-556" font-family="Helvetica,sans-Serif" font-size="10.00">com.goldenleaf.shop.exception.</text>
<text xml:space="preserve" text-anchor="middle" x="172.5" y="-544.75" font-family="Helvetica,sans-Serif" font-size="10.00">EmptyLoginException</text>
</a>
</g>
</g>
<!-- Node0&#45;&gt;Node8 -->
<g id="edge40_Node000000_Node000008" class="edge">
<title>Node0&#45;&gt;Node8</title>
<g id="a_edge40_Node000000_Node000008"><a xlink:title=" ">
<path fill="none" stroke="#63b8ff" d="M43.39,-475.48C55.1,-491.91 73.93,-515.07 95.5,-529.25 100.96,-532.84 106.97,-535.95 113.15,-538.64"/>
<polygon fill="#63b8ff" stroke="#63b8ff" points="46.46,-473.77 37.91,-467.51 40.69,-477.73 46.46,-473.77"/>
</a>
</g>
</g>
<!-- Node9 -->
<g id="Node000009" class="node">
<title>Node9</title>
<g id="a_Node000009"><a xlink:href="classcom_1_1goldenleaf_1_1shop_1_1exception_1_1_empty_name_exception.html" target="_top" xlink:title=" ">
<polygon fill="white" stroke="#666666" points="249.5,-520.5 95.5,-520.5 95.5,-490 249.5,-490 249.5,-520.5"/>
<text xml:space="preserve" text-anchor="start" x="103.5" y="-507" font-family="Helvetica,sans-Serif" font-size="10.00">com.goldenleaf.shop.exception.</text>
<text xml:space="preserve" text-anchor="middle" x="172.5" y="-495.75" font-family="Helvetica,sans-Serif" font-size="10.00">EmptyNameException</text>
</a>
</g>
</g>
<!-- Node0&#45;&gt;Node9 -->
<g id="edge41_Node000000_Node000009" class="edge">
<title>Node0&#45;&gt;Node9</title>
<g id="a_edge41_Node000000_Node000009"><a xlink:title=" ">
<path fill="none" stroke="#63b8ff" d="M67.77,-470.24C76.82,-473.59 86.49,-477.1 95.5,-480.25 104.28,-483.32 113.68,-486.5 122.76,-489.51"/>
<polygon fill="#63b8ff" stroke="#63b8ff" points="69.14,-467.02 58.55,-466.81 66.7,-473.58 69.14,-467.02"/>
</a>
</g>
</g>
<!-- Node10 -->
<g id="Node000010" class="node">
<title>Node10</title>
<g id="a_Node000010"><a xlink:href="classcom_1_1goldenleaf_1_1shop_1_1exception_1_1_empty_product_exception.html" target="_top" xlink:title=" ">
<polygon fill="white" stroke="#666666" points="249.5,-471.5 95.5,-471.5 95.5,-441 249.5,-441 249.5,-471.5"/>
<text xml:space="preserve" text-anchor="start" x="103.5" y="-458" font-family="Helvetica,sans-Serif" font-size="10.00">com.goldenleaf.shop.exception.</text>
<text xml:space="preserve" text-anchor="middle" x="172.5" y="-446.75" font-family="Helvetica,sans-Serif" font-size="10.00">EmptyProductException</text>
</a>
</g>
</g>
<!-- Node0&#45;&gt;Node10 -->
<g id="edge42_Node000000_Node000010" class="edge">
<title>Node0&#45;&gt;Node10</title>
<g id="a_edge42_Node000000_Node000010"><a xlink:title=" ">
<path fill="none" stroke="#63b8ff" d="M71.22,-456.25C78.74,-456.25 86.83,-456.25 95.03,-456.25"/>
<polygon fill="#63b8ff" stroke="#63b8ff" points="71.43,-452.75 61.43,-456.25 71.43,-459.75 71.43,-452.75"/>
</a>
</g>
</g>
<!-- Node11 -->
<g id="Node000011" class="node">
<title>Node11</title>
<g id="a_Node000011"><a xlink:href="classcom_1_1goldenleaf_1_1shop_1_1exception_1_1_empty_shopping_cart_exception.html" target="_top" xlink:title=" ">
<polygon fill="white" stroke="#666666" points="249.5,-422.5 95.5,-422.5 95.5,-392 249.5,-392 249.5,-422.5"/>
<text xml:space="preserve" text-anchor="start" x="103.5" y="-409" font-family="Helvetica,sans-Serif" font-size="10.00">com.goldenleaf.shop.exception.</text>
<text xml:space="preserve" text-anchor="middle" x="172.5" y="-397.75" font-family="Helvetica,sans-Serif" font-size="10.00">EmptyShoppingCartException</text>
</a>
</g>
</g>
<!-- Node0&#45;&gt;Node11 -->
<g id="edge43_Node000000_Node000011" class="edge">
<title>Node0&#45;&gt;Node11</title>
<g id="a_edge43_Node000000_Node000011"><a xlink:title=" ">
<path fill="none" stroke="#63b8ff" d="M67.77,-442.26C76.82,-438.91 86.49,-435.4 95.5,-432.25 104.28,-429.18 113.68,-426 122.76,-422.99"/>
<polygon fill="#63b8ff" stroke="#63b8ff" points="66.7,-438.92 58.55,-445.69 69.14,-445.48 66.7,-438.92"/>
</a>
</g>
</g>
<!-- Node12 -->
<g id="Node000012" class="node">
<title>Node12</title>
<g id="a_Node000012"><a xlink:href="classcom_1_1goldenleaf_1_1shop_1_1exception_1_1_incorrect_bonus_points_value.html" target="_top" xlink:title=" ">
<polygon fill="white" stroke="#666666" points="249.5,-373.5 95.5,-373.5 95.5,-343 249.5,-343 249.5,-373.5"/>
<text xml:space="preserve" text-anchor="start" x="103.5" y="-360" font-family="Helvetica,sans-Serif" font-size="10.00">com.goldenleaf.shop.exception.</text>
<text xml:space="preserve" text-anchor="middle" x="172.5" y="-348.75" font-family="Helvetica,sans-Serif" font-size="10.00">IncorrectBonusPointsValue</text>
</a>
</g>
</g>
<!-- Node0&#45;&gt;Node12 -->
<g id="edge44_Node000000_Node000012" class="edge">
<title>Node0&#45;&gt;Node12</title>
<g id="a_edge44_Node000000_Node000012"><a xlink:title=" ">
<path fill="none" stroke="#63b8ff" d="M43.39,-437.02C55.1,-420.59 73.93,-397.43 95.5,-383.25 100.96,-379.66 106.97,-376.55 113.15,-373.86"/>
<polygon fill="#63b8ff" stroke="#63b8ff" points="40.69,-434.77 37.91,-444.99 46.46,-438.73 40.69,-434.77"/>
</a>
</g>
</g>
<!-- Node13 -->
<g id="Node000013" class="node">
<title>Node13</title>
<g id="a_Node000013"><a xlink:href="classcom_1_1goldenleaf_1_1shop_1_1exception_1_1_incorrect_email_exception.html" target="_top" xlink:title=" ">
<polygon fill="white" stroke="#666666" points="249.5,-324.5 95.5,-324.5 95.5,-294 249.5,-294 249.5,-324.5"/>
<text xml:space="preserve" text-anchor="start" x="103.5" y="-311" font-family="Helvetica,sans-Serif" font-size="10.00">com.goldenleaf.shop.exception.</text>
<text xml:space="preserve" text-anchor="middle" x="172.5" y="-299.75" font-family="Helvetica,sans-Serif" font-size="10.00">IncorrectEmailException</text>
</a>
</g>
</g>
<!-- Node0&#45;&gt;Node13 -->
<g id="edge45_Node000000_Node000013" class="edge">
<title>Node0&#45;&gt;Node13</title>
<g id="a_edge45_Node000000_Node000013"><a xlink:title=" ">
<path fill="none" stroke="#63b8ff" d="M36.43,-435.54C44.9,-408.47 63.38,-361.32 95.5,-334.25 99.75,-330.67 104.52,-327.6 109.56,-324.96"/>
<polygon fill="#63b8ff" stroke="#63b8ff" points="33.12,-434.39 33.66,-444.97 39.84,-436.36 33.12,-434.39"/>
</a>
</g>
</g>
<!-- Node14 -->
<g id="Node000014" class="node">
<title>Node14</title>
<g id="a_Node000014"><a xlink:href="classcom_1_1goldenleaf_1_1shop_1_1exception_1_1_incorrect_mobile_exception.html" target="_top" xlink:title=" ">
<polygon fill="white" stroke="#666666" points="249.5,-275.5 95.5,-275.5 95.5,-245 249.5,-245 249.5,-275.5"/>
<text xml:space="preserve" text-anchor="start" x="103.5" y="-262" font-family="Helvetica,sans-Serif" font-size="10.00">com.goldenleaf.shop.exception.</text>
<text xml:space="preserve" text-anchor="middle" x="172.5" y="-250.75" font-family="Helvetica,sans-Serif" font-size="10.00">IncorrectMobileException</text>
</a>
</g>
</g>
<!-- Node0&#45;&gt;Node14 -->
<g id="edge46_Node000000_Node000014" class="edge">
<title>Node0&#45;&gt;Node14</title>
<g id="a_edge46_Node000000_Node000014"><a xlink:title=" ">
<path fill="none" stroke="#63b8ff" d="M32.91,-435.11C37.69,-399.27 52.41,-326.48 95.5,-285.25 99.31,-281.6 103.67,-278.48 108.32,-275.82"/>
<polygon fill="#63b8ff" stroke="#63b8ff" points="29.49,-434.29 31.78,-444.63 36.44,-435.11 29.49,-434.29"/>
</a>
</g>
</g>
<!-- Node15 -->
<g id="Node000015" class="node">
<title>Node15</title>
<g id="a_Node000015"><a xlink:href="classcom_1_1goldenleaf_1_1shop_1_1exception_1_1_incorrect_price_exception.html" target="_top" xlink:title=" ">
<polygon fill="white" stroke="#666666" points="249.5,-226.5 95.5,-226.5 95.5,-196 249.5,-196 249.5,-226.5"/>
<text xml:space="preserve" text-anchor="start" x="103.5" y="-213" font-family="Helvetica,sans-Serif" font-size="10.00">com.goldenleaf.shop.exception.</text>
<text xml:space="preserve" text-anchor="middle" x="172.5" y="-201.75" font-family="Helvetica,sans-Serif" font-size="10.00">IncorrectPriceException</text>
</a>
</g>
</g>
<!-- Node0&#45;&gt;Node15 -->
<g id="edge47_Node000000_Node000015" class="edge">
<title>Node0&#45;&gt;Node15</title>
<g id="a_edge47_Node000000_Node000015"><a xlink:title=" ">
<path fill="none" stroke="#63b8ff" d="M30.8,-435.01C32.07,-391.65 41.15,-292.34 95.5,-236.25 98.98,-232.66 102.98,-229.58 107.3,-226.95"/>
<polygon fill="#63b8ff" stroke="#63b8ff" points="27.3,-434.77 30.64,-444.83 34.3,-434.88 27.3,-434.77"/>
</a>
</g>
</g>
<!-- Node16 -->
<g id="Node000016" class="node">
<title>Node16</title>
<g id="a_Node000016"><a xlink:href="classcom_1_1goldenleaf_1_1shop_1_1exception_1_1_incorrect_quantity_exception.html" target="_top" xlink:title=" ">
<polygon fill="white" stroke="#666666" points="249.5,-177.5 95.5,-177.5 95.5,-147 249.5,-147 249.5,-177.5"/>
<text xml:space="preserve" text-anchor="start" x="103.5" y="-164" font-family="Helvetica,sans-Serif" font-size="10.00">com.goldenleaf.shop.exception.</text>
<text xml:space="preserve" text-anchor="middle" x="172.5" y="-152.75" font-family="Helvetica,sans-Serif" font-size="10.00">IncorrectQuantityException</text>
</a>
</g>
</g>
<!-- Node0&#45;&gt;Node16 -->
<g id="edge48_Node000000_Node000016" class="edge">
<title>Node0&#45;&gt;Node16</title>
<g id="a_edge48_Node000000_Node000016"><a xlink:title=" ">
<path fill="none" stroke="#63b8ff" d="M33.18,-435.12C40.1,-378.29 61.68,-223.95 95.5,-187.25 98.79,-183.68 102.61,-180.61 106.74,-177.98"/>
<polygon fill="#63b8ff" stroke="#63b8ff" points="29.74,-434.41 32.04,-444.75 36.69,-435.23 29.74,-434.41"/>
</a>
</g>
</g>
<!-- Node17 -->
<g id="Node000017" class="node">
<title>Node17</title>
<g id="a_Node000017"><a xlink:href="classcom_1_1goldenleaf_1_1shop_1_1exception_1_1_incorrect_rating_exception.html" target="_top" xlink:title=" ">
<polygon fill="white" stroke="#666666" points="249.5,-128.5 95.5,-128.5 95.5,-98 249.5,-98 249.5,-128.5"/>
<text xml:space="preserve" text-anchor="start" x="103.5" y="-115" font-family="Helvetica,sans-Serif" font-size="10.00">com.goldenleaf.shop.exception.</text>
<text xml:space="preserve" text-anchor="middle" x="172.5" y="-103.75" font-family="Helvetica,sans-Serif" font-size="10.00">IncorrectRatingException</text>
</a>
</g>
</g>
<!-- Node0&#45;&gt;Node17 -->
<g id="edge49_Node000000_Node000017" class="edge">
<title>Node0&#45;&gt;Node17</title>
<g id="a_edge49_Node000000_Node000017"><a xlink:title=" ">
<path fill="none" stroke="#63b8ff" d="M32.35,-434.74C37.55,-370.66 55.92,-182.76 95.5,-138.25 98.73,-134.62 102.5,-131.51 106.6,-128.85"/>
<polygon fill="#63b8ff" stroke="#63b8ff" points="28.87,-434.38 31.58,-444.62 35.85,-434.93 28.87,-434.38"/>
</a>
</g>
</g>
<!-- Node18 -->
<g id="Node000018" class="node">
<title>Node18</title>
<g id="a_Node000018"><a xlink:href="classcom_1_1goldenleaf_1_1shop_1_1exception_1_1_null_customer_exception.html" target="_top" xlink:title=" ">
<polygon fill="white" stroke="#666666" points="249.5,-79.5 95.5,-79.5 95.5,-49 249.5,-49 249.5,-79.5"/>
<text xml:space="preserve" text-anchor="start" x="103.5" y="-66" font-family="Helvetica,sans-Serif" font-size="10.00">com.goldenleaf.shop.exception.</text>
<text xml:space="preserve" text-anchor="middle" x="172.5" y="-54.75" font-family="Helvetica,sans-Serif" font-size="10.00">NullCustomerException</text>
</a>
</g>
</g>
<!-- Node0&#45;&gt;Node18 -->
<g id="edge50_Node000000_Node000018" class="edge">
<title>Node0&#45;&gt;Node18</title>
<g id="a_edge50_Node000000_Node000018"><a xlink:title=" ">
<path fill="none" stroke="#63b8ff" d="M31.69,-435.18C35.23,-365.18 49.94,-141.85 95.5,-89.25 98.59,-85.68 102.2,-82.62 106.14,-79.99"/>
<polygon fill="#63b8ff" stroke="#63b8ff" points="28.21,-434.72 31.23,-444.88 35.2,-435.06 28.21,-434.72"/>
</a>
</g>
</g>
<!-- Node19 -->
<g id="Node000019" class="node">
<title>Node19</title>
<g id="a_Node000019"><a xlink:href="classcom_1_1goldenleaf_1_1shop_1_1exception_1_1_null_payment_exception.html" target="_top" xlink:title=" ">
<polygon fill="white" stroke="#666666" points="249.5,-30.5 95.5,-30.5 95.5,0 249.5,0 249.5,-30.5"/>
<text xml:space="preserve" text-anchor="start" x="103.5" y="-17" font-family="Helvetica,sans-Serif" font-size="10.00">com.goldenleaf.shop.exception.</text>
<text xml:space="preserve" text-anchor="middle" x="172.5" y="-5.75" font-family="Helvetica,sans-Serif" font-size="10.00">NullPaymentException</text>
</a>
</g>
</g>
<!-- Node0&#45;&gt;Node19 -->
<g id="edge51_Node000000_Node000019" class="edge">
<title>Node0&#45;&gt;Node19</title>
<g id="a_edge51_Node000000_Node000019"><a xlink:title=" ">
<path fill="none" stroke="#63b8ff" d="M31.22,-434.88C33.3,-358.58 44.09,-100.83 95.5,-40.25 98.56,-36.65 102.14,-33.56 106.06,-30.92"/>
<polygon fill="#63b8ff" stroke="#63b8ff" points="27.72,-434.64 30.97,-444.72 34.72,-434.81 27.72,-434.64"/>
</a>
</g>
</g>
</g>
</svg>
