<?xml version="1.0" encoding="UTF-8" standalone="no"?>
<!DOCTYPE svg PUBLIC "-//W3C//DTD SVG 1.1//EN"
 "http://www.w3.org/Graphics/SVG/1.1/DTD/svg11.dtd">
<!-- Generated by graphviz version 14.0.4 (20251115.1723)
 -->
<!-- Title: Graphical Class Hierarchy Pages: 1 -->
<svg width="295pt" height="88pt"
 viewBox="0.00 0.00 295.00 88.00" xmlns="http://www.w3.org/2000/svg" xmlns:xlink="http://www.w3.org/1999/xlink">
<g id="graph0" class="graph" transform="scale(1 1) rotate(0) translate(4 83.5)">
<title>Graphical Class Hierarchy</title>
<!-- Node0 -->
<g id="Node000000" class="node">
<title>Node0</title>
<g id="a_Node000000"><a xlink:href="classcom_1_1goldenleaf_1_1shop_1_1dto_1_1_user_d_t_o.html" target="_top" xlink:title=" ">
<polygon fill="white" stroke="#666666" points="125.5,-54.5 0,-54.5 0,-24 125.5,-24 125.5,-54.5"/>
<text xml:space="preserve" text-anchor="start" x="8" y="-41" font-family="Helvetica,sans-Serif" font-size="10.00">com.goldenleaf.shop.dto.</text>
<text xml:space="preserve" text-anchor="middle" x="62.75" y="-29.75" font-family="Helvetica,sans-Serif" font-size="10.00">UserDTO</text>
</a>
</g>
</g>
<!-- Node1 -->
<g id="Node000001" class="node">
<title>Node1</title>
<g id="a_Node000001"><a xlink:href="classcom_1_1goldenleaf_1_1shop_1_1dto_1_1_admin_d_t_o.html" target="_top" xlink:title=" ">
<polygon fill="white" stroke="#666666" points="287,-79.5 161.5,-79.5 161.5,-49 287,-49 287,-79.5"/>
<text xml:space="preserve" text-anchor="start" x="169.5" y="-66" font-family="Helvetica,sans-Serif" font-size="10.00">com.goldenleaf.shop.dto.</text>
<text xml:space="preserve" text-anchor="middle" x="224.25" y="-54.75" font-family="Helvetica,sans-Serif" font-size="10.00">AdminDTO</text>
</a>
</g>
</g>
<!-- Node0&#45;&gt;Node1 -->
<g id="edge29_Node000000_Node000001" class="edge">
<title>Node0&#45;&gt;Node1</title>
<g id="a_edge29_Node000000_Node000001"><a xlink:title=" ">
<path fill="none" stroke="#63b8ff" d="M137.09,-50.75C145.1,-52 153.18,-53.27 161.03,-54.5"/>
<polygon fill="#63b8ff" stroke="#63b8ff" points="137.79,-47.31 127.37,-49.22 136.71,-54.23 137.79,-47.31"/>
</a>
</g>
</g>
<!-- Node2 -->
<g id="Node000002" class="node">
<title>Node2</title>
<g id="a_Node000002"><a xlink:href="classcom_1_1goldenleaf_1_1shop_1_1dto_1_1_customer_d_t_o.html" target="_top" xlink:title=" ">
<polygon fill="white" stroke="#666666" points="287,-30.5 161.5,-30.5 161.5,0 287,0 287,-30.5"/>
<text xml:space="preserve" text-anchor="start" x="169.5" y="-17" font-family="Helvetica,sans-Serif" font-size="10.00">com.goldenleaf.shop.dto.</text>
<text xml:space="preserve" text-anchor="middle" x="224.25" y="-5.75" font-family="Helvetica,sans-Serif" font-size="10.00">CustomerDTO</text>
</a>
</g>
</g>
<!-- Node0&#45;&gt;Node2 -->
<g id="edge30_Node000000_Node000002" class="edge">
<title>Node0&#45;&gt;Node2</title>
<g id="a_edge30_Node000000_Node000002"><a xlink:title=" ">
<path fill="none" stroke="#63b8ff" d="M137.09,-28.21C145.1,-27.01 153.18,-25.79 161.03,-24.61"/>
<polygon fill="#63b8ff" stroke="#63b8ff" points="136.74,-24.73 127.37,-29.68 137.78,-31.65 136.74,-24.73"/>
</a>
</g>
</g>
</g>
</svg>
