<?xml version="1.0" encoding="UTF-8" standalone="no"?>
<!DOCTYPE svg PUBLIC "-//W3C//DTD SVG 1.1//EN"
 "http://www.w3.org/Graphics/SVG/1.1/DTD/svg11.dtd">
<!-- Generated by graphviz version 14.0.4 (20251115.1723)
 -->
<!-- Title: frontend/node_modules/node&#45;addon&#45;api/napi&#45;inl.h Pages: 1 -->
<svg width="390pt" height="94pt"
 viewBox="0.00 0.00 390.00 94.00" xmlns="http://www.w3.org/2000/svg" xmlns:xlink="http://www.w3.org/1999/xlink">
<g id="graph0" class="graph" transform="scale(1 1) rotate(0) translate(4 89.75)">
<title>frontend/node_modules/node&#45;addon&#45;api/napi&#45;inl.h</title>
<!-- Node1 -->
<g id="Node000001" class="node">
<title>Node1</title>
<g id="a_Node000001"><a xlink:title=" ">
<polygon fill="#999999" stroke="#666666" points="232.38,-85.75 105.38,-85.75 105.38,-55.25 232.38,-55.25 232.38,-85.75"/>
<text xml:space="preserve" text-anchor="start" x="113.38" y="-72.25" font-family="Helvetica,sans-Serif" font-size="10.00">frontend/node_modules</text>
<text xml:space="preserve" text-anchor="middle" x="168.88" y="-61" font-family="Helvetica,sans-Serif" font-size="10.00">/node&#45;addon&#45;api/napi&#45;inl.h</text>
</a>
</g>
</g>
<!-- Node2 -->
<g id="Node000002" class="node">
<title>Node2</title>
<g id="a_Node000002"><a xlink:title=" ">
<polygon fill="#e0e0e0" stroke="#999999" points="55.75,-19.25 0,-19.25 0,0 55.75,0 55.75,-19.25"/>
<text xml:space="preserve" text-anchor="middle" x="27.88" y="-5.75" font-family="Helvetica,sans-Serif" font-size="10.00">algorithm</text>
</a>
</g>
</g>
<!-- Node1&#45;&gt;Node2 -->
<g id="edge1_Node000001_Node000002" class="edge">
<title>Node1&#45;&gt;Node2</title>
<g id="a_edge1_Node000001_Node000002"><a xlink:title=" ">
<path fill="none" stroke="#63b8ff" d="M133.66,-54.8C111.05,-45.35 81.92,-33.19 59.95,-24.02"/>
<polygon fill="#63b8ff" stroke="#63b8ff" points="61.47,-20.86 50.9,-20.24 58.77,-27.32 61.47,-20.86"/>
</a>
</g>
</g>
<!-- Node3 -->
<g id="Node000003" class="node">
<title>Node3</title>
<g id="a_Node000003"><a xlink:title=" ">
<polygon fill="#e0e0e0" stroke="#999999" points="119.5,-19.25 74.25,-19.25 74.25,0 119.5,0 119.5,-19.25"/>
<text xml:space="preserve" text-anchor="middle" x="96.88" y="-5.75" font-family="Helvetica,sans-Serif" font-size="10.00">cstring</text>
</a>
</g>
</g>
<!-- Node1&#45;&gt;Node3 -->
<g id="edge2_Node000001_Node000003" class="edge">
<title>Node1&#45;&gt;Node3</title>
<g id="a_edge2_Node000001_Node000003"><a xlink:title=" ">
<path fill="none" stroke="#63b8ff" d="M151.08,-54.95C140.64,-46.41 127.44,-35.62 116.67,-26.81"/>
<polygon fill="#63b8ff" stroke="#63b8ff" points="119.1,-24.28 109.15,-20.66 114.67,-29.7 119.1,-24.28"/>
</a>
</g>
</g>
<!-- Node4 -->
<g id="Node000004" class="node">
<title>Node4</title>
<g id="a_Node000004"><a xlink:title=" ">
<polygon fill="#e0e0e0" stroke="#999999" points="199.75,-19.25 138,-19.25 138,0 199.75,0 199.75,-19.25"/>
<text xml:space="preserve" text-anchor="middle" x="168.88" y="-5.75" font-family="Helvetica,sans-Serif" font-size="10.00">type_traits</text>
</a>
</g>
</g>
<!-- Node1&#45;&gt;Node4 -->
<g id="edge3_Node000001_Node000004" class="edge">
<title>Node1&#45;&gt;Node4</title>
<g id="a_edge3_Node000001_Node000004"><a xlink:title=" ">
<path fill="none" stroke="#63b8ff" d="M168.88,-54.95C168.88,-47.71 168.88,-38.84 168.88,-30.94"/>
<polygon fill="#63b8ff" stroke="#63b8ff" points="172.38,-31.21 168.88,-21.21 165.38,-31.21 172.38,-31.21"/>
</a>
</g>
</g>
<!-- Node5 -->
<g id="Node000005" class="node">
<title>Node5</title>
<g id="a_Node000005"><a xlink:title=" ">
<polygon fill="#e0e0e0" stroke="#999999" points="257.5,-19.25 218.25,-19.25 218.25,0 257.5,0 257.5,-19.25"/>
<text xml:space="preserve" text-anchor="middle" x="237.88" y="-5.75" font-family="Helvetica,sans-Serif" font-size="10.00">utility</text>
</a>
</g>
</g>
<!-- Node1&#45;&gt;Node5 -->
<g id="edge4_Node000001_Node000005" class="edge">
<title>Node1&#45;&gt;Node5</title>
<g id="a_edge4_Node000001_Node000005"><a xlink:title=" ">
<path fill="none" stroke="#63b8ff" d="M185.93,-54.95C195.83,-46.5 208.33,-35.83 218.59,-27.08"/>
<polygon fill="#63b8ff" stroke="#63b8ff" points="220.75,-29.84 226.09,-20.68 216.21,-24.51 220.75,-29.84"/>
</a>
</g>
</g>
<!-- Node6 -->
<g id="Node000006" class="node">
<title>Node6</title>
<g id="a_Node000006"><a xlink:href="napi-inl_8deprecated_8h.html" target="_top" xlink:title=" ">
<polygon fill="white" stroke="#666666" points="381.88,-19.25 275.88,-19.25 275.88,0 381.88,0 381.88,-19.25"/>
<text xml:space="preserve" text-anchor="middle" x="328.88" y="-5.75" font-family="Helvetica,sans-Serif" font-size="10.00">napi&#45;inl.deprecated.h</text>
</a>
</g>
</g>
<!-- Node1&#45;&gt;Node6 -->
<g id="edge5_Node000001_Node000006" class="edge">
<title>Node1&#45;&gt;Node6</title>
<g id="a_edge5_Node000001_Node000006"><a xlink:title=" ">
<path fill="none" stroke="#63b8ff" d="M208.84,-54.8C234.96,-45.18 268.76,-32.75 293.83,-23.52"/>
<polygon fill="#63b8ff" stroke="#63b8ff" points="294.74,-26.91 302.92,-20.18 292.32,-20.35 294.74,-26.91"/>
</a>
</g>
</g>
</g>
</svg>
