<?xml version="1.0" encoding="UTF-8" standalone="no"?>
<!DOCTYPE svg PUBLIC "-//W3C//DTD SVG 1.1//EN"
 "http://www.w3.org/Graphics/SVG/1.1/DTD/svg11.dtd">
<!-- Generated by graphviz version 14.0.4 (20251115.1723)
 -->
<!-- Title: frontend/node_modules/node&#45;addon&#45;api/napi.h Pages: 1 -->
<!--zoomable 583 -->

<svg id="main" version="1.1" xmlns="http://www.w3.org/2000/svg" xmlns:xlink="http://www.w3.org/1999/xlink" xml:space="preserve" onload="init(evt)">

<style type="text/css"><![CDATA[
.node, .edge {opacity: 0.7;}
.node.selected, .edge.selected {opacity: 1;}
.edge:hover path { stroke: red; }
.edge:hover polygon { stroke: red; fill: red; }
]]></style>

<defs>
  <circle id="rim" cx="0" cy="0" r="7"/>
  <circle id="rim2" cx="0" cy="0" r="3.5"/>
  <g id="zoomPlus">
    <use xlink:href="#rim" fill="#404040"><set attributeName="fill" to="#808080" begin="zoomplus.mouseover" end="zoomplus.mouseout"/></use>
    <path d="M-4,0h8M0,-4v8" fill="none" stroke="white" stroke-width="1.5" pointer-events="none"/>
  </g>
  <g id="zoomMin">
    <use xlink:href="#rim" fill="#404040"><set attributeName="fill" to="#808080" begin="zoomminus.mouseover" end="zoomminus.mouseout"/></use>
    <path d="M-4,0h8" fill="none" stroke="white" stroke-width="1.5" pointer-events="none"/>
  </g>
  <g id="arrowUp" transform="translate(30 24)">
    <use xlink:href="#rim"/>
    <path pointer-events="none" fill="none" stroke="white" stroke-width="1.5" d="M0,-3.0v7 M-2.5,-0.5L0,-3.0L2.5,-0.5"/>
  </g>
  <g id="arrowRight" transform="rotate(90) translate(36 -43)">
    <use xlink:href="#rim"/>
    <path pointer-events="none" fill="none" stroke="white" stroke-width="1.5" d="M0,-3.0v7 M-2.5,-0.5L0,-3.0L2.5,-0.5"/>
  </g>
  <g id="arrowDown" transform="rotate(180) translate(-30 -48)">
    <use xlink:href="#rim"/>
    <path pointer-events="none" fill="none" stroke="white" stroke-width="1.5" d="M0,-3.0v7 M-2.5,-0.5L0,-3.0L2.5,-0.5"/>
  </g>
  <g id="arrowLeft" transform="rotate(270) translate(-36 17)">
    <use xlink:href="#rim"/>
    <path pointer-events="none" fill="none" stroke="white" stroke-width="1.5" d="M0,-3.0v7 M-2.5,-0.5L0,-3.0L2.5,-0.5"/>
  </g>
  <g id="resetDef">
    <use xlink:href="#rim2" fill="#404040"><set attributeName="fill" to="#808080" begin="reset.mouseover" end="reset.mouseout"/></use>
  </g>
</defs>
<script type="application/ecmascript">
var viewWidth = 1788;
var viewHeight = 583;
var sectionId = 'dynsection-1';
</script>
<script type="application/ecmascript" xlink:href="svg.min.js"/>
<svg id="graph" class="graph">
<g id="viewport">
<title>frontend/node_modules/node&#45;addon&#45;api/napi.h</title>
<!-- Node1 -->
<g id="Node000001" class="node">
<title>Node1</title>
<g id="a_Node000001"><a xlink:title=" ">
<polygon fill="#999999" stroke="#666666" points="1693.12,-574.75 1575.88,-574.75 1575.88,-544.25 1693.12,-544.25 1693.12,-574.75"/>
<text xml:space="preserve" text-anchor="start" x="1583.88" y="-561.25" font-family="Helvetica,sans-Serif" font-size="10.00">frontend/node_modules</text>
<text xml:space="preserve" text-anchor="middle" x="1634.5" y="-550" font-family="Helvetica,sans-Serif" font-size="10.00">/node&#45;addon&#45;api/napi.h</text>
</a>
</g>
</g>
<!-- Node2 -->
<g id="Node000002" class="node">
<title>Node2</title>
<g id="a_Node000002"><a xlink:href="_event_8hh.html" target="_top" xlink:title=" ">
<polygon fill="white" stroke="#666666" points="1341.12,-508.25 1223.88,-508.25 1223.88,-466.5 1341.12,-466.5 1341.12,-508.25"/>
<text xml:space="preserve" text-anchor="start" x="1231.88" y="-494.75" font-family="Helvetica,sans-Serif" font-size="10.00">frontend/node_modules</text>
<text xml:space="preserve" text-anchor="start" x="1231.88" y="-483.5" font-family="Helvetica,sans-Serif" font-size="10.00">/@parcel/watcher/src</text>
<text xml:space="preserve" text-anchor="middle" x="1282.5" y="-472.25" font-family="Helvetica,sans-Serif" font-size="10.00">/Event.hh</text>
</a>
</g>
</g>
<!-- Node1&#45;&gt;Node2 -->
<g id="edge1_Node000001_Node000002" class="edge">
<title>Node1&#45;&gt;Node2</title>
<g id="a_edge1_Node000001_Node000002"><a xlink:title=" ">
<path fill="none" stroke="#63b8ff" d="M1564.59,-544.57C1499.35,-531.58 1403.11,-512.4 1341.61,-500.15"/>
<polygon fill="#63b8ff" stroke="#63b8ff" points="1563.61,-547.95 1574.1,-546.47 1564.98,-541.08 1563.61,-547.95"/>
</a>
</g>
</g>
<!-- Node5 -->
<g id="Node000005" class="node">
<title>Node5</title>
<g id="a_Node000005"><a xlink:href="binding_8cc.html" target="_top" xlink:title=" ">
<polygon fill="white" stroke="#666666" points="1666.12,-197.25 1548.88,-197.25 1548.88,-155.5 1666.12,-155.5 1666.12,-197.25"/>
<text xml:space="preserve" text-anchor="start" x="1556.88" y="-183.75" font-family="Helvetica,sans-Serif" font-size="10.00">frontend/node_modules</text>
<text xml:space="preserve" text-anchor="start" x="1556.88" y="-172.5" font-family="Helvetica,sans-Serif" font-size="10.00">/@parcel/watcher/src</text>
<text xml:space="preserve" text-anchor="middle" x="1607.5" y="-161.25" font-family="Helvetica,sans-Serif" font-size="10.00">/binding.cc</text>
</a>
</g>
</g>
<!-- Node1&#45;&gt;Node5 -->
<g id="edge48_Node000001_Node000005" class="edge">
<title>Node1&#45;&gt;Node5</title>
<g id="a_edge48_Node000001_Node000005"><a xlink:title=" ">
<path fill="none" stroke="#63b8ff" d="M1634.5,-532.46C1634.5,-502.92 1634.5,-453.31 1634.5,-410.62 1634.5,-410.62 1634.5,-410.62 1634.5,-330.88 1634.5,-282.44 1621.3,-226.69 1613.36,-197.54"/>
<polygon fill="#63b8ff" stroke="#63b8ff" points="1631,-532.29 1634.5,-542.29 1638,-532.29 1631,-532.29"/>
</a>
</g>
</g>
<!-- Node26 -->
<g id="Node000026" class="node">
<title>Node26</title>
<g id="a_Node000026"><a xlink:href="_promise_runner_8hh.html" target="_top" xlink:title=" ">
<polygon fill="white" stroke="#666666" points="1780.12,-430.5 1662.88,-430.5 1662.88,-388.75 1780.12,-388.75 1780.12,-430.5"/>
<text xml:space="preserve" text-anchor="start" x="1670.88" y="-417" font-family="Helvetica,sans-Serif" font-size="10.00">frontend/node_modules</text>
<text xml:space="preserve" text-anchor="start" x="1670.88" y="-405.75" font-family="Helvetica,sans-Serif" font-size="10.00">/@parcel/watcher/src</text>
<text xml:space="preserve" text-anchor="middle" x="1721.5" y="-394.5" font-family="Helvetica,sans-Serif" font-size="10.00">/PromiseRunner.hh</text>
</a>
</g>
</g>
<!-- Node1&#45;&gt;Node26 -->
<g id="edge46_Node000001_Node000026" class="edge">
<title>Node1&#45;&gt;Node26</title>
<g id="a_edge46_Node000001_Node000026"><a xlink:title=" ">
<path fill="none" stroke="#63b8ff" d="M1648.87,-534.07C1665.84,-505.23 1693.74,-457.8 1709.57,-430.91"/>
<polygon fill="#63b8ff" stroke="#63b8ff" points="1645.98,-532.08 1643.93,-542.48 1652.01,-535.63 1645.98,-532.08"/>
</a>
</g>
</g>
<!-- Node3 -->
<g id="Node000003" class="node">
<title>Node3</title>
<g id="a_Node000003"><a xlink:href="_backend_8hh.html" target="_top" xlink:title=" ">
<polygon fill="white" stroke="#666666" points="1319.12,-275 1201.88,-275 1201.88,-233.25 1319.12,-233.25 1319.12,-275"/>
<text xml:space="preserve" text-anchor="start" x="1209.88" y="-261.5" font-family="Helvetica,sans-Serif" font-size="10.00">frontend/node_modules</text>
<text xml:space="preserve" text-anchor="start" x="1209.88" y="-250.25" font-family="Helvetica,sans-Serif" font-size="10.00">/@parcel/watcher/src</text>
<text xml:space="preserve" text-anchor="middle" x="1260.5" y="-239" font-family="Helvetica,sans-Serif" font-size="10.00">/Backend.hh</text>
</a>
</g>
</g>
<!-- Node2&#45;&gt;Node3 -->
<g id="edge2_Node000002_Node000003" class="edge">
<title>Node2&#45;&gt;Node3</title>
<g id="a_edge2_Node000002_Node000003"><a xlink:title=" ">
<path fill="none" stroke="#63b8ff" d="M1279.51,-454.97C1274.92,-406.74 1266.27,-315.78 1262.43,-275.36"/>
<polygon fill="#63b8ff" stroke="#63b8ff" points="1276.01,-455.13 1280.44,-464.75 1282.98,-454.46 1276.01,-455.13"/>
</a>
</g>
</g>
<!-- Node2&#45;&gt;Node5 -->
<g id="edge42_Node000002_Node000005" class="edge">
<title>Node2&#45;&gt;Node5</title>
<g id="a_edge42_Node000002_Node000005"><a xlink:title=" ">
<path fill="none" stroke="#63b8ff" d="M1352.38,-478.9C1417.56,-470.55 1508.52,-454.9 1534.5,-430.5 1602.01,-367.09 1608.39,-245.62 1608.11,-197.61"/>
<polygon fill="#63b8ff" stroke="#63b8ff" points="1352.33,-475.38 1342.84,-480.09 1353.2,-482.33 1352.33,-475.38"/>
</a>
</g>
</g>
<!-- Node6 -->
<g id="Node000006" class="node">
<title>Node6</title>
<g id="a_Node000006"><a xlink:href="_f_s_events_backend_8cc.html" target="_top" xlink:title=" ">
<polygon fill="white" stroke="#666666" points="1593.75,-119.5 1447.25,-119.5 1447.25,-77.75 1593.75,-77.75 1593.75,-119.5"/>
<text xml:space="preserve" text-anchor="start" x="1455.25" y="-106" font-family="Helvetica,sans-Serif" font-size="10.00">frontend/node_modules</text>
<text xml:space="preserve" text-anchor="start" x="1455.25" y="-94.75" font-family="Helvetica,sans-Serif" font-size="10.00">/@parcel/watcher/src</text>
<text xml:space="preserve" text-anchor="middle" x="1520.5" y="-83.5" font-family="Helvetica,sans-Serif" font-size="10.00">/macos/FSEventsBackend.cc</text>
</a>
</g>
</g>
<!-- Node2&#45;&gt;Node6 -->
<g id="edge43_Node000002_Node000006" class="edge">
<title>Node2&#45;&gt;Node6</title>
<g id="a_edge43_Node000002_Node000006"><a xlink:title=" ">
<path fill="none" stroke="#63b8ff" d="M1352.34,-472.47C1422.57,-453.93 1520.5,-413.62 1520.5,-332.88 1520.5,-332.88 1520.5,-332.88 1520.5,-253.12 1520.5,-205.42 1520.5,-149.38 1520.5,-119.99"/>
<polygon fill="#63b8ff" stroke="#63b8ff" points="1351.63,-469.03 1342.8,-474.88 1353.35,-475.82 1351.63,-469.03"/>
</a>
</g>
</g>
<!-- Node13 -->
<g id="Node000013" class="node">
<title>Node13</title>
<g id="a_Node000013"><a xlink:href="_brute_force_backend_8cc.html" target="_top" xlink:title=" ">
<polygon fill="white" stroke="#666666" points="151,-119.5 0,-119.5 0,-77.75 151,-77.75 151,-119.5"/>
<text xml:space="preserve" text-anchor="start" x="8" y="-106" font-family="Helvetica,sans-Serif" font-size="10.00">frontend/node_modules</text>
<text xml:space="preserve" text-anchor="start" x="8" y="-94.75" font-family="Helvetica,sans-Serif" font-size="10.00">/@parcel/watcher/src</text>
<text xml:space="preserve" text-anchor="middle" x="75.5" y="-83.5" font-family="Helvetica,sans-Serif" font-size="10.00">/shared/BruteForceBackend.cc</text>
</a>
</g>
</g>
<!-- Node2&#45;&gt;Node13 -->
<g id="edge44_Node000002_Node000013" class="edge">
<title>Node2&#45;&gt;Node13</title>
<g id="a_edge44_Node000002_Node000013"><a xlink:title=" ">
<path fill="none" stroke="#63b8ff" d="M1212.14,-484.33C1029.5,-478.65 543.54,-461.04 385.5,-430.5 249.9,-404.3 90.5,-470.98 90.5,-332.88 90.5,-332.88 90.5,-332.88 90.5,-253.12 90.5,-205.2 83.17,-149.25 78.75,-119.92"/>
<polygon fill="#63b8ff" stroke="#63b8ff" points="1211.85,-487.82 1221.95,-484.63 1212.06,-480.83 1211.85,-487.82"/>
</a>
</g>
</g>
<!-- Node21 -->
<g id="Node000021" class="node">
<title>Node21</title>
<g id="a_Node000021"><a xlink:href="_watchman_backend_8cc.html" target="_top" xlink:title=" ">
<polygon fill="white" stroke="#666666" points="334.12,-119.5 168.88,-119.5 168.88,-77.75 334.12,-77.75 334.12,-119.5"/>
<text xml:space="preserve" text-anchor="start" x="176.88" y="-106" font-family="Helvetica,sans-Serif" font-size="10.00">frontend/node_modules</text>
<text xml:space="preserve" text-anchor="start" x="176.88" y="-94.75" font-family="Helvetica,sans-Serif" font-size="10.00">/@parcel/watcher/src</text>
<text xml:space="preserve" text-anchor="middle" x="251.5" y="-83.5" font-family="Helvetica,sans-Serif" font-size="10.00">/watchman/WatchmanBackend.cc</text>
</a>
</g>
</g>
<!-- Node2&#45;&gt;Node21 -->
<g id="edge45_Node000002_Node000021" class="edge">
<title>Node2&#45;&gt;Node21</title>
<g id="a_edge45_Node000002_Node000021"><a xlink:title=" ">
<path fill="none" stroke="#63b8ff" d="M1212.07,-482.97C984.78,-471.05 285.5,-426.74 285.5,-332.88 285.5,-332.88 285.5,-332.88 285.5,-253.12 285.5,-204.27 268.88,-148.69 258.88,-119.67"/>
<polygon fill="#63b8ff" stroke="#63b8ff" points="1211.81,-486.46 1221.98,-483.48 1212.17,-479.47 1211.81,-486.46"/>
</a>
</g>
</g>
<!-- Node22 -->
<g id="Node000022" class="node">
<title>Node22</title>
<g id="a_Node000022"><a xlink:href="_dir_tree_8hh.html" target="_top" xlink:title=" ">
<polygon fill="white" stroke="#666666" points="793.12,-430.5 675.88,-430.5 675.88,-388.75 793.12,-388.75 793.12,-430.5"/>
<text xml:space="preserve" text-anchor="start" x="683.88" y="-417" font-family="Helvetica,sans-Serif" font-size="10.00">frontend/node_modules</text>
<text xml:space="preserve" text-anchor="start" x="683.88" y="-405.75" font-family="Helvetica,sans-Serif" font-size="10.00">/@parcel/watcher/src</text>
<text xml:space="preserve" text-anchor="middle" x="734.5" y="-394.5" font-family="Helvetica,sans-Serif" font-size="10.00">/DirTree.hh</text>
</a>
</g>
</g>
<!-- Node2&#45;&gt;Node22 -->
<g id="edge24_Node000002_Node000022" class="edge">
<title>Node2&#45;&gt;Node22</title>
<g id="a_edge24_Node000002_Node000022"><a xlink:title=" ">
<path fill="none" stroke="#63b8ff" d="M1212.4,-476.69C1103.41,-461.62 895.26,-432.85 793.49,-418.78"/>
<polygon fill="#63b8ff" stroke="#63b8ff" points="1211.71,-480.12 1222.1,-478.03 1212.67,-473.19 1211.71,-480.12"/>
</a>
</g>
</g>
<!-- Node24 -->
<g id="Node000024" class="node">
<title>Node24</title>
<g id="a_Node000024"><a xlink:href="_watcher_8hh.html" target="_top" xlink:title=" ">
<polygon fill="white" stroke="#666666" points="1406.12,-352.75 1288.88,-352.75 1288.88,-311 1406.12,-311 1406.12,-352.75"/>
<text xml:space="preserve" text-anchor="start" x="1296.88" y="-339.25" font-family="Helvetica,sans-Serif" font-size="10.00">frontend/node_modules</text>
<text xml:space="preserve" text-anchor="start" x="1296.88" y="-328" font-family="Helvetica,sans-Serif" font-size="10.00">/@parcel/watcher/src</text>
<text xml:space="preserve" text-anchor="middle" x="1347.5" y="-316.75" font-family="Helvetica,sans-Serif" font-size="10.00">/Watcher.hh</text>
</a>
</g>
</g>
<!-- Node2&#45;&gt;Node24 -->
<g id="edge41_Node000002_Node000024" class="edge">
<title>Node2&#45;&gt;Node24</title>
<g id="a_edge41_Node000002_Node000024"><a xlink:title=" ">
<path fill="none" stroke="#63b8ff" d="M1295.44,-455.82C1308.38,-425.26 1327.9,-379.15 1339,-352.95"/>
<polygon fill="#63b8ff" stroke="#63b8ff" points="1292.26,-454.34 1291.59,-464.91 1298.71,-457.07 1292.26,-454.34"/>
</a>
</g>
</g>
<!-- Node4 -->
<g id="Node000004" class="node">
<title>Node4</title>
<g id="a_Node000004"><a xlink:href="_backend_8cc.html" target="_top" xlink:title=" ">
<polygon fill="white" stroke="#666666" points="1429.12,-119.5 1311.88,-119.5 1311.88,-77.75 1429.12,-77.75 1429.12,-119.5"/>
<text xml:space="preserve" text-anchor="start" x="1319.88" y="-106" font-family="Helvetica,sans-Serif" font-size="10.00">frontend/node_modules</text>
<text xml:space="preserve" text-anchor="start" x="1319.88" y="-94.75" font-family="Helvetica,sans-Serif" font-size="10.00">/@parcel/watcher/src</text>
<text xml:space="preserve" text-anchor="middle" x="1370.5" y="-83.5" font-family="Helvetica,sans-Serif" font-size="10.00">/Backend.cc</text>
</a>
</g>
</g>
<!-- Node3&#45;&gt;Node4 -->
<g id="edge3_Node000003_Node000004" class="edge">
<title>Node3&#45;&gt;Node4</title>
<g id="a_edge3_Node000003_Node000004"><a xlink:title=" ">
<path fill="none" stroke="#63b8ff" d="M1252.92,-221.55C1249.85,-201.21 1249.43,-175.02 1261.5,-155.5 1272.79,-137.23 1292.14,-124.68 1311.43,-116.18"/>
<polygon fill="#63b8ff" stroke="#63b8ff" points="1249.46,-222.05 1254.69,-231.26 1256.34,-220.8 1249.46,-222.05"/>
</a>
</g>
</g>
<!-- Node3&#45;&gt;Node5 -->
<g id="edge4_Node000003_Node000005" class="edge">
<title>Node3&#45;&gt;Node5</title>
<g id="a_edge4_Node000003_Node000005"><a xlink:title=" ">
<path fill="none" stroke="#63b8ff" d="M1330.4,-232.62C1410.7,-213.09 1493.97,-197.28 1548.43,-187.54"/>
<polygon fill="#63b8ff" stroke="#63b8ff" points="1329.95,-229.13 1321.08,-234.91 1331.62,-235.92 1329.95,-229.13"/>
</a>
</g>
</g>
<!-- Node3&#45;&gt;Node6 -->
<g id="edge5_Node000003_Node000006" class="edge">
<title>Node3&#45;&gt;Node6</title>
<g id="a_edge5_Node000003_Node000006"><a xlink:title=" ">
<path fill="none" stroke="#63b8ff" d="M1330.09,-231.24C1371.18,-218.03 1416.84,-202.71 1425.5,-197.25 1434.4,-191.64 1476.85,-146.63 1501.9,-119.73"/>
<polygon fill="#63b8ff" stroke="#63b8ff" points="1329.11,-227.88 1320.65,-234.27 1331.24,-234.55 1329.11,-227.88"/>
</a>
</g>
</g>
<!-- Node7 -->
<g id="Node000007" class="node">
<title>Node7</title>
<g id="a_Node000007"><a xlink:href="_f_s_events_backend_8hh.html" target="_top" xlink:title=" ">
<polygon fill="white" stroke="#666666" points="1416.75,-197.25 1270.25,-197.25 1270.25,-155.5 1416.75,-155.5 1416.75,-197.25"/>
<text xml:space="preserve" text-anchor="start" x="1278.25" y="-183.75" font-family="Helvetica,sans-Serif" font-size="10.00">frontend/node_modules</text>
<text xml:space="preserve" text-anchor="start" x="1278.25" y="-172.5" font-family="Helvetica,sans-Serif" font-size="10.00">/@parcel/watcher/src</text>
<text xml:space="preserve" text-anchor="middle" x="1343.5" y="-161.25" font-family="Helvetica,sans-Serif" font-size="10.00">/macos/FSEventsBackend.hh</text>
</a>
</g>
</g>
<!-- Node3&#45;&gt;Node7 -->
<g id="edge6_Node000003_Node000007" class="edge">
<title>Node3&#45;&gt;Node7</title>
<g id="a_edge6_Node000003_Node000007"><a xlink:title=" ">
<path fill="none" stroke="#63b8ff" d="M1291.19,-225.11C1301.14,-216.03 1311.98,-206.14 1321.2,-197.73"/>
<polygon fill="#63b8ff" stroke="#63b8ff" points="1288.89,-222.48 1283.86,-231.81 1293.61,-227.65 1288.89,-222.48"/>
</a>
</g>
</g>
<!-- Node8 -->
<g id="Node000008" class="node">
<title>Node8</title>
<g id="a_Node000008"><a xlink:href="_brute_force_backend_8hh.html" target="_top" xlink:title=" ">
<polygon fill="white" stroke="#666666" points="1155,-197.25 1004,-197.25 1004,-155.5 1155,-155.5 1155,-197.25"/>
<text xml:space="preserve" text-anchor="start" x="1012" y="-183.75" font-family="Helvetica,sans-Serif" font-size="10.00">frontend/node_modules</text>
<text xml:space="preserve" text-anchor="start" x="1012" y="-172.5" font-family="Helvetica,sans-Serif" font-size="10.00">/@parcel/watcher/src</text>
<text xml:space="preserve" text-anchor="middle" x="1079.5" y="-161.25" font-family="Helvetica,sans-Serif" font-size="10.00">/shared/BruteForceBackend.hh</text>
</a>
</g>
</g>
<!-- Node3&#45;&gt;Node8 -->
<g id="edge8_Node000003_Node000008" class="edge">
<title>Node3&#45;&gt;Node8</title>
<g id="a_edge8_Node000003_Node000008"><a xlink:title=" ">
<path fill="none" stroke="#63b8ff" d="M1201.68,-228.51C1177.9,-218.56 1150.78,-207.21 1128.14,-197.73"/>
<polygon fill="#63b8ff" stroke="#63b8ff" points="1200.02,-231.61 1210.6,-232.24 1202.73,-225.15 1200.02,-231.61"/>
</a>
</g>
</g>
<!-- Node20 -->
<g id="Node000020" class="node">
<title>Node20</title>
<g id="a_Node000020"><a xlink:href="_watchman_backend_8hh.html" target="_top" xlink:title=" ">
<polygon fill="white" stroke="#666666" points="947.12,-197.25 781.88,-197.25 781.88,-155.5 947.12,-155.5 947.12,-197.25"/>
<text xml:space="preserve" text-anchor="start" x="789.88" y="-183.75" font-family="Helvetica,sans-Serif" font-size="10.00">frontend/node_modules</text>
<text xml:space="preserve" text-anchor="start" x="789.88" y="-172.5" font-family="Helvetica,sans-Serif" font-size="10.00">/@parcel/watcher/src</text>
<text xml:space="preserve" text-anchor="middle" x="864.5" y="-161.25" font-family="Helvetica,sans-Serif" font-size="10.00">/watchman/WatchmanBackend.hh</text>
</a>
</g>
</g>
<!-- Node3&#45;&gt;Node20 -->
<g id="edge22_Node000003_Node000020" class="edge">
<title>Node3&#45;&gt;Node20</title>
<g id="a_edge22_Node000003_Node000020"><a xlink:title=" ">
<path fill="none" stroke="#63b8ff" d="M1190.64,-239.76C1122.73,-226.77 1019.57,-207.04 947.5,-193.25"/>
<polygon fill="#63b8ff" stroke="#63b8ff" points="1189.68,-243.14 1200.16,-241.58 1190.99,-236.27 1189.68,-243.14"/>
</a>
</g>
</g>
<!-- Node7&#45;&gt;Node6 -->
<g id="edge7_Node000007_Node000006" class="edge">
<title>Node7&#45;&gt;Node6</title>
<g id="a_edge7_Node000007_Node000006"><a xlink:title=" ">
<path fill="none" stroke="#63b8ff" d="M1401.33,-150.63C1424.51,-140.7 1450.9,-129.41 1472.94,-119.98"/>
<polygon fill="#63b8ff" stroke="#63b8ff" points="1400.14,-147.33 1392.32,-154.48 1402.89,-153.76 1400.14,-147.33"/>
</a>
</g>
</g>
<!-- Node8&#45;&gt;Node4 -->
<g id="edge9_Node000008_Node000004" class="edge">
<title>Node8&#45;&gt;Node4</title>
<g id="a_edge9_Node000008_Node000004"><a xlink:title=" ">
<path fill="none" stroke="#63b8ff" d="M1166.34,-154.66C1207.95,-144.49 1258.42,-131.8 1303.5,-119.5 1306.19,-118.77 1308.94,-118 1311.72,-117.22"/>
<polygon fill="#63b8ff" stroke="#63b8ff" points="1165.76,-151.19 1156.88,-156.96 1167.42,-157.99 1165.76,-151.19"/>
</a>
</g>
</g>
<!-- Node9 -->
<g id="Node000009" class="node">
<title>Node9</title>
<g id="a_Node000009"><a xlink:href="_kqueue_backend_8hh.html" target="_top" xlink:title=" ">
<polygon fill="white" stroke="#666666" points="636.62,-119.5 498.38,-119.5 498.38,-77.75 636.62,-77.75 636.62,-119.5"/>
<text xml:space="preserve" text-anchor="start" x="506.38" y="-106" font-family="Helvetica,sans-Serif" font-size="10.00">frontend/node_modules</text>
<text xml:space="preserve" text-anchor="start" x="506.38" y="-94.75" font-family="Helvetica,sans-Serif" font-size="10.00">/@parcel/watcher/src</text>
<text xml:space="preserve" text-anchor="middle" x="567.5" y="-83.5" font-family="Helvetica,sans-Serif" font-size="10.00">/kqueue/KqueueBackend.hh</text>
</a>
</g>
</g>
<!-- Node8&#45;&gt;Node9 -->
<g id="edge10_Node000008_Node000009" class="edge">
<title>Node8&#45;&gt;Node9</title>
<g id="a_edge10_Node000008_Node000009"><a xlink:title=" ">
<path fill="none" stroke="#63b8ff" d="M992.72,-160.85C980.57,-158.96 968.23,-157.13 956.5,-155.5 818.67,-136.4 782.34,-144.74 645.5,-119.5 642.61,-118.97 639.68,-118.39 636.72,-117.78"/>
<polygon fill="#63b8ff" stroke="#63b8ff" points="991.88,-164.26 1002.3,-162.36 992.97,-157.35 991.88,-164.26"/>
</a>
</g>
</g>
<!-- Node11 -->
<g id="Node000011" class="node">
<title>Node11</title>
<g id="a_Node000011"><a xlink:href="_inotify_backend_8hh.html" target="_top" xlink:title=" ">
<polygon fill="white" stroke="#666666" points="776,-119.5 655,-119.5 655,-77.75 776,-77.75 776,-119.5"/>
<text xml:space="preserve" text-anchor="start" x="663" y="-106" font-family="Helvetica,sans-Serif" font-size="10.00">frontend/node_modules</text>
<text xml:space="preserve" text-anchor="start" x="663" y="-94.75" font-family="Helvetica,sans-Serif" font-size="10.00">/@parcel/watcher/src</text>
<text xml:space="preserve" text-anchor="middle" x="715.5" y="-83.5" font-family="Helvetica,sans-Serif" font-size="10.00">/linux/InotifyBackend.hh</text>
</a>
</g>
</g>
<!-- Node8&#45;&gt;Node11 -->
<g id="edge12_Node000008_Node000011" class="edge">
<title>Node8&#45;&gt;Node11</title>
<g id="a_edge12_Node000008_Node000011"><a xlink:title=" ">
<path fill="none" stroke="#63b8ff" d="M992.72,-157.31C925.95,-143.42 835.38,-124.57 776.21,-112.26"/>
<polygon fill="#63b8ff" stroke="#63b8ff" points="991.65,-160.67 1002.15,-159.28 993.08,-153.82 991.65,-160.67"/>
</a>
</g>
</g>
<!-- Node8&#45;&gt;Node13 -->
<g id="edge14_Node000008_Node000013" class="edge">
<title>Node8&#45;&gt;Node13</title>
<g id="a_edge14_Node000008_Node000013"><a xlink:title=" ">
<path fill="none" stroke="#63b8ff" d="M992.55,-160.05C980.47,-158.29 968.2,-156.71 956.5,-155.5 603.78,-119.16 510.68,-168.54 159.5,-119.5 156.83,-119.13 154.12,-118.71 151.39,-118.25"/>
<polygon fill="#63b8ff" stroke="#63b8ff" points="991.66,-163.46 1002.07,-161.48 992.7,-156.53 991.66,-163.46"/>
</a>
</g>
</g>
<!-- Node14 -->
<g id="Node000014" class="node">
<title>Node14</title>
<g id="a_Node000014"><a xlink:href="fts_8cc.html" target="_top" xlink:title=" ">
<polygon fill="white" stroke="#666666" points="950.12,-119.5 832.88,-119.5 832.88,-77.75 950.12,-77.75 950.12,-119.5"/>
<text xml:space="preserve" text-anchor="start" x="840.88" y="-106" font-family="Helvetica,sans-Serif" font-size="10.00">frontend/node_modules</text>
<text xml:space="preserve" text-anchor="start" x="840.88" y="-94.75" font-family="Helvetica,sans-Serif" font-size="10.00">/@parcel/watcher/src</text>
<text xml:space="preserve" text-anchor="middle" x="891.5" y="-83.5" font-family="Helvetica,sans-Serif" font-size="10.00">/unix/fts.cc</text>
</a>
</g>
</g>
<!-- Node8&#45;&gt;Node14 -->
<g id="edge15_Node000008_Node000014" class="edge">
<title>Node8&#45;&gt;Node14</title>
<g id="a_edge15_Node000008_Node000014"><a xlink:title=" ">
<path fill="none" stroke="#63b8ff" d="M1018.74,-150.89C993.96,-140.91 965.64,-129.5 942.02,-119.98"/>
<polygon fill="#63b8ff" stroke="#63b8ff" points="1017.13,-154.02 1027.72,-154.51 1019.75,-147.53 1017.13,-154.02"/>
</a>
</g>
</g>
<!-- Node15 -->
<g id="Node000015" class="node">
<title>Node15</title>
<g id="a_Node000015"><a xlink:href="legacy_8cc.html" target="_top" xlink:title=" ">
<polygon fill="white" stroke="#666666" points="1294.12,-119.5 1176.88,-119.5 1176.88,-77.75 1294.12,-77.75 1294.12,-119.5"/>
<text xml:space="preserve" text-anchor="start" x="1184.88" y="-106" font-family="Helvetica,sans-Serif" font-size="10.00">frontend/node_modules</text>
<text xml:space="preserve" text-anchor="start" x="1184.88" y="-94.75" font-family="Helvetica,sans-Serif" font-size="10.00">/@parcel/watcher/src</text>
<text xml:space="preserve" text-anchor="middle" x="1235.5" y="-83.5" font-family="Helvetica,sans-Serif" font-size="10.00">/unix/legacy.cc</text>
</a>
</g>
</g>
<!-- Node8&#45;&gt;Node15 -->
<g id="edge16_Node000008_Node000015" class="edge">
<title>Node8&#45;&gt;Node15</title>
<g id="a_edge16_Node000008_Node000015"><a xlink:title=" ">
<path fill="none" stroke="#63b8ff" d="M1131.58,-150.09C1151.74,-140.3 1174.5,-129.24 1193.58,-119.98"/>
<polygon fill="#63b8ff" stroke="#63b8ff" points="1130.13,-146.9 1122.67,-154.41 1133.19,-153.19 1130.13,-146.9"/>
</a>
</g>
</g>
<!-- Node16 -->
<g id="Node000016" class="node">
<title>Node16</title>
<g id="a_Node000016"><a xlink:href="_wasm_backend_8hh.html" target="_top" xlink:title=" ">
<polygon fill="white" stroke="#666666" points="480.38,-119.5 352.62,-119.5 352.62,-77.75 480.38,-77.75 480.38,-119.5"/>
<text xml:space="preserve" text-anchor="start" x="360.62" y="-106" font-family="Helvetica,sans-Serif" font-size="10.00">frontend/node_modules</text>
<text xml:space="preserve" text-anchor="start" x="360.62" y="-94.75" font-family="Helvetica,sans-Serif" font-size="10.00">/@parcel/watcher/src</text>
<text xml:space="preserve" text-anchor="middle" x="416.5" y="-83.5" font-family="Helvetica,sans-Serif" font-size="10.00">/wasm/WasmBackend.hh</text>
</a>
</g>
</g>
<!-- Node8&#45;&gt;Node16 -->
<g id="edge17_Node000008_Node000016" class="edge">
<title>Node8&#45;&gt;Node16</title>
<g id="a_edge17_Node000008_Node000016"><a xlink:title=" ">
<path fill="none" stroke="#63b8ff" d="M992.51,-160.4C980.44,-158.59 968.18,-156.89 956.5,-155.5 749.79,-130.88 694.62,-155 489.5,-119.5 486.65,-119.01 483.76,-118.45 480.84,-117.85"/>
<polygon fill="#63b8ff" stroke="#63b8ff" points="991.62,-163.8 1002.03,-161.86 992.68,-156.88 991.62,-163.8"/>
</a>
</g>
</g>
<!-- Node18 -->
<g id="Node000018" class="node">
<title>Node18</title>
<g id="a_Node000018"><a xlink:href="_windows_backend_8cc.html" target="_top" xlink:title=" ">
<polygon fill="white" stroke="#666666" points="1054.75,-41.75 902.25,-41.75 902.25,0 1054.75,0 1054.75,-41.75"/>
<text xml:space="preserve" text-anchor="start" x="910.25" y="-28.25" font-family="Helvetica,sans-Serif" font-size="10.00">frontend/node_modules</text>
<text xml:space="preserve" text-anchor="start" x="910.25" y="-17" font-family="Helvetica,sans-Serif" font-size="10.00">/@parcel/watcher/src</text>
<text xml:space="preserve" text-anchor="middle" x="978.5" y="-5.75" font-family="Helvetica,sans-Serif" font-size="10.00">/windows/WindowsBackend.cc</text>
</a>
</g>
</g>
<!-- Node8&#45;&gt;Node18 -->
<g id="edge19_Node000008_Node000018" class="edge">
<title>Node8&#45;&gt;Node18</title>
<g id="a_edge19_Node000008_Node000018"><a xlink:title=" ">
<path fill="none" stroke="#63b8ff" d="M1027.81,-149.16C1016.28,-141.09 1005.2,-131.19 997.5,-119.5 982.11,-96.14 978.59,-63.25 978.08,-42.25"/>
<polygon fill="#63b8ff" stroke="#63b8ff" points="1025.55,-151.86 1035.83,-154.41 1029.38,-146 1025.55,-151.86"/>
</a>
</g>
</g>
<!-- Node19 -->
<g id="Node000019" class="node">
<title>Node19</title>
<g id="a_Node000019"><a xlink:href="_windows_backend_8hh.html" target="_top" xlink:title=" ">
<polygon fill="white" stroke="#666666" points="1158.75,-119.5 1006.25,-119.5 1006.25,-77.75 1158.75,-77.75 1158.75,-119.5"/>
<text xml:space="preserve" text-anchor="start" x="1014.25" y="-106" font-family="Helvetica,sans-Serif" font-size="10.00">frontend/node_modules</text>
<text xml:space="preserve" text-anchor="start" x="1014.25" y="-94.75" font-family="Helvetica,sans-Serif" font-size="10.00">/@parcel/watcher/src</text>
<text xml:space="preserve" text-anchor="middle" x="1082.5" y="-83.5" font-family="Helvetica,sans-Serif" font-size="10.00">/windows/WindowsBackend.hh</text>
</a>
</g>
</g>
<!-- Node8&#45;&gt;Node19 -->
<g id="edge20_Node000008_Node000019" class="edge">
<title>Node8&#45;&gt;Node19</title>
<g id="a_edge20_Node000008_Node000019"><a xlink:title=" ">
<path fill="none" stroke="#63b8ff" d="M1080.75,-143.75C1081.07,-135.71 1081.4,-127.29 1081.69,-119.98"/>
<polygon fill="#63b8ff" stroke="#63b8ff" points="1077.26,-143.43 1080.36,-153.56 1084.26,-143.71 1077.26,-143.43"/>
</a>
</g>
</g>
<!-- Node10 -->
<g id="Node000010" class="node">
<title>Node10</title>
<g id="a_Node000010"><a xlink:href="_kqueue_backend_8cc.html" target="_top" xlink:title=" ">
<polygon fill="white" stroke="#666666" points="636.62,-41.75 498.38,-41.75 498.38,0 636.62,0 636.62,-41.75"/>
<text xml:space="preserve" text-anchor="start" x="506.38" y="-28.25" font-family="Helvetica,sans-Serif" font-size="10.00">frontend/node_modules</text>
<text xml:space="preserve" text-anchor="start" x="506.38" y="-17" font-family="Helvetica,sans-Serif" font-size="10.00">/@parcel/watcher/src</text>
<text xml:space="preserve" text-anchor="middle" x="567.5" y="-5.75" font-family="Helvetica,sans-Serif" font-size="10.00">/kqueue/KqueueBackend.cc</text>
</a>
</g>
</g>
<!-- Node9&#45;&gt;Node10 -->
<g id="edge11_Node000009_Node000010" class="edge">
<title>Node9&#45;&gt;Node10</title>
<g id="a_edge11_Node000009_Node000010"><a xlink:title=" ">
<path fill="none" stroke="#63b8ff" d="M567.5,-66C567.5,-57.96 567.5,-49.54 567.5,-42.23"/>
<polygon fill="#63b8ff" stroke="#63b8ff" points="564,-65.81 567.5,-75.81 571,-65.81 564,-65.81"/>
</a>
</g>
</g>
<!-- Node12 -->
<g id="Node000012" class="node">
<title>Node12</title>
<g id="a_Node000012"><a xlink:href="_inotify_backend_8cc.html" target="_top" xlink:title=" ">
<polygon fill="white" stroke="#666666" points="776,-41.75 655,-41.75 655,0 776,0 776,-41.75"/>
<text xml:space="preserve" text-anchor="start" x="663" y="-28.25" font-family="Helvetica,sans-Serif" font-size="10.00">frontend/node_modules</text>
<text xml:space="preserve" text-anchor="start" x="663" y="-17" font-family="Helvetica,sans-Serif" font-size="10.00">/@parcel/watcher/src</text>
<text xml:space="preserve" text-anchor="middle" x="715.5" y="-5.75" font-family="Helvetica,sans-Serif" font-size="10.00">/linux/InotifyBackend.cc</text>
</a>
</g>
</g>
<!-- Node11&#45;&gt;Node12 -->
<g id="edge13_Node000011_Node000012" class="edge">
<title>Node11&#45;&gt;Node12</title>
<g id="a_edge13_Node000011_Node000012"><a xlink:title=" ">
<path fill="none" stroke="#63b8ff" d="M715.5,-66C715.5,-57.96 715.5,-49.54 715.5,-42.23"/>
<polygon fill="#63b8ff" stroke="#63b8ff" points="712,-65.81 715.5,-75.81 719,-65.81 712,-65.81"/>
</a>
</g>
</g>
<!-- Node17 -->
<g id="Node000017" class="node">
<title>Node17</title>
<g id="a_Node000017"><a xlink:href="_wasm_backend_8cc.html" target="_top" xlink:title=" ">
<polygon fill="white" stroke="#666666" points="480.38,-41.75 352.62,-41.75 352.62,0 480.38,0 480.38,-41.75"/>
<text xml:space="preserve" text-anchor="start" x="360.62" y="-28.25" font-family="Helvetica,sans-Serif" font-size="10.00">frontend/node_modules</text>
<text xml:space="preserve" text-anchor="start" x="360.62" y="-17" font-family="Helvetica,sans-Serif" font-size="10.00">/@parcel/watcher/src</text>
<text xml:space="preserve" text-anchor="middle" x="416.5" y="-5.75" font-family="Helvetica,sans-Serif" font-size="10.00">/wasm/WasmBackend.cc</text>
</a>
</g>
</g>
<!-- Node16&#45;&gt;Node17 -->
<g id="edge18_Node000016_Node000017" class="edge">
<title>Node16&#45;&gt;Node17</title>
<g id="a_edge18_Node000016_Node000017"><a xlink:title=" ">
<path fill="none" stroke="#63b8ff" d="M416.5,-66C416.5,-57.96 416.5,-49.54 416.5,-42.23"/>
<polygon fill="#63b8ff" stroke="#63b8ff" points="413,-65.81 416.5,-75.81 420,-65.81 413,-65.81"/>
</a>
</g>
</g>
<!-- Node19&#45;&gt;Node18 -->
<g id="edge21_Node000019_Node000018" class="edge">
<title>Node19&#45;&gt;Node18</title>
<g id="a_edge21_Node000019_Node000018"><a xlink:title=" ">
<path fill="none" stroke="#63b8ff" d="M1045.55,-70.71C1032.68,-61.34 1018.46,-50.98 1006.45,-42.23"/>
<polygon fill="#63b8ff" stroke="#63b8ff" points="1043.26,-73.38 1053.41,-76.43 1047.38,-67.72 1043.26,-73.38"/>
</a>
</g>
</g>
<!-- Node20&#45;&gt;Node21 -->
<g id="edge23_Node000020_Node000021" class="edge">
<title>Node20&#45;&gt;Node21</title>
<g id="a_edge23_Node000020_Node000021"><a xlink:title=" ">
<path fill="none" stroke="#63b8ff" d="M770.42,-168.3C665.77,-159.74 491.89,-143.42 343.5,-119.5 340.43,-119.01 337.32,-118.48 334.17,-117.92"/>
<polygon fill="#63b8ff" stroke="#63b8ff" points="769.82,-171.77 780.07,-169.09 770.38,-164.79 769.82,-171.77"/>
</a>
</g>
</g>
<!-- Node22&#45;&gt;Node8 -->
<g id="edge35_Node000022_Node000008" class="edge">
<title>Node22&#45;&gt;Node8</title>
<g id="a_edge35_Node000022_Node000008"><a xlink:title=" ">
<path fill="none" stroke="#63b8ff" d="M804.52,-400.07C869.71,-390.92 960.99,-374.71 989.5,-352.75 1041.43,-312.77 1066.03,-234.47 1075.13,-197.55"/>
<polygon fill="#63b8ff" stroke="#63b8ff" points="804.42,-396.56 794.99,-401.38 805.37,-403.49 804.42,-396.56"/>
</a>
</g>
</g>
<!-- Node22&#45;&gt;Node9 -->
<g id="edge32_Node000022_Node000009" class="edge">
<title>Node22&#45;&gt;Node9</title>
<g id="a_edge32_Node000022_Node000009"><a xlink:title=" ">
<path fill="none" stroke="#63b8ff" d="M664.06,-405.08C626.86,-399.19 584.13,-385.16 560.5,-352.75 508.44,-281.35 542.44,-166.03 559.46,-119.77"/>
<polygon fill="#63b8ff" stroke="#63b8ff" points="663.51,-408.54 673.9,-406.45 664.47,-401.61 663.51,-408.54"/>
</a>
</g>
</g>
<!-- Node22&#45;&gt;Node11 -->
<g id="edge33_Node000022_Node000011" class="edge">
<title>Node22&#45;&gt;Node11</title>
<g id="a_edge33_Node000022_Node000011"><a xlink:title=" ">
<path fill="none" stroke="#63b8ff" d="M732.56,-377.12C728.67,-313.8 719.99,-172.66 716.75,-119.97"/>
<polygon fill="#63b8ff" stroke="#63b8ff" points="729.05,-377.07 733.16,-386.84 736.04,-376.64 729.05,-377.07"/>
</a>
</g>
</g>
<!-- Node22&#45;&gt;Node13 -->
<g id="edge34_Node000022_Node000013" class="edge">
<title>Node22&#45;&gt;Node13</title>
<g id="a_edge34_Node000022_Node000013"><a xlink:title=" ">
<path fill="none" stroke="#63b8ff" d="M664.43,-402.96C604.87,-396.29 518.04,-382.15 447.5,-352.75 301.13,-291.75 152.98,-168.33 97.91,-119.84"/>
<polygon fill="#63b8ff" stroke="#63b8ff" points="663.78,-406.41 674.09,-403.99 664.52,-399.45 663.78,-406.41"/>
</a>
</g>
</g>
<!-- Node22&#45;&gt;Node14 -->
<g id="edge36_Node000022_Node000014" class="edge">
<title>Node22&#45;&gt;Node14</title>
<g id="a_edge36_Node000022_Node000014"><a xlink:title=" ">
<path fill="none" stroke="#63b8ff" d="M779.05,-382.34C832.82,-347.73 920.48,-281.29 956.5,-197.25 963.81,-180.2 964.24,-172.36 956.5,-155.5 949.92,-141.16 937.64,-129.12 925.52,-119.93"/>
<polygon fill="#63b8ff" stroke="#63b8ff" points="777.29,-379.32 770.71,-387.62 781.03,-385.23 777.29,-379.32"/>
</a>
</g>
</g>
<!-- Node22&#45;&gt;Node15 -->
<g id="edge37_Node000022_Node000015" class="edge">
<title>Node22&#45;&gt;Node15</title>
<g id="a_edge37_Node000022_Node000015"><a xlink:title=" ">
<path fill="none" stroke="#63b8ff" d="M804.82,-407.09C865.65,-403.03 954.17,-390.39 1021.5,-352.75 1123.72,-295.61 1198.65,-169.36 1225.09,-119.99"/>
<polygon fill="#63b8ff" stroke="#63b8ff" points="804.7,-403.59 794.93,-407.68 805.12,-410.58 804.7,-403.59"/>
</a>
</g>
</g>
<!-- Node22&#45;&gt;Node16 -->
<g id="edge38_Node000022_Node000016" class="edge">
<title>Node22&#45;&gt;Node16</title>
<g id="a_edge38_Node000022_Node000016"><a xlink:title=" ">
<path fill="none" stroke="#63b8ff" d="M664.27,-403.23C623.02,-396.81 572.16,-382.88 536.5,-352.75 461.28,-289.19 429.97,-167.8 420.18,-119.84"/>
<polygon fill="#63b8ff" stroke="#63b8ff" points="663.73,-406.69 674.13,-404.63 664.72,-399.76 663.73,-406.69"/>
</a>
</g>
</g>
<!-- Node22&#45;&gt;Node18 -->
<g id="edge40_Node000022_Node000018" class="edge">
<title>Node22&#45;&gt;Node18</title>
<g id="a_edge40_Node000022_Node000018"><a xlink:title=" ">
<path fill="none" stroke="#63b8ff" d="M737.52,-377.21C743.41,-318.73 757.22,-195.5 772.5,-155.5 787.24,-116.89 791.06,-103.35 823.5,-77.75 846.18,-59.85 875.09,-47.38 901.78,-38.84"/>
<polygon fill="#63b8ff" stroke="#63b8ff" points="734.07,-376.52 736.56,-386.82 741.03,-377.21 734.07,-376.52"/>
</a>
</g>
</g>
<!-- Node22&#45;&gt;Node21 -->
<g id="edge39_Node000022_Node000021" class="edge">
<title>Node22&#45;&gt;Node21</title>
<g id="a_edge39_Node000022_Node000021"><a xlink:title=" ">
<path fill="none" stroke="#63b8ff" d="M664.29,-402.84C614.51,-396.28 547.57,-382.34 495.5,-352.75 467.64,-336.92 321.3,-176.73 269.6,-119.67"/>
<polygon fill="#63b8ff" stroke="#63b8ff" points="663.74,-406.29 674.1,-404.05 664.6,-399.35 663.74,-406.29"/>
</a>
</g>
</g>
<!-- Node23 -->
<g id="Node000023" class="node">
<title>Node23</title>
<g id="a_Node000023"><a xlink:href="_dir_tree_8cc.html" target="_top" xlink:title=" ">
<polygon fill="white" stroke="#666666" points="687.12,-352.75 569.88,-352.75 569.88,-311 687.12,-311 687.12,-352.75"/>
<text xml:space="preserve" text-anchor="start" x="577.88" y="-339.25" font-family="Helvetica,sans-Serif" font-size="10.00">frontend/node_modules</text>
<text xml:space="preserve" text-anchor="start" x="577.88" y="-328" font-family="Helvetica,sans-Serif" font-size="10.00">/@parcel/watcher/src</text>
<text xml:space="preserve" text-anchor="middle" x="628.5" y="-316.75" font-family="Helvetica,sans-Serif" font-size="10.00">/DirTree.cc</text>
</a>
</g>
</g>
<!-- Node22&#45;&gt;Node23 -->
<g id="edge25_Node000022_Node000023" class="edge">
<title>Node22&#45;&gt;Node23</title>
<g id="a_edge25_Node000022_Node000023"><a xlink:title=" ">
<path fill="none" stroke="#63b8ff" d="M696.84,-381.71C683.72,-372.34 669.23,-361.98 656.98,-353.23"/>
<polygon fill="#63b8ff" stroke="#63b8ff" points="694.69,-384.48 704.86,-387.45 698.76,-378.78 694.69,-384.48"/>
</a>
</g>
</g>
<!-- Node22&#45;&gt;Node24 -->
<g id="edge26_Node000022_Node000024" class="edge">
<title>Node22&#45;&gt;Node24</title>
<g id="a_edge26_Node000022_Node000024"><a xlink:title=" ">
<path fill="none" stroke="#63b8ff" d="M804.81,-399.97C893.87,-389.01 1052.08,-369.51 1187.5,-352.75 1220.97,-348.61 1258.39,-343.96 1288.61,-340.2"/>
<polygon fill="#63b8ff" stroke="#63b8ff" points="804.5,-396.48 795,-401.18 805.36,-403.43 804.5,-396.48"/>
</a>
</g>
</g>
<!-- Node24&#45;&gt;Node3 -->
<g id="edge27_Node000024_Node000003" class="edge">
<title>Node24&#45;&gt;Node3</title>
<g id="a_edge27_Node000024_Node000003"><a xlink:title=" ">
<path fill="none" stroke="#63b8ff" d="M1315.64,-303.14C1305.13,-293.98 1293.64,-283.98 1283.88,-275.48"/>
<polygon fill="#63b8ff" stroke="#63b8ff" points="1313.2,-305.65 1323.04,-309.58 1317.8,-300.38 1313.2,-305.65"/>
</a>
</g>
</g>
<!-- Node24&#45;&gt;Node5 -->
<g id="edge29_Node000024_Node000005" class="edge">
<title>Node24&#45;&gt;Node5</title>
<g id="a_edge29_Node000024_Node000005"><a xlink:title=" ">
<path fill="none" stroke="#63b8ff" d="M1417.21,-310.6C1443.07,-301.59 1472.03,-289.67 1496.5,-275 1532.82,-253.23 1568.43,-218.96 1589.16,-197.36"/>
<polygon fill="#63b8ff" stroke="#63b8ff" points="1416.12,-307.27 1407.77,-313.8 1418.37,-313.9 1416.12,-307.27"/>
</a>
</g>
</g>
<!-- Node24&#45;&gt;Node6 -->
<g id="edge30_Node000024_Node000006" class="edge">
<title>Node24&#45;&gt;Node6</title>
<g id="a_edge30_Node000024_Node000006"><a xlink:title=" ">
<path fill="none" stroke="#63b8ff" d="M1416.48,-308.74C1433.74,-300.45 1450.9,-289.42 1463.5,-275 1474.01,-262.98 1502.75,-163.19 1514.93,-119.72"/>
<polygon fill="#63b8ff" stroke="#63b8ff" points="1415.4,-305.39 1407.72,-312.69 1418.28,-311.77 1415.4,-305.39"/>
</a>
</g>
</g>
<!-- Node24&#45;&gt;Node8 -->
<g id="edge31_Node000024_Node000008" class="edge">
<title>Node24&#45;&gt;Node8</title>
<g id="a_edge31_Node000024_Node000008"><a xlink:title=" ">
<path fill="none" stroke="#63b8ff" d="M1277.81,-311.78C1250.23,-302.71 1218.88,-290.43 1192.5,-275 1155.58,-253.4 1119.31,-219.09 1098.19,-197.43"/>
<polygon fill="#63b8ff" stroke="#63b8ff" points="1276.54,-315.05 1287.13,-314.77 1278.67,-308.39 1276.54,-315.05"/>
</a>
</g>
</g>
<!-- Node25 -->
<g id="Node000025" class="node">
<title>Node25</title>
<g id="a_Node000025"><a xlink:href="_watcher_8cc.html" target="_top" xlink:title=" ">
<polygon fill="white" stroke="#666666" points="1454.12,-275 1336.88,-275 1336.88,-233.25 1454.12,-233.25 1454.12,-275"/>
<text xml:space="preserve" text-anchor="start" x="1344.88" y="-261.5" font-family="Helvetica,sans-Serif" font-size="10.00">frontend/node_modules</text>
<text xml:space="preserve" text-anchor="start" x="1344.88" y="-250.25" font-family="Helvetica,sans-Serif" font-size="10.00">/@parcel/watcher/src</text>
<text xml:space="preserve" text-anchor="middle" x="1395.5" y="-239" font-family="Helvetica,sans-Serif" font-size="10.00">/Watcher.cc</text>
</a>
</g>
</g>
<!-- Node24&#45;&gt;Node25 -->
<g id="edge28_Node000024_Node000025" class="edge">
<title>Node24&#45;&gt;Node25</title>
<g id="a_edge28_Node000024_Node000025"><a xlink:title=" ">
<path fill="none" stroke="#63b8ff" d="M1366.48,-300.93C1371.88,-292.39 1377.65,-283.3 1382.6,-275.48"/>
<polygon fill="#63b8ff" stroke="#63b8ff" points="1363.57,-298.98 1361.17,-309.3 1369.48,-302.72 1363.57,-298.98"/>
</a>
</g>
</g>
<!-- Node26&#45;&gt;Node5 -->
<g id="edge47_Node000026_Node000005" class="edge">
<title>Node26&#45;&gt;Node5</title>
<g id="a_edge47_Node000026_Node000005"><a xlink:title=" ">
<path fill="none" stroke="#63b8ff" d="M1711.17,-377.7C1698.61,-341.83 1675.7,-281.46 1648.5,-233.25 1641.46,-220.78 1632.11,-207.83 1624.11,-197.54"/>
<polygon fill="#63b8ff" stroke="#63b8ff" points="1707.81,-378.7 1714.38,-387.01 1714.43,-376.42 1707.81,-378.7"/>
</a>
</g>
</g>
</g>
</svg>

<g id="navigator" transform="translate(0 0)" fill="#404254">
  <rect fill="#f2f5e9" fill-opacity="0.5" stroke="#606060" stroke-width=".5" x="0" y="0" width="60" height="60"/>
  <use id="zoomplus" xlink:href="#zoomPlus" x="17" y="9" onmousedown="handleZoom(evt,'in')"/>
  <use id="zoomminus" xlink:href="#zoomMin" x="42" y="9" onmousedown="handleZoom(evt,'out')"/>
  <use id="reset" xlink:href="#resetDef" x="30" y="36" onmousedown="handleReset()"/>
   <use id="arrowup" xlink:href="#arrowUp" x="0" y="0" onmousedown="handlePan(0,-1)"/>
  <use id="arrowright" xlink:href="#arrowRight" x="0" y="0" onmousedown="handlePan(1,0)"/>
  <use id="arrowdown" xlink:href="#arrowDown" x="0" y="0" onmousedown="handlePan(0,1)"/>
  <use id="arrowleft" xlink:href="#arrowLeft" x="0" y="0" onmousedown="handlePan(-1,0)"/>
</g>
<svg viewBox="0 0 15 15" width="100%" height="30px" preserveAspectRatio="xMaxYMin meet">
 <g id="arrow_out" transform="scale(0.3 0.3)">
  <a xlink:href="napi_8h__dep__incl_org.svg" target="_base">
   <rect id="button" ry="5" rx="5" y="6" x="6" height="38" width="38"
        fill="#f2f5e9" fill-opacity="0.5" stroke="#606060" stroke-width="1.0"/>
   <path id="arrow"
     d="M 11.500037,31.436501 C 11.940474,20.09759 22.043105,11.32322 32.158766,21.979434 L 37.068811,17.246167 C 37.068811,17.246167 37.088388,32 37.088388,32 L 22.160133,31.978069 C 22.160133,31.978069 26.997745,27.140456 26.997745,27.140456 C 18.528582,18.264221 13.291696,25.230495 11.500037,31.436501 z"
     style="fill:#404040;"/>
  </a>
 </g>
</svg>

<style type='text/css'>
<![CDATA[
[data-mouse-over-selected='false'] { opacity: 0.7; }
[data-mouse-over-selected='true']  { opacity: 1.0; }
]]>
</style>
<script type="application/ecmascript"><![CDATA[
document.addEventListener('DOMContentLoaded', (event) => {
  highlightEdges();
  highlightAdjacentNodes();
});
]]></script>
</svg>
