<?xml version="1.0" encoding="UTF-8" standalone="no"?>
<!DOCTYPE svg PUBLIC "-//W3C//DTD SVG 1.1//EN"
 "http://www.w3.org/Graphics/SVG/1.1/DTD/svg11.dtd">
<!-- Generated by graphviz version 14.0.4 (20251115.1723)
 -->
<!-- Title: frontend/node_modules/node&#45;addon&#45;api/napi.h Pages: 1 -->
<svg width="747pt" height="149pt"
 viewBox="0.00 0.00 747.00 149.00" xmlns="http://www.w3.org/2000/svg" xmlns:xlink="http://www.w3.org/1999/xlink">
<g id="graph0" class="graph" transform="scale(1 1) rotate(0) translate(4 145)">
<title>frontend/node_modules/node&#45;addon&#45;api/napi.h</title>
<!-- Node1 -->
<g id="Node000001" class="node">
<title>Node1</title>
<g id="a_Node000001"><a xlink:title=" ">
<polygon fill="#999999" stroke="#666666" points="364.25,-141 247,-141 247,-110.5 364.25,-110.5 364.25,-141"/>
<text xml:space="preserve" text-anchor="start" x="255" y="-127.5" font-family="Helvetica,sans-Serif" font-size="10.00">frontend/node_modules</text>
<text xml:space="preserve" text-anchor="middle" x="305.62" y="-116.25" font-family="Helvetica,sans-Serif" font-size="10.00">/node&#45;addon&#45;api/napi.h</text>
</a>
</g>
</g>
<!-- Node2 -->
<g id="Node000002" class="node">
<title>Node2</title>
<g id="a_Node000002"><a xlink:title=" ">
<polygon fill="#e0e0e0" stroke="#999999" points="63.25,-74.5 0,-74.5 0,-55.25 63.25,-55.25 63.25,-74.5"/>
<text xml:space="preserve" text-anchor="middle" x="31.62" y="-61" font-family="Helvetica,sans-Serif" font-size="10.00">node_api.h</text>
</a>
</g>
</g>
<!-- Node1&#45;&gt;Node2 -->
<g id="edge1_Node000001_Node000002" class="edge">
<title>Node1&#45;&gt;Node2</title>
<g id="a_edge1_Node000001_Node000002"><a xlink:title=" ">
<path fill="none" stroke="#63b8ff" d="M246.51,-112.05C194.88,-100.95 121.15,-85.11 74.86,-75.17"/>
<polygon fill="#63b8ff" stroke="#63b8ff" points="75.71,-71.77 65.2,-73.09 74.24,-78.61 75.71,-71.77"/>
</a>
</g>
</g>
<!-- Node3 -->
<g id="Node000003" class="node">
<title>Node3</title>
<g id="a_Node000003"><a xlink:title=" ">
<polygon fill="#e0e0e0" stroke="#999999" points="139.62,-74.5 81.62,-74.5 81.62,-55.25 139.62,-55.25 139.62,-74.5"/>
<text xml:space="preserve" text-anchor="middle" x="110.62" y="-61" font-family="Helvetica,sans-Serif" font-size="10.00">functional</text>
</a>
</g>
</g>
<!-- Node1&#45;&gt;Node3 -->
<g id="edge2_Node000001_Node000003" class="edge">
<title>Node1&#45;&gt;Node3</title>
<g id="a_edge2_Node000001_Node000003"><a xlink:title=" ">
<path fill="none" stroke="#63b8ff" d="M256.92,-110.05C224.17,-100.16 181.52,-87.28 150.73,-77.98"/>
<polygon fill="#63b8ff" stroke="#63b8ff" points="151.99,-74.71 141.41,-75.17 149.97,-81.41 151.99,-74.71"/>
</a>
</g>
</g>
<!-- Node4 -->
<g id="Node000004" class="node">
<title>Node4</title>
<g id="a_Node000004"><a xlink:title=" ">
<polygon fill="#e0e0e0" stroke="#999999" points="229.75,-74.5 157.5,-74.5 157.5,-55.25 229.75,-55.25 229.75,-74.5"/>
<text xml:space="preserve" text-anchor="middle" x="193.62" y="-61" font-family="Helvetica,sans-Serif" font-size="10.00">initializer_list</text>
</a>
</g>
</g>
<!-- Node1&#45;&gt;Node4 -->
<g id="edge3_Node000001_Node000004" class="edge">
<title>Node1&#45;&gt;Node4</title>
<g id="a_edge3_Node000001_Node000004"><a xlink:title=" ">
<path fill="none" stroke="#63b8ff" d="M277.65,-110.05C260.27,-100.91 238.03,-89.22 220.8,-80.16"/>
<polygon fill="#63b8ff" stroke="#63b8ff" points="222.62,-77.16 212.14,-75.61 219.36,-83.36 222.62,-77.16"/>
</a>
</g>
</g>
<!-- Node5 -->
<g id="Node000005" class="node">
<title>Node5</title>
<g id="a_Node000005"><a xlink:title=" ">
<polygon fill="#e0e0e0" stroke="#999999" points="299.25,-74.5 248,-74.5 248,-55.25 299.25,-55.25 299.25,-74.5"/>
<text xml:space="preserve" text-anchor="middle" x="273.62" y="-61" font-family="Helvetica,sans-Serif" font-size="10.00">memory</text>
</a>
</g>
</g>
<!-- Node1&#45;&gt;Node5 -->
<g id="edge4_Node000001_Node000005" class="edge">
<title>Node1&#45;&gt;Node5</title>
<g id="a_edge4_Node000001_Node000005"><a xlink:title=" ">
<path fill="none" stroke="#63b8ff" d="M297.71,-110.2C293.59,-102.61 288.5,-93.24 284.06,-85.07"/>
<polygon fill="#63b8ff" stroke="#63b8ff" points="287.13,-83.4 279.28,-76.28 280.98,-86.74 287.13,-83.4"/>
</a>
</g>
</g>
<!-- Node6 -->
<g id="Node000006" class="node">
<title>Node6</title>
<g id="a_Node000006"><a xlink:title=" ">
<polygon fill="#e0e0e0" stroke="#999999" points="360.12,-74.5 317.12,-74.5 317.12,-55.25 360.12,-55.25 360.12,-74.5"/>
<text xml:space="preserve" text-anchor="middle" x="338.62" y="-61" font-family="Helvetica,sans-Serif" font-size="10.00">mutex</text>
</a>
</g>
</g>
<!-- Node1&#45;&gt;Node6 -->
<g id="edge5_Node000001_Node000006" class="edge">
<title>Node1&#45;&gt;Node6</title>
<g id="a_edge5_Node000001_Node000006"><a xlink:title=" ">
<path fill="none" stroke="#63b8ff" d="M313.78,-110.2C318.08,-102.53 323.41,-93.02 328.02,-84.79"/>
<polygon fill="#63b8ff" stroke="#63b8ff" points="330.96,-86.71 332.8,-76.27 324.86,-83.28 330.96,-86.71"/>
</a>
</g>
</g>
<!-- Node7 -->
<g id="Node000007" class="node">
<title>Node7</title>
<g id="a_Node000007"><a xlink:title=" ">
<polygon fill="#e0e0e0" stroke="#999999" points="418.62,-74.5 378.62,-74.5 378.62,-55.25 418.62,-55.25 418.62,-74.5"/>
<text xml:space="preserve" text-anchor="middle" x="398.62" y="-61" font-family="Helvetica,sans-Serif" font-size="10.00">string</text>
</a>
</g>
</g>
<!-- Node1&#45;&gt;Node7 -->
<g id="edge6_Node000001_Node000007" class="edge">
<title>Node1&#45;&gt;Node7</title>
<g id="a_edge6_Node000001_Node000007"><a xlink:title=" ">
<path fill="none" stroke="#63b8ff" d="M328.61,-110.2C342.64,-101.32 360.53,-89.99 374.72,-81.01"/>
<polygon fill="#63b8ff" stroke="#63b8ff" points="376.43,-84.07 383.01,-75.76 372.69,-78.15 376.43,-84.07"/>
</a>
</g>
</g>
<!-- Node8 -->
<g id="Node000008" class="node">
<title>Node8</title>
<g id="a_Node000008"><a xlink:title=" ">
<polygon fill="#e0e0e0" stroke="#999999" points="480.12,-74.5 437.12,-74.5 437.12,-55.25 480.12,-55.25 480.12,-74.5"/>
<text xml:space="preserve" text-anchor="middle" x="458.62" y="-61" font-family="Helvetica,sans-Serif" font-size="10.00">vector</text>
</a>
</g>
</g>
<!-- Node1&#45;&gt;Node8 -->
<g id="edge7_Node000001_Node000008" class="edge">
<title>Node1&#45;&gt;Node8</title>
<g id="a_edge7_Node000001_Node000008"><a xlink:title=" ">
<path fill="none" stroke="#63b8ff" d="M343.84,-110.05C369.21,-100.28 402.14,-87.61 426.22,-78.34"/>
<polygon fill="#63b8ff" stroke="#63b8ff" points="427.45,-81.62 435.52,-74.77 424.93,-75.09 427.45,-81.62"/>
</a>
</g>
</g>
<!-- Node9 -->
<g id="Node000009" class="node">
<title>Node9</title>
<g id="a_Node000009"><a xlink:href="napi-inl_8h.html" target="_top" xlink:title=" ">
<polygon fill="white" stroke="#666666" points="553.12,-74.5 498.12,-74.5 498.12,-55.25 553.12,-55.25 553.12,-74.5"/>
<text xml:space="preserve" text-anchor="middle" x="525.62" y="-61" font-family="Helvetica,sans-Serif" font-size="10.00">napi&#45;inl.h</text>
</a>
</g>
</g>
<!-- Node1&#45;&gt;Node9 -->
<g id="edge8_Node000001_Node000009" class="edge">
<title>Node1&#45;&gt;Node9</title>
<g id="a_edge8_Node000001_Node000009"><a xlink:title=" ">
<path fill="none" stroke="#63b8ff" d="M360.57,-110.05C399.96,-99.5 452.04,-85.57 487.08,-76.19"/>
<polygon fill="#63b8ff" stroke="#63b8ff" points="487.6,-79.67 496.35,-73.71 485.79,-72.91 487.6,-79.67"/>
</a>
</g>
</g>
<!-- Node10 -->
<g id="Node000010" class="node">
<title>Node10</title>
<g id="a_Node000010"><a xlink:title=" ">
<polygon fill="#e0e0e0" stroke="#999999" points="412.5,-19.25 356.75,-19.25 356.75,0 412.5,0 412.5,-19.25"/>
<text xml:space="preserve" text-anchor="middle" x="384.62" y="-5.75" font-family="Helvetica,sans-Serif" font-size="10.00">algorithm</text>
</a>
</g>
</g>
<!-- Node9&#45;&gt;Node10 -->
<g id="edge9_Node000009_Node000010" class="edge">
<title>Node9&#45;&gt;Node10</title>
<g id="a_edge9_Node000009_Node000010"><a xlink:title=" ">
<path fill="none" stroke="#63b8ff" d="M501.71,-54.84C479.12,-46.31 444.99,-33.42 419.4,-23.76"/>
<polygon fill="#63b8ff" stroke="#63b8ff" points="420.67,-20.5 410.08,-20.24 418.2,-27.04 420.67,-20.5"/>
</a>
</g>
</g>
<!-- Node11 -->
<g id="Node000011" class="node">
<title>Node11</title>
<g id="a_Node000011"><a xlink:title=" ">
<polygon fill="#e0e0e0" stroke="#999999" points="476.25,-19.25 431,-19.25 431,0 476.25,0 476.25,-19.25"/>
<text xml:space="preserve" text-anchor="middle" x="453.62" y="-5.75" font-family="Helvetica,sans-Serif" font-size="10.00">cstring</text>
</a>
</g>
</g>
<!-- Node9&#45;&gt;Node11 -->
<g id="edge10_Node000009_Node000011" class="edge">
<title>Node9&#45;&gt;Node11</title>
<g id="a_edge10_Node000009_Node000011"><a xlink:title=" ">
<path fill="none" stroke="#63b8ff" d="M513.41,-54.84C502.8,-46.99 487.19,-35.45 474.58,-26.12"/>
<polygon fill="#63b8ff" stroke="#63b8ff" points="477,-23.56 466.88,-20.42 472.83,-29.19 477,-23.56"/>
</a>
</g>
</g>
<!-- Node12 -->
<g id="Node000012" class="node">
<title>Node12</title>
<g id="a_Node000012"><a xlink:title=" ">
<polygon fill="#e0e0e0" stroke="#999999" points="556.5,-19.25 494.75,-19.25 494.75,0 556.5,0 556.5,-19.25"/>
<text xml:space="preserve" text-anchor="middle" x="525.62" y="-5.75" font-family="Helvetica,sans-Serif" font-size="10.00">type_traits</text>
</a>
</g>
</g>
<!-- Node9&#45;&gt;Node12 -->
<g id="edge11_Node000009_Node000012" class="edge">
<title>Node9&#45;&gt;Node12</title>
<g id="a_edge11_Node000009_Node000012"><a xlink:title=" ">
<path fill="none" stroke="#63b8ff" d="M525.62,-55.08C525.62,-48.57 525.62,-39.42 525.62,-31.12"/>
<polygon fill="#63b8ff" stroke="#63b8ff" points="529.13,-31.12 525.63,-21.12 522.13,-31.12 529.13,-31.12"/>
</a>
</g>
</g>
<!-- Node13 -->
<g id="Node000013" class="node">
<title>Node13</title>
<g id="a_Node000013"><a xlink:title=" ">
<polygon fill="#e0e0e0" stroke="#999999" points="614.25,-19.25 575,-19.25 575,0 614.25,0 614.25,-19.25"/>
<text xml:space="preserve" text-anchor="middle" x="594.62" y="-5.75" font-family="Helvetica,sans-Serif" font-size="10.00">utility</text>
</a>
</g>
</g>
<!-- Node9&#45;&gt;Node13 -->
<g id="edge12_Node000009_Node000013" class="edge">
<title>Node9&#45;&gt;Node13</title>
<g id="a_edge12_Node000009_Node000013"><a xlink:title=" ">
<path fill="none" stroke="#63b8ff" d="M537.33,-54.84C547.4,-47.07 562.17,-35.67 574.19,-26.4"/>
<polygon fill="#63b8ff" stroke="#63b8ff" points="576.12,-29.33 581.89,-20.45 571.84,-23.79 576.12,-29.33"/>
</a>
</g>
</g>
<!-- Node14 -->
<g id="Node000014" class="node">
<title>Node14</title>
<g id="a_Node000014"><a xlink:href="napi-inl_8deprecated_8h.html" target="_top" xlink:title=" ">
<polygon fill="white" stroke="#666666" points="738.62,-19.25 632.62,-19.25 632.62,0 738.62,0 738.62,-19.25"/>
<text xml:space="preserve" text-anchor="middle" x="685.62" y="-5.75" font-family="Helvetica,sans-Serif" font-size="10.00">napi&#45;inl.deprecated.h</text>
</a>
</g>
</g>
<!-- Node9&#45;&gt;Node14 -->
<g id="edge13_Node000009_Node000014" class="edge">
<title>Node9&#45;&gt;Node14</title>
<g id="a_edge13_Node000009_Node000014"><a xlink:title=" ">
<path fill="none" stroke="#63b8ff" d="M552.77,-54.84C578.86,-46.16 618.52,-32.96 647.72,-23.24"/>
<polygon fill="#63b8ff" stroke="#63b8ff" points="648.53,-26.66 656.91,-20.18 646.32,-20.02 648.53,-26.66"/>
</a>
</g>
</g>
</g>
</svg>
