<?xml version="1.0" encoding="UTF-8" standalone="no"?>
<!DOCTYPE svg PUBLIC "-//W3C//DTD SVG 1.1//EN"
 "http://www.w3.org/Graphics/SVG/1.1/DTD/svg11.dtd">
<!-- Generated by graphviz version 14.0.4 (20251115.1723)
 -->
<!-- Title: Napi::details::disjunction&lt; B, Bs... &gt; Pages: 1 -->
<svg width="230pt" height="116pt"
 viewBox="0.00 0.00 230.00 116.00" xmlns="http://www.w3.org/2000/svg" xmlns:xlink="http://www.w3.org/1999/xlink">
<g id="graph0" class="graph" transform="scale(1 1) rotate(0) translate(4 112.25)">
<title>Napi::details::disjunction&lt; B, Bs... &gt;</title>
<!-- Node1 -->
<g id="Node000001" class="node">
<title>Node1</title>
<g id="a_Node000001"><a xlink:title=" ">
<polygon fill="#999999" stroke="#666666" points="161.88,-30.5 38.62,-30.5 38.62,0 161.88,0 161.88,-30.5"/>
<text xml:space="preserve" text-anchor="start" x="46.62" y="-17" font-family="Helvetica,sans-Serif" font-size="10.00">Napi::details::disjunction</text>
<text xml:space="preserve" text-anchor="middle" x="100.25" y="-5.75" font-family="Helvetica,sans-Serif" font-size="10.00">&lt; B, Bs... &gt;</text>
</a>
</g>
</g>
<!-- Node2 -->
<g id="Node000002" class="node">
<title>Node2</title>
<g id="a_Node000002"><a xlink:title=" ">
<polygon fill="white" stroke="#666666" points="80.5,-97 0,-97 0,-77.75 80.5,-77.75 80.5,-97"/>
<text xml:space="preserve" text-anchor="middle" x="40.25" y="-83.5" font-family="Helvetica,sans-Serif" font-size="10.00">std::false_type</text>
</a>
</g>
</g>
<!-- Node2&#45;&gt;Node1 -->
<g id="edge1_Node000001_Node000002" class="edge">
<title>Node2&#45;&gt;Node1</title>
<g id="a_edge1_Node000001_Node000002"><a xlink:title=" ">
<path fill="none" stroke="#63b8ff" d="M55.1,-69.02C65.12,-57.3 78.2,-42.02 87.7,-30.92"/>
<polygon fill="#63b8ff" stroke="#63b8ff" points="52.67,-66.47 48.83,-76.34 57.99,-71.02 52.67,-66.47"/>
</a>
</g>
</g>
<!-- Node3 -->
<g id="Node000003" class="node">
<title>Node3</title>
<g id="a_Node000003"><a xlink:title=" ">
<polygon fill="white" stroke="#666666" points="221.88,-108.25 98.62,-108.25 98.62,-66.5 221.88,-66.5 221.88,-108.25"/>
<text xml:space="preserve" text-anchor="start" x="106.62" y="-94.75" font-family="Helvetica,sans-Serif" font-size="10.00">std::conditional&lt; bool</text>
<text xml:space="preserve" text-anchor="start" x="106.62" y="-83.5" font-family="Helvetica,sans-Serif" font-size="10.00">(B::value), B, disjunction</text>
<text xml:space="preserve" text-anchor="middle" x="160.25" y="-72.25" font-family="Helvetica,sans-Serif" font-size="10.00">&lt; Bs... &gt; &gt;::type</text>
</a>
</g>
</g>
<!-- Node3&#45;&gt;Node1 -->
<g id="edge2_Node000001_Node000003" class="edge">
<title>Node3&#45;&gt;Node1</title>
<g id="a_edge2_Node000001_Node000003"><a xlink:title=" ">
<path fill="none" stroke="#63b8ff" d="M135.55,-57.51C127.65,-48.27 119.24,-38.45 112.61,-30.7"/>
<polygon fill="#63b8ff" stroke="#63b8ff" points="132.75,-59.62 141.91,-64.94 138.07,-55.07 132.75,-59.62"/>
</a>
</g>
</g>
</g>
</svg>
