<?xml version="1.0" encoding="UTF-8" standalone="no"?>
<!DOCTYPE svg PUBLIC "-//W3C//DTD SVG 1.1//EN"
 "http://www.w3.org/Graphics/SVG/1.1/DTD/svg11.dtd">
<!-- Generated by graphviz version 14.0.4 (20251115.1723)
 -->
<!-- Title: Napi::details::disjunction&lt; B &gt; Pages: 1 -->
<svg width="158pt" height="83pt"
 viewBox="0.00 0.00 158.00 83.00" xmlns="http://www.w3.org/2000/svg" xmlns:xlink="http://www.w3.org/1999/xlink">
<g id="graph0" class="graph" transform="scale(1 1) rotate(0) translate(4 78.5)">
<title>Napi::details::disjunction&lt; B &gt;</title>
<!-- Node1 -->
<g id="Node000001" class="node">
<title>Node1</title>
<g id="a_Node000001"><a xlink:title=" ">
<polygon fill="#999999" stroke="#666666" points="150.25,-19.25 2.25,-19.25 2.25,0 150.25,0 150.25,-19.25"/>
<text xml:space="preserve" text-anchor="middle" x="76.25" y="-5.75" font-family="Helvetica,sans-Serif" font-size="10.00">Napi::details::disjunction&lt; B &gt;</text>
</a>
</g>
</g>
<!-- Node2 -->
<g id="Node000002" class="node">
<title>Node2</title>
<g id="a_Node000002"><a xlink:title=" ">
<polygon fill="white" stroke="#666666" points="80.5,-74.5 0,-74.5 0,-55.25 80.5,-55.25 80.5,-74.5"/>
<text xml:space="preserve" text-anchor="middle" x="40.25" y="-61" font-family="Helvetica,sans-Serif" font-size="10.00">std::false_type</text>
</a>
</g>
</g>
<!-- Node2&#45;&gt;Node1 -->
<g id="edge1_Node000001_Node000002" class="edge">
<title>Node2&#45;&gt;Node1</title>
<g id="a_edge1_Node000001_Node000002"><a xlink:title=" ">
<path fill="none" stroke="#63b8ff" d="M52.57,-45.65C58.51,-36.86 65.37,-26.71 70.18,-19.61"/>
<polygon fill="#63b8ff" stroke="#63b8ff" points="49.74,-43.58 47.04,-53.83 55.54,-47.5 49.74,-43.58"/>
</a>
</g>
</g>
<!-- Node3 -->
<g id="Node000003" class="node">
<title>Node3</title>
<g id="a_Node000003"><a xlink:title=" ">
<polygon fill="white" stroke="#666666" points="127.65,-74.5 98.85,-74.5 98.85,-55.25 127.65,-55.25 127.65,-74.5"/>
<text xml:space="preserve" text-anchor="middle" x="113.25" y="-61" font-family="Helvetica,sans-Serif" font-size="10.00">B</text>
</a>
</g>
</g>
<!-- Node3&#45;&gt;Node1 -->
<g id="edge2_Node000001_Node000003" class="edge">
<title>Node3&#45;&gt;Node1</title>
<g id="a_edge2_Node000001_Node000003"><a xlink:title=" ">
<path fill="none" stroke="#63b8ff" d="M100.59,-45.65C94.48,-36.86 87.43,-26.71 82.49,-19.61"/>
<polygon fill="#63b8ff" stroke="#63b8ff" points="97.7,-47.62 106.28,-53.84 103.44,-43.63 97.7,-47.62"/>
</a>
</g>
</g>
</g>
</svg>
