<?xml version="1.0" encoding="UTF-8" standalone="no"?>
<!DOCTYPE svg PUBLIC "-//W3C//DTD SVG 1.1//EN"
 "http://www.w3.org/Graphics/SVG/1.1/DTD/svg11.dtd">
<!-- Generated by graphviz version 14.0.4 (20251115.1723)
 -->
<!-- Title: frontend/node_modules/@parcel/watcher/src/windows/win_utils.cc Pages: 1 -->
<svg width="133pt" height="160pt"
 viewBox="0.00 0.00 133.00 160.00" xmlns="http://www.w3.org/2000/svg" xmlns:xlink="http://www.w3.org/1999/xlink">
<g id="graph0" class="graph" transform="scale(1 1) rotate(0) translate(4 156.25)">
<title>frontend/node_modules/@parcel/watcher/src/windows/win_utils.cc</title>
<!-- Node1 -->
<g id="Node000001" class="node">
<title>Node1</title>
<g id="a_Node000001"><a xlink:title=" ">
<polygon fill="#999999" stroke="#666666" points="117.25,-152.25 0,-152.25 0,-110.5 117.25,-110.5 117.25,-152.25"/>
<text xml:space="preserve" text-anchor="start" x="8" y="-138.75" font-family="Helvetica,sans-Serif" font-size="10.00">frontend/node_modules</text>
<text xml:space="preserve" text-anchor="start" x="8" y="-127.5" font-family="Helvetica,sans-Serif" font-size="10.00">/@parcel/watcher/src</text>
<text xml:space="preserve" text-anchor="middle" x="58.62" y="-116.25" font-family="Helvetica,sans-Serif" font-size="10.00">/windows/win_utils.cc</text>
</a>
</g>
</g>
<!-- Node2 -->
<g id="Node000002" class="node">
<title>Node2</title>
<g id="a_Node000002"><a xlink:href="win__utils_8hh.html" target="_top" xlink:title=" ">
<polygon fill="white" stroke="#666666" points="95.5,-74.5 21.75,-74.5 21.75,-55.25 95.5,-55.25 95.5,-74.5"/>
<text xml:space="preserve" text-anchor="middle" x="58.62" y="-61" font-family="Helvetica,sans-Serif" font-size="10.00">./win_utils.hh</text>
</a>
</g>
</g>
<!-- Node1&#45;&gt;Node2 -->
<g id="edge1_Node000001_Node000002" class="edge">
<title>Node1&#45;&gt;Node2</title>
<g id="a_edge1_Node000001_Node000002"><a xlink:title=" ">
<path fill="none" stroke="#63b8ff" d="M58.62,-110.32C58.62,-102.65 58.62,-93.89 58.62,-86.2"/>
<polygon fill="#63b8ff" stroke="#63b8ff" points="62.13,-86.46 58.63,-76.46 55.13,-86.46 62.13,-86.46"/>
</a>
</g>
</g>
<!-- Node3 -->
<g id="Node000003" class="node">
<title>Node3</title>
<g id="a_Node000003"><a xlink:title=" ">
<polygon fill="#e0e0e0" stroke="#999999" points="44.62,-19.25 4.62,-19.25 4.62,0 44.62,0 44.62,-19.25"/>
<text xml:space="preserve" text-anchor="middle" x="24.62" y="-5.75" font-family="Helvetica,sans-Serif" font-size="10.00">string</text>
</a>
</g>
</g>
<!-- Node2&#45;&gt;Node3 -->
<g id="edge2_Node000002_Node000003" class="edge">
<title>Node2&#45;&gt;Node3</title>
<g id="a_edge2_Node000002_Node000003"><a xlink:title=" ">
<path fill="none" stroke="#63b8ff" d="M53.01,-55.08C48.51,-48.03 42.04,-37.9 36.41,-29.08"/>
<polygon fill="#63b8ff" stroke="#63b8ff" points="39.51,-27.43 31.18,-20.88 33.61,-31.2 39.51,-27.43"/>
</a>
</g>
</g>
<!-- Node4 -->
<g id="Node000004" class="node">
<title>Node4</title>
<g id="a_Node000004"><a xlink:title=" ">
<polygon fill="#e0e0e0" stroke="#999999" points="124.88,-19.25 62.38,-19.25 62.38,0 124.88,0 124.88,-19.25"/>
<text xml:space="preserve" text-anchor="middle" x="93.62" y="-5.75" font-family="Helvetica,sans-Serif" font-size="10.00">windows.h</text>
</a>
</g>
</g>
<!-- Node2&#45;&gt;Node4 -->
<g id="edge3_Node000002_Node000004" class="edge">
<title>Node2&#45;&gt;Node4</title>
<g id="a_edge3_Node000002_Node000004"><a xlink:title=" ">
<path fill="none" stroke="#63b8ff" d="M64.4,-55.08C69.04,-48.03 75.7,-37.9 81.49,-29.08"/>
<polygon fill="#63b8ff" stroke="#63b8ff" points="84.32,-31.15 86.89,-20.87 78.47,-27.31 84.32,-31.15"/>
</a>
</g>
</g>
</g>
</svg>
